<?xml version="1.0" standalone="no"?>
<!DOCTYPE svg PUBLIC "-//W3C//DTD SVG 1.1//EN" "http://www.w3.org/Graphics/SVG/1.1/DTD/svg11.dtd" >
<svg>
<metadata>
Created by FontForge 20090914 at Mon Feb 25 16:22:52 2013
 By www-data
Atle Mo
</metadata>
<defs>
<font id="SubtleSansLight-Regular" horiz-adv-x="530" >
  <font-face 
    font-family="SubtleSansLight"
    font-weight="400"
    font-stretch="normal"
    units-per-em="1000"
    panose-1="0 0 5 0 0 0 0 0 0 0"
    ascent="800"
    descent="-200"
    x-height="700"
    bbox="-8 -48.001 589 855"
    underline-thickness="50"
    underline-position="-50"
    unicode-range="U+0020-U+00F8"
  />
<missing-glyph horiz-adv-x="250" 
 />
    <glyph glyph-name=".notdef" horiz-adv-x="250" 
 />
    <glyph glyph-name="space" unicode=" " horiz-adv-x="370" 
 />
    <glyph glyph-name="ampersand" unicode="&#x26;" horiz-adv-x="510" 
d="M161 400l-80.002 -65.001c-23.333 -19.333 -40 -43 -50 -71c-9.33301 -28 -12.666 -57 -9.99902 -87c4.66699 -50 25.5 -92 62.5 -126s80.5 -51 130.5 -51c8 0 13.667 0.333008 17 1c52.667 4 97 26.667 133 68c11.333 14 20.666 28.667 27.999 44l90 -113h33l-113 140
c6.66699 22 9 45.667 7 71l-25 -2c0.666992 -13.333 0 -27.666 -2 -42.999l-186 231l79 64c20 15.333 34 32.666 42 51.999c10 21.333 14 43.666 12 66.999c-3.33301 36.667 -19.166 66.834 -47.499 90.501s-60.833 33.834 -97.5 30.501c-36 -3.33301 -66 -19 -90 -47
s-34.333 -60.333 -31 -97c2.66699 -28 14.334 -54 35.001 -78zM179.998 416.999l-63.001 78c-16.667 20.667 -26 42 -28 64c-3.33301 29.333 5 55.333 25 78c18.667 22.667 43 35.667 73 39h9c27.333 0 51.333 -9.33301 72 -28s32.334 -42 35.001 -70
c4 -40 -10.333 -72 -43 -96zM96.9971 315.999l80.001 63.999l197 -245c-7.33301 -18 -17.333 -34.333 -30 -49c-30 -36 -68.333 -56 -115 -60c-46 -4 -86.833 9 -122.5 39s-55.834 68 -60.501 114c-4.66699 58.667 12.333 104.334 51 137.001z" />
    <glyph glyph-name="quotesingle" unicode="'" horiz-adv-x="90" 
d="M22 656l27 -9l41 121l-28 9z" />
    <glyph glyph-name="parenleft" unicode="(" horiz-adv-x="190" 
d="M142 790l32.999 0.000976562c-44.667 -52.667 -79 -115.667 -103 -189s-36 -150 -36 -230c0 -80.667 11.833 -157.334 35.5 -230.001s57.834 -135.667 102.501 -189h-32c-40.667 52 -71.667 110.667 -93 176c-26 77.333 -39 158.333 -39 243c0 85.333 13 166 39 242
c23.333 67.333 54.333 126.333 93 177z" />
    <glyph glyph-name="parenright" unicode=")" horiz-adv-x="200" 
d="M43 -48l-32.001 -0.000976562c44.667 53.333 78.834 116.333 102.501 189s35.5 149.334 35.5 230.001c0 80 -12 156.667 -36 230s-58.333 136.333 -103 189h33c39.333 -50.667 70.333 -109.667 93 -177c26 -76 39 -156.667 39 -242c0 -84.667 -13 -165.667 -39 -243
c-21.333 -65.333 -52.333 -124 -93 -176z" />
    <glyph glyph-name="plus" unicode="+" horiz-adv-x="330" 
d="M307 337v-23h-129v-128h-23v128h-127v23h127v128h23v-128h129z" />
    <glyph glyph-name="hyphen" unicode="-" horiz-adv-x="330" 
d="M26 314h279v23h-279v-23z" />
    <glyph glyph-name="period" unicode="." horiz-adv-x="40" 
d="M31 11c0 8.66699 -4.33301 13 -13 13c-9.33301 0 -14 -4.33301 -14 -13c0 -9.33301 4.66699 -14 14 -14c8.66699 0 13 4.66699 13 14z" />
    <glyph glyph-name="zero" unicode="0" horiz-adv-x="420" 
d="M209 0c53.333 0 98 35 134 105c34.667 65.333 52 148 52 248c0 95.333 -17.333 176 -52 242c-36 70 -80.667 105 -134 105s-98 -35 -134 -105c-34.667 -68 -52 -148.667 -52 -242c0 -98 17.333 -180.667 52 -248c36 -70 80.667 -105 134 -105zM209 674
c43.333 0 80.333 -30.333 111 -91c33.333 -63.333 50 -140 50 -230c0 -93.333 -16.667 -172.333 -50 -237c-31.333 -60 -68.333 -90 -111 -90s-79.667 30 -111 90c-32.667 63.333 -49 142.333 -49 237c0 91.333 16.333 168 49 230c30.667 60.667 67.667 91 111 91z" />
    <glyph glyph-name="one" unicode="1" horiz-adv-x="250" 
d="M128 0h26v725l-92 -92l18 -18l48 47v-662z" />
    <glyph glyph-name="two" unicode="2" 
d="M40 0l408.001 0.00195312v26h-335c72.667 61.333 133.667 122.333 183 183c44.667 56 78.334 110 101.001 162c27.333 60 38.666 108.333 33.999 145c0 51.333 -18.333 94.666 -55 129.999c-36 36 -79.667 54 -131 54s-94.333 -18 -129 -54
c-35.333 -35.333 -53 -78.333 -53 -129h26c0 44 15.167 81.167 45.5 111.5s67.166 45.5 110.499 45.5c44.667 0 82.5 -15.5 113.5 -46.5s46.5 -68.5 46.5 -112.5v-2c4 -33.333 -7 -78 -33 -134c-53.333 -116.667 -154.333 -235.334 -303 -356.001z" />
    <glyph glyph-name="three" unicode="3" horiz-adv-x="460" 
d="M78 183l-26.001 -0.000976562c0 -50 17.667 -93.333 53 -130c35.333 -35.333 78.333 -53 129 -53c63.333 0 113.333 25.5 150 76.5s45.667 106.833 27 167.5c-12.667 40.667 -36.667 76.334 -72 107.001c36.667 31.333 60.667 66 72 104c10.667 29.333 12.167 62 4.5 98
s-24.5 67 -50.5 93c-37.333 36 -81 54 -131 54c-50.667 0 -93.667 -17.667 -129 -53s-53 -78.333 -53 -129h26c0 44 15 81 45 111s67 45 111 45s81.667 -15.5 113 -46.5s47 -68.5 47 -112.5c1.33301 -15.333 -1.33398 -33.333 -8.00098 -54
c-7.33301 -22.667 -17.333 -41.667 -30 -57s-32 -33 -58 -53c26.667 -20 46.334 -38.5 59.001 -55.5s22.334 -36.5 29.001 -58.5c2.66699 -8.66699 4.66699 -17.5 6 -26.5s2 -15.833 2 -20.5v-6c0 -45.333 -15.667 -83 -47 -113s-69 -45 -113 -45s-81 15.167 -111 45.5
s-45 67.5 -45 111.5z" />
    <glyph glyph-name="four" unicode="4" horiz-adv-x="480" 
d="M419 245v-26h-70v-219h-26v219h-293l200 346v-55l-155 -265h248v455h26v-455h70z" />
    <glyph glyph-name="five" unicode="5" horiz-adv-x="460" 
d="M76 183l-25.998 -0.000976562c0 -51.333 17.667 -94.666 53 -129.999s78.333 -53 129 -53c51.333 0 95 18 131 54c36.667 36.667 55 80 55 130c0 21.333 -3 41.666 -9 60.999c-14 46.667 -42.333 86.334 -85 119.001c-0.666992 0.666992 -3.33398 2.5 -8.00098 5.5
s-12.5 6.66699 -23.5 11s-22.5 7.83301 -34.5 10.5c-48.667 10 -95.667 4.66699 -141 -16l31 299h217v26h-241l-38 -371l21 12c47.333 26.667 95.333 35 144 25c29.333 -6 48.666 -13.667 57.999 -23c36.667 -28 61.667 -62.667 75 -104
c2.66699 -9.33301 4.66699 -18.5 6 -27.5s2 -15.5 2 -19.5v-7c0 -44 -15.667 -81.5 -47 -112.5s-69 -46.5 -113 -46.5s-81 15.167 -111 45.5s-45 67.5 -45 111.5z" />
    <glyph glyph-name="six" unicode="6" horiz-adv-x="480" 
d="M353 700l-38.002 -0.000976562c-61.333 -60 -112.666 -122 -153.999 -186c-36 -54 -64.333 -110.333 -85 -169c-18.667 -54 -28 -107 -28 -159c0 -50.667 18 -94.667 54 -132c36 -36 80 -54 132 -54c51.333 0 96 18.333 134 55c36.667 36 55.667 80.333 57 133
c0 21.333 -3 42.333 -9 63c-14.667 48.667 -43.667 89 -87 121l-15 -20c38 -29.333 63.667 -65 77 -107c2.66699 -9.33301 4.66699 -18.666 6 -27.999s2 -16.333 2 -21v-7v-1c0 -44.667 -16.167 -82.834 -48.5 -114.501s-71.166 -47.5 -116.499 -47.5
s-83.333 15.5 -114 46.5s-46 69.167 -46 114.5v1c0 48.667 9 98.667 27 150c44 124.667 128 245.334 252 362.001z" />
    <glyph glyph-name="seven" unicode="7" horiz-adv-x="460" 
d="M440 700l-203 -344h39v-26h-54l-195 -330h-30l194 330h-48v26h64l187 318h-374v26h420z" />
    <glyph glyph-name="eight" unicode="8" 
d="M251 0l14.001 -0.000976562c50 0 93.333 17.667 130 53c36 34.667 54 77.334 54 128.001c2.66699 12 0 32.667 -8 62c-13.333 42 -37 77.333 -71 106c28 24 48.667 51.833 62 83.5s19 60.167 17 85.5c0 50 -18 93 -54 129c-36.667 35.333 -80 53 -130 53h-14
c-50.667 0 -93.667 -17.667 -129 -53c-36.667 -36.667 -55 -79.667 -55 -129c-2 -25.333 3.5 -53.5 16.5 -84.5s34.167 -58.833 63.5 -83.5c-34.667 -29.333 -58.334 -65 -71.001 -107c-6 -19.333 -9 -40 -9 -62c0 -50 18.333 -92.667 55 -128
c35.333 -35.333 78.333 -53 129 -53zM93.001 515.999l0.00195312 0.999023c0 43.333 15.5 80.333 46.5 111s68.167 46 111.5 46h14c44 0 81.333 -15.333 112 -46s46 -67.667 46 -111v-1v-10c0 -4 -1.16699 -12.333 -3.5 -25s-6 -25 -11 -37s-13.333 -25.833 -25 -41.5
s-25.834 -29.834 -42.501 -42.501l-13 -10l13 -11c37.333 -28.667 62 -63 74 -103c2.66699 -8.66699 4.66699 -17.5 6 -26.5s2 -15.5 2 -19.5v-7v-1c0 -42.667 -15.5 -79.334 -46.5 -110.001s-68.167 -46 -111.5 -46h-14c-43.333 0 -80.5 15.333 -111.5 46
s-46.5 67.334 -46.5 110.001v1c0 63.333 27.333 115.333 82 156l14 11l-14 10c-36.667 28 -61.334 62.667 -74.001 104c-2.66699 8.66699 -4.66699 17.334 -6 26.001s-2 15.334 -2 20.001v6z" />
    <glyph glyph-name="nine" unicode="9" horiz-adv-x="450" 
d="M16 0l44.002 -0.00488281c75.333 53.333 140.666 111 195.999 173c50 56.667 88 114.334 114 173.001c26.667 58.667 40 115.334 40 170.001c0 50 -18.333 93.333 -55 130c-36 36 -79.667 54 -131 54s-94.333 -18 -129 -54c-34.667 -34.667 -52 -77.667 -52 -129
c0 -53.333 16 -97 48 -131c32.667 -34.667 79.667 -52 141 -52v25c-53.333 0 -94 14.667 -122 44c-22 22.667 -35.333 49.834 -40 81.501s-1.83398 61.334 8.49902 89.001s28.5 51.334 54.5 71.001s56.333 29.5 91 29.5c44.667 0 82.5 -15.5 113.5 -46.5
s46.5 -68.5 46.5 -112.5c0 -50.667 -12.667 -104 -38 -160c-58 -128 -168 -246.333 -330 -355z" />
    <glyph glyph-name="a" unicode="a" horiz-adv-x="493" 
d="M408 0l-51 209h-212l-51 -209h-24l171 700h20l171 -700h-24zM151 232h200l-100 412z" />
    <glyph glyph-name="b" unicode="b" horiz-adv-x="510" 
d="M73 0h189.001c51.333 0 94.333 18 129 54c36 36 54 78.333 54 127c0 49.333 -18 92 -54 128c-18 19.333 -39 33.333 -63 42c26 10 47.333 23.667 64 41c35.333 34 53 75 53 123c0 50.667 -17.833 94.167 -53.5 130.5s-78.834 54.5 -129.501 54.5h-189v-700zM262.001 23
h-166v654h166c44 0 81.667 -16 113 -48s47 -70 47 -114c0 -40 -14.167 -74.5 -42.5 -103.5s-63.166 -45.167 -104.499 -48.5h-63v-23h63c41.333 -3.33301 76.166 -20.333 104.499 -51s42.5 -66.667 42.5 -108c0 -43.333 -15.667 -80.5 -47 -111.5s-69 -46.5 -113 -46.5z" />
    <glyph glyph-name="c" unicode="c" 
d="M248 25l41.001 0.000976562c36 0 68.667 10 98 30c22 14 39.667 33 53 57l23 -10c-17.333 -30.667 -41.833 -55.334 -73.5 -74.001s-65.167 -28 -100.5 -28h-41c-56 0 -103.667 19.5 -143 58.5s-59 86.5 -59 142.5v298c0 56 19.667 103.5 59 142.5s87 58.5 143 58.5h41
c36 0 70 -9.66699 102 -29s56.667 -44.666 74 -75.999l-23 -10c-14 24.667 -32 44 -54 58c-30.667 21.333 -63.667 32 -99 32h-41c-48.667 0 -90.334 -17.333 -125.001 -52s-52 -76 -52 -124v-298c0 -48.667 17.333 -90.334 52 -125.001c34 -34 75.667 -51 125 -51z" />
    <glyph glyph-name="d" unicode="d" 
d="M67 700h199c54 0 99.333 -18.333 136 -55s55 -82 55 -136v-310c0 -54.667 -18.5 -101.5 -55.5 -140.5s-82.167 -58.5 -135.5 -58.5h-199v700zM434 199l-0.000976562 310c0 46.667 -16 86.667 -48 120c-33.333 32 -73.333 48 -120 48h-176v-654h176
c46.667 0 86.334 17.333 119.001 52c16 16 28 34.667 36 56c8.66699 21.333 13 44 13 68z" />
    <glyph glyph-name="e" unicode="e" horiz-adv-x="500" 
d="M90 23h333v-23h-356v700h348v-23h-325v-310h260v-23h-260v-321z" />
    <glyph glyph-name="f" unicode="f" horiz-adv-x="470" 
d="M419 677h-326v-315h257v-23h-257v-339h-23v700h349v-23z" />
    <glyph glyph-name="g" unicode="g" 
d="M252 0l40 -0.000976562c54.667 0 101.334 19.5 140.001 58.5s58 86.167 58 141.5v162h-180v-23h157v-139c0 -49.333 -17 -91.166 -51 -125.499s-75.333 -51.5 -124 -51.5h-40c-48.667 0 -90.334 17.333 -125.001 52s-52 76.334 -52 125.001v302
c0 48 17.333 89.167 52 123.5s76.334 51.5 125.001 51.5h40c48.667 0 90 -17.167 124 -51.5s51 -75.5 51 -123.5v-20h23v20c0 56 -19.333 102.667 -58 140c-38.667 38.667 -85.334 58 -140.001 58h-40c-55.333 0 -102.5 -19.333 -141.5 -58s-58.5 -85.334 -58.5 -140.001
v-302c0 -54.667 19.667 -101.667 59 -141s86.333 -59 141 -59z" />
    <glyph glyph-name="h" unicode="h" horiz-adv-x="529" 
d="M420 700h23v-700h-23v339h-317v-339h-23v700h23v-338h317v338z" />
    <glyph glyph-name="i" unicode="i" horiz-adv-x="250" 
d="M100 0h23v700h-23v-700z" />
    <glyph glyph-name="j" unicode="j" horiz-adv-x="490" 
d="M37 201l-22.999 -0.000976562c0 -55.333 19.667 -102.666 59 -141.999s86.666 -59 141.999 -59c56 0 103.167 19.5 141.5 58.5s57.5 86.5 57.5 142.5v499h-23v-499c0 -49.333 -17.167 -91.333 -51.5 -126s-75.833 -52 -124.5 -52s-90.5 17.5 -125.5 52.5
s-52.5 76.833 -52.5 125.5z" />
    <glyph glyph-name="k" unicode="k" horiz-adv-x="490" 
d="M443 700l-291 -290l282 -410h-28l-270 394l-50 -50v-344h-23v700h23v-324l323 324h34z" />
    <glyph glyph-name="l" unicode="l" horiz-adv-x="380" 
d="M58 0h249v23h-226v677h-23v-700z" />
    <glyph glyph-name="m" unicode="m" horiz-adv-x="540" 
d="M477 0h23v700h-21l-207 -336l-210 336h-21v-700h23v653l208 -333l205 332v-652z" />
    <glyph glyph-name="n" unicode="n" horiz-adv-x="560" 
d="M457 0h21v700h-23v-650l-372 650h-25v-700h23v657z" />
    <glyph glyph-name="o" unicode="o" 
d="M243 0h40c55.333 -0 102.333 19.333 141 58s58 85.667 58 141v302c0 55.333 -19.333 102.333 -58 141s-85.667 58 -141 58h-40c-55.333 0 -102.333 -19.333 -141 -58s-58 -85.667 -58 -141v-302c0 -55.333 19.333 -102.333 58 -141s85.667 -58 141 -58zM67 199v302
c0 48.667 17.167 90.167 51.5 124.5s75.833 51.5 124.5 51.5h40c48.667 0 90.167 -17.167 124.5 -51.5s51.5 -75.833 51.5 -124.5v-302c0 -48.667 -17.167 -90.167 -51.5 -124.5s-75.833 -51.5 -124.5 -51.5h-40c-48.667 0 -90.167 17.167 -124.5 51.5
s-51.5 75.833 -51.5 124.5z" />
    <glyph glyph-name="p" unicode="p" horiz-adv-x="500" 
d="M80 0h23v677h166c44 0 81.667 -15.667 113 -47s47 -69.333 47 -114s-15.333 -82.167 -46 -112.5s-68 -45.5 -112 -45.5h-60v-23h60c49.333 0 92 17.333 128 52c35.333 35.333 53 78.333 53 129s-18 94 -54 130c-34.667 36 -77.667 54 -129 54h-189v-700z" />
    <glyph glyph-name="q" unicode="q" horiz-adv-x="570" 
d="M495 501v-302c0 -56.667 -20.667 -104.667 -62 -144l56 -55h-33l-40 40c-35.333 -26.667 -75.333 -40 -120 -40h-40c-54.667 -0 -101.5 19.333 -140.5 58s-58.5 85.667 -58.5 141v302c0 55.333 19.5 102.333 58.5 141s85.833 58 140.5 58h40
c54.667 0 101.5 -19.333 140.5 -58s58.5 -85.667 58.5 -141zM399 57l-56 55.999h32l42 -42c36.667 34.667 55 77.334 55 128.001v302c0 48.667 -17.167 90.167 -51.5 124.5s-75.833 51.5 -124.5 51.5h-40c-48.667 0 -90.167 -17.167 -124.5 -51.5
s-51.5 -75.833 -51.5 -124.5v-302c0 -48.667 17.167 -90.167 51.5 -124.5s75.833 -51.5 124.5 -51.5h40c38.667 0 73 11.333 103 34z" />
    <glyph glyph-name="r" unicode="r" horiz-adv-x="550" 
d="M203 358l225 -358h28l-211 335h26c50 0 92.667 17.667 128 53c35.333 34 53 76.667 53 128c0 50.667 -18 94 -54 130c-34.667 36 -77.667 54 -129 54h-189v-700h23v677h166c44 0 81.667 -15.667 113 -47s47 -69.333 47 -114s-15.333 -82.167 -46 -112.5
s-68 -45.5 -112 -45.5h-68z" />
    <glyph glyph-name="s" unicode="s" horiz-adv-x="475" 
d="M73 181l-23.002 -0.000976562c0 -50.667 18 -93.334 54 -128.001c36.667 -35.333 80.334 -53 131.001 -53c51.333 0 95.666 17.667 132.999 53c37.333 36 56 79 56 129c4 22 -1.66699 47 -17 75c-12 24 -30.667 44 -56 60c-29.333 20.667 -68.333 35.667 -117 45
c-70 14 -118 44.333 -144 91c-5.33301 10.667 -9.5 21.5 -12.5 32.5s-4.5 19.167 -4.5 24.5v9v1c0 44 16.333 81.667 49 113s71.667 47 117 47s83.666 -15.333 114.999 -46s47 -68 47 -112h23c0 50.667 -18 93.334 -54 128.001c-35.333 35.333 -79 53 -131 53
c-51.333 0 -95.666 -18 -132.999 -54c-37.333 -35.333 -56 -78.333 -56 -129c0 -26.667 6.33301 -52.334 19 -77.001c14 -24.667 32 -44.667 54 -60c26.667 -20 62.334 -34.667 107.001 -44c78.667 -15.333 130.667 -45.666 156 -90.999c5.33301 -10 9.33301 -20.333 12 -31
s4 -19 4 -25l-1 -8v-2c0 -43.333 -16.167 -80.666 -48.5 -111.999s-71.5 -47 -117.5 -47c-45.333 0 -83.666 15.333 -114.999 46s-47 68 -47 112z" />
    <glyph glyph-name="t" unicode="t" horiz-adv-x="464" 
d="M434 700v-23h-200v-677h-23v677h-193v23h416z" />
    <glyph glyph-name="u" unicode="u" horiz-adv-x="550" 
d="M71 700l0.00195312 -499c0 -55.333 19.667 -102.666 59 -141.999s86.666 -59 141.999 -59s102.5 19.667 141.5 59s58.5 86.666 58.5 141.999v499h-23v-499c0 -48.667 -17.333 -90.5 -52 -125.5s-76.334 -52.5 -125.001 -52.5c-49.333 0 -91.333 17.5 -126 52.5
s-52 76.833 -52 125.5v499h-23z" />
    <glyph glyph-name="v" unicode="v" horiz-adv-x="520" 
d="M241 0h22l171 700h-25l-157 -651l-158 651h-24z" />
    <glyph glyph-name="w" unicode="w" horiz-adv-x="660" 
d="M396 0h22l171 700h-23l-159 -651l-78 320h-22l-78 -320l-158 651h-24l171 -700h22l78 319z" />
    <glyph glyph-name="x" unicode="x" horiz-adv-x="570" 
d="M468 700h27l-207 -351l206 -349h-27l-193 327l-192 -327h-27l206 349l-207 351h27l193 -328z" />
    <glyph glyph-name="y" unicode="y" horiz-adv-x="500" 
d="M447 700h26l-210 -352v-348h-23v348l-208 352h27l192 -327z" />
    <glyph glyph-name="z" unicode="z" horiz-adv-x="410" 
d="M57 0h300v23h-266l281 677h-300v-23h266z" />
    <glyph glyph-name="acute" unicode="&#xb4;" horiz-adv-x="70" 
d="M-8 656l27 -9l41 121l-28 9z" />
    <glyph glyph-name="aring" unicode="&#xe5;" horiz-adv-x="480" 
d="M225 725c18 0 33.5 6.33301 46.5 19s19.5 28 19.5 46s-6.5 33.333 -19.5 46s-28.5 19 -46.5 19s-33.333 -6.33301 -46 -19s-19 -28 -19 -46s6.33301 -33.333 19 -46s28 -19 46 -19zM225 833c12 0 22.167 -4.33301 30.5 -13s12.5 -18.667 12.5 -30
c0 -12 -4.16699 -22.167 -12.5 -30.5s-18.5 -12.5 -30.5 -12.5c-11.333 0 -21.166 4.16699 -29.499 12.5s-12.5 18.5 -12.5 30.5c0 11.333 4.16699 21.333 12.5 30s18.166 13 29.499 13zM382 0l-51 209h-212l-51 -209h-24l171 700h20l171 -700h-24zM125 232h200l-100 412z
" />
    <glyph glyph-name="ae" unicode="&#xe6;" horiz-adv-x="560" 
d="M507 677h-86v-426h86v-23h-86v-205h86v-23h-109v228h-245l-134 -228h-27l413 700h102v-23zM167 251h231v392z" />
    <glyph glyph-name="oslash" unicode="&#xf8;" horiz-adv-x="610" 
d="M531 700l-43.999 -75c29.333 -36.667 44 -78.334 44 -125.001v-299c0 -55.333 -19.5 -102.666 -58.5 -141.999s-86.167 -59 -141.5 -59h-40c-54 0 -100.667 18.667 -140 56l-33 -56h-30l45 76c-28.667 37.333 -43 79 -43 125v299c0 55.333 19.667 102.5 59 141.5
s86.666 58.5 141.999 58.5h40c53.333 0 99.333 -18.667 138 -56l33 56h29zM116.001 500v-299c0 -36 10.333 -69.333 31 -100l309 520c-34 35.333 -75.667 53 -125 53h-40c-48.667 0 -90 -17 -124 -51s-51 -75 -51 -123zM505.001 201v299c0 37.333 -10.667 71 -32 101
l-308 -522c34 -35.333 76 -53 126 -53h40c48 0 89 17 123 51s51 75.333 51 124z" />
    <glyph glyph-name=".null" horiz-adv-x="0" 
 />
    <glyph glyph-name="nonmarkingreturn" horiz-adv-x="333" 
 />
    </font>
</defs>
</svg>
