<?xml version="1.0" standalone="no"?>
<!DOCTYPE svg PUBLIC "-//W3C//DTD SVG 1.1//EN" "http://www.w3.org/Graphics/SVG/1.1/DTD/svg11.dtd" >
<svg xmlns="http://www.w3.org/2000/svg">
<metadata></metadata>
<defs>
<font id="kruengprungregular" horiz-adv-x="0" >
<font-face units-per-em="2048" ascent="1638" descent="-410" />
<missing-glyph horiz-adv-x="378" />
<glyph unicode="&#x3b;&#x3b;For&#x20;Education&#x20;Used&#x20;Only&#x3b;&#x3b;" horiz-adv-x="657" d="M61 543q0 117 19 237q10 59 26.5 118.5t49.5 94.5q39 43 95 55.5t109 12.5h26.5t29.5 -4q47 -10 82 -31q18 -12 46.5 -46t39.5 -56q6 -18 7 -43t1 -47v-33q2 -23 2 -51.5v-57.5v-49q0 -47 1 -75.5t1 -55.5v-26.5t-2 -24.5q-4 -94 -23 -185q-4 -20 -12 -41.5t-12 -46.5 q-16 -59 -40 -102t-63 -78q-8 -6 -18 -8t-18 -6q-12 -6 -26.5 -8t-31.5 -2q-68 0 -115 31.5t-78.5 81.5t-51 112.5t-28.5 125t-12.5 118t-3.5 90.5zM88 528q0 -61 8 -149t35 -168t78 -137.5t139 -57.5q31 0 55 13q20 10 44 33.5t36 46.5q10 14 19.5 38.5t15.5 47.5 q16 63 31.5 132.5t15.5 145.5q0 53 2 108.5t2 110.5v49.5t-2 49.5v36q0 16 -1 31.5t-5 30.5q-6 25 -31.5 52.5t-46.5 41.5q-29 18 -60.5 29.5t-68.5 11.5q-43 0 -84.5 -11t-74.5 -34q-35 -23 -53.5 -73t-28.5 -101q-10 -55 -15.5 -112.5t-7.5 -110.5q0 -14 -1 -27.5 t-1 -26.5zM168 522q0 27 7 70t19.5 88t30 83t39.5 54q23 16 53.5 23.5t65.5 7.5h12q18 -16 19 -25q0 -10 -13.5 -14t-31 -5t-34 -3t-24.5 -4q-31 -12 -51 -45t-33.5 -72t-19.5 -80t-6 -68q0 -92 39 -152.5t125 -60.5q20 2 30.5 11.5t20.5 19.5q18 0 18 -10 q0 -16 -26.5 -34.5t-47.5 -18.5q-33 0 -64.5 7t-53.5 23q-37 29 -54.5 87.5t-19.5 117.5z" />
<glyph unicode="&#x3b;&#x3b;Registered&#x3b;&#x3b;" horiz-adv-x="657" d="M61 543q0 117 19 237q10 59 26.5 118.5t49.5 94.5q39 43 95 55.5t109 12.5h26.5t29.5 -4q47 -10 82 -31q18 -12 46.5 -46t39.5 -56q6 -18 7 -43t1 -47v-33q2 -23 2 -51.5v-57.5v-49q0 -47 1 -75.5t1 -55.5v-26.5t-2 -24.5q-4 -94 -23 -185q-4 -20 -12 -41.5t-12 -46.5 q-16 -59 -40 -102t-63 -78q-8 -6 -18 -8t-18 -6q-12 -6 -26.5 -8t-31.5 -2q-68 0 -115 31.5t-78.5 81.5t-51 112.5t-28.5 125t-12.5 118t-3.5 90.5zM88 528q0 -61 8 -149t35 -168t78 -137.5t139 -57.5q31 0 55 13q20 10 44 33.5t36 46.5q10 14 19.5 38.5t15.5 47.5 q16 63 31.5 132.5t15.5 145.5q0 53 2 108.5t2 110.5v49.5t-2 49.5v36q0 16 -1 31.5t-5 30.5q-6 25 -31.5 52.5t-46.5 41.5q-29 18 -60.5 29.5t-68.5 11.5q-43 0 -84.5 -11t-74.5 -34q-35 -23 -53.5 -73t-28.5 -101q-10 -55 -15.5 -112.5t-7.5 -110.5q0 -14 -1 -27.5 t-1 -26.5zM193 688v21q0 35 6 72.5t26 60.5q16 12 43 24.5t62 12.5q16 0 24 -2q57 -8 84 -52.5t27 -97.5q0 -37 -12 -74q-10 -35 -46 -64.5t-71 -37.5q-6 -2 -17 -2h-26q20 -20 47 -35.5t45 -40.5q27 -35 43 -86q14 -37 27.5 -76t38.5 -65q-4 -2 -5.5 -4t-5.5 -6 q-23 0 -35 13t-20 31.5t-12 38t-8 33.5q-12 27 -22.5 52.5t-31.5 48.5q-27 29 -63.5 51t-65.5 51q2 -51 4 -92t2 -82q0 -27 1 -47.5t1 -42.5q0 -14 2.5 -28.5t2.5 -29.5q-8 -4 -11 -4q-4 0 -16 4q-10 51 -13 105.5t-3 112.5v116v59.5t-2 61.5zM219 727q0 -29 3 -57.5 t3 -55.5v-12q31 -18 70 -18t72 17t49 42q10 16 15 37.5t5 42.5q0 18 -4 39q-10 35 -42 59.5t-68 24.5q-8 0 -14.5 -1t-14.5 -3q-16 -4 -32.5 -17.5t-27.5 -29.5q-14 -27 -14 -68z" />
<glyph unicode="&#x3b;&#x3b;Multiply&#x3b;&#x3b;" horiz-adv-x="579" d="M61 250q18 37 43 80t50.5 87t52 84.5t49.5 73.5q-35 41 -70.5 95.5t-58.5 105.5q4 6 18 6h19q18 -47 48 -95t62 -81q37 43 66 93.5t70 88.5q4 0 10 -1t14 -1v-24q-37 -41 -67.5 -88t-63.5 -94q53 -80 105.5 -163t105.5 -167q4 -12 4 -17l-4 -10q-2 -4 -8 -4q-8 0 -16.5 5 t-10.5 7q-49 80 -97 162t-101 154q-16 -18 -36 -48t-39.5 -64t-37.5 -67.5t-33 -60.5q-2 -4 -4 -7t-4 -7q-8 -14 -21.5 -38t-27.5 -24q-8 0 -17 19z" />
<glyph unicode="&#x3b;&#x3b;Divide&#x3b;&#x3b;" horiz-adv-x="581" d="M61 606q1 4 5 12q29 -4 55 -6t53 -2q61 0 119.5 5.5t124.5 5.5h51q14 0 27.5 -2.5t23.5 -10.5q0 -18 -4 -28q-4 -2 -14 -2t-18.5 2t-18.5 2q-12 2 -25.5 2h-25.5q-59 0 -121 -6.5t-123 -6.5q-27 0 -51.5 2t-48.5 7q-2 10 -5.5 13t-3.5 13zM254 449q0 8 5 21t22 13 q16 0 20 -6t4 -16q0 -6 -1 -12.5t-1 -14.5q0 -18 -20 -18q-8 0 -11 2q-18 6 -18 31zM254 737q0 8 5 21.5t22 13.5q16 0 20 -6t4 -16q0 -6 -1 -12.5t-1 -14.5q0 -18 -20 -18q-8 0 -11 2q-18 6 -18 30z" />
<glyph unicode="&#x2018;&#x2018;" horiz-adv-x="378" d="M61 813q0 2 8.5 15.5t12.5 23.5q14 33 26.5 56.5t22.5 52.5q10 33 14.5 59.5t16.5 58.5q0 11 14 11q8 -8 8 -19q0 -53 -20.5 -111.5t-42.5 -105.5q-4 -4 -8 -15.5t-9.5 -21.5t-12.5 -18t-15 -8q-2 0 -8.5 7t-6.5 15zM195 813q0 2 8 15.5t12 23.5q14 33 26.5 56.5 t22.5 52.5q10 33 14.5 59.5t16.5 58.5q0 11 14 11q8 -8 8 -19q0 -53 -20.5 -111.5t-42.5 -105.5q-4 -4 -8 -15.5t-9.5 -21.5t-12.5 -18t-15 -8q-2 0 -8 7t-6 15z" />
<glyph unicode="&#x2019;&#x2019;" horiz-adv-x="378" d="M61 809q0 53 20.5 111.5t43.5 105.5q2 4 7 14.5t10 21.5t12.5 19.5t15.5 8.5q2 0 8 -7.5t6 -15.5q0 -2 -8 -15.5t-12 -23.5q-14 -33 -26.5 -56.5t-22.5 -51.5q-10 -33 -14.5 -59.5t-16.5 -59.5q0 -10 -14 -10q-8 8 -9 18zM195 809q0 53 20.5 111.5t42.5 105.5q2 4 7 14.5 t10.5 21.5t12.5 19.5t15 8.5q2 0 8 -7.5t6 -15.5q0 -2 -8 -15.5t-12 -23.5q-14 -33 -26.5 -56.5t-22.5 -51.5q-10 -33 -14.5 -59.5t-16.5 -59.5q0 -10 -14 -10q-8 8 -8 18z" />
<glyph unicode="&#x3b;&#x3b;Trademark&#x3b;&#x3b;" horiz-adv-x="655" d="M61 1006v8q39 10 75 13t77 3q31 0 61 -6q8 -4 14.5 -5t6.5 -18q0 -8 -11.5 -9t-13.5 -1q-31 6 -57 6h-14q-4 -37 -5 -86t-1 -92v-87t-3 -85q0 -10 -1 -19.5t-9 -17.5q-14 4 -18 17.5t-4 31.5q0 16 2 34t4 30q4 25 4 50.5v53.5v166q-23 0 -43.5 -4t-36.5 -4q-6 0 -10 2 q-8 4 -12.5 6t-4.5 13zM315 659q0 104 4.5 206t20.5 169h10q12 0 31.5 -18.5t28.5 -30.5q14 -23 21 -52.5t22 -53.5q14 45 33.5 83.5t48.5 69.5q25 -2 29.5 -26.5t4.5 -47.5v-16q0 -23 1 -41t1 -41q0 -35 5.5 -69.5t7.5 -69.5q0 -27 5 -53.5t5 -49.5v-8q-2 -2 -6 -2 q-8 0 -14.5 7.5t-8.5 17.5q-4 23 -6 46t-2 40q0 35 -5 77t-7 119q0 14 -1 32t-5 30q-20 -20 -31.5 -44t-19 -46.5t-13.5 -41t-14 -26.5q-18 16 -26.5 39t-16.5 46.5t-18.5 44t-32.5 34.5q-14 -47 -12.5 -104.5t-2.5 -112.5q-2 -27 -4 -51.5t-4 -55.5q0 -6 1 -13t1 -13 q0 -12 -8 -19q-23 14 -23 45z" />
<glyph unicode="&#xe24;&#xe32;" horiz-adv-x="757" d="M61 752q4 39 21 75q12 37 24.5 75t34 66.5t54 47t84.5 18.5q45 0 78.5 -24.5t37.5 -67.5q0 -8 4 -29q14 41 43 70q18 23 45 34t52 11q37 0 71.5 -17.5t51.5 -39.5q16 -18 25 -51t9 -70v-16q-8 -127 -14 -263.5t-6 -271.5v-567q0 -8 -2 -16.5t-12 -12.5q-20 8 -24.5 22.5 t-4.5 43.5v661q4 10 4 20.5t2 20.5q8 86 9 164t5 162q0 25 1 46t1 44q0 41 -30.5 71.5t-71.5 30.5q-57 0 -87 -32.5t-44 -92.5q-2 -8 -5 -16t-3 -19l-6 -8q2 -33 3 -69.5t1 -77.5q0 -92 -1 -193.5t-1 -193.5v-89.5t1 -116t2 -124.5t2 -115.5t4 -89.5t5 -45h-12q-12 0 -25 6 q-6 322 -6 563.5t-6 403.5t-23.5 243t-56.5 81q-43 0 -78 -20.5t-55 -51.5q-20 -35 -36.5 -80t-27.5 -88q18 0 30.5 -5t27.5 -9q4 -12 5 -26.5t1 -31.5q0 -55 -6 -100q-4 -74 -7.5 -131.5t-4.5 -110.5t-3 -108.5t-6 -126.5q0 -57 33 -88q8 4 22.5 15t26.5 11t16 -18 q0 -10 -18 -27.5t-35 -17.5q-10 0 -21.5 10t-21.5 23.5t-18 26.5t-10 24q-2 4 -2.5 11t-0.5 13v70q0 88 1.5 153.5t3.5 126t6 126t10 155.5q-12 0 -25.5 -2t-17.5 -2q-8 6 -12 12t-11 15z" />
<glyph unicode="&#xe26;&#xe32;" horiz-adv-x="808" d="M61 39q2 18 17 18q12 0 26.5 -11t22.5 -15q16 16 24.5 29.5t8.5 41.5q0 88 1 164t2 148.5t4 148.5t9 166q-12 0 -25.5 -2t-17.5 -2q-8 6 -12 12l-10 15q4 39 20 75q12 37 24.5 75t34 66.5t54 47t84.5 18.5q45 0 78.5 -24.5t37.5 -67.5q0 -8 1 -15t4 -18q14 43 45 74 q18 23 44.5 34t51.5 11q37 0 71.5 -17.5t51.5 -39.5q16 -18 25.5 -51t9.5 -70v-16q-8 -127 -14.5 -263.5t-6.5 -271.5v-567q0 -8 -2 -16.5t-12 -12.5q-20 8 -24.5 22.5t-4.5 43.5v661q4 10 4 20.5t2 20.5q8 86 9 164t6 162q0 25 1 46t1 44q0 41 -31 71.5t-72 30.5 q-57 0 -87 -32.5t-44 -92.5q-2 -8 -5 -16t-3 -19l-8 -10q2 -33 3 -68.5t1 -76.5q0 -92 -1 -193.5t-1 -193.5v-89.5t1 -116t2 -124.5t2 -115.5t3 -89.5t6 -45h-12q-12 0 -25 6q-6 322 -6 563.5t-6 403.5t-23.5 243t-56.5 81q-43 0 -78 -20.5t-55 -51.5q-20 -35 -36.5 -80 t-27.5 -88q18 0 30.5 -5t27.5 -9q4 -12 5 -26.5t1 -31.5q0 -55 -6 -100q-4 -74 -6 -118t-2 -80t-1 -78t-6 -113v-15q0 -16 1.5 -30.5t1.5 -30.5v-43t-5 -41q-6 -18 -28.5 -32.5t-44.5 -16.5q-16 0 -35 17.5t-19 27.5z" />
<glyph unicode="&#xd;" horiz-adv-x="579" />
<glyph unicode=" "  horiz-adv-x="378" />
<glyph unicode="&#x09;" horiz-adv-x="378" />
<glyph unicode="&#xa0;" horiz-adv-x="378" />
<glyph unicode="!" horiz-adv-x="198" d="M61 991q1 33 9 33q16 -2 21 -12.5t5 -26.5q0 -14 -1 -28.5t-1 -26.5q4 -86 8 -183.5t7 -193.5v-8q2 -57 2 -115.5t4 -118.5q4 -47 4 -93t4 -93q4 -20 4 -35q0 -14 -6 -22q-27 8 -31 33.5t-4 60.5v123q-2 29 -5 54.5t-5 53.5q-2 31 -2 62.5v64.5q0 113 -1 195t-5 159 q-2 29 -4.5 62t-2.5 55zM86 -14q0 8 5 21t22 13q16 0 20 -6t4 -16q0 -6 -1 -12.5t-1 -14.5q0 -18 -20 -18q-8 0 -11 2q-18 6 -18 31z" />
<glyph unicode="&#x22;" horiz-adv-x="264" d="M61 799v98q0 47 2.5 85t10.5 38q16 0 19 -34t3 -79v-14q0 -23 -1 -44.5t-1 -43.5q0 -14 3 -26.5t3 -22.5q0 -8 -3 -16.5t-9 -8.5q-18 0 -22.5 22.5t-4.5 45.5zM162 817q0 49 4 101.5t8 93.5q0 6 6 12q23 0 23 -25q0 -14 -2 -22q-2 -12 -2 -23.5v-23.5v-47q0 -23 -2 -42.5 t-2 -39.5v-13.5t2 -13.5q0 -10 2 -17t2 -16q0 -12 -8 -20q-16 8 -21.5 20.5t-7.5 32.5q0 10 -1 21.5t-1 21.5z" />
<glyph unicode="#" horiz-adv-x="608" d="M61 483q0 4 4.5 8.5t8.5 4.5q10 0 21 -4.5t22 -8.5q23 -8 43 -16t43 -14q0 39 2 99t2 107v19q-4 2 -22.5 5t-39 8t-38 12.5t-17.5 17.5q0 8 8 9t19 1q18 0 42.5 -5t43.5 -11v22q0 57 8 101.5t8 97.5v22v14.5t2 22t6 20.5t11 9q4 0 10 -20q0 -68 -6 -120.5t-6 -113.5v-65 q35 -16 69.5 -28.5t69.5 -23.5q2 76 12 159t14 163v33q0 16 11 16q4 0 10 -3t8 -20q0 -74 -11 -149.5t-11 -142.5v-68q29 -16 65.5 -25.5t69.5 -21.5v-10q0 -16 -15 -23q-35 6 -63.5 22.5t-58.5 24.5q-2 -47 -9.5 -107.5t-7.5 -113.5q35 -10 74 -25.5t80 -15.5q4 -8 4 -18 q0 -6 -4 -6q-41 0 -77 13t-77 21q0 -82 -8 -163.5t-8 -167.5q0 -25 -31 -25q-8 2 -8 16v43q0 35 3 77l6 84t6 80t3 67q-29 8 -58.5 20t-55.5 19q0 -78 -12.5 -174.5t-16.5 -180.5q0 -8 -7 -29.5t-18 -21.5q-8 0 -11 7t-3 18q0 10 1 20t1 21q2 51 7 94t9.5 83t8.5 82t8 93 q-10 6 -31.5 14t-43 16.5t-39 15.5t-21.5 11q-8 8 -9 8zM236 440q29 -12 58.5 -22t57.5 -21q6 45 12.5 108t10.5 116q-25 12 -42.5 17l-31.5 9t-28.5 8t-34.5 13q0 -8 -1 -14.5t-1 -14.5v-199z" />
<glyph unicode="$" horiz-adv-x="524" d="M61 113q0 8 11 14q20 -4 40.5 -18.5t42 -31t48 -29.5t63.5 -13q-4 104 -7 215.5t-7 218.5q-55 39 -107 94q-41 47 -58 98.5t-17 112.5q0 70 24 125q27 45 64 84t96 49q2 33 4 65.5t6 63.5q12 0 25 -12v-23q0 -12 -2 -35.5t-2 -39.5t4 -17q12 0 32.5 -1t40 -4t33 -12 t13.5 -24q0 -4 -5 -16q-23 6 -48 10t-50 4h-24v-82q0 -66 -1 -131t-1 -131q0 -35 1 -73.5t3 -84.5l41 -30q31 -23 59.5 -50.5t44.5 -62.5q23 -41 29 -80t6 -80q0 -78 -41 -132t-121 -60q2 -29 2 -56.5v-54.5v-16q-12 -12 -24 -12l-11 139q-43 4 -86 19.5t-67 37.5 q-12 10 -33 28.5t-21 33.5zM100 752q0 -41 12.5 -74t32 -61.5t47 -53t58.5 -51.5l-6 168q4 102 6 160.5t2 111.5v33q-35 -6 -57 -27q-41 -33 -68 -88t-27 -118zM285 444q4 -96 8 -200.5t8 -204.5q51 6 84 33q18 16 31.5 47t13.5 67q0 94 -40 151.5t-105 106.5z" />
<glyph unicode="%" horiz-adv-x="540" d="M61 18q12 16 27.5 54.5t30 80.5t29 80.5t24.5 59.5q12 49 32.5 94t39.5 94q16 47 36.5 94.5t38.5 94.5q37 98 67 196.5t75 192.5q18 -6 18 -25q0 -14 -7 -30.5t-11 -26.5q-23 -53 -40.5 -108.5t-35.5 -114.5q-23 -66 -47.5 -125.5t-46.5 -118.5q-4 -8 -19.5 -51 t-37 -101.5t-46 -124t-46 -121t-38 -91t-20.5 -35.5t-13.5 13t-9.5 19zM145 752q0 16 10.5 26t26.5 10q10 0 14.5 -7t8.5 -15v-8q0 -12 -5 -28.5t-28 -16.5h-8q-18 16 -19 39zM360 385q0 16 10.5 26.5t26.5 10.5q10 0 14.5 -7t8.5 -16v-8q0 -12 -5 -28.5t-28 -16.5h-8 q-18 16 -19 39z" />
<glyph unicode="&#x26;" horiz-adv-x="555" d="M61 879q0 35 17.5 73.5t45.5 72.5t63.5 55.5t70.5 21.5q23 0 45 -17q10 -6 27.5 -27.5t21.5 -31.5q6 -12 9.5 -30.5t5.5 -32.5q0 -61 -16.5 -126t-39.5 -118q-23 -59 -42 -113.5t-42 -101.5q41 -80 80 -171t72 -177q16 12 28.5 33.5t22.5 45t21.5 46t25.5 38.5 q8 -2 12.5 -3t4.5 -9q0 -16 -7.5 -28.5t-13.5 -24.5q-16 -33 -33.5 -70t-40.5 -55q10 -25 30 -57.5t20 -59.5q0 -12 -17 -12q-6 0 -15 17.5t-14 27.5q-10 16 -16 32.5t-12 22.5q-84 -100 -156 -100q-53 0 -86 50t-33 138q0 37 13 78q12 59 32.5 117.5t44.5 114.5 q-47 76 -84.5 170t-44.5 211zM88 874q0 -53 14.5 -101t32.5 -95q16 -39 32.5 -74t37.5 -63q23 51 44.5 100t39.5 102q16 47 33.5 96.5t17.5 102.5q0 20 -2 31q-4 33 -25.5 60.5t-60.5 27.5q-25 0 -53.5 -20.5t-53 -50t-41 -61.5t-16.5 -55zM133 178q0 -18 5 -45t15.5 -50.5 t27 -39.5t40.5 -16q14 2 36 14t43.5 28.5t37.5 35t18 30.5q0 10 -11 37t-15 39q-29 68 -58.5 129t-58.5 121q-12 -31 -24.5 -63.5t-22.5 -69.5q-10 -35 -21.5 -73t-11.5 -77z" />
<glyph unicode="'" horiz-adv-x="161" d="M61 799v98q0 47 2.5 85t10.5 38q16 0 19 -34t3 -79v-14q0 -23 -1 -44.5t-1 -43.5q0 -14 3 -26.5t3 -22.5q0 -8 -3 -16.5t-9 -8.5q-18 0 -22.5 22.5t-4.5 45.5z" />
<glyph unicode="(" horiz-adv-x="333" d="M61 633q0 117 17.5 232.5t66.5 201.5q12 20 41 43t43 23q12 -12 13 -25q0 -2 -1 -3t-1 -5q-4 -10 -17.5 -16.5t-23.5 -12.5q-23 -18 -37.5 -44t-26.5 -60q-29 -76 -35 -169t-6 -198q0 -35 1 -81t3 -93t5 -91t8 -75q4 -23 9 -45t9 -45q4 -18 19.5 -56t36 -77t41 -73 t34.5 -42q4 -6 8 -8t4 -6q0 -6 -4 -10q-6 -6 -16 -7q-59 45 -95 123t-56.5 165t-27.5 174t-10 155q0 31 -1 61.5t-1 63.5z" />
<glyph unicode=")" horiz-adv-x="333" d="M61 -92q0 4 4.5 6t8.5 8q14 8 34.5 42t41 73t36 77t19.5 56q4 23 9 45.5t9 44.5q4 31 7 75t5.5 91t3.5 93t1 81q0 104 -6.5 197.5t-34.5 169.5q-12 35 -26.5 60.5t-37.5 43.5q-10 6 -23.5 12.5t-17.5 16.5q0 4 -1 5t-1 3q0 13 12 25q14 0 43 -23t41 -43 q49 -86 66.5 -201.5t17.5 -232.5q0 -33 -1 -63.5t-1 -61.5q-2 -68 -9 -155t-27.5 -174t-56.5 -164.5t-95 -123.5q-10 0 -16 7q-4 4 -5 10z" />
<glyph unicode="*" horiz-adv-x="448" d="M61 791q0 6 2 8q2 4 10.5 12t12.5 14q23 27 46 53.5t46 49.5q-16 20 -34.5 33.5t-34.5 31.5q-12 10 -18.5 18.5t-6.5 24.5q0 6 2 11q4 2 10 2q8 0 19 -7q31 -43 75 -69v12q0 20 -3 43t-3 43t4 31q16 0 20.5 -7.5t4.5 -17.5v-26q2 -23 5 -46.5t5 -41.5q25 14 57.5 29.5 t59.5 31.5q18 0 22.5 -11.5t4.5 -27.5q-27 -18 -65 -27.5t-64 -27.5l147 -139q0 -4 1 -7.5t1 -7.5q0 -23 -16 -24q-35 35 -69 71.5t-75 65.5v-12q0 -35 5.5 -76t9.5 -72v-12q0 -10 -2 -18.5t-11 -8.5q-12 0 -18 26.5t-7 60.5l-2 68t-5 46q-29 -23 -52.5 -54.5t-48.5 -62.5 q-2 -2 -8 -2q-8 0 -17.5 4t-9.5 15z" />
<glyph unicode="+" horiz-adv-x="528" d="M61 604q0 4 3.5 8t17.5 4q33 -2 56.5 -4t64.5 -2h22q-4 74 -6 149t-6 140q0 12 -4 24.5t-4 26.5q0 8 2 13q23 0 28 -19.5t7 -36.5v-45t2 -43l10 -211q12 0 25.5 1t27.5 1h21q16 0 38.5 -1t44 -3t37 -6t17.5 -10q0 -4 1 -4t1 -6q0 -10 -6 -15q-2 -2 -8 -2q-8 0 -19.5 3 t-19.5 5q-47 6 -97 7q-16 0 -31.5 -1.5t-29.5 -3.5q2 -59 9 -130.5t11 -143.5l4.5 -22.5t2.5 -22.5q0 -23 -13 -33q-14 8 -18 22.5t-4 30.5v35q0 23 -3 46.5t-7 47.5q-4 41 -5.5 86.5t-5.5 85.5h-14q-12 0 -23.5 -1t-21.5 -1h-26.5t-24.5 2q-10 0 -22.5 1.5t-18.5 5.5 q-14 6 -15 22z" />
<glyph unicode="," horiz-adv-x="245" d="M61 -203q0 2 8.5 15.5t12.5 23.5q14 33 26.5 56.5t22.5 52.5q10 33 14.5 59.5t16.5 58.5q0 11 14 11q8 -8 8 -19q0 -53 -20.5 -111.5t-42.5 -105.5q-4 -4 -8 -15t-9.5 -21.5t-12.5 -18.5t-15 -8q-2 0 -8.5 7t-6.5 15z" />
<glyph unicode="-" horiz-adv-x="581" d="M61 606q1 4 5 12q29 -4 55 -6t53 -2q61 0 119.5 5.5t124.5 5.5h51q14 0 27.5 -2.5t23.5 -10.5q0 -18 -4 -28q-4 -2 -14 -2t-18.5 2t-18.5 2q-12 2 -25.5 2h-25.5q-59 0 -121 -6.5t-123 -6.5q-27 0 -51.5 2t-48.5 7q-2 10 -5.5 13t-3.5 13z" />
<glyph unicode="." horiz-adv-x="174" d="M61 33q0 8 5.5 21.5t21.5 13.5t20.5 -6.5t4.5 -16.5q0 -6 -1 -12.5t-1 -14.5q0 -18 -21 -18q-8 0 -10 2q-18 6 -19 31z" />
<glyph unicode="/" horiz-adv-x="622" d="M61 -78q0 16 6.5 32.5t12.5 31.5q41 102 106.5 239t132 287t122 301.5t75.5 282.5q3 33 23 53q23 0 22 -23q0 -4 -1 -10t-1 -10q-33 -160 -85 -310.5t-114.5 -295t-129 -287.5t-126.5 -287q-6 -12 -11 -24.5t-15 -12.5q-12 0 -14.5 9.5t-2.5 13.5v10z" />
<glyph unicode="0" horiz-adv-x="468" d="M61 397q0 72 3.5 135.5t3.5 100.5v45q0 57 4 119.5t19 115t48 87t92 34.5q33 0 57.5 -18.5t41.5 -42.5q8 -23 12 -42.5t8 -41.5q4 -23 8 -45.5t9 -46.5q4 -23 8 -46.5t8 -45.5q16 -90 17 -174.5t6 -172.5q2 -25 2 -48v-46v-92q-2 -37 -16.5 -68.5t-37 -56t-52.5 -38 t-60 -13.5h-11q-55 4 -87.5 42t-51 94t-25 127t-6.5 138zM98 373q0 -59 7.5 -121t22.5 -111t40 -79.5t61 -30.5q25 0 57.5 16t47.5 33q23 27 29 73t6 95q0 35 -1 64.5t-1 52.5q-2 39 -2 71.5v63.5t-2.5 62.5t-6.5 70.5q-2 23 -9 75t-16 109t-20.5 104.5t-21.5 57.5 q-8 8 -27.5 12t-30.5 4q-43 0 -67.5 -21.5t-36.5 -55t-15 -73.5t-3 -77v-72q0 -10 -1.5 -20t-1.5 -21q0 -82 -4 -149.5t-4 -132.5z" />
<glyph unicode="1" horiz-adv-x="307" d="M61 895q6 4 28 26.5t47.5 47t49 45t31.5 20.5q14 0 19 -4q4 -8 6 -35.5t2 -62.5q0 -49 -2 -95t-2 -53q0 -66 -1 -131t-1 -131v-44t1 -95t2 -119.5t2 -120t2 -94.5t1 -43q-4 -4 -3 -5t-5 -1q-23 4 -28 20.5t-5 38.5v72q0 4 -1 36t-1 78v98v97v77v38q4 80 6 152.5t2 144.5 q0 25 -1 49.5t-1 46.5q0 4 -1 13.5t-1 13.5q-33 -16 -62.5 -50t-60.5 -59q-16 8 -23 29z" />
<glyph unicode="2" horiz-adv-x="403" d="M61 25q0 20 11.5 56t27 74t30.5 73.5t22 56.5q51 166 90 336q10 51 15 99t9 95q0 20 1 45t1 49q0 12 -3 23.5t-7 21.5q-6 16 -31.5 28.5t-54.5 12.5t-43 -24.5t-18 -48.5q-2 -14 -13 -15q-4 0 -6 2q-14 25 -14 45q0 35 30.5 57.5t59.5 22.5q59 0 95 -30.5t36 -81.5 q2 -14 2 -28.5v-29.5q0 -63 -9 -125.5t-18 -122.5q-4 -41 -15 -80.5t-23 -80.5t-24.5 -80t-23.5 -80q-10 -41 -20 -70.5t-20.5 -57.5t-21 -58.5t-20.5 -69.5q47 0 90.5 17.5t86.5 17.5h12q12 -2 28.5 -7.5t18.5 -17.5q0 -14 -20 -14h-21q-57 -8 -105.5 -22.5t-95.5 -14.5 q-14 0 -26.5 8t-12.5 19z" />
<glyph unicode="3" horiz-adv-x="452" d="M61 33q6 10 9.5 11t5.5 1q8 0 14 -4t19 -4h12q55 0 102 33.5t82 78t55.5 89.5t20.5 69v17q0 102 -72 137q-35 16 -79 14t-78 14q-18 10 -19 27q0 6 15.5 20.5t34 30t36 28.5t23.5 19q27 33 53.5 80t30.5 103q2 18 2 33.5v29.5q0 35 -7.5 64.5t-31.5 48.5q-12 8 -34 16 t-44 8q-8 0 -25 -4q-16 -6 -29.5 -17t-23.5 -22q-6 -8 -9 -19t-18 -11q-8 0 -12 2q-2 6 -2 16q0 35 33 61.5t68 30.5h10q43 0 84 -24.5t55 -53.5q12 -23 16 -55.5t4 -64.5q0 -53 -10 -99q-16 -74 -59 -125t-94 -92q25 -4 65.5 -10t63.5 -23q35 -33 64.5 -72.5t29.5 -97.5 v-10q-2 -35 -23.5 -82t-54.5 -91t-70.5 -77.5t-72.5 -46.5q-27 -10 -54 -10t-51.5 6.5t-34.5 26.5z" />
<glyph unicode="4" horiz-adv-x="540" d="M20 524q53 129 124 261.5t135 242.5q2 6 8 6q12 -2 12 -12v-16q0 -98 5 -194.5t5 -193.5v-45.5t-2 -46.5q90 6 174 19q2 0 4 1t4 1q8 -16 11 -25q0 -8 -30 -13t-64.5 -8t-66.5 -5t-34 -4q0 -47 -3 -84t-3 -80v-27.5t2 -26.5q2 -16 4 -47.5t3 -67.5t3 -67t2 -45 q0 -8 1 -16t1 -17q0 -10 -3 -12t-11 -2q-16 0 -21.5 5t-5.5 28v8q0 115 -2 217t-2 213v21q-37 4 -87 5t-97 1h-24.5t-24.5 2q-10 4 -13.5 10t-3.5 14zM63 539q12 -2 24.5 -3t25.5 -1q33 0 63.5 -3.5t63.5 -3.5q8 0 16 -1t16 -1q4 23 4 59v58q0 78 -1 149.5t-1 165.5 q-25 -51 -53 -103t-57 -104.5t-56 -105.5t-45 -106z" />
<glyph unicode="5" horiz-adv-x="454" d="M61 561q0 20 3.5 43t5.5 47q4 49 9 101.5t7 103.5q0 23 -1 43.5t-1 40.5v37q0 29 12.5 39t28.5 10q27 0 59.5 4t67.5 4h70q14 0 28.5 -3t14.5 -13t-7.5 -13.5t-13.5 -3.5q-8 0 -28.5 1.5t-26.5 3.5h-19q-29 0 -54.5 -3.5t-51.5 -3.5q-37 0 -43 -9t-6 -34q0 -51 -2 -116.5 t-7 -112.5q-4 -47 -6 -91t-6 -85q35 -10 73 -15.5t72.5 -13.5t64.5 -20.5t50 -34.5q20 -23 29.5 -56.5t9.5 -68.5q0 -61 -6 -122.5t-24.5 -110t-54.5 -79t-93 -30.5q-16 0 -39.5 3t-46.5 11.5t-39 22t-16 33.5q2 6 8 6t19.5 -7.5t28.5 -16.5t32.5 -16t34.5 -7q59 0 92 31.5 t49 79.5t19 102.5t3 99.5v25q-6 63 -55 90q-23 12 -52.5 19t-60 12.5t-61.5 10.5t-57 13q-12 25 -13 49z" />
<glyph unicode="6" horiz-adv-x="434" d="M61 348v39q20 170 39 322.5t45 318.5q6 6 13 6q10 0 10 -26v-27.5t-2 -28.5q-8 -47 -15.5 -87t-11.5 -93q-4 -27 -5 -53.5t-5 -52.5q-4 -25 -10 -49.5t-8 -49.5q-6 -49 -9.5 -103t-7.5 -106q37 2 68 7.5t61 5.5q43 0 74 -9q68 -16 87 -61t19 -102q0 -23 -13 -59 t-34.5 -69.5t-49 -57t-58.5 -23.5q-14 0 -23 2q-59 10 -92 50t-48 93t-19.5 110.5t-4.5 102.5zM94 305q0 -39 5 -88t21.5 -92t46.5 -72.5t79 -29.5q27 4 50 24.5t38.5 50t25 63.5t9.5 64q0 23 -7 41q-10 41 -45.5 54.5t-83.5 13.5q-33 0 -64.5 -3t-59.5 -7q-4 0 -7.5 -1 t-7.5 -1v-17z" />
<glyph unicode="7" horiz-adv-x="514" d="M61 1006q0 4 2.5 10t2.5 14h12q72 0 152.5 2t160.5 2h19q10 0 19 -1t20 -7q4 -8 4 -14q0 -12 -8.5 -25.5t-16.5 -30.5q-18 -35 -38.5 -72.5t-35.5 -76.5q-18 -53 -23 -96t-16 -99q4 -4 17.5 -4t27 -1t24.5 -3t11 -8q0 -2 -1 -8t-1 -10h-11t-25.5 -1.5t-28 -1.5h-17.5 q-25 -72 -40 -136t-31 -130q-16 -68 -30.5 -144.5t-25.5 -148.5q-4 -4 -7 -10t-7 -6q-10 2 -12 6l-6 12q6 61 19 131t30.5 140.5t36 139.5t36.5 128l5 16q-6 2 -21 2q-10 0 -27.5 -1t-27.5 -1q-14 0 -21 2q-2 10 -2 23q0 2 1 4t1 4q8 2 29 2h39h18t17 2q16 121 48 213 t85 174q-16 2 -30.5 3t-31.5 1q-72 0 -148.5 -2t-141.5 -4q-4 4 -5 11z" />
<glyph unicode="8" horiz-adv-x="481" d="M41 862q0 53 37 100.5t84 63.5q23 8 53 8q41 0 82 -15t72.5 -43t51 -63.5t19.5 -76.5q0 -78 -35.5 -156t-87.5 -131q18 -25 37 -58.5t33 -68.5t23.5 -70t9.5 -65v-25.5t-2 -28.5q-4 -43 -16.5 -86t-35 -77.5t-54 -56t-74.5 -21.5q-14 0 -23 2q-66 8 -97.5 57t-31.5 107 v14q2 33 13.5 67.5t21.5 67.5q23 72 54.5 126t72.5 99l18 19q-35 27 -73.5 54.5t-72.5 62t-56.5 82t-22.5 112.5zM70 844q0 -49 20.5 -86t52 -66.5t70.5 -56.5t74 -53q23 14 45 43.5t39.5 64.5t28 72t10.5 65q0 17 -2 23q-16 66 -64.5 107.5t-116.5 41.5q-18 0 -28 -2 q-16 -2 -35 -12t-34 -23.5t-27.5 -27.5t-18.5 -27q-4 -10 -9 -27.5t-5 -35.5zM117 152q0 -47 30.5 -84t69.5 -45q6 -2 16 -3q43 0 73 32t49.5 76t27.5 90t8 77q0 61 -32.5 119.5t-67.5 105.5q-86 -78 -120 -162t-52 -190q0 -4 -1 -8t-1 -8z" />
<glyph unicode="9" horiz-adv-x="432" d="M31 788v17q0 43 6 84t20 72t58.5 43t87.5 22q10 4 26.5 6t32.5 2q27 0 46.5 -5t31.5 -25q16 -49 22.5 -96.5t6.5 -94.5v-59.5t1 -69.5t1 -63.5v-40.5q0 -78 -5.5 -156t-5.5 -150q0 -59 -1 -107t-3 -108v-26q0 -10 -1 -19.5t-7 -17.5q-12 2 -15 11t-11 18q6 76 6 137v137 q0 74 3 147.5t3 149.5q0 16 -1 41t-3 41q-35 -25 -70 -27t-88 -6q-43 0 -79 5t-50 38q-10 23 -11 50.5t-1 49.5zM63 760q0 -21 3 -43q10 -23 39.5 -32t56.5 -9q20 0 45.5 2t49.5 8t43.5 16.5t25.5 28.5q4 10 5 22.5t1 22.5v68q0 20 -1 47t-5 50.5t-14.5 40.5t-28.5 19h-19 q-23 0 -41 -5t-37 -9q-47 -14 -74.5 -25.5t-37.5 -54.5q-6 -25 -8.5 -51.5t-2.5 -54.5v-41z" />
<glyph unicode=":" horiz-adv-x="198" d="M61 188q0 10 7.5 31t31.5 21q23 0 30 -9.5t7 -23.5q0 -10 -1 -19.5t-1 -21.5t-10 -19.5t-21 -7.5q-12 0 -16 4q-27 8 -27 45zM61 641q0 10 7.5 30.5t31.5 20.5q23 0 30 -9t7 -24q0 -10 -1 -19.5t-1 -21.5t-10 -19t-21 -7q-12 0 -16 4q-27 8 -27 45z" />
<glyph unicode=";" horiz-adv-x="229" d="M61 -119l2 4q2 2 4.5 6.5t6.5 12.5q18 47 37.5 103t23.5 112v8q0 27 -14 43q-4 6 -12.5 14.5t-8.5 18.5q0 27 15 30q16 0 31.5 -7t15.5 -17q0 -8 2 -15.5t2 -15.5t1 -16t1 -19q0 -70 -23.5 -137t-44.5 -133l-14 -6q-10 0 -17.5 3t-7.5 11zM84 641q0 10 7 30.5t32 20.5 q23 0 30 -9t7 -24q0 -10 -1 -19.5t-1 -21.5t-10.5 -19t-20.5 -7q-12 0 -16 4q-27 8 -27 45z" />
<glyph unicode="&#x3c;" horiz-adv-x="606" d="M61 442q0 6 2 11q86 102 165 213.5t151 228.5q23 35 42 69.5t42 69.5q2 0 3 1t3 1q6 0 7 -2t5 -2q2 -4 2 -14q0 -23 -12 -44.5t-25 -39.5q-82 -141 -162.5 -262t-172.5 -223q49 -37 98 -85.5t97 -98.5t96.5 -100t93.5 -89q14 -8 31.5 -23.5t17.5 -32.5q0 -4 -8.5 -10 t-12.5 -10q-18 4 -29.5 15.5l-23.5 23.5q-53 63 -99 111.5t-89 89.5t-88 80.5t-97 87.5q-23 4 -30 14t-7 20z" />
<glyph unicode="=" horiz-adv-x="581" d="M61 424q1 4 5 12q29 -4 55 -6t53 -2q61 0 119.5 5t124.5 5h51q14 0 27.5 -2t23.5 -10q0 -18 -4 -29q-4 -2 -14 -2t-18.5 2t-18.5 2q-12 2 -25.5 2h-25.5q-59 0 -121 -6t-123 -6q-27 0 -51.5 2t-48.5 6q-2 10 -5.5 13.5t-3.5 13.5zM61 606q1 4 5 12q29 -4 55 -6t53 -2 q61 0 119.5 5.5t124.5 5.5h51q14 0 27.5 -2.5t23.5 -10.5q0 -18 -4 -28q-4 -2 -14 -2t-18.5 2t-18.5 2q-12 2 -25.5 2h-25.5q-59 0 -121 -6.5t-123 -6.5q-27 0 -51.5 2t-48.5 7q-2 10 -5.5 13t-3.5 13z" />
<glyph unicode="&#x3e;" horiz-adv-x="606" d="M61 20q0 16 17.5 32t32.5 24q45 39 93 89l96 100t97 98.5t99 85.5q-92 102 -173 223t-163 262q-12 18 -24.5 39.5t-12.5 44.5q0 10 2 14q4 0 5 2t7 2q2 0 3 -1t3 -1q23 -35 42.5 -69.5t41.5 -69.5q72 -117 151 -228.5t165 -213.5q2 -4 2 -11q0 -10 -7.5 -20t-29.5 -14 q-51 -47 -96 -87t-88 -81t-89.5 -89.5t-99.5 -111.5l-23.5 -23.5t-29.5 -15.5q-4 4 -12.5 10t-8.5 10z" />
<glyph unicode="?" horiz-adv-x="569" d="M61 852q0 86 51.5 133t131.5 47q33 0 70.5 -7t74.5 -22.5t65.5 -37t43.5 -50.5q6 -12 8 -29.5t2 -33.5t-1 -30.5t-1 -28.5q0 -53 -6 -100.5t-23 -94.5q-12 -43 -28.5 -71.5t-35 -55.5t-39 -52.5t-40.5 -62.5q-23 -35 -45.5 -69.5t-32.5 -75.5q-16 -59 -17.5 -125 t-11.5 -125q-10 0 -20 13.5t-12 23.5q0 4 -1 6t-1 6q0 14 3 31.5t5 34.5q6 84 25.5 140t48 104.5t63.5 97.5t72 117q10 20 21 48.5t20 55.5q12 43 17 82t7 98q0 10 2 22.5t2 22.5q0 29 -27.5 52.5t-65.5 40t-77 25.5t-59 9q-47 0 -89 -19.5t-59 -58.5q-6 -14 -8 -31.5 t-2 -35.5q0 -29 4 -59.5t10 -53.5q4 -16 11.5 -33.5t17.5 -27.5t23.5 -14.5t27 -10.5t22.5 -15t9 -28q-10 -6 -16 -6q-37 0 -63.5 29.5t-43 69.5t-25 83t-8.5 72zM190 -121q0 8 5.5 21.5t21.5 13.5t20.5 -6t4.5 -17q0 -6 -1 -12t-1 -14q0 -18 -21 -19q-8 0 -10 2 q-18 6 -19 31z" />
<glyph unicode="@" horiz-adv-x="612" d="M61 454.5v57.5q0 143 22.5 261t98.5 212q14 16 26.5 26.5t31.5 22.5q29 20 54 27.5t56 7.5q33 0 67 -12.5t62.5 -35t48 -53t23.5 -69.5q0 -57 1 -104t1 -93v-45t-2 -45q0 -76 -6 -145.5t-31 -114.5q-10 -16 -24.5 -34.5t-30.5 -24.5q-6 -2 -19 -2q-29 0 -45 27.5 t-20 60.5q-16 -16 -37 -32.5t-49 -20.5q-4 0 -9.5 -1t-9.5 -1q-51 0 -74.5 35.5t-25.5 89.5q0 47 15.5 78.5t33.5 60.5q23 29 43.5 45t59.5 16q23 0 45 -6t39 -18q6 10 6 27.5t6 27.5q8 0 12 -3t10 -5v-33q0 -47 -5 -94t-21 -92q-4 -10 -7.5 -19.5t-5.5 -19.5q0 -4 -1 -7.5 t-1 -7.5q0 -23 12.5 -46t28.5 -25q20 0 34.5 20.5t24 48t14.5 58t5 53.5q2 23 3 55.5t1 48.5v15q0 68 -1 128t-1 119q0 20 -4 39t-16 35q-27 33 -70 55.5t-84 22.5t-75.5 -15t-59.5 -42q-43 -63 -67.5 -119.5t-37 -107t-15.5 -97.5t-3 -94q0 -72 6 -141q6 -55 10.5 -127 t21.5 -136.5t58 -108.5t121 -44q4 0 10.5 1t12.5 1q45 4 71.5 29.5t42.5 64.5q10 27 17.5 50.5t15.5 52.5q16 0 27 -9q0 -29 -9.5 -55.5t-19.5 -50.5q-20 -49 -52 -85t-95 -40q-14 0 -34 1t-32 5q-35 6 -72.5 31.5t-56.5 58.5q-37 63 -48 150.5t-17 173.5q0 6 -1.5 12 t-1.5 12q-2 29 -2 57.5zM201 442q0 -31 14 -51q18 -18 49 -18q35 0 68 19.5t39 43.5q8 33 11 72t13 74q-12 10 -34.5 19t-45.5 9q-14 0 -20 -2q-4 -2 -14.5 -9t-14.5 -11q-25 -23 -45 -64t-20 -82z" />
<glyph unicode="A" horiz-adv-x="458" d="M61 276q0 31 2.5 63t4.5 67v26q0 41 -2.5 87t-2.5 93v43q0 47 2.5 98.5t12.5 99.5t29.5 87t56.5 64q16 10 38.5 20t49.5 10h10q35 -2 61.5 -23.5t43.5 -45.5q14 -25 18 -59t4 -70q0 -20 -1 -41t-1 -41v-17q0 -41 3 -80t3 -79v-33q-4 -49 -5 -104.5t-3 -106.5v-15 q0 -47 5 -91t5 -89q0 -43 1 -62.5t1 -45.5l-2 -23q-12 -8 -22 -8t-13 8q-4 10 -4 36t-2 42q-12 98 -12 197q0 47 2 93t4 97q-14 2 -26.5 2h-24.5q-49 0 -93 -4t-102 -6v-25q-2 -29 -3 -55.5t-1 -50.5q0 -78 12.5 -147.5t12.5 -137.5v-22q0 -23 -8 -29q-10 0 -16.5 6 t-12.5 10v21q0 35 -4 62.5t-8 53t-8.5 55.5t-4.5 70zM100 500q25 0 48.5 4t46.5 4h120q23 0 35 6q-2 16 -2 36.5v37.5q0 55 4 111.5t4 109.5q0 43 -5 84t-17 76q-22 32 -67 32h-3q-68 0 -101.5 -39.5t-46 -97t-13.5 -118t-3 -103.5v-143z" />
<glyph unicode="B" horiz-adv-x="456" d="M61 522q2 35 3.5 82t5.5 88q2 12 2 24.5v24.5v136q2 10 2 19v19q-1 56 -11 101q51 26 120 26h5q41 0 79 -11t61 -38q12 -16 21 -43.5t14.5 -59.5t7.5 -60.5t2 -47.5v-10q-2 -23 -6.5 -50.5t-8.5 -53.5q-10 -66 -44.5 -104t-75.5 -72l-15 -13q53 -6 90 -25.5t58 -58.5 q10 -37 17 -78t7 -81q0 -63 -20.5 -118t-69.5 -83q-23 -12 -53.5 -25.5t-63.5 -13.5q-47 0 -70.5 19.5t-33.5 50t-11 68.5t-3 75q-3 62 -3 129v33v21q0 71 -6 130zM100 573q0 -104 3 -213.5t12 -199.5q2 -20 3 -43t5 -42.5t14 -32.5t29 -13q27 0 51 6q31 10 61.5 27.5 t47.5 46.5q28 55 28 114v35q0 14 -2 29v8q-4 29 -6 57.5t-12 50.5q-6 12 -21.5 20.5t-34 13.5t-36 8.5t-27.5 3.5q-23 0 -44 -2.5t-44 -6.5q-6 10 -8 9.5t-4 13.5q35 10 56.5 34.5t51.5 49.5l6 4q23 16 40.5 32.5t33.5 37.5q18 23 24.5 54.5t12.5 67.5q6 37 6 66 q0 102 -29.5 146t-128.5 44q-23 0 -45 -2t-39 -6q2 -6 3.5 -27.5t1.5 -50.5q0 -37 -1.5 -74t-1.5 -53q0 -109 -6 -213z" />
<glyph unicode="C" horiz-adv-x="444" d="M61 451v34.5t2 40.5q4 70 20.5 159t48.5 167t83 131t125 53h10q12 0 22.5 -4t10.5 -14q0 -4 -1 -6l-3 -6q-4 -10 -20.5 -10.5t-39.5 -4.5q-72 -10 -103.5 -50t-53.5 -99q-8 -23 -16.5 -48.5t-16.5 -52.5q-14 -53 -22.5 -119.5t-8.5 -115.5q0 -45 3 -123t19.5 -153.5 t50.5 -131t93 -55.5q27 0 45 10q10 6 19.5 17.5t17.5 11.5q2 0 12.5 -11.5t10.5 -21.5q0 -20 -30 -34.5t-56 -14.5q-45 0 -77 20.5t-54.5 53t-37 70.5t-22.5 75q-16 63 -23.5 114.5t-7.5 117.5z" />
<glyph unicode="D" horiz-adv-x="487" d="M61 84.5v21.5v31t2 29q2 78 4.5 138.5t2.5 125.5v193q0 35 3 67.5t3 65.5v16q0 29 -2 58.5t-2 58.5q0 2 -1 16.5t-1 31.5t-1 36.5t-1 34.5q0 22 2 26q6 0 13 1t13 1q37 0 71 -9t64 -19l15 -4q66 -20 99.5 -62.5t53.5 -112.5q10 -35 18.5 -70.5t8.5 -72.5 q0 -154 -30.5 -288t-98.5 -238q-37 -57 -89 -101.5t-120 -58.5q-12 10 -17 30.5t-8 32.5q-2 10 -2 21.5zM102 246.5q0 -74.5 2 -156.5v-37q41 10 74 33t55 51q14 16 27.5 44t26.5 50q20 29 31.5 63t25.5 73q23 66 37 145.5t14 155.5q0 66 -13 125t-46 106q-29 43 -88.5 61.5 t-120.5 30.5l-23 4v-28q0 -29 1 -57.5t1 -57.5v-113.5t-2 -113.5t-2 -116.5v-113.5v-148.5z" />
<glyph unicode="E" horiz-adv-x="425" d="M61 227v15q0 53 4.5 106t6.5 109q3 49 3 99v24.5v25.5q0 50 3 101q2 18 2 36.5v36.5v86v49.5t2 49.5v32q0 11 4 17q51 8 100.5 17t100.5 9q37 0 63 -8q4 -6 9.5 -13t5.5 -13q-4 -12 -19 -13q-10 0 -19.5 3t-19.5 5h-20q-43 0 -86 -10t-88 -16q-4 -35 -4 -77v-81v-158 q0 -4 -1.5 -8t-1.5 -8t5 -12q2 -4 12 -4t24.5 4t24.5 6q23 4 46.5 6t47.5 2q31 0 62 -6q10 -14 16 -31q-8 -10 -27 -10q-10 0 -21 2t-22 2q-43 0 -86 -9t-82 -13q-2 -23 -2 -43.5v-42.5v-44.5t-2 -43.5q-2 -47 -3 -87t-1 -77q0 -47 2 -94.5t9 -96.5q6 -2 17 -2h24h55 q29 2 56.5 2t47.5 4q6 2 13.5 6.5t13.5 4.5q2 0 10 -5q12 -6 12 -28q0 -8 -2 -13q-33 -10 -65.5 -10t-63.5 -4q-68 -6 -127 -6q-10 4 -14 9t-10 11q-2 53 -8.5 105.5t-6.5 101.5z" />
<glyph unicode="F" horiz-adv-x="382" d="M61 117q0 182 6.5 352t6.5 340v192q4 4 10 4.5t16 2.5q25 4 55.5 15t71.5 13q20 0 40 -1t42 -1h41q33 0 33 -22q0 -4 -1 -6t-1 -5q-18 -8 -47 -8q-23 0 -45.5 3t-44.5 3h-11q-14 0 -31.5 -4t-35.5 -8q-10 0 -29.5 -8t-27.5 -16l-1 -19q-2 -18 -3 -39.5t-2 -40t-1 -20.5 q2 -20 2 -35.5v-32.5q0 -35 -1 -65.5t-1 -63.5v-33h21q41 0 75.5 9.5t75.5 9.5q14 0 19.5 -16.5t5.5 -22.5q-6 -10 -20 -10h-17q-37 -2 -77 -11.5t-81 -9.5v-160q-2 -29 -3 -53t-1 -47v-76q0 -31 -3 -62.5t-3 -64.5q0 -8 1 -16t1 -16q2 -12 4 -27.5t2 -26.5q0 -14 -8 -14 q-14 2 -22.5 6t-8.5 21q0 27 -1 47t-1 43z" />
<glyph unicode="G" horiz-adv-x="483" d="M61 571q0 51 3.5 106.5t12.5 108t25 97t41 75.5q12 16 31 32t33 24q25 14 45 18t43 4q14 0 29.5 -1t31.5 -1q25 0 29 -6t4 -14q0 -16 -5 -19.5t-19 -3.5q-29 0 -44.5 2t-54.5 2q-20 0 -30 -4q-35 -14 -57.5 -40.5t-36 -59.5t-20.5 -68t-13 -67q-8 -47 -9 -105 q0 -18 1 -36.5t1 -36.5v-41q0 -35 -1 -72t-1 -76q0 -63 3 -125.5t20.5 -113t55.5 -82t106 -31.5q20 0 35.5 24.5t27.5 63.5t20.5 86t13.5 93t7 85t2 60v28q-2 10 -2 23.5t-4 23.5q-8 20 -28.5 26.5t-43.5 6.5q-35 0 -61 -6q-14 14 -14 39q39 16 77 16q37 0 60 -16 q29 -18 38 -63.5t9 -92.5v-29.5t-2 -27.5q-4 -35 -6 -73t-8 -75q-6 -29 -11.5 -63.5t-17.5 -65.5q-6 -14 -12.5 -31.5t-15.5 -33t-21.5 -25.5t-30.5 -10q-86 0 -133 38t-68.5 97.5t-25.5 130t-4 137.5v11q0 41 -1.5 67.5t-1.5 43t-1 26.5t-1 20z" />
<glyph unicode="H" horiz-adv-x="448" d="M61 573q0 4 2.5 8.5t6.5 4.5t8 -3t10 -3q2 10 2 18v14q0 14 -1 23.5t-1 19.5q4 57 4 96.5v92.5q0 29 -1 55.5t-3 52.5q0 10 -1 18.5t-1 16.5q0 4 -1 12.5t-1 14.5q0 16 10 16q8 0 13.5 -11t7.5 -26.5t3 -33t1 -29.5q2 -16 2 -33.5v-34.5q0 -57 -1 -102t-1 -107v-36.5 t2 -36.5q29 0 66.5 1t72.5 1h34.5t31.5 -2q18 94 20 193t6 208v16q0 18 6 27q12 0 16.5 -10t8.5 -21q4 -8 4 -18v-21q0 -23 -3 -47t-5 -47q-6 -78 -8 -141.5t-13 -138.5q2 -4 7.5 -9.5t5.5 -13.5q-2 -14 -7.5 -14t-9.5 -6q-2 -27 -3 -53.5t-1 -55.5q0 -51 1 -94t2 -83t2 -81 t1 -88q0 -12 2 -24.5t2 -24.5q0 -23 -1 -28t-5 -5q-27 0 -26 27q-2 23 -2 45v45q0 66 -2 112.5t-2 112.5q0 20 -1.5 38.5t-1.5 39.5q0 14 1.5 35.5t1.5 76.5q-18 6 -38 11.5t-40 5.5h-45q-23 0 -42.5 -2t-35.5 -10q-10 -94 -12.5 -211t-6.5 -215v-19v-21.5t2 -21.5 q0 -8 1 -14t1 -15q0 -18 -12 -22q-16 2 -20 8t-4 35v47q0 37 2 75t2 77q0 76 6 154.5t10 144.5q0 6 -9 5t-11 5q-6 8 -7.5 11t-1.5 13z" />
<glyph unicode="I" horiz-adv-x="382" d="M61 977q0 8 1 10l4 8q39 10 87 21.5t101 13.5h31q12 0 20 -3t8 -19q0 -8 -2 -15q-4 -4 -10 -4q-4 0 -20 4q-6 2 -13.5 2h-13.5q-20 0 -45 -4t-41 -6v-201q0 -66 -1 -131t-1 -131q0 -72 4 -117l8 -90t8 -101t4 -148v-27q0 -2 7 -2q8 0 24.5 3t34.5 6t35.5 7t27.5 4 q2 -4 3 -14q0 -8 -1.5 -10t-3.5 -8q-39 -10 -87 -16.5t-101 -8.5h-31q-12 0 -20 3t-8 20q0 8 2 14q4 4 10 4q4 0 20 -4q6 -2 13.5 -2h13.5h21l16 2q-8 84 -12 142.5t-8.5 112.5t-7.5 114.5t-7 148.5q4 102 6 160.5t2 111.5v45.5t1 34t1 32.5v42q-23 -4 -39 -10t-39 -8 q-2 4 -2 14z" />
<glyph unicode="J" horiz-adv-x="374" d="M20 199q0 12 2.5 22t14.5 10q10 0 11 -6t1 -14q0 -16 2 -23q4 -18 12.5 -43.5t19.5 -48t22.5 -40t23.5 -23.5q6 -2 21 -2q49 0 84.5 54t35.5 148v31v57.5t-1 45t-1 40v46.5v323q0 47 -3 91t-3 85v31q4 29 8 41h19q10 0 10 -12q0 -6 -2 -22.5t-2 -22.5q0 -10 -1 -19.5 t-1 -19.5q0 -39 4 -72t4 -68v-301q0 -53 6 -112.5t6 -118.5q0 -76 -20.5 -141.5t-87.5 -100.5q-33 -16 -64 -16q-35 0 -52 17.5t-26.5 43t-15.5 52t-16 45.5q-10 20 -11 43z" />
<glyph unicode="K" horiz-adv-x="499" d="M61 35q0 16 5.5 52t5.5 54v99q0 86 -1 129t-1 65v50.5t2 50.5q2 41 4 79.5t2 79.5q0 74 -1 122t-1 79t-1 49.5t-1 34.5q0 12 -3 24.5t-3 24.5q2 2 8 2h8q18 0 24.5 -52t6.5 -126q0 -86 -4.5 -175t-4.5 -136q0 -29 3 -33l51 29q43 49 70.5 108.5t50 122.5t44 129t52.5 127 q25 -4 24 -33q0 -6 -4 -18q-16 -41 -31.5 -79t-29.5 -89q-10 -31 -19.5 -57.5t-19.5 -55.5q-23 -49 -45.5 -94t-54.5 -80q31 -59 58.5 -133t55.5 -135q29 -59 59.5 -117.5t67.5 -109.5q0 -8 -5 -15.5t-13 -7.5q-11 0 -19 16q-16 25 -33.5 55.5t-35.5 53.5q-41 90 -81 188.5 t-89 182.5q-16 -6 -26.5 -12.5t-26.5 -12.5q0 -53 -3.5 -120.5t-3.5 -125.5v-62.5t1 -52t2 -51t4 -57.5q-31 0 -39.5 4t-8.5 29z" />
<glyph unicode="L" horiz-adv-x="380" d="M61 936q0 18 2.5 37.5t10.5 50.5q8 0 12 -3t12 -3q2 -4 2 -14q-2 -61 -3 -106.5t-1 -78.5q0 -63 2 -82.5t2 -27.5q0 -12 1 -24.5t1 -25.5q0 -41 -3 -81.5t-3 -81.5q0 -53 2 -106.5t4 -106.5q4 -57 5.5 -115.5t3.5 -118.5q0 -10 15 -12t26 -2q35 0 76.5 2t78.5 2 q14 0 23 -2q8 -4 15 -5t7 -9q0 -6 -18 -19h-8h-85t-87 -4q-10 -2 -19.5 -3t-19.5 -1t-15 2q-4 2 -14 13.5t-12 21.5q0 4 -1 6t-1 6q0 74 -1 152.5t-1 150.5v39q0 23 -3.5 47.5t-3.5 50.5v381q0 23 -1 39.5t-1 30.5z" />
<glyph unicode="M" horiz-adv-x="579" d="M61 487q0 72 3.5 151t7.5 148v17q0 18 -1 36.5t-1 37.5q0 23 2 43t8 38q8 25 20 47.5t35 22.5q37 0 60.5 -13.5t38 -35t22.5 -50t16 -59.5l7 -22q14 37 28.5 77t36.5 70q6 8 17.5 19.5t21.5 15.5h8q23 0 44.5 -15.5t29.5 -25.5q16 -23 21.5 -60.5t5.5 -80.5 q0 -186 3 -298t6 -173.5t6 -85t3 -35.5q0 -41 2 -79t2 -75q0 -25 2 -34t2 -31q0 -12 -1 -20.5t-7 -16.5h-10q-4 0 -11.5 3t-7.5 17q0 35 -1 56.5t-1 62.5q-2 84 -6 150.5t-4 144.5v65.5t-2 61.5t-4 66t-2 69v17q0 23 -1 44t-1 44v22q2 18 3 36t1 34q0 31 -8 49 q-6 12 -20.5 25.5t-31.5 13.5q-2 0 -14 -7t-20 -16q-18 -23 -39 -63.5t-25 -73.5q-2 -6 -2 -16q0 -8 1 -15.5t1 -15.5q0 -23 -14 -29q-14 14 -20.5 34t-14.5 42q-10 20 -13 44t-14 44q-8 14 -15 35t-19 31q-8 6 -20.5 14t-20.5 8q-16 -2 -28.5 -25.5t-16.5 -39.5 q-6 -18 -8.5 -42t-2.5 -46q0 -23 1 -43.5t1 -40.5q0 -86 -3 -166t-5 -176q0 -70 6 -134.5t8 -160.5v-44.5t5 -41.5q4 -12 4 -23q0 -4 -6.5 -7t-10.5 -7q-8 0 -13 9t-7 21.5t-3 25t-1 18.5q0 78 -2 136t-4 106.5t-4.5 88t-2.5 82.5z" />
<glyph unicode="N" horiz-adv-x="512" d="M61 377v115v95t5 97q4 78 8 152.5t10 142.5q0 31 18 42t41 13q29 -37 43.5 -79t23.5 -88t16 -96t22 -99q14 -47 27.5 -103.5t27.5 -107.5q14 -53 28.5 -105.5t24.5 -105.5q10 -55 22.5 -104.5t33.5 -96.5q4 14 4 29.5v32.5q0 47 -5 94t-5 98q0 66 -2.5 112t-2.5 89v24 q0 47 6.5 95.5t6.5 95.5q0 43 4 87t4 89q0 23 -2 45.5t-2 44.5q0 14 1 23.5t5 21.5q4 0 7 1t7 1q8 0 10.5 -6t2.5 -27q0 -8 -1 -18t-1 -31v-61q0 -102 -9.5 -209t-9.5 -205v-47q2 -27 4 -53.5t2 -52.5v-54v-27.5t2 -25.5q4 -29 6 -51.5t5 -50.5v-41q0 -18 -3.5 -36 t-13.5 -34q-4 0 -9 -1t-9 -1q-12 0 -25.5 26.5t-24 61.5t-17.5 67.5t-9 43.5q-18 96 -41 176t-47 168q-16 53 -29.5 115.5t-23.5 121.5q-6 31 -15.5 68t-19.5 68.5t-19.5 52t-13.5 20.5h-8q-12 -41 -13.5 -84t-3.5 -84q-4 -51 -6 -101t-2 -97q0 -23 1 -47.5t1 -47.5 q0 -16 -1 -30.5t-3 -30.5q-2 -20 -2 -39.5v-38.5q0 -121 6 -227v-23q0 -14 -1 -26.5t-1 -24.5q0 -10 1 -19.5t3 -19.5q2 -8 5.5 -16t3.5 -17q0 -10 -9 -16q-14 0 -23 9t-9 48q0 86 -2.5 159t-4.5 161z" />
<glyph unicode="O" horiz-adv-x="497" d="M49 678q0 37 6 76t23 86q14 39 31.5 73.5t42.5 63.5q16 18 38.5 35.5t57.5 17.5q17 0 35 -6q4 2 3 5t7 3q31 0 55.5 -37t43 -85t29.5 -95t17 -65q6 -78 7 -127.5t1 -77.5v-80q0 -31 2.5 -60.5t2.5 -58.5v-27q-4 -37 -15.5 -93t-31 -109.5t-51 -92t-77.5 -38.5 q-25 0 -49 10t-44.5 26.5t-37 36t-24.5 35.5q-16 29 -23.5 64t-11.5 71q-4 18 -7 37t-5 37q-4 27 -7.5 52.5t-3.5 52.5q0 78 -7 142t-7 128zM76 686q0 -33 4 -74t9 -83t9 -84t4 -76q0 -47 5.5 -81t9.5 -65q4 -41 14 -72.5t33 -56.5q18 -23 46 -44t58 -21q25 0 45 14 q16 10 31.5 33.5t27 53.5t19.5 61.5t12 58.5q4 23 9.5 42t5.5 34q2 10 2 20v21q0 88 -7 172t-7 166q0 37 -8.5 86t-27 93t-48 74.5t-74.5 30.5h-13.5t-13.5 -2q-49 -35 -82 -96.5t-53 -134.5q-6 -20 -8 -37t-2 -33z" />
<glyph unicode="P" horiz-adv-x="436" d="M61 909q0 10 1 17.5t1 13.5q0 49 39 71.5t91 22.5q29 0 55 -6t49 -18q49 -31 66.5 -95.5t17.5 -130.5v-14q-2 -100 -38 -166.5t-89 -126.5q-31 -33 -61.5 -61.5t-86.5 -32.5v-29q0 -61 -6 -128.5t-6 -129.5q0 -12 1 -23.5t1 -21.5q2 -12 5 -18t3 -17q0 -12 -7 -14t-13 -2 q-12 8 -14 12t-2 21v8q0 12 1 26.5t1 26.5v80v24.5t2 24.5q6 74 6 146q0 98 -5 183t-5 177v8q0 12 -1 38t-2.5 52.5t-2.5 50t-1 31.5zM94 700q4 -76 5 -140t10 -134q39 6 64 27.5t50 48.5q39 39 76 92t47 113q4 20 6 40.5t2 40.5q0 47 -9 87t-28 63q-8 10 -28.5 24.5 t-32.5 18.5q-18 4 -36.5 6t-37.5 2q-23 0 -45 -6t-37 -18q-2 -53 -4 -115t-2 -121v-29z" />
<glyph unicode="Q" horiz-adv-x="593" d="M61 672v26q4 37 14.5 93.5t31 109.5t51 92t78.5 39q25 0 49 -10t44.5 -26.5t36 -36t25.5 -35.5q16 -29 23.5 -64t11.5 -72q4 -18 7 -36.5t5 -36.5q4 -27 7.5 -52.5t3.5 -52.5q0 -78 7 -142.5t7 -127.5q0 -37 -6 -76t-23 -86l-14 -39q16 -16 32.5 -31.5t30.5 -31.5 q12 -14 22.5 -27.5t26.5 -23.5q-2 -12 -4 -21.5t-12 -13.5q-10 0 -21.5 11t-21.5 24q-18 25 -39.5 44t-32.5 31q-18 -29 -41 -59q-16 -18 -38.5 -35.5t-57.5 -17.5q-53 0 -90 27.5t-59.5 69.5t-31.5 91t-9 92q-6 78 -7 127t-1 78v80q0 31 -2.5 60.5t-2.5 58.5zM92 651 q0 -88 7 -172t7 -166q0 -37 8.5 -86t27 -93t48 -74.5t74.5 -30.5h13.5t13.5 2q23 16 43 39.5t37 52.5q-23 14 -46.5 27.5t-23.5 29.5q0 2 4 10l8 13q23 0 42.5 -14.5t35.5 -26.5q10 23 18.5 47t16.5 53q6 20 8 36.5t2 33.5q0 33 -4 73.5t-9 82.5t-9 84t-4 77q0 47 -5.5 81 t-9.5 65q-4 41 -14 72.5t-33 56.5q-18 23 -46 44t-58 21q-25 0 -45 -14q-16 -10 -31.5 -33.5t-27 -53.5t-19.5 -61.5t-12 -58.5q-4 -23 -9.5 -42t-5.5 -34q-2 -10 -2 -20v-21z" />
<glyph unicode="R" horiz-adv-x="583" d="M61 971v10q0 12 2.5 19.5t6.5 15.5q18 2 29.5 5t27.5 3q10 0 21.5 2t21.5 2h8q33 0 65.5 -9t63.5 -22l12 -4q47 -14 81 -35.5t53 -64.5q10 -31 10 -57q0 -90 -23.5 -140.5t-61.5 -76t-89 -38t-107 -26.5q8 -16 21.5 -26.5t27.5 -22.5l13 -12q18 -16 38.5 -37t45 -52.5 t52.5 -77.5t60 -114q23 -47 39.5 -90t34.5 -86q2 -4 5 -12.5t3 -14.5q0 -10 -12 -12q-12 2 -17.5 8t-11.5 21q0 4 -3 6t-3 6q-2 2 -8 18.5t-14.5 35t-15.5 36.5t-9 25q-10 29 -27.5 55.5t-27.5 54.5q-41 92 -110.5 156.5t-143.5 124.5q-2 -10 -2 -18.5v-18.5q0 -29 2 -59.5 t2 -59.5v-106q0 -39 -1 -77t-1 -73v-44t4 -44q0 -6 1 -12t1 -13q0 -23 -23 -28q-10 10 -11 25.5t-3 31.5t-2 35.5v38.5v51.5t2 44.5v39q0 47 -1 93t-1 89v39q0 98 -4 176t-4 150q0 41 2 79t8 79q0 6 -4 6h-16q-4 0 -7 2zM111 860q0 -59 4 -118.5t4 -118.5v-23q0 -4 6 -4h22 q90 0 148.5 24.5t103.5 81.5q16 23 23.5 60t7.5 59q0 51 -43 92q-23 18 -54.5 31.5t-64.5 24.5q-27 10 -52.5 12t-49.5 2q-20 0 -45 -6q-6 -27 -8 -56.5t-2 -60.5z" />
<glyph unicode="S" horiz-adv-x="485" d="M43 113q0 8 10 14q12 -2 30.5 -16.5t42.5 -32t53.5 -30.5t64.5 -13q76 0 123 37q18 16 31.5 47t13.5 67q0 98 -44 156.5t-114 110.5q-35 25 -65.5 51t-61.5 59q-41 47 -58.5 98.5t-17.5 112.5q0 70 25 125q29 51 75 93t119 42q12 0 33 -1t40 -4t32.5 -12t13.5 -24 q0 -4 -4 -16q-23 6 -48.5 10t-49.5 4q-31 0 -59.5 -7t-51.5 -26q-41 -33 -67.5 -88t-26.5 -118q0 -84 45 -137.5t109 -104.5l69 -51q31 -23 59.5 -50.5t45.5 -62.5q23 -41 28.5 -80t5.5 -80q0 -82 -45 -137t-133 -55q-47 0 -95 17.5t-75 39.5q-12 10 -32.5 28.5t-20.5 33.5z " />
<glyph unicode="T" horiz-adv-x="544" d="M20 1018q1 6 5 10q6 6 10 6q6 0 13 -4t11 -4q27 0 57.5 1t59.5 1h29.5t27.5 -2h31q4 0 6 -1t4 -1h172q14 2 27.5 4t26.5 2q16 0 24 -6v-23q0 -10 -2 -14q-23 -4 -46 -6t-48 -2q-37 0 -73 2t-66 2h-23q-4 -18 -4 -36.5v-37.5q0 -27 1 -51t3 -49q6 -25 7 -101.5t1 -175.5 v-194v-129t5 -92l4 -40t2 -38q0 -10 -1 -19.5t-3 -19.5q-27 4 -32 21.5t-7 44.5q0 39 -1 80.5t-1 76.5q0 68 1 134.5t1 131.5q0 72 -2 145t-9 146q-2 23 -2 43.5v42.5v82q0 10 1 17.5t1 17.5q-10 2 -22 3t-25 1q-23 0 -45 -1t-45 -1q-16 0 -32.5 1t-32.5 5q-2 6 -5.5 13.5 t-3.5 13.5z" />
<glyph unicode="U" horiz-adv-x="520" d="M61 926q0 23 3.5 47t5.5 53q8 4 12 4q12 0 12 -29v-14q0 -84 5 -159.5t10 -174.5q2 -41 2 -82v-82q0 -80 3 -155.5t19 -140.5q6 -25 19.5 -51.5t31.5 -47.5q16 -23 39 -42t51 -19q14 0 23.5 6t19.5 14q14 12 27.5 39t24 57.5t17.5 61.5t11 51q6 8 10.5 42t7.5 81t5 99.5 t3 96.5t2 72.5t3 28.5q0 10 -1 51t-2 91t-2 99.5t-1 77.5q0 18 2 23q2 2 6 2t9 -3t10 -7q2 -49 4 -93t3 -89.5t2 -93.5t1 -105q0 -104 -9.5 -208.5t-25.5 -209.5l-25 -84q-14 -47 -31.5 -84t-64.5 -47q-8 -2 -24 -2q-41 0 -69 22.5t-48 49.5q-31 41 -49.5 95t-27.5 118.5 t-11 135.5t-2 142v27q0 47 -2 89t-4 83q-2 51 -3.5 89t-1.5 75z" />
<glyph unicode="V" horiz-adv-x="516" d="M61 1032q8 8 17 8q12 0 16 -17t8 -38q0 -16 2 -31.5t7 -29.5q4 -35 11 -61.5t11 -55.5l19 -115q8 -29 11 -58.5t9 -58.5q25 -123 55.5 -255t63.5 -232q16 154 28.5 307.5t42.5 300.5q16 86 27.5 168t40.5 160q8 0 13.5 -2t11.5 -4q-2 -31 -12.5 -59.5t-16.5 -59.5 q-8 -31 -10 -60.5t-8 -60.5q-10 -61 -22.5 -123.5t-23.5 -124.5q-10 -55 -13 -114.5t-7 -121t-9 -121.5t-18 -118v-26q0 -27 -14 -31q-12 0 -18.5 11t-10.5 28.5t-7 36t-7 35.5q-8 29 -17.5 58.5t-19.5 57.5q-31 119 -55 246q-12 63 -26.5 125.5t-24.5 128.5 q-6 35 -9.5 67.5t-11.5 65.5l-12 60q-4 31 -7.5 59t-13.5 55z" />
<glyph unicode="W" horiz-adv-x="614" d="M61 1014q0 4 2.5 5l12.5 5q18 0 22 -10t11 -29q10 -57 21 -112.5t22 -114.5q8 -57 10 -115.5t8 -118.5q9 -112 10 -215q0 -11 -1 -21v-8q0 -108 24 -214q27 25 34 58.5t17 74.5t22.5 78.5t22.5 72.5q2 0 5 1t7 1t6 -1t7 -1q23 -41 30.5 -85t28.5 -97q6 -14 15.5 -29.5 t19.5 -32.5q10 -14 21.5 -39.5t25.5 -25.5q8 0 12 18.5t6 43t2 47t2 30.5q4 16 4.5 30.5t0.5 29.5v55q0 10 1 19.5t1 19.5q10 180 14 351t18 341q16 0 27 -6q0 -51 -4 -107.5t-6 -105.5v-81t-2 -83q0 -31 -3 -64.5t-3 -66.5q0 -16 1 -32.5t1 -33.5q-4 -74 -7.5 -136 t-9.5 -122q0 -10 -1 -38.5t-4 -59.5t-8 -56.5t-13 -29.5q-10 -6 -33 -6q-4 0 -8 1t-7 1q-14 4 -24 23.5t-21 33.5q-29 45 -51 104.5t-35 114.5q-10 -27 -17 -50t-15 -54q-10 -45 -22.5 -80t-33.5 -69q-4 -6 -11 -15.5t-15 -9.5q-4 0 -12.5 22.5t-15.5 50t-13 52t-6 31.5 q-10 66 -12.5 133t-2.5 143q0 98 -6 199.5t-27 193.5q-6 23 -11 46.5t-9 45.5q-4 25 -14.5 50.5t-10.5 48.5z" />
<glyph unicode="X" horiz-adv-x="526" d="M61 25q14 41 33 85t37 91q31 80 65.5 162.5t63.5 164.5q-16 72 -40.5 135.5t-49.5 129.5q-8 20 -16.5 38.5t-14.5 38.5q-10 29 -20 58.5t-25 56.5q-4 20 -4 25q0 6 6 16q23 0 31 -19.5t12 -33.5q35 -98 75 -192.5t62 -194.5q35 88 71 194.5t75 198.5q4 14 10 30.5 t19 16.5q4 0 14 -6q0 -35 -15.5 -59.5t-23.5 -53.5q-29 -70 -60.5 -161t-56.5 -168l-9 -22.5t-5 -18.5q0 -10 10 -30t17 -36q29 -82 56.5 -161t49.5 -169q4 -16 9 -37.5t12 -37.5q4 -10 7 -19.5t3 -19.5q0 -18 -15 -27q-12 10 -17 25.5t-9 29.5q-33 106 -62.5 221t-76.5 207 q-45 -104 -84 -212.5t-86 -213.5q-10 -18 -12.5 -29.5t-16.5 -27.5q-19 5 -19 25z" />
<glyph unicode="Y" horiz-adv-x="565" d="M23 1016q2 4 7 5t9 3q23 -14 42 -42t25 -34q66 -70 125.5 -152.5t118.5 -160.5q25 33 39 88t37 102q12 29 27.5 58.5t29.5 62.5q2 8 7.5 22.5t11.5 29t13 25.5t13 11q4 0 6.5 -2t10.5 -6q-10 -68 -45 -131.5t-56 -120.5q0 -2 -4 -10q-16 -47 -36.5 -102.5t-47.5 -81.5 q4 -16 5 -44t1 -49q0 -57 -2 -118.5t-6 -120.5q-2 -20 -3 -40t-1 -40q0 -27 1 -51.5t1 -44.5q0 -12 2 -22.5t2 -20.5q0 -23 -18 -31q-10 12 -13 35.5t-3 50.5v45q0 10 -1.5 21.5t-1.5 21.5q0 45 3.5 86t7.5 82q4 35 4 70.5v70.5q0 29 -2 58.5t-2 52.5q-4 10 -27.5 45 t-58.5 81t-74 97t-73 95t-55.5 74t-18.5 32z" />
<glyph unicode="Z" horiz-adv-x="464" d="M61 8q4 63 26 109.5t42 97.5q29 78 54.5 158t54.5 159q41 111 64.5 221.5t64.5 221.5h-9q-16 0 -33.5 4t-35.5 6h-31q-33 0 -65.5 -2t-63.5 -2q-16 0 -30.5 1t-28.5 3q-6 8 -7 25q0 8 3.5 10t7.5 6q10 -2 20 -2h25q27 0 57.5 1t63.5 1h30.5t30.5 -2q6 0 22.5 -1t33 -3 t28.5 -3t14 -3q4 -4 4 -17q0 -16 -8 -31.5t-12 -27.5q-35 -150 -76 -297t-88 -289q-29 -82 -65.5 -158.5t-61.5 -156.5q35 0 68 -1t63 -1h22.5h35t34 1t21.5 3q16 4 31 4q16 0 32 -6l2 -19q-2 -12 -13 -14t-21 -2q-8 0 -17.5 1t-19.5 1h-47t-82 -2q-33 0 -64 1t-76 5z" />
<glyph unicode="[" horiz-adv-x="344" d="M61 360q8 139 13.5 265.5t5.5 253.5v94q0 43 4 84t20 76q18 0 38 1t40 1h19q23 -2 44 -5.5t36 -9.5q0 -2 1 -3t1 -3q0 -8 -4 -10q-6 -2 -21 -2q-35 0 -57.5 2t-46.5 2h-16.5t-18.5 -2q-6 -20 -8 -49t-2 -51q0 -23 1 -45.5t1 -45.5v-22q0 -180 -13 -348q-2 -16 -2 -36v-42 v-105v-53t-2 -51v-16q0 -25 4 -59t9.5 -69.5t9.5 -70.5t4 -64v-28.5t-2 -26.5h143q14 0 14 -12q0 -6 -12 -10t-29.5 -5t-35 -2.5t-29.5 -1.5q-47 0 -74 11q-10 23 -10 46t-2 52q-8 94 -15.5 182t-7.5 178z" />
<glyph unicode="\" horiz-adv-x="622" d="M61 1126q0 23 23 23q18 -20 22 -53q20 -131 76 -282.5t122.5 -301.5t132 -287t106.5 -239q6 -14 12 -30.5t6 -33.5v-10q0 -4 -2 -13.5t-14 -9.5q-10 0 -15.5 12.5t-11.5 24.5q-59 143 -125.5 286.5t-129 288t-115 295t-85.5 310.5q0 4 -1 10t-1 10z" />
<glyph unicode="]" horiz-adv-x="344" d="M61 1114q0 2 1 3t1 3q14 6 36 9.5t44 5.5h19q20 0 40 -1t38 -1q16 -35 20 -76t4 -84v-94q0 -127 5 -253t14 -266q0 -90 -7.5 -178t-15.5 -182q-2 -29 -2 -52.5t-10 -45.5q-27 -10 -74 -11q-12 0 -29.5 1.5t-35 2.5t-29.5 5t-12 10q0 12 14 12h143q-2 6 -2 26.5v28.5 q0 29 4 64t9.5 70.5t9.5 69.5t4 59v16q-2 25 -2 51.5v52.5v105v42t-2 36q-12 168 -13 348v22q0 23 1.5 45.5t1.5 45.5t-2.5 51t-8.5 49q-10 2 -18 2h-17q-25 0 -47 -2t-57 -2q-14 0 -20 2q-4 2 -5 10z" />
<glyph unicode="^" horiz-adv-x="614" d="M61 770q4 18 15.5 29.5l23.5 23.5q51 49 69.5 69.5t31 36t31 36t69.5 69.5h12q10 0 20.5 -7t14.5 -30q33 -33 47.5 -48t20.5 -22t7 -9.5t8 -11.5t25.5 -27.5t57.5 -55.5l23.5 -23.5t15.5 -29.5q-4 -4 -7 -10t-7 -6q-16 0 -31.5 17t-24.5 32q-41 45 -59 63.5t-31.5 30.5 t-31 31.5t-54.5 68.5q-37 -49 -53 -68.5t-30.5 -32.5t-33 -31.5t-57.5 -63.5q-8 -14 -23.5 -31.5t-31.5 -17.5q-4 0 -8 7t-9 11z" />
<glyph unicode="_" horiz-adv-x="636" d="M61 -80q1 4 5 12q29 -4 55 -6t53 -2q31 0 70 2t78.5 3t78.5 3t72 2h51q14 0 27.5 -2t23.5 -10q0 -18 -4 -28q-4 -2 -14 -3q-10 0 -18.5 2.5t-18.5 2.5q-12 2 -25.5 2h-25.5q-29 0 -68 -2t-79.5 -4.5t-80.5 -4.5t-71 -2q-27 0 -51.5 2t-48.5 7q-2 10 -5.5 13t-3.5 13z" />
<glyph unicode="`" horiz-adv-x="210" d="M61 1032q0 2 4.5 4t8.5 6q12 -2 21 -26.5t18.5 -58t17.5 -67.5t16 -54q2 -6 3 -13q0 -2 -2.5 -6t-6.5 -4q-10 0 -10 10q-23 45 -34 91t-36 118z" />
<glyph unicode="a" horiz-adv-x="458" d="M61 276q0 31 2.5 63t4.5 67v26q0 41 -2.5 87t-2.5 93v43q0 47 2.5 98.5t12.5 99.5t29.5 87t56.5 64q16 10 38.5 20t49.5 10h10q35 -2 61.5 -23.5t43.5 -45.5q14 -25 18 -59t4 -70q0 -20 -1 -41t-1 -41v-17q0 -41 3 -80t3 -79v-33q-4 -49 -5 -104.5t-3 -106.5v-15 q0 -47 5 -91t5 -89q0 -43 1 -62.5t1 -45.5l-2 -23q-12 -8 -22 -8t-13 8q-4 10 -4 36t-2 42q-12 98 -12 197q0 47 2 93t4 97q-14 2 -26.5 2h-24.5q-49 0 -93 -4t-102 -6v-25q-2 -29 -3 -55.5t-1 -50.5q0 -78 12.5 -147.5t12.5 -137.5v-22q0 -23 -8 -29q-10 0 -16.5 6 t-12.5 10v21q0 35 -4 62.5t-8 53t-8.5 55.5t-4.5 70zM100 500q25 0 48.5 4t46.5 4h120q23 0 35 6q-2 16 -2 36.5v37.5q0 55 4 111.5t4 109.5q0 43 -5 84t-17 76q-22 32 -67 32h-3q-68 0 -101.5 -39.5t-46 -97t-13.5 -118t-3 -103.5v-143z" />
<glyph unicode="b" horiz-adv-x="456" d="M61 522q2 35 3.5 82t5.5 88q2 12 2 24.5v24.5v136q2 10 2 19v19q-1 56 -11 101q51 26 120 26h5q41 0 79 -11t61 -38q12 -16 21 -43.5t14.5 -59.5t7.5 -60.5t2 -47.5v-10q-2 -23 -6.5 -50.5t-8.5 -53.5q-10 -66 -44.5 -104t-75.5 -72l-15 -13q53 -6 90 -25.5t58 -58.5 q10 -37 17 -78t7 -81q0 -63 -20.5 -118t-69.5 -83q-23 -12 -53.5 -25.5t-63.5 -13.5q-47 0 -70.5 19.5t-33.5 50t-11 68.5t-3 75q-3 62 -3 129v33v21q0 71 -6 130zM100 573q0 -104 3 -213.5t12 -199.5q2 -20 3 -43t5 -42.5t14 -32.5t29 -13q27 0 51 6q31 10 61.5 27.5 t47.5 46.5q28 55 28 114v35q0 14 -2 29v8q-4 29 -6 57.5t-12 50.5q-6 12 -21.5 20.5t-34 13.5t-36 8.5t-27.5 3.5q-23 0 -44 -2.5t-44 -6.5q-6 10 -8 9.5t-4 13.5q35 10 56.5 34.5t51.5 49.5l6 4q23 16 40.5 32.5t33.5 37.5q18 23 24.5 54.5t12.5 67.5q6 37 6 66 q0 102 -29.5 146t-128.5 44q-23 0 -45 -2t-39 -6q2 -6 3.5 -27.5t1.5 -50.5q0 -37 -1.5 -74t-1.5 -53q0 -109 -6 -213z" />
<glyph unicode="c" horiz-adv-x="444" d="M61 451v34.5t2 40.5q4 70 20.5 159t48.5 167t83 131t125 53h10q12 0 22.5 -4t10.5 -14q0 -4 -1 -6l-3 -6q-4 -10 -20.5 -10.5t-39.5 -4.5q-72 -10 -103.5 -50t-53.5 -99q-8 -23 -16.5 -48.5t-16.5 -52.5q-14 -53 -22.5 -119.5t-8.5 -115.5q0 -45 3 -123t19.5 -153.5 t50.5 -131t93 -55.5q27 0 45 10q10 6 19.5 17.5t17.5 11.5q2 0 12.5 -11.5t10.5 -21.5q0 -20 -30 -34.5t-56 -14.5q-45 0 -77 20.5t-54.5 53t-37 70.5t-22.5 75q-16 63 -23.5 114.5t-7.5 117.5z" />
<glyph unicode="d" horiz-adv-x="487" d="M61 84.5v21.5v31t2 29q2 78 4.5 138.5t2.5 125.5v193q0 35 3 67.5t3 65.5v16q0 29 -2 58.5t-2 58.5q0 2 -1 16.5t-1 31.5t-1 36.5t-1 34.5q0 22 2 26q6 0 13 1t13 1q37 0 71 -9t64 -19l15 -4q66 -20 99.5 -62.5t53.5 -112.5q10 -35 18.5 -70.5t8.5 -72.5 q0 -154 -30.5 -288t-98.5 -238q-37 -57 -89 -101.5t-120 -58.5q-12 10 -17 30.5t-8 32.5q-2 10 -2 21.5zM102 246.5q0 -74.5 2 -156.5v-37q41 10 74 33t55 51q14 16 27.5 44t26.5 50q20 29 31.5 63t25.5 73q23 66 37 145.5t14 155.5q0 66 -13 125t-46 106q-29 43 -88.5 61.5 t-120.5 30.5l-23 4v-28q0 -29 1 -57.5t1 -57.5v-113.5t-2 -113.5t-2 -116.5v-113.5v-148.5z" />
<glyph unicode="e" horiz-adv-x="425" d="M61 227v15q0 53 4.5 106t6.5 109q3 49 3 99v24.5v25.5q0 50 3 101q2 18 2 36.5v36.5v86v49.5t2 49.5v32q0 11 4 17q51 8 100.5 17t100.5 9q37 0 63 -8q4 -6 9.5 -13t5.5 -13q-4 -12 -19 -13q-10 0 -19.5 3t-19.5 5h-20q-43 0 -86 -10t-88 -16q-4 -35 -4 -77v-81v-158 q0 -4 -1.5 -8t-1.5 -8t5 -12q2 -4 12 -4t24.5 4t24.5 6q23 4 46.5 6t47.5 2q31 0 62 -6q10 -14 16 -31q-8 -10 -27 -10q-10 0 -21 2t-22 2q-43 0 -86 -9t-82 -13q-2 -23 -2 -43.5v-42.5v-44.5t-2 -43.5q-2 -47 -3 -87t-1 -77q0 -47 2 -94.5t9 -96.5q6 -2 17 -2h24h55 q29 2 56.5 2t47.5 4q6 2 13.5 6.5t13.5 4.5q2 0 10 -5q12 -6 12 -28q0 -8 -2 -13q-33 -10 -65.5 -10t-63.5 -4q-68 -6 -127 -6q-10 4 -14 9t-10 11q-2 53 -8.5 105.5t-6.5 101.5z" />
<glyph unicode="f" horiz-adv-x="382" d="M61 117q0 182 6.5 352t6.5 340v192q4 4 10 4.5t16 2.5q25 4 55.5 15t71.5 13q20 0 40 -1t42 -1h41q33 0 33 -22q0 -4 -1 -6t-1 -5q-18 -8 -47 -8q-23 0 -45.5 3t-44.5 3h-11q-14 0 -31.5 -4t-35.5 -8q-10 0 -29.5 -8t-27.5 -16l-1 -19q-2 -18 -3 -39.5t-2 -40t-1 -20.5 q2 -20 2 -35.5v-32.5q0 -35 -1 -65.5t-1 -63.5v-33h21q41 0 75.5 9.5t75.5 9.5q14 0 19.5 -16.5t5.5 -22.5q-6 -10 -20 -10h-17q-37 -2 -77 -11.5t-81 -9.5v-160q-2 -29 -3 -53t-1 -47v-76q0 -31 -3 -62.5t-3 -64.5q0 -8 1 -16t1 -16q2 -12 4 -27.5t2 -26.5q0 -14 -8 -14 q-14 2 -22.5 6t-8.5 21q0 27 -1 47t-1 43z" />
<glyph unicode="g" horiz-adv-x="483" d="M61 571q0 51 3.5 106.5t12.5 108t25 97t41 75.5q12 16 31 32t33 24q25 14 45 18t43 4q14 0 29.5 -1t31.5 -1q25 0 29 -6t4 -14q0 -16 -5 -19.5t-19 -3.5q-29 0 -44.5 2t-54.5 2q-20 0 -30 -4q-35 -14 -57.5 -40.5t-36 -59.5t-20.5 -68t-13 -67q-8 -47 -9 -105 q0 -18 1 -36.5t1 -36.5v-41q0 -35 -1 -72t-1 -76q0 -63 3 -125.5t20.5 -113t55.5 -82t106 -31.5q20 0 35.5 24.5t27.5 63.5t20.5 86t13.5 93t7 85t2 60v28q-2 10 -2 23.5t-4 23.5q-8 20 -28.5 26.5t-43.5 6.5q-35 0 -61 -6q-14 14 -14 39q39 16 77 16q37 0 60 -16 q29 -18 38 -63.5t9 -92.5v-29.5t-2 -27.5q-4 -35 -6 -73t-8 -75q-6 -29 -11.5 -63.5t-17.5 -65.5q-6 -14 -12.5 -31.5t-15.5 -33t-21.5 -25.5t-30.5 -10q-86 0 -133 38t-68.5 97.5t-25.5 130t-4 137.5v11q0 41 -1.5 67.5t-1.5 43t-1 26.5t-1 20z" />
<glyph unicode="h" horiz-adv-x="448" d="M61 573q0 4 2.5 8.5t6.5 4.5t8 -3t10 -3q2 10 2 18v14q0 14 -1 23.5t-1 19.5q4 57 4 96.5v92.5q0 29 -1 55.5t-3 52.5q0 10 -1 18.5t-1 16.5q0 4 -1 12.5t-1 14.5q0 16 10 16q8 0 13.5 -11t7.5 -26.5t3 -33t1 -29.5q2 -16 2 -33.5v-34.5q0 -57 -1 -102t-1 -107v-36.5 t2 -36.5q29 0 66.5 1t72.5 1h34.5t31.5 -2q18 94 20 193t6 208v16q0 18 6 27q12 0 16.5 -10t8.5 -21q4 -8 4 -18v-21q0 -23 -3 -47t-5 -47q-6 -78 -8 -141.5t-13 -138.5q2 -4 7.5 -9.5t5.5 -13.5q-2 -14 -7.5 -14t-9.5 -6q-2 -27 -3 -53.5t-1 -55.5q0 -51 1 -94t2 -83t2 -81 t1 -88q0 -12 2 -24.5t2 -24.5q0 -23 -1 -28t-5 -5q-27 0 -26 27q-2 23 -2 45v45q0 66 -2 112.5t-2 112.5q0 20 -1.5 38.5t-1.5 39.5q0 14 1.5 35.5t1.5 76.5q-18 6 -38 11.5t-40 5.5h-45q-23 0 -42.5 -2t-35.5 -10q-10 -94 -12.5 -211t-6.5 -215v-19v-21.5t2 -21.5 q0 -8 1 -14t1 -15q0 -18 -12 -22q-16 2 -20 8t-4 35v47q0 37 2 75t2 77q0 76 6 154.5t10 144.5q0 6 -9 5t-11 5q-6 8 -7.5 11t-1.5 13z" />
<glyph unicode="i" horiz-adv-x="382" d="M61 977q0 8 1 10l4 8q39 10 87 21.5t101 13.5h31q12 0 20 -3t8 -19q0 -8 -2 -15q-4 -4 -10 -4q-4 0 -20 4q-6 2 -13.5 2h-13.5q-20 0 -45 -4t-41 -6v-201q0 -66 -1 -131t-1 -131q0 -72 4 -117l8 -90t8 -101t4 -148v-27q0 -2 7 -2q8 0 24.5 3t34.5 6t35.5 7t27.5 4 q2 -4 3 -14q0 -8 -1.5 -10t-3.5 -8q-39 -10 -87 -16.5t-101 -8.5h-31q-12 0 -20 3t-8 20q0 8 2 14q4 4 10 4q4 0 20 -4q6 -2 13.5 -2h13.5h21l16 2q-8 84 -12 142.5t-8.5 112.5t-7.5 114.5t-7 148.5q4 102 6 160.5t2 111.5v45.5t1 34t1 32.5v42q-23 -4 -39 -10t-39 -8 q-2 4 -2 14z" />
<glyph unicode="j" horiz-adv-x="374" d="M20 199q0 12 2.5 22t14.5 10q10 0 11 -6t1 -14q0 -16 2 -23q4 -18 12.5 -43.5t19.5 -48t22.5 -40t23.5 -23.5q6 -2 21 -2q49 0 84.5 54t35.5 148v31v57.5t-1 45t-1 40v46.5v323q0 47 -3 91t-3 85v31q4 29 8 41h19q10 0 10 -12q0 -6 -2 -22.5t-2 -22.5q0 -10 -1 -19.5 t-1 -19.5q0 -39 4 -72t4 -68v-301q0 -53 6 -112.5t6 -118.5q0 -76 -20.5 -141.5t-87.5 -100.5q-33 -16 -64 -16q-35 0 -52 17.5t-26.5 43t-15.5 52t-16 45.5q-10 20 -11 43z" />
<glyph unicode="k" horiz-adv-x="499" d="M61 35q0 16 5.5 52t5.5 54v99q0 86 -1 129t-1 65v50.5t2 50.5q2 41 4 79.5t2 79.5q0 74 -1 122t-1 79t-1 49.5t-1 34.5q0 12 -3 24.5t-3 24.5q2 2 8 2h8q18 0 24.5 -52t6.5 -126q0 -86 -4.5 -175t-4.5 -136q0 -29 3 -33l51 29q43 49 70.5 108.5t50 122.5t44 129t52.5 127 q25 -4 24 -33q0 -6 -4 -18q-16 -41 -31.5 -79t-29.5 -89q-10 -31 -19.5 -57.5t-19.5 -55.5q-23 -49 -45.5 -94t-54.5 -80q31 -59 58.5 -133t55.5 -135q29 -59 59.5 -117.5t67.5 -109.5q0 -8 -5 -15.5t-13 -7.5q-11 0 -19 16q-16 25 -33.5 55.5t-35.5 53.5q-41 90 -81 188.5 t-89 182.5q-16 -6 -26.5 -12.5t-26.5 -12.5q0 -53 -3.5 -120.5t-3.5 -125.5v-62.5t1 -52t2 -51t4 -57.5q-31 0 -39.5 4t-8.5 29z" />
<glyph unicode="l" horiz-adv-x="380" d="M61 936q0 18 2.5 37.5t10.5 50.5q8 0 12 -3t12 -3q2 -4 2 -14q-2 -61 -3 -106.5t-1 -78.5q0 -63 2 -82.5t2 -27.5q0 -12 1 -24.5t1 -25.5q0 -41 -3 -81.5t-3 -81.5q0 -53 2 -106.5t4 -106.5q4 -57 5.5 -115.5t3.5 -118.5q0 -10 15 -12t26 -2q35 0 76.5 2t78.5 2 q14 0 23 -2q8 -4 15 -5t7 -9q0 -6 -18 -19h-8h-85t-87 -4q-10 -2 -19.5 -3t-19.5 -1t-15 2q-4 2 -14 13.5t-12 21.5q0 4 -1 6t-1 6q0 74 -1 152.5t-1 150.5v39q0 23 -3.5 47.5t-3.5 50.5v381q0 23 -1 39.5t-1 30.5z" />
<glyph unicode="m" horiz-adv-x="579" d="M61 487q0 72 3.5 151t7.5 148v17q0 18 -1 36.5t-1 37.5q0 23 2 43t8 38q8 25 20 47.5t35 22.5q37 0 60.5 -13.5t38 -35t22.5 -50t16 -59.5l7 -22q14 37 28.5 77t36.5 70q6 8 17.5 19.5t21.5 15.5h8q23 0 44.5 -15.5t29.5 -25.5q16 -23 21.5 -60.5t5.5 -80.5 q0 -186 3 -298t6 -173.5t6 -85t3 -35.5q0 -41 2 -79t2 -75q0 -25 2 -34t2 -31q0 -12 -1 -20.5t-7 -16.5h-10q-4 0 -11.5 3t-7.5 17q0 35 -1 56.5t-1 62.5q-2 84 -6 150.5t-4 144.5v65.5t-2 61.5t-4 66t-2 69v17q0 23 -1 44t-1 44v22q2 18 3 36t1 34q0 31 -8 49 q-6 12 -20.5 25.5t-31.5 13.5q-2 0 -14 -7t-20 -16q-18 -23 -39 -63.5t-25 -73.5q-2 -6 -2 -16q0 -8 1 -15.5t1 -15.5q0 -23 -14 -29q-14 14 -20.5 34t-14.5 42q-10 20 -13 44t-14 44q-8 14 -15 35t-19 31q-8 6 -20.5 14t-20.5 8q-16 -2 -28.5 -25.5t-16.5 -39.5 q-6 -18 -8.5 -42t-2.5 -46q0 -23 1 -43.5t1 -40.5q0 -86 -3 -166t-5 -176q0 -70 6 -134.5t8 -160.5v-44.5t5 -41.5q4 -12 4 -23q0 -4 -6.5 -7t-10.5 -7q-8 0 -13 9t-7 21.5t-3 25t-1 18.5q0 78 -2 136t-4 106.5t-4.5 88t-2.5 82.5z" />
<glyph unicode="n" horiz-adv-x="512" d="M61 377v115v95t5 97q4 78 8 152.5t10 142.5q0 31 18 42t41 13q29 -37 43.5 -79t23.5 -88t16 -96t22 -99q14 -47 27.5 -103.5t27.5 -107.5q14 -53 28.5 -105.5t24.5 -105.5q10 -55 22.5 -104.5t33.5 -96.5q4 14 4 29.5v32.5q0 47 -5 94t-5 98q0 66 -2.5 112t-2.5 89v24 q0 47 6.5 95.5t6.5 95.5q0 43 4 87t4 89q0 23 -2 45.5t-2 44.5q0 14 1 23.5t5 21.5q4 0 7 1t7 1q8 0 10.5 -6t2.5 -27q0 -8 -1 -18t-1 -31v-61q0 -102 -9.5 -209t-9.5 -205v-47q2 -27 4 -53.5t2 -52.5v-54v-27.5t2 -25.5q4 -29 6 -51.5t5 -50.5v-41q0 -18 -3.5 -36 t-13.5 -34q-4 0 -9 -1t-9 -1q-12 0 -25.5 26.5t-24 61.5t-17.5 67.5t-9 43.5q-18 96 -41 176t-47 168q-16 53 -29.5 115.5t-23.5 121.5q-6 31 -15.5 68t-19.5 68.5t-19.5 52t-13.5 20.5h-8q-12 -41 -13.5 -84t-3.5 -84q-4 -51 -6 -101t-2 -97q0 -23 1 -47.5t1 -47.5 q0 -16 -1 -30.5t-3 -30.5q-2 -20 -2 -39.5v-38.5q0 -121 6 -227v-23q0 -14 -1 -26.5t-1 -24.5q0 -10 1 -19.5t3 -19.5q2 -8 5.5 -16t3.5 -17q0 -10 -9 -16q-14 0 -23 9t-9 48q0 86 -2.5 159t-4.5 161z" />
<glyph unicode="o" horiz-adv-x="497" d="M49 678q0 37 6 76t23 86q14 39 31.5 73.5t42.5 63.5q16 18 38.5 35.5t57.5 17.5q17 0 35 -6q4 2 3 5t7 3q31 0 55.5 -37t43 -85t29.5 -95t17 -65q6 -78 7 -127.5t1 -77.5v-80q0 -31 2.5 -60.5t2.5 -58.5v-27q-4 -37 -15.5 -93t-31 -109.5t-51 -92t-77.5 -38.5 q-25 0 -49 10t-44.5 26.5t-37 36t-24.5 35.5q-16 29 -23.5 64t-11.5 71q-4 18 -7 37t-5 37q-4 27 -7.5 52.5t-3.5 52.5q0 78 -7 142t-7 128zM76 686q0 -33 4 -74t9 -83t9 -84t4 -76q0 -47 5.5 -81t9.5 -65q4 -41 14 -72.5t33 -56.5q18 -23 46 -44t58 -21q25 0 45 14 q16 10 31.5 33.5t27 53.5t19.5 61.5t12 58.5q4 23 9.5 42t5.5 34q2 10 2 20v21q0 88 -7 172t-7 166q0 37 -8.5 86t-27 93t-48 74.5t-74.5 30.5h-13.5t-13.5 -2q-49 -35 -82 -96.5t-53 -134.5q-6 -20 -8 -37t-2 -33z" />
<glyph unicode="p" horiz-adv-x="436" d="M61 909q0 10 1 17.5t1 13.5q0 49 39 71.5t91 22.5q29 0 55 -6t49 -18q49 -31 66.5 -95.5t17.5 -130.5v-14q-2 -100 -38 -166.5t-89 -126.5q-31 -33 -61.5 -61.5t-86.5 -32.5v-29q0 -61 -6 -128.5t-6 -129.5q0 -12 1 -23.5t1 -21.5q2 -12 5 -18t3 -17q0 -12 -7 -14t-13 -2 q-12 8 -14 12t-2 21v8q0 12 1 26.5t1 26.5v80v24.5t2 24.5q6 74 6 146q0 98 -5 183t-5 177v8q0 12 -1 38t-2.5 52.5t-2.5 50t-1 31.5zM94 700q4 -76 5 -140t10 -134q39 6 64 27.5t50 48.5q39 39 76 92t47 113q4 20 6 40.5t2 40.5q0 47 -9 87t-28 63q-8 10 -28.5 24.5 t-32.5 18.5q-18 4 -36.5 6t-37.5 2q-23 0 -45 -6t-37 -18q-2 -53 -4 -115t-2 -121v-29z" />
<glyph unicode="q" horiz-adv-x="593" d="M61 672v26q4 37 14.5 93.5t31 109.5t51 92t78.5 39q25 0 49 -10t44.5 -26.5t36 -36t25.5 -35.5q16 -29 23.5 -64t11.5 -72q4 -18 7 -36.5t5 -36.5q4 -27 7.5 -52.5t3.5 -52.5q0 -78 7 -142.5t7 -127.5q0 -37 -6 -76t-23 -86l-14 -39q16 -16 32.5 -31.5t30.5 -31.5 q12 -14 22.5 -27.5t26.5 -23.5q-2 -12 -4 -21.5t-12 -13.5q-10 0 -21.5 11t-21.5 24q-18 25 -39.5 44t-32.5 31q-18 -29 -41 -59q-16 -18 -38.5 -35.5t-57.5 -17.5q-53 0 -90 27.5t-59.5 69.5t-31.5 91t-9 92q-6 78 -7 127t-1 78v80q0 31 -2.5 60.5t-2.5 58.5zM92 651 q0 -88 7 -172t7 -166q0 -37 8.5 -86t27 -93t48 -74.5t74.5 -30.5h13.5t13.5 2q23 16 43 39.5t37 52.5q-23 14 -46.5 27.5t-23.5 29.5q0 2 4 10l8 13q23 0 42.5 -14.5t35.5 -26.5q10 23 18.5 47t16.5 53q6 20 8 36.5t2 33.5q0 33 -4 73.5t-9 82.5t-9 84t-4 77q0 47 -5.5 81 t-9.5 65q-4 41 -14 72.5t-33 56.5q-18 23 -46 44t-58 21q-25 0 -45 -14q-16 -10 -31.5 -33.5t-27 -53.5t-19.5 -61.5t-12 -58.5q-4 -23 -9.5 -42t-5.5 -34q-2 -10 -2 -20v-21z" />
<glyph unicode="r" horiz-adv-x="583" d="M61 971v10q0 12 2.5 19.5t6.5 15.5q18 2 29.5 5t27.5 3q10 0 21.5 2t21.5 2h8q33 0 65.5 -9t63.5 -22l12 -4q47 -14 81 -35.5t53 -64.5q10 -31 10 -57q0 -90 -23.5 -140.5t-61.5 -76t-89 -38t-107 -26.5q8 -16 21.5 -26.5t27.5 -22.5l13 -12q18 -16 38.5 -37t45 -52.5 t52.5 -77.5t60 -114q23 -47 39.5 -90t34.5 -86q2 -4 5 -12.5t3 -14.5q0 -10 -12 -12q-12 2 -17.5 8t-11.5 21q0 4 -3 6t-3 6q-2 2 -8 18.5t-14.5 35t-15.5 36.5t-9 25q-10 29 -27.5 55.5t-27.5 54.5q-41 92 -110.5 156.5t-143.5 124.5q-2 -10 -2 -18.5v-18.5q0 -29 2 -59.5 t2 -59.5v-106q0 -39 -1 -77t-1 -73v-44t4 -44q0 -6 1 -12t1 -13q0 -23 -23 -28q-10 10 -11 25.5t-3 31.5t-2 35.5v38.5v51.5t2 44.5v39q0 47 -1 93t-1 89v39q0 98 -4 176t-4 150q0 41 2 79t8 79q0 6 -4 6h-16q-4 0 -7 2zM111 860q0 -59 4 -118.5t4 -118.5v-23q0 -4 6 -4h22 q90 0 148.5 24.5t103.5 81.5q16 23 23.5 60t7.5 59q0 51 -43 92q-23 18 -54.5 31.5t-64.5 24.5q-27 10 -52.5 12t-49.5 2q-20 0 -45 -6q-6 -27 -8 -56.5t-2 -60.5z" />
<glyph unicode="s" horiz-adv-x="485" d="M43 113q0 8 10 14q12 -2 30.5 -16.5t42.5 -32t53.5 -30.5t64.5 -13q76 0 123 37q18 16 31.5 47t13.5 67q0 98 -44 156.5t-114 110.5q-35 25 -65.5 51t-61.5 59q-41 47 -58.5 98.5t-17.5 112.5q0 70 25 125q29 51 75 93t119 42q12 0 33 -1t40 -4t32.5 -12t13.5 -24 q0 -4 -4 -16q-23 6 -48.5 10t-49.5 4q-31 0 -59.5 -7t-51.5 -26q-41 -33 -67.5 -88t-26.5 -118q0 -84 45 -137.5t109 -104.5l69 -51q31 -23 59.5 -50.5t45.5 -62.5q23 -41 28.5 -80t5.5 -80q0 -82 -45 -137t-133 -55q-47 0 -95 17.5t-75 39.5q-12 10 -32.5 28.5t-20.5 33.5z " />
<glyph unicode="t" horiz-adv-x="544" d="M20 1018q1 6 5 10q6 6 10 6q6 0 13 -4t11 -4q27 0 57.5 1t59.5 1h29.5t27.5 -2h31q4 0 6 -1t4 -1h172q14 2 27.5 4t26.5 2q16 0 24 -6v-23q0 -10 -2 -14q-23 -4 -46 -6t-48 -2q-37 0 -73 2t-66 2h-23q-4 -18 -4 -36.5v-37.5q0 -27 1 -51t3 -49q6 -25 7 -101.5t1 -175.5 v-194v-129t5 -92l4 -40t2 -38q0 -10 -1 -19.5t-3 -19.5q-27 4 -32 21.5t-7 44.5q0 39 -1 80.5t-1 76.5q0 68 1 134.5t1 131.5q0 72 -2 145t-9 146q-2 23 -2 43.5v42.5v82q0 10 1 17.5t1 17.5q-10 2 -22 3t-25 1q-23 0 -45 -1t-45 -1q-16 0 -32.5 1t-32.5 5q-2 6 -5.5 13.5 t-3.5 13.5z" />
<glyph unicode="u" horiz-adv-x="520" d="M61 926q0 23 3.5 47t5.5 53q8 4 12 4q12 0 12 -29v-14q0 -84 5 -159.5t10 -174.5q2 -41 2 -82v-82q0 -80 3 -155.5t19 -140.5q6 -25 19.5 -51.5t31.5 -47.5q16 -23 39 -42t51 -19q14 0 23.5 6t19.5 14q14 12 27.5 39t24 57.5t17.5 61.5t11 51q6 8 10.5 42t7.5 81t5 99.5 t3 96.5t2 72.5t3 28.5q0 10 -1 51t-2 91t-2 99.5t-1 77.5q0 18 2 23q2 2 6 2t9 -3t10 -7q2 -49 4 -93t3 -89.5t2 -93.5t1 -105q0 -104 -9.5 -208.5t-25.5 -209.5l-25 -84q-14 -47 -31.5 -84t-64.5 -47q-8 -2 -24 -2q-41 0 -69 22.5t-48 49.5q-31 41 -49.5 95t-27.5 118.5 t-11 135.5t-2 142v27q0 47 -2 89t-4 83q-2 51 -3.5 89t-1.5 75z" />
<glyph unicode="v" horiz-adv-x="516" d="M61 1032q8 8 17 8q12 0 16 -17t8 -38q0 -16 2 -31.5t7 -29.5q4 -35 11 -61.5t11 -55.5l19 -115q8 -29 11 -58.5t9 -58.5q25 -123 55.5 -255t63.5 -232q16 154 28.5 307.5t42.5 300.5q16 86 27.5 168t40.5 160q8 0 13.5 -2t11.5 -4q-2 -31 -12.5 -59.5t-16.5 -59.5 q-8 -31 -10 -60.5t-8 -60.5q-10 -61 -22.5 -123.5t-23.5 -124.5q-10 -55 -13 -114.5t-7 -121t-9 -121.5t-18 -118v-26q0 -27 -14 -31q-12 0 -18.5 11t-10.5 28.5t-7 36t-7 35.5q-8 29 -17.5 58.5t-19.5 57.5q-31 119 -55 246q-12 63 -26.5 125.5t-24.5 128.5 q-6 35 -9.5 67.5t-11.5 65.5l-12 60q-4 31 -7.5 59t-13.5 55z" />
<glyph unicode="w" horiz-adv-x="614" d="M61 1014q0 4 2.5 5l12.5 5q18 0 22 -10t11 -29q10 -57 21 -112.5t22 -114.5q8 -57 10 -115.5t8 -118.5q9 -112 10 -215q0 -11 -1 -21v-8q0 -108 24 -214q27 25 34 58.5t17 74.5t22.5 78.5t22.5 72.5q2 0 5 1t7 1t6 -1t7 -1q23 -41 30.5 -85t28.5 -97q6 -14 15.5 -29.5 t19.5 -32.5q10 -14 21.5 -39.5t25.5 -25.5q8 0 12 18.5t6 43t2 47t2 30.5q4 16 4.5 30.5t0.5 29.5v55q0 10 1 19.5t1 19.5q10 180 14 351t18 341q16 0 27 -6q0 -51 -4 -107.5t-6 -105.5v-81t-2 -83q0 -31 -3 -64.5t-3 -66.5q0 -16 1 -32.5t1 -33.5q-4 -74 -7.5 -136 t-9.5 -122q0 -10 -1 -38.5t-4 -59.5t-8 -56.5t-13 -29.5q-10 -6 -33 -6q-4 0 -8 1t-7 1q-14 4 -24 23.5t-21 33.5q-29 45 -51 104.5t-35 114.5q-10 -27 -17 -50t-15 -54q-10 -45 -22.5 -80t-33.5 -69q-4 -6 -11 -15.5t-15 -9.5q-4 0 -12.5 22.5t-15.5 50t-13 52t-6 31.5 q-10 66 -12.5 133t-2.5 143q0 98 -6 199.5t-27 193.5q-6 23 -11 46.5t-9 45.5q-4 25 -14.5 50.5t-10.5 48.5z" />
<glyph unicode="x" horiz-adv-x="526" d="M61 25q14 41 33 85t37 91q31 80 65.5 162.5t63.5 164.5q-16 72 -40.5 135.5t-49.5 129.5q-8 20 -16.5 38.5t-14.5 38.5q-10 29 -20 58.5t-25 56.5q-4 20 -4 25q0 6 6 16q23 0 31 -19.5t12 -33.5q35 -98 75 -192.5t62 -194.5q35 88 71 194.5t75 198.5q4 14 10 30.5 t19 16.5q4 0 14 -6q0 -35 -15.5 -59.5t-23.5 -53.5q-29 -70 -60.5 -161t-56.5 -168l-9 -22.5t-5 -18.5q0 -10 10 -30t17 -36q29 -82 56.5 -161t49.5 -169q4 -16 9 -37.5t12 -37.5q4 -10 7 -19.5t3 -19.5q0 -18 -15 -27q-12 10 -17 25.5t-9 29.5q-33 106 -62.5 221t-76.5 207 q-45 -104 -84 -212.5t-86 -213.5q-10 -18 -12.5 -29.5t-16.5 -27.5q-19 5 -19 25z" />
<glyph unicode="y" horiz-adv-x="565" d="M23 1016q2 4 7 5t9 3q23 -14 42 -42t25 -34q66 -70 125.5 -152.5t118.5 -160.5q25 33 39 88t37 102q12 29 27.5 58.5t29.5 62.5q2 8 7.5 22.5t11.5 29t13 25.5t13 11q4 0 6.5 -2t10.5 -6q-10 -68 -45 -131.5t-56 -120.5q0 -2 -4 -10q-16 -47 -36.5 -102.5t-47.5 -81.5 q4 -16 5 -44t1 -49q0 -57 -2 -118.5t-6 -120.5q-2 -20 -3 -40t-1 -40q0 -27 1 -51.5t1 -44.5q0 -12 2 -22.5t2 -20.5q0 -23 -18 -31q-10 12 -13 35.5t-3 50.5v45q0 10 -1.5 21.5t-1.5 21.5q0 45 3.5 86t7.5 82q4 35 4 70.5v70.5q0 29 -2 58.5t-2 52.5q-4 10 -27.5 45 t-58.5 81t-74 97t-73 95t-55.5 74t-18.5 32z" />
<glyph unicode="z" horiz-adv-x="464" d="M61 8q4 63 26 109.5t42 97.5q29 78 54.5 158t54.5 159q41 111 64.5 221.5t64.5 221.5h-9q-16 0 -33.5 4t-35.5 6h-31q-33 0 -65.5 -2t-63.5 -2q-16 0 -30.5 1t-28.5 3q-6 8 -7 25q0 8 3.5 10t7.5 6q10 -2 20 -2h25q27 0 57.5 1t63.5 1h30.5t30.5 -2q6 0 22.5 -1t33 -3 t28.5 -3t14 -3q4 -4 4 -17q0 -16 -8 -31.5t-12 -27.5q-35 -150 -76 -297t-88 -289q-29 -82 -65.5 -158.5t-61.5 -156.5q35 0 68 -1t63 -1h22.5h35t34 1t21.5 3q16 4 31 4q16 0 32 -6l2 -19q-2 -12 -13 -14t-21 -2q-8 0 -17.5 1t-19.5 1h-47t-82 -2q-33 0 -64 1t-76 5z" />
<glyph unicode="{" horiz-adv-x="538" d="M61 481q0 20 11.5 24.5t23.5 4.5q23 16 56.5 24.5t50.5 30.5v27q0 68 -8.5 129t-8.5 121q0 20 7.5 55t19.5 71t26.5 64.5t28.5 40.5q18 16 37 25.5t43 19.5q4 4 15.5 9.5t19.5 5.5q10 0 14 -5l6 -20q-12 -16 -29.5 -26.5t-36 -18.5t-34.5 -18.5t-29 -28.5 q-29 -41 -36 -98.5t-19 -102.5v-22q0 -29 5 -55.5t9 -55.5q0 -4 1.5 -7t1.5 -7q4 -20 7 -42t3 -40q0 -27 -8 -41q-12 -23 -44 -38t-55 -15q4 0 15.5 -8.5t25 -18.5t25.5 -20.5t16 -14.5q10 -27 12.5 -55.5t2.5 -57.5q0 -37 -2.5 -75.5t-2.5 -79.5v-27q4 -53 32 -97t63 -71 q16 -10 36.5 -22.5t45.5 -12.5q8 0 24 5q8 4 13.5 10t15.5 6q16 -2 16 -25q0 -18 -8 -26q-23 -12 -43 -13q-49 0 -92 21.5t-74 59.5t-48 88.5t-17 105.5v54.5t2 55.5q2 20 5 43t3 45q0 20 -6 39q-6 12 -25.5 22.5t-32.5 16.5q-39 18 -71 25q-6 6 -7.5 9t-1.5 7z" />
<glyph unicode="|" horiz-adv-x="182" d="M61 639q4 102 6.5 160.5t2.5 111.5t4 106.5t8 102.5q12 0 24 -12v-16q0 -27 -2 -53.5t-6 -55.5v-115q0 -66 -1 -131t-1 -131q0 -72 4 -152.5t8.5 -168.5t8.5 -180.5t4 -184.5v-16q-12 -12 -25 -13q-8 84 -12 178.5t-8 191.5t-7 193.5t-8 184.5z" />
<glyph unicode="}" horiz-adv-x="538" d="M61 -72q0 23 17 25q10 0 15 -6t13 -10q16 -4 25 -5q25 0 45.5 12.5t36.5 22.5q35 27 62.5 71t31.5 97v27q0 41 -2 80t-2 75q0 29 2 57.5t12 55.5q4 4 16.5 14.5t26 20.5t24.5 18.5t15 8.5q-23 0 -54.5 15t-43.5 38q-8 14 -8 41q0 18 3 39.5t7 42.5q0 4 1 7t1 7 q4 29 9 55.5t5 55.5v22q-12 45 -20 102.5t-35 98.5q-12 18 -28.5 28.5t-35 18.5t-36 18.5t-29.5 26.5l6 20q4 4 15 5q8 0 19 -5.5t15 -9.5q25 -10 43.5 -19t36.5 -26q14 -12 28.5 -40.5t27 -64.5t19.5 -71t7 -55q0 -59 -8 -121t-8 -129v-27q16 -23 49.5 -31t56.5 -24 q12 0 23.5 -4t11.5 -25q0 -4 -1 -7t-7 -9q-35 -6 -72 -25q-12 -6 -31.5 -16t-25.5 -23q-6 -18 -6 -39q0 -23 3 -45t5 -43q2 -29 2 -56.5v-53.5q0 -55 -17.5 -105.5t-48 -88.5t-73.5 -59.5t-92 -21.5q-23 0 -43 13q-8 8 -9 26z" />
<glyph unicode="~" horiz-adv-x="612" d="M61 571q18 18 39 26.5t45 12.5q23 0 47.5 -6t40.5 -16q29 -16 59 -43t70 -39q27 -6 58 -6q12 0 24.5 1t22.5 3q18 4 33.5 13t29.5 9q6 0 15 -4q4 -10 3 -15t3 -13q-33 -33 -84 -39q-10 -2 -19.5 -2h-19.5q-66 0 -125 32q-39 23 -72 50.5t-84 27.5q-18 -4 -33.5 -14 t-31.5 -10q-6 0 -14 4q-4 10 -3 15t-4 13z" />
<glyph unicode="&#xad;" horiz-adv-x="581" d="M61 606q1 4 5 12q29 -4 55 -6t53 -2q61 0 119.5 5.5t124.5 5.5h51q14 0 27.5 -2.5t23.5 -10.5q0 -18 -4 -28q-4 -2 -14 -2t-18.5 2t-18.5 2q-12 2 -25.5 2h-25.5q-59 0 -121 -6.5t-123 -6.5q-27 0 -51.5 2t-48.5 7q-2 10 -5.5 13t-3.5 13z" />
<glyph unicode="&#xbc;" horiz-adv-x="532" d="M61 813q2 10 9.5 14t15.5 13q14 16 32.5 39.5t37.5 42.5q2 2 13 12t21 10q11 0 21 -10q4 -12 4 -24.5v-24.5q0 -27 -2 -53.5t-4 -55.5q-2 -14 -2 -28.5v-30.5v-47v-31.5t-4 -30.5q-4 -16 -13 -24q-16 4 -20 16t-4 29q0 14 2 29.5t2 29.5l8 197q-29 -20 -48 -49t-48 -52 q-10 2 -13 11.5t-8 17.5zM102 -35q0 14 6.5 30.5t10.5 33.5q14 49 27.5 101t27.5 97q23 68 38 136.5t36 132.5q23 66 44 129t46 123q25 63 47 123.5t49 117.5q23 -10 31 -26q-41 -106 -84 -215t-80 -224q-18 -59 -32.5 -117.5t-30.5 -117.5t-36 -115.5t-30 -116.5 q-16 -27 -19 -63.5t-22 -61.5q-29 8 -29 33zM293 248q33 47 61.5 96t61.5 96q10 -2 15 -9t9 -15q0 -6 -4 -9.5t-4 -7.5q2 -10 8 -17t6 -20q0 -27 -4 -50t-4 -46v-24q12 -10 20.5 -9.5t12.5 -9.5q0 -16 -12.5 -19t-22.5 -3q-10 -39 -11 -71t-1 -75q0 -10 -4 -11t-8 -3 q-23 16 -23 57q0 25 5 52.5t5 50.5q-16 4 -43.5 4t-48.5 4q-10 14 -14 39zM346 252q12 0 22.5 -1t22.5 -1h12q2 27 4.5 52.5t2.5 45.5v12q-16 -29 -34 -53t-30 -55z" />
<glyph unicode="&#xbd;" horiz-adv-x="522" d="M61 813q2 10 9.5 14t15.5 13q14 16 32.5 39.5t37.5 42.5q2 2 13 12t21 10q11 0 21 -10q4 -12 4 -24.5v-24.5q0 -27 -2 -53.5t-4 -55.5q-2 -14 -2 -28.5v-30.5v-47v-31.5t-4 -30.5q-4 -16 -13 -24q-16 4 -20 16t-4 29q0 14 2 29.5t2 29.5l8 197q-29 -20 -48 -49t-48 -52 q-10 2 -13 11.5t-8 17.5zM98 -35q0 14 6.5 30.5t10.5 33.5q14 49 27.5 101t27.5 97q23 68 38 136.5t36 132.5q23 66 44 129t46 123q25 63 47 123.5t49 117.5q23 -10 31 -26q-41 -106 -84 -215t-80 -224q-18 -59 -32.5 -117.5t-31.5 -117.5q-16 -59 -35.5 -115.5 t-29.5 -116.5q-16 -27 -19.5 -63.5t-21.5 -61.5q-29 8 -29 33zM297 125q0 6 6 21.5t13.5 34t14.5 34.5t11 23q10 18 18.5 34.5t14.5 34.5q-6 14 -25 15q-4 0 -7 -1.5t-7 -1.5q-16 12 -17 41q4 4 12.5 5.5t16.5 1.5h12q20 -14 35 -33t15 -35q0 -6 -2 -10q-4 -14 -12.5 -37 t-19.5 -46.5t-21.5 -45t-18.5 -31.5q12 -6 35 -6q10 0 19 1t16 1q10 -4 14 -12.5t10 -16.5q-12 -20 -45 -20h-16q-16 0 -31.5 3t-26.5 11q-6 6 -10 17.5t-4 17.5z" />
<glyph unicode="&#xbe;" horiz-adv-x="550" d="M86 899q16 12 35 21q10 4 21.5 10t27.5 6t24.5 -5t16.5 -9q10 -12 17.5 -26.5t7.5 -29.5q0 -25 -15.5 -44t-32.5 -31q23 -6 35.5 -33t12.5 -56q0 -31 -19 -59q-18 -27 -49 -36t-55 -13q-6 6 -9.5 11t-5.5 16q39 10 75 29.5t36 66.5q0 16 -10.5 34.5t-20.5 18.5 q-16 0 -29.5 -3t-23.5 -3q-2 0 -4 6t-2 8t14 10.5t30.5 19.5t31 24.5t14.5 29.5q0 12 -4 21q-4 10 -13.5 19t-19.5 9q-6 0 -17.5 -4t-23.5 -9t-21.5 -10t-11.5 -9q-10 4 -12 20zM127 -35q0 14 6 30.5t10 33.5q14 49 27.5 101t28.5 97q23 68 38 136.5t35 132.5 q23 66 44.5 129t45.5 123q25 63 47.5 123.5t49.5 117.5q23 -10 30 -26q-41 -106 -84 -215t-79 -224q-18 -59 -32.5 -117.5t-31.5 -117.5q-16 -59 -35.5 -115.5t-29.5 -116.5q-16 -27 -19.5 -63.5t-21.5 -61.5q-29 8 -29 33zM330 248q33 47 61.5 96t61.5 96q10 -2 15 -9 t9 -15q0 -6 -4 -9.5t-4 -7.5q2 -10 8 -17t6 -20q0 -27 -4 -50t-4 -46v-24q12 -10 20.5 -9.5t12.5 -9.5q0 -16 -12.5 -19t-22.5 -3q-10 -39 -11 -71t-1 -75q0 -10 -4 -11t-8 -3q-23 16 -23 57q0 25 5 52.5t5 50.5q-16 4 -43.5 4t-48.5 4q-10 14 -14 39zM383 252q12 0 22.5 -1 t22.5 -1h12q2 27 4 52.5t2 45.5v12q-16 -29 -33.5 -53t-29.5 -55z" />
<glyph unicode="&#xbf;" horiz-adv-x="569" d="M61 27q0 16 1 30.5t1 28.5q0 53 6.5 100t22.5 95q12 43 28.5 71.5t35 55t39 52t41.5 62.5q23 35 45 70t32 76q16 59 17.5 125t11.5 125q10 0 20.5 -13.5t12.5 -23.5q0 -4 1 -6.5t1 -6.5q0 -14 -3 -31.5t-5 -33.5q-6 -84 -25.5 -140.5t-48.5 -104.5t-63.5 -97t-71.5 -117 q-10 -20 -21.5 -49t-19.5 -55q-12 -43 -17.5 -82t-7.5 -99q0 -10 -2 -22t-2 -23q0 -29 27.5 -52t65.5 -39.5t76 -26t60 -9.5q47 0 89.5 19.5t58.5 58.5q6 14 8 31.5t2 36.5q0 29 -4 59.5t-10 52.5q-4 16 -11.5 34t-17.5 28q-10 8 -23.5 13t-26.5 11.5t-22.5 15.5t-9.5 27 q8 6 17 7q37 0 63.5 -30t43 -70t24.5 -84t8 -70q0 -86 -51 -133.5t-131 -47.5q-33 0 -71 7.5t-75 22.5t-65.5 36.5t-42.5 50.5q-6 12 -8.5 29.5t-2.5 34.5zM328 987q0 6 1 12.5t1 14.5q0 18 20 18q8 0 10 -2q18 -6 19 -31q0 -8 -5 -21t-22 -13q-16 0 -20 6t-4 16z" />
<glyph unicode="&#xff;" horiz-adv-x="1941" />
<glyph unicode="&#xe01;" horiz-adv-x="491" d="M61 752q4 39 21 75q12 37 24.5 75t34 66.5t54 47t84.5 18.5q45 0 81.5 -24.5t40.5 -67.5q6 -45 11.5 -113.5t5.5 -154.5q0 -92 -1 -193.5t-1 -193.5q0 -106 2 -184t12 -105h-12q-18 0 -31 6q-4 213 -5 370.5t-2 268.5t-5 180.5t-13.5 108.5t-26 53t-42.5 14 q-43 0 -77 -18t-54 -49q-20 -35 -36.5 -80t-27.5 -88q18 0 30.5 -5t27.5 -9q4 -12 5 -26.5t1 -31.5q0 -55 -6 -100q-10 -150 -13.5 -307.5t-11.5 -300.5q-8 4 -16.5 8t-12.5 12q2 178 7.5 361.5t17.5 363.5q-12 0 -25.5 -2t-17.5 -2q-8 6 -12.5 12.5t-10.5 14.5z" />
<glyph unicode="&#xe02;" horiz-adv-x="468" d="M61 930q0 35 12.5 69.5t55.5 34.5q25 0 50.5 -7t33.5 -42q2 -6 2 -22q0 -23 -5 -48.5t-11 -46.5q-8 -29 -13.5 -53t-9.5 -51q-10 -59 -23.5 -110.5t-23.5 -110.5q-8 -47 -11 -92t-3 -93v-39q0 -49 3 -102t16 -97t40 -74t74 -30q41 0 65.5 29t36.5 78t15.5 114.5 t3.5 139.5q0 76 -3.5 156.5t-8.5 158.5t-8 146.5t-3 119.5v39q0 23 6 31q6 6 17 6q6 0 12 -6q-2 -20 -2 -52v-104q0 -27 4 -75.5t10 -111t10.5 -135.5t4.5 -147q0 -80 -4.5 -154.5t-19.5 -132t-46 -92t-86 -34.5q-68 0 -118 44t-50 142q0 154 3 254t19 168q6 39 16.5 76 t16.5 76q2 8 8.5 33.5t12.5 53t12 51t6 30.5q2 12 4 28.5t2 28.5t-2 14q-8 16 -30 17q-14 0 -27.5 -5.5t-18.5 -19.5q-8 -25 -8 -55.5t-14 -30.5q-16 0 -19.5 9t-3.5 26z" />
<glyph unicode="&#xe03;" horiz-adv-x="514" d="M41 977q0 16 6 35.5t23 19.5q23 0 36 -3t29 -21q14 10 23.5 18t25.5 8q49 0 66.5 -22.5t17.5 -61.5q0 -12 -6 -37.5t-14 -54.5t-16.5 -55.5t-10.5 -38.5q-10 -59 -23.5 -110.5t-23.5 -110.5q-8 -47 -11 -92t-3 -93v-39q0 -49 3 -102t16.5 -97t40 -74t73.5 -30 q41 0 65.5 29t37 78t15.5 114.5t3 139.5q0 76 -3 156.5t-8.5 158.5t-8.5 146.5t-3 119.5v39q0 23 6 31q6 6 17 6q6 0 12 -6q-2 -20 -2 -52v-104q0 -27 4 -75.5t10 -111t10.5 -135.5t4.5 -147q0 -80 -4.5 -154.5t-19.5 -132t-46 -92t-86 -34.5q-68 0 -118 44t-50 142 q0 154 3 254t20 168q6 39 16 76t16 76q2 8 9.5 40.5t15.5 69.5t15 67.5t7 37.5q0 23 -9 27.5t-29 4.5q-16 0 -22.5 -7t-8.5 -16t-4 -16.5t-8 -7.5q-8 0 -12.5 7.5t-8.5 16.5t-10 17t-17 8q-10 0 -20 -10q-6 -10 -6 -18q0 -10 3 -21.5t3 -21.5q0 -4 -2 -10.5t-8 -6.5 q-18 0 -24.5 21.5t-6.5 44.5z" />
<glyph unicode="&#xe04;" horiz-adv-x="499" d="M61 20q4 14 4.5 28.5t0.5 31.5q0 86 -2.5 179t-2.5 187q0 121 5.5 228.5t22.5 187.5t52 126t95 46q66 0 101.5 -22.5t52 -57t20.5 -76.5t6 -81l16 -504q2 -55 3 -93t2 -63.5t1 -43v-34.5v-53q-2 -10 -7 -13t-9 -3q-23 2 -27 10t-4 31v63q0 41 2 113t2 162q0 66 -2 122 t-6 82q-4 74 -4 118v73v59q0 25 -1 47.5t-5 40.5q-10 39 -51 61.5t-76 22.5q-25 0 -43 -8q-31 -10 -46.5 -34.5t-25.5 -61.5q-23 -92 -30 -204l-13 -208q8 8 23.5 28.5t36 42t43 39t45.5 17.5q10 0 19 -6t9 -16t-11 -14.5t-19 -8.5q-10 -4 -34 -21.5t-46.5 -39t-40 -42 t-17.5 -30.5v-233q0 -41 2 -73t4 -54q0 -10 1.5 -17.5t1.5 -15.5q0 -27 -9 -45q-14 4 -21 12t-18 18z" />
<glyph unicode="&#xe05;" horiz-adv-x="509" d="M61 422l15 418q0 20 3 53t11 64.5t20.5 55t34.5 23.5q31 0 59.5 -24.5t47.5 -40.5q16 2 29.5 13t27 24.5t26.5 24.5t30 11q37 0 60.5 -33.5t23.5 -64.5q-4 -18 -7.5 -80.5t-6.5 -144.5t-6 -173t-6 -167t-5 -126l-2 -50q0 -16 2 -43t5 -54.5t6 -53t3 -40.5q0 -25 -8 -24 q-16 0 -24.5 12t-12.5 30.5t-5 42t-3 46.5v24q0 45 2 111t5 130.5t6 117.5t5 74q2 174 9.5 267t7.5 109q0 18 -12.5 32.5t-28.5 19.5q-39 -12 -66.5 -40t-56.5 -42q-10 8 -18.5 21t-19.5 25.5t-23.5 20.5t-26.5 8q-20 0 -31.5 -13t-18 -33.5t-7.5 -45t-1 -47.5v-37 q0 -104 -5 -165.5t-5 -110.5v-23.5t2 -23.5q6 10 25.5 29.5t41 40t41 34.5t27.5 14t16.5 -5t8.5 -13t-15.5 -16.5t-25.5 -14.5q-10 -10 -20.5 -17t-16.5 -13q-27 -25 -55.5 -60t-28.5 -69v-293q0 -23 2 -48.5t2 -45.5q0 -31 -10 -33q-16 0 -19 24.5t-3 55.5v75q0 70 1 113 t1 80q0 41 -7 84z" />
<glyph unicode="&#xe06;" horiz-adv-x="544" d="M0 977q0 16 6 35.5t23 19.5q23 0 36 -3t29 -21q14 10 23.5 18t25.5 8q49 0 66.5 -22.5t17.5 -61.5q0 -12 -6 -37.5t-14 -54.5t-16.5 -55.5t-10.5 -38.5q-10 -59 -23.5 -110.5t-23.5 -110.5v-46t1 -85t1 -80v-35q0 -16 8.5 -30.5t12.5 -26.5q10 -20 32.5 -57.5t50 -73 t56.5 -62.5t53 -27q27 0 42.5 16.5t23.5 39t9 48.5t1 42v10q0 111 -3 176.5t-3 108.5q0 78 6 149.5t14 151.5q4 53 10.5 109.5t6.5 111.5q0 10 -1 21.5t-1 15.5q6 6 12 6q4 0 12 -4q6 -37 6 -76q0 -129 -16 -252t-16 -245q0 -129 3 -195t3 -107q0 -39 -8.5 -74.5 t-34.5 -60.5q-10 -8 -26.5 -16t-39.5 -8q-37 0 -67 30q-20 18 -42 44t-42.5 54.5t-37 57.5t-24.5 53q-2 -12 -3 -44.5t-1 -45.5q0 -31 2 -51t2 -43v-20q0 -4 -1 -18.5t-7 -14.5q-10 0 -19.5 3t-11.5 11v25q2 23 2 40v31v35t-2 39q0 25 2 51.5t4 53.5q2 47 2 93v95t4.5 88 t10.5 71.5t13 62.5t11 61q2 8 9.5 40.5t15.5 69.5t15 67.5t7 37.5q0 23 -9 27.5t-29 4.5q-16 0 -22.5 -7t-8.5 -16t-4 -16.5t-8 -7.5q-8 0 -12.5 7.5t-8.5 16.5t-10 17t-17 8q-10 0 -20 -10q-6 -10 -6 -18q0 -10 3 -21.5t3 -21.5q0 -4 -2 -10.5t-8 -6.5q-18 0 -24.5 21.5 t-6.5 44.5z" />
<glyph unicode="&#xe07;" horiz-adv-x="423" d="M18 391q0 8 2 10q0 2 3 5q4 4 14 4q8 0 12 -2q51 -29 84 -73t59.5 -93t52 -98.5t64.5 -86.5q2 14 2 29.5v32.5q0 45 -2 92t-2 90v152v76.5t2 76.5q2 66 8.5 127.5t6.5 122.5v43.5t-5 42.5q-4 23 -18 37t-39 14q-27 0 -47 -16q-8 4 -8 16.5t-4 22.5q27 20 53 20 q59 0 82.5 -32.5t23.5 -102.5v-31l-4 -59q-4 -66 -7 -121t-3 -108v-287v-36.5t-2 -37.5q-2 -61 -2 -118.5t-4 -108.5q-6 -6 -14 -6q-4 0 -13 8q-35 33 -65.5 81t-63 101t-68.5 103.5t-81 85.5q-16 14 -17 24z" />
<glyph unicode="&#xe08;" horiz-adv-x="503" d="M41 893q0 23 13.5 46.5t32.5 42.5t42 32.5t41 17.5q10 2 17.5 2h15.5q66 0 111.5 -26.5t74.5 -69.5t41 -97.5t12 -109.5q0 -70 -3 -124t-9 -118q-10 -117 -30.5 -228t-61.5 -222l-8 -23q0 -8 -1.5 -17t-9.5 -9q-14 0 -17 10t-7 20q-10 68 -14.5 134.5t-24.5 126.5 q-16 51 -36.5 85.5t-74.5 57.5q-10 8 -20 12t-10 15q0 4 7 14t17 10q23 -8 41.5 -20.5t40.5 -28.5q27 -25 44.5 -67t26.5 -91t14 -99t9 -93q35 102 55.5 235t26.5 262q2 39 5.5 70t3.5 78q0 51 -8.5 100t-31 88t-61.5 63.5t-102 24.5q-59 0 -89 -39.5t-53 -87.5 q-20 4 -20 23z" />
<glyph unicode="&#xe09;" horiz-adv-x="479" d="M31 893q0 31 20.5 57.5t50 45t62.5 28.5t57 10q51 0 101.5 -38t70.5 -83q6 -14 7 -32.5t6 -36.5q4 -47 8 -96.5t4 -96.5q0 -78 -4 -140t-4 -128v-72t-1 -69.5t-1 -57v-34.5q0 -20 2 -42t2 -40l2 -62q0 -4 -7.5 -9t-17.5 -5q-8 0 -9 12t-3 23q-2 8 -2 16v16q0 25 2 48.5 t2 48.5q0 31 -2 47t-2 51q-18 -39 -30.5 -68.5t-35.5 -68.5q-16 -39 -40.5 -78t-65.5 -39q-37 0 -57.5 19.5t-32 47t-14.5 60.5t-3 61q0 27 -1 52.5t-1 54.5v84q0 18 -2 42.5t-2 59.5q2 16 12.5 21.5t20.5 5.5q16 -2 16 -16q0 -4 -1 -9.5t-1 -9.5q-4 -29 -5 -59.5t-3 -61.5 q-2 -12 -2 -24.5v-24.5q0 -25 1 -48.5t1 -47.5v-31.5t4 -32.5q8 -51 9 -61t3 -14q8 -31 43 -31q33 0 52.5 15.5t32 39t20.5 53t20 58.5q16 33 36 68.5t30 76.5q2 8 2 19.5v25.5v45.5t2 38.5q2 47 3 85t1 69q0 61 -3 100t-7 72q-4 23 -5 44t-12 38q-29 47 -62.5 78.5 t-84.5 31.5q-41 0 -79 -22.5t-64 -61.5q-6 -8 -12.5 -20t-12.5 -12t-10 5t-4 9z" />
<glyph unicode="&#xe0a;" horiz-adv-x="491" d="M61 930q0 35 12.5 69.5t55.5 34.5q25 0 50.5 -7t33.5 -42q2 -6 2 -22q0 -23 -5 -48.5t-11 -46.5q-8 -29 -13.5 -53t-9.5 -51q-10 -59 -23.5 -110.5t-23.5 -110.5q-2 -14 -3 -27.5t-1 -28.5q0 -33 3 -64.5t3 -64.5v-39q0 -49 3 -102t16.5 -97t40 -74t73.5 -30 q43 0 68.5 49.5t39 115t16.5 130t3 95.5v18q0 -2 0 6t-1 21.5t-2 28t-1 24.5q-2 18 -3 39.5t-5 41t-12.5 35t-22.5 21.5q-8 4 -13 5t-12 1h-16q-14 0 -24 2q-4 10 -4.5 12.5t-4.5 12.5q18 31 46 65.5t46 69.5q12 25 21.5 64.5t9.5 80.5q0 8 -1 15.5t-1 13.5q-2 14 -7 28.5 t-5 30.5q0 4 -2 8.5t-2 8.5q0 8 10 8t18.5 -3t12.5 -11l2 -15q4 -27 7 -56.5t5 -57.5v-13q0 -35 -12 -67.5t-29.5 -63t-39 -56.5t-40.5 -42h13q35 0 53 -22.5t27.5 -57.5t12.5 -75t9 -74v-50q0 -80 -4 -154.5t-19.5 -132t-46 -92t-86.5 -34.5q-68 0 -118 44t-50 142 q0 90 -2 161t-2 126q0 41 2 73.5t8 61.5q6 39 16.5 76t16.5 76q2 8 8.5 33.5t12.5 53t12 51t6 30.5q2 12 4 28.5t2 28.5t-2 14q-8 16 -30 17q-14 0 -27.5 -5.5t-18.5 -19.5q-8 -25 -8 -55.5t-14 -30.5q-16 0 -19.5 9t-3.5 26z" />
<glyph unicode="&#xe0b;" horiz-adv-x="536" d="M41 979q0 16 6 35.5t23 19.5q23 0 36 -3t29 -21q14 10 23.5 18t25.5 8q49 0 66.5 -22.5t17.5 -61.5q0 -12 -6 -37.5t-14 -54.5t-16.5 -55.5t-10.5 -38.5q-10 -59 -23.5 -111.5t-23.5 -111.5q-2 -14 -3 -27.5t-1 -28.5q0 -33 3 -64.5t3 -64.5v-39q0 -49 3 -102t16.5 -97 t40 -74t73.5 -30q39 0 64.5 36t39 91.5t18.5 121t5 122.5q0 35 -1 65.5t-3 51.5q-2 18 -3 39.5t-5 41t-12.5 35t-22.5 21.5q-8 4 -13 5t-11 1h-17q-14 0 -24 2q-4 10 -4.5 12.5t-4.5 12.5q18 31 46 65.5t47 69.5q12 25 21 64.5t9 80.5q0 8 -1 15.5t-1 13.5q-2 14 -7 28.5 t-5 30.5q0 4 -2 8.5t-2 8.5q0 8 10 8t18.5 -3t12.5 -11l2 -15q4 -27 7 -56.5t5 -57.5v-13q0 -35 -12 -67.5t-29.5 -63t-39 -56.5t-40.5 -42h13q35 0 53 -22.5t27.5 -57.5t12.5 -75t9 -74v-50q0 -80 -4 -154.5t-19.5 -132t-46 -92t-86.5 -34.5q-68 0 -118 44t-50 142 q0 90 -2 161t-2 126q0 41 2.5 73.5t8.5 61.5q6 39 16 77t16 77q2 8 9.5 40.5t15.5 69.5t15 68t7 37q0 23 -9 27.5t-29 4.5q-16 0 -22.5 -7t-8.5 -16t-4 -16.5t-8 -7.5q-8 0 -12.5 7.5t-8.5 16.5t-10 17t-17 8q-10 0 -20 -10q-6 -10 -6 -18q0 -10 3 -21.5t3 -21.5 q0 -4 -2 -10.5t-8 -6.5q-18 0 -24.5 21.5t-6.5 44.5z" />
<glyph unicode="&#xe0c;" horiz-adv-x="731" d="M61 788q0 37 22.5 81t56.5 81t75 61.5t76 24.5q23 0 41 -8q33 -10 59.5 -38.5t38.5 -59.5q6 -23 8 -45.5t2 -44.5v-41q0 -29 -1 -56.5t-3 -60.5q-4 -82 -3 -155.5t-3 -155.5q-2 -23 -3 -46.5t-1 -45.5v-21q2 -14 6 -30.5t8 -32.5q8 -37 19.5 -60.5t32.5 -52.5 q10 -12 21 -26.5t22 -18.5q12 -4 16 -4q29 0 43 16.5t20.5 41t8.5 52t6 50.5q0 45 1 83.5t1 73.5q0 106 -2 177t-2 118v213v54.5t4 58.5v28q0 27 16 33q12 0 15.5 -10t3.5 -18t-1 -14.5t-1 -12.5q0 -170 1 -270.5t2 -156.5t2 -83t1 -47v-30.5t-2 -33.5q-6 -111 -10.5 -181.5 t-13.5 -112.5t-27.5 -58t-49.5 -16q-33 0 -49 14q-27 23 -52.5 66t-37.5 75q-2 -6 -2 -20q0 -25 4 -51.5t4 -48.5v-11q0 -16 -2 -19t-10 -3q-18 4 -22.5 18.5t-4.5 30.5l-2 29q4 147 5 310t12 335q2 27 4 56.5t2 57.5v23q0 37 -10 57q-41 63 -72 75.5t-53 14.5 q-33 0 -66 -26.5t-58.5 -60t-42 -65.5t-16.5 -40q0 -2 12.5 -5t28 -8.5t28.5 -10.5t15 -11q4 -12 4 -27q0 -16 -2 -36.5t-2 -36.5v-114.5t-4 -98.5l-12 -228q0 -23 -1 -47t-1 -47q0 -12 1 -28.5t3 -32t7 -27.5t15 -16q12 -4 19 -4q14 0 29.5 4t27.5 4q12 -16 13 -31 q0 -6 -3 -8q-12 -14 -45 -14q-18 0 -36.5 4t-22.5 12q-23 29 -30 66.5t-7 82.5q0 35 3 72t5 72q8 117 11.5 221t3.5 225q-16 10 -42 12.5t-48 6.5q-6 14 -7 32z" />
<glyph unicode="&#xe0d;" horiz-adv-x="659" d="M61 809q0 23 13 51q12 35 25.5 61.5t37.5 51.5l28.5 28.5t39.5 18.5q6 0 8 2q16 6 36.5 11t43.5 5h16t17 -4q14 -4 31.5 -18.5t27.5 -28.5q16 -23 21.5 -52.5t5.5 -62.5q0 -23 -1 -43t-1 -43l-13 -378q0 -16 -1 -34t-1 -34v-28.5t2 -28.5q4 -41 34 -73t65 -32q29 0 40 29 t15 55q4 23 5 44.5t1 43.5v70v88t-1 59.5t-1 45v42.5v213v54.5t4 58.5v29q0 27 16 32q12 0 15.5 -10t3.5 -18t-1 -14.5t-1 -12.5q0 -170 1 -270.5t2 -156.5t2 -82.5t1 -47.5v-30.5t-2 -32.5q-4 -41 -4 -62.5v-34.5v-67v-39t-4 -51q-4 -55 -40 -93t-106 -38q-33 0 -66.5 9 t-68.5 38v12q0 10 5 16t24 6q20 -12 33.5 -21t23.5 -15.5t20.5 -9.5t28.5 -3q59 0 87 40t28 102v8q0 8 2 14q0 8 2 23q-10 -18 -22.5 -37t-34.5 -19q-12 0 -19 2q-39 10 -77.5 48t-42.5 79q-6 76 -7 134l23 409q2 29 4 51.5t2 44.5v15q-10 39 -40 56t-66 17q-37 0 -76 -16 q-16 -6 -40 -29.5t-34 -40.5q-16 -23 -23.5 -51t-15.5 -53q10 0 24.5 2t30.5 2q29 0 39 -14q2 -4 2 -10q0 -8 -3 -14.5t-3 -16.5t1 -16.5t1 -10.5q-2 -16 -6 -30.5t-8 -30.5q-8 -49 -16.5 -97.5t-14.5 -99.5q-2 -10 -2 -29v-51q-2 -20 -5 -40.5t-5 -43.5q-4 -49 -3 -98 t-1 -94q0 -57 33 -88q8 4 22.5 15t26.5 11t16 -18q0 -10 -18.5 -27.5t-34.5 -17.5q-10 0 -21.5 10t-21.5 23.5t-18.5 27t-10.5 23.5q-6 20 -6 49q0 16 1 30.5t1 30.5v15v59.5t2 59.5q4 59 8 118.5t15 116.5q10 59 20 112.5t15 104.5q-12 4 -23 4q-10 0 -24.5 -1t-24.5 -1 h-10q-8 14 -9 33z" />
<glyph unicode="&#xe0e;" horiz-adv-x="522" d="M61 39q2 18 17 18q12 0 26.5 -11t22.5 -15q16 16 24.5 29.5t8.5 41.5q0 88 1 164t2 148.5t4 148.5t9 166q-12 0 -25.5 -2t-17.5 -2q-8 6 -12 12l-10 15q4 39 20 75q12 37 24.5 75t34 66.5t54 47t84.5 18.5q45 0 78.5 -24.5t37.5 -67.5q6 -45 11.5 -113.5t5.5 -154.5 q0 -92 -1 -193.5t-1 -193.5v-453q-4 -55 -40 -93t-106 -38q-16 0 -41.5 5t-54.5 14.5t-55.5 21.5t-44.5 27v12q0 10 5 16t23 6q43 -23 88.5 -46t79.5 -23q59 0 88 42t29 103q0 180 1 323.5t1 260.5q0 150 -3 253t-12 166.5t-26.5 91.5t-46.5 28q-43 0 -78 -20.5t-55 -51.5 q-20 -35 -36.5 -80t-27.5 -88q18 0 30.5 -5t27.5 -9q4 -12 5 -26.5t1 -31.5q0 -55 -6 -100q-4 -74 -6 -118t-2 -80t-1 -78t-6 -113v-15q0 -16 1.5 -30.5t1.5 -30.5v-43t-5 -41q-6 -18 -28.5 -32.5t-44.5 -16.5q-16 0 -35 17.5t-19 27.5z" />
<glyph unicode="&#xe0f;" horiz-adv-x="524" d="M61 39q2 18 17 18q12 0 26.5 -11t22.5 -15q16 16 24.5 29.5t8.5 41.5q0 88 1 164t2 148.5t4 148.5t9 166q-12 0 -25.5 -2t-17.5 -2q-8 6 -12 12l-10 15q4 39 20 75q12 37 24.5 75t34 66.5t54 47t84.5 18.5q45 0 78.5 -24.5t37.5 -67.5q6 -45 11.5 -113.5t5.5 -154.5 q0 -92 -1 -193.5t-1 -193.5q0 -45 -1 -106.5t-3 -124t-3 -119t-1 -89.5v-32q0 -27 6 -49.5t6 -45.5q0 -4 -1 -8t-1 -8q-23 2 -40.5 14.5t-32.5 28.5t-30.5 32.5t-29.5 29.5q-8 -6 -15.5 -21.5t-14.5 -32t-15.5 -31t-18.5 -20.5q-16 0 -41.5 5t-54.5 14.5t-55.5 21.5 t-44.5 27v12q0 10 5 16t23 6q43 -23 88 -46t80 -23q6 8 13.5 27.5t13.5 38t13 32.5t15 14q14 0 25.5 -11t24 -25.5t26 -28.5t29.5 -23q-4 20 -4 41v43q0 53 4 110.5t4 113.5q-4 213 -4 365.5v257t-3 166t-11.5 94t-23.5 42t-42 9.5q-43 0 -78 -20.5t-55 -51.5 q-20 -35 -36.5 -80t-27.5 -88q18 0 30.5 -5t27.5 -9q4 -12 5 -26.5t1 -31.5q0 -55 -6 -100q-4 -74 -6 -118t-2 -80t-1 -78t-6 -113v-15q0 -16 1.5 -30.5t1.5 -30.5v-43t-5 -41q-6 -18 -28.5 -32.5t-44.5 -16.5q-16 0 -35 17.5t-19 27.5z" />
<glyph unicode="&#xe10;" horiz-adv-x="475" d="M41 891q0 23 13.5 46.5t32.5 42.5t42 32.5t41 17.5q10 2 17.5 2h15.5q18 0 26.5 -2t13.5 -6t11 -10t18 -13h11q31 0 55 14.5t46 33t41 38t40 29.5q18 0 24.5 -3t6.5 -13v-13q-14 -12 -34 -31.5t-43.5 -38t-51 -31.5t-58.5 -13q45 -43 64.5 -108.5t19.5 -135.5t-1 -124 t-7 -118q-4 -59 -5 -115.5t-3 -112.5t-10.5 -111.5t-28.5 -110.5l-8 -23q0 -8 -1 -17t-10 -9q-14 0 -17 10t-7 20q-4 33 -13.5 76t-20.5 87t-22.5 85t-21.5 70q-16 51 -44 85t-81 56q-10 8 -20.5 12.5t-10.5 14.5q0 4 7.5 14t17.5 10q23 -8 41 -20t41 -29l27 -20 q25 -27 42 -75t31.5 -104.5t25.5 -111.5t21 -94q20 61 25.5 135t5.5 153v107v52.5t2 49.5q2 39 5 70t3 78q0 51 -11 100t-30.5 88t-48 63.5t-63.5 24.5q-59 0 -89 -40t-53 -87q-20 4 -20 23zM47 -170q0 10 5 16.5t24 6.5q25 -29 55.5 -52.5t52.5 -23.5q23 12 46.5 34.5 t39.5 32.5q12 0 44 -24.5t67 -40.5q0 8 -2 24.5t-2 22.5q-2 14 -3 27.5t-1 29.5q0 4 -2 8.5t-2 8.5q0 8 10 8t18.5 -3t12.5 -11l2 -15q2 -14 3 -27.5t1 -27.5v-70q0 -4 -1 -8t-1 -8q-45 4 -74 25.5t-61 39.5q-16 -14 -45 -31.5t-50 -27.5q-33 0 -67.5 22.5t-69.5 51.5v12z " />
<glyph unicode="&#xe11;" horiz-adv-x="540" d="M20 926q0 23 3.5 39t9.5 20q12 6 26 6q20 0 37 -10t27 -23q14 10 25.5 24.5t31.5 16.5q53 0 53 -59q0 -2 -4 -13.5t-8 -24.5t-8 -24.5t-4 -13.5q14 20 30.5 50t37 56.5t44 45t52.5 18.5q57 0 76.5 -48t19.5 -105v-13q-2 -61 -4 -120.5t-6 -122.5q0 -6 1 -45t2 -86.5 t2 -88t1 -51.5q2 -23 2 -47v-49q0 -66 6 -126t6 -120q0 -23 -16 -22q-6 0 -10 10t-6.5 23.5t-3.5 26.5t-1 22q0 111 -5 178t-5 106q0 29 -1 53.5l-2 49t-2 52.5t-1 62l8 152q2 41 6 83t4 83q0 39 -15 67.5t-56 28.5q-35 0 -56.5 -25.5t-40.5 -48.5q-55 -76 -86.5 -170 t-42.5 -192q-10 -104 -13 -213t-3 -219q0 -27 2 -49.5t2 -46.5q0 -8 -1 -16.5t-1 -16.5q-4 -2 -8 -2q-10 0 -13 7t-8 23q-4 23 -4 45.5v45.5q0 41 -4 79.5t-4 77.5q0 59 4 105.5t4 93.5q0 25 10.5 89t26 138t32.5 142.5t36 103.5q-4 6 -11.5 8t-13.5 4q-10 0 -18 -8 t-14.5 -17.5t-12.5 -16.5t-14 -7q-10 0 -24.5 20.5t-33.5 20.5q-10 0 -13 -9t-3 -20v-22q0 -10 -1 -20.5t-7 -10.5q-12 0 -15.5 21.5t-3.5 44.5z" />
<glyph unicode="&#xe12;" horiz-adv-x="729" d="M61 438v19q0 29 2.5 57.5t4.5 56.5q2 29 2 55.5v49.5v194q2 18 4 44t8 51.5t18.5 44t34.5 22.5h12q37 0 59.5 -24.5t33.5 -53.5q18 14 30.5 43t36.5 35q6 2 21 2q29 0 46 -15t25 -36q6 -16 12.5 -36.5t10.5 -41.5q2 -6 2 -22v-615q2 -14 6 -30.5t8 -32.5 q8 -37 19.5 -60.5t31.5 -52.5q10 -12 21.5 -26.5t21.5 -18.5q12 -4 17 -4q29 0 43 16.5t20 41t8.5 52t6.5 50.5q0 45 1 84t1 73q0 106 -2 177t-2 118v213v54.5t4 58.5v29q0 27 16 32q12 0 15.5 -10t3.5 -18t-1 -14.5t-1 -12.5q0 -170 1 -270.5t2 -156.5t2 -82.5t1 -47.5 v-30.5t-2 -32.5q-6 -111 -10.5 -181.5t-13.5 -112.5t-27.5 -58.5t-49.5 -16.5q-33 0 -49 14q-27 23 -52.5 66t-37.5 76q-2 -6 -2 -21q0 -25 4 -51.5t4 -48.5v-10q0 -16 -2 -19.5t-10 -3.5q-18 4 -22.5 18.5t-4.5 30.5l-2 29q2 29 2 49v37q0 39 -2 55.5t-2 46.5q0 20 1 51 t5 84v285q0 45 1 77t1 58q0 18 -1 34.5t-3 33.5q0 35 -11 64.5t-44 29.5q-18 0 -33.5 -16.5t-28.5 -32.5q-6 -10 -7 -25.5t-11 -15.5q-10 2 -23.5 18.5t-17.5 26.5q-12 25 -22.5 35t-34.5 14q-35 -2 -44.5 -37t-11.5 -69q-2 -10 -2 -18.5v-18.5q-4 -127 -3 -221.5t-5 -161.5 q12 -4 19 -4q35 0 67.5 29.5t46.5 62.5q6 12 10.5 28.5t14.5 20.5q6 0 15 -13.5t9 -23.5q0 -35 -28.5 -68.5t-57.5 -50.5q-23 -12 -39 -20t-51 -12v-48q4 -86 6.5 -165.5t12.5 -159.5q2 -6 5 -16.5t3 -18.5q0 -10 -8 -12q-20 0 -27 10q-18 59 -15 122.5t-5 125.5 q-4 31 -5 52.5t-1 40.5t-1.5 42t-3.5 55z" />
<glyph unicode="&#xe13;" horiz-adv-x="733" d="M61 799q0 37 22.5 81t56.5 80.5t75 61.5t76 25q23 0 41 -9q33 -10 59.5 -38.5t38.5 -59.5q6 -23 8 -45.5t2 -44.5v-41q0 -29 -1 -56.5t-3 -60.5q-2 -23 -2 -43v-43q0 -43 1 -87t1 -87q0 -18 -1 -36t-1 -36q0 -35 1 -73.5t1 -83.5q4 -23 6 -50.5t8.5 -52t20.5 -41 t43 -16.5q4 0 16 4q10 4 21.5 18.5t21.5 26.5q20 29 31.5 52.5t20.5 60.5q4 16 8 32.5t6 30.5v21v101.5t-1 61t-1 55.5t-1 84t-1 144v240q0 6 -1 12t-1 14t3 18.5t15 10.5q16 -6 17 -33v-28q4 -31 4 -58.5v-54.5v-213q0 -47 -2 -117.5t-2 -177.5v-41q0 -68 2 -121t2 -88 l-2 -49q0 -16 -4 -30.5t-23 -18.5q-8 0 -10 3t-2 20v10q0 23 4 49.5t4 50.5q0 14 -2 21q-12 -33 -38 -76t-52 -66q-16 -14 -49 -14q-31 0 -49.5 16.5t-27.5 58.5t-13.5 112.5t-10.5 181.5q-2 16 -2 32.5v30.5q0 12 4 72.5t7.5 130t6.5 130t3 75.5v22q0 37 -10 58 q-41 63 -72 75.5t-53 14.5q-33 0 -66 -27t-58.5 -60.5t-42 -65.5t-16.5 -40q0 -2 12.5 -5t28 -8t28.5 -10.5t15 -11.5q4 -12 4 -26q0 -16 -2 -37t-2 -37v-114.5t-4 -98.5l-12 -227q0 -23 -1 -47.5t-1 -47.5q0 -12 1 -28.5t3 -31.5t7 -27.5t15 -16.5q12 -4 19 -4q14 0 29.5 4 t27.5 4q12 -16 13 -31q0 -6 -3 -8q-12 -14 -45 -14q-18 0 -36.5 4t-22.5 12q-23 29 -30 67t-7 83v45.5t1 57.5t2 57.5t1 46.5q4 57 7.5 102t6.5 87t4 87t1 107q-16 10 -42 12t-48 6q-6 14 -7 33z" />
<glyph unicode="&#xe14;" horiz-adv-x="512" d="M61 416q0 70 1 102.5t1 28.5q0 45 1.5 96t2.5 98t5 89t10 69q10 37 23.5 60.5t35.5 44.5q16 16 38 22t46 6q68 0 107 -31.5t57.5 -82t22.5 -114t4 -126.5v-115q0 -47 3 -95t3 -95v-23q0 -59 2 -101t6 -80t9 -78t12 -91q0 -10 -11 -10q-10 0 -17 3t-11 23q-18 88 -23 174 v37q0 35 1 69t1 69v32.5t-2 32.5q0 10 -2 22.5t-2 22.5q-2 35 -3 67.5t-1 65.5q0 45 1 88t1 86v11q-2 86 -46 138t-104 52q-29 0 -53 -12q-18 -8 -35.5 -29.5t-25.5 -44.5q-12 -39 -14.5 -88t-2.5 -102v-267q-2 -4 -2 -8q0 -6 2 -8q4 -2 7.5 -3t7.5 -1q35 0 71.5 29.5 t51.5 62.5q6 12 10 28.5t14 20.5q6 0 15.5 -13t9.5 -24q0 -35 -29 -68.5t-57 -49.5q-23 -12 -47.5 -20.5t-59.5 -12.5q-2 -35 -3 -58.5t-1 -46.5v-24.5t2 -32.5l10 -172q0 -10 2.5 -18.5t2.5 -18.5q0 -4 -1.5 -5t-1.5 -5q-2 0 -3 -1t-3 -1q-10 0 -16 9t-10 17q-4 10 -5 28.5 t-1 39.5v41q-6 186 -7 291z" />
<glyph unicode="&#xe15;" horiz-adv-x="520" d="M61 438v19q0 29 2.5 57.5t4.5 56.5q2 29 2 55.5v49.5v194q2 18 4 44t8 51.5t18 44t35 22.5h12q37 0 64 -24.5t37 -53.5q18 14 30.5 43t36.5 35q6 2 21 2q29 0 50.5 -15t29.5 -36q6 -16 12 -36.5t10 -41.5q2 -6 2 -22v-365q4 -18 5 -34.5t1 -32.5q0 -23 -1 -42.5t-1 -35.5 q0 -63 3.5 -109.5t3.5 -85.5l8 -86q0 -47 -1 -62.5t-1 -19.5q0 -20 -8 -20q-14 0 -17.5 5t-7.5 15q-4 39 -7 87t-4 90t-2 69t-1 25q2 74 2 134v109v162q0 45 1 77t1 58q0 18 -1 34.5t-3 33.5q0 35 -15.5 64.5t-48.5 29.5q-18 0 -33.5 -16.5t-27.5 -32.5q-6 -10 -7.5 -25.5 t-11.5 -15.5q-10 2 -23.5 18.5t-17.5 26.5q-12 25 -26.5 35t-38.5 14q-35 -2 -44.5 -37t-11.5 -69q-2 -10 -2 -18.5v-18.5q-4 -127 -3 -221.5t-5 -161.5q12 -4 19 -4q35 0 71.5 29.5t51.5 62.5q6 12 10 28.5t14 20.5q6 0 15.5 -13.5t9.5 -23.5q0 -35 -29 -68.5t-57 -50.5 q-23 -12 -43.5 -20t-55.5 -12v-48q4 -86 11.5 -165.5t17.5 -159.5q2 -6 5 -16.5t3 -18.5q0 -10 -8 -12q-20 0 -27 10q-8 23 -10 59.5t-6 63.5q-4 33 -7 61.5t-7 63.5q-4 31 -5 52.5t-1 40.5t-1.5 42t-3.5 55z" />
<glyph unicode="&#xe16;" horiz-adv-x="491" d="M61 752q4 39 21 75q12 37 24.5 75t34 66.5t54 47t84.5 18.5q45 0 80.5 -24.5t39.5 -67.5q6 -45 12.5 -113.5t6.5 -154.5q0 -92 -1 -193.5t-1 -193.5q0 -106 2 -184t12 -105h-12q-18 0 -31 6q-6 322 -6 517.5t-6 303t-23.5 143.5t-56.5 36q-43 0 -78 -20.5t-55 -51.5 q-20 -35 -36.5 -80t-27.5 -88q18 0 30.5 -5t27.5 -9q4 -12 5 -26.5t1 -31.5q0 -55 -6 -100q-4 -74 -7.5 -131.5t-4.5 -110.5t-3 -108t-6 -127q0 -57 33 -88q8 4 22.5 15t26.5 11t16 -18q0 -10 -18 -27.5t-35 -17.5q-10 0 -21.5 10t-21.5 23.5t-18 26.5t-10 24q-2 4 -2.5 11 t-0.5 13v70q0 88 1.5 153.5t3.5 126t6 126t10 155.5q-12 0 -25.5 -2t-17.5 -2q-8 6 -12 12t-11 15z" />
<glyph unicode="&#xe17;" horiz-adv-x="505" d="M61 416v58.5t2 57.5q2 61 2.5 122t0.5 120v45q2 10 2 21.5v27.5q0 41 -2.5 82t-2.5 51q0 6 4.5 14.5t8.5 8.5q16 0 19 -13.5t3 -31.5q0 -10 -1 -20.5t-1 -20.5q0 -12 4 -20q29 49 77 81.5t106 32.5q47 0 82.5 -27.5t48.5 -60.5q8 -20 16 -49t10 -53q4 -25 4 -49.5v-51.5 v-43t-2 -43q-2 -47 -2 -96t-4 -96q-6 -78 -11 -167t-5 -167v-139q-23 0 -28 18.5t-7 42.5q0 18 -1 31.5t-1 28.5q0 98 7 198.5t11 198.5q4 49 6.5 98t2.5 96q0 25 1 47.5t1 45.5q0 29 -2 55.5t-13 52.5q-8 29 -39.5 58.5t-72.5 29.5q-12 0 -21 -2q-70 -14 -114 -61t-52 -115 v-31q0 -29 1 -59.5t1 -60.5v-30t-2 -30q-2 -14 -2 -26.5v-26.5q0 -41 2 -79t2 -77q0 -31 -1 -62.5t-1 -64.5q0 -113 6 -229q0 -8 1 -15.5t1 -13.5v-8q0 -10 -6 -10q-23 0 -25.5 10t-2.5 33q0 92 -5.5 193.5t-5.5 189.5z" />
<glyph unicode="&#xe18;" horiz-adv-x="532" d="M51 907q0 29 9.5 54.5t29.5 37.5t48 18.5t55 8.5h16q20 0 29.5 -1t15.5 -3t15.5 -3t31.5 -1q10 0 21.5 -1t21.5 -1q20 0 45 6q12 4 28.5 15.5t33.5 11.5q6 0 8 -2q12 -6 12 -27q0 -10 -2 -16q-29 -23 -52.5 -27t-60.5 -4h-57q-18 2 -38.5 4t-43.5 2q-16 0 -33.5 -2 t-33.5 -6q-29 -8 -47.5 -24.5t-18.5 -49.5q0 -25 11 -41t29.5 -27.5t39 -17.5t39.5 -10q4 0 5 -1t5 -1q33 -6 58.5 -11.5t46 -11.5t40 -15t43.5 -26q12 -16 18.5 -41.5t10.5 -53.5t5 -51.5t1 -35.5q0 -25 -1 -53.5t-2 -55t-2 -48t-1 -27.5q-2 -72 -2 -127.5t-10 -124.5 q-4 -63 -42 -97t-95 -34q-20 0 -31 4q-74 31 -94.5 82t-26.5 112q-2 12 -2 24.5v24.5q0 35 2 83.5t2 82.5q0 10 -1 22.5t-1 22.5q-2 10 -3 23.5t-1 24.5q0 18 8 20q23 0 27 -26.5t4 -43.5v-100q0 -18 -1 -52t-1 -57q0 -41 6 -78.5t19.5 -66.5t35 -47t53.5 -18q41 8 65 23 t36 60.5t16 130.5t6 234q0 29 -1 54.5t-1 54.5q0 33 -3 62.5t-15 55.5q-18 12 -29.5 19.5t-24 13.5t-27.5 10t-42 11q-47 10 -93 15t-77 34q-16 16 -25.5 44.5t-9.5 61.5z" />
<glyph unicode="&#xe19;" horiz-adv-x="464" d="M61 229v127v147.5t1 93.5t1 58.5v40.5q0 94 1.5 150.5t2.5 86.5t2 42t1 20l-4.5 13.5t-2.5 13.5q0 4 7.5 6t11.5 6q2 2 6 2q14 0 16 -21.5t2 -39.5q0 -45 -3 -80t-3 -78q-4 -135 -4 -222v-140v-211q0 -31 6.5 -67t21.5 -66.5t37.5 -53t57.5 -28.5h8q33 0 55.5 13t32.5 34 q10 18 17.5 44.5t11.5 57.5t7 61.5t7 57.5q2 12 2 25.5v25.5q-4 72 -6 115t-2 69q4 41 4 73v59q0 41 -1 69.5t-1 52.5v23v59.5t-2 59.5v12q0 10 1 22.5t1 22.5v12q0 27 11 29q16 0 18 -14.5t2 -24.5t-1 -23.5t-1 -23.5v-35q2 -23 3 -44t1 -44v-16q0 -35 -1 -62.5t-1 -52.5 q0 -53 1 -92t2 -73t3 -66.5t4 -73.5v-24.5t2 -24.5q0 -4 1 -9.5t1 -9.5q0 -6 1 -11t1 -11t1 -11.5t1 -11.5q6 -53 12.5 -108.5t14.5 -112.5q4 -10 4 -23.5v-23.5q0 -4 -4 -5t-8 -1q-12 0 -18.5 10t-8.5 24.5t-2 29v20.5q-4 41 -7 84t-3 84q-6 -25 -10 -52.5t-8.5 -55 t-11.5 -53.5t-21 -44q-10 -10 -35 -26.5t-41 -20.5t-25 -4q-41 0 -72.5 20.5t-53 54t-33 76.5t-11.5 88z" />
<glyph unicode="&#xe1a;" horiz-adv-x="516" d="M61 1012q1 6 9 12q18 -8 23 -13t7 -22v-45q6 -51 7.5 -99t1.5 -95q0 -12 -1.5 -25.5t-3.5 -30.5v-84q0 -86 1 -143t2.5 -97t4.5 -67t9 -51q0 -4 1 -5t1 -5q16 -96 45 -158q12 -25 45 -41t68 -16q51 0 79.5 45t43 109.5t16.5 134t2 118.5v33q0 27 -1 48.5t-1 37.5v35 q0 82 -7 155.5t-7 157.5q0 31 1 48.5t1 35.5v19q0 20 10 20q20 -4 20 -20.5t2 -28.5v-125q0 -41 5.5 -82t5.5 -82v-16q0 -70 2 -137.5t2 -133.5q0 -78 -6 -157q-4 -29 -9.5 -55.5t-11.5 -49.5q-8 -25 -20.5 -51.5t-30 -48t-41 -34.5t-51.5 -13q-66 0 -103 29.5t-59 84.5 q-29 78 -40 170.5t-11 178.5q0 41 2 85t2 91v78q0 74 -2 152.5t-11 139.5q0 4 -1 6.5t-1 6.5z" />
<glyph unicode="&#xe1b;" horiz-adv-x="516" d="M61 1012q1 6 9 12q18 -8 23 -13t7 -22v-45q6 -51 7.5 -99t1.5 -95q0 -12 -1.5 -25.5t-3.5 -30.5v-84q0 -86 1 -143t2.5 -97t4.5 -67t9 -51q0 -4 1 -5t1 -5q16 -96 45 -158q12 -25 45 -41t68 -16q51 0 79.5 45t43 109.5t16.5 134t2 118.5v33q0 27 -1 48.5t-1 37.5v35 q0 41 -4 126t-8.5 178t-8.5 179t-4 127q0 31 1 48.5t1 35.5v18q0 20 11 21q20 -4 20 -20.5t2 -28.5v-125q0 -20 3 -87t7 -142.5t7.5 -143t3.5 -88.5v-16q0 -70 2 -137.5t2 -133.5q0 -78 -6 -157q-4 -29 -9.5 -55.5t-11.5 -49.5q-8 -25 -20.5 -51.5t-30 -48t-41 -34.5 t-51.5 -13q-66 0 -103 29.5t-59 84.5q-29 78 -40 170.5t-11 178.5q0 41 2 85t2 91v78q0 74 -2 152.5t-11 139.5q0 4 -1 6.5t-1 6.5z" />
<glyph unicode="&#xe1c;" horiz-adv-x="536" d="M61 432q0 49 1 98.5t1 96.5v45t-2 45v22q0 27 1 56.5t4 60.5v37q0 29 2 55t12 49q14 8 40.5 17.5t49.5 9.5h14q10 0 17.5 -3t9.5 -15q0 -10 -12.5 -14.5t-28.5 -7.5t-31.5 -6t-23.5 -11q-10 -10 -13.5 -28.5t-3.5 -39.5q0 -14 1 -27.5t1 -25.5q0 -23 -1 -43.5t-1 -40.5 q2 -98 3 -203.5t1 -222.5q0 -23 4.5 -73t13.5 -102t26.5 -92t43.5 -40q41 0 49.5 29.5t8.5 93.5q0 20 -1 40.5t-1 36.5q0 33 -5 64t-8 57q10 2 15.5 3t9.5 1q8 0 16 -8q2 -43 8.5 -95t12.5 -93q2 -18 6 -41t10 -44.5t17.5 -35.5t29.5 -14q27 2 39.5 16t18.5 37q6 27 10 59.5 t4 71.5q0 37 -1 76t-1 75v35q2 66 7 125.5t5 114.5v143q0 35 -3 73t-3 73q0 23 2 46t6 44q2 12 19 12q14 0 14 -16q0 -14 -2 -50t-2 -51q2 -76 2 -136v-107q0 -82 -1 -132.5t-2 -81t-3 -47t-2 -28.5v-84v-111.5t-7 -100.5t-23.5 -73t-51.5 -29q-37 0 -64.5 30t-42.5 79 q-16 -47 -28 -72.5t-45 -25.5q-45 0 -72 37.5t-40 89t-18 100.5t-7 74v8q-2 33 -3.5 66.5t-1.5 68.5z" />
<glyph unicode="&#xe1d;" horiz-adv-x="544" d="M61 432q0 49 1 98.5t1 96.5v45t-2 45v22q0 27 1 56.5t4 60.5v37q0 29 2 55t12 49q14 8 40.5 17.5t49.5 9.5h14q10 0 17.5 -3t9.5 -15q0 -10 -12.5 -14.5t-28.5 -7.5t-31.5 -6t-23.5 -11q-10 -10 -13.5 -28.5t-3.5 -39.5q0 -14 1 -27.5t1 -25.5q0 -23 -1 -43.5t-1 -40.5 q2 -98 3 -203.5t1 -222.5q0 -23 4.5 -73t13.5 -102t26.5 -92t43.5 -40q41 0 49.5 29.5t8.5 93.5q0 20 -1 40.5t-1 36.5q0 33 -5 64t-8 57q10 2 15.5 3t9.5 1q8 0 16 -8q2 -43 8.5 -95t12.5 -93q2 -18 6 -41t10 -44.5t17.5 -35.5t29.5 -14q27 2 39.5 16t18.5 37q6 27 10 59.5 t4 71.5q0 37 -1 76t-1 75v35q2 66 7 125.5t5 114.5v143v81t1 135.5t1 135v80.5q0 23 2 46.5t7 43.5q2 12 18 13q14 0 14 -17q0 -14 -2 -50t-2 -50v-43q0 -51 -1 -125t-2 -147.5t-2 -134t-1 -80.5q0 -82 -1 -132.5t-2 -81t-3 -47t-2 -28.5v-84v-111.5t-7 -100.5t-23.5 -73 t-51.5 -29q-37 0 -64.5 30t-42.5 79q-16 -47 -28 -72.5t-45 -25.5q-45 0 -72 37.5t-40 89t-18 100.5t-7 74v8q-2 33 -3.5 66.5t-1.5 68.5z" />
<glyph unicode="&#xe1e;" horiz-adv-x="559" d="M61 629v57q0 94 1 150.5t2.5 86t2.5 42t1 20.5l-4.5 13.5t-2.5 13.5q0 4 7.5 6t11.5 6q2 2 6 2q14 0 16 -21.5t2 -39.5q0 -45 -3 -80t-3 -78v-37q-2 -31 -3 -60.5t-1 -56.5v-22q0 -10 2 -53t4 -93.5t3 -93.5t1 -55q0 -23 3.5 -73t12.5 -102t25.5 -92t42.5 -40 q49 0 60.5 37.5t11.5 85.5q0 10 1 66t1 123t1 123t1 64q0 33 -5 64t-7 57l15 3t9 1q8 0 17 -8q0 -14 1 -52t2 -88t2 -105.5t2 -104.5t3 -87t4 -50q2 -18 6 -41t10.5 -44.5t17.5 -35.5t30 -14q55 4 69 53q12 51 13 131q0 37 -1 76t-1 75v35q2 66 7 125.5t5 114.5v143 q0 35 -3 73t-3 73q0 23 2 46t6 44q2 12 18 12q14 0 15 -16q0 -14 -2 -50t-2 -51q2 -76 2 -136v-107q0 -82 -1 -132.5t-2 -81t-3.5 -47t-2.5 -28.5v-103q0 -53 -2 -105t-11 -94t-27.5 -69t-51.5 -27q-37 0 -64.5 30t-41.5 79q-14 -45 -33.5 -71.5t-54.5 -26.5q-43 0 -69 35.5 t-40 83t-18 96.5t-6 78v16q-2 33 -3.5 66.5t-1.5 68.5v58.5t-1 69.5t-1 69z" />
<glyph unicode="&#xe1f;" horiz-adv-x="563" d="M61 629v57q0 94 1 150.5t2.5 86t2.5 42t1 20.5l-4.5 13.5t-2.5 13.5q0 4 7.5 6t11.5 6q2 2 6 2q14 0 16 -21.5t2 -39.5q0 -45 -3 -80t-3 -78v-37q-2 -31 -3 -60.5t-1 -56.5v-22q0 -10 2 -53t4 -93.5t3 -93.5t1 -55q0 -23 3.5 -73t12.5 -102t25.5 -92t42.5 -40 q49 0 60.5 37.5t11.5 85.5q0 10 1 66t1 123t1 123t1 64q0 33 -5 64t-7 57l15 3t9 1q8 0 17 -8q0 -14 1 -52t2 -88t2 -105.5t2 -104.5t3 -87t4 -50q2 -18 6 -41t10.5 -44.5t17.5 -35.5t30 -14q55 4 69 53q12 51 13 131q0 37 -1 76t-1 75v35q2 66 7 125.5t5 114.5v143v81 t-1 135.5t-1 135v80.5q0 23 2 46.5t6 43.5q2 12 18 13q14 0 15 -17q0 -14 -2 -50t-2 -50v-88v-124t-1 -133.5t-1 -115.5v-69q0 -82 -1 -132.5t-2 -81t-3.5 -47t-2.5 -28.5v-103q0 -53 -2 -105t-11 -94t-27.5 -69t-51.5 -27q-37 0 -64.5 30t-41.5 79q-14 -45 -33.5 -71.5 t-54.5 -26.5q-43 0 -69 35.5t-40 83t-18 96.5t-6 78v16q-2 33 -3.5 66.5t-1.5 68.5v58.5t-1 69.5t-1 69z" />
<glyph unicode="&#xe20;" horiz-adv-x="540" d="M61 39q2 18 17 18q12 0 26.5 -11t22.5 -15q16 16 24.5 29t8.5 42q0 88 1 164t2 148.5t4 148.5t9 166q-12 0 -25.5 -2t-17.5 -2q-8 6 -12 12l-10 15q4 39 20 75q12 37 24.5 75t34 66.5t54 47t84.5 18.5q45 0 81.5 -24.5t41.5 -67.5q6 -45 11 -113.5t5 -154.5 q0 -92 -1 -193.5t-1 -193.5q0 -106 2 -184t12 -105h-12q-18 0 -31 6q-6 322 -6 517.5t-6 303t-23.5 143.5t-56.5 36q-43 0 -78 -20.5t-55 -51.5q-20 -35 -36.5 -80t-27.5 -88q18 0 30.5 -5t27.5 -9q4 -12 5 -26.5t1 -31.5q0 -55 -6 -100q-4 -74 -6 -118t-2 -80t-1 -78 t-6 -113v-15q0 -16 1.5 -30.5t1.5 -30.5v-43t-5 -41q-6 -18 -28.5 -32.5t-44.5 -16.5q-16 0 -35 17.5t-19 27.5z" />
<glyph unicode="&#xe21;" horiz-adv-x="483" d="M61 0v23.5t5 23.5q4 20 4 39.5v40.5v80v30.5t2 30.5q0 6 1 11.5t1 11.5t1 11t1 11q0 4 1 9.5t1 9.5q2 12 2 24.5v24.5q0 16 1 31.5t1 29.5q0 57 -3 113.5t-3 140.5q0 94 1 150.5t2 86.5t2 42t1 20q-2 6 -4 13.5t-2 13.5q0 4 7 6t11 6q2 2 6 2q14 0 16.5 -21.5t2.5 -39.5 l-4 -627v-25.5t2 -25.5q2 -27 9 -57.5t15.5 -61.5t18.5 -57.5t20 -44.5q10 -20 41 -33.5t64 -13.5h8q33 6 50 27.5t25.5 50t10.5 62.5t2 64v222v140t-4 222q0 43 -3 78t-3 80q0 18 2 39.5t16 21.5q4 0 6 -2q4 -4 11.5 -8t7.5 -8v-23q0 -8 1 -20t2 -42t2 -86t1 -151v-40.5 t1 -58.5t1 -93.5v-147.5v-127q0 -45 -7 -88t-23.5 -76.5t-43 -54t-67.5 -20.5q-8 0 -25 4q-8 2 -22.5 7t-27.5 12t-25.5 14.5t-16.5 13.5q-29 39 -43.5 96.5t-28.5 104.5q0 -18 6 -67.5t6 -96.5q0 -35 -6 -59.5t-24 -24.5q-4 0 -8.5 1t-4.5 5z" />
<glyph unicode="&#xe22;" horiz-adv-x="514" d="M61 705q0 33 5.5 78.5t16.5 91t28.5 84t44.5 61.5q16 14 45 14q18 0 32.5 -9t14.5 -32q0 -12 -6 -18q-10 0 -24.5 5t-24.5 5q-29 0 -47.5 -36t-29 -84t-15.5 -94t-5 -66q0 -47 20.5 -98.5t61.5 -69.5q16 -8 32.5 -6.5t37.5 -6.5q2 -6 4 -13t2 -15t-2 -13 q-27 -8 -50.5 -20t-35.5 -33q-18 -29 -32.5 -64.5t-18.5 -89.5q2 -43 11 -86t27.5 -76.5t48 -54t74.5 -20.5q43 0 67 25.5t35 60.5t14 74t3 65q0 244 3 385.5t7.5 217t7.5 105t3 52.5l22 10q14 -4 15 -20v-27q-10 -129 -14.5 -249t-4.5 -242v-215q0 -57 -8 -116t-39 -108 q-18 -29 -38.5 -48t-67.5 -19h-13q-51 8 -87 35.5t-58.5 67.5t-32.5 87t-10 94q0 84 23.5 130.5t60.5 91.5q-39 33 -71 82t-32 127z" />
<glyph unicode="&#xe23;" horiz-adv-x="448" d="M55 121q4 2 7.5 4t7.5 2q10 0 11 -10.5t9 -20.5q37 -37 74 -51t84 -14q33 0 54.5 24.5t34.5 59.5t18 70.5t5 58.5q-2 35 -2 63.5t-5 53t-19.5 45t-42.5 40.5q-39 27 -78 44.5t-69.5 39t-50 56.5t-19.5 96q0 55 6 115.5t26.5 110.5t58.5 84t99 36q31 0 70 -9t47 -46 q2 -4 2 -10t-4 -6.5t-8 -2.5q-10 0 -14.5 1t-14.5 8q-4 8 -18.5 14t-24.5 6h-10h-35q-18 0 -42 -8t-46.5 -39t-37.5 -92.5t-15 -167.5q0 -47 30 -88q16 -23 38 -36t46.5 -25.5t49 -26t47.5 -31.5q23 -23 42 -52.5t23 -70.5q4 -23 6 -50.5t2 -55.5q0 -45 -6 -89.5t-22.5 -80 t-45 -58t-75.5 -22.5q-35 0 -69 7t-61.5 22.5t-45 40t-17.5 61.5z" />
<glyph unicode="&#xe24;" horiz-adv-x="491" d="M61 752q4 39 21 75q12 37 24.5 75t34 66.5t54 47t84.5 18.5q45 0 78.5 -24.5t37.5 -67.5q6 -45 11.5 -113.5t5.5 -154.5q0 -92 2 -193.5t2 -193.5v-89.5t1 -116t2 -124.5t2 -115.5t3 -89.5t6 -45h-12q-18 0 -31 6q-6 322 -6 563.5t-6 403.5t-23.5 243t-56.5 81 q-43 0 -78 -20.5t-55 -51.5q-20 -35 -36.5 -80t-27.5 -88q18 0 30.5 -5t27.5 -9q4 -12 5 -26.5t1 -31.5q0 -55 -6 -100q-4 -74 -7.5 -131.5t-4.5 -110.5t-3 -108t-6 -127q0 -57 33 -88q8 4 22.5 15t26.5 11t16 -18q0 -10 -18 -27.5t-35 -17.5q-10 0 -21.5 10t-21.5 23.5 t-18 26.5t-10 24q-2 4 -2.5 11t-0.5 13v70q0 88 1.5 153.5t3.5 126t6 126t10 155.5q-12 0 -25.5 -2t-17.5 -2q-8 6 -12 12t-11 15z" />
<glyph unicode="&#xe25;" horiz-adv-x="546" d="M61 254q0 57 10.5 122.5t34 123t62.5 95.5t98 38q43 -4 87 -14t75 -39q-4 45 -5 73.5t-1 51.5t1 45t1 55v69q0 43 -8 67t-25.5 35t-43 14t-62.5 3q-57 0 -96 -20.5t-83 -30.5q-4 8 -9 15.5t-5 17.5q12 12 26.5 18t31.5 13q23 10 44 17t52 11q10 2 22.5 2h26.5 q33 0 64.5 -4t52.5 -16q33 -18 45 -55t12 -84q0 -51 -3 -108.5t-3 -119.5l8 -151q0 -18 3 -52t5 -71t4 -69t2 -44q0 -47 -2 -96t-6 -100q0 -10 1 -22.5t1 -23.5q0 -10 -2 -17t-6 -9q-14 0 -22.5 14.5t-12.5 18.5q4 66 6 128t2 124q0 14 -2 51t-4 76.5t-5 76.5t-3 54 q-27 27 -73 42t-93 15q-43 0 -74.5 -36t-52 -87t-31 -108.5t-10.5 -100.5q0 -70 11.5 -116t39.5 -99q14 -12 33 -12q16 0 31.5 6t26.5 12q8 6 9 16.5t9 16.5q29 0 29 -27q0 -10 -4.5 -20t-12.5 -16q-10 -10 -32.5 -18.5t-38.5 -8.5q-10 0 -27.5 7t-24.5 11q-20 16 -35.5 47 t-26.5 65t-16.5 68.5t-5.5 59.5z" />
<glyph unicode="&#xe26;" horiz-adv-x="540" d="M61 39q2 18 17 18q12 0 26.5 -11t22.5 -15q16 16 24.5 29t8.5 42q0 88 1 164t2 148.5t4 148.5t9 166q-12 0 -25.5 -2t-17.5 -2q-8 6 -12 12l-10 15q4 39 20 75q12 37 24.5 75t34 66.5t54 47t84.5 18.5q45 0 78.5 -24.5t37.5 -67.5q6 -45 11.5 -113.5t5.5 -154.5 q0 -92 2 -193.5t2 -193.5v-89.5t1 -116t2 -124.5t2 -115.5t3 -89.5t6 -45h-12q-18 0 -31 6q-6 322 -6 563.5t-6 403.5t-23.5 243t-56.5 81q-43 0 -78 -20.5t-55 -51.5q-20 -35 -36.5 -80t-27.5 -88q18 0 30.5 -5t27.5 -9q4 -12 5 -26.5t1 -31.5q0 -55 -6 -100 q-4 -74 -6 -118t-2 -80t-1 -78t-6 -113v-15q0 -16 1.5 -30.5t1.5 -30.5v-43t-5 -41q-6 -18 -28.5 -32.5t-44.5 -16.5q-16 0 -35 17.5t-19 27.5z" />
<glyph unicode="&#xe27;" horiz-adv-x="481" d="M61 119q0 4 3.5 8t5.5 8q4 4 8 4q10 0 22.5 -14t22.5 -25q16 -16 50 -37.5t77 -21.5q45 0 71.5 26.5t40 70.5t16.5 98.5t3 109.5q0 59 -4 110.5t-8 88.5q0 8 -1 14t-1 12q-6 55 -4 125t-6.5 134.5t-37 109.5t-94.5 51h-16q-33 0 -61.5 -13t-49.5 -30q-10 -6 -12 -6 q-4 0 -7 5t-13 30q4 10 22 20.5t35 16.5q23 8 45 14t55 6q47 0 78 -14l25 -19q33 -25 48 -74.5t21 -109t8.5 -118t6.5 -101.5q2 -20 1 -44t3 -46q2 -10 4 -40t2 -73q0 -51 -1 -111.5t-9.5 -116.5t-26.5 -98t-51 -57q-35 -14 -72 -14q-59 0 -102 26.5t-74 65.5 q-6 6 -14.5 13.5t-8.5 15.5z" />
<glyph unicode="&#xe28;" horiz-adv-x="493" d="M61 23q4 14 4.5 28.5t0.5 30.5q0 86 -2.5 179t-2.5 188q0 121 5.5 228t22.5 187t52 126t95 46q66 0 108 -26q45 16 78 53t67 55q4 2 11 2q12 0 22 -10q2 -2 2 -6q0 -6 -4 -14q-23 -20 -60.5 -56.5t-84.5 -52.5q29 -37 34 -86t7 -96l16 -504q2 -55 3 -93t2 -63.5t1 -43 v-34.5v-53q-2 -10 -7 -13t-9 -3q-23 2 -27 10t-4 31v63q0 41 2 113t2 162q0 66 -2 122t-6 82q-4 74 -4 118v73v59q0 25 -1 47.5t-5 40.5q-10 39 -51 61.5t-76 22.5q-25 0 -43 -8q-31 -10 -46.5 -34.5t-25.5 -61.5q-23 -92 -30 -203.5t-13 -208.5q8 8 23.5 28.5t36 42t43 39 t45.5 17.5q10 0 19 -6t9 -16t-11 -14.5t-19 -8.5q-10 -4 -34 -21.5t-46.5 -39t-40 -42t-17.5 -30.5v-233q0 -41 2 -73t4 -54q0 -10 1.5 -17.5t1.5 -15.5q0 -27 -9 -45q-14 4 -21 12t-18 19z" />
<glyph unicode="&#xe29;" horiz-adv-x="602" d="M61 1012q1 6 9 12q18 -8 23 -13t7 -22v-45q6 -51 7.5 -99t1.5 -95q0 -12 -1.5 -25.5t-3.5 -30.5v-84q0 -86 1 -143t2.5 -97t4.5 -67t9 -51q0 -4 1 -5t1 -5q16 -96 45 -158q12 -25 45 -41t68 -16q51 0 79.5 45t43 109.5t16.5 134t2 118.5v49q-29 2 -59.5 7.5t-40.5 25.5 q-10 16 -18.5 37.5t-8.5 42.5q0 18 4 34.5t10 20.5q2 0 3 1t3 1q12 0 13 -24q0 -10 -1 -22.5t-1 -22.5v-9q6 -51 59 -51h15.5t21.5 2q-2 12 -2 23.5v19.5v19q0 82 -7 155.5t-7 157.5q0 31 1 48.5t1 35.5v19q0 20 10 20q20 -4 20 -20.5t2 -28.5v-125q0 -41 5.5 -82t5.5 -82 v-16v-69t2 -69q16 4 31.5 17.5t29.5 13.5q6 0 10 -2q10 -6 10.5 -10t6.5 -16q-16 -16 -41 -24.5t-47 -18.5q2 -23 2 -46.5v-46.5q0 -78 -6 -157q-4 -29 -9.5 -55.5t-11.5 -49.5q-8 -25 -20.5 -51.5t-30 -48t-41 -34.5t-51.5 -13q-66 0 -103 29.5t-59 84.5q-29 78 -40 170.5 t-11 178.5q0 41 2 85t2 91v78q0 74 -2 152.5t-11 139.5q0 4 -1 6.5t-1 6.5z" />
<glyph unicode="&#xe2a;" horiz-adv-x="538" d="M61 260q0 57 12.5 123t38 121t66.5 92t101 37q43 -4 87 -14.5t74 -38.5q-4 55 -6 87.5t-4 61.5t-3 62.5t-3 89.5q-2 43 -10 66.5t-24.5 34.5t-42 14t-62.5 3q-57 0 -96 -20.5t-83 -30.5q-4 8 -9 15.5t-5 17.5q12 12 26.5 18.5t31.5 12.5q23 10 44 17t52 11q10 2 22.5 2 h26.5q29 0 58.5 -3t52.5 -13q35 20 63.5 51t58.5 47q4 2 11 2q12 0 22 -10q2 -2 2 -6q0 -6 -4 -14q-20 -16 -50 -47t-71 -52q16 -20 23.5 -49.5t7.5 -64.5q0 -51 -3 -108.5t-3 -119.5l8 -151q0 -18 3 -52t5 -71t4 -68.5t2 -44.5q0 -47 -2 -96t-6 -100q0 -10 1 -22.5t1 -22.5 t-2 -17.5t-6 -9.5q-14 0 -22.5 14.5t-12.5 18.5q4 66 6 128t2 124v50v75t-1 74.5t-1 52.5q-27 27 -72.5 42t-93.5 15q-43 0 -76.5 -35t-57 -85t-35 -106.5t-11.5 -99.5q0 -70 11.5 -116t39.5 -99q14 -12 33 -12q16 0 31.5 6t26.5 12q8 6 9 16.5t9 16.5q29 0 29 -26 q0 -10 -4.5 -20.5t-12.5 -16.5q-10 -10 -32.5 -18.5t-38.5 -8.5q-10 0 -27.5 7t-24.5 11q-20 16 -35.5 47t-26.5 65t-16.5 69t-5.5 59z" />
<glyph unicode="&#xe2b;" horiz-adv-x="487" d="M61 61q0 16 2.5 29.5t2.5 30.5v59q0 111 5 223.5t21 214.5q-10 4 -16 6.5t-6 10.5t2 12q8 10 22 10v33q0 37 -1 73t-1 71v32q0 41 2 86t2 84q25 0 29 -8q2 -4 2 -16q0 -10 -1 -21.5t-1 -19.5q0 -23 -2 -47.5t-2 -49.5v-16q0 -53 2 -99t6 -97q47 12 86 39.5t59 66.5 q35 57 55.5 123.5t37.5 138.5l8 2q12 0 18 -12q0 -66 -25.5 -138.5t-60.5 -129.5q47 -59 75 -137t36 -171q6 -86 7 -164.5t9 -170.5v-26.5t2 -27.5v-28q0 -18 -4 -27q-23 0 -31 10l-2 8q-8 94 -7 196.5t-3 203.5q-2 49 -10 87t-21.5 71.5t-31 66.5t-35.5 70 q-35 -35 -71 -59.5t-91 -35.5q-4 -41 -9 -81.5t-9 -81.5t-4.5 -82t-2.5 -82q-2 -43 -3 -79t-1 -73v-104q0 -4 1 -9.5t1 -9.5q0 -8 -6 -14q-23 2 -29 18.5t-6 40.5z" />
<glyph unicode="&#xe2c;" horiz-adv-x="563" d="M61 629v57q0 94 1 150.5t2.5 86t2.5 42t1 20.5l-4.5 13.5t-2.5 13.5q0 4 7.5 6t11.5 6q2 2 6 2q14 0 16 -21.5t2 -39.5q0 -45 -3 -80t-3 -78v-37q-2 -31 -3 -60.5t-1 -56.5v-22q0 -10 2 -53t4 -93.5t3 -93.5t1 -55q0 -23 3.5 -73t12.5 -102t25.5 -92t42.5 -40 q49 0 60.5 37.5t11.5 85.5q0 10 1 66t1 123t1 123t1 64q0 33 -5 64t-7 57l15 3t9 1q8 0 17 -8q0 -14 1 -52t2 -88t2 -105.5t2 -104.5t3 -87t4 -50q2 -18 6 -41t10.5 -44.5t17.5 -35.5t30 -14q55 4 69 53q12 51 13 131q0 37 -1 76t-1 75v35q2 63 7 104.5t5 96.5q0 20 -1 41.5 t-3 42.5q-2 18 -3 39.5t-5.5 41t-12.5 35t-22 21.5q-8 4 -13.5 5t-11.5 1h-16q-14 0 -25 2q-4 10 -4 12.5t-4 12.5q18 31 46 65.5t46 69.5q12 25 21.5 64.5t9.5 80.5q0 8 -1 15.5t-1 13.5q-2 14 -7 28.5t-5 31.5q0 4 -2.5 8t-2.5 8q0 8 11 8q10 0 18 -3t12 -11l2 -15 q4 -27 7.5 -56.5t5.5 -57.5v-13q0 -35 -12.5 -67.5t-30 -63t-39 -56.5t-39.5 -42h12q35 0 55.5 -22.5t30.5 -56.5t13.5 -74.5t3.5 -75.5q0 -82 -1 -127t-2 -68.5t-3.5 -34t-2.5 -22.5v-103q0 -53 -2 -105t-11 -94t-27.5 -69t-51.5 -27q-37 0 -64.5 30t-41.5 79 q-14 -45 -33.5 -71.5t-54.5 -26.5q-43 0 -69 35.5t-40 83t-18 96.5t-6 78v16q-2 33 -3.5 66.5t-1.5 68.5v58.5t-1 69.5t-1 69z" />
<glyph unicode="&#xe2d;" horiz-adv-x="485" d="M51 283q0 35 2 76.5t6 76.5q2 20 3 32.5t3.5 22t5.5 19.5t11 29q10 23 25.5 50t31.5 34q12 6 23 6q33 0 33 -33q0 -10 -2 -14q-10 -4 -22.5 -4t-23.5 -7q-16 -10 -30.5 -40.5t-20.5 -53.5q-10 -41 -12 -106.5t-2 -122.5q0 -31 11 -69t29.5 -69.5t44.5 -53t56 -21.5 q61 0 94 41t49.5 99t19.5 122.5t3 112.5v16q0 29 1 49.5t2 40t2 38.5t1 48q0 59 -5 129t-23.5 129.5t-54.5 99t-99 39.5q-29 0 -57.5 -15t-53.5 -32q-6 -4 -13 -12t-17 -8q-2 0 -3 1t-3 1q-4 4 -6.5 11t-2.5 13q0 10 2 15q4 10 28 24.5t34 18.5q23 10 48.5 14t49.5 4 q6 0 12.5 -1t12.5 -1q55 0 91 -34.5t57.5 -93t30.5 -134.5t9 -158v-61q0 -96 -4 -196.5t-22.5 -182.5t-58.5 -133t-109 -51h-16.5t-18.5 2q-35 4 -62.5 32.5t-42.5 59.5q-25 41 -36 91t-11 110z" />
<glyph unicode="&#xe2e;" horiz-adv-x="468" d="M51 285q0 35 2 76.5t6 76.5q2 20 3 32.5t3.5 22t5.5 19.5t11 29q10 23 25.5 50t31.5 34q12 6 23 6q33 0 33 -33q0 -10 -2 -14q-10 -4 -22.5 -4t-23.5 -7q-16 -10 -30.5 -40.5t-20.5 -53.5q-10 -41 -12 -106.5t-2 -122.5q0 -31 11 -69t29.5 -69.5t44.5 -53t56 -21.5 q61 0 94 41t49.5 99.5t19.5 123t3 111.5v16q0 29 1 49.5t2 40t2 38.5t1 48q0 59 -5 129t-23.5 129.5t-54.5 99t-99 39.5q-29 0 -57.5 -15t-53.5 -32q-6 -4 -13 -12t-17 -8q-2 0 -3 1t-3 1q-4 4 -6.5 11t-2.5 14q0 10 2 14q4 10 28 24.5t34 18.5q23 10 48.5 14t49.5 4 q6 0 12.5 -1t12.5 -1q14 0 35 -4q35 20 62.5 50t55.5 46q4 2 11 2q12 0 22 -10q2 -2 2 -6q0 -6 -4 -14l-41.5 -41.5t-60.5 -48.5q61 -47 83.5 -156t22.5 -238v-61q0 -96 -4 -196.5t-22.5 -182.5t-58.5 -133t-109 -51h-16.5t-18.5 2q-35 4 -62.5 32.5t-42.5 59.5 q-25 41 -36 91t-11 110z" />
<glyph unicode="&#xe2f;" horiz-adv-x="454" d="M20 958q14 10 25 11q4 0 8 -13.5t11.5 -31t17.5 -36t24 -30.5q12 -10 31 -15t39 -5q37 0 75 14t54 39q10 12 17.5 28.5t15.5 32.5t10 36t10 38q16 -2 20.5 -14.5t10.5 -24.5q-12 -59 -12 -117q2 -178 3 -278t1 -152.5t1 -70t1 -27.5q0 -27 1 -53.5t3 -52.5q4 -106 3 -218 t3 -223q-23 2 -30 16.5t-7 34.5q0 14 1 27.5t1 28.5q0 111 -2 223.5t-6 218.5q-2 25 -2 49.5v50.5q0 72 2 145t2 144v79t-2 77q-23 -53 -61.5 -71.5t-98.5 -18.5q-59 0 -87.5 18.5t-45.5 48.5q-10 18 -18 40t-16 38q-3 4 -3 14z" />
<glyph unicode="&#xe30;" horiz-adv-x="462" d="M61 784q1 49 19 78q25 -8 24 -28q0 -14 -6 -32t-6 -34q0 -10 2 -14q10 -37 45 -43t68 -6q31 0 47 2t30.5 3t31 3t44.5 2q23 0 33 -10q6 -8 5 -14.5t3 -16.5q-35 -4 -53 -7t-34.5 -5.5t-38 -2.5h-58.5q-88 0 -131 43q-12 10 -18.5 34t-6.5 48zM68 344q0 27 8 47.5t24 22.5 q23 0 27 -23q0 -16 -12.5 -24.5t-16.5 -30.5q4 -47 32 -76t73 -29q39 0 65.5 3.5t45 7.5t29.5 7t24 3q16 0 25 -7t9 -30q-25 -16 -61.5 -21.5t-71.5 -5.5q-18 0 -34.5 1t-30.5 4q-70 10 -99.5 43.5t-35.5 107.5z" />
<glyph unicode="&#xe31;" d="M-313 1231q0 16 6 32.5t16 26.5q10 0 16.5 -5t10.5 -11q2 -2 -4 -17.5t-6 -25.5q0 -35 19 -48.5t50 -13.5h8q37 4 78 14.5t76 20.5q23 6 42 15.5t42 17.5q2 0 3 1t3 1q23 8 38 13t24 5q10 0 10 -14q0 -4 -1 -12t-3 -19q-8 -8 -19.5 -10t-21.5 -6q-72 -23 -141.5 -46.5 t-135.5 -23.5q-49 0 -74.5 17.5t-33.5 62.5q-2 8 -2 25z" />
<glyph unicode="&#xe32;" horiz-adv-x="403" d="M20 844q16 47 29.5 80.5t38.5 58.5q18 23 45 34t51 11q37 0 72 -17.5t51 -39.5q16 -18 25.5 -51t9.5 -70v-16q-8 -127 -14 -263.5t-6 -271.5v-92q0 -53 1 -85t1 -49.5t1 -25.5t1 -14v-15q0 -8 -2.5 -16t-12.5 -12q-20 8 -24 22.5t-4 42.5v375v20.5t2 20.5q8 86 12 164 t8 162q0 25 1 46t1 44q0 41 -33.5 71.5t-74.5 30.5q-57 0 -87 -32.5t-44 -92.5q-2 -8 -5.5 -16t-3.5 -19q-10 -12 -20 -12q-2 0 -9 5t-10 22z" />
<glyph unicode="&#xe33;" horiz-adv-x="403" d="M-244 1192q0 45 18.5 78t63.5 33q100 0 101 -101q0 -43 -21.5 -70.5t-62.5 -27.5q-47 0 -73 20.5t-26 67.5zM-217 1194q0 -16 15.5 -40t41.5 -24q20 0 37 7q16 6 24.5 33.5t8.5 50.5q0 33 -24.5 42t-41.5 9q-43 0 -52 -27.5t-9 -50.5zM20 844q16 47 29.5 80.5t38.5 58.5 q18 23 45 34t51 11q37 0 72 -17.5t51 -39.5q16 -18 25.5 -51t9.5 -70v-16q-8 -127 -11 -263.5t-3 -271.5v-92q0 -53 1 -85t1 -49.5t1 -25.5t1 -14v-15q0 -8 -2.5 -16t-12.5 -12q-20 8 -24 22.5t-4 42.5v375v20.5t2 20.5q8 86 9 164t5 162q0 25 1 46t1 44q0 41 -33.5 71.5 t-74.5 30.5q-57 0 -87 -32.5t-44 -92.5q-2 -8 -5.5 -16t-3.5 -19q-10 -12 -20 -12q-2 0 -9 5t-10 22z" />
<glyph unicode="&#xe34;" d="M-473 1149v10q0 6 7 11.5t30 5.5q33 -8 61.5 -6.5t71.5 -2.5h141q27 0 51.5 -2t49.5 -6q0 -18 -5.5 -24.5t-15.5 -6.5q-8 0 -26.5 -1t-28.5 -1h-305q-27 0 -31 23z" />
<glyph unicode="&#xe35;" d="M-473 1149v10q0 6 7 11.5t30 5.5q33 -8 81 -6.5t91 -2.5h94q16 0 32 -1t36 -3q0 23 -2 40.5t-2 29.5q0 16 4 22q4 8 12 11.5t18 3.5t11 -8q0 -16 -2.5 -36t-4.5 -40q0 -41 -5 -50.5t-31 -9.5h-338q-27 0 -31 23z" />
<glyph unicode="&#xe36;" d="M-485 1151v10q0 6 7 11.5t29 5.5q33 -8 62 -6t72 -3h88q-6 10 -9.5 16.5t-3.5 22.5q0 45 18.5 74t63.5 29q53 0 77 -19.5t24 -70.5q0 -41 -16.5 -59.5t-41 -26t-54.5 -6.5t-56 -1h-230q-27 0 -30 23zM-207 1210q0 -16 14.5 -31.5t38.5 -15.5q23 0 35 6q16 6 23.5 25.5 t7.5 40.5q0 31 -22.5 36t-39.5 5q-41 0 -49 -22.5t-8 -43.5z" />
<glyph unicode="&#xe37;" d="M-473 1149v10q0 6 7 11.5t30 5.5q33 -8 81 -6.5t91 -2.5l45 -4v51q0 16 2 27l2 14q4 8 12 11.5t19 3.5q10 0 10 -8q0 -25 -2 -50.5t-6 -52.5l80 4q0 16 -2 32.5t-2 37.5q0 14 2 22q4 8 12 11.5t18 3.5t11 -8q0 -14 -2.5 -31t-2.5 -45q0 -41 -5 -50.5t-31 -9.5h-338 q-27 0 -31 23z" />
<glyph unicode="&#xe38;" d="M-203 -119q12 10 29.5 15.5t36.5 5.5q27 0 51 -6q12 -16 18.5 -26.5t6.5 -33.5v-217q-4 -12 -7.5 -13t-9.5 -3q-16 0 -20 22l8 234q-10 6 -19.5 7t-19.5 1q-14 0 -29.5 -3t-27.5 -5q-17 2 -17 22z" />
<glyph unicode="&#xe39;" d="M-274 -123q0 8 2 14q12 4 15 5.5t15 1.5q20 0 37 -5.5t25 -19.5q4 -16 5 -29.5t1 -33.5q-2 -23 -7 -50.5t-5 -54.5q0 -37 7 -52t46 -15q31 0 32 23.5t5 51.5q2 16 3 31.5t1 32.5q0 25 -3 58.5t-5 53.5q8 10 24 11q12 -2 13 -19v-74q0 -25 1 -48t1 -46q0 -47 -11.5 -77.5 t-54.5 -34.5q-66 4 -77 34.5t-11 81.5v9q0 25 6 49t6 45q0 39 -26 39q-16 0 -22.5 -4.5t-14.5 -4.5q-4 10 -6 13.5t-2 13.5z" />
<glyph unicode="&#xe3a;" d="M-123 -135q0 23 12 33q6 2 15 2q16 0 24.5 -11.5t8.5 -25.5q0 -16 -7.5 -26.5t-23.5 -10.5h-8q-20 6 -21 39z" />
<glyph unicode="&#xe3b;" />
<glyph unicode="&#xe3c;" />
<glyph unicode="&#xe3d;" />
<glyph unicode="&#xe3e;" />
<glyph unicode="&#xe3f;" horiz-adv-x="421" d="M47 512q2 35 3 82t5 88q2 12 2 24.5v24.5v135q2 10 2 19.5v19.5q0 55 -10 101q53 27 125 26l4 70t6 69q12 0 25 -12v-16q0 -45 -6 -101q0 -4 -1 -6t-1 -6q35 -4 64.5 -14t47.5 -33q12 -16 21.5 -44t14.5 -59.5t7 -60t2 -47.5v-10q-2 -23 -6 -50.5t-8 -54.5 q-10 -66 -45 -103.5t-76 -72.5l-14 -12q53 -6 90 -25.5t57 -58.5q10 -37 17.5 -78t7.5 -82q0 -63 -20.5 -117.5t-69.5 -82.5q-14 -8 -31.5 -16.5t-38.5 -14.5q2 -29 2 -55.5v-51.5v-16q-12 -12 -24 -12l-11 127h-14q-47 0 -70.5 19.5t-34 50t-11.5 68.5t-3 75 q-4 78 -3 161.5t-5 151.5zM86 563q0 -104 3 -213.5t11 -199.5q2 -20 3 -43t5.5 -42.5t15 -33t28.5 -13.5h18t18 2q-6 98 -8 205t-6 211q-16 0 -30.5 -2t-30.5 -4q-6 10 -8.5 9t-4.5 14q23 6 39.5 19t32.5 30q-4 51 -5 98t-3 90q4 102 6 160.5t2 112.5v26q-51 0 -82 -8 q2 -6 3 -27.5t1 -50.5q0 -37 -1 -73.5t-1 -53.5q0 -109 -6 -213zM199 596.5q0 -31.5 2 -66.5l8 7l6 4q23 16 40 32.5t34 36.5q18 23 24 54.5t13 68.5q6 37 6 66q0 94 -24.5 139t-106.5 49v-67q0 -66 -1 -131.5t-1 -131.5v-60.5zM205 438q4 -98 8 -202.5t8 -204.5 q27 10 51.5 27t38.5 40q29 57 29 119v30.5t-2 28.5v9q-4 29 -6 57.5t-13 50.5q-6 10 -20 18.5t-31.5 14.5t-35 9t-27.5 3z" />
<glyph unicode="&#xe40;" horiz-adv-x="268" d="M61 555q4 102 6.5 160.5t2.5 111.5t4 106.5t8 102.5q12 0 24 -12v-16q0 -27 -2 -53.5t-6 -55.5v-115q0 -66 -1 -131t-1 -131q0 -92 4 -185t17 -187q2 -18 3 -40t5 -40.5t13 -30.5t30 -12q4 0 7 1t7 1q14 4 24.5 12t20.5 8q6 0 13 -6q8 -6 8 -16t-7.5 -19.5t-17.5 -13.5 q-8 0 -16 -1t-17 -1q-27 0 -45 8q-10 4 -28.5 21.5t-22.5 27.5t-6 22.5t-4 22.5q-16 104 -15 227t-8 234z" />
<glyph unicode="&#xe41;" horiz-adv-x="546" d="M61 555q4 102 6.5 160.5t2.5 111.5t4 106.5t8 102.5q12 0 24 -12v-16q0 -27 -2 -53.5t-6 -55.5v-115q0 -66 -1 -131t-1 -131q0 -92 4 -185t17 -187q2 -18 3 -40t5 -40.5t13 -30.5t30 -12q4 0 7 1t7 1q14 4 24.5 12t20.5 8q6 0 13 -6q8 -6 8 -16t-7.5 -19.5t-17.5 -13.5 q-8 0 -16 -1t-17 -1q-27 0 -45 8q-10 4 -28.5 21.5t-22.5 27.5t-6 22.5t-4 22.5q-16 104 -15 227t-8 234zM340 555q4 102 6 160.5t2 111.5t4 106.5t8 102.5q12 0 25 -12v-16q0 -27 -2 -53.5t-6 -55.5v-115q0 -66 -1 -131t-1 -131q0 -92 4 -185t16 -187q2 -18 3 -40 t5.5 -40.5t13.5 -30.5t29 -12q4 0 7.5 1t7.5 1q14 4 24.5 12t20.5 8q6 0 12 -6q8 -6 8 -16t-7 -19.5t-17 -13.5q-8 0 -16.5 -1t-16.5 -1q-27 0 -45 8q-10 4 -28.5 21.5t-22.5 27.5t-6 22.5t-5 22.5q-16 104 -15 227t-7 234z" />
<glyph unicode="&#xe42;" horiz-adv-x="249" d="M-180 1505q0 41 33.5 65.5t74.5 28.5q74 6 138 7q33 0 63.5 3t58.5 13q10 4 18.5 10t18.5 6q2 0 9.5 -3t11.5 -7t4 -12q0 -12 -17.5 -22.5t-35.5 -14.5q-23 -6 -47.5 -8t-51.5 -2h-110h-23.5t-21.5 -2q-18 -2 -41 -10.5t-33 -18.5q-10 -14 -10 -33q0 -12 4 -24.5 t14 -20.5q14 -10 40 -19t44 -16q41 -12 67.5 -21t42 -25.5t21.5 -47.5t6 -82q0 -14 -1 -26.5t-1 -26.5v-145v-108t-1 -156.5t-1 -156.5v-108q0 -55 -2 -110.5t-2 -112.5q0 -37 2 -75t6 -74q2 -18 3 -40t5.5 -40.5t13.5 -30.5t30 -12q4 0 7 1t7 1q14 4 24.5 12t20.5 8 q6 0 12 -6q8 -6 8 -16t-7 -19.5t-17 -13.5q-8 0 -16.5 -1t-16.5 -1q-27 0 -45 8q-10 4 -28.5 21.5t-22.5 27.5t-6 22.5t-4 22.5q-4 33 -6.5 68t-2.5 71q0 59 2 119t2 119v43.5t-2 40.5q0 33 1 89t2 121.5t2.5 135.5t1.5 130.5v104.5v62q2 20 2 38.5v39.5q0 59 -25 79.5 t-66 30.5l-12 5q-47 12 -82 26.5t-49 38.5q-14 23 -14 49z" />
<glyph unicode="&#xe43;" horiz-adv-x="223" d="M-164 1360v16t2 17q10 47 33 90q33 66 81 94.5t118 28.5q8 0 15 -1t15 -1q35 -4 68 -36t37 -67q2 -4 2 -16q0 -55 -18.5 -112.5t-38.5 -104.5l-5 -8q-12 -33 -24 -103t-21.5 -146.5t-14.5 -146t-5 -100.5q0 -49 1 -107.5t1 -119t1 -122t1 -116.5q0 -37 2 -75t6 -74 q2 -18 3 -40t5 -40.5t13.5 -30.5t29.5 -12q4 0 7.5 1t7.5 1q14 4 24.5 12t20.5 8q6 0 12 -6q8 -6 8 -16t-7 -19.5t-17 -13.5q-8 0 -16.5 -1t-16.5 -1q-27 0 -45 8q-10 4 -28.5 21.5t-22.5 27.5t-6.5 22.5l-4.5 22.5q-4 33 -6 68t-2 71q0 61 -1 132t-2 143t-2 143.5t-3 134.5 q16 115 26.5 191t16.5 126t11 79.5t10.5 52t12.5 45.5t19 59l6 17q10 29 17.5 51.5t11.5 54.5v35q0 12 -10 26.5t-23.5 25t-30 17.5t-30.5 7q-88 0 -139.5 -50t-69.5 -137q-2 -10 -2 -19v-24q4 -14 13 -17t9 -23q-2 -8 -12 -9q-25 0 -34 21.5t-9 44.5z" />
<glyph unicode="&#xe44;" horiz-adv-x="231" d="M-199 1599q0 8 4 13q4 4 11.5 7t9.5 3q10 0 18.5 -6t18.5 -10q29 -10 59.5 -13.5t63.5 -3.5q29 0 59.5 10.5t65.5 10.5h12q41 -4 74.5 -29t33.5 -65q0 -66 -23.5 -99t-51 -55.5t-50 -45t-22.5 -69.5v-139q0 -35 -1 -82t-1 -129v-69.5v-104.5t1 -103.5t1 -64.5 q-2 -20 -2 -40.5v-43.5q0 -29 1 -48.5t1 -37.5t1 -37.5t1 -48.5q0 -37 2 -75t6 -74q2 -18 3 -40t5 -40.5t13.5 -30.5t29.5 -12q4 0 7.5 1t7.5 1q14 4 24.5 12t20.5 8q6 0 12 -6q8 -6 8 -16t-7 -19.5t-17 -13.5q-8 0 -16.5 -1t-16.5 -1q-27 0 -45 8q-10 4 -28.5 21.5 t-22.5 27.5t-6.5 22.5l-4.5 22.5q-4 33 -6 67.5t-2 71.5q0 29 -1 67t-1 78t-1 78t-1 66v82t-1 116.5t-2 117t-1 82.5l8 186q0 14 -1 26.5t-1 26.5q0 35 -1 59.5t-1 41.5q0 43 22.5 69.5t49 51t49.5 55t23 80.5q0 33 -28 46t-59 13q-6 0 -13 -1t-22.5 -4t-43 -7t-74.5 -11 q-27 0 -51.5 2t-46.5 9q-18 4 -36 14t-18 22z" />
<glyph unicode="&#xe45;" horiz-adv-x="444" d="M61 844q16 47 29.5 80.5t38.5 58.5q18 23 45 34t51 11q37 0 72 -17.5t51 -39.5q16 -18 25.5 -51t9.5 -70v-16q-8 -127 -14.5 -263.5t-6.5 -271.5v-567q0 -8 -2 -16.5t-12 -12.5q-20 8 -24.5 22.5t-4.5 43.5v661q4 10 4.5 20.5t2.5 20.5q8 86 9 164t5 162q0 25 1 46t1 44 q0 41 -30.5 71.5t-71.5 30.5q-57 0 -87 -32.5t-44 -92.5q-2 -8 -5.5 -16t-3.5 -19q-10 -12 -20 -12q-2 0 -9.5 5t-9.5 22z" />
<glyph unicode="&#xe46;" horiz-adv-x="561" d="M61 854q0 37 8.5 74t24.5 59q10 12 27.5 22.5t30.5 12.5q39 -4 59 -23.5t43 -42.5q14 6 27.5 19.5t28 27t30.5 23.5t35 10q20 0 53 -14t49 -31q12 -12 17.5 -37.5t5.5 -56.5q0 -20 -2 -39.5t-2 -38.5v-348v-567q0 -8 -2 -16.5t-13 -12.5q-20 8 -24 22.5t-4 43.5v661 q0 14 1 38t1 49.5t1 48t3 36.5q6 51 6 105q0 49 -16.5 78.5t-65.5 29.5q-27 0 -45.5 -14.5t-34.5 -26.5q-12 -10 -25.5 -23.5t-23.5 -13.5q-14 0 -24.5 10.5t-19.5 22.5t-21.5 22.5t-30.5 10.5q-10 0 -23.5 -12.5t-17.5 -18.5q-8 -14 -13.5 -39.5t-7.5 -48.5v-16 q0 -16 2 -32.5t13 -27.5q10 -8 25.5 -9t32.5 -1t34.5 -2t29.5 -12q2 -4 4.5 -10.5t2.5 -12.5q0 -2 -1 -4t-1 -4q-10 -6 -19 -6q-10 0 -31 4q-35 4 -63.5 11t-42.5 30q-20 33 -21 90z" />
<glyph unicode="&#xe47;" d="M-350 1225q0 29 7 56.5t17 49.5q12 23 27.5 38t46.5 17h8q31 0 66 -12t65 -12q12 0 19 2q43 10 76.5 38.5t64.5 53.5q14 -14 14 -31q0 -16 -22.5 -35.5t-53 -36t-60 -27.5t-42.5 -11q-35 0 -62.5 13t-58.5 15h-8q-18 0 -32.5 -13t-23.5 -33.5t-14.5 -42t-5.5 -35.5v-13.5 t5 -15.5q20 -14 49 -14t55.5 10t44.5 20q12 -4 17.5 -14t15.5 -14q12 -4 16 -4q27 0 49.5 26.5t22.5 52.5q0 8 -2 13q2 10 10 16q25 0 25 -22q-6 -49 -33 -91.5t-74 -42.5h-8q-10 2 -21.5 12.5t-19.5 20.5q0 -2 -12.5 -7t-27.5 -10t-30.5 -9.5t-21.5 -4.5q-23 0 -42.5 6.5 t-31.5 22.5q-14 29 -14 68z" />
<glyph unicode="&#xe48;" d="M-104 1411q0 20 1 37.5t1 24.5q0 20 1 35.5t3 31.5q4 0 5 1t5 1q16 0 22 -16q-2 -18 -2 -39v-41v-29q0 -10 1 -16t1 -12l3 -31q0 -14 -4.5 -16.5t-10.5 -2.5q-4 0 -8 1t-8 10q-6 10 -8 26.5t-2 34.5z" />
<glyph unicode="&#xe49;" d="M-276 1473q0 23 16 35t35 12q31 0 62.5 -19.5t39.5 -48.5q2 -8 2 -22q0 -16 -4 -20.5t-8 -20.5q74 2 129 39.5t102 93.5q10 -2 21.5 -7.5t11.5 -19.5q0 -4 -14.5 -18.5t-32.5 -29.5t-34.5 -28.5t-20.5 -15.5q-41 -29 -93.5 -43t-103.5 -21q-16 2 -20.5 6.5t-4.5 10.5 q0 10 3 14q16 18 26 30.5t10 35.5q0 6 -1 11t-3 11q-4 10 -17 17.5t-30 7.5q-16 0 -31 -8q-4 -10 -6 -21.5t-14 -11.5q-2 0 -11 10t-9 21z" />
<glyph unicode="&#xe4a;" d="M-375 1419q0 14 2 23q6 29 23.5 57.5t48.5 28.5q25 0 46.5 -12.5t37.5 -22.5q20 25 61 25q29 0 54.5 -13.5t38.5 -38.5q10 -25 10 -53q0 -8 2 -8q6 0 18.5 21.5t24.5 47t23.5 50t13.5 30.5q16 0 24 -6t15 -16q0 -18 -16.5 -51t-39 -64t-48 -54.5t-44.5 -23.5 q-4 0 -13 4.5t-9 8.5q0 18 5 36.5t5 36.5q0 61 -55 62q-23 0 -38.5 -12.5t-31.5 -22.5q-14 10 -27.5 29.5t-42.5 19.5q-6 0 -18 -4q-16 -8 -25.5 -33.5t-9.5 -42.5q0 -10 10.5 -18t22.5 -15.5t22.5 -15.5t10.5 -16q0 -4 -2.5 -8.5t-12.5 -4.5q-27 0 -56.5 26t-29.5 50z" />
<glyph unicode="&#xe4b;" d="M-188 1452q0 16 18 20.5t35 4.5h31v26q0 20 1 35.5t3 32.5q4 0 5 1t5 1q16 0 22 -17q-2 -18 -2 -25v-28v-26h17q20 0 35.5 -1t31.5 -3q0 -4 1 -5.5t1 -5.5q0 -16 -9 -18t-19 -2h-58l9 -86q0 -14 -4.5 -16.5t-10.5 -2.5q-4 0 -8 1t-8 10q-8 12 -10 22t-2 41v29h-23h-13.5 t-29.5 -2q-14 0 -16 4t-2 10z" />
<glyph unicode="&#xe4c;" d="M-178 1393q0 16 2 24q8 45 33.5 60.5t74.5 15.5h201q27 0 31 -23v-10q0 -6 -7 -11t-30 -5q-16 2 -45 4t-58.5 3t-56 2t-37.5 1q-31 0 -50 -13.5t-19 -47.5q0 -10 6 -25.5t4 -17.5q-4 -6 -10 -11.5t-17 -5.5q-10 10 -16 26.5t-6 33.5z" />
<glyph unicode="&#xe4d;" d="M-244 1192q0 45 18.5 78t63.5 33q100 0 101 -101q0 -43 -21.5 -70.5t-62.5 -27.5q-47 0 -73 20.5t-26 67.5zM-217 1194q0 -16 15.5 -40t41.5 -24q20 0 37 7q16 6 24.5 33.5t8.5 50.5q0 33 -24.5 42t-41.5 9q-43 0 -52 -27.5t-9 -50.5z" />
<glyph unicode="&#xe4e;" />
<glyph unicode="&#xe4f;" horiz-adv-x="585" d="M61 438.5v44.5q0 96 13 195q4 18 7 40.5t9 35.5q16 39 34.5 69.5t42 52t55.5 33t77 11.5q59 0 101 -41t69 -101.5t39 -126t16 -114.5q0 -35 -1 -58.5t-1 -46.5q-2 -53 -8 -95t-18 -85q-16 -53 -44 -87t-81 -46q-23 -6 -44.5 -10.5t-43.5 -4.5q-53 0 -93 28t-68 71t-42 93 t-17 95q-2 25 -2 47.5zM96 467q2 -43 7.5 -99.5t21.5 -105.5t49 -84t88 -35q74 0 118 31t67.5 80t31.5 111.5t8 123.5v28.5t-2 27.5q-2 25 -7 51.5t-9 50.5q-4 29 -7 54.5t-11 48.5q-18 47 -56.5 88t-91.5 41q-72 0 -111.5 -32t-60 -87t-27 -131t-8.5 -162zM168 535 q0 27 7 55t20.5 53t35 41t52.5 21h12q29 0 48 -15.5t32.5 -39t20.5 -50.5t12 -47q2 -12 3 -24.5t1 -26.5q0 -37 -8.5 -73t-28.5 -56q-27 -27 -78 -27q-31 0 -53.5 16.5t-38 41t-24.5 53t-11 55.5q0 4 -1 10t-1 13zM209 504q2 -20 5 -41t11 -37t21.5 -26.5t36.5 -10.5 q20 0 37.5 8.5t27.5 18.5q10 16 16.5 44.5t6.5 61.5q0 45 -9 72q-8 29 -19 48.5t-44 19.5q-23 0 -39 -11q-25 -16 -38 -57t-13 -78v-12z" />
<glyph unicode="&#xe50;" horiz-adv-x="507" d="M61 422q0 57 1 122.5t1 125.5v93t5 64q4 41 18 82t45 66q23 18 49.5 31.5t65.5 17.5h16q31 0 59.5 -5t45.5 -22q27 -16 36 -54t15 -64q6 -23 9 -92.5t6 -149.5t6 -150.5t5 -97.5v-51v-24.5t2 -24.5v-23q0 -63 -15 -121.5t-48 -101.5q-14 -16 -36.5 -31.5t-51.5 -19.5 q-4 0 -20.5 -1t-20.5 -1q-55 0 -92 31.5t-58.5 80t-29.5 101.5t-8 96q-2 16 -3.5 48t-1.5 75zM90 372.5q0 -28.5 2 -46.5q0 -4 1 -8.5t1 -8.5q2 -33 8.5 -71.5t18.5 -75.5t30.5 -68t49.5 -47q27 -14 55 -14q31 0 57.5 15t44.5 40q20 29 35 72t19 82q0 10 1 18t1 19 q0 29 -2 56t-2 56q0 31 -5.5 104.5t-10.5 154.5t-9 151.5t-4 95.5q0 49 -35 64.5t-74 15.5q-119 0 -157 -98q-6 -16 -13.5 -72.5t-7.5 -116.5q0 -39 -1 -82t-1 -81t-1 -65.5t-1 -37.5v-51.5z" />
<glyph unicode="&#xe51;" horiz-adv-x="489" d="M20 877q0 41 24 80.5t58 56.5q20 10 56 10h18q59 -4 120.5 -38t86.5 -79q12 -23 18.5 -51.5t10.5 -62.5q2 -12 3 -37t2 -57.5t2 -70.5t1 -75q0 -63 4 -122.5t4 -115.5q0 -33 -2 -63.5t-10 -58.5q-14 -57 -40 -91t-59.5 -52.5t-74.5 -28t-88 -15.5l-29 -4 q-10 2 -18.5 13.5t-8.5 21.5q0 8 6 14q61 2 112.5 15.5t90.5 43t60.5 78t21.5 119.5v15q-2 39 -2 80.5v86.5q0 88 -1 174.5t-9 149.5q-6 43 -15.5 66.5t-42.5 46.5q-23 14 -61.5 33.5t-81.5 19.5q-23 0 -49 -10q-16 -6 -36.5 -30t-31.5 -46q-6 -18 -6 -37q0 -27 9.5 -51.5 t23.5 -36.5q8 -4 16.5 -4h16.5q20 0 31 2q16 -12 16 -35q-16 -14 -41 -14q-23 0 -43 10q-12 8 -22.5 25.5t-19.5 39t-14.5 44t-5.5 41.5z" />
<glyph unicode="&#xe52;" horiz-adv-x="524" d="M61 365q2 72 3.5 140t2.5 123.5t2 93.5t1 50q4 35 5 77t1 85v151q0 70 3 130.5t13 103.5q10 0 15.5 -7t13.5 -12q-8 -45 -11.5 -93t-3.5 -101t2.5 -107.5t2.5 -107.5q0 -68 -7 -131q0 -12 -1 -48t-2 -83t-2 -99.5t-1 -95.5v-63.5t2 -36.5q4 -55 11.5 -115.5t31.5 -101.5 q16 -29 45 -50.5t70 -21.5q8 0 15.5 1t17.5 3q35 6 58.5 26.5t38.5 47.5t22.5 57.5t11.5 59.5q2 20 3 64t2 100.5t2 118t1 117.5v100v63v59q0 18 -5 40t-13.5 41.5t-20.5 31.5t-26 12q-16 0 -24.5 -7t-12.5 -16.5t-7.5 -17.5t-11.5 -8q-10 0 -12 7t-6 15.5t-12.5 15.5 t-28.5 7q-23 -2 -34 -20.5t-15 -44.5q0 -8 1 -14.5t1 -12.5q0 -14 -10 -17q-2 0 -12.5 3.5t-10.5 21.5v8q0 27 8 58.5t25 48.5q12 10 33 10q23 0 44 -12.5t33 -26.5q14 8 21.5 22.5t25.5 16.5q25 0 43.5 -18.5t30.5 -44t19.5 -52t7.5 -45.5q2 -20 2 -59v-90q0 -61 -1 -131 t-2 -134.5t-2 -115.5t-3 -76q-4 -61 -12.5 -110.5t-49.5 -92.5q-23 -23 -44 -36t-56 -17h-17q-37 0 -67.5 13.5t-48.5 31.5q-51 53 -72.5 138t-26.5 180z" />
<glyph unicode="&#xe53;" horiz-adv-x="585" d="M61 596q0 72 3.5 131t7.5 90q4 29 10 56.5t16 52.5q10 29 26.5 62.5t49.5 37.5q10 0 26.5 -4t22.5 -8q16 -10 29.5 -29.5t23.5 -40.5q12 -23 11.5 -42t7.5 -44q10 35 13 71t30 58q29 23 70 23q29 0 55 -13.5t33 -40.5q10 -39 15 -118.5t8 -174t4 -190.5t1 -170v-258 q-2 -10 -4 -27.5t-10 -17.5q-4 0 -14.5 2t-10.5 8q0 14 1 29.5t1 19.5q0 16 3.5 46t3.5 49v26q0 33 -1 84t-2.5 110.5t-2.5 122t-2 118t-2 96.5t-1 59v16v25.5t-2 32.5v8q0 23 -1 49.5t-7 36.5q-8 14 -23.5 19.5t-33.5 5.5q-39 0 -64 -25q-23 -23 -28 -73t-5 -95v-14 q0 -8 2.5 -16.5t2.5 -16.5q0 -14 -13 -23q-20 12 -21 42t-7 61q-8 35 -9.5 63.5t-17.5 55.5l-4 6q-10 16 -23.5 33.5t-35.5 17.5q-4 0 -6.5 -1t-6.5 -1q-8 -2 -20.5 -13.5t-16.5 -19.5q-16 -25 -24 -59.5t-15 -69.5q-2 -10 -3 -41t-1 -74v-93v-97v-201q0 -74 10.5 -139.5 t36.5 -112.5q14 -4 23.5 -8t22.5 -4q10 0 16 2q14 2 22.5 12.5t18.5 10.5q23 -6 22 -29q-4 -20 -25.5 -29.5t-43.5 -9.5q-14 0 -21 2q-41 10 -61.5 39t-32.5 70q-10 33 -15 87t-7.5 119.5t-3.5 137t-1 139.5z" />
<glyph unicode="&#xe54;" horiz-adv-x="600" d="M61 211v16q4 90 4.5 164t0.5 139q0 39 1 56.5t1 29t1 23.5t1 41q0 70 5 117t15 76.5t24.5 47t32.5 31.5q55 25 98.5 39.5t94.5 30.5q18 6 42 32.5t46.5 59.5t38.5 64.5t20 48.5q4 10 7.5 19.5t13.5 19.5q8 0 16 -9.5t11 -13.5q-8 -33 -28 -71.5t-36 -67.5 q-23 -41 -49 -70q-41 -41 -96.5 -57t-118.5 -37q-41 -12 -59.5 -36.5t-25.5 -52.5t-8 -53.5t-8 -39.5q-2 -10 -4 -51t-3 -96.5t-2 -114t-1 -101.5v-35q0 -41 -1 -65.5t-2 -38.5t-1 -21.5v-13.5v-16t2 -19q6 -59 47 -100t95 -41q12 0 18 2q16 2 31.5 30.5t27.5 63.5 q4 10 14.5 36t18.5 34q-2 6 -10 22.5t-15.5 33t-9.5 45t-2 38.5v8q0 41 12.5 86t40.5 64q20 14 44 14q14 0 26 -2t12 -16q0 -4 -1 -13.5t-5 -13.5q-4 0 -7 1t-7 1q-23 0 -36 -10t-21 -23q-10 -16 -16.5 -40.5t-6.5 -49.5q0 -6 2 -23.5t4 -35.5t5 -33.5t5 -19.5 q10 -20 28 -52t39.5 -63t46 -53.5t46.5 -22.5q16 0 27.5 -13t11.5 -32q0 -6 -2 -8q-4 -2 -14 -2q-31 0 -58.5 18.5t-51 43t-43 51t-34.5 43.5q-10 -10 -17 -34t-14.5 -47.5t-18.5 -44t-27 -24.5q-10 -4 -31 -4q-88 0 -137.5 62.5t-49.5 148.5z" />
<glyph unicode="&#xe55;" horiz-adv-x="600" d="M61 211v16q4 90 4.5 164t0.5 139q0 39 1 57.5t1 31t1 24.5t1 41q0 70 5 117t15 76.5t24.5 47t32.5 31.5q23 10 33 17.5t31 13.5q-33 21 -33 74q0 27 7.5 56.5t21.5 39.5q20 14 49 14q10 0 21.5 -2t19.5 -4q4 0 20.5 -6t20.5 -10q12 -8 17 -31.5t5 -46.5q0 -10 -1 -18.5 t-3 -18.5q18 14 40 41t40.5 56.5t32.5 56t18 43.5q4 10 7.5 19.5t13.5 19.5q8 0 16 -9.5t11 -13.5q-8 -33 -28 -71.5t-36 -67.5q-23 -41 -49 -70q-41 -41 -105.5 -57t-128.5 -37q-41 -12 -56 -36.5t-19 -52.5t-2 -53.5t-5 -39.5q-2 -10 -4 -52t-3 -97.5t-2 -115t-1 -102.5 v-35q0 -41 -1 -65.5t-2 -38.5t-1 -21.5v-13.5v-16t2 -19q6 -59 47 -100t95 -41q12 0 18 2q16 2 31.5 30.5t27.5 63.5q4 10 14.5 36t18.5 34q-2 6 -10 22.5t-15.5 33t-9.5 45t-2 38.5v8q0 41 12.5 86t40.5 64q20 14 44 14q14 0 26 -2t12 -16q0 -4 -1 -13.5t-5 -13.5 q-4 0 -7 1t-7 1q-23 0 -36 -10t-21 -23q-10 -16 -16.5 -40.5t-6.5 -49.5q0 -6 2 -23.5t4 -35.5t5 -33.5t5 -19.5q10 -20 28 -52t39.5 -63t46 -53.5t46.5 -22.5q16 0 27.5 -13t11.5 -32q0 -6 -2 -8q-4 -2 -14 -2q-31 0 -58.5 18.5t-51 43t-43 51t-34.5 43.5q-10 -10 -17 -34 t-14.5 -47.5t-18.5 -44t-27 -24.5q-10 -4 -31 -4q-88 0 -137.5 62.5t-49.5 148.5zM213 1059q0 -16 10 -28.5t37 -12.5q20 0 37 6q16 6 23.5 24.5t7.5 41.5q-2 23 -23.5 29.5t-38.5 6.5q-14 0 -26 -6q-10 -10 -18.5 -27.5t-8.5 -33.5z" />
<glyph unicode="&#xe56;" horiz-adv-x="557" d="M20 1260q1 8 11 8q12 0 19 -11.5t12.5 -27t9.5 -32.5t8 -30q6 -20 9 -30.5t6 -19.5t4 -20.5t5 -33.5q6 -37 17.5 -69.5t21.5 -63.5l4 -12q29 16 88.5 36.5t118.5 20.5q16 0 21.5 -3t15.5 -9q14 -8 32.5 -30t27.5 -38q8 -4 16 -27.5t14 -58.5t10.5 -76t4.5 -82v-24 q0 -31 -3.5 -101.5t-9.5 -148.5t-14 -147.5t-18 -100.5q-16 -49 -46 -89t-90 -40h-10q-47 4 -77.5 23.5t-59.5 52.5q-23 27 -34 69.5t-11 81.5q0 10 -3 20.5t-3 20.5q0 18 18 25q12 0 18.5 -23.5t10.5 -54.5t8 -60.5t12 -41.5q16 -31 48 -50.5t71 -19.5q37 0 63.5 29.5 t43 70.5t23.5 84t7 68q2 16 6.5 53t6.5 83t4 95t2 90v48q0 43 -3 91t-15.5 88t-38 65.5t-72.5 25.5h-19q-35 -4 -81 -27.5t-76 -42.5l-9 -4q-14 2 -24 14.5t-16.5 29t-10.5 32.5t-6 25l-4 14q-14 117 -39 189.5t-25 95.5z" />
<glyph unicode="&#xe57;" horiz-adv-x="679" d="M61 596q0 72 3.5 131t7.5 90q2 18 7 52t12 68t20.5 60.5t33.5 28.5q10 0 19.5 -4t15.5 -8q16 -10 29.5 -29.5t23.5 -40.5q12 -23 21.5 -42t17.5 -44q10 35 18.5 71t35.5 58q14 10 28.5 16.5t36.5 6.5q29 0 55.5 -13.5t32.5 -40.5q6 -23 8 -61.5t2 -85.5q0 -84 -3 -197.5 t-3 -287.5v-148q0 -35 2 -65.5t11 -55.5q12 -4 26 -4q6 0 10 2q16 10 20.5 29.5t8.5 38.5q12 59 17.5 122.5t5.5 131.5q0 18 -2 68.5t-5.5 111.5t-6.5 123.5t-3 107.5q0 31 -2 68t-2 72v51q0 16 -1 47t-1 64.5t-1 64.5t-1 45q0 25 1 48.5t1 47.5v9q0 6 1 12t9 6 q16 0 18.5 -8t2.5 -19v-25.5t-1 -31.5t-1 -29.5v-17.5q0 -10 1 -36t2 -55.5t2 -56t1 -36.5v-54q0 -35 -1 -68.5t-1 -68.5q0 -27 1 -51.5t3 -48.5q2 -33 6 -75t7 -87t5 -90t2 -84q0 -63 -2 -112.5t-12 -112.5q-6 -35 -14 -78t-23 -56q-8 -4 -34.5 -12t-38.5 -8 q-16 0 -25.5 24.5t-13.5 55.5t-5 58.5t-1 35.5q0 33 1 84t2 111.5t2 124t2 119t2 97.5t1 60v139q0 23 -4 29q-14 25 -56 25q-23 0 -36 -7.5t-23 -17.5q-23 -23 -33 -73t-10 -95v-14q0 -8 2 -16.5t2 -16.5q0 -14 -12 -23q-20 12 -21.5 42t-7.5 61q-14 70 -47 119l-4 6 q-10 16 -16.5 33.5t-28.5 17.5q-4 0 -6 -1t-6 -1q-8 -2 -15.5 -24.5t-14.5 -50.5t-11.5 -53.5t-6.5 -33.5q-2 -10 -3 -41t-1 -74v-93v-97v-201q0 -74 10.5 -139.5t36.5 -112.5q14 -4 23.5 -8t22.5 -4q10 0 16 2q14 2 22.5 12.5t18.5 10.5q23 -6 22 -29q-4 -20 -25.5 -29.5 t-43.5 -9.5q-14 0 -21 2q-41 10 -61.5 39t-32.5 70q-10 33 -15 87t-7.5 119.5t-3.5 137t-1 139.5z" />
<glyph unicode="&#xe58;" horiz-adv-x="628" d="M61 752q0 109 47.5 173t151.5 99q47 8 96.5 6t102.5 10q35 35 56.5 83t21.5 102q0 8 1 39.5t1 46.5q0 10 4 14q16 -4 20 -8t4 -27t-6 -90t-39 -145q-16 -37 -40.5 -50.5t-57.5 -16.5t-70 -3t-78 -8q-76 -16 -116 -66q-6 -8 -14.5 -15t-12.5 -13q-10 -18 -20.5 -57.5 t-10.5 -65.5q0 -25 1 -88.5t2 -134t3.5 -135t4.5 -93.5q4 -53 14 -112.5t27 -100.5q8 -23 27.5 -40t45.5 -17q12 0 24.5 12t24 28.5t18.5 34t7 27.5q0 25 -9 53.5t-9 57.5q0 20 8 35q10 0 15 -2t11 -2q6 -41 8.5 -87t14.5 -77q2 -4 10 -16.5t21.5 -26t29 -23.5t29.5 -10 q27 0 43.5 30.5t26.5 55.5q16 39 21 86t5 100q0 25 -6 49.5t-16 41.5q-8 12 -21.5 22t-36.5 10q-4 0 -7 -1t-7 -1q-4 4 -5 13.5t-1 13.5q0 14 12.5 16t26.5 2q20 0 43 -14q29 -18 41 -63.5t12 -86.5v-8q0 -10 -2 -38.5t-2 -45.5q0 -47 -14.5 -95t-36.5 -77 q-10 -10 -33.5 -31.5t-52.5 -21.5q-16 0 -30.5 16.5t-37.5 38.5q-4 2 -11 12.5t-9 10.5q-18 -23 -35 -39q-14 -14 -29.5 -25.5t-25.5 -11.5q-23 0 -50.5 5t-37.5 16q-20 16 -37 61t-23 80q-4 35 -11 80t-11 88q-2 23 -4 84t-3.5 129.5t-2.5 128t-1 78.5z" />
<glyph unicode="&#xe59;" horiz-adv-x="651" d="M61 475q0 57 1 125t4.5 131.5t7.5 112.5t10 71q6 27 24.5 58t41.5 41q29 14 65 14q14 0 31 -4q59 -18 92 -80q16 18 33.5 40t46.5 26q4 0 7 1t7 1q27 0 50.5 -11.5t43.5 -23.5l9 -4q16 68 19 126t3 118q0 8 1 39.5t1 46.5q0 10 4 14q16 -4 20.5 -8t4.5 -27v-43t1 -55.5 t1 -56v-46.5q0 -6 -3 -31.5t-8.5 -53t-12.5 -50t-17 -22.5q-16 0 -35.5 14t-34.5 18q-12 0 -23.5 2.5t-23.5 2.5q-8 0 -24 -5q-18 -8 -35 -28.5t-19 -36.5q0 -14 3 -31.5t8 -34.5q2 -16 5 -54t6 -88t6 -105.5t6 -105.5t5 -89t4 -55q6 -86 16.5 -159t14.5 -144v-11 q0 -20 -8 -24q-10 4 -17.5 11t-15.5 13v23q0 35 -5 69.5t-9 69.5q-6 51 -10.5 150.5t-8.5 208t-10 208t-20 150.5q0 35 -31 63.5t-68 28.5q-43 0 -67 -24q-18 -16 -29.5 -65.5t-19 -114t-9.5 -137.5t-2 -136q0 -45 1 -93t3 -71q2 -37 4.5 -77t8.5 -77.5t17 -70.5t28 -56 q6 -8 26.5 -16t32.5 -8q16 0 30.5 9t31.5 9q8 0 12 -2q4 -6 4 -18q0 -20 -21.5 -30.5t-48.5 -10.5q-14 0 -22 2q-37 8 -60.5 30.5t-35.5 55.5q-4 14 -11.5 31.5t-11.5 40.5q-8 37 -12 85t-8 83q-2 18 -3.5 63t-1.5 88z" />
<glyph unicode="&#xe5a;" horiz-adv-x="614" d="M20 1008q1 6 3 8q10 10 16 10q10 0 20 -20q2 -16 7.5 -40t12.5 -46.5t16 -42t20 -27.5q12 -10 30.5 -15.5t38.5 -5.5q37 0 75 14.5t54 39.5q10 12 17.5 28.5t15.5 32.5t10 35.5t11 38.5q16 -2 20 -14.5t10 -24.5q-12 -59 -12 -117q0 -43 3 -87t3 -89q0 -35 1 -63.5 t1 -53.5q0 -35 -1 -63.5t-3 -56.5q2 -176 5 -311.5t7 -264.5q-23 2 -29.5 16.5t-6.5 34.5q0 14 1 27.5t1 28.5q0 55 -1 97t-2.5 82t-2.5 82t-3 95q-2 25 -2 49.5v50.5q0 72 2 144.5t2 144.5q0 35 -1 81t-3 79q-8 -25 -13 -33t-13 -16q-47 -43 -127 -43q-23 0 -50.5 5 t-43.5 15q-10 6 -20.5 20.5t-20.5 30.5q-6 8 -11.5 26.5t-11.5 39t-11 38t-9 25.5q-4 4 -5 15zM494 555q4 102 6 160.5t2 111.5t4 106.5t8 102.5q12 0 25 -12v-16q0 -27 -2 -53.5t-7 -55.5v-115q0 -66 -1 -131t-1 -131q0 -141 12.5 -289.5t12.5 -330.5v-17q-12 -12 -25 -12 q-16 168 -20 336t-14 346z" />
<glyph unicode="&#xe5b;" />
<glyph unicode="&#x2000;" horiz-adv-x="819" />
<glyph unicode="&#x2001;" horiz-adv-x="1638" />
<glyph unicode="&#x2002;" horiz-adv-x="819" />
<glyph unicode="&#x2003;" horiz-adv-x="1638" />
<glyph unicode="&#x2004;" horiz-adv-x="546" />
<glyph unicode="&#x2005;" horiz-adv-x="409" />
<glyph unicode="&#x2006;" horiz-adv-x="273" />
<glyph unicode="&#x2007;" horiz-adv-x="273" />
<glyph unicode="&#x2008;" horiz-adv-x="204" />
<glyph unicode="&#x2009;" horiz-adv-x="327" />
<glyph unicode="&#x200a;" horiz-adv-x="91" />
<glyph unicode="&#x200b;" />
<glyph unicode="&#x2010;" horiz-adv-x="581" d="M61 606q1 4 5 12q29 -4 55 -6t53 -2q61 0 119.5 5.5t124.5 5.5h51q14 0 27.5 -2.5t23.5 -10.5q0 -18 -4 -28q-4 -2 -14 -2t-18.5 2t-18.5 2q-12 2 -25.5 2h-25.5q-59 0 -121 -6.5t-123 -6.5q-27 0 -51.5 2t-48.5 7q-2 10 -5.5 13t-3.5 13z" />
<glyph unicode="&#x2011;" horiz-adv-x="581" d="M61 606q1 4 5 12q29 -4 55 -6t53 -2q61 0 119.5 5.5t124.5 5.5h51q14 0 27.5 -2.5t23.5 -10.5q0 -18 -4 -28q-4 -2 -14 -2t-18.5 2t-18.5 2q-12 2 -25.5 2h-25.5q-59 0 -121 -6.5t-123 -6.5q-27 0 -51.5 2t-48.5 7q-2 10 -5.5 13t-3.5 13z" />
<glyph unicode="&#x2012;" horiz-adv-x="581" d="M61 606q1 4 5 12q29 -4 55 -6t53 -2q61 0 119.5 5.5t124.5 5.5h51q14 0 27.5 -2.5t23.5 -10.5q0 -18 -4 -28q-4 -2 -14 -2t-18.5 2t-18.5 2q-12 2 -25.5 2h-25.5q-59 0 -121 -6.5t-123 -6.5q-27 0 -51.5 2t-48.5 7q-2 10 -5.5 13t-3.5 13z" />
<glyph unicode="&#x2013;" horiz-adv-x="684" d="M61 606q1 4 5 12q29 -4 55 -6t53 -2q31 0 77 2t95 3t95 3.5t79 2.5h51q14 0 27.5 -2.5t24.5 -10.5q0 -18 -5 -28q-4 -2 -14 -2t-18 2t-19 2q-12 2 -25.5 2h-25.5q-29 0 -75 -2t-96 -4.5t-97 -4.5t-78 -2q-27 0 -51.5 2t-48.5 7q-2 10 -5.5 13t-3.5 13z" />
<glyph unicode="&#x2014;" horiz-adv-x="827" d="M61 606q1 4 5 12q29 -4 55 -6t53 -2q31 0 99.5 2t144.5 3t144.5 3.5t101.5 2.5h51q14 0 27.5 -2.5t23.5 -10.5q0 -18 -4 -28q-4 -2 -14 -2t-18.5 2t-18.5 2q-12 2 -25.5 2h-26.5q-29 0 -97 -2t-145 -4.5t-146.5 -4.5t-100.5 -2q-27 0 -51.5 2t-48.5 7q-2 10 -5.5 13 t-3.5 13z" />
<glyph unicode="&#x2018;" horiz-adv-x="245" d="M61 813q0 2 8.5 15.5t12.5 23.5q14 33 26.5 56.5t22.5 52.5q10 33 14.5 59.5t16.5 58.5q0 11 14 11q8 -8 8 -19q0 -53 -20.5 -111.5t-42.5 -105.5q-4 -4 -8 -15.5t-9.5 -21.5t-12.5 -18t-15 -8q-2 0 -8.5 7t-6.5 15z" />
<glyph unicode="&#x2019;" horiz-adv-x="245" d="M61 809q0 53 20.5 111.5t43.5 105.5q2 4 7 14.5t10 21.5t12.5 19.5t15.5 8.5q2 0 8 -7.5t6 -15.5q0 -2 -8 -15.5t-12 -23.5q-14 -33 -26.5 -56.5t-22.5 -51.5q-10 -33 -14.5 -59.5t-16.5 -59.5q0 -10 -14 -10q-8 8 -9 18z" />
<glyph unicode="&#x2022;" horiz-adv-x="233" d="M61 543q0 8 2.5 21.5t8.5 25.5t17 20t30 8q33 0 43 -14t10 -35q0 -14 -2 -27.5t-2 -31.5t-13.5 -28.5t-29.5 -10.5q-20 0 -25 6q-23 6 -31 23.5t-8 42.5z" />
<glyph unicode="&#x2026;" horiz-adv-x="690" d="M61 18q0 8 5.5 21.5t21.5 13.5t20.5 -6t4.5 -16q0 -6 -1 -12.5t-1 -14.5q0 -18 -21 -18q-8 0 -10 2q-18 6 -19 30zM328 18q0 8 5 21.5t21 13.5t20.5 -6t4.5 -16q0 -6 -1 -12.5t-1 -14.5q0 -18 -21 -18q-8 0 -10 2q-18 6 -18 30zM578 18q0 8 5 21.5t21 13.5t20.5 -6 t4.5 -16q0 -6 -1 -12.5t-1 -14.5q0 -18 -21 -18q-8 0 -10 2q-18 6 -18 30z" />
<glyph unicode="&#x202f;" horiz-adv-x="327" />
<glyph unicode="&#x205f;" horiz-adv-x="409" />
<glyph unicode="&#x25cc;" horiz-adv-x="1048" />
<glyph unicode="&#xe000;" horiz-adv-x="1024" d="M0 0v1024h1024v-1024h-1024z" />
<glyph unicode="&#xf700;" horiz-adv-x="475" d="M41 891q0 23 13.5 46.5t32.5 42.5t42 32.5t41 17.5q10 2 17.5 2h15.5q18 0 26.5 -2t13.5 -6t11 -10t18 -13h11q31 0 55 14.5t46 33t41 38t40 29.5q18 0 24.5 -3t6.5 -13v-13q-14 -12 -34 -31.5t-43.5 -38t-51 -31.5t-58.5 -13q45 -43 64.5 -108.5t19.5 -135.5t-1 -124 t-7 -118q-4 -59 -5 -115.5t-3 -112.5t-10.5 -111.5t-28.5 -110.5l-8 -23q0 -8 -1 -17t-10 -9q-14 0 -17 10t-7 20q-4 33 -13.5 76t-20.5 87t-22.5 85t-21.5 70q-16 51 -44 85t-81 56q-10 8 -20.5 12.5t-10.5 14.5q0 4 7.5 14t17.5 10q23 -8 41 -20t41 -29l27 -20 q25 -27 42 -75t31.5 -104.5t25.5 -111.5t21 -94q20 61 25.5 135t5.5 153v107v52.5t2 49.5q2 39 5 70t3 78q0 51 -11 100t-30.5 88t-48 63.5t-63.5 24.5q-59 0 -89 -40t-53 -87q-20 4 -20 23z" />
<glyph unicode="&#xf701;" d="M-504 1149v10q0 6 7.5 11.5t29.5 5.5q33 -8 81 -6.5t91 -2.5h57q27 0 51.5 -2t49.5 -6q0 -18 -5 -24.5t-16 -6.5q-8 0 -26.5 -1t-28.5 -1h-260q-27 0 -31 23z" />
<glyph unicode="&#xf702;" d="M-504 1149v10q0 6 7.5 11.5t29.5 5.5q33 -8 81 -6.5t91 -2.5h43q16 0 32 -1t36 -3q0 23 -2 40.5t-2 29.5q0 16 4 22q4 8 12 11.5t18 3.5t11 -8q0 -16 -2 -36t-5 -40q0 -41 -5 -50.5t-31 -9.5h-287q-27 0 -31 23z" />
<glyph unicode="&#xf703;" d="M-518 1149v10q0 6 7 11.5t30 5.5q33 -8 61.5 -6.5t71.5 -2.5h37q-6 10 -9.5 17.5t-3.5 23.5q0 45 18.5 74t63.5 29q53 0 77 -20.5t24 -71.5q0 -41 -15.5 -59.5t-40 -26t-53.5 -6.5t-55 -1h-182q-27 0 -31 23zM-291 1210q0 -16 14.5 -32.5t38.5 -16.5q23 0 35 6 q16 6 23.5 26.5t7.5 41.5q0 31 -22.5 36t-38.5 5q-41 0 -49.5 -22.5t-8.5 -43.5z" />
<glyph unicode="&#xf704;" d="M-506 1149v10q0 6 7 11.5t30 5.5q16 -4 30.5 -5.5t30.5 -3.5l93 -4v51q0 16 2 27l2 14q4 8 12 11.5t18 3.5t11 -8q0 -25 -2 -50.5t-7 -52.5l80 4q0 16 -2 32.5t-2 37.5q0 14 2 22q4 8 12.5 11.5t18.5 3.5t10 -8q0 -14 -2 -31t-2 -45q0 -41 -5 -50.5t-32 -9.5h-274 q-27 0 -31 23z" />
<glyph unicode="&#xf705;" d="M-287 1233v119q0 20 1 35.5t3 31.5q4 0 5.5 1t5.5 1q16 0 22 -16q-2 -18 -2 -38.5v-41.5q0 -80 6 -149l2 -31q0 -14 -4 -16.5t-10 -2.5q-4 0 -8 1t-8 10q-8 12 -10.5 38.5t-2.5 57.5z" />
<glyph unicode="&#xf706;" d="M-410 1280q0 23 16.5 35t35.5 12q31 0 62.5 -19.5t39.5 -47.5q2 -8 2 -23q0 -16 -4 -30.5t-8 -30.5q74 2 129 39.5t102 93.5q10 -2 21.5 -7.5t11.5 -19.5q0 -4 -14.5 -18.5t-33 -29.5t-34.5 -28.5t-20 -15.5q-41 -29 -93.5 -43t-103.5 -21q-16 2 -20.5 6.5t-4.5 10.5 q0 10 2 14q16 18 26.5 41t10.5 45q0 6 -1 11.5t-3 11.5q-4 10 -17.5 17t-29.5 7t-31 -8q-4 -10 -6 -21.5t-14 -11.5q-2 0 -11.5 10.5t-9.5 20.5z" />
<glyph unicode="&#xf707;" d="M-467 1239q0 14 2 23q6 29 23.5 57.5t48.5 28.5q25 0 46.5 -12.5t37.5 -22.5q20 25 61 24q29 0 54.5 -13t37.5 -38q10 -25 11 -53v-30.5t-2 -31.5q16 8 37.5 18.5t42 23t37 28.5t22.5 39q16 0 18 -4t8 -14q0 -18 -22.5 -42t-54 -44.5t-63.5 -35t-50 -14.5q-4 0 -13.5 4.5 t-9.5 8.5q0 8 3.5 13t5.5 9q4 16 4 33q0 12 -1 26.5t-1 24.5q0 61 -56 62q-23 0 -38 -12.5t-31 -22.5q-14 10 -27.5 29.5t-42.5 19.5q-6 0 -18 -4q-12 -6 -20.5 -29.5t-12.5 -38.5q-2 -6 -2 -20q0 -10 4 -19.5t6 -15.5t11.5 -13t18.5 -14.5t17 -13.5t8 -10t-2 -8.5t-12 -4.5 q-14 0 -26.5 8.5t-22.5 16.5q-16 14 -26.5 35.5t-10.5 48.5z" />
<glyph unicode="&#xf708;" d="M-440 1270q0 4 1 8t9 8q12 8 38.5 10t57.5 2h19v54q0 20 1 35.5t3 31.5q4 0 5 1t5 1q16 0 22 -16q-2 -18 -2 -38.5v-41.5v-27h66q20 0 36 -1t32 -3q0 -4 1 -5t1 -5q0 -16 -17 -22q-18 2 -38.5 2h-41.5h-39l9 -119q0 -14 -4.5 -16.5t-10.5 -2.5q-4 0 -8 1t-8 10 q-8 12 -10 38.5t-2 57.5v29q-20 0 -39 -1t-37 -4l-31 -2q-14 0 -16 4.5t-2 10.5z" />
<glyph unicode="&#xf709;" d="M-334 1169q0 16 2 25q8 45 34 60.5t75 15.5h200q27 0 31 -23v-10q0 -6 -7 -11t-30 -5q-16 2 -44.5 4t-58.5 3t-56.5 2t-36.5 1q-31 0 -50.5 -13.5t-19.5 -48.5q0 -10 6 -25.5t4 -17.5q-4 -6 -10 -11t-16 -5q-10 10 -16.5 26.5t-6.5 32.5z" />
<glyph unicode="&#xf70a;" d="M-106 1233v119q0 20 1 35.5t3 31.5q4 0 5 1t5 1q16 0 22 -16q-2 -18 -2 -38.5v-41.5q0 -80 6 -149l3 -31q0 -14 -4.5 -16.5t-10.5 -2.5q-4 0 -8 1t-8 10q-8 12 -10 38.5t-2 57.5z" />
<glyph unicode="&#xf70b;" d="M-342 1280q0 23 16.5 35t34.5 12q31 0 62.5 -19.5t40.5 -47.5q2 -8 2 -23q0 -16 -4.5 -30.5t-8.5 -30.5q74 2 129.5 39.5t102.5 93.5q10 -2 21.5 -7.5t11.5 -19.5q0 -4 -14.5 -18.5t-33 -29.5t-35 -28.5t-20.5 -15.5q-41 -29 -93 -43t-103 -21q-16 2 -20.5 6.5t-4.5 10.5 q0 10 2 14q16 18 26.5 41t10.5 45q0 6 -1 11.5t-3 11.5q-4 10 -17.5 17t-29.5 7t-31 -8q-4 -10 -6 -21.5t-15 -11.5q-2 0 -11 10.5t-9 20.5z" />
<glyph unicode="&#xf70c;" d="M-375 1239q0 14 2 23q6 29 23.5 57.5t48.5 28.5q25 0 46.5 -12.5t37.5 -22.5q20 25 61 24q29 0 54.5 -13t38.5 -38q10 -25 10 -53q0 -10 -1 -21.5t-3 -21.5q33 23 52 64.5t34 86.5q16 0 24 -6t15 -16q0 -18 -16.5 -51t-39 -63.5t-48 -54.5t-44.5 -24q-4 0 -13 4.5t-9 8.5 q0 8 3 13t5 9q4 16 4 33q0 12 -1 26.5t-1 24.5q0 61 -55 62q-23 0 -38.5 -12.5t-31.5 -22.5q-14 10 -27.5 29.5t-42.5 19.5q-6 0 -18 -4q-12 -6 -20.5 -29.5t-12.5 -38.5q-2 -6 -2 -20q0 -10 4 -19.5t6 -15.5t11.5 -13t18.5 -14.5t17.5 -13.5t8.5 -10t-2.5 -8.5t-12.5 -4.5 q-14 0 -26.5 8.5t-22.5 16.5q-16 14 -26.5 35.5t-10.5 48.5z" />
<glyph unicode="&#xf70d;" d="M-246 1270q0 4 1 8t9 8q12 8 39 10t58 2h18v54q0 20 1 35.5t3 31.5q4 0 5 1t6 1q16 0 22 -16q-2 -18 -2 -38.5v-41.5v-27h66q20 0 35.5 -1t31.5 -3q0 -4 1 -5t1 -5q0 -16 -16 -22q-18 2 -39 2h-41h-39l8 -119q0 -14 -4 -16.5t-10 -2.5q-4 0 -8 1t-9 10q-8 12 -10 38.5 t-2 57.5v29q-20 0 -38.5 -1t-37.5 -4l-30 -2q-14 0 -16.5 4.5t-2.5 10.5z" />
<glyph unicode="&#xf70e;" d="M-201 1169q0 16 2 25q8 45 34 60.5t75 15.5h201q27 0 30 -23v-10q0 -6 -7 -11t-30 -5q-16 2 -44.5 4t-58.5 3t-56.5 2t-36.5 1q-31 0 -50.5 -13.5t-19.5 -48.5q0 -10 6 -25.5t4 -17.5q-4 -6 -10 -11t-16 -5q-10 10 -16.5 26.5t-6.5 32.5z" />
<glyph unicode="&#xf70f;" horiz-adv-x="659" d="M61 809q0 23 13 51q12 35 25.5 61.5t37.5 51.5l28.5 28.5t39.5 18.5q6 0 8 2q16 6 36.5 11t43.5 5h16t17 -4q14 -4 31.5 -18.5t27.5 -28.5q16 -23 21.5 -52.5t5.5 -62.5q0 -23 -1 -43t-1 -43l-13 -378q0 -16 -1 -34t-1 -34v-28.5t2 -28.5q4 -41 34 -73t65 -32q29 0 40 29 t15 55q4 23 5 44.5t1 43.5v70v88t-1 59.5t-1 45v42.5v213v54.5t4 58.5v29q0 27 16 32q12 0 15.5 -10t3.5 -18t-1 -14.5t-1 -12.5q0 -170 1 -270.5t2 -156.5t2 -82.5t1 -47.5v-30.5t-2 -32.5q-4 -41 -4 -62.5v-34.5v-67v-39t-4 -51q-4 -55 -40 -93t-106 -38q-33 0 -66.5 9 t-68.5 38v12q0 10 5 16t24 6q20 -12 33.5 -21t23.5 -15.5t20.5 -9.5t28.5 -3q59 0 87 40t28 102v8q0 8 2 14q0 8 2 23q-10 -18 -22.5 -37t-34.5 -19q-12 0 -19 2q-39 10 -77.5 48t-42.5 79q-6 76 -7 134l23 409q2 29 4 51.5t2 44.5v15q-10 39 -40 56t-66 17q-37 0 -76 -16 q-16 -6 -40 -29.5t-34 -40.5q-16 -23 -23.5 -51t-15.5 -53q10 0 24.5 2t30.5 2q29 0 39 -14q2 -4 2 -10q0 -8 -3 -14.5t-3 -16.5t1 -16.5t1 -10.5q-2 -16 -6 -30.5t-8 -30.5q-8 -49 -16.5 -97.5t-14.5 -99.5q-2 -10 -2 -29v-51q-2 -20 -5 -40.5t-5 -43.5q-4 -49 -3 -98 t-1 -94q0 -57 33 -88q8 4 22.5 15t26.5 11t16 -18q0 -10 -18.5 -27.5t-34.5 -17.5q-10 0 -21.5 10t-21.5 23.5t-18.5 27t-10.5 23.5q-6 20 -6 49q0 16 1 30.5t1 30.5v15v59.5t2 59.5q4 59 8 118.5t15 116.5q10 59 20 112.5t15 104.5q-12 4 -23 4q-10 0 -24.5 -1t-24.5 -1 h-10q-8 14 -9 33z" />
<glyph unicode="&#xf710;" d="M-348 1231q0 16 6 32.5t16 26.5q10 0 16.5 -5t10.5 -11q2 -2 -4 -17.5t-6 -25.5q0 -35 19.5 -48.5t49.5 -13.5h9q37 4 77.5 14.5t75.5 20.5q23 6 42.5 15.5t41.5 17.5q2 0 3 1t3 1q23 8 38.5 13t23.5 5q10 0 10 -14q0 -4 -1 -12t-3 -19q-8 -8 -19.5 -10t-21.5 -6 q-72 -23 -141.5 -46.5t-135.5 -23.5q-49 0 -74.5 17.5t-33.5 62.5q-2 8 -2 25z" />
<glyph unicode="&#xf711;" d="M-391 1192q0 45 18.5 78t63.5 33q100 0 100 -101q0 -43 -21.5 -70.5t-62.5 -27.5q-47 0 -72.5 20.5t-25.5 67.5zM-365 1194q0 -16 15.5 -40t42.5 -24q20 0 37 7q16 6 24 33.5t8 50.5q0 33 -24.5 42t-40.5 9q-43 0 -52.5 -27.5t-9.5 -50.5z" />
<glyph unicode="&#xf712;" d="M-471 1225q0 29 3 56.5t13 49.5q12 23 27.5 38t46.5 17h8q31 0 66 -12t65 -12q12 0 19 2q43 10 76.5 38.5t64.5 53.5q14 -14 14 -31q0 -16 -22.5 -35.5t-53 -36t-60 -27.5t-42.5 -11q-35 0 -62.5 13t-58.5 15h-8q-18 0 -31.5 -13t-21.5 -33.5t-11 -42t-3 -35.5v-13.5 t4 -15.5q20 -14 49 -14t51.5 10t40.5 20q12 -4 17.5 -14t15.5 -14q12 -4 16 -4q27 0 49.5 26.5t22.5 52.5q0 8 -2 13q2 10 10 16q25 0 25 -22q-6 -49 -33 -91.5t-74 -42.5h-8q-10 2 -21.5 12.5t-19.5 20.5q0 -2 -10 -7t-24.5 -10t-29 -9.5t-20.5 -4.5q-23 0 -42 6.5 t-32 22.5q-14 29 -14 68z" />
<glyph unicode="&#xf713;" d="M-184 1411q0 20 1 37.5t1 24.5q0 20 1 35.5t3 31.5q4 0 5 1t5 1q16 0 23 -16q-2 -18 -2 -39v-41v-29q0 -10 1 -16t1 -12l2 -31q0 -14 -4.5 -16.5t-10.5 -2.5q-4 0 -8 1t-8 10q-6 10 -8 26.5t-2 34.5z" />
<glyph unicode="&#xf714;" d="M-379 1473q0 23 16.5 35t34.5 12q31 0 63 -19.5t40 -48.5q2 -8 2 -22q0 -16 -4 -20.5t-9 -20.5q74 2 129.5 39.5t102.5 93.5q10 -2 21.5 -7.5t11.5 -19.5q0 -4 -14.5 -18.5t-33 -29.5t-35 -28.5t-20.5 -15.5q-41 -29 -93 -43t-103 -21q-16 2 -20.5 6.5t-4.5 10.5 q0 10 2 14q16 18 26.5 30.5t10.5 35.5q0 6 -1 11t-3 11q-4 10 -17.5 17.5t-29.5 7.5t-31 -8q-4 -10 -6 -21.5t-14 -11.5q-2 0 -11.5 10t-9.5 21z" />
<glyph unicode="&#xf715;" d="M-475 1419q0 14 2 23q6 29 23.5 57.5t48.5 28.5q25 0 46.5 -12.5t37.5 -22.5q20 25 61 25q29 0 54.5 -13.5t37.5 -38.5q10 -25 10 -53q0 -8 2 -8q6 0 18.5 21.5t25 47t23.5 50t13 30.5q16 0 24.5 -6t14.5 -16q0 -18 -16.5 -51t-39 -64t-48 -54.5t-43.5 -23.5 q-4 0 -13.5 4.5t-9.5 8.5q0 18 5 36.5t5 36.5q0 61 -55 62q-23 0 -38 -12.5t-31 -22.5q-14 10 -27.5 29.5t-42.5 19.5q-6 0 -19 -4q-16 -8 -25 -33.5t-9 -42.5q0 -10 10 -18t22.5 -15.5t22.5 -15.5t10 -16q0 -4 -2 -8.5t-12 -4.5q-27 0 -56.5 26t-29.5 50z" />
<glyph unicode="&#xf716;" d="M-281 1452q0 16 18.5 20.5t35.5 4.5h30v26q0 20 1 35.5t3 32.5q4 0 5.5 1t5.5 1q16 0 22 -17q-2 -18 -2 -25v-28v-26h17q20 0 35.5 -1t31.5 -3q0 -4 1 -5.5t1 -5.5q0 -16 -9 -18t-19 -2h-58l8 -86q0 -14 -4 -16.5t-10 -2.5q-4 0 -8 1t-8 10q-8 12 -10.5 22t-2.5 41v29 h-22h-13.5t-29.5 -2q-14 0 -16.5 4t-2.5 10z" />
<glyph unicode="&#xf717;" d="M-240 1393q0 16 2 24q8 45 34 60.5t75 15.5h201q27 0 30 -23v-10q0 -6 -7 -11t-29 -5q-16 2 -45 4t-59 3t-56.5 2t-36.5 1q-31 0 -50.5 -13.5t-19.5 -47.5q0 -10 6.5 -25.5t4.5 -17.5q-4 -6 -10.5 -11.5t-16.5 -5.5q-10 10 -16.5 26.5t-6.5 33.5z" />
<glyph unicode="&#xf718;" d="M-203 -424q12 10 29.5 15.5t36.5 5.5q27 0 51 -7q12 -16 18.5 -26t6.5 -33v-217q-4 -12 -7.5 -13t-9.5 -3q-16 0 -20 22l8 234q-10 6 -19.5 7t-19.5 1q-14 0 -29.5 -3t-27.5 -5q-17 2 -17 22z" />
<glyph unicode="&#xf719;" d="M-274 -428q0 8 2 14l15 5t15 1q20 0 37 -5t25 -19q4 -16 5 -29.5t1 -34.5q-2 -23 -7 -50t-5 -54q0 -37 7 -52.5t46 -15.5q31 0 32 23.5t5 52.5q2 16 3 31.5t1 32.5q0 25 -3 58.5t-5 53.5q8 10 24 10q12 -2 13 -18v-74q0 -25 1 -48t1 -46q0 -47 -11.5 -77.5t-54.5 -35.5 q-66 4 -77 35t-11 82v8q0 25 6 49.5t6 45.5q0 39 -26 39q-16 0 -22.5 -4.5t-14.5 -4.5q-4 10 -6 13.5t-2 13.5z" />
<glyph unicode="&#xf71a;" d="M-119 -438q1 22 13 32q6 2 14 3q16 0 23.5 -11.5t7.5 -25.5t-7.5 -24.5t-21.5 -10.5h-8q-10 4 -15.5 14t-5.5 23z" />
<glyph unicode="&#xf71d;" horiz-adv-x="557" d="M61 629v57q0 94 1 150.5t2.5 86t2.5 42t1 20.5l-4.5 13.5t-2.5 13.5q0 4 7.5 6t11.5 6q2 2 6 2q14 0 16 -21.5t2 -39.5q0 -45 -3 -80t-3 -78v-37q-2 -31 -3 -60.5t-1 -56.5v-22q0 -10 2 -53t4 -93.5t3 -93.5t1 -55q0 -23 3.5 -73t12.5 -102t25.5 -92t42.5 -40 q49 0 60.5 37.5t11.5 85.5q0 10 1 66t1 123t1 123t1 64q0 33 -5 64t-7 57l15 3t9 1q8 0 17 -8q0 -14 1 -52t2 -88t2 -105.5t2 -104.5t3 -87t4 -50q2 -18 6 -41t10.5 -44.5t17.5 -35.5t30 -14q55 4 69 53q12 51 13 131v262q-2 18 -3 39.5t-5.5 41t-12.5 35t-22 21.5 q-8 4 -13.5 5t-11.5 1h-16q-14 0 -25 2q-4 10 -4 12.5t-4 12.5q18 31 46 65.5t46 69.5q12 25 21.5 65t9.5 81q0 8 -1 15t-1 13q-2 14 -7.5 28.5t-5.5 31.5q0 4 -2 8t-2 8q0 8 11 8q10 0 18 -3t12 -11l2 -14q4 -27 7.5 -56.5t5.5 -58.5v-12q0 -35 -12.5 -68t-30 -63.5 t-39 -56t-39.5 -42.5h12q35 0 55.5 -22.5t30.5 -56t13 -74.5t3 -76v-135v10v-6v-103q0 -53 -3 -92t-12 -64.5t-27.5 -38t-51.5 -12.5q-37 0 -64.5 30t-41.5 79q-14 -45 -33.5 -71.5t-54.5 -26.5q-43 0 -69 35.5t-40 83t-18 96.5t-6 78v16q-2 33 -3.5 66.5t-1.5 68.5v58.5 t-1 69.5t-1 69z" />
<glyph horiz-adv-x="403" d="M-391 1192q0 45 18.5 78t63.5 33q100 0 100 -101q0 -43 -21.5 -70.5t-62.5 -27.5q-47 0 -72.5 20.5t-25.5 67.5zM-365 1194q0 -16 15.5 -40t42.5 -24q20 0 37 7q16 6 24 33.5t8 50.5q0 33 -24.5 42t-40.5 9q-43 0 -52.5 -27.5t-9.5 -50.5zM20 844q16 47 29.5 80.5 t38.5 58.5q18 23 45 34t51 11q37 0 72 -17.5t51 -39.5q16 -18 25.5 -51t9.5 -70v-16q-8 -127 -11 -263.5t-3 -271.5v-92q0 -53 1 -85t1 -49.5t1 -25.5t1 -14v-15q0 -8 -2.5 -16t-12.5 -12q-20 8 -24 22.5t-4 42.5v375v20.5t2 20.5q8 86 9 164t5 162q0 25 1 46t1 44 q0 41 -33.5 71.5t-74.5 30.5q-57 0 -87 -32.5t-44 -92.5q-2 -8 -5.5 -16t-3.5 -19q-10 -12 -20 -12q-2 0 -9 5t-10 22z" />
<glyph />
<glyph />
<glyph />
<glyph horiz-adv-x="1257" d="M113 514q0 109 41 203t110.5 164.5t163 111.5t199.5 41q109 0 203 -41t164.5 -111.5t111.5 -164.5t41 -203q0 -106 -41 -199.5t-111.5 -163t-165 -110.5t-202.5 -41q-106 0 -199.5 41t-163 110.5t-110.5 163t-41 199.5zM348 373q0 -86 58.5 -137.5t150.5 -51.5 q23 0 45.5 1t42.5 5v111l-12 8q-14 -6 -24.5 -7t-22.5 -1q-33 0 -62.5 18.5t-29.5 65.5q0 16 7 27.5t31.5 19.5t70.5 16.5t122 20.5v-145q0 -74 20.5 -107t81.5 -33h19q29 0 47 11.5t18 44.5q0 35 -11 48t-38 13v272q0 53 -19.5 88t-45.5 58q10 4 19 4h20h19t19 -4h23v133 q-63 -8 -125.5 -23.5t-109.5 -42.5q-18 4 -35 4.5t-41 0.5q-47 0 -90 -6.5t-90 -22.5v-129h12q39 12 81 22.5t74 10.5q18 0 44 -1t50.5 -9.5t41 -27t16.5 -50.5l-168 -17q-37 -4 -74 -12t-67.5 -28.5t-49 -55.5t-18.5 -92z" />
</font>
</defs>
</svg>
