<?xml version="1.0" standalone="no"?>
<!DOCTYPE svg PUBLIC "-//W3C//DTD SVG 1.1//EN" "http://www.w3.org/Graphics/SVG/1.1/DTD/svg11.dtd" >
<svg xmlns="http://www.w3.org/2000/svg">
<metadata></metadata>
<defs>
<font id="pestolight" horiz-adv-x="0" >
<font-face units-per-em="2048" ascent="1638" descent="-410" />
<missing-glyph horiz-adv-x="378" />
<glyph unicode="&#x3b;&#x3b;For&#x20;Education&#x20;Used&#x20;Only&#x3b;&#x3b;" horiz-adv-x="1269" d="M113 512q0 109 41 204t111.5 165.5t165.5 111.5t204 41t204 -41t165.5 -111.5t111.5 -165.5t41 -204t-41 -204t-111.5 -165.5t-166 -111.5t-203.5 -41q-109 0 -204 41t-165.5 111.5t-111.5 165.5t-41 204zM186 512q0 -92 35 -174t96.5 -143.5t143.5 -96.5t174 -35t174 35 t143.5 96.5t96 143.5t34.5 174t-34.5 174t-96 143.5t-143.5 96.5t-174 35t-174 -35t-143.5 -96.5t-96.5 -143.5t-35 -174zM358 418v180q0 131 74 182t197 51q43 0 106.5 -6t106.5 -20q-4 -27 -6 -34t-15 -26q-37 10 -96 14.5t-98 4.5q-104 0 -147.5 -41t-43.5 -119v-192 q0 -78 43 -119t148 -41q39 0 98 4t96 14q12 -18 13.5 -25t7.5 -34q-43 -14 -106.5 -20.5t-106.5 -6.5q-61 0 -111.5 11.5t-85.5 39t-54.5 72.5t-19.5 111z" />
<glyph unicode="&#x3b;&#x3b;Registered&#x3b;&#x3b;" horiz-adv-x="1269" d="M109 512q0 109 40.5 204t111.5 165.5t166 111.5t204 41t204 -41t165.5 -111.5t111.5 -165.5t41 -204t-41 -204t-111.5 -165.5t-166 -111.5t-203.5 -41q-109 0 -204 41t-166 111.5t-111.5 165.5t-40.5 204zM182 512q0 -92 35 -174t96.5 -143.5t143.5 -96.5t174 -35t174 35 t143.5 96.5t96 143.5t34.5 174t-34.5 174t-96 143.5t-143.5 96.5t-174 35t-174 -35t-143.5 -96.5t-96.5 -143.5t-35 -174zM403 219v606h269q43 0 81 -8t66.5 -29.5t46 -59.5t17.5 -99q0 -86 -30 -135.5t-65 -69.5q16 -51 38 -102.5t40 -104.5q-4 -2 -18 -2h-21h-18t-18 2 l-72 197h-238v-195q-10 -4 -17 -4h-18h-18t-25 4zM481 481h160q25 0 53.5 2t53 16.5t41 44t16.5 85.5q0 49 -16.5 74.5t-41 38t-53 14.5t-53.5 2h-160v-277z" />
<glyph unicode="&#x3b;&#x3b;Multiply&#x3b;&#x3b;" horiz-adv-x="823" d="M113 150l249 235l-239 236q6 14 20 28q6 6 14.5 11.5t16.5 9.5l238 -236l237 236q8 -4 16.5 -9.5t14.5 -11.5q10 -10 13 -15t7 -13l-239 -236l250 -235q-10 -18 -23 -31q-10 -10 -37 -23l-239 240l-240 -240q-27 12 -37 23q-12 12 -22 31z" />
<glyph unicode="&#x3b;&#x3b;Divide&#x3b;&#x3b;" horiz-adv-x="958" d="M113 383v14q0 16 2 23h729q2 -8 2 -27v-12t-2 -16h-729q-2 10 -2 18zM442 63v109q12 4 21.5 4h13.5h14.5t22.5 -4v-109q-14 -4 -22.5 -4h-12.5h-15t-22 4zM442 621v108q12 4 21.5 4h13.5h14.5t22.5 -4v-108q-14 -4 -22.5 -4.5t-12.5 -0.5h-15t-22 5z" />
<glyph unicode="&#x2018;&#x2018;" horiz-adv-x="464" d="M113 909q6 16 11 29.5t12 32t17.5 48.5t26.5 77q6 2 19 2q12 0 18 -2l-37 -183q-10 -4 -22.5 -5t-18.5 -1h-13t-13 2zM248 909q6 16 11 29.5t12.5 32t17.5 48.5t26 77q6 2 19 2q12 0 18 -2l-37 -183q-10 -4 -22.5 -5t-18.5 -1h-13t-13 2z" />
<glyph unicode="&#x2019;&#x2019;" horiz-adv-x="464" d="M113 909l37 183q10 4 22 5t18 1h13.5t13.5 -2q-6 -16 -11 -29.5t-12.5 -32t-17.5 -48.5t-26 -77q-6 -2 -19 -2q-12 0 -18 2zM248 909l37 183q10 4 22.5 5t18.5 1h13t13 -2q-6 -16 -11 -29.5t-12 -32t-17.5 -48.5t-26.5 -77q-6 -2 -19 -2q-12 0 -18 2z" />
<glyph unicode="&#x3b;&#x3b;Trademark&#x3b;&#x3b;" horiz-adv-x="1298" d="M113 987v10q0 20 4 27h424q4 -10 4 -16.5v-10.5q0 -20 -4 -26h-181v-574q-12 -2 -18 -2h-12h-12.5t-18.5 2v574h-182q-4 10 -4 16zM623 401v613q20 8 33.5 9t35.5 1q20 0 28.5 -1t29.5 -9l155 -559l154 559q20 8 28.5 9t28.5 1q23 0 36 -1t34 -9v-613q-8 -6 -29 -6h-16 t-17 4v572h-16v-13l-160 -559q-10 -4 -20.5 -4h-22.5h-23.5t-21.5 4l-160 559v13h-16v-572q-10 -4 -16 -4h-17q-20 0 -28 6z" />
<glyph unicode="&#xe24;&#xe32;" horiz-adv-x="1327" d="M96 764v35q68 23 133.5 26.5t141.5 3.5q186 0 280 -90t94 -280v-858q-8 -2 -18 -2h-16h-14.5t-22.5 2v852q0 154 -71 232.5t-228 78.5h-88q-41 -55 -61.5 -103.5t-30.5 -82.5q-12 -41 -15 -76v-436h115q2 -12 2 -19.5v-15.5v-13.5t-2 -17.5h-154h-10t-22 2v504 q0 51 13 96t30.5 78t32 52.5t18.5 21.5v10h-107zM766 801q31 10 62.5 16t60.5 9t49 3h29q74 0 123 -20.5t78.5 -55t41 -82.5t11.5 -104v-966q-10 -2 -20.5 -2h-16.5h-16.5t-18.5 2v968q0 31 -5 65t-23.5 62.5t-54.5 48t-99 19.5q-45 0 -95.5 -5t-95.5 -16q-4 10 -7 27.5 t-3 30.5z" />
<glyph unicode="&#xe26;&#xe32;" horiz-adv-x="1363" d="M61 17.5v13.5v15t2 20h82v440q0 51 13.5 96t31 78t32 52.5t18.5 21.5v10h-107v35q68 23 133.5 26.5t141.5 3.5q186 0 280 -90t94 -280v-858q-8 -2 -18 -2h-16h-14.5t-22.5 2v852q0 154 -71 232.5t-228 78.5h-88q-41 -55 -61.5 -103.5t-31.5 -82.5q-12 -41 -14 -76v-500 q-16 -2 -22.5 -2h-10.5h-121q-2 8 -2 17.5zM803 801q31 10 62.5 16t60 9t49 3h29.5q74 0 123 -20.5t78.5 -55t40.5 -82.5t11 -104v-966q-10 -2 -20 -2h-16h-16.5t-18.5 2v968q0 31 -5 65t-23.5 62.5t-54.5 48t-99 19.5q-45 0 -95.5 -5t-95.5 -16q-4 10 -7 27.5t-3 30.5z" />
<glyph unicode="&#xd;" horiz-adv-x="579" />
<glyph unicode=" "  horiz-adv-x="378" />
<glyph unicode="&#x09;" horiz-adv-x="378" />
<glyph unicode="&#xa0;" horiz-adv-x="378" />
<glyph unicode="!" horiz-adv-x="305" d="M113 1022q12 2 23 2h16h17t26 -2q-4 -131 -5.5 -261t-3.5 -265q0 -66 -2 -153t-2 -153q-10 -2 -30 -2h-16.5t-16.5 2v72t-1 79t-1 80v73v267t-4 261zM117 4q12 -4 21 -4h16h12t22 4v109q-14 4 -22 4h-14h-13.5t-21.5 -4v-109z" />
<glyph unicode="&#x22;" horiz-adv-x="428" d="M113 1096q10 2 19 2h18h14t20 -2q-6 -61 -9 -102.5t-5 -69t-4 -45t-2 -31.5q-4 -2 -8 -2h-9h-8t-8 2q-6 66 -9 106.5l-5 67.5t-3 42t-1 32zM244 1096q10 2 19 2h18h14t20 -2q-6 -61 -9 -102.5t-5 -69t-4 -45t-2 -31.5q-4 -2 -8 -2h-8h-8.5t-8.5 2q-6 66 -9 106.5l-5 67.5 t-3 42t-1 32z" />
<glyph unicode="#" horiz-adv-x="1220" d="M113 326v11t2 15h164l106 357h-182q-2 10 -2 26v11.5t2 15.5h196q18 63 38 129.5t40 130.5q12 2 18.5 2h18.5l25 -2l-80 -260h411l78 260q12 2 18.5 2h18.5l25 -2l-80 -260h174q4 -10 4 -31q0 -14 -2 -22h-193l-110 -357h211q4 -10 4 -30q0 -14 -2 -23h-225l-93 -297 q-10 -2 -19 -2h-20h-22l92 299h-410l-92 -297q-10 -2 -37 -2h-24l94 299h-145q-2 10 -2 27zM334 352h414l106 357h-410z" />
<glyph unicode="$" horiz-adv-x="980" d="M106 72q0 16 10.5 33.5t20.5 29.5q92 -47 173 -62.5t141 -19.5v447q-61 20 -121 42.5t-106 53.5t-74.5 73t-28.5 101q0 137 88 195.5t242 66.5v115q12 2 20 2h18h13.5t19.5 -2v-113q35 0 76 -1t82 -4t79 -8t68 -13q-2 -16 -4 -33t-10 -33q-53 14 -134 21.5t-157 7.5v-422 q63 -20 126 -43t112 -53.5t78.5 -72.5t29.5 -99q0 -98 -30.5 -155.5t-79.5 -87.5t-110.5 -39t-125.5 -9v-113q-12 -2 -19 -2h-14h-18t-20 2v115q-41 2 -91.5 7t-97.5 15.5t-89 24.5t-67 33zM193 770q0 -39 21.5 -68.5t56 -53t81.5 -42t99 -35.5v398q-82 -4 -132.5 -19.5 t-78 -41t-37.5 -60.5t-10 -78zM522 53q55 0 104.5 7.5t87.5 31t60.5 67.5t22.5 122q0 39 -22.5 68.5t-60.5 53t-87 42t-105 34.5v-426z" />
<glyph unicode="%" horiz-adv-x="1159" d="M113 702v181q0 35 15 61.5t41 44t57.5 26.5t66.5 9q33 0 65.5 -9t59 -26.5t42 -44t15.5 -61.5v-181q0 -41 -15.5 -67.5t-40 -43t-57 -23.5t-69.5 -7q-72 0 -126 30t-54 111zM178 702q0 -35 24.5 -62.5t90.5 -27.5t92.5 28t26.5 62v181q0 27 -26.5 58.5t-92.5 31.5 t-90.5 -32t-24.5 -58v-181zM322 2l440 1016q12 4 19 5t22 1q23 0 33 -4l-443 -1014q-10 -4 -17 -5t-24 -1h-16t-14 2zM686 139v180q0 72 56.5 107t123.5 35q68 0 124.5 -35t56.5 -107v-180q0 -82 -54.5 -111.5t-126.5 -29.5t-126 29.5t-54 111.5zM750 139q0 -35 25.5 -61.5 t90.5 -26.5q66 0 92.5 26.5t26.5 61.5v180q0 27 -26.5 60t-92.5 33t-91 -33t-25 -60v-180z" />
<glyph unicode="&#x26;" horiz-adv-x="1048" d="M113 254q0 49 21.5 87t57 67.5t84 52t101.5 45.5q-45 74 -61.5 138.5t-16.5 121.5q0 59 6 108.5t29.5 85t69 55t124.5 19.5q78 0 124 -19.5t69.5 -55t31 -85t7.5 -108.5q0 -49 -22.5 -91t-60.5 -77t-90 -63.5t-114 -51.5q72 -86 153 -169t162 -150q33 55 52.5 121.5 t23.5 140.5q16 2 23.5 2h11.5t14.5 -1t22.5 -3q-4 -98 -30.5 -171t-67.5 -132l84 -82q-6 -10 -22.5 -23.5t-29.5 -17.5l-77 76q-78 -59 -156 -71.5t-143 -12.5q-72 0 -140.5 4t-122 28.5t-86 79t-32.5 152.5zM184 254q0 -74 17.5 -115t54.5 -60.5t95.5 -22.5t140.5 -3 q55 0 114.5 12.5t136.5 51.5l-112 106q-53 49 -113.5 109.5t-109.5 122.5q-49 -23 -90.5 -42.5t-71 -42t-46 -50t-16.5 -66.5zM371 766q0 -59 18.5 -116.5t52.5 -121.5q49 20 94.5 43t79 50.5t53 63.5t19.5 81q0 55 -2 94t-17.5 63.5t-48 36t-92.5 11.5q-59 0 -90.5 -11.5 t-46 -36t-17.5 -63.5t-3 -94z" />
<glyph unicode="'" horiz-adv-x="296" d="M113 1096q10 2 19 2h18h14t20 -2q-6 -61 -9 -102.5t-5 -69t-4 -45t-2 -31.5q-4 -2 -8 -2h-9h-8t-8 2q-6 66 -9 106.5l-5 67.5t-3 42t-1 32z" />
<glyph unicode="(" horiz-adv-x="360" d="M113 518q0 139 16 306t47 315q12 4 23.5 4h15.5h13.5t19.5 -2q-29 -145 -46.5 -312t-17.5 -311q0 -68 4.5 -147.5t12.5 -164.5t19 -168t26 -153q-10 -4 -29 -4h-20.5t-20.5 4q-16 72 -27.5 155t-19.5 166t-12 164t-4 148z" />
<glyph unicode=")" horiz-adv-x="360" d="M113 1141q12 2 19 2h13h15.5t23.5 -4q31 -147 47.5 -314.5t16.5 -306.5q0 -68 -4 -148.5t-12.5 -163.5t-20.5 -166t-27 -155q-10 -4 -20 -4h-21q-18 0 -28 4q14 70 25.5 153t19.5 168t12 165t4 147q0 143 -17.5 310t-45.5 313z" />
<glyph unicode="*" horiz-adv-x="737" d="M113 870q2 14 2 20.5t4 16.5q6 25 20 35l203 -74l-12 226q16 4 22 4h17h17t22 -4l-13 -226l203 74q14 -10 20 -35q4 -10 4.5 -16t2.5 -21l-222 -49l148 -155q-4 -23 -21 -41q-6 -8 -13 -12.5t-23 -12.5l-125 195l-125 -195q-16 8 -23.5 12t-13.5 13q-16 18 -21 41 l148 155z" />
<glyph unicode="+" horiz-adv-x="960" d="M113 383v12q0 18 2 27h331v334q10 2 18.5 2h14.5h15.5t21.5 -2v-334h330q2 -8 2 -27v-12t-2 -16h-330v-336q-16 -2 -22.5 -2h-12.5h-16t-19 2v336h-331q-2 10 -2 16z" />
<glyph unicode="," horiz-adv-x="292" d="M72 -74l37 185q10 4 21 5t15 1l35 -2l-63 -189q-6 -2 -13.5 -2h-11.5q-14 0 -20 2z" />
<glyph unicode="-" horiz-adv-x="741" d="M113 383v12q0 18 2 27h512q2 -8 2 -27v-12t-2 -16h-512q-2 10 -2 16z" />
<glyph unicode="." horiz-adv-x="296" d="M113 4v109q12 4 21 4h13h14.5t22.5 -4v-109q-14 -4 -22 -4h-12h-15.5t-21.5 4z" />
<glyph unicode="/" horiz-adv-x="538" d="M61 2q88 291 174.5 568.5t174.5 570.5q10 2 16 2h20q20 0 31 -2l-348 -1139q-10 -2 -16.5 -2h-20.5q-21 0 -31 2z" />
<glyph unicode="0" horiz-adv-x="968" d="M113 360v304q0 92 6 160.5t41 115.5t109.5 70.5t213.5 23.5q137 0 213 -23.5t112 -70.5t42 -115.5t6 -160.5v-304q0 -92 -6 -160.5t-42 -115.5t-111.5 -70.5t-213.5 -23.5q-139 0 -213.5 23.5t-109.5 70.5t-41 116.5t-6 159.5zM184 365q0 -88 5.5 -147.5t33 -96.5 t87.5 -52.5t173 -15.5t174.5 15.5t89 52.5t32.5 96t5 148v294q0 88 -5 147.5t-32.5 96.5t-89 52.5t-174.5 15.5t-173 -15.5t-87.5 -52.5t-33 -96t-5.5 -148v-294z" />
<glyph unicode="1" horiz-adv-x="573" d="M41 807l342 213q12 4 17.5 4h21.5h10t29 -4v-1018q-14 -2 -22.5 -2h-14.5h-15.5t-19.5 2v938q-141 -94 -210.5 -137t-86.5 -53q-14 4 -23.5 12t-13.5 14q-8 10 -14 31z" />
<glyph unicode="2" horiz-adv-x="872" d="M113 793q0 43 9 86t41 77.5t94 56t171 21.5q121 0 186.5 -25.5t95 -65.5t35 -88t5.5 -93q0 -63 -32 -122.5t-82 -116t-111.5 -112t-122 -111.5t-111.5 -114.5t-82 -122.5h549q2 -6 2 -15v-19q0 -18 -2 -29h-631q-2 10 -2 16.5v16.5t2 18t8 31q12 49 58.5 105.5 t106.5 113.5t127 116.5t122 119t92 116t37 107.5q0 47 -4 86t-26.5 66.5t-74 43t-143.5 15.5q-86 0 -134 -13.5t-72.5 -36t-32 -56.5t-7.5 -72q-14 -2 -22 -2h-15h-14t-20 2z" />
<glyph unicode="3" horiz-adv-x="845" d="M92 793q0 43 10.5 86t43 77.5t95 56t169.5 21.5q117 0 181 -25.5t95 -65.5t38 -88t7 -93q0 -29 -3 -60.5t-14.5 -63.5t-35 -63.5t-64.5 -62.5q43 -31 67 -61.5t35 -62.5t14 -62.5t3 -59.5q0 -47 -7 -96t-38 -89t-95.5 -65.5t-180.5 -25.5q-109 0 -171.5 21.5t-95 55 t-42 77.5t-9.5 87q14 2 21.5 2h15.5h13.5t21.5 -2q0 -41 8 -73.5t32.5 -55t74 -36t133.5 -13.5q92 0 143 15.5t73.5 43t27 66.5t4.5 86q0 45 -4.5 85t-29 68.5t-75.5 47t-143 20.5q-2 10 -2 16.5v12.5v25q92 2 143 18t74.5 46t28.5 70t5 87t-4 86t-26.5 66.5t-73.5 43 t-143 15.5q-86 0 -135.5 -13.5t-74 -36t-31.5 -56.5t-7 -72q-14 -2 -21.5 -2h-13.5h-15.5t-21.5 2z" />
<glyph unicode="4" horiz-adv-x="829" d="M31 334v33q0 10 1 22t5 31l457 600q18 4 36.5 4h40.5h20.5t20.5 -2v-625h131l5 -28v-35h-136v-332q-14 -2 -22 -2h-15h-15t-19 2v332h-510zM96 397h445v576z" />
<glyph unicode="5" horiz-adv-x="864" d="M113 221q14 2 20 2h14h16.5t20.5 -2q0 -39 8.5 -69.5t34 -52t74.5 -33t133 -11.5q92 0 142.5 19.5t73 51.5t26.5 75t4 90q0 45 -4 93t-26.5 86t-73 62.5t-142.5 24.5h-10q-29 0 -64.5 -2t-69.5 -10t-61.5 -24.5t-38.5 -43.5h-43h-19t-15 2v514v13.5t2 17.5h598 q2 -10 2 -29v-34h-531v-398q72 43 128.5 50.5t117.5 7.5q117 0 181.5 -34t96 -84t38 -107.5t6.5 -102.5q0 -47 -6.5 -100.5t-38 -98.5t-96 -74.5t-181.5 -29.5q-106 0 -168.5 19.5t-95.5 52t-43 74.5t-10 85z" />
<glyph unicode="6" horiz-adv-x="833" d="M113 293v450q0 82 24.5 138.5t69.5 90.5t107.5 48t138.5 14q53 0 125.5 -6t132.5 -20q-4 -14 -7.5 -29.5t-7.5 -28.5q-53 12 -124.5 16.5t-120.5 4.5q-59 0 -107.5 -9.5t-84.5 -33t-55.5 -65.5t-19.5 -105v-234q55 41 118 54.5t128 13.5q117 0 181.5 -30t96 -75t38 -97 t6.5 -97q0 -47 -6.5 -100.5t-38 -98.5t-96 -74.5t-181.5 -29.5q-115 0 -179.5 29.5t-95 74.5t-36.5 98.5t-6 100.5zM184 285q0 -47 4.5 -89t29 -74t74.5 -50.5t142 -18.5t142.5 19.5t73 52.5t26.5 76t4 90t-4 90t-26.5 74.5t-73 51t-142.5 19.5q-94 0 -144 -19.5t-73.5 -52 t-28 -76.5t-4.5 -93z" />
<glyph unicode="7" horiz-adv-x="747" d="M41 979v14q0 6 1 13.5t3 17.5h617l4 -29v-19.5t-4 -25.5t-37 -121q-14 -45 -36 -113.5t-52.5 -169t-71.5 -234.5t-94 -310q-12 -2 -24.5 -2h-16.5q-18 0 -29 2l289 959h-547q-2 14 -2 18z" />
<glyph unicode="8" horiz-adv-x="868" d="M113 762q0 45 6 93t36.5 88t95 65.5t179.5 25.5q117 0 181.5 -25.5t96 -65.5t38 -88t6.5 -93q0 -29 -3.5 -66t-14.5 -71.5t-34.5 -65.5t-64.5 -47q43 -23 66.5 -52.5t36 -63.5t15.5 -67.5t3 -62.5q0 -47 -7.5 -96t-38 -89t-95 -65.5t-181.5 -25.5t-181.5 25.5t-95 65.5 t-36.5 89t-6 96q0 29 2 61.5t13 66.5t34.5 63.5t64.5 52.5q-43 16 -66.5 46t-34.5 65.5t-13 72.5t-2 68zM184 760q0 -47 4.5 -87t28 -69t73.5 -44t144 -15q92 0 142.5 15t73 44t26.5 69t4 87t-4 86t-26.5 66.5t-73 43t-142.5 15.5q-94 0 -144 -15.5t-73.5 -43t-28 -66.5 t-4.5 -86zM186 264q0 -47 4.5 -86t28 -66.5t73.5 -43t144 -15.5q92 0 143.5 15.5t74 43t26.5 66.5t4 86t-4 87t-26.5 69t-74 44t-143.5 15q-94 0 -144 -15t-73.5 -44t-28 -69t-4.5 -87z" />
<glyph unicode="9" horiz-adv-x="823" d="M72 731q0 47 6 100.5t37.5 98.5t96 74.5t181.5 29.5q115 0 179.5 -29.5t95 -74.5t37 -98.5t6.5 -100.5v-450q0 -82 -24.5 -138.5t-70 -90.5t-108 -48t-137.5 -14q-53 0 -126 6t-132 20q4 14 7 29.5t7 28.5q53 -12 125 -16.5t121 -4.5q57 0 106 9.5t85 33t55.5 64.5 t19.5 106v234q-55 -41 -117.5 -54.5t-128.5 -13.5q-117 0 -181.5 30t-96 75t-37.5 97t-6 97zM143 733q0 -47 4.5 -90t27 -74.5t72.5 -51t142 -19.5q94 0 144.5 19.5t74 52t27.5 76.5t4 93q0 47 -4 89t-28.5 74t-75 50.5t-142.5 18.5t-142 -19.5t-72.5 -52.5t-27 -76 t-4.5 -90z" />
<glyph unicode=":" horiz-adv-x="296" d="M113 4v109q12 4 21 4h13h14.5t22.5 -4v-109q-14 -4 -22 -4h-12h-15.5t-21.5 4zM113 602v109q12 4 21 4h13h14.5t22.5 -4v-109q-14 -4 -22 -4h-12h-15.5t-21.5 4z" />
<glyph unicode=";" horiz-adv-x="292" d="M76 -74l37 185q10 4 21 5t16 1l34 -2l-63 -189q-6 -2 -13.5 -2h-11.5q-14 0 -20 2zM113 602v109q12 4 21 4h13h14.5t22.5 -4v-109q-14 -4 -22 -4h-12h-15.5t-21.5 4z" />
<glyph unicode="&#x3c;" horiz-adv-x="843" d="M113 360q0 29 1 41.5t7 24.5l608 260q2 -8 2 -24v-21.5t-2 -24.5l-555 -241h-10v-25h10l555 -246q2 -10 2 -21v-22q0 -4 -1 -11t-1 -15q-160 63 -305 133t-303 131q-6 10 -7 20t-1 41z" />
<glyph unicode="=" horiz-adv-x="741" d="M113 213v12q0 16 2 25h512q2 -8 2 -25v-12t-2 -16h-512q-2 10 -2 16zM113 530.5v12.5q0 18 2 26h512q2 -8 2 -26v-12.5t-2 -16.5h-512q-2 10 -2 16.5z" />
<glyph unicode="&#x3e;" horiz-adv-x="843" d="M113 61v21.5t2 21.5l555 246h10v25h-10l-555 241q-2 12 -2 23.5v22.5q0 16 2 24l608 -260q6 -12 7 -24.5t1 -41.5q0 -31 -1 -41t-7 -20q-158 -61 -303.5 -131t-304.5 -133q0 8 -1 15t-1 11z" />
<glyph unicode="?" horiz-adv-x="729" d="M113 995q47 23 105 31t112 8q139 0 212.5 -44t73.5 -161q0 -82 -44 -130t-97 -88t-97 -83t-44 -110v-223q-12 -4 -21.5 -4.5t-13.5 -0.5h-17.5t-19.5 5v225q0 53 20.5 91t52.5 67.5t68.5 54t68.5 51.5t52.5 61.5t20.5 83.5q0 39 -8.5 67t-31 44t-66.5 23.5t-113 7.5 q-123 0 -195 -35q-14 25 -18 59zM262 4v109q12 4 21.5 4h13.5h14t23 -4v-109q-14 -4 -22.5 -4h-12.5h-15.5t-21.5 4z" />
<glyph unicode="@" horiz-adv-x="1298" d="M113 272v473q0 74 37.5 129.5t97 90t133.5 52t145 17.5h246q72 0 145.5 -17.5t133 -52t97.5 -90t38 -129.5v-423q0 -80 -39 -113t-139 -33q-47 0 -77 10.5t-47.5 25.5t-23.5 34.5t-6 40.5h-10q-10 -31 -39 -50.5t-63.5 -29.5t-68.5 -13.5t-52 -3.5q-94 0 -148.5 25 t-83.5 64.5t-37 92t-8 105.5v86q0 53 7 103.5t33 88.5t78 60.5t142 22.5q8 0 37 -1t63.5 -9.5t66.5 -26t48 -49.5h12v86q10 2 23.5 2h22.5q14 0 20 -2v-504q0 -37 10.5 -56.5t26.5 -28.5t35.5 -10t38.5 -1q20 0 39.5 1t35 10t23.5 28.5t8 56.5v411q0 43 -20.5 84t-63.5 72 t-107.5 50.5t-150.5 19.5h-246q-86 0 -150.5 -19.5t-107.5 -50.5t-63.5 -72t-20.5 -84v-473q0 -61 28 -103t75 -67.5t108.5 -37t130.5 -11.5h246q78 0 142.5 4t113.5 33q12 -16 14 -24q4 -10 5.5 -15.5t3.5 -13.5q-47 -31 -119 -39t-160 -8h-246q-78 0 -151.5 13t-132 46 t-94 87t-35.5 136zM412 479q0 -37 3 -77t22.5 -73.5t62.5 -55t121 -21.5q80 0 121.5 21.5t62 55t23.5 73.5t3 77v115q0 35 -11 67.5t-36.5 57t-69.5 40t-112 15.5q-72 0 -110.5 -19.5t-56 -50t-20.5 -67.5t-3 -74v-84z" />
<glyph unicode="A" horiz-adv-x="937" d="M31 2l370 1014q23 6 31 7t37 1t37 -1t31 -7l370 -1014q-10 -2 -16 -2h-12h-25.5t-24.5 2l-122 342h-476l-122 -342q-12 -2 -23.5 -2h-26.5h-12t-16 2zM248 408h442l-209 548v9h-24v-9z" />
<glyph unicode="B" horiz-adv-x="960" d="M113 0v1024h419q68 0 128.5 -4t106.5 -29.5t73.5 -82t27.5 -158.5q0 -84 -24.5 -143.5t-91.5 -100.5q70 -41 93 -96.5t23 -133.5q0 -102 -27.5 -158.5t-73.5 -83t-106.5 -30.5t-128.5 -4h-419zM184 63h346q61 0 111.5 5.5t84.5 26t52.5 63.5t18.5 118q0 76 -26 117 t-64.5 60.5t-86 22.5t-90.5 3h-346v-416zM184 543h346q43 0 90.5 4t86 23.5t64.5 61.5t26 118t-18.5 118.5t-52.5 63t-83 25t-113 4.5h-346v-418z" />
<glyph unicode="C" horiz-adv-x="937" d="M92 356v310q0 104 31 174.5t88 113.5t137 61.5t176 18.5q33 0 74 -2t86 -6t88 -10t80 -15q-2 -14 -5 -28.5t-11 -28.5q-33 8 -73 13.5t-83 8.5t-85 4t-75 1q-168 0 -262 -68.5t-94 -220.5v-340q0 -152 94 -220.5t262 -68.5q33 0 76 2t86 5t84 8.5t74 13.5q12 -25 12 -59 q-37 -8 -80 -14.5t-88 -10.5t-86 -6t-74 -2q-96 0 -176 18.5t-137 61.5t-88 113.5t-31 172.5z" />
<glyph unicode="D" horiz-adv-x="985" d="M113 0v1024h338q96 0 176 -18.5t136 -62.5t88 -114.5t32 -175.5v-282q0 -104 -32 -175t-88 -115t-136 -62.5t-176 -18.5h-338zM184 63h271q68 0 132 14.5t114.5 48.5t80 89t29.5 139v316q0 82 -29.5 138t-80 90t-115 48.5t-131.5 14.5h-271v-898z" />
<glyph unicode="E" horiz-adv-x="874" d="M113 0v1024h663q2 -8 2 -16.5v-14.5v-14t-2 -18h-592v-418h518q2 -8 2.5 -16.5t0.5 -14.5v-14.5t-3 -18.5h-518v-416h592q2 -8 2 -16v-14v-14.5t-2 -18.5h-663z" />
<glyph unicode="F" horiz-adv-x="849" d="M113 2v1022h663q2 -8 2 -16.5v-14.5v-14t-2 -18h-592v-418h518q2 -8 2.5 -16.5t0.5 -14.5v-14.5t-3 -18.5h-518v-477q-12 -2 -21 -2h-16h-16t-18 2z" />
<glyph unicode="G" horiz-adv-x="989" d="M113 356v310q0 104 30.5 174.5t88 113.5t137.5 61.5t176 18.5q33 0 75 -2t87 -5t88 -9t77 -14q-2 -16 -4 -31t-8 -29q-33 8 -75 13.5t-85 8.5t-85 4t-74 1q-168 0 -262.5 -68.5t-94.5 -220.5v-340q0 -152 95.5 -220.5t261.5 -68.5q47 0 115.5 4t148.5 17v375h-195 q-2 10 -2 19v13v13.5t2 19.5h228l39 -4v-487q-37 -8 -81 -14.5t-88 -10.5t-87 -6t-76 -2q-96 0 -176 18.5t-137.5 61.5t-88 113.5t-30.5 172.5z" />
<glyph unicode="H" horiz-adv-x="972" d="M113 2v1020q10 2 18 2h16h14.5t22.5 -2v-473h604v473q12 2 20.5 2h16.5h14.5t20.5 -2v-1020q-12 -2 -20.5 -2h-14.5h-16t-21 2v483h-604v-483q-14 -2 -22 -2h-15h-16t-18 2z" />
<glyph unicode="I" horiz-adv-x="296" d="M113 2v1020q12 2 20 2h19h13t19 -2v-1020q-12 -2 -19 -2h-13h-18.5t-20.5 2z" />
<glyph unicode="J" horiz-adv-x="780" d="M92 182v47q10 2 18.5 2h14.5h19.5t19.5 -2v-32q0 -53 12 -82t40 -43.5t69 -16.5t100 -2q57 0 99 2t69 16.5t40 42t13 81.5v827q10 2 18.5 2h16.5h16.5t20.5 -2v-840q0 -47 -10.5 -83t-40 -60.5t-85 -36.5t-143.5 -12h-28q-92 0 -146.5 12t-84 36.5t-39 60.5t-9.5 83z" />
<glyph unicode="K" horiz-adv-x="995" d="M113 2v1020q10 2 19 2h18h14t20 -2v-524q170 125 355.5 261t355.5 265q10 -10 21.5 -25.5t21.5 -29.5l-401 -305q98 -164 202.5 -331t204.5 -331q-10 -2 -16 -2h-17h-22t-25 2l-389 623l-291 -213v-410q-12 -2 -20 -2h-14h-17.5t-19.5 2z" />
<glyph unicode="L" horiz-adv-x="798" d="M113 0v1022q10 2 18 2h16h16.5t20.5 -2v-959h561q2 -8 2.5 -16t0.5 -16v-14.5t-3 -16.5h-632z" />
<glyph unicode="M" horiz-adv-x="1255" d="M113 0v1016q31 6 45 7t43 1q12 0 23.5 -1t35.5 -7l367 -989l368 989q25 6 36 7t24 1q29 0 43 -1t45 -7v-1016h-72v969h-16v-8q-94 -238 -187.5 -475.5t-165.5 -481.5q-14 -4 -36.5 -4h-38.5h-37t-37 4q-72 244 -165 481.5t-187 475.5v8h-17v-969h-71z" />
<glyph unicode="N" horiz-adv-x="1062" d="M113 2v1014q25 6 38 7t42 1q6 0 19 -1t34 -5l612 -950v-13h21v967q10 2 18 2h16h15.5t21.5 -2v-1016q-29 -4 -44 -5t-42 -1h-23.5t-27.5 2q-70 119 -147.5 238.5t-158.5 240.5t-159 241t-147 239v8h-17v-967q-12 -2 -20 -2h-14h-17.5t-19.5 2z" />
<glyph unicode="O" horiz-adv-x="1003" d="M92 358v306q0 88 11.5 157.5t52.5 116.5t124 71.5t226 24.5q141 0 222 -24.5t122 -71.5t51 -116.5t10 -157.5v-306q0 -88 -10 -156.5t-51 -115.5t-122 -71.5t-222 -24.5q-145 0 -227 24.5t-124 71.5t-52.5 115.5t-10.5 156.5zM164 365q0 -88 11 -147.5t47 -96.5 t103.5 -52.5t180.5 -15.5q111 0 176.5 15.5t100 52.5t46 96t11.5 148v294q0 88 -11.5 147.5t-46 96.5t-100.5 52.5t-176 15.5q-113 0 -180.5 -15.5t-103.5 -52.5t-47 -96t-11 -148v-294z" />
<glyph unicode="P" horiz-adv-x="890" d="M113 2v1022h381q66 0 126 -6t107 -37t74.5 -94.5t27.5 -177.5q0 -117 -27.5 -182.5t-74.5 -98.5t-107.5 -41t-125.5 -8h-310v-377q-14 -2 -22 -2h-15h-16t-18 2zM184 442h308q53 0 101 4.5t85 30t58.5 79.5t21.5 153q0 92 -21.5 142t-57.5 74.5t-84 30t-103 5.5h-308 v-519z" />
<glyph unicode="Q" horiz-adv-x="1024" d="M102 358v306q0 88 11.5 157.5t52.5 116.5t124 71.5t226 24.5q141 0 222 -24.5t122 -71.5t51.5 -116.5t10.5 -157.5v-306q0 -86 -9.5 -153.5t-47.5 -113.5t-112.5 -72.5t-203.5 -28.5v-125q16 8 23.5 9t9.5 1h157q2 -8 3 -15t1 -18v-14t-2 -18h-157q-29 0 -55.5 12 t-45.5 33v135q-133 2 -208.5 28.5t-114.5 72.5t-48.5 113.5t-9.5 153.5zM174 365q0 -88 11.5 -147.5t47 -96.5t103 -52.5t180.5 -15.5q111 0 176.5 15.5t100 52.5t46 96t11.5 148v294q0 88 -11.5 147.5t-46 96.5t-100 52.5t-176.5 15.5q-113 0 -180.5 -15.5t-103 -52.5 t-47 -96t-11.5 -148v-294z" />
<glyph unicode="R" horiz-adv-x="960" d="M113 2v1022h411q66 0 126.5 -6t106.5 -37t73.5 -94.5t27.5 -177.5q0 -68 -12 -117t-32.5 -85t-47.5 -60.5t-57 -40.5q29 -98 63.5 -202t65.5 -202q-8 -2 -17.5 -2h-15.5h-41l-125 393q-31 -10 -61.5 -12t-53.5 -2h-340v-377q-14 -2 -22 -2h-15h-16t-18 2zM184 442h338 q43 0 90 7.5t85 35t63.5 80.5t25.5 144q0 92 -25.5 142t-63.5 74.5t-85 30t-90 5.5h-338v-519z" />
<glyph unicode="S" horiz-adv-x="937" d="M88 72q0 16 10.5 33.5t20.5 29.5q55 -29 108.5 -45t100.5 -24.5t86 -10.5t67 -2q57 0 110.5 5t95.5 28t66.5 69t24.5 126q0 61 -50 99t-125 65.5t-163 52t-162.5 58.5t-125 84t-50.5 130q0 74 27 125t77 82t121.5 43.5t159.5 13.5q35 0 78 -1t86 -4t84 -8.5t74 -12.5 q-2 -16 -4 -33t-10 -33q-27 6 -63 12.5t-76 9.5t-82 5t-80 2q-102 0 -165 -14.5t-96.5 -40t-46 -63.5t-12.5 -83q0 -61 50 -100t125 -69t163 -54.5t163 -58t125 -83t50 -124.5q0 -102 -33 -161t-86 -87.5t-118.5 -35.5t-131.5 -7q-41 0 -96 4t-111.5 14t-106.5 25.5 t-79 38.5z" />
<glyph unicode="T" horiz-adv-x="808" d="M39 978v15q0 20 4 31h723q4 -10 4 -31v-15t-2 -17h-328v-951q-12 -2 -20 -2h-14h-17.5t-19.5 2v951h-328q-2 10 -2 17z" />
<glyph unicode="U" horiz-adv-x="1024" d="M102 358v664q10 2 19.5 2h17.5h14.5t20.5 -2v-657q0 -88 11.5 -147.5t47 -96.5t103 -52.5t180.5 -15.5q111 0 176.5 15.5t101 52.5t46 96t10.5 148v657q10 2 18.5 2h16.5h14t23 -2v-664q0 -84 -8.5 -151.5t-48.5 -115.5t-120.5 -74.5t-228.5 -26.5q-150 0 -233.5 26.5 t-123.5 74.5t-48.5 115.5t-8.5 151.5z" />
<glyph unicode="V" horiz-adv-x="915" d="M31 1022q10 2 18 2h19h19t19 -2l338 -959v-14h27v14l338 959q10 2 19.5 2h19.5h18t19 -2q-86 -258 -177.5 -508t-177.5 -506q-12 -6 -26 -7t-47 -1t-46.5 1t-25.5 7q-86 256 -177 506t-177 508z" />
<glyph unicode="W" horiz-adv-x="1263" d="M31 1020q10 4 15 4h20h18t18 -2l240 -950v-17h20v15l242 759q10 2 29 2q16 0 26 -2l242 -759v-15h21v17l239 950q12 2 18.5 2h18.5h19.5t15.5 -4q-59 -256 -126 -506t-126 -506q-23 -6 -33 -7t-39 -1q-23 0 -35 1t-28 5l-213 682l-215 -682q-16 -4 -28.5 -5t-35.5 -1 q-29 0 -39 1t-32 7q-59 256 -126 506t-126 506z" />
<glyph unicode="X" horiz-adv-x="966" d="M31 1022q4 2 16 2h16h19.5t30.5 -2q90 -113 184 -230.5t186 -230.5q92 113 186.5 230.5t184.5 230.5q16 2 29.5 2h19.5h16.5t16.5 -2l-406 -518l398 -502q-16 -2 -21.5 -2h-13.5h-24.5t-34.5 2l-351 447l-350 -447q-20 -2 -34.5 -2h-24.5h-13.5t-21.5 2l397 502z" />
<glyph unicode="Y" horiz-adv-x="946" d="M51 1020q10 4 24.5 4h18.5h17.5t27.5 -2q78 -127 165 -257t169 -257q82 127 169 257t165 257q16 2 27.5 2h17.5h18.5t24.5 -4l-385 -580v-438q-12 -2 -20.5 -2h-16.5h-16t-19 2v438z" />
<glyph unicode="Z" horiz-adv-x="1003" d="M102 979v14v14.5t2 16.5h805q2 -12 2 -18.5v-12.5q0 -14 -6 -45l-719 -885h688q2 -10 2.5 -15t0.5 -13v-15.5t-3 -19.5h-770v27v21t5 30l722 883h-727q-2 8 -2 18z" />
<glyph unicode="[" horiz-adv-x="419" d="M113 -117v1258l34 2h158q2 -10 2 -17.5v-15.5q0 -23 -2 -31h-121v-1134h121q2 -10 2 -17.5v-15.5q0 -23 -2 -31h-155h-14.5t-22.5 2z" />
<glyph unicode="\" horiz-adv-x="538" d="M61 1141q10 2 31 2h20.5t16.5 -2q88 -293 174 -570.5t174 -568.5q-10 -2 -31 -2h-20t-16 2z" />
<glyph unicode="]" horiz-adv-x="421" d="M115 -73q0 7 2 18h121v1134h-121q-2 8 -2 31v15.5t2 17.5h157l35 -2v-1258q-14 -2 -22 -2h-15h-155q-2 8 -2 31v15z" />
<glyph unicode="^" horiz-adv-x="663" d="M113 543l155 473q16 6 25.5 7t38.5 1t38 -1t25 -7l156 -473q-10 -2 -15.5 -3t-11.5 -1h-19t-20 2l-143 422v8h-20v-8l-144 -422q-12 -2 -19 -2h-20q-6 0 -11 1z" />
<glyph unicode="_" horiz-adv-x="745" d="M0 -125q0 8 2 14h741q2 -6 2 -14v-14v-11.5t-2 -15.5h-741q-2 10 -2 15.5v11.5v14z" />
<glyph unicode="`" horiz-adv-x="342" d="M113 1096q8 2 24 2q8 0 20.5 -1t28.5 -3l43 -246q-2 -2 -16 -2t-20 2q-23 63 -41.5 124.5t-38.5 123.5z" />
<glyph unicode="a" horiz-adv-x="835" d="M76 236q0 68 27.5 111.5t73.5 70t103.5 38t116.5 11.5q27 0 59.5 -2t66.5 -5t66 -10.5t54 -15.5h8v107q0 127 -69.5 176t-223.5 49q-53 0 -98 -4t-94 -19q-4 12 -9 30t-7 30q59 16 117.5 21t111.5 5q78 0 141.5 -13t108.5 -47t69.5 -90t24.5 -140v-537q-8 -2 -18.5 -2 h-16.5h-15t-22 2v131q-39 -49 -75.5 -77.5t-73.5 -43t-74 -18.5t-74 -4q-145 0 -211.5 53.5t-66.5 192.5zM147 240q0 -182 205 -185q98 0 171 44t128 106v184q-47 6 -96 7t-74 1q-66 0 -126 -2t-106 -17.5t-74 -47t-28 -90.5z" />
<glyph unicode="b" horiz-adv-x="851" d="M113 2v1094q12 2 20 2h14h16.5t20.5 -2v-348h11q78 61 142.5 71t123.5 10q113 0 173 -25.5t88 -69.5t33 -102.5t5 -123.5v-199q0 -66 -6 -124t-38 -101t-97.5 -68.5t-184.5 -25.5q-25 0 -54.5 1t-61 10t-66.5 28.5t-68 54.5v-82q-8 -2 -19 -2h-18h-14t-20 2zM184 311 q0 -43 4.5 -88t28 -82t73.5 -61.5t144 -24.5t146.5 18.5t76 52.5t27.5 81t4 104v195q0 59 -3 107.5t-24.5 82t-67.5 52t-132 18.5q-80 0 -133.5 -19.5t-85 -50t-45 -71.5t-13.5 -84v-230z" />
<glyph unicode="c" horiz-adv-x="745" d="M86 285v250q0 84 25.5 140t71.5 91t109.5 49t141.5 14q27 0 59.5 -1t67.5 -4t69 -8t64 -13q-4 -14 -7 -29.5t-7 -25.5q-55 10 -127 14t-121 4q-59 0 -109.5 -10.5t-87 -35t-57 -66.5t-20.5 -107v-277q0 -66 20.5 -106.5t57 -65t87 -34t109.5 -9.5q51 0 122 4t126 19 q10 -33 14 -66q-31 -6 -65.5 -11t-69.5 -7t-67.5 -3t-57.5 -1q-78 0 -141.5 14t-109.5 49t-71.5 91.5t-25.5 140.5z" />
<glyph unicode="d" horiz-adv-x="851" d="M92 309v199q0 66 5 124t33 102t88 69.5t173 25.5q59 0 124 -10t142 -71h11v348q10 2 20 2h17h14t20 -2v-1094q-12 -2 -20 -2h-14h-17.5t-19.5 2v82q-33 -35 -68 -54.5t-66.5 -28.5t-61.5 -10t-54 -1q-119 0 -184.5 25.5t-97.5 68.5t-38 101.5t-6 123.5zM164 311 q0 -57 4 -104t27.5 -81t75 -52.5t147.5 -18.5q94 0 144 24.5t73.5 61.5t28 82t4.5 88v230q0 43 -13.5 84t-45 71.5t-85 50t-133.5 19.5q-86 0 -132 -18.5t-67.5 -52t-24.5 -82t-3 -107.5v-195z" />
<glyph unicode="e" horiz-adv-x="815" d="M92 285v184q0 98 14.5 167t51.5 112t100.5 62t161.5 19q104 0 166.5 -19t96.5 -59t45 -99.5t11 -137.5v-139h-575v-105q0 -66 21.5 -107.5t59.5 -65t89 -33t110 -9.5q27 0 60 1t67.5 3t68.5 7.5t62 11.5q4 -14 8.5 -32.5t6.5 -31.5q-59 -14 -138.5 -19t-132.5 -5 q-78 0 -142 14t-111.5 49t-74 91.5t-26.5 140.5zM164 442h504v117q0 47 -8.5 85t-34 65.5t-74.5 42t-131 14.5t-132 -16.5t-78 -54.5t-37 -100.5t-9 -152.5z" />
<glyph unicode="f" horiz-adv-x="571" d="M80 774v14v12.5t2 18.5h156v53q0 80 10 132.5t32.5 83t57.5 43t84 12.5q16 0 57 -2t92 -15l-12 -57q-41 6 -68.5 7t-50.5 1q-45 0 -70.5 -8t-39 -30.5t-17.5 -62.5t-4 -104v-53h248q4 -10 4 -18v-13v-14t-2 -18h-250v-754q-10 -2 -21.5 -2h-17.5h-14t-18 2v754h-156 q-2 10 -2 18z" />
<glyph unicode="g" horiz-adv-x="849" d="M92 311v197q0 68 5 126t33 101t89.5 68.5t173.5 25.5q10 0 45 -1t77 -9t81 -23.5t59 -45.5h11v67q10 2 20 2h16h14.5t20.5 -2v-901q0 -92 -24.5 -149.5t-68.5 -89t-107.5 -43t-139.5 -11.5q-53 0 -126.5 4t-133.5 21q4 14 7 29.5t8 27.5q27 -6 59.5 -9t66 -4t65.5 -2 t56 -1q57 0 106.5 9t85.5 32.5t55.5 64.5t19.5 107v172q-29 -31 -62 -48.5t-66.5 -25.5t-65.5 -9t-56 -1q-119 0 -184.5 25.5t-96.5 69.5t-37 102.5t-6 123.5zM164 313q0 -59 4 -106t27.5 -81t75 -52.5t145.5 -18.5t144 24.5t73.5 61.5t28 83t4.5 89v228q0 43 -13.5 84 t-45.5 72.5t-85 50t-133 18.5q-84 0 -130 -18.5t-67.5 -53.5t-24.5 -83t-3 -105v-193z" />
<glyph unicode="h" horiz-adv-x="864" d="M113 2v1094q12 2 20 2h14h16.5t20.5 -2v-346h17q25 31 55.5 46t65 23t69.5 9t66 1q90 0 148.5 -23.5t93 -63.5t49 -96t14.5 -120v-524q-10 -2 -20.5 -2h-16.5h-14.5t-20.5 2v485q0 53 -4 103.5t-26.5 89.5t-71.5 62.5t-139 23.5q-76 0 -126.5 -13.5t-81 -41t-44 -70.5 t-13.5 -100v-539q-8 -2 -19 -2h-18h-14t-20 2z" />
<glyph unicode="i" horiz-adv-x="296" d="M113 2v815q10 2 18 2h14h17.5t21.5 -2v-815q-10 -2 -21 -2h-18h-14t-18 2zM113 944v109q12 4 21 4h13h14.5t22.5 -4v-109q-14 -4 -22 -4h-12h-15.5t-21.5 4z" />
<glyph unicode="j" horiz-adv-x="309" d="M-195 -356q2 18 7.5 35.5t15.5 27.5q41 -10 67.5 -14t77.5 -4q94 0 123 49t29 164v915q10 2 18.5 2h14.5h17t22 -2v-915q0 -84 -12.5 -137.5t-37 -85t-63.5 -44t-92 -12.5t-93 2t-94 19zM125 944v109q12 4 21.5 4h13.5h14t23 -4v-109q-14 -4 -22.5 -4h-12.5h-15.5 t-21.5 4z" />
<glyph unicode="k" horiz-adv-x="868" d="M113 2v1094q12 2 20 2h14h16.5t20.5 -2v-611h15q6 10 43 27.5t120 69.5l363 227q8 -4 15.5 -13.5t4.5 -4.5q10 -10 14.5 -17.5t10.5 -23.5l-244 -154l303 -592q-6 -2 -12 -3t-16 -1h-22.5t-22.5 2l-289 561l-283 -178v-383q-10 -2 -21 -2h-18h-14t-18 2z" />
<glyph unicode="l" horiz-adv-x="296" d="M113 2v1020q10 2 18 2h14h17.5t21.5 -2v-1020q-10 -2 -21 -2h-18h-14t-18 2z" />
<glyph unicode="m" horiz-adv-x="1239" d="M113 2v815q10 2 15 2h13h13.5t23.5 -2l12 -65h13q18 29 45.5 45t58.5 23t62.5 8t60.5 1q66 0 117 -15t92 -62q23 29 56.5 45t68.5 23t68.5 8t56.5 1q80 0 129 -23.5t75.5 -64.5t36 -95t9.5 -118v-526q-8 -2 -18.5 -2h-16.5h-14.5t-22.5 2v485q0 53 -3 103.5t-19.5 89.5 t-52.5 62.5t-103 23.5q-23 0 -57.5 -3t-69.5 -12.5t-63.5 -26.5t-41.5 -44q8 -23 12.5 -40t6.5 -33.5t2 -35v-43.5v-526q-8 -2 -18.5 -2h-16.5h-16.5t-20.5 2v485q0 53 -7 103.5t-27.5 89.5t-58.5 62.5t-97 23.5q-70 0 -115 -12.5t-70.5 -38t-36 -66.5t-10.5 -98v-549 q-8 -2 -18 -2h-16h-14.5t-22.5 2z" />
<glyph unicode="n" horiz-adv-x="864" d="M113 2v815q10 2 15 2h13h13.5t23.5 -2l12 -67h11q25 31 55.5 46t65 23t69.5 9t66 1q90 0 148.5 -23.5t93 -63.5t49 -96t14.5 -120v-524q-10 -2 -20.5 -2h-16.5h-14.5t-20.5 2v485q0 53 -4 103.5t-26.5 89.5t-71.5 62.5t-139 23.5q-76 0 -126.5 -13.5t-81 -41t-44 -70.5 t-13.5 -100v-539q-8 -2 -19 -2h-18h-14t-20 2z" />
<glyph unicode="o" horiz-adv-x="831" d="M92 311v197q0 66 5 124t36 102t96.5 69.5t186.5 25.5t186.5 -25.5t96 -69.5t35.5 -102.5t5 -123.5v-197q0 -66 -5 -124t-35.5 -102t-96 -69.5t-186.5 -25.5t-186.5 25.5t-96.5 69.5t-36 102.5t-5 123.5zM164 313q0 -68 4 -117t27.5 -80.5t75 -46t145.5 -14.5t145 14.5 t74.5 46t28 81t4.5 116.5v193q0 70 -4.5 119t-28 80.5t-74.5 46t-145 14.5t-145.5 -14.5t-75 -45t-27.5 -81t-4 -119.5v-193z" />
<glyph unicode="p" horiz-adv-x="849" d="M113 -375v1192q12 2 20 2h14h16.5t20.5 -2v-67h11q20 31 59 46t81 23t77 9t45 1q113 0 174 -25.5t89 -68.5t33 -101.5t5 -125.5v-197q0 -66 -6.5 -124t-37 -102t-96 -69.5t-184.5 -25.5q-25 0 -56.5 1t-65 9t-67.5 25.5t-61 48.5v-449q-8 -2 -19 -2h-18h-14t-20 2z M184 313q0 -43 4.5 -89t28 -83t73.5 -61.5t144 -24.5t145.5 18.5t75 52.5t27.5 81t4 106v193q0 57 -3 105t-24.5 83t-67.5 53.5t-130 18.5q-80 0 -133.5 -18.5t-85 -50t-45 -72.5t-13.5 -84v-228z" />
<glyph unicode="q" horiz-adv-x="849" d="M92 311v197q0 68 5 126t33 101t89 68.5t174 25.5q10 0 45 -1t77 -9t81 -23.5t59 -45.5h11v67q10 2 20 2h16h14.5t20.5 -2v-1192q-12 -2 -20 -2h-15h-17t-19 2v449q-29 -31 -62 -48.5t-66.5 -25.5t-65.5 -9t-56 -1q-119 0 -184.5 25.5t-96.5 69.5t-37 102.5t-6 123.5z M164 313q0 -59 4 -106t27.5 -81t75 -52.5t145.5 -18.5t144 24.5t73.5 61.5t28 83t4.5 89v228q0 43 -13.5 84t-45.5 72.5t-85 50t-133 18.5q-84 0 -130 -18.5t-67.5 -53.5t-24.5 -83t-3 -105v-193z" />
<glyph unicode="r" horiz-adv-x="505" d="M113 2v815q10 2 16 2h14h16.5t16.5 -4l14 -63h13q20 25 57 39t78 20t82 7t72 1h8q2 -10 2 -17v-18q0 -10 -4 -30h-52q-76 0 -126 -11.5t-80.5 -37t-43 -65.5t-12.5 -97v-541q-10 -2 -20 -2h-17h-14t-20 2z" />
<glyph unicode="s" horiz-adv-x="751" d="M82 621q0 119 83 163.5t224 44.5q55 0 127 -6t125 -20q-4 -12 -6 -27.5t-6 -30.5q-45 10 -108.5 15.5t-127.5 5.5q-70 0 -116 -7t-73.5 -24.5t-38.5 -45t-11 -68.5q0 -47 38.5 -76t97 -52.5t127 -44t127 -50t97.5 -71.5t39 -108q0 -127 -66.5 -178t-228.5 -51 q-31 0 -68.5 2t-76.5 7t-76 11t-66 15q2 39 17 65q29 -10 66.5 -16t74.5 -10.5t71.5 -6.5t57.5 -2q70 0 114 8.5t68.5 28t32.5 51t8 76.5q0 49 -39 81t-97 55.5t-127 45t-127 50t-97 68.5t-39 102z" />
<glyph unicode="t" horiz-adv-x="505" d="M27 775v16v12t2 16h157v252q12 2 19.5 2h13.5h19.5t19.5 -2v-252h180q2 -10 2 -16v-12v-15.5t-2 -19.5h-180v-525q0 -47 3 -78.5t18.5 -50t47 -27.5t87.5 -9h24q2 -12 2 -19.5v-15.5v-13.5t-2 -17.5h-22q-66 0 -109 10t-70.5 37t-39 72t-11.5 112v525h-157q-2 10 -2 19z " />
<glyph unicode="u" horiz-adv-x="854" d="M92 293v524q10 2 20.5 2h16.5h14.5t20.5 -2v-485q0 -53 4 -103.5t26.5 -89.5t71.5 -62.5t140 -23.5q150 0 207 54.5t57 171.5v538q8 2 19 2h18h14t20 -2v-815q-10 -2 -15 -2h-13h-13.5t-23.5 2l-12 68h-11q-25 -31 -55.5 -46.5t-65 -23.5t-69.5 -9t-66 -1 q-90 0 -148.5 23.5t-93 63.5t-49 95t-14.5 121z" />
<glyph unicode="v" horiz-adv-x="778" d="M31 817q8 2 15 2h13h28t13 -2l281 -751v-11h16v11l281 751q8 2 13 2h28h13t16 -2q-70 -205 -149 -404.5t-150 -404.5q-23 -6 -36.5 -7t-23.5 -1t-23.5 1t-35.5 7q-72 205 -151 404.5t-148 404.5z" />
<glyph unicode="w" horiz-adv-x="1015" d="M78 815q8 2 11 3t17 1h22.5t18.5 -2l121 -749v-13h25v11l176 522q12 4 20.5 5t18.5 1t18.5 -1t20.5 -5l176 -522v-11h25v13l120 749q10 2 18.5 2h22.5t17.5 -1t11.5 -3l-125 -809q-23 -4 -37 -5t-43 -1h-36t-31 4l-152 438h-12l-152 -438q-20 -4 -31.5 -4h-35.5 q-29 0 -43.5 1t-36.5 5z" />
<glyph unicode="x" horiz-adv-x="839" d="M51 813q14 6 33 6h26.5t26.5 -4l283 -358l282 358q8 4 27 4h27q16 0 32 -6l-323 -412l315 -397q-8 -4 -28 -4h-28.5t-37.5 4l-266 340l-266 -340q-18 -4 -37 -4h-29q-20 0 -29 4l316 397z" />
<glyph unicode="y" horiz-adv-x="763" d="M31 815l6 2q6 2 15 2h14h16t16 -4l273 -729v-14h22v14l273 729q4 4 16 4h16h13.5t15.5 -2l6 -2q-23 -68 -57.5 -164t-75.5 -205.5t-84 -226.5t-84 -226.5t-75.5 -204.5t-57.5 -163q-6 -2 -29 -2q-10 0 -19 1t-18 5l109 301q10 31 22.5 45.5t22.5 20.5v8q-20 0 -33.5 1 t-29.5 7q-70 203 -147 400.5t-146 402.5z" />
<glyph unicode="z" horiz-adv-x="784" d="M82 775v13q0 20 4 31h612v-24v-21.5t-4 -28.5q-25 -31 -88 -112q-53 -72 -156.5 -206t-275.5 -361h524q4 -10 4 -31v-13.5t-4 -21.5h-612q-2 12 -2 16v11q0 33 3 39l5 10l531 678h-537q-4 14 -4 21z" />
<glyph unicode="{" horiz-adv-x="589" d="M113 498.5v9.5v11t2 18q37 2 62.5 10t42 31.5t23.5 64.5t7 109v307q0 23 19.5 53.5t66.5 30.5h139q2 -10 2 -31v-15t-2 -18h-72q-37 0 -59 -10t-22 -65v-252q0 -84 -20.5 -140.5t-55.5 -99.5q37 -41 56.5 -91t19.5 -132v-269q0 -55 22.5 -65t58.5 -10h72q2 -10 2 -31 v-15.5t-2 -17.5h-141q-47 0 -65.5 31t-18.5 53v309q0 68 -7 109t-23.5 62.5t-42 28.5t-62.5 9q-2 10 -2 15.5z" />
<glyph unicode="|" horiz-adv-x="296" d="M113 -117v1258q12 2 20 2h14h16.5t20.5 -2v-1258q-10 -2 -20 -2h-17h-14t-20 2z" />
<glyph unicode="}" horiz-adv-x="589" d="M113 -86q0 20 2 31h71q37 0 59.5 10t22.5 65v269q0 82 19.5 132t56.5 91q-35 43 -55.5 99.5t-20.5 140.5v252q0 55 -22.5 65t-59.5 10h-71q-2 10 -2 17.5v15.5q0 20 2 31h139q47 0 66.5 -31t19.5 -53v-307q0 -68 7 -109t23.5 -64.5t42 -31.5t62.5 -10q2 -10 2 -17.5 v-11.5v-9t-2 -16q-37 -2 -62.5 -9t-42 -28.5t-23.5 -62.5t-7 -109v-309q0 -23 -18.5 -53.5t-65.5 -30.5h-141q-2 10 -2 17.5v15.5z" />
<glyph unicode="~" horiz-adv-x="948" d="M113 518q37 29 76.5 39t86.5 10q51 0 101.5 -20.5t99.5 -44t98.5 -44t98.5 -20.5q45 0 69.5 8.5t59.5 36.5q6 -6 10 -11t8 -11q8 -10 15 -27q-33 -29 -74 -40t-90 -11q-51 0 -100.5 20.5t-98.5 44t-98 44t-99 20.5q-47 0 -71.5 -7t-57.5 -36q-6 6 -18 20q-6 8 -11 16.5 t-5 12.5z" />
<glyph unicode="&#xad;" horiz-adv-x="741" d="M113 383v12q0 18 2 27h512q2 -8 2 -27v-12t-2 -16h-512q-2 10 -2 16z" />
<glyph unicode="&#xbc;" horiz-adv-x="1093" d="M96 889l203 131q12 2 21.5 3t15.5 1q8 0 11 -1t15 -3v-612q-12 -2 -18 -3.5t-12 -1.5q-8 0 -14.5 1.5t-18.5 3.5v542q-37 -25 -79 -55.5t-83 -52.5q-8 4 -14 11t-10 11l-10.5 10.5t-6.5 14.5zM307 6l451 1016q10 2 37 2h19t15 -4l-456 -1014q-10 -4 -14.5 -5t-14.5 -1 q-16 0 -22.5 1t-14.5 5zM592 217q0 8 1 16.5t3 20.5l235 362q12 4 24 4.5t26 0.5h22t19 -5v-362h71q4 -12 4 -16.5v-10.5v-14t-4 -18h-71v-191q-16 -4 -22.5 -4h-10.5h-15.5t-15.5 4v191h-262q-2 12 -3 14t-1 8zM674 254h184v293z" />
<glyph unicode="&#xbd;" horiz-adv-x="1216" d="M96 889l203 131q12 2 21.5 3t15.5 1q8 0 11 -1t15 -3v-612q-12 -2 -18 -3.5t-12 -1.5q-8 0 -14.5 1.5t-18.5 3.5v542q-37 -25 -79 -55.5t-83 -52.5q-8 4 -14 11t-10 11l-10.5 10.5t-6.5 14.5zM307 6l451 1016q10 2 37 2h19t15 -4l-456 -1014q-10 -4 -14.5 -5t-14.5 -1 q-16 0 -22.5 1t-14.5 5zM698 446q0 29 5.5 60t27 56.5t63.5 42t115 16.5q72 0 114 -16.5t63.5 -41t27.5 -55.5t6 -59q0 -59 -47 -110.5t-106.5 -100t-114.5 -92.5t-74 -87h338q4 -12 4 -18v-12v-9.5t-4 -19.5h-407q-2 14 -3 20.5t-1 12.5q0 14 6 39q10 39 39.5 71.5 t67.5 63.5t81 59.5t78 57t57.5 59.5t22.5 63q0 43 -30 79t-118 36q-45 0 -73.5 -10t-45 -25.5t-22.5 -37t-6 -42.5q-12 -4 -21.5 -4h-13.5h-9t-20 4z" />
<glyph unicode="&#xbe;" horiz-adv-x="1169" d="M96 881q0 27 5 53.5t24.5 49t59.5 36.5t112 14q76 0 119 -15t64.5 -40t25.5 -53.5t4 -55.5q0 -35 -15.5 -72.5t-58.5 -72.5q43 -31 58.5 -70t15.5 -73q0 -29 -4 -58.5t-24.5 -54.5t-62.5 -40t-118 -15q-74 0 -114 14t-60.5 36.5t-24.5 50t-4 54.5q14 4 19.5 4h9.5h13.5 t21.5 -4q0 -23 3 -41t17.5 -30.5t42 -18.5t74.5 -6q51 0 80 7t44 20.5t19 34t4 47.5q0 25 -4 47t-19 37.5t-46 25.5t-86 10q-2 10 -2 15.5v9.5v9t2 16q51 2 83 10t47 23.5t20 37t5 45.5q0 27 -4 46.5t-19 33t-45 20.5t-81 7q-49 0 -76.5 -6t-41 -17.5t-16.5 -29t-3 -41.5 q-12 -4 -21.5 -4h-13.5h-9t-20 4zM383 6l451 1016q10 2 36 2h19.5t15.5 -4l-456 -1014q-10 -4 -14.5 -5t-14.5 -1q-16 0 -22.5 1t-14.5 5zM668 217q0 -6 1 -8t3 -14h262v-191q10 -4 15 -4h16h10t22 4v191h72q4 12 4 18v14v10.5t-4 16.5h-72v362q-10 4 -18.5 4.5t-22.5 0.5 h-25t-24 -5l-235 -362q-2 -12 -3 -20.5t-1 -16.5zM750 254l184 293v-293h-184z" />
<glyph unicode="&#xbf;" horiz-adv-x="727" d="M111 0q0 82 44 130t97 88t97 83t44 111v223q12 4 21.5 4h13.5h17.5t19.5 -4v-225q0 -53 -20.5 -91t-52.5 -68t-68.5 -54.5t-68.5 -51t-52.5 -61.5t-20.5 -84q0 -41 8.5 -67.5t31 -43t65.5 -23.5t114 -7q123 0 195 35q14 -25 18 -60q-47 -23 -105 -31t-112 -8 q-139 0 -212.5 44t-73.5 161zM393 717v108q14 4 22.5 4h12.5h15.5t21.5 -4v-108q-12 -4 -21.5 -4h-13.5h-14t-23 4z" />
<glyph unicode="&#xff;" horiz-adv-x="1941" />
<glyph unicode="&#xe01;" horiz-adv-x="841" d="M96 764v35q68 23 133.5 26.5t141.5 3.5q186 0 280 -90t94 -280v-457q-8 -2 -18 -2h-16h-14.5t-22.5 2v451q0 154 -71 232.5t-228 78.5h-88q-41 -55 -61.5 -103.5t-30.5 -82.5q-12 -41 -15 -76v-500q-8 -2 -19 -2h-18h-14t-20 2v504q0 51 13 96t30.5 78t32 52.5t18.5 21.5 v10h-107z" />
<glyph unicode="&#xe02;" horiz-adv-x="714" d="M72 773v15v13.5t2 17.5h155v-110q-14 -6 -25 -20.5t-19.5 -45.5t-13.5 -84t-5 -137v-229q0 -23 7 -46.5t28.5 -44t58.5 -34t98 -13.5q59 0 96.5 13.5t57.5 33t27.5 43t7.5 45.5v627q10 2 21.5 2h15.5h14t20 -2v-631q0 -18 -5 -51t-28.5 -65.5t-72.5 -56t-139 -23.5h-29 q-92 0 -142 23.5t-74 56t-29 65.5t-5 51v236q0 88 4 143.5t13.5 90t21.5 52t31 29.5v17h-90q-2 10 -2 19z" />
<glyph unicode="&#xe03;" horiz-adv-x="686" d="M51 770.5v22.5v12t2 14h45l2 -4q0 -4 1 -8t1 -8h50l4 8l6 12h39v-123q-14 -6 -25.5 -20t-20 -45t-13.5 -84t-5 -137v-217q0 -23 7.5 -46.5t29 -44t58 -34t98.5 -13.5q59 0 96 13.5t57.5 33t27.5 43t7 45.5v627q10 2 21.5 2h15.5h14.5t20.5 -2v-631q0 -18 -5 -51 t-29 -65.5t-73 -56t-139 -23.5h-29q-92 0 -142 23.5t-73.5 56t-28.5 65.5t-5 51v224q0 88 4 143t13 90t21.5 52.5t30.5 29.5v16h-80q-4 16 -4 29.5z" />
<glyph unicode="&#xe04;" horiz-adv-x="808" d="M72 2v465q0 68 6 133.5t36.5 116.5t95 81.5t181.5 30.5t182.5 -30.5t96 -81.5t37 -116.5t6.5 -133.5v-465q-8 -2 -18.5 -2h-16.5h-15.5t-21.5 2v494q0 43 -4 90t-28.5 87t-75 65.5t-142.5 25.5t-142 -25.5t-73.5 -65.5t-28 -87t-4.5 -90v-115h13q12 6 34.5 10t48 6t53 3 t48.5 1h41v-32v-14.5t-4 -18.5h-43q-47 0 -95.5 -5t-95.5 -34v-295q-8 -2 -18 -2h-16h-14.5t-22.5 2z" />
<glyph unicode="&#xe05;" horiz-adv-x="819" d="M72 2v463q0 61 5 119.5t25.5 107.5t61.5 85t110 52l117 -53h12l117 53q70 -16 111 -52t61.5 -85t25.5 -107.5t5 -119.5v-463q-8 -2 -18.5 -2h-16.5h-15t-22 2v455q0 43 -2 89t-14 87t-39 75.5t-76 57.5l-117 -55h-12l-117 55q-49 -23 -75.5 -57.5t-39 -75.5t-14.5 -87 t-2 -89v-76h13q12 6 34.5 10t48 6t53 3t48.5 1h41v-32v-14.5t-4 -18.5h-43q-47 0 -95.5 -5t-95.5 -34v-295q-12 -2 -21 -2h-16h-16t-18 2z" />
<glyph unicode="&#xe06;" horiz-adv-x="792" d="M45 770.5v22.5v12t2 14h45l2 -4q0 -4 1 -8t1 -8h49l5 8l6 12h39v-123q-14 -6 -25.5 -20t-20 -45t-13.5 -84t-5 -137v-109q0 -127 72.5 -186.5t224.5 -59.5q59 0 98 19.5t60.5 57.5t30 91t8.5 121v473q10 2 20 2h14h17.5t19.5 -2v-526q0 -66 -12 -120t-42 -95t-82 -63.5 t-132 -22.5q-12 0 -54 2t-88 11t-87 29.5t-52 59.5v8h-12l-14 -98q-12 -2 -19.5 -2h-13.5q-18 0 -29 2v408q0 88 4.5 143t13.5 90t21.5 52.5t30.5 29.5v16h-80q-4 16 -4 29.5z" />
<glyph unicode="&#xe07;" horiz-adv-x="647" d="M41 307q14 6 32.5 12.5t37.5 8.5q16 -55 39.5 -113.5t60.5 -151.5v-8h12q49 4 99.5 29t90.5 69t65.5 109.5t25.5 151.5q0 70 -3 132t-23.5 108t-62.5 73t-122 27h-37q-2 14 -2 22v15v10t2 18h37q100 0 157.5 -32.5t85 -88t33.5 -129t6 -155.5t-23.5 -158t-68.5 -135.5 t-112.5 -95t-153.5 -35.5h-30.5t-30.5 4q-29 78 -57.5 156.5t-57.5 156.5z" />
<glyph unicode="&#xe08;" horiz-adv-x="727" d="M41 799q29 8 65.5 14t73.5 9t68 5t49 2q76 0 139.5 -14t109.5 -49t70.5 -91.5t24.5 -139.5v-132q0 -78 -11.5 -150.5t-42 -128.5t-88 -90t-149.5 -34q-23 0 -59.5 1t-59.5 7l-28 328h-101v8q-2 10 -2 23v34h166l29 -335h59q66 6 108 27.5t65.5 62.5t32.5 102t9 145v144 q0 66 -20.5 107.5t-56 66t-85 34t-108.5 9.5q-53 0 -120.5 -8t-121.5 -19q-12 31 -16 62z" />
<glyph unicode="&#xe09;" horiz-adv-x="804" d="M72 291v192q10 2 19 2h18h14t20 -2v-139q0 -68 8.5 -121t30 -91t60.5 -57.5t98 -19.5q152 0 224.5 59.5t72.5 186.5v246q0 66 -19.5 107.5t-55.5 66t-86 34t-111 9.5q-53 0 -120 -8t-120 -21q-10 29 -14 62q59 16 130.5 24t120.5 8q78 0 142.5 -14t109.5 -49t70 -91.5 t25 -139.5v-533q-10 -2 -29 -2h-13.5t-19.5 2l-14 98h-12v-8q-10 -39 -51.5 -59.5t-87.5 -29.5t-88 -11t-54 -2q-80 0 -132 22.5t-82 63.5t-42 95t-12 120z" />
<glyph unicode="&#xe0a;" horiz-adv-x="761" d="M72 773v15v13.5t2 17.5h155v-110q-14 -6 -25 -20.5t-19.5 -45.5t-13.5 -84t-5 -137v-234q0 -23 11 -46t37 -42.5t67 -32t98 -12.5q59 0 100 12.5t66.5 31t37 42t11.5 45.5v314q0 35 -2 66.5t-13.5 56t-36 39t-69.5 14.5h-33q-4 10 -4 33v18t4 18h35q45 0 68.5 10.5t35 27 t13.5 36t2 39.5v39q8 2 18.5 2h18.5h17t18 -2v-39q0 -10 -2 -33.5t-11.5 -48t-30 -43t-59.5 -18.5v-8q51 0 77 -53.5t26 -153.5v-314q0 -18 -8.5 -52t-36 -65.5t-82 -55t-146.5 -23.5h-28q-92 0 -146.5 23.5t-82 55t-35 65.5t-7.5 52v236q0 88 4 143.5t13.5 90t21.5 52 t31 29.5v17h-90q-2 10 -2 19z" />
<glyph unicode="&#xe0b;" horiz-adv-x="733" d="M51 770.5v22.5v12t2 14h45l2 -4q0 -4 1 -8t1 -8h50l4 8l6 12h39v-123q-14 -6 -25.5 -20t-20 -45t-13.5 -84t-5 -137v-222q0 -23 11.5 -46t37 -42.5t66.5 -32t98 -12.5q59 0 100.5 12.5t67 31t36.5 42t11 45.5v314q0 35 -2 66.5t-13 56t-36 39t-70 14.5h-32q-4 10 -4 33 v18t4 18h34q45 0 69 10.5t35 27t13 36t2 39.5v39q8 2 18.5 2h18.5h17.5t17.5 -2v-39q0 -10 -2 -33.5t-11.5 -48t-30 -43t-58.5 -18.5v-8q51 0 76.5 -53.5t25.5 -153.5v-314q0 -18 -8 -52t-36 -65.5t-82 -55t-146 -23.5h-29q-92 0 -146.5 23.5t-82 55t-34.5 65.5t-7 52v224 q0 88 4 143t13 90t21.5 52.5t30.5 29.5v16h-80q-4 16 -4 29.5z" />
<glyph unicode="&#xe0c;" horiz-adv-x="1357" d="M96 764v35q68 23 133.5 26.5t141.5 3.5q186 0 280 -90t94 -280v-144q0 -115 66 -187.5t213 -72.5q61 0 95 21.5t49.5 58.5t18.5 84t3 98v500q10 2 18.5 2h14.5h15t24 -2v-526q0 -66 -10.5 -120t-37 -95t-72.5 -63.5t-118 -22.5q-12 0 -49 2t-80 12t-81 30.5t-52 57.5v8 h-12l-15 -98q-12 -2 -19 -2h-14q-18 0 -28 2v451q0 154 -71 232.5t-228 78.5h-88q-41 -55 -61.5 -103.5t-30.5 -82.5q-12 -41 -15 -76v-436h115q2 -12 2 -19.5v-15.5v-13.5t-2 -17.5h-154h-10t-22 2v504q0 51 13 96t30.5 78t32 52.5t18.5 21.5v10h-107z" />
<glyph unicode="&#xe0d;" horiz-adv-x="1351" d="M96 764v35q68 23 133.5 26.5t141.5 3.5q186 0 280 -90t94 -280v-146q0 -51 2.5 -97t17.5 -82t48 -57.5t92 -21.5q150 0 214.5 60.5t64.5 191.5v510q10 2 18 2h17h15t21 -2v-747q0 -66 -10 -119t-36.5 -91t-71.5 -59.5t-115 -21.5h-297q-2 10 -2 20.5v14.5v30h299 q59 0 92 18.5t48.5 52.5t17.5 81t2 104h-15v-8q0 -35 -29.5 -55.5t-68.5 -30.5t-75 -13t-48 -3q-90 0 -144 22.5t-83 62.5t-37 94t-8 118v166q0 154 -71 232.5t-228 78.5h-88q-41 -55 -61.5 -103.5t-30.5 -82.5q-12 -41 -15 -76v-436h115q2 -12 2 -19.5v-15.5v-13.5 t-2 -17.5h-154h-10t-22 2v504q0 51 13 96t30.5 78t32 52.5t18.5 21.5v10h-107z" />
<glyph unicode="&#xe0e;" horiz-adv-x="878" d="M61 17.5v13.5v15t2 20h82v440q0 51 13.5 96t31 78t32 52.5t18.5 21.5v10h-107v35q68 23 133.5 26.5t141.5 3.5q186 0 280 -90t94 -280v-525q0 -104 -3 -169.5t-21.5 -102.5t-59.5 -50t-116 -13h-426q-2 10 -2 21v15v29h428q49 0 74.5 10.5t38 40t14.5 81.5t2 138v519 q0 154 -71 232.5t-228 78.5h-88q-41 -55 -61.5 -103.5t-31.5 -82.5q-12 -41 -14 -76v-500q-16 -2 -22.5 -2h-10.5h-121q-2 8 -2 17.5z" />
<glyph unicode="&#xe0f;" horiz-adv-x="878" d="M61 17.5v13.5v15t2 20h82v440q0 51 13.5 96t31 78t32 52.5t18.5 21.5v10h-107v35q68 23 133.5 26.5t141.5 3.5q186 0 280 -90t94 -280v-525q0 -104 -3 -169.5t-21.5 -102.5t-59.5 -50t-116 -13h-97l-104 55h-10l-101 -55h-114q-2 10 -2 21v15v29h114l103 62h10l104 -62 h97q49 0 74.5 10.5t38 40t14.5 81.5t2 138v519q0 154 -71 232.5t-228 78.5h-88q-41 -55 -61.5 -103.5t-31.5 -82.5q-12 -41 -14 -76v-500q-16 -2 -22.5 -2h-10.5h-121q-2 8 -2 17.5z" />
<glyph unicode="&#xe10;" horiz-adv-x="731" d="M41 799q57 16 130 23t126 7q90 0 168 -22v27q31 45 100 45h76v-33q0 -23 -2 -33h-76q-2 0 -7 1t-26 5v-43q53 -35 82 -92t29 -149v-132q0 -78 -11.5 -150.5t-42 -128.5t-88 -90t-149.5 -34q-23 0 -59.5 1t-59.5 7l-28 328h-101v8q-2 10 -2 23v34h166l29 -335h59 q66 6 108 27.5t65.5 62.5t32.5 102t9 145v144q0 66 -20.5 107.5t-56 66t-85 34t-108.5 9.5q-53 0 -120.5 -8t-121.5 -19q-12 31 -16 62zM145 -190.5q0 8.5 2 18.5h52l108 51h10l107 -51h25q47 0 73.5 2t38.5 13.5t15.5 36t3.5 69.5v14q10 2 17 2h13h14.5t20.5 -2v-14 q0 -55 -3 -92t-21.5 -57.5t-58.5 -29t-113 -8.5h-23l-109 52h-14l-104 -52h-52q-2 10 -2 18.5v14.5v14.5z" />
<glyph unicode="&#xe11;" horiz-adv-x="794" d="M45 770.5v22.5v12t2 14h45l2 -4q0 -4 1 -8t1 -8h49l5 8l6 12h39v-74h16q14 27 38.5 44.5t55.5 25.5t63.5 11t63.5 3q72 0 122 -23.5t83 -63.5t47 -95t14 -119v-526q-8 -2 -19 -2h-17h-14.5t-20.5 2v473q0 51 -8.5 103.5t-30 93.5t-59 66.5t-97.5 25.5q-162 0 -230.5 -84 t-68.5 -258v-420q-8 -2 -19.5 -2h-17.5h-14t-21 2v430q0 84 11.5 137.5t25.5 87.5q16 37 37 62v22h-86q-4 16 -4 29.5z" />
<glyph unicode="&#xe12;" horiz-adv-x="1335" d="M72 233v232q0 61 5 119.5t25.5 107.5t61.5 85t110 52l117 -53h12l117 53q70 -16 111 -52t61.5 -85t25.5 -107.5t5 -119.5v-150q0 -115 65.5 -187.5t212.5 -72.5q61 0 95 21.5t49.5 58.5t18.5 84t3 98v500q10 2 18.5 2h14.5h15.5t23.5 -2v-526q0 -66 -10 -120t-37 -95 t-73 -63.5t-118 -22.5q-12 0 -49 2t-80 12t-80.5 30.5t-52.5 57.5v8h-12l-14 -98q-12 -2 -19.5 -2h-13.5q-18 0 -29 2v455q0 43 -2 89t-14 87t-39 75.5t-76 57.5l-117 -55h-12l-117 55q-49 -23 -75.5 -57.5t-39 -75.5t-14.5 -87t-2 -89v-219q0 -49 4.5 -82t21.5 -52.5 t49 -28.5t87 -9h23q2 -12 2 -19.5v-15.5v-13.5t-2 -17.5h-21q-68 0 -112.5 11.5t-72.5 38t-39 71.5t-11 112z" />
<glyph unicode="&#xe13;" horiz-adv-x="1357" d="M96 764v35q68 23 133.5 26.5t141.5 3.5q186 0 280 -90t94 -280v-142q0 -51 3.5 -98t18.5 -84t49 -58.5t95 -21.5q147 0 213 73t66 187v502q14 2 23.5 2h15.5h14t19 -2v-815q-10 -2 -29 -2h-13.5t-19.5 2l-14 98h-12v-8q-14 -37 -52.5 -57.5t-81.5 -30.5t-79.5 -12 t-49.5 -2q-72 0 -117.5 19.5t-72.5 58t-37 95t-10 128.5v162q0 154 -71 232.5t-228 78.5h-88q-41 -55 -61.5 -103.5t-30.5 -82.5q-12 -41 -15 -76v-436h115q2 -12 2 -19.5v-15.5v-13.5t-2 -17.5h-154h-10t-22 2v504q0 51 13 96t30.5 78t32 52.5t18.5 21.5v10h-107z" />
<glyph unicode="&#xe14;" horiz-adv-x="819" d="M72 233v232q0 68 7 133.5t40 116.5t98 82.5t180 31.5t180.5 -31.5t97.5 -82.5t40 -117t8 -133v-463q-8 -2 -18.5 -2h-16.5h-15t-22 2v467q0 45 -5 97t-29.5 96.5t-76 73t-143.5 28.5t-143 -28.5t-75.5 -73t-30 -96.5t-5.5 -97v-231q0 -49 5.5 -82t21.5 -52.5t48 -28.5 t87 -9h23q2 -12 2 -19.5v-15.5v-13.5t-2 -17.5h-21q-68 0 -112.5 11.5t-72.5 38t-39 71.5t-11 112z" />
<glyph unicode="&#xe15;" horiz-adv-x="819" d="M72 233v232q0 61 5 119.5t25.5 107.5t61.5 85t110 52l117 -53h12l117 53q70 -16 111 -52t61.5 -85t25.5 -107.5t5 -119.5v-463q-8 -2 -18.5 -2h-16.5h-15t-22 2v455q0 43 -2 89t-14 87t-39 75.5t-76 57.5l-117 -55h-12l-117 55q-49 -23 -75.5 -57.5t-39 -75.5t-14.5 -87 t-2 -89v-219q0 -49 4.5 -82t21.5 -52.5t49 -28.5t87 -9h23q2 -12 2 -19.5v-15.5v-13.5t-2 -17.5h-21q-68 0 -112.5 11.5t-72.5 38t-39 71.5t-11 112z" />
<glyph unicode="&#xe16;" horiz-adv-x="841" d="M96 764v35q68 23 133.5 26.5t141.5 3.5q186 0 280 -90t94 -280v-457q-8 -2 -18 -2h-16h-14.5t-22.5 2v451q0 154 -71 232.5t-228 78.5h-88q-41 -55 -61.5 -103.5t-30.5 -82.5q-12 -41 -15 -76v-436h115q2 -12 2 -19.5v-15.5v-13.5t-2 -17.5h-154h-10t-22 2v504 q0 51 13 96t30.5 78t32 52.5t18.5 21.5v10h-107z" />
<glyph unicode="&#xe17;" horiz-adv-x="829" d="M96 2v815q10 2 29 2h13t20 -2l14 -98h12v8q10 39 51 59.5t87.5 29.5t88.5 11t54 2q80 0 132 -22.5t82 -63.5t42 -96t12 -119v-526q-10 -2 -19 -2h-18h-14t-20 2v473q0 68 -8.5 121t-30 91t-60.5 57.5t-98 19.5q-152 0 -224.5 -59.5t-72.5 -186.5v-516q-10 -2 -19.5 -2 h-17.5h-14.5t-20.5 2z" />
<glyph unicode="&#xe18;" horiz-adv-x="753" d="M76 645q0 57 21.5 94t61.5 56.5t97 26.5t129 7q53 0 119.5 -5t120.5 -19q0 -12 -2 -29.5t-7 -30.5q-45 10 -105 14.5t-122 4.5q-72 0 -118 -2t-73.5 -13.5t-39 -36t-11.5 -67.5q0 -35 39 -59.5t97.5 -46t126 -41t126 -42t97.5 -51t39 -67.5v-139q0 -63 -20.5 -103.5 t-55.5 -64t-81 -32.5t-97 -9q-31 0 -70 2t-80 6t-83 11t-74 18v221q10 2 18 2h18h13.5t21.5 -2v-160q72 -23 138.5 -28t97.5 -5q41 0 74.5 5.5t57 20.5t37 43t13.5 75v102q0 39 -39 63.5t-97 44t-126 37t-126 43t-97 62.5t-39 94z" />
<glyph unicode="&#xe19;" horiz-adv-x="815" d="M82 291v526q10 2 19.5 2h17.5h14t21 -2v-473q0 -68 8 -121t29.5 -91t60.5 -57.5t98 -19.5q152 0 224.5 59.5t72.5 186.5v516q10 2 19.5 2h17.5h14.5t20.5 -2v-815q-10 -2 -29 -2h-13t-20 2l-14 98h-12v-8q-10 -39 -51 -59.5t-87.5 -29.5t-88.5 -11t-54 -2 q-80 0 -132 22.5t-82 63.5t-42 95t-12 120z" />
<glyph unicode="&#xe1a;" horiz-adv-x="833" d="M90 309v508q10 2 18.5 2h16.5h15.5t21.5 -2v-520q0 -43 4 -87t27.5 -78t73.5 -55.5t145 -21.5q94 0 146 21.5t75.5 55.5t28 78t4.5 87v520q12 2 20 2h16h14.5t20.5 -2v-508q0 -66 -7 -124t-39 -101t-97.5 -68.5t-181.5 -25.5q-117 0 -181.5 25.5t-96.5 68.5t-38 101.5 t-6 123.5z" />
<glyph unicode="&#xe1b;" horiz-adv-x="833" d="M90 309v508q10 2 18.5 2h16.5h15.5t21.5 -2v-520q0 -43 4 -87t27.5 -78t73.5 -55.5t145 -21.5q94 0 146 21.5t75.5 55.5t28 78t4.5 87v786q12 2 20 2h16h14.5t20.5 -2v-774q0 -66 -7 -124t-39 -101t-97.5 -68.5t-181.5 -25.5q-117 0 -181.5 25.5t-96.5 68.5t-38 101.5 t-6 123.5z" />
<glyph unicode="&#xe1c;" horiz-adv-x="954" d="M72 815q10 4 15 4h13h172q2 -10 2 -14v-10v-17.5t-2 -23.5h-125l66 -699h18v15l199 518q16 4 25.5 5t21.5 1t21.5 -1t25.5 -5l199 -518v-15h18l72 760q10 4 18.5 4h18.5h16t17 -4l-68 -807q-23 -6 -32 -7t-38 -1q-25 0 -44 1t-35 5l-183 504h-12l-182 -504q-16 -4 -36 -5 t-44 -1q-29 0 -38 1t-32 7z" />
<glyph unicode="&#xe1d;" horiz-adv-x="962" d="M72 815q10 4 15 4h13h172q2 -10 2 -14v-10v-17.5t-2 -23.5h-125l66 -699h18v15l199 518q16 4 25.5 5t21.5 1t21.5 -1t25.5 -5l199 -518v-15h18l97 1026q10 4 18 4h18h16.5t16.5 -4l-92 -1073q-23 -6 -32 -7t-38 -1q-25 0 -44 1t-35 5l-183 504h-12l-182 -504 q-16 -4 -36 -5t-44 -1q-29 0 -38 1t-32 7z" />
<glyph unicode="&#xe1e;" horiz-adv-x="954" d="M72 815q10 4 16 4h16h18.5t18.5 -4l72 -760h18v15l199 518q16 4 25.5 5t21.5 1t21.5 -1t25.5 -5l199 -518v-15h18l72 760q10 4 18.5 4h18.5h16t17 -4l-68 -807q-23 -6 -32 -7t-38 -1q-25 0 -44 1t-35 5l-183 504h-12l-182 -504q-16 -4 -36 -5t-44 -1q-29 0 -38 1t-32 7z " />
<glyph unicode="&#xe1f;" horiz-adv-x="964" d="M72 815q10 4 16 4h16h18.5t18.5 -4l72 -760h18v15l199 518q16 4 25.5 5t21.5 1t21.5 -1t25.5 -5l199 -518v-15h18l97 1026q10 4 18 4h18h16.5t16.5 -4l-92 -1073q-23 -6 -32 -7t-38 -1q-25 0 -44 1t-35 5l-183 504h-12l-182 -504q-16 -4 -36 -5t-44 -1q-29 0 -38 1t-32 7 z" />
<glyph unicode="&#xe20;" horiz-adv-x="878" d="M61 17.5v13.5v15t2 20h82v440q0 51 13.5 96t31 78t32 52.5t18.5 21.5v10h-107v35q68 23 133.5 26.5t141.5 3.5q186 0 280 -90t94 -280v-457q-8 -2 -18 -2h-16h-14.5t-22.5 2v451q0 154 -71 232.5t-228 78.5h-88q-41 -55 -61.5 -103.5t-31.5 -82.5q-12 -41 -14 -76v-500 q-16 -2 -22.5 -2h-10.5h-121q-2 8 -2 17.5z" />
<glyph unicode="&#xe21;" horiz-adv-x="829" d="M96 2v815q10 2 20.5 2h14.5h17.5t19.5 -2v-516q0 -127 72.5 -186.5t224.5 -59.5q59 0 98 19.5t60.5 57.5t30 91t8.5 121v473q10 2 20 2h14h17.5t19.5 -2v-526q0 -66 -12 -120t-42 -95t-82 -63.5t-132 -22.5q-12 0 -54 2t-88.5 11t-87 29.5t-51.5 59.5v8h-12l-14 -98 q-12 -2 -19.5 -2h-13.5q-18 0 -29 2z" />
<glyph unicode="&#xe22;" horiz-adv-x="841" d="M72 240q0 51 13 85.5t31.5 55t36 31t23.5 12.5v8q-37 0 -58.5 28.5t-31.5 64.5t-12 68t-2 40q0 70 22.5 107.5t61.5 55t89 20.5t103 3h29q2 -10 2 -17v-11v-15.5t-2 -21.5q-59 0 -103.5 -3t-73 -15.5t-43 -36t-14.5 -66.5q0 -18 4.5 -48t26 -57.5t68.5 -48t133 -20.5h24 q2 -16 2 -20.5v-14.5l-2 -33h-22q-76 0 -122 -9t-70.5 -28.5t-33 -48.5t-8.5 -65q0 -47 3.5 -82t18.5 -57.5t49 -34t97 -11.5h228q51 0 78.5 8.5t40 29t14.5 56t2 91.5v577q14 2 22.5 2h14.5h15t19 -2v-579q0 -66 -3 -113t-23.5 -77t-62.5 -44t-117 -14h-228 q-90 0 -138 22.5t-70.5 58t-26.5 80t-4 89.5z" />
<glyph unicode="&#xe23;" horiz-adv-x="714" d="M51 621q0 119 84 163.5t227 44.5q53 0 125 -6t127 -20q-2 -14 -5 -29.5t-7 -28.5q-45 10 -110.5 14.5t-124.5 4.5q-72 0 -118 -7t-75 -23.5t-40 -44t-11 -68.5q0 -49 39 -80t98 -54.5t128 -44t128 -48t98 -68.5t39 -107q0 -63 -26.5 -107t-69.5 -71t-95.5 -39t-103.5 -12 q-66 0 -126 7t-113 23q2 18 5 36t13 34q53 -16 111.5 -25.5t109.5 -9.5q39 0 78 8.5t72 28t53.5 51t20.5 76.5q0 49 -39 79t-98.5 51.5t-128 41t-128 47t-98.5 70.5t-39 113z" />
<glyph unicode="&#xe24;" horiz-adv-x="841" d="M96 764v35q68 23 133.5 26.5t141.5 3.5q186 0 280 -90t94 -280v-858q-8 -2 -18 -2h-16h-14.5t-22.5 2v852q0 154 -71 232.5t-228 78.5h-88q-41 -55 -61.5 -103.5t-30.5 -82.5q-12 -41 -15 -76v-436h115q2 -12 2 -19.5v-15.5v-13.5t-2 -17.5h-154h-10t-22 2v504 q0 51 13 96t30.5 78t32 52.5t18.5 21.5v10h-107z" />
<glyph unicode="&#xe25;" horiz-adv-x="790" d="M53 236q0 68 28 111.5t73 70t102 38t117 11.5q27 0 59.5 -2t66 -5t65.5 -10.5t54 -15.5h9v109q0 63 -23.5 106t-63.5 68.5t-92.5 36t-111.5 10.5q-53 0 -100.5 -4t-96.5 -19q-4 12 -7 32t-5 32q53 14 115.5 19t109.5 5q78 0 142.5 -13t109.5 -47t69.5 -89t24.5 -139v-539 q-8 -2 -18 -2h-16h-16.5t-20.5 2v387q-47 6 -96.5 7t-73.5 1q-66 0 -126.5 -2t-106.5 -17.5t-72.5 -47t-26.5 -90.5q0 -92 50 -132t155 -42h57q2 -10 2 -18.5v-16.5v-12.5t-2 -18.5h-55q-74 0 -126 11.5t-86 38t-50.5 71.5t-16.5 115z" />
<glyph unicode="&#xe26;" horiz-adv-x="868" d="M51 17.5v13.5v15t2 20h82v440q0 51 13.5 96t31 78t31.5 52.5t18 21.5v10h-106v35q68 23 133.5 26.5t140.5 3.5q186 0 280.5 -90t94.5 -280v-858q-8 -2 -18.5 -2h-16.5h-14t-23 2v852q0 154 -70.5 232.5t-228.5 78.5h-88q-41 -55 -61.5 -103.5t-30.5 -82.5 q-12 -41 -14 -76v-500q-16 -2 -22.5 -2h-10.5h-121q-2 8 -2 17.5z" />
<glyph unicode="&#xe27;" horiz-adv-x="663" d="M27 801q53 20 115.5 24t109.5 4q78 0 139.5 -13t103.5 -47t64.5 -89t22.5 -139v-277q0 -82 -23.5 -135t-63.5 -84t-92.5 -43t-109.5 -12q-51 0 -89 3t-91 15q4 33 16 60q33 -8 63.5 -10.5t83.5 -2.5q49 0 92.5 8.5t75 31t49 63.5t17.5 106v279q0 70 -20.5 113.5 t-57.5 67.5t-87 32t-109 8q-53 0 -101.5 -4t-93.5 -19q-6 12 -10 29.5t-4 30.5z" />
<glyph unicode="&#xe28;" horiz-adv-x="808" d="M72 2v465q0 68 6 133.5t36.5 116.5t95 81.5t181.5 30.5q86 0 146 -18v23q31 45 100 45h76v-33q0 -23 -2 -33h-76q-2 0 -7 1t-26 5v-37q39 -25 61.5 -59.5t34 -75.5t13.5 -87t2 -93v-465q-8 -2 -18.5 -2h-16.5h-15.5t-21.5 2v494q0 43 -4 90t-28.5 87t-75 65.5 t-142.5 25.5t-142 -25.5t-73.5 -65.5t-28 -87t-4.5 -90v-115h13q12 6 34.5 10t48 6t53 3t48.5 1h41v-32v-14.5t-4 -18.5h-43q-47 0 -95.5 -5t-95.5 -34v-295q-8 -2 -18 -2h-16h-14.5t-22.5 2z" />
<glyph unicode="&#xe29;" horiz-adv-x="849" d="M90 309v508q10 2 18.5 2h16.5h15.5t21.5 -2v-520q0 -43 4 -87t27.5 -78t73.5 -55.5t145 -21.5q94 0 146 21.5t75.5 55.5t28 78t4.5 87v127h-316q-8 29 -9 54.5t-3 47.5v37q10 4 29 4h23t20 -4v-102h12q18 10 49 15t64.5 8t67.5 4t63 1v328q12 2 20 2h16h14.5t20.5 -2 v-328h66q4 -4 5 -16t1 -18q0 -10 -4 -31h-68v-115q0 -66 -7 -124t-39 -101t-97.5 -68.5t-181.5 -25.5q-117 0 -181.5 25.5t-96.5 68.5t-38 101.5t-6 123.5z" />
<glyph unicode="&#xe2a;" horiz-adv-x="792" d="M53 236q0 68 28 111.5t73 70t102 38t117 11.5q27 0 59.5 -2t66 -5t65.5 -10.5t54 -15.5h9v109q0 63 -23.5 106t-63.5 68.5t-92.5 36t-111.5 10.5q-53 0 -100.5 -4t-96.5 -19q-4 12 -7 32t-5 32q53 14 115.5 19t109.5 5t91 -5t81 -17v27q31 45 101 45h75v-33q0 -23 -2 -33 h-75q-2 0 -7.5 1t-25.5 5v-41q51 -33 79.5 -90t28.5 -147v-539q-8 -2 -18 -2h-16h-16.5t-20.5 2v387q-47 6 -96.5 7t-73.5 1q-66 0 -126.5 -2t-106.5 -17.5t-72.5 -47t-26.5 -90.5q0 -92 50 -132t155 -42h57q2 -10 2 -18.5v-16.5v-12.5t-2 -18.5h-55q-74 0 -126 11.5t-86 38 t-50.5 71.5t-16.5 115z" />
<glyph unicode="&#xe2b;" horiz-adv-x="815" d="M96 2v815q10 2 14.5 2h14.5h13t20 -2l10 -112v-168h221q49 0 93 14t78 44t53.5 73t19.5 100v49q16 2 23.5 2h13.5h15t20 -2v-51q0 -66 -18.5 -122t-51.5 -93q41 -53 68.5 -118.5t27.5 -137.5v-293q-8 -2 -19.5 -2h-17.5h-14t-21 2v295q-4 53 -21 102.5t-58 114.5h-11 q-8 -16 -40.5 -24.5t-71.5 -12.5t-75 -5t-52 -1h-162v-469q-8 -2 -19.5 -2h-17.5h-14t-21 2z" />
<glyph unicode="&#xe2c;" horiz-adv-x="929" d="M72 815q10 4 16 4h16h18.5t18.5 -4l72 -760h18v15l199 518q16 4 25.5 5t21.5 1t21.5 -1t25.5 -5l199 -518v-15h18l60 631q0 35 -2 66.5t-13.5 56.5t-36 39t-69.5 14h-33q-4 10 -4 33v18.5t4 18.5h35q45 0 68.5 10t35 26.5t13.5 36t2 39.5v39q8 2 18 2h19h17t17 -2v-39 q0 -10 -2 -33.5t-11 -48t-29.5 -43t-59.5 -18.5v-8q47 0 75.5 -43t28.5 -127q0 -10 -1 -18.5t-1 -18.5l-57 -678q-23 -6 -32 -7t-38 -1q-25 0 -44 1t-35 5l-183 504h-12l-182 -504q-16 -4 -36 -5t-44 -1q-29 0 -38 1t-32 7z" />
<glyph unicode="&#xe2d;" horiz-adv-x="788" d="M76 305v131h196q2 -10 2 -17v-18v-12t-2 -18h-125v-105q0 -47 7.5 -86t32 -66.5t72.5 -43t128 -15.5q66 0 113 6.5t76.5 38t44 100t14.5 193.5v154q0 63 -20.5 105t-56.5 66.5t-86 35t-112 10.5q-51 0 -121.5 -4t-125.5 -19q-10 33 -15 64q61 16 134 20t126 4 q78 0 142.5 -14t110.5 -49t71 -91.5t25 -139.5v-185q0 -98 -12.5 -166.5t-47.5 -111.5t-97.5 -62.5t-162.5 -19.5q-104 0 -165.5 20.5t-93.5 60.5t-42 98t-10 136z" />
<glyph unicode="&#xe2e;" horiz-adv-x="788" d="M76 305v131h196q2 -10 2 -17v-18v-12t-2 -18h-125v-105q0 -47 7.5 -86t32 -66.5t72.5 -43t128 -15.5q66 0 113 6.5t76.5 38t44 100t14.5 193.5v154q0 63 -20.5 105t-56.5 66.5t-86 35t-112 10.5q-51 0 -121.5 -4t-125.5 -19q-10 33 -15 64q61 16 134 20t126 4 q98 0 172 -24v29q31 45 101 45h76v-33q0 -23 -2 -33h-76q-2 0 -7.5 1t-25.5 5v-45q53 -35 82 -92t29 -147v-185q0 -98 -12.5 -166.5t-47.5 -111.5t-97.5 -62.5t-162.5 -19.5q-104 0 -165.5 20.5t-93.5 60.5t-42 98t-10 136z" />
<glyph unicode="&#xe2f;" horiz-adv-x="675" d="M51 735v82q10 2 17.5 2h13.5h18.5t22.5 -2v-84q0 -23 7 -49.5t27.5 -49t57.5 -38.5t96 -16t96 16t58.5 39.5t29 50.5t7.5 49v82q10 2 18 2h15h17t21 -2v-938q-8 -2 -18 -2h-16h-15.5t-21.5 2v719q-33 -57 -82 -70.5t-92 -13.5h-29q-92 0 -143.5 27.5t-74 64.5t-26.5 74 t-4 55z" />
<glyph unicode="&#xe30;" horiz-adv-x="471" d="M59 276v11q10 2 31 2h35v-92h10q23 10 37 16t35.5 9t55.5 3h93h54q2 -12 2 -18v-10v-17.5t-2 -19.5h-340q-8 29 -8.5 58.5t-2.5 57.5zM59 686v10q10 2 31 2h35v-92h10q23 10 37 16.5t35.5 9.5t55.5 3h93h54q2 -12 2 -18.5v-10.5v-17t-2 -20h-340q-8 29 -8.5 58.5 t-2.5 58.5z" />
<glyph unicode="&#xe31;" d="M-502 1110v10q10 2 31 2h35v-92h10q23 10 37 16.5t35.5 9.5t55.5 3h93h203q2 -12 2 -18.5v-10.5v-17t-2 -20h-490q-8 29 -8 58.5t-2 58.5z" />
<glyph unicode="&#xe32;" horiz-adv-x="555" d="M-6 801q31 10 62.5 16t60 9t49 3h29.5q74 0 123 -20.5t78.5 -55t41 -82.5t11.5 -104v-565q-10 -2 -20.5 -2h-16.5h-16.5t-18.5 2v567q0 31 -5 65t-23.5 62.5t-54.5 48t-99 19.5q-45 0 -95.5 -5t-95.5 -16q-4 10 -7 27.5t-3 30.5z" />
<glyph unicode="&#xe33;" horiz-adv-x="483" d="M-373 1090q0 57 41 98t96 41q59 0 99.5 -41t40.5 -98t-40 -97.5t-100 -40.5q-55 0 -96 40t-41 98zM-307 1090q0 -31 21 -51.5t50 -20.5q35 0 55.5 20.5t20.5 51.5q0 35 -20.5 55t-55.5 20q-29 0 -50 -20.5t-21 -54.5zM-6 801q31 10 62.5 16t60 9t49 3h29.5 q74 0 123 -20.5t78.5 -55t41 -82.5t11.5 -104v-565q-10 -2 -20.5 -2h-16.5h-16.5t-18.5 2v567q0 31 -5 65t-23.5 62.5t-54.5 48t-99 19.5q-45 0 -95.5 -5t-95.5 -16q-4 10 -7 27.5t-3 30.5z" />
<glyph unicode="&#xe34;" d="M-694 1024q0 14 2 20h24q12 0 29 5q31 4 72 7t63 3h406q2 -16 2 -20.5v-12.5v-14t-2 -19h-594q-2 10 -2 31z" />
<glyph unicode="&#xe35;" d="M-678 1009.5v16.5v33h268q90 0 139.5 -2t92.5 -17h10v93q10 4 18.5 4h16.5q10 0 18.5 -1t18.5 -6q-2 -37 -3 -69.5t-12 -67.5h-565q-2 8 -2 16.5z" />
<glyph unicode="&#xe36;" d="M-678 1009.5v16.5v33h240q37 0 88 -2t94 -15q-2 4 -2 9q-2 4 -2 10v8q0 39 23.5 63.5t58.5 24.5t58.5 -23.5t23.5 -58.5t-23.5 -56.5t-60.5 -25.5h-496q-2 8 -2 16.5z" />
<glyph unicode="&#xe37;" d="M-678 1009.5v16.5v33h195.5t107.5 -2t51.5 -6t26.5 -11h14v95q10 2 18.5 2h18.5h18.5t16.5 -4v-93h43v93q10 4 18.5 4h16.5q10 0 18.5 -1t18.5 -6q-2 -37 -3 -69.5t-12 -67.5h-565q-2 8 -2 16.5z" />
<glyph unicode="&#xe38;" d="M-221 -154q0 14 6 31q35 0 66.5 -2t52.5 -6v-215q-8 -2 -14.5 -3t-14.5 -1h-22.5t-20.5 2q0 39 2 74.5t10 70.5v13l-61 2q-4 12 -4 34z" />
<glyph unicode="&#xe39;" d="M-393 -145q0 14 4 22q37 0 72.5 -2t52.5 -6v-160h96v164q12 4 20.5 4h14.5q20 0 37 -4v-215q-23 -6 -60 -7t-53 -1q-37 0 -65.5 2t-61.5 10v12q0 31 1 57.5t5 65.5v13h-59q-2 4 -3 19t-1 26z" />
<glyph unicode="&#xe3a;" d="M-195 -174q0 23 16 37t34 14t33.5 -14.5t15.5 -36.5q0 -18 -15.5 -32.5t-33.5 -14.5t-34 14t-16 33z" />
<glyph unicode="&#xe3b;" />
<glyph unicode="&#xe3c;" />
<glyph unicode="&#xe3d;" />
<glyph unicode="&#xe3e;" />
<glyph unicode="&#xe3f;" horiz-adv-x="960" d="M113 0v1024h342v123q12 2 20 2h19h13t19 -2v-123h9q68 0 128 -4t106 -29.5t72.5 -82t26.5 -158.5q0 -84 -24 -143.5t-92 -100.5q70 -41 93 -96.5t23 -133.5q0 -102 -27.5 -158.5t-74.5 -83t-108.5 -30.5t-131.5 -4v-125q-12 -2 -19 -2h-13h-18.5t-20.5 2v125h-342z M184 63h271v416h-271v-416zM184 543h271v418h-271v-418zM526 63h9q61 0 110 5.5t83 26t51.5 63.5t17.5 118q0 76 -24.5 117t-63.5 60.5t-85 22.5t-89 3h-9v-416zM526 543h9q43 0 89 4t85 23.5t63.5 61.5t24.5 118t-17.5 118.5t-51.5 63t-82 25t-111 4.5h-9v-418z" />
<glyph unicode="&#xe40;" horiz-adv-x="280" d="M106 2v815q10 2 18.5 2h14.5h17.5t21.5 -2v-815q-10 -2 -21.5 -2h-17.5h-14t-19 2z" />
<glyph unicode="&#xe41;" horiz-adv-x="552" d="M113 2v815q10 2 18 2h14h17.5t21.5 -2v-815q-10 -2 -21 -2h-18h-14t-18 2zM379 2v815q10 2 18.5 2h14.5h17t22 -2v-815q-10 -2 -21.5 -2h-17.5h-14.5t-18.5 2z" />
<glyph unicode="&#xe42;" horiz-adv-x="358" d="M66 1174q0 8 1 24t3 31h393q2 -8 2 -16.5v-16.5v-14.5t-2 -18.5h-326v-12l9 -13q10 -14 22 -48.5t21.5 -93t9.5 -146.5v-848q-10 -2 -20.5 -2h-16.5h-15.5t-19.5 2v848q0 70 -8 119t-18.5 80.5t-18.5 49t-10 21.5q-4 16 -5 28.5t-1 25.5z" />
<glyph unicode="&#xe43;" horiz-adv-x="325" d="M-33 1204q25 14 52.5 23.5t50 12.5t38 4t17.5 1q68 0 109.5 -11t65.5 -34.5t32 -59.5t8 -83q0 -41 -20.5 -78t-46 -77t-46 -87t-20.5 -110v-703q-10 -2 -21.5 -2h-17.5h-13.5t-19.5 2v703q0 80 20.5 128t46 83.5t46 65.5t20.5 71q0 37 -2 60.5t-16 38.5t-43 21.5t-82 6.5 q-14 0 -51 -4.5t-84 -28.5q-4 10 -11.5 26.5t-11.5 30.5z" />
<glyph unicode="&#xe44;" horiz-adv-x="358" d="M-86 1181.5v14.5v16.5t2 16.5h393q2 -14 3 -30.5t1 -24.5q0 -12 -1 -24.5t-5 -29.5q-2 -4 -10 -21.5t-18.5 -49t-18.5 -80.5t-8 -119v-848q-12 -2 -19.5 -2h-15.5h-16.5t-20.5 2v848q0 88 9.5 146.5t21.5 93t21 48.5l10 13v12h-326q-2 8 -2 18.5z" />
<glyph unicode="&#xe45;" horiz-adv-x="555" d="M-6 801q31 10 62.5 16t60 9t49 3h29.5q74 0 123 -20.5t78.5 -55t41 -82.5t11.5 -104v-966q-10 -2 -20.5 -2h-16.5h-16.5t-18.5 2v968q0 31 -5 65t-23.5 62.5t-54.5 48t-99 19.5q-45 0 -95.5 -5t-95.5 -16q-4 10 -7 27.5t-3 30.5z" />
<glyph unicode="&#xe46;" horiz-adv-x="700" d="M61 555v127q0 45 15.5 72.5t37 43t43 20.5t33.5 5h9q63 0 94 -15t31 -54h10q0 39 23.5 54t95.5 15h10q12 0 34.5 -5t45 -20.5t39 -43t16.5 -72.5v-803q-8 -2 -18.5 -2h-16.5h-16t-21 2v807q0 27 -14 49.5t-41 22.5h-33q-33 0 -51 -13.5t-22 -66.5v-45q-8 -2 -19.5 -2 h-17.5h-14.5t-20.5 2v45q-4 53 -22.5 66.5t-47.5 13.5h-35q-29 0 -42 -28t-13 -54v-121q-8 -2 -19.5 -2h-17.5h-14t-21 2z" />
<glyph unicode="&#xe47;" d="M-584 1124v9q0 43 15.5 69.5t35 40.5t40 19.5t32.5 5.5h430q4 -10 4 -20.5v-14.5v-15.5t-4 -15.5h-401q-59 0 -69.5 -21.5t-10.5 -43.5v-33q0 -29 14.5 -37t48.5 -8h19q41 0 53 12t15 45q10 2 17 2h13h12.5t18.5 -2q2 -33 13.5 -45t47.5 -12h23q41 0 50 13t9 42 q10 2 16.5 2h12.5h13.5t19.5 -2q0 -47 -17.5 -71.5t-38.5 -34.5q-23 -12 -53 -15h-16q-47 0 -76 7.5t-29 35.5h-12q0 -29 -31.5 -36t-79.5 -7h-14q-16 0 -36.5 5.5t-39 18.5t-32 38.5t-13.5 68.5z" />
<glyph unicode="&#xe48;" d="M-168 1305v122q10 4 19.5 4.5t15.5 0.5h18.5t18.5 -5v-122q-10 -4 -18.5 -4.5t-18.5 -0.5h-15.5t-19.5 5z" />
<glyph unicode="&#xe49;" d="M-332 1386.5v16.5v13t4 20h148v-90h12q35 16 101.5 18t132.5 2h40q2 -16 2.5 -21.5t0.5 -11.5q0 -4 -1.5 -15t-3.5 -18h-356v70h-76q-4 10 -4 16.5z" />
<glyph unicode="&#xe4a;" d="M-514 1303v92q0 37 11 61.5t26.5 38.5t33 20.5t31.5 6.5h11q35 0 61.5 -9.5t26.5 -37.5h12q0 29 28.5 38t63.5 9h10q14 0 31.5 -6.5t33 -20.5t27 -38.5t11.5 -61.5v-29h78q2 -8 2 -17.5v-17.5l-2 -31h-103h-24.5t-22.5 3v88q0 29 -5 47t-34 18h-20q-33 0 -38 -7t-5 -46 v-19q-10 -4 -20.5 -4h-16.5h-12.5t-20.5 4v19q0 39 -5 46t-38 7h-23q-27 0 -31.5 -18.5t-4.5 -46.5v-25h49q2 -8 2 -18.5v-14.5v-13t-2 -20h-86q-25 0 -35 3z" />
<glyph unicode="&#xe4b;" d="M-248 1389.5v19.5v11t2 18h78v71q10 4 19.5 4h15.5h18.5t18.5 -4v-71h76q2 -10 2 -17.5v-11.5v-19.5t-2 -19.5h-76v-65q-10 -4 -18.5 -4.5t-18.5 -0.5h-15.5t-19.5 5v65h-78q-2 8 -2 19.5z" />
<glyph unicode="&#xe4c;" d="M-240 1303q2 63 15 127h260q2 -6 2 -13.5v-13.5v-16.5t-2 -22.5q-49 0 -97.5 2t-91.5 12h-14v-78h-37h-17t-18 3z" />
<glyph unicode="&#xe4d;" d="M-373 1090q0 57 41 98t96 41q59 0 99.5 -41t40.5 -98t-40 -97.5t-100 -40.5q-55 0 -96 40t-41 98zM-307 1090q0 -31 21 -51.5t50 -20.5q35 0 55.5 20.5t20.5 51.5q0 35 -20.5 55t-55.5 20q-29 0 -50 -20.5t-21 -54.5z" />
<glyph unicode="&#xe4e;" />
<glyph unicode="&#xe4f;" horiz-adv-x="915" d="M113 420q0 74 26.5 137.5t72.5 110.5t108.5 73.5t134.5 26.5q74 0 137 -26.5t110.5 -73.5t74 -110.5t26.5 -137.5q0 -72 -26.5 -134.5t-74 -108.5t-111 -72.5t-136.5 -26.5q-72 0 -134.5 26.5t-108.5 72.5t-72.5 108.5t-26.5 134.5zM160 420q0 -61 22.5 -115.5 t62.5 -94.5t94.5 -62.5t115.5 -22.5q63 0 117.5 22.5t95.5 62.5t64.5 94t23.5 116q0 63 -23.5 117.5t-64.5 95.5t-95.5 64.5t-117.5 23.5q-61 0 -115.5 -23.5t-94.5 -64.5t-62.5 -95.5t-22.5 -117.5zM252 420q0 86 58.5 145.5t144.5 59.5q41 0 77.5 -16.5t64.5 -44t43 -64.5 t15 -80q0 -84 -58 -142.5t-142 -58.5q-86 0 -144.5 58.5t-58.5 142.5z" />
<glyph unicode="&#xe50;" horiz-adv-x="821" d="M82 326q0 70 6 129t38 104t98.5 70.5t187.5 25.5q119 0 185.5 -25.5t98 -70.5t37.5 -107.5t6 -134.5q0 -68 -6 -127t-37.5 -104t-98.5 -70.5t-185 -25.5q-121 0 -187.5 25.5t-98.5 71.5t-38 106.5t-6 132.5zM154 319q0 -59 4 -107t28.5 -83t76.5 -54.5t149 -19.5 q96 0 148 19.5t75.5 54.5t28 83t4.5 107q0 61 -4.5 111.5t-28 85.5t-75.5 54.5t-148 19.5t-148.5 -19.5t-77 -55.5t-28.5 -86t-4 -110z" />
<glyph unicode="&#xe51;" horiz-adv-x="806" d="M72 420q0 39 6 81t37.5 75.5t97.5 56t186 22.5q119 0 185.5 -25.5t97.5 -70.5t37 -106.5t6 -133.5v-53q0 -168 -94 -239.5t-252 -71.5q-53 0 -127 7t-133 24q2 10 6 30.5t8 32.5q53 -12 124 -20.5t124 -8.5q119 0 195.5 51.5t76.5 180.5v70q0 61 -4 110t-27.5 85 t-75.5 54.5t-147 18.5q-96 0 -148 -13.5t-75.5 -36t-28 -55t-4.5 -71.5q0 -47 3.5 -78t17.5 -48.5t45 -24.5t88 -7v-66q-84 2 -129 13.5t-66.5 37t-25.5 69.5t-4 110z" />
<glyph unicode="&#xe52;" horiz-adv-x="845" d="M82 231v568q12 2 19.5 2h15.5h16t21 -2v-561q0 -51 5 -86t22.5 -56.5t50 -31t90.5 -9.5h204q57 0 90 9.5t50.5 31t21.5 56t4 86.5v49q0 68 -2 123t-14 95t-38 62.5t-73 22.5q-23 -10 -49.5 -24.5t-42.5 -28.5h-8l-90 53q-33 -8 -54.5 -20.5t-41.5 -30.5q-10 4 -16.5 11 t-10.5 13q-4 4 -7 13.5t-5 15.5q23 20 58.5 35.5t76.5 27.5l90 -53h8q29 16 52.5 30.5t39.5 22.5q66 0 105 -24.5t60.5 -71.5t27.5 -118.5t6 -164.5v-45q0 -72 -11.5 -117.5t-39 -73.5t-73.5 -39t-116 -11h-200q-70 0 -117 11t-75 39t-39 74t-11 117z" />
<glyph unicode="&#xe53;" horiz-adv-x="851" d="M82 240v41q0 70 6 131t28.5 110t65.5 83t115 50l123 -49h12l123 49q72 -16 115 -50t65.5 -83t28.5 -110.5t6 -130.5v-279q-10 -2 -20.5 -2h-16.5h-14t-21 2v279q0 78 -7 130t-23.5 88t-45 56t-73.5 35l-117 -51h-12l-117 51q-45 -14 -73.5 -34.5t-46 -56.5t-23.5 -88.5 t-6 -129.5v-37q0 -49 4 -82t21.5 -53.5t50 -30.5t87.5 -10h23q2 -14 2 -22.5v-16.5v-11.5t-2 -17.5h-21q-68 0 -113.5 11.5t-73.5 38t-39 72.5t-11 118z" />
<glyph unicode="&#xe54;" horiz-adv-x="894" d="M72 326q0 70 15 129t54 104t107.5 70.5t177.5 25.5q72 0 136.5 2t112.5 14.5t76.5 38t28.5 74.5v9q14 2 21.5 2h13.5l39 -2v-9q0 -70 -36 -108.5t-95 -58t-137 -23.5t-160 -4q-96 0 -151.5 -25.5t-85 -64.5t-38 -87t-8.5 -94q0 -57 5.5 -105t37 -84t100 -55.5 t195.5 -19.5q-20 16 -31.5 43t-17.5 56.5t-7 58.5t-1 49v100h149q2 -10 2 -17v-15v-15.5t-2 -19.5h-77q0 -45 2 -88t17 -77t49 -54.5t95 -20.5h160q4 -10 4 -19v-16v-13t-4 -17h-346q-147 0 -229 25.5t-120 71.5t-45 106.5t-7 132.5z" />
<glyph unicode="&#xe55;" horiz-adv-x="894" d="M72 326q0 63 14 119.5t46 100.5t85 72.5t131 36.5q-10 16 -17 30.5t-7 35.5q0 47 31.5 81t76.5 34q47 0 81 -34t34 -81q0 -37 -23 -66q55 2 101.5 7.5t81 18.5t54 37.5t19.5 65.5v9q14 2 21.5 2h13.5l39 -2v-9q0 -70 -36 -108.5t-95 -58t-137 -23.5t-160 -4 q-96 0 -151.5 -25.5t-85 -64.5t-38 -87t-8.5 -94q0 -57 5.5 -105t37 -84t100 -55.5t195.5 -19.5q-20 16 -31.5 43t-17.5 56.5t-7 58.5t-1 49v100h149q2 -10 2 -17v-15v-15.5t-2 -19.5h-77q0 -45 2 -88t17 -77t49 -54.5t95 -20.5h160q4 -10 4 -19v-16v-13t-4 -17h-346 q-147 0 -229 25.5t-120 71.5t-45 106.5t-7 132.5zM379 721q0 -23 15.5 -38t37.5 -15q23 0 39 15t16 38t-16 39t-39 16t-38 -16.5t-15 -38.5z" />
<glyph unicode="&#xe56;" horiz-adv-x="827" d="M51 791q8 4 16.5 4h16.5h15t24 -4l43 -211q37 29 72.5 44t67.5 22t57.5 8t39.5 1q80 0 144.5 -15t111 -51t72 -93.5t25.5 -141.5v-30q0 -59 -6.5 -120t-37 -108t-97 -76.5t-187.5 -29.5t-188.5 19.5t-99 49t-38 63.5t-6.5 64q0 31 3 57.5t16.5 47t42 33t82.5 16.5 q2 -16 2 -21.5v-13.5l-2 -31q-47 -6 -59.5 -23.5t-12.5 -64.5q0 -33 9 -57.5t37 -40.5t79 -24.5t135 -8.5q96 0 148.5 21.5t76 58.5t27.5 85t4 102v47q0 66 -20.5 108.5t-57.5 67t-88 35t-112 10.5q-47 0 -96.5 -11.5t-121.5 -50.5q-14 -4 -23.5 -4h-17.5h-15t-21 2 q-4 16 -20.5 84t-39.5 181z" />
<glyph unicode="&#xe57;" horiz-adv-x="1036" d="M82 240v41q0 70 6 131t28.5 110t65.5 83t115 50l123 -49h12l123 49q72 -16 115 -50t65.5 -83t28.5 -110.5t6 -130.5v-215q41 0 63.5 2t34 16t13.5 45t2 88v588q10 2 18 2h17h16t20 -2v-594q0 -68 -5 -110t-23.5 -64.5t-55 -29.5t-100.5 -7h-72v281q0 78 -7 130t-23.5 88 t-45 56t-73.5 35l-117 -51h-12l-117 51q-45 -14 -73.5 -34.5t-46 -56.5t-23.5 -88.5t-6 -129.5v-37q0 -49 4 -82t21.5 -53.5t50 -30.5t87.5 -10h23q2 -14 2 -22.5v-16.5v-11.5t-2 -17.5h-21q-68 0 -113.5 11.5t-73.5 38t-39 72.5t-11 118z" />
<glyph unicode="&#xe58;" horiz-adv-x="905" d="M72 322q0 70 13 131t51 106t104.5 70.5t175.5 25.5q72 0 136 2t112.5 14.5t77 38t28.5 74.5v9q14 2 21.5 2h13.5l39 -2v-9q0 -70 -36 -108.5t-95.5 -58t-137 -23.5t-159.5 -4q-96 0 -151.5 -25.5t-82 -64.5t-33 -88.5t-6.5 -94.5q0 -41 5.5 -81.5t20.5 -75.5t45 -62.5 t77 -42.5l125 62h10l119 -62q49 14 74.5 25.5t38 26t14.5 38t2 64.5v33q0 35 -4 53t-18.5 27.5t-44 11.5t-81.5 4h-8q-2 10 -2 17v16v12t2 18h8q70 0 113 -3t66.5 -18t31.5 -47t8 -87v-41q0 -61 -4 -96t-23.5 -56.5t-59.5 -34t-113 -28.5l-119 59h-10l-119 -59 q-61 6 -104 35.5t-70 75.5t-39 102.5t-12 118.5z" />
<glyph unicode="&#xe59;" horiz-adv-x="862" d="M82 242v41q0 70 5 137t26.5 119.5t63.5 84t116 31.5h49q41 0 75 -11t85 -58q0 27 13 41t33.5 20t46.5 7t50 1q6 0 29.5 2t49.5 14.5t46.5 40t20.5 76.5v17q12 2 19 2h15h16.5t20.5 -2v-17q0 -39 -13 -74.5t-41 -63t-68 -44t-95 -16.5t-78.5 -8.5t-23.5 -30.5q0 -8 4 -16 q49 -88 74.5 -219.5t27.5 -313.5q-10 -2 -20.5 -2h-18.5h-13t-19 2q-2 160 -24 271.5t-55.5 182t-74.5 102.5t-82 32h-49q-51 0 -80 -31t-42 -77t-15 -100t-2 -99v-41q0 -49 4 -83t21.5 -53.5t50 -28.5t89.5 -9h25q2 -14 2 -22.5v-16.5v-11.5t-2 -17.5h-22q-68 0 -114 11.5 t-74 39t-40 73.5t-12 118z" />
<glyph unicode="&#xe5a;" horiz-adv-x="849" d="M51 735v82q10 2 17.5 2h13.5h18.5t22.5 -2v-84q0 -23 7 -49.5t27.5 -49t57.5 -38.5t96 -16t96 16t58.5 39.5t29 50.5t7.5 49v82q10 2 18 2h15h17t21 -2v-938q-8 -2 -18 -2h-16h-15.5t-21.5 2v719q-33 -57 -82 -70.5t-92 -13.5h-29q-92 0 -143.5 27.5t-74 64.5t-26.5 74 t-4 55zM676 -121v938q12 2 21.5 2h15.5h16t19 -2v-938q-8 -2 -18.5 -2h-16.5h-15.5t-21.5 2z" />
<glyph unicode="&#xe5b;" />
<glyph unicode="&#x2000;" horiz-adv-x="761" />
<glyph unicode="&#x2001;" horiz-adv-x="1522" />
<glyph unicode="&#x2002;" horiz-adv-x="761" />
<glyph unicode="&#x2003;" horiz-adv-x="1522" />
<glyph unicode="&#x2004;" horiz-adv-x="507" />
<glyph unicode="&#x2005;" horiz-adv-x="380" />
<glyph unicode="&#x2006;" horiz-adv-x="253" />
<glyph unicode="&#x2007;" horiz-adv-x="253" />
<glyph unicode="&#x2008;" horiz-adv-x="190" />
<glyph unicode="&#x2009;" horiz-adv-x="304" />
<glyph unicode="&#x200a;" horiz-adv-x="84" />
<glyph unicode="&#x200b;" />
<glyph unicode="&#x2010;" horiz-adv-x="741" d="M113 383v12q0 18 2 27h512q2 -8 2 -27v-12t-2 -16h-512q-2 10 -2 16z" />
<glyph unicode="&#x2011;" horiz-adv-x="741" d="M113 383v12q0 18 2 27h512q2 -8 2 -27v-12t-2 -16h-512q-2 10 -2 16z" />
<glyph unicode="&#x2012;" horiz-adv-x="741" d="M113 383v12q0 18 2 27h512q2 -8 2 -27v-12t-2 -16h-512q-2 10 -2 16z" />
<glyph unicode="&#x2013;" horiz-adv-x="1032" d="M113 383v12q0 18 2 27h803q2 -8 2 -27v-12t-2 -16h-803q-2 10 -2 16z" />
<glyph unicode="&#x2014;" horiz-adv-x="1243" d="M113 383v12q0 18 2 27h1013q2 -8 2 -27v-12t-2 -16h-1013q-2 10 -2 16z" />
<glyph unicode="&#x2018;" horiz-adv-x="329" d="M113 909q6 16 11 29.5t12 32t17.5 48.5t26.5 77q6 2 19 2q12 0 18 -2l-37 -183q-10 -4 -22.5 -5t-18.5 -1h-13t-13 2z" />
<glyph unicode="&#x2019;" horiz-adv-x="329" d="M113 909l37 183q10 4 22 5t18 1h13.5t13.5 -2q-6 -16 -11 -29.5t-12.5 -32t-17.5 -48.5t-26 -77q-6 -2 -19 -2q-12 0 -18 2z" />
<glyph unicode="&#x2022;" horiz-adv-x="481" d="M143 350q0 41 28 68.5t69 27.5t69.5 -27.5t28.5 -68.5t-28.5 -69.5t-69.5 -28.5t-69 28.5t-28 69.5z" />
<glyph unicode="&#x2026;" horiz-adv-x="583" d="M113 4v109q12 4 21 4h13h14.5t22.5 -4v-109q-14 -4 -22 -4h-12h-15.5t-21.5 4zM256 4v109q12 4 21.5 4h13.5h14t23 -4v-109q-14 -4 -22.5 -4h-12.5h-15.5t-21.5 4zM399 4v109q12 4 21.5 4h13.5h14.5t22.5 -4v-109q-14 -4 -22.5 -4h-12.5h-15t-22 4z" />
<glyph unicode="&#x202f;" horiz-adv-x="304" />
<glyph unicode="&#x205f;" horiz-adv-x="380" />
<glyph unicode="&#x25cc;" horiz-adv-x="1048" />
<glyph unicode="&#xe000;" horiz-adv-x="819" d="M0 0v819h819v-819h-819z" />
<glyph unicode="&#xf700;" horiz-adv-x="741" d="M55 799q57 16 130 23t126 7q90 0 168 -22v27q31 45 101 45h75v-33q0 -23 -2 -33h-75q-2 0 -7.5 1t-25.5 5v-43q53 -35 81.5 -92t28.5 -149v-132q0 -78 -11 -150.5t-42 -128.5t-88 -90t-149 -34q-23 0 -60 1t-59 7l-29 328h-100v8q-2 10 -2 23v34h166l28 -335h60 q66 6 107.5 27.5t65 62.5t33 102t9.5 145v144q0 66 -20.5 107.5t-56.5 66t-85 34t-109 9.5q-53 0 -120.5 -8t-120.5 -19q-12 31 -17 62z" />
<glyph unicode="&#xf701;" d="M-743 1024q0 14 2 20h24q12 0 29 5q31 4 72 7t63 3h311q2 -16 2 -20.5v-12.5v-14t-2 -19h-499q-2 10 -2 31z" />
<glyph unicode="&#xf702;" d="M-743 1009.5v16.5v33h190q90 0 139 -2t92 -17h11v93q10 4 18 4h17q10 0 18 -1t18 -6q-2 -37 -3 -69.5t-11 -67.5h-487q-2 8 -2 16.5z" />
<glyph unicode="&#xf703;" d="M-743 1009.5v16.5v33h161q37 0 88.5 -2t94.5 -15q-2 4 -2 9q-2 4 -2 10v8q0 39 23.5 63.5t57.5 24.5q35 0 58.5 -23.5t23.5 -58.5t-23.5 -56.5t-60.5 -25.5h-417q-2 8 -2 16.5z" />
<glyph unicode="&#xf704;" d="M-743 1009.5v16.5v33h151t84 -2t42 -6t26 -11h14v95q10 2 18.5 2h18.5h18.5t16.5 -4v-93h43v93q10 4 18 4h17q10 0 18 -1t18 -6q-2 -37 -3 -69.5t-11 -67.5h-487q-2 8 -2 16.5z" />
<glyph unicode="&#xf705;" d="M-408 997v146q10 4 19.5 4h15.5h18.5t18.5 -4v-146q-10 -4 -18 -4h-19h-15t-20 4z" />
<glyph unicode="&#xf706;" d="M-690 1097.5v16.5v13.5t4 19.5h147v-111h13q35 16 101.5 18.5t131.5 2.5h41q2 -16 2 -21.5v-11.5q0 -4 -1 -15.5t-3 -17.5h-356v90h-76q-4 10 -4 16.5z" />
<glyph unicode="&#xf707;" d="M-743 995v113q0 37 11 61.5t26.5 39t33 20.5t31.5 6h10q35 0 61.5 -9t26.5 -38h13q0 29 28.5 38t63.5 9h10q14 0 31.5 -6t33 -20.5t26.5 -39t11 -61.5v-49h78q2 -8 2 -17.5v-17.5l-2 -31h-102h-24.5t-22.5 2v109q0 29 -5.5 47t-33.5 18h-21q-33 0 -38 -7t-5 -46v-18 q-10 -4 -20 -4h-17h-12t-20 4v18q0 39 -5.5 46t-37.5 7h-23q-27 0 -32 -18t-5 -47v-45h49q2 -8 2 -18.5v-14.5v-13t-2 -20h-86q-25 0 -34 2z" />
<glyph unicode="&#xf708;" d="M-496 1092.5v19.5v11t2 18h78v82q10 4 19.5 4h15.5h18.5t18.5 -4v-82h76q2 -10 2 -17.5v-11.5v-19.5t-2 -19.5h-76v-76q-10 -4 -18.5 -4h-18.5h-15.5t-19.5 4v76h-78q-2 8 -2 19.5z" />
<glyph unicode="&#xf709;" d="M-586 995q2 63 15 127h303q2 -6 2 -13v-13v-16.5t-2 -22.5h-55.5t-63.5 2t-62.5 4t-50.5 8h-14v-78h-37h-17.5t-17.5 2z" />
<glyph unicode="&#xf70a;" d="M-168 997v146q10 4 19.5 4h15.5h18.5t18.5 -4v-146q-10 -4 -18.5 -4h-18.5h-15.5t-19.5 4z" />
<glyph unicode="&#xf70b;" d="M-518 1099.5v16.5v13.5t4 19.5h147v-111h13q35 16 101.5 18.5t131.5 2.5h41q2 -16 2 -21.5v-11.5q0 -4 -1 -15.5t-3 -17.5h-356v90h-76q-4 10 -4 16.5z" />
<glyph unicode="&#xf70c;" d="M-514 995v113q0 37 11 61.5t26.5 39t33 20.5t31.5 6h11q35 0 61.5 -9t26.5 -38h12q0 29 28.5 38t63.5 9h10q14 0 31.5 -6t33 -20.5t27 -39t11.5 -61.5v-49h78q2 -8 2 -17.5v-17.5l-2 -31h-103h-24.5t-22.5 2v109q0 29 -5 47t-34 18h-20q-33 0 -38 -7t-5 -46v-18 q-10 -4 -20.5 -4h-16.5h-12.5t-20.5 4v18q0 39 -5 46t-38 7h-23q-27 0 -31.5 -18t-4.5 -47v-45h49q2 -8 2 -18.5v-14.5v-13t-2 -20h-86q-25 0 -35 2z" />
<glyph unicode="&#xf70d;" d="M-248 1092.5v19.5v11t2 18h78v82q10 4 19.5 4h15.5h18.5t18.5 -4v-82h76q2 -10 2 -17.5v-11.5v-19.5t-2 -19.5h-76v-76q-10 -4 -18.5 -4h-18.5h-15.5t-19.5 4v76h-78q-2 8 -2 19.5z" />
<glyph unicode="&#xf70e;" d="M-319 995q2 63 14 127h260q2 -6 2 -13v-13v-16.5t-2 -22.5q-49 0 -97 2t-91 12h-15v-78h-37h-17t-17 2z" />
<glyph unicode="&#xf70f;" horiz-adv-x="1353" d="M96 764v35q68 23 133.5 26.5t141.5 3.5q186 0 280 -90t94 -280v-246q0 -86 52.5 -122t169.5 -36q119 0 169 36t50 122v604q10 2 18 2h17h15t21 -2v-635q0 -33 -9 -67.5t-37.5 -62t-83 -45t-146.5 -17.5h-31q-92 0 -146 17.5t-83 45t-38 62.5t-9 67v271q0 154 -71 232.5 t-228 78.5h-88q-41 -55 -61.5 -103.5t-30.5 -82.5q-12 -41 -15 -76v-436h115q2 -12 2 -19.5v-15.5v-13.5t-2 -17.5h-154h-10t-22 2v504q0 51 13 96t30.5 78t32 52.5t18.5 21.5v10h-107z" />
<glyph unicode="&#xf710;" d="M-741 1110v10q10 2 30 2h35v-92h10q23 10 37.5 16.5t36 9.5t55 3h93.5h202q2 -12 2 -18.5v-10.5v-17t-2 -20h-489q-8 29 -8 58.5t-2 58.5z" />
<glyph unicode="&#xf711;" d="M-555 1090q0 57 41 98t96 41q59 0 99 -41t40 -98t-39.5 -97.5t-99.5 -40.5q-55 0 -96 40t-41 98zM-489 1090q0 -31 21 -51.5t50 -20.5q35 0 55.5 20.5t20.5 51.5q0 35 -20.5 55t-55.5 20q-29 0 -50 -20.5t-21 -54.5z" />
<glyph unicode="&#xf712;" d="M-727 1124v9q0 43 15.5 69.5t35 40.5t40 19.5t32.5 5.5h430q4 -10 4 -20.5v-14.5v-15.5t-4 -15.5h-401q-59 0 -69.5 -21.5t-10.5 -43.5v-33q0 -29 14 -37t49 -8h19q41 0 53 12t14 45q10 2 17.5 2h13.5h12t19 -2q2 -33 13 -45t48 -12h23q41 0 50 13t9 42q10 2 16 2h13h13 t19 -2q0 -47 -17 -71.5t-38 -34.5q-23 -12 -53 -15h-17q-47 0 -75.5 7.5t-28.5 35.5h-12q0 -29 -32 -36t-79 -7h-14q-16 0 -37 5.5t-39 18.5t-31.5 38.5t-13.5 68.5z" />
<glyph unicode="&#xf713;" d="M-311 1305v122q10 4 19 4.5t16 0.5h18t18 -5v-122q-10 -4 -18 -4.5t-18 -0.5h-15.5t-19.5 5z" />
<glyph unicode="&#xf714;" d="M-463 1386.5v16.5v13t4 20h148v-90h12q35 16 101.5 18t131.5 2h41q2 -16 2 -21.5v-11.5q0 -4 -1 -15t-3 -18h-356v70h-76q-4 10 -4 16.5z" />
<glyph unicode="&#xf715;" d="M-657 1303v92q0 37 11 61.5t26.5 38.5t33 20.5t31.5 6.5h10q35 0 61.5 -9.5t26.5 -37.5h13q0 29 28.5 38t63.5 9h10q14 0 31.5 -6.5t33 -20.5t26.5 -38.5t11 -61.5v-29h78q2 -8 2 -17.5v-17.5l-2 -31h-102h-24.5t-22.5 3v88q0 29 -5.5 47t-33.5 18h-21q-33 0 -38 -7 t-5 -46v-19q-10 -4 -20 -4h-17h-12t-20 4v19q0 39 -5.5 46t-37.5 7h-23q-27 0 -32 -18.5t-5 -46.5v-25h49q2 -8 2 -18.5v-14.5v-13t-2 -20h-86q-25 0 -34 3z" />
<glyph unicode="&#xf716;" d="M-391 1389.5v19.5v11t2 18h78v71q10 4 19 4h16h18t18 -4v-71h76q2 -10 2 -17.5v-11.5v-19.5t-2 -19.5h-76v-65q-10 -4 -18 -4.5t-18 -0.5h-15.5t-19.5 5v65h-78q-2 8 -2 19.5z" />
<glyph unicode="&#xf717;" d="M-383 1303q2 63 14 127h260q2 -6 2.5 -13.5t0.5 -13.5q0 -4 -0.5 -16.5t-2.5 -22.5q-49 0 -97 2t-91 12h-14v-78h-37h-17.5t-17.5 3z" />
<glyph unicode="&#xf718;" d="M-221 -481q0 14 6 30q35 0 66.5 -2t52.5 -6v-215q-8 -2 -14.5 -3t-14.5 -1h-22.5t-20.5 2q0 39 2 75t10 71v12l-61 2q-4 12 -4 35z" />
<glyph unicode="&#xf719;" d="M-393 -473q0 14 4 22q37 0 72.5 -2t52.5 -6v-159h96v163q12 4 20.5 4h14.5q20 0 37 -4v-215q-23 -6 -60 -7t-53 -1q-37 0 -65.5 2t-61.5 10v13q0 31 1 57.5t5 65.5v12h-59q-2 4 -3 19.5t-1 25.5z" />
<glyph unicode="&#xf71a;" d="M-195 -502q0 23 16 37t34 14t33.5 -14t15.5 -37q0 -18 -15.5 -32.5t-33.5 -14.5t-34 14.5t-16 32.5z" />
<glyph unicode="&#xf71d;" horiz-adv-x="923" d="M72 815q10 4 16 4h16h18.5t18.5 -4l72 -760h18v15l199 518q16 4 25.5 5t21.5 1t21.5 -1t25.5 -5l199 -518v-15h18l39 375q0 35 -2 66.5t-13 56.5t-35.5 39t-70.5 14h-32q-4 10 -4 33v18.5t4 18.5h35q45 0 68.5 10t34.5 26.5t13 36t2 39.5v39q8 2 18.5 2h18.5h17.5 t17.5 -2v-39q0 -10 -2 -33.5t-11.5 -48t-30 -43t-58.5 -18.5v-8q47 0 75.5 -43t28.5 -127q0 -10 -1 -18.5t-1 -18.5l-37 -422q-23 -6 -32 -7t-38 -1q-25 0 -44 1t-35 5l-183 504h-12l-182 -504q-16 -4 -36 -5t-44 -1q-29 0 -38 1t-32 7z" />
<glyph horiz-adv-x="555" d="M-555 1090q0 57 41 98t96 41q59 0 99 -41t40 -98t-39.5 -97.5t-99.5 -40.5q-55 0 -96 40t-41 98zM-489 1090q0 -31 21 -51.5t50 -20.5q35 0 55.5 20.5t20.5 51.5q0 35 -20.5 55t-55.5 20q-29 0 -50 -20.5t-21 -54.5zM-6 801q31 10 62.5 16t60 9t49 3h29.5q74 0 123 -20.5 t78.5 -55t41 -82.5t11.5 -104v-565q-10 -2 -20.5 -2h-16.5h-16.5t-18.5 2v567q0 31 -5 65t-23.5 62.5t-54.5 48t-99 19.5q-45 0 -95.5 -5t-95.5 -16q-4 10 -7 27.5t-3 30.5z" />
<glyph />
<glyph />
<glyph />
<glyph horiz-adv-x="1257" d="M113 514q0 109 41 203t110.5 164.5t163 111.5t199.5 41q109 0 203 -41t164.5 -111.5t111.5 -164.5t41 -203q0 -106 -41 -199.5t-111.5 -163t-165 -110.5t-202.5 -41q-106 0 -199.5 41t-163 110.5t-110.5 163t-41 199.5zM348 373q0 -86 58.5 -137.5t150.5 -51.5 q23 0 45.5 1t42.5 5v111l-12 8q-14 -6 -24.5 -7t-22.5 -1q-33 0 -62.5 18.5t-29.5 65.5q0 16 7 27.5t31.5 19.5t70.5 16.5t122 20.5v-145q0 -74 20.5 -107t81.5 -33h19q29 0 47 11.5t18 44.5q0 35 -11 48t-38 13v272q0 53 -19.5 88t-45.5 58q10 4 19 4h20h19t19 -4h23v133 q-63 -8 -125.5 -23.5t-109.5 -42.5q-18 4 -35 4.5t-41 0.5q-47 0 -90 -6.5t-90 -22.5v-129h12q39 12 81 22.5t74 10.5q18 0 44 -1t50.5 -9.5t41 -27t16.5 -50.5l-168 -17q-37 -4 -74 -12t-67.5 -28.5t-49 -55.5t-18.5 -92z" />
</font>
</defs>
</svg>
