<?xml version="1.0" standalone="no"?>
<!DOCTYPE svg PUBLIC "-//W3C//DTD SVG 1.1//EN" "http://www.w3.org/Graphics/SVG/1.1/DTD/svg11.dtd" >
<svg xmlns="http://www.w3.org/2000/svg">
<metadata></metadata>
<defs>
<font id="pestoregular" horiz-adv-x="0" >
<font-face units-per-em="2048" ascent="1638" descent="-410" />
<missing-glyph horiz-adv-x="378" />
<glyph unicode="&#x3b;&#x3b;For&#x20;Education&#x20;Used&#x20;Only&#x3b;&#x3b;" horiz-adv-x="1269" d="M113 512q0 109 41 204t111.5 165.5t165.5 111.5t204 41t204 -41t165.5 -111.5t111.5 -165.5t41 -204t-41 -204t-111.5 -165.5t-166 -111.5t-203.5 -41q-109 0 -204 41t-165.5 111.5t-111.5 165.5t-41 204zM211 512q0 -84 35 -161t93 -135t135 -93t161 -35t160.5 35 t135 93t93.5 135t35 161t-35 161t-93.5 135t-135 93t-160.5 35t-161 -35t-135 -93t-93 -135t-35 -161zM365 418v180q0 131 73.5 182t196.5 51q43 0 106.5 -6t106.5 -20q0 -47 -25 -84q-37 10 -94 14t-96 4q-72 0 -119 -28.5t-47 -106.5v-192q0 -78 47 -107t119 -29 q39 0 96 4.5t94 14.5q25 -37 25 -84q-43 -14 -106.5 -20.5t-106.5 -6.5q-61 0 -111.5 11.5t-85.5 39t-54 72.5t-19 111z" />
<glyph unicode="&#x3b;&#x3b;Registered&#x3b;&#x3b;" horiz-adv-x="1269" d="M109 512q0 109 40.5 204t111.5 165.5t166 111.5t204 41t204 -41t165.5 -111.5t111.5 -165.5t41 -204t-41 -204t-111.5 -165.5t-166 -111.5t-203.5 -41q-109 0 -204 41t-166 111.5t-111.5 165.5t-40.5 204zM207 512q0 -84 34.5 -161t93 -135t135.5 -93t161 -35t160.5 35 t135 93t93.5 135t35 161t-35 161t-93.5 135t-135 93t-160.5 35t-161 -35t-135.5 -93t-93 -135t-34.5 -161zM416 215v616h264q43 0 81 -4t65.5 -24.5t44 -61.5t16.5 -116q0 -86 -19.5 -129t-52.5 -62l72 -217q-16 -8 -41 -8q-10 0 -29.5 1t-30.5 5l-73 201h-195v-201 q-14 -4 -30.5 -5t-22.5 -1q-8 0 -21.5 1t-27.5 5zM518 506h131q20 0 45 2t44.5 13t32.5 35t13 69q0 43 -13 66.5t-32.5 33.5t-44 12t-45.5 2h-131v-233z" />
<glyph unicode="&#x3b;&#x3b;Multiply&#x3b;&#x3b;" horiz-adv-x="851" d="M113 176l219 217l-219 217q12 18 23 30.5t18 21.5q16 16 53 43l219 -218l219 218q37 -27 53 -43q6 -8 17.5 -20.5t23.5 -31.5l-219 -217l219 -217q-12 -18 -23 -30.5t-18 -20.5q-16 -16 -53 -43l-219 217l-219 -217q-37 27 -53 43q-6 8 -17.5 20.5t-23.5 30.5z" />
<glyph unicode="&#x3b;&#x3b;Divide&#x3b;&#x3b;" horiz-adv-x="978" d="M113 397q0 20 6 64h741q6 -43 6 -62q0 -12 -1 -23t-5 -34h-741q-4 23 -5 34t-1 21zM422 61v160q42 6 65 6q25 0 68 -6v-160q-43 -6 -66 -6q-25 0 -67 6zM422 582v159q42 7 65 7q25 0 68 -7v-159q-43 -6 -66 -7q-25 0 -67 7z" />
<glyph unicode="&#x2018;&#x2018;" horiz-adv-x="595" d="M113 860l90 232q14 4 25.5 5t21.5 1q12 0 17 -1t20 -5l-41 -232q-43 -6 -66 -6q-25 0 -67 6zM309 860l90 232q14 4 25.5 5t21.5 1q12 0 17.5 -1t19.5 -5l-41 -232q-42 -6 -65 -6q-25 0 -68 6z" />
<glyph unicode="&#x2019;&#x2019;" horiz-adv-x="595" d="M113 860l41 232q42 6 65 6q25 0 68 -6l-90 -232q-14 -4 -25.5 -5t-21.5 -1q-12 0 -17.5 1t-19.5 5zM309 860l41 232q43 6 66 6q25 0 67 -6l-90 -232q-14 -4 -25.5 -5t-21.5 -1q-12 0 -17 1t-20 5z" />
<glyph unicode="&#x3b;&#x3b;Trademark&#x3b;&#x3b;" horiz-adv-x="1384" d="M113 985q0 8 1 16.5t3 22.5h454q2 -14 3 -22.5t1 -14.5q0 -8 -1 -25.5t-3 -31.5h-174v-531q-12 -2 -28.5 -3t-22.5 -1q-8 0 -23.5 1t-29.5 3v531h-176q-2 14 -3 31.5t-1 23.5zM621 401v613q20 8 49.5 9t52.5 1q20 0 47 -1t47 -9l129 -508l129 508q20 8 47 9t47 1 q23 0 51.5 -1t51.5 -9v-613q-6 -4 -21.5 -5t-27.5 -1h-26.5t-27.5 4v568h-16v-13l-149 -555q-10 -4 -28 -4h-28h-29.5t-27.5 4l-152 555v13h-16v-568q-10 -4 -26.5 -4h-26.5q-12 0 -27.5 1t-21.5 5z" />
<glyph unicode="&#xe24;&#xe32;" horiz-adv-x="1400" d="M96 711v75q29 8 60.5 15.5t70.5 13.5q72 14 158 14q186 0 280.5 -91t94.5 -283v-850q-43 -6 -68 -6q-23 0 -65 6v844q0 53 -14.5 101t-43 84t-73.5 56.5t-109 20.5h-63q-29 -43 -45.5 -82t-24.5 -70q-8 -37 -12 -65v-385h102q4 -23 5 -32t1 -22q0 -10 -1 -21t-5 -34h-170 q-23 0 -65 6v490q0 55 12 92t28.5 59.5t30 31.5t17.5 11v21h-101zM809 793q31 14 65.5 21t65.5 10t55.5 4t32.5 1q80 0 131 -21.5t81 -59t42 -88t12 -105.5v-950q-43 -6 -67 -6q-23 0 -66 6v952q0 23 -3 49.5t-17.5 50t-41 39t-71.5 15.5t-93 -3t-95 -20q-16 27 -23.5 48.5 t-7.5 56.5z" />
<glyph unicode="&#xe26;&#xe32;" horiz-adv-x="1429" d="M61 55q0 12 1 21.5t6 32.5h71v387q0 55 12.5 92t29 59.5t29.5 31.5t17 11v21h-100v75q29 8 60.5 15.5t70.5 13.5q72 14 158 14q186 0 280.5 -91t94.5 -283v-850q-43 -6 -68 -6q-23 0 -66 6v854q0 53 -14 99t-43 80t-74 53.5t-108 19.5h-64q-29 -43 -45 -82t-24 -70 q-8 -37 -13 -65v-488q-43 -6 -65 -6h-139q-4 23 -5.5 34t-1.5 21zM838 793q31 14 65.5 21t65 10t55.5 4t33 1q80 0 131 -21.5t80.5 -59t42 -88t12.5 -105.5v-950q-43 -6 -68 -6q-23 0 -65 6v952q0 23 -3 49.5t-17.5 50t-41 39t-71.5 15.5t-93.5 -3t-95.5 -20 q-16 27 -23 48.5t-7 56.5z" />
<glyph unicode="&#xd;" horiz-adv-x="579" />
<glyph unicode=" "  horiz-adv-x="378" />
<glyph unicode="&#x09;" horiz-adv-x="378" />
<glyph unicode="&#xa0;" horiz-adv-x="378" />
<glyph unicode="!" horiz-adv-x="356" d="M113 6q43 -6 67 -6q23 0 66 6v160q-43 6 -68 6q-23 0 -65 -6v-160zM113 1018q43 6 65 6q23 0 66 -6q-4 -190 -7.5 -368.5t-5.5 -375.5q-23 -4 -32 -5t-21 -1t-21.5 1t-31.5 5q-2 197 -5 375t-7 369z" />
<glyph unicode="&#x22;" horiz-adv-x="542" d="M113 1092q42 6 65 6q25 0 68 -6l-23 -289q-23 -4 -28 -5t-15 -1q-12 0 -18 1t-29 5zM297 1092q42 6 65 6q25 0 68 -6l-22 -289q-23 -4 -28 -5t-15 -1q-12 0 -18.5 1t-29.5 5z" />
<glyph unicode="#" horiz-adv-x="1224" d="M113 334q0 20 6 63h155l80 265h-151q-4 23 -5 34t-1 21q0 20 6 63h186l72 238q14 4 31.5 5t33.5 1q43 0 66 -12l-72 -232h307l72 238q14 4 31.5 5t34.5 1q43 0 65 -12l-72 -232h148q6 -43 6 -61q0 -12 -1 -23.5t-5 -33.5h-182l-82 -265h180q6 -43 6 -61q0 -12 -1 -23.5 t-5 -33.5h-215l-82 -267q-23 -12 -66 -12q-16 0 -33.5 1t-31.5 5l82 273h-307l-82 -267q-23 -12 -66 -12q-16 0 -33.5 1t-31.5 5l82 273h-119q-4 23 -5 34t-1 21zM403 397h310l80 265h-308z" />
<glyph unicode="$" horiz-adv-x="989" d="M106 82q4 66 52 106q78 -41 147.5 -58t124.5 -21v360q-59 18 -116.5 40.5t-101.5 54.5t-71.5 78t-27.5 110q0 141 85 206.5t232 75.5v109q43 6 66 6q25 0 67 -6v-109q72 -2 148.5 -12t128.5 -29q-2 -35 -8.5 -55t-22.5 -55q-35 12 -104.5 21t-141.5 11v-346 q59 -18 115.5 -40.5t100.5 -54.5t71 -76t27 -105q0 -94 -27 -152.5t-71 -91.5t-100 -45t-116 -14v-109q-43 -6 -65 -6q-25 0 -68 6v109q-43 2 -90 9t-92 17.5t-82 26.5t-60 39zM246 752q0 -55 53 -87t131 -57v307q-94 -12 -139 -58t-45 -105zM563 109q33 2 66 12t58.5 31.5 t40.5 55.5t15 85q0 53 -51 84t-129 53v-321z" />
<glyph unicode="%" horiz-adv-x="1169" d="M113 696v176q0 39 16 68t43 47.5t60.5 27.5t70.5 9t71 -9t60.5 -27.5t43 -47.5t16.5 -68v-176q0 -86 -56.5 -118.5t-134.5 -32.5t-134 32.5t-56 118.5zM215 696q0 -29 15.5 -44t72.5 -15t72.5 15.5t15.5 43.5v176q0 20 -15.5 41t-72.5 21t-72.5 -20.5t-15.5 -41.5v-176z M301 6l438 1012q14 4 31.5 5t34.5 1q43 0 65 -12l-438 -1000q-23 -12 -65 -12q-16 0 -34 1t-32 5zM676 152v176q0 39 16.5 67.5t43 47t60 27.5t70.5 9t71 -9t60.5 -27.5t43 -47t16.5 -67.5v-176q0 -86 -56.5 -119t-134.5 -33t-134 33t-56 119zM778 152q0 -29 15.5 -44.5 t72.5 -15.5t72.5 15.5t15.5 44.5v176q0 20 -15.5 40.5t-72.5 20.5t-72.5 -20.5t-15.5 -40.5v-176z" />
<glyph unicode="&#x26;" horiz-adv-x="1058" d="M113 272q0 53 20.5 92t54 69t76.5 51.5t90 39.5q-33 53 -51 109.5t-18 116.5q0 61 9 113t35.5 90t76 59.5t126.5 21.5q78 0 127.5 -21.5t76 -59.5t35.5 -90t9 -113q0 -55 -20.5 -96.5t-55 -74t-79.5 -58t-95 -46.5q18 -23 38 -44t47.5 -48t63.5 -61.5t87 -81.5 q23 39 35 93t12 128q43 6 66 6q24 0 67 -6q0 -106 -22.5 -182t-59.5 -129l78 -74q-10 -16 -18.5 -25.5t-18.5 -17.5q-10 -10 -21.5 -16.5t-29.5 -16.5l-72 70q-66 -47 -141.5 -63.5t-140.5 -16.5q-74 0 -144.5 4t-124 30.5t-86 84t-32.5 163.5zM246 272q0 -61 14 -95t45 -49 t78 -17t115 -2q49 0 99 9t93 38q-70 63 -140.5 131.5t-127.5 140.5q-74 -33 -125 -67.5t-51 -88.5zM418 750q0 -49 13 -94.5t36 -88.5q76 29 128 70t52 113q0 43 -2 73.5t-12 51t-34 30.5t-67 10t-65.5 -10t-33.5 -30.5t-13 -51t-2 -73.5z" />
<glyph unicode="'" horiz-adv-x="358" d="M113 1092q42 6 65 6q25 0 68 -6l-23 -289q-23 -4 -28 -5t-15 -1q-12 0 -18 1t-29 5z" />
<glyph unicode="(" horiz-adv-x="421" d="M113 518q0 68 4 147.5t12 161.5t19.5 162t27.5 148q43 6 66 6q25 0 67 -6q-16 -70 -27.5 -149t-19.5 -161t-12 -160.5t-4 -148.5q0 -66 4 -147.5t12 -167.5t19.5 -168t27.5 -148q-43 -6 -65 -6q-25 0 -68 6q-16 68 -27.5 150t-19.5 166t-12 166t-4 149z" />
<glyph unicode=")" horiz-adv-x="421" d="M113 -113q14 66 26.5 148t20.5 168t12 168t4 147q0 70 -4 148.5t-12 160.5t-20.5 161t-26.5 149q42 6 67 6q23 0 66 -6q14 -68 26.5 -148t20.5 -162t12 -161.5t4 -147.5t-4 -149.5t-12 -165.5t-20.5 -166t-26.5 -150q-43 -6 -68 -6q-23 0 -65 6z" />
<glyph unicode="*" horiz-adv-x="745" d="M113 846q4 23 5 37t5 24t8 24.5t14 35.5l199 -90l-33 215q43 6 62 6q20 0 63 -6l-35 -215l199 90q10 -20 14 -34.5t9 -25.5q4 -10 5 -24.5t5 -36.5l-215 -25l157 -151q-16 -16 -26 -25.5t-21 -17.5q-8 -6 -20 -13.5t-33 -17.5l-102 188l-103 -188q-20 10 -32.5 17.5 t-20.5 13.5q-10 8 -20.5 17t-26.5 26l158 151z" />
<glyph unicode="+" horiz-adv-x="976" d="M113 397q0 20 6 64h303v309q43 6 65 6q25 0 68 -6v-309h303q6 -44 6 -62q0 -12 -1 -23t-5 -34h-303v-309q-43 -6 -66 -6q-25 0 -67 6v309h-303q-4 23 -5 34t-1 21z" />
<glyph unicode="," horiz-adv-x="358" d="M72 -66l41 232q42 6 65 6q25 0 68 -6l-90 -232q-14 -4 -25.5 -5t-21.5 -1q-12 0 -17.5 1t-19.5 5z" />
<glyph unicode="-" horiz-adv-x="772" d="M113 397q0 20 6 64h534q6 -43 6 -62q0 -12 -1 -23t-5 -34h-534q-4 23 -5 34t-1 21z" />
<glyph unicode="." horiz-adv-x="358" d="M113 6v160q42 6 65 6q25 0 68 -6v-160q-43 -6 -66 -6q-25 0 -67 6z" />
<glyph unicode="/" horiz-adv-x="598" d="M61 6l345 1131q14 4 31.5 5t33.5 1q43 0 66 -13l-344 -1118q-23 -12 -66 -12q-16 0 -33.5 1t-32.5 5z" />
<glyph unicode="0" horiz-adv-x="983" d="M113 371v282q0 86 6 157t41 120t113 76.5t219 27.5t218.5 -27.5t112.5 -76.5t41 -120t6 -157v-282q0 -86 -6 -157t-41 -120t-112.5 -76.5t-218.5 -27.5t-219 27.5t-113 76.5t-41 120t-6 157zM246 375q0 -74 4 -125t26.5 -82t73 -45t142.5 -14t142 14t72.5 45t26.5 82 t4 125v274q0 74 -4 125t-26.5 82t-72.5 45t-142 14t-142.5 -14t-73 -45t-26.5 -82t-4 -125v-274z" />
<glyph unicode="1" horiz-adv-x="620" d="M41 801l334 217q43 6 65 6q25 0 68 -6v-1012q-43 -6 -66 -6q-25 0 -67 6v852q-90 -59 -138.5 -91t-72 -46t-28.5 -17l-5 -2q-16 4 -30.5 14.5t-22.5 18.5q-20 16 -37 66z" />
<glyph unicode="2" horiz-adv-x="886" d="M113 745q0 47 6 98.5t37.5 93.5t98.5 69.5t187 27.5q121 0 188.5 -27.5t99.5 -69.5t38 -93t6 -99q0 -66 -30.5 -125t-79 -114t-107.5 -105.5t-114.5 -98.5t-100.5 -93t-68 -90h494q6 -43 6 -62q0 -12 -1 -23t-5 -34h-637q-4 23 -5 34t-1 21q0 25 8 64q16 63 60.5 121.5 t100.5 113t117.5 103.5t112.5 97t84 95t33 94q0 37 -3 69t-21.5 54.5t-58.5 35.5t-114 13t-114.5 -13t-59 -35.5t-21.5 -54.5t-3 -69q-43 -6 -66 -6q-29 0 -67 8z" />
<glyph unicode="3" horiz-adv-x="868" d="M92 745q0 47 6 98.5t38 93.5t98.5 69.5t187.5 27.5t188.5 -27.5t99 -69.5t38 -93t6.5 -99q0 -61 -12.5 -124.5t-71.5 -108.5q31 -23 48 -49.5t25.5 -57t10.5 -62.5t2 -60q0 -49 -6.5 -101.5t-38 -94.5t-99 -69.5t-188.5 -27.5t-187.5 26.5t-98.5 68.5t-38 93t-6 101 q39 8 68 8q23 0 65 -6q0 -37 3 -69t21.5 -54.5t59.5 -35.5t115 -13t114 13t58 35.5t21.5 54.5t3.5 69t-4.5 68.5t-26 54t-67.5 36t-132 13.5q-8 39 -8 61q0 10 1 22.5t5 34.5q84 0 131 13.5t68.5 36t26 54.5t4.5 68q0 37 -3.5 69t-21.5 54.5t-58 35.5t-114 13t-115 -13 t-59.5 -35.5t-21.5 -54.5t-3 -69q-43 -6 -65 -6q-29 0 -68 8z" />
<glyph unicode="4" horiz-adv-x="841" d="M31 377q0 20 6 63l442 578q39 6 88 6q23 0 38.5 -1t29.5 -5v-578h119q6 -43 6 -61q0 -12 -1 -23.5t-5 -33.5h-119v-316q-25 -4 -42.5 -5t-25.5 -1q-16 0 -32.5 1t-32.5 5v316h-465q-4 23 -5 34t-1 21zM193 440h309v404z" />
<glyph unicode="5" horiz-adv-x="886" d="M113 270q43 6 65 6q25 0 68 -6q0 -37 3 -66.5t21.5 -51t59.5 -32.5t114 -11q74 0 114 16t58.5 44t21.5 63.5t3 72.5t-3 75t-21.5 68.5t-58.5 50t-114 19.5q-25 0 -58.5 -1t-64 -8t-53 -20.5t-22.5 -37.5q-23 -4 -39.5 -5.5t-28.5 -1.5q2 0 -8 0t-22.5 1t-23.5 3l-11 1 v512q0 20 6 63h616q6 -43 6 -61q0 -12 -1 -23.5t-5 -34.5h-489v-291q35 10 82.5 16.5t113.5 6.5q121 0 188.5 -34t99.5 -84t38 -107.5t6 -104.5q0 -49 -6 -104.5t-38 -103.5t-99.5 -78.5t-188.5 -30.5t-187.5 25.5t-98 65.5t-37.5 90t-6 99z" />
<glyph unicode="6" horiz-adv-x="856" d="M113 307v422q0 86 24.5 144.5t70.5 94.5t110.5 51t144.5 15q29 0 64.5 -2t73.5 -6t74 -10t62 -15q0 -35 -7 -60.5t-23 -51.5q-25 8 -57 13t-65.5 8t-66.5 4t-57 1q-94 0 -154.5 -37.5t-60.5 -136.5v-155q35 16 83 25.5t113 9.5q121 0 188.5 -31t99.5 -78t38 -102.5 t6 -102.5q0 -49 -6 -104.5t-38 -103.5t-99.5 -78.5t-188.5 -30.5t-187.5 30.5t-98 78.5t-37.5 103.5t-6 104.5zM246 299q0 -37 4 -70.5t22.5 -60.5t58.5 -43t113 -16q74 0 114 16t58.5 44t21.5 63.5t3 72.5t-3 72t-21.5 62.5t-58.5 45t-114 17.5t-114.5 -17.5t-59 -45 t-21.5 -64.5t-3 -76z" />
<glyph unicode="7" horiz-adv-x="772" d="M41 961q0 20 6 63h637q6 -43 6 -61q0 -12 -1 -23.5t-5 -34.5l-274 -899q-43 -6 -66 -6q-25 0 -68 6l265 899h-494q-4 23 -5 34t-1 22z" />
<glyph unicode="8" horiz-adv-x="888" d="M113 745q0 47 6 98.5t37.5 93.5t98.5 69.5t187 27.5q121 0 188.5 -27.5t99.5 -69.5t38 -93t6 -99q0 -61 -12 -124.5t-72 -108.5q31 -23 48.5 -49.5t25.5 -57t10 -62t2 -60.5q0 -49 -6 -101.5t-38 -94.5t-99.5 -69.5t-188.5 -27.5t-187.5 27.5t-98 69.5t-37.5 94t-6 102 q0 59 11 121.5t71 105.5q-31 23 -48.5 50.5t-24.5 58t-9 63.5t-2 63zM246 743q0 -37 3 -68.5t21.5 -54t59.5 -36t114 -13.5q74 0 114 13.5t58.5 36t21.5 54.5t3 68q0 37 -3 69t-21.5 54.5t-58.5 35.5t-114 13t-114.5 -13t-59 -35.5t-21.5 -54.5t-3 -69zM248 281q0 -37 3 -69 t21.5 -54.5t59.5 -35.5t114 -13q74 0 114 13t58.5 35.5t21.5 54.5t3 69t-3 68.5t-21.5 54t-58.5 36t-114 13.5t-114.5 -13.5t-59 -36t-21.5 -54t-3 -68.5z" />
<glyph unicode="9" horiz-adv-x="845" d="M72 717q0 49 6 104.5t37.5 103.5t99.5 78.5t188 30.5q121 0 187.5 -30.5t98.5 -78.5t38 -103.5t6 -104.5v-422q0 -86 -24.5 -144.5t-70.5 -94.5t-110.5 -51t-144.5 -15q-29 0 -64.5 2t-73.5 6t-74 10t-62 15q0 35 7 60.5t23 51.5q25 -8 56.5 -13t65.5 -8t66.5 -4t57.5 -1 q94 0 154.5 37.5t60.5 136.5v155q-35 -16 -83 -25.5t-114 -9.5q-121 0 -188.5 31t-99 78t-37.5 102.5t-6 102.5zM205 719q0 -37 3 -73t21.5 -63.5t58.5 -44t113 -16.5q74 0 115 16.5t59.5 44t21.5 63.5t3 73t-3 71.5t-21.5 62.5t-59.5 45t-115 17t-113.5 -17t-58 -45 t-21.5 -62.5t-3 -71.5z" />
<glyph unicode=":" horiz-adv-x="358" d="M113 6v160q42 6 65 6q25 0 68 -6v-160q-43 -6 -66 -6q-25 0 -67 6zM113 565v160q42 6 65 6q25 0 68 -6v-160q-43 -6 -66 -6q-12 0 -22.5 1t-44.5 5z" />
<glyph unicode=";" horiz-adv-x="358" d="M76 -66l41 232q42 6 65 6q25 0 68 -6l-90 -232q-14 -4 -25.5 -5t-21.5 -1q-12 0 -17.5 1t-19.5 5zM113 565v160q42 6 65 6q25 0 68 -6v-160q-43 -6 -66 -6q-12 0 -22.5 1t-44.5 5z" />
<glyph unicode="&#x3c;" horiz-adv-x="870" d="M113 377q0 35 2 56.5t14 55.5l616 254q12 -23 13 -65q0 -16 -1 -33.5t-5 -32.5l-525 -223h-20v-22h20l525 -224q4 -14 5 -31.5t1 -33.5q0 -45 -13 -66l-616 254q-12 35 -14 55.5t-2 55.5z" />
<glyph unicode="=" horiz-adv-x="772" d="M113 238q0 20 6 63h534q6 -43 6 -61q0 -12 -1 -23.5t-5 -34.5h-534q-4 23 -5 34t-1 22zM113 537q0 20 6 63h534q6 -43 6 -61q0 -12 -1 -23.5t-5 -34.5h-534q-4 23 -5 34t-1 22z" />
<glyph unicode="&#x3e;" horiz-adv-x="870" d="M113 78q0 16 1 33.5t5 31.5l524 224h21v22h-21l-524 223q-4 14 -5 32t-1 34q0 43 12 65l616 -254q12 -35 14.5 -56t2.5 -56t-2 -55.5t-15 -55.5l-616 -254q-12 20 -12 66z" />
<glyph unicode="?" horiz-adv-x="761" d="M113 985q49 29 113.5 39t123.5 10q143 0 221 -49t78 -176q0 -59 -19.5 -100t-49 -70t-63.5 -51.5t-63.5 -46t-49 -51t-19.5 -66.5v-160q-43 -6 -66 -6q-25 0 -67 6v160q0 90 41 138t91 82t91 69t41 96q0 27 -6 47.5t-24.5 33.5t-51.5 19t-88 6q-129 0 -192 -43 q-35 49 -41 113zM254 6v160q42 6 65 6q25 0 68 -6v-160q-43 -6 -65 -6q-25 0 -68 6z" />
<glyph unicode="@" horiz-adv-x="1290" d="M113 289v442q0 78 37.5 135.5t98 94t134.5 55t147 18.5h230q74 0 147.5 -18.5t134 -55t98.5 -94t38 -135.5v-395q0 -49 -22.5 -77t-53.5 -42t-64.5 -18t-56.5 -4q-61 0 -111.5 18t-50.5 55h-18q-35 -39 -78 -50t-84 -11q-100 0 -155.5 21.5t-81 58.5t-30.5 86t-5 106v80 q0 57 4 107.5t27.5 87.5t75.5 57t149 20q8 0 29.5 -1t46 -7t48 -18t37.5 -35h17v57q16 2 30.5 3t24.5 1t23.5 -1t29.5 -3v-491q0 -43 23.5 -50t48.5 -7q27 0 45 7t18 50v395q0 33 -17 65.5t-53 59.5t-89.5 43t-124.5 16h-230q-72 0 -126 -16t-88.5 -43t-52 -59.5 t-17.5 -65.5v-442q0 -49 22.5 -84t61.5 -56.5t91 -30.5t109 -9h230q76 0 140.5 8t103.5 43q12 -12 19 -24.5t11 -22.5q4 -8 8.5 -22t8.5 -30q-53 -47 -123 -59t-168 -12h-230q-78 0 -153.5 14t-134 48t-94 92.5t-35.5 144.5zM477 481q0 -29 2 -59.5t17.5 -57t48.5 -43 t94 -16.5t94 16.5t48.5 43t17.5 57.5t2 59v107q0 27 -8.5 52.5t-29 46t-55 33.5t-87.5 13t-83 -16.5t-43.5 -42t-15.5 -56t-2 -59.5v-78z" />
<glyph unicode="A" horiz-adv-x="921" d="M31 12l305 996q35 12 63.5 14t63.5 2t62.5 -2t62.5 -14l303 -996q-23 -12 -66 -12q-16 0 -33.5 1t-31.5 5l-105 326h-389l-104 -326q-14 -4 -31.5 -5t-34.5 -1q-45 0 -65 12zM303 451h315l-145 458v21h-22v-21z" />
<glyph unicode="B" horiz-adv-x="958" d="M113 0v1024h424q70 0 129 -4t104 -31.5t70.5 -86t25.5 -167.5q0 -86 -15 -138t-44 -85q29 -31 44 -83t15 -138q0 -109 -25.5 -167t-70.5 -86t-104.5 -33t-128.5 -5h-424zM246 119h289q35 0 72.5 5t68.5 22.5t51.5 51t20.5 93.5q0 57 -20.5 90t-51.5 48t-69 18.5t-72 3.5 h-289v-332zM246 569h289q35 0 72.5 4.5t68.5 20.5t51.5 49t20.5 92q0 57 -20.5 92t-51.5 51.5t-69 21.5t-72 5h-289v-336z" />
<glyph unicode="C" horiz-adv-x="954" d="M92 369v286q0 106 32 179t88 117t137 63.5t179 19.5q35 0 80 -2t92.5 -7t91.5 -13t76 -19q0 -45 -6 -62.5t-24 -49.5q-31 8 -71 15t-83 11t-85 6t-75 2q-57 0 -111.5 -15t-95.5 -46t-66.5 -77t-25.5 -107v-316q0 -61 25.5 -107t66.5 -77t95.5 -46t111.5 -15q33 0 75 2 t85 6t83 10t71 16q18 -33 24 -50t6 -62q-33 -10 -76.5 -18.5t-91 -13.5t-92.5 -7t-80 -2q-98 0 -179 19.5t-137 63.5t-88 116.5t-32 179.5z" />
<glyph unicode="D" horiz-adv-x="997" d="M113 0v1024h346q98 0 179 -19.5t137 -63.5t88 -116.5t32 -179.5v-266q0 -106 -32 -179t-88 -117t-137 -63.5t-179 -19.5h-346zM246 119h217q57 0 111.5 15.5t95.5 46t66.5 76.5t25.5 108v294q0 61 -25.5 107.5t-66.5 77t-95.5 46t-111.5 15.5h-217v-786z" />
<glyph unicode="E" horiz-adv-x="894" d="M113 0v1024h680q6 -43 6 -61q0 -12 -1 -23.5t-5 -34.5h-547v-334h479q6 -43 6 -61q0 -12 -1 -23.5t-5 -33.5h-479v-334h547q4 -23 5 -35.5t1 -22.5q0 -12 -1 -25t-5 -36h-680z" />
<glyph unicode="F" horiz-adv-x="870" d="M113 6v1018h680q6 -43 6 -61q0 -12 -1 -23.5t-5 -34.5h-547v-330h481q4 -23 5 -35t1 -22q0 -12 -1 -25.5t-5 -35.5h-481v-451q-43 -6 -66 -6q-25 0 -67 6z" />
<glyph unicode="G" horiz-adv-x="1001" d="M113 369v286q0 106 31.5 179t88 117t137.5 63.5t179 19.5q35 0 80 -2t92 -7t91 -13t77 -19q0 -45 -6 -62.5t-25 -49.5q-31 8 -70.5 15t-82.5 11t-85 6t-75 2q-57 0 -111.5 -15t-95.5 -46t-66.5 -77t-25.5 -107v-316q0 -61 25.5 -107t66.5 -77t95 -46t112 -15q41 0 98 3 t113 11v295h-176q-4 23 -5.5 35t-1.5 22q0 12 1 25.5t6 36.5h241q25 0 68 -7v-499q-33 -10 -77 -18.5t-91 -13.5t-92 -7t-80 -2q-98 0 -179 19.5t-137.5 63.5t-88 116.5t-31.5 179.5z" />
<glyph unicode="H" horiz-adv-x="989" d="M113 6v1012q43 6 65 6q25 0 68 -6v-443h497v443q43 6 66 6q25 0 68 -6v-1012q-43 -6 -66 -6q-25 0 -68 6v451h-497v-451q-43 -6 -66 -6q-25 0 -67 6z" />
<glyph unicode="I" horiz-adv-x="358" d="M113 6v1012q42 6 65 6q25 0 68 -6v-1012q-43 -6 -66 -6q-25 0 -67 6z" />
<glyph unicode="J" horiz-adv-x="804" d="M92 203v76q43 6 66 6q25 0 67 -6v-62q0 -37 10.5 -59.5t32 -32.5t53 -13t76.5 -3t77 2t53.5 13t31.5 32.5t10 58.5v803q43 6 66 6q25 0 67 -6v-815q0 -43 -10 -82t-40.5 -67.5t-88 -46t-151.5 -17.5h-29q-96 0 -153.5 16.5t-88 46t-40 68.5t-9.5 82z" />
<glyph unicode="K" horiz-adv-x="1026" d="M113 6v1012q42 6 65 6q25 0 68 -6v-451l618 457q31 -31 43 -49q14 -18 35 -57l-356 -273l389 -633q-10 -6 -31.5 -9t-42.5 -3q-16 0 -37.5 1t-36.5 5l-352 563l-229 -170v-393q-43 -6 -66 -6q-25 0 -67 6z" />
<glyph unicode="L" horiz-adv-x="821" d="M113 0v1018q43 6 65 6q25 0 68 -6v-899h518q4 -23 5 -35.5t1 -22.5q0 -12 -1 -25t-5 -36h-651z" />
<glyph unicode="M" horiz-adv-x="1253" d="M113 8v1000q35 12 74.5 14t74.5 2t62.5 -2t62.5 -14l240 -830l239 830q35 12 62.5 14t62.5 2t75 -2t75 -14v-1000q-10 -6 -26.5 -7t-37.5 -1q-16 0 -35.5 1t-33.5 5v924h-27v-21l-279 -903q-14 -4 -35.5 -5t-37.5 -1q-18 0 -39 1t-37 5l-281 903v21h-26v-924 q-14 -4 -33.5 -5t-36.5 -1q-20 0 -36.5 1t-26.5 7z" />
<glyph unicode="N" horiz-adv-x="1073" d="M113 8v1000q35 12 74.5 14t74.5 2t56.5 -2t56.5 -14l426 -893v-21h26v924q14 4 34 5t36 1q20 0 36.5 -1t27.5 -7v-1000q-35 -12 -75 -14t-75 -2h-25.5t-32 1t-30.5 2t-23 3l-428 903v21h-26v-924q-14 -4 -33.5 -5t-36.5 -1q-20 0 -36.5 1t-26.5 7z" />
<glyph unicode="O" horiz-adv-x="1011" d="M92 371v282q0 86 8.5 157t48 120t123.5 76.5t236 27.5q150 0 233.5 -27.5t122.5 -76.5t47.5 -120t8.5 -157v-282q0 -86 -8.5 -157t-47.5 -120t-123 -76.5t-233 -27.5q-152 0 -236 27.5t-123.5 76.5t-48 120t-8.5 157zM225 375q0 -74 9.5 -125t39 -82t85 -45t149.5 -14 q92 0 147.5 14t84 45t37.5 82t9 125v274q0 74 -9 125t-37.5 82t-84 45t-147.5 14q-94 0 -149.5 -14t-85 -45t-39 -82t-9.5 -125v-274z" />
<glyph unicode="P" horiz-adv-x="892" d="M113 6v1018h389q70 0 129 -6t104 -38t70.5 -98.5t25.5 -187.5t-25.5 -187.5t-70.5 -98t-104.5 -37.5t-128.5 -6h-256v-359q-43 -6 -66 -6q-25 0 -67 6zM246 483h254q35 0 72.5 5.5t68.5 27t51.5 63.5t20.5 115q0 74 -20.5 116t-51.5 63.5t-68.5 26.5t-72.5 5h-254v-422z " />
<glyph unicode="Q" horiz-adv-x="1032" d="M102 371v282q0 86 8.5 157t48.5 120t123.5 76.5t235.5 27.5q150 0 234 -27.5t122.5 -76.5t47 -120t8.5 -157v-282q0 -80 -7.5 -147.5t-40 -117t-101 -79t-191.5 -35.5v-86q6 8 16 9t12 1h199q10 -23 10 -55q0 -10 -1 -22.5t-5 -31.5h-243q-39 0 -65 12.5t-52 33.5v139 q-131 4 -204 33.5t-106.5 79t-41 117t-7.5 149.5zM236 375q0 -74 9 -125t38.5 -82t85 -45t149.5 -14q92 0 147.5 14t84 45t38 82t9.5 125v274q0 74 -9.5 125t-38 82t-84 45t-147.5 14q-94 0 -149.5 -14t-85 -45t-38.5 -82t-9 -125v-274z" />
<glyph unicode="R" horiz-adv-x="962" d="M113 6v1018h417q70 0 129.5 -6t104.5 -38t70.5 -98.5t25.5 -187.5q0 -135 -31.5 -202.5t-85.5 -96.5l117 -383q-23 -12 -65 -12q-16 0 -34 1t-32 5l-117 361q-20 -2 -39.5 -2h-42.5h-284v-359q-43 -6 -66 -6q-25 0 -67 6zM246 483h282q35 0 73 5.5t68.5 27t51 63.5 t20.5 115q0 74 -20.5 116t-51 63.5t-68.5 26.5t-73 5h-282v-422z" />
<glyph unicode="S" horiz-adv-x="946" d="M88 84q4 65 51 106q51 -29 101.5 -45t95.5 -24t82 -10t63 -2q37 0 80 5t80 24.5t60.5 56t23.5 100.5q0 49 -47 78.5t-116.5 53.5t-151.5 45.5t-152 56t-117 88t-47 137.5q0 80 28 133t79 86t123.5 47t162.5 14q37 0 82 -2t91.5 -7t88.5 -13t72 -21q-2 -35 -8 -55.5 t-22 -54.5q-20 8 -54.5 14t-75 10t-86 7t-83.5 3q-135 0 -200 -46t-65 -115q0 -51 47.5 -83t117 -54.5t151.5 -45t151.5 -56.5t116.5 -85t47 -135q0 -106 -33.5 -167.5t-87 -92.5t-121 -38t-135.5 -7q-41 0 -97 5t-113.5 15t-106.5 28.5t-76 45.5z" />
<glyph unicode="T" horiz-adv-x="831" d="M39 961q0 20 6 63h741q7 -43 7 -61q0 -12 -1 -23.5t-6 -34.5h-303v-899q-43 -6 -65 -6q-25 0 -68 6v899h-305q-4 23 -5 34t-1 22z" />
<glyph unicode="U" horiz-adv-x="1032" d="M102 371v647q43 6 66 6q25 0 68 -6v-643q0 -74 9 -125t38.5 -82t85 -45t149.5 -14q92 0 147.5 14t84 45t38 82t9.5 125v643q43 6 65 6q25 0 68 -6v-647q0 -86 -8.5 -157t-47 -120t-122.5 -76.5t-234 -27.5q-152 0 -235.5 27.5t-123.5 76.5t-48.5 120t-8.5 157z" />
<glyph unicode="V" horiz-adv-x="921" d="M31 1012q20 12 65 12q16 0 33.5 -1t32.5 -5l289 -903v-21h22v21l287 903q14 4 31.5 5t33.5 1q43 0 66 -12l-303 -996q-35 -12 -62.5 -14t-62.5 -2t-63.5 2t-63.5 14z" />
<glyph unicode="W" horiz-adv-x="1271" d="M31 1012q20 12 65 12q16 0 33.5 -1t32.5 -5l196 -903v-21h23v21l190 723q16 4 31.5 5t34.5 1q16 0 32.5 -1t30.5 -5l191 -723v-21h22v21l197 903q14 4 32 5t34 1q43 0 65 -12l-213 -996q-35 -12 -63.5 -14t-63.5 -2t-62.5 2t-62.5 14l-141 582l-139 -582 q-35 -12 -62.5 -14t-62.5 -2t-63.5 2t-63.5 14z" />
<glyph unicode="X" horiz-adv-x="1021" d="M31 8l395 496l-395 500q20 16 41.5 18t33.5 2q8 0 38 -1t42 -5l324 -408l326 408q12 4 41.5 5t37.5 1q12 0 34 -2t42 -18l-395 -500l395 -496q-20 -6 -50 -7t-42 -1q-10 0 -34.5 1t-47.5 5l-307 389l-305 -389q-23 -4 -47.5 -5t-34.5 -1q-12 0 -42 1t-50 7z" />
<glyph unicode="Y" horiz-adv-x="993" d="M51 1004q20 10 42 15t34 5q8 0 38 -1t42 -5l291 -449l288 449q12 4 42 5t38 1q12 0 34 -5t42 -15l-379 -562v-436q-43 -6 -65 -6q-25 0 -68 6v436z" />
<glyph unicode="Z" horiz-adv-x="1015" d="M102 59q0 12 1 24.5t6 35.5l643 786h-643q-6 43 -7 60q0 12 1 24t6 35h809q4 -23 5 -35t1 -22q0 -12 -1 -25.5t-5 -36.5l-633 -786h598q4 -23 5 -35.5t1 -22.5q0 -12 -1 -25t-5 -36h-774q-6 43 -7 59z" />
<glyph unicode="[" horiz-adv-x="473" d="M113 -113v1250q43 6 65 6h176q6 -43 6 -62q0 -12 -1 -23t-5 -34h-108v-1024h108q6 -43 6 -61q0 -12 -1 -23.5t-5 -34.5h-174q-25 0 -67 6z" />
<glyph unicode="\" horiz-adv-x="595" d="M61 1130q20 12 66 13q16 0 33.5 -1t32.5 -5l342 -1131q-14 -4 -32 -5t-34 -1q-45 0 -66 12z" />
<glyph unicode="]" horiz-adv-x="475" d="M115 -61q0 18 6 61h108v1024h-108q-4 23 -5 34t-1 23q0 18 6 62h176q23 0 65 -6v-1250q-43 -6 -67 -6h-174q-4 23 -5 34t-1 24z" />
<glyph unicode="^" horiz-adv-x="763" d="M113 518l143 490q35 12 63.5 14t63.5 2t62.5 -2t62.5 -14l143 -490q-23 -12 -65 -12q-16 0 -33.5 1t-32.5 5l-127 397v21h-22v-21l-127 -397q-14 -4 -31.5 -5t-34.5 -1q-45 0 -65 12z" />
<glyph unicode="_" horiz-adv-x="753" d="M0 -164q0 12 1 21.5t5 31.5h742q4 -23 5 -32t1 -19q0 -12 -1 -18t-5 -29h-742q-4 23 -5 29t-1 16z" />
<glyph unicode="`" horiz-adv-x="405" d="M113 1092q42 6 65 6q25 0 68 -6l47 -289q-4 -4 -10.5 -5t-8.5 -1q-20 0 -37.5 1t-21.5 5z" />
<glyph unicode="a" horiz-adv-x="843" d="M76 250q0 70 27.5 119t72.5 78.5t103.5 43t117.5 13.5q53 0 97.5 -10.5t85.5 -28.5h18v67q0 49 -18.5 83t-50 55.5t-73.5 31t-89 9.5q-100 0 -195 -31q-16 27 -23.5 52.5t-7.5 60.5q53 16 119 26t123 10q80 0 143.5 -14t109.5 -49t70.5 -92.5t24.5 -143.5v-524 q-43 -6 -67 -6q-23 0 -66 6v96q-41 -57 -101.5 -84.5t-134.5 -27.5q-152 0 -219 57t-67 203zM209 254q0 -72 41 -110t117 -40q78 0 134 38t97 87v158q-6 0 -21.5 1t-34 1h-36h-29.5q-53 0 -102 -4t-86 -18.5t-58.5 -41t-21.5 -71.5z" />
<glyph unicode="b" horiz-adv-x="864" d="M113 6v1086q43 6 65 6q25 0 68 -6v-336h18q18 27 47 42t58.5 22t55.5 8t36 1q117 0 180.5 -25.5t92 -70.5t33.5 -104.5t5 -128.5v-181q0 -70 -6 -130t-38 -104t-98.5 -69.5t-187.5 -25.5q-51 0 -102 13t-94 60v-57q-43 -6 -66 -6q-25 0 -67 6zM246 322q0 -35 3 -73 t21.5 -68.5t58.5 -51t113 -20.5q74 0 114 20.5t58.5 51t21.5 68.5t3 73v176q0 35 -3 72.5t-19.5 68.5t-51.5 51.5t-100 20.5q-66 0 -108 -15.5t-66.5 -41t-34.5 -57.5t-10 -65v-210z" />
<glyph unicode="c" horiz-adv-x="761" d="M86 295v229q0 86 24.5 144.5t70.5 94.5t110.5 51t144.5 15q29 0 65 -2t73.5 -6t73.5 -10t63 -14q0 -35 -7.5 -60.5t-23.5 -52.5q-25 8 -56.5 13t-65.5 8.5t-66.5 4.5t-57.5 1q-94 0 -154.5 -38t-60.5 -136v-254q0 -98 60.5 -136t154.5 -38q25 0 57.5 1t66.5 4t65.5 8 t56.5 13q16 -27 23.5 -52.5t7.5 -59.5q-27 -8 -63 -14.5t-73.5 -10.5t-73.5 -6t-65 -2q-80 0 -144.5 15t-110.5 51t-70.5 94.5t-24.5 144.5z" />
<glyph unicode="d" horiz-adv-x="864" d="M92 319v181q0 70 5 129t34 104t92 70.5t180 25.5q10 0 36 -1t55.5 -8t58.5 -22.5t47 -41.5h18v336q43 6 68 6q23 0 66 -6v-1086q-43 -6 -68 -6q-23 0 -66 6v57q-43 -47 -94 -60t-102 -13q-121 0 -187.5 25.5t-98.5 69.5t-38 104.5t-6 129.5zM225 322q0 -35 3 -73 t21.5 -68.5t58.5 -51t114 -20.5t113.5 20.5t58 51t21.5 68.5t3 73v210q0 33 -10 65t-34.5 57.5t-67.5 41t-107 15.5q-66 0 -100.5 -20.5t-51 -51.5t-19.5 -69t-3 -72v-176z" />
<glyph unicode="e" horiz-adv-x="827" d="M92 295v170q0 98 13.5 167.5t50.5 112.5t102.5 63.5t167.5 20.5q106 0 171 -20.5t98.5 -60t45 -101t11.5 -141.5v-152h-527v-71q0 -98 64.5 -136t159.5 -38q25 0 58.5 1t69 4t68.5 8t57 13q16 -27 23.5 -52.5t7.5 -59.5q-27 -8 -63.5 -14.5t-75.5 -10.5t-76.5 -6 t-66.5 -2q-80 0 -145.5 15t-113 51t-74 94.5t-26.5 144.5zM225 473h393v72q0 37 -6 67.5t-26.5 52t-58.5 34t-101 12.5q-47 0 -84 -5.5t-61.5 -29t-39 -71.5t-16.5 -132z" />
<glyph unicode="f" horiz-adv-x="604" d="M80 756q0 20 6 61h139v23q0 86 10.5 141t34 87t63.5 45t99 13q16 0 67.5 -3t104.5 -19q0 -35 -6 -57.5t-23 -49.5q-49 8 -75 9.5t-51 1.5q-35 0 -52.5 -8.5t-27 -27t-10.5 -51t-1 -81.5v-23h230q6 -41 6 -61q0 -14 -2 -28.5t-8 -29.5h-226v-692q-43 -6 -65 -6 q-25 0 -68 6v692h-135q-6 14 -8 28.5t-2 29.5z" />
<glyph unicode="g" horiz-adv-x="864" d="M92 319v181q0 70 5 129t34 104t92.5 70.5t179.5 25.5q10 0 36 -1t55.5 -8t58.5 -22.5t47 -41.5h18v57q43 6 66 6q25 0 68 -6v-885q0 -86 -25 -144t-71 -94t-110.5 -51.5t-144.5 -15.5q-29 0 -64.5 2t-73.5 6t-73.5 10.5t-62.5 14.5q0 35 7 60.5t24 52.5q25 -8 56.5 -13.5 t65 -8.5t66.5 -4t57 -1q94 0 154.5 38t60.5 136v147q-43 -47 -94 -60t-102 -13q-121 0 -187.5 25.5t-98.5 69.5t-38 104.5t-6 129.5zM225 322q0 -35 3 -73t21.5 -68.5t58.5 -51t114 -20.5t113.5 20.5t58 51t21.5 68.5t3 73v210q0 33 -10 65t-34.5 57.5t-67.5 41t-107 15.5 q-66 0 -100.5 -20.5t-51 -51.5t-19.5 -69t-3 -72v-176z" />
<glyph unicode="h" horiz-adv-x="886" d="M113 6v1086q42 6 65 6q25 0 68 -6v-336h20q20 27 49 42t62 22t65.5 8t63.5 1q76 0 128 -23.5t86 -65.5t49 -98t15 -124v-512q-43 -6 -67 -6q-23 0 -66 6v475q0 41 -3 82t-20.5 74t-55 53.5t-107.5 20.5q-219 0 -219 -156v-549q-43 -6 -68 -6q-23 0 -65 6z" />
<glyph unicode="i" horiz-adv-x="358" d="M113 6v807q42 6 65 6q25 0 68 -6v-807q-43 -6 -66 -6q-25 0 -67 6zM113 944v160q42 6 65 6q25 0 68 -6v-160q-43 -6 -66 -6q-25 0 -67 6z" />
<glyph unicode="j" horiz-adv-x="358" d="M-195 -350q0 35 7.5 60.5t23.5 51.5q25 -6 42.5 -10t32.5 -6t33.5 -3t43.5 -1q76 0 100.5 35t24.5 133v903q43 6 65 6q25 0 68 -6v-903q0 -86 -15.5 -141.5t-46 -87t-76 -45t-104.5 -13.5q-57 0 -101 5t-98 22zM113 944v160q42 6 65 6q25 0 68 -6v-160q-43 -6 -66 -6 q-25 0 -67 6z" />
<glyph unicode="k" horiz-adv-x="892" d="M113 6v1086q43 6 65 6q25 0 68 -6v-578h22q4 12 12.5 23.5t24.5 23.5l410 258q31 -31 43 -49q14 -18 35 -57l-222 -142l283 -555q-18 -16 -57 -16q-16 0 -37 1t-35 5l-254 502l-225 -139v-363q-43 -6 -66 -6q-25 0 -67 6z" />
<glyph unicode="l" horiz-adv-x="358" d="M113 6v1086q42 6 65 6q25 0 68 -6v-1086q-43 -6 -66 -6q-25 0 -67 6z" />
<glyph unicode="m" horiz-adv-x="1218" d="M113 6v807q23 4 36 5t25 1q16 0 59 -6l13 -57h20q20 27 46 42t48.5 22t42 8t29.5 1q68 0 124 -19t85 -54q20 27 55 42t69 22t61.5 8t37.5 1q76 0 125 -23.5t78 -65.5t40 -98t11 -124v-512q-43 -6 -67 -6q-23 0 -66 6v475q0 41 -4 82t-17.5 74t-40 53.5t-69.5 20.5 q-18 0 -45 -2t-53.5 -5.5t-49 -7.5t-30.5 -10q12 -37 16 -79t4 -89v-512q-43 -6 -67 -6q-23 0 -66 6v475q0 41 -6 82t-21.5 74t-43 53.5t-70.5 20.5q-53 0 -88 -10.5t-54.5 -32t-26.5 -53t-7 -76.5v-533q-43 -6 -68 -6q-23 0 -65 6z" />
<glyph unicode="n" horiz-adv-x="876" d="M113 6v807q23 4 36 5t25 1q16 0 59 -6l13 -57h20q43 55 105.5 64t124.5 9q76 0 128 -23.5t85.5 -65.5t49 -98t15.5 -124v-512q-43 -6 -67 -6q-23 0 -66 6v475q0 41 -3 82t-20.5 74t-55.5 53.5t-107 20.5q-119 0 -164 -41t-45 -131v-533q-43 -6 -68 -6q-23 0 -65 6z" />
<glyph unicode="o" horiz-adv-x="843" d="M92 319v181q0 70 6 129t38 104t98.5 70.5t187.5 25.5t187.5 -25.5t98 -70.5t38 -104.5t6.5 -128.5v-181q0 -70 -6.5 -130t-38 -104t-98 -69.5t-187.5 -25.5t-187.5 25.5t-98.5 69.5t-38 104.5t-6 129.5zM225 322q0 -35 3 -73t21.5 -68.5t58.5 -51t114 -20.5t113.5 20.5 t58 51t21.5 68.5t3 73v176q0 35 -3 72.5t-21.5 68.5t-58 51.5t-113.5 20.5t-114 -20.5t-58.5 -51.5t-21.5 -69t-3 -72v-176z" />
<glyph unicode="p" horiz-adv-x="864" d="M113 -371v1184q42 6 67 6q23 0 66 -6v-57h18q18 27 47 42t58.5 22t55.5 8t36 1q117 0 180.5 -25.5t92 -70.5t33.5 -104.5t5 -128.5v-181q0 -70 -6 -130t-38 -104t-98.5 -69.5t-187.5 -25.5q-51 0 -102 13t-94 60v-434q-43 -6 -68 -6q-23 0 -65 6zM246 322q0 -35 3 -73 t21.5 -68.5t58.5 -51t113 -20.5q74 0 114 20.5t58.5 51t21.5 68.5t3 73v176q0 35 -3 72.5t-19.5 68.5t-51.5 51.5t-100 20.5q-66 0 -108 -15.5t-66.5 -41t-34.5 -57.5t-10 -65v-210z" />
<glyph unicode="q" horiz-adv-x="864" d="M92 319v181q0 70 5 129t34 104t92.5 70.5t179.5 25.5q10 0 36 -1t55.5 -8t58.5 -22.5t47 -41.5h18v57q43 6 66 6q25 0 68 -6v-1184q-43 -6 -66 -6q-25 0 -68 6v434q-43 -47 -94 -60t-102 -13q-121 0 -187.5 25.5t-98.5 69.5t-38 104.5t-6 129.5zM225 322q0 -35 3 -73 t21.5 -68.5t58.5 -51t114 -20.5t113.5 20.5t58 51t21.5 68.5t3 73v210q0 33 -10 65t-34.5 57.5t-67.5 41t-107 15.5q-66 0 -100.5 -20.5t-51 -51.5t-19.5 -69t-3 -72v-176z" />
<glyph unicode="r" horiz-adv-x="544" d="M113 6v807q23 4 36 5t25 1q16 0 59 -6l13 -57h20q43 55 105.5 64t124.5 9h34q6 -14 8.5 -28.5t2.5 -28.5q0 -23 -6 -61h-80q-119 0 -164 -41t-45 -131v-533q-43 -6 -68 -6q-23 0 -65 6z" />
<glyph unicode="s" horiz-adv-x="768" d="M82 604q0 127 85 176t230 49q31 0 67 -2t72.5 -6t70.5 -11t59 -15q-4 -35 -10.5 -58.5t-20.5 -52.5q-33 12 -100.5 19.5t-133.5 7.5q-109 0 -147.5 -26t-38.5 -81q0 -41 36 -65.5t89 -42t115.5 -34t116 -44t89 -70.5t35.5 -112q0 -135 -68.5 -190.5t-234.5 -55.5 q-33 0 -73.5 3t-81.5 8t-78 13.5t-64 18.5q4 45 10.5 66.5t26.5 52.5q23 -10 57.5 -18.5t71.5 -13.5t72 -8t59 -3q53 0 87 8t52.5 23.5t24.5 39t6 56.5q0 39 -35.5 63.5t-89 42.5t-116 35.5t-115.5 45.5t-89 71t-36 110z" />
<glyph unicode="t" horiz-adv-x="542" d="M27 758q0 20 6 61h141v238q43 6 66 6q25 0 67 -6v-238h162q6 -41 6 -61q0 -14 -2 -28.5t-8 -29.5h-158v-452q0 -35 3 -58.5t14.5 -39t34 -23.5t61.5 -8h51q6 -41 6 -62q0 -20 -6 -57h-49q-72 0 -119 11.5t-75.5 40t-41 75.5t-12.5 121v452h-137q-6 14 -8 28.5t-2 29.5z " />
<glyph unicode="u" horiz-adv-x="866" d="M92 301v512q43 6 68 6q23 0 65 -6v-475q0 -41 3 -82t20.5 -73.5t55.5 -53t108 -20.5q119 0 164 40.5t45 131.5v532q42 6 67 6q23 0 66 -6v-807q-23 -4 -36 -5t-26 -1q-16 0 -59 6l-12 57h-21q-43 -55 -105.5 -64t-123.5 -9q-76 0 -128.5 23.5t-86 65.5t-49 98t-15.5 124z " />
<glyph unicode="v" horiz-adv-x="792" d="M31 807q20 12 65 12q16 0 33.5 -1t32.5 -5l223 -698v-21h23v21l223 698q14 4 31.5 5t33.5 1q43 0 66 -12l-240 -791q-35 -12 -62.5 -14t-62.5 -2t-63.5 2t-63.5 14z" />
<glyph unicode="w" horiz-adv-x="1028" d="M78 813q33 6 67 6q35 0 66 -6l84 -698v-21h20v21l113 487q16 4 43 7t43 3q18 0 44 -3t42 -7l113 -487v-21h20v21l84 698q31 6 66 6q33 0 67 -6l-102 -797q-35 -12 -62.5 -14t-62.5 -2t-58.5 2t-48.5 12l-92 412h-20l-92 -412q-25 -10 -48.5 -12t-58.5 -2t-62.5 2 t-62.5 14z" />
<glyph unicode="x" horiz-adv-x="901" d="M51 8l314 393l-314 398q20 10 42 15t34 5q8 0 38 -1t42 -5l244 -305l243 305q12 4 42 5t38 1q12 0 33.5 -5t42.5 -15l-313 -398l313 -393q-20 -6 -50 -7t-42 -1q-10 0 -35 1t-47 5l-225 287l-226 -287q-23 -4 -47 -5t-35 -1q-12 0 -41.5 1t-50.5 7z" />
<glyph unicode="y" horiz-adv-x="792" d="M31 807q20 12 65 12q16 0 33.5 -1t32.5 -5l223 -698v-21h23v21l223 698q14 4 31.5 5t33.5 1q43 0 66 -12l-367 -1178q-14 -4 -31.5 -5t-33.5 -1q-45 0 -66 12l96 314q4 16 9.5 21t15.5 10v20h-8q-29 0 -53.5 3t-53.5 13z" />
<glyph unicode="z" horiz-adv-x="794" d="M82 59q0 12 1 24.5t5 35.5l453 581h-453q-6 43 -6 60q0 12 1 24.5t5 34.5h619q4 -23 5 -35t1 -22q0 -12 -1 -25.5t-5 -36.5l-56 -73q-20 -29 -53 -71t-79 -103.5t-109.5 -143.5t-145.5 -190h443q4 -23 5 -35.5t1 -22.5q0 -12 -1 -25t-5 -36h-619q-6 43 -6 59z" />
<glyph unicode="{" horiz-adv-x="630" d="M113 508q0 18 6 61q35 0 58.5 4.5t36.5 20.5t19.5 49t6.5 92v314q0 16 2 33.5t12 30.5t28.5 21.5t53.5 8.5h176q6 -43 6 -60q0 -12 -1 -24t-5 -35h-94q-23 0 -41.5 -4t-18.5 -31v-254q0 -86 -15 -138t-44 -85q29 -31 44 -83t15 -138v-256q0 -27 18.5 -31t41.5 -4h94 q4 -23 5 -35t1 -24q0 -16 -6 -60h-176q-35 0 -53.5 8.5t-28.5 21.5t-12 30.5t-2 33.5v316q0 57 -6.5 90t-19.5 48t-36.5 18.5t-58.5 3.5q-4 23 -5 34t-1 23z" />
<glyph unicode="|" horiz-adv-x="358" d="M113 -113v1250q42 6 65 6q25 0 68 -6v-1250q-43 -6 -66 -6q-25 0 -67 6z" />
<glyph unicode="}" horiz-adv-x="630" d="M113 -59q0 12 1 24t5 35h94q23 0 41 4t18 31v256q0 86 15.5 138t44.5 83q-29 33 -44.5 85t-15.5 138v254q0 27 -18 31t-41 4h-94q-4 23 -5 35t-1 24q0 16 6 60h176q33 0 52.5 -8.5t29.5 -21.5t12 -30.5t2 -33.5v-314q0 -59 6 -92t19.5 -49t37 -20.5t58.5 -4.5 q6 -43 6 -61q0 -12 -1 -23.5t-5 -33.5q-35 0 -58.5 -3.5t-37 -18.5t-19.5 -48t-6 -90v-316q0 -16 -2 -33.5t-12 -30.5t-29.5 -21.5t-52.5 -8.5h-176q-6 43 -6 60z" />
<glyph unicode="~" horiz-adv-x="968" d="M113 514q45 39 88 61.5t98 22.5q51 0 96 -18.5t90 -42t90.5 -42t94.5 -18.5q41 0 64.5 11.5t58.5 39.5q16 -16 24 -23t14 -18q8 -10 12.5 -19t12.5 -26q-45 -39 -89 -61.5t-99 -22.5q-47 0 -90 18.5t-88.5 42t-91.5 42t-99 18.5q-41 0 -64.5 -11t-58.5 -40 q-16 16 -24.5 23.5t-14.5 17.5q-8 10 -14 20.5t-10 24.5z" />
<glyph unicode="&#xad;" horiz-adv-x="772" d="M113 397q0 20 6 64h534q6 -43 6 -62q0 -12 -1 -23t-5 -34h-534q-4 23 -5 34t-1 21z" />
<glyph unicode="&#xbc;" horiz-adv-x="1224" d="M96 889l203 131q12 2 25.5 3t19.5 1q8 0 21.5 -1t25.5 -3v-612q-12 -2 -25.5 -3.5t-19.5 -1.5q-8 0 -21.5 1.5t-25.5 3.5v503q-37 -25 -76 -51t-80 -49q-8 4 -17 15.5t-13 15.5q-6 6 -11.5 20.5t-5.5 26.5zM336 6l450 1012q14 4 26.5 5t29.5 1q20 0 32.5 -3t22.5 -9 l-451 -1000q-10 -6 -22 -9t-33 -3q-16 0 -28.5 1t-26.5 5zM664 229q0 8 1 20.5t3 24.5l264 342q12 2 36 3.5t38 1.5h25t22 -5v-342h71q2 -12 3 -24t1 -19q0 -8 -1 -18t-3 -23h-71v-186q-16 -4 -29.5 -4h-17.5h-23.5t-24.5 4v186h-290q-2 12 -3 22.5t-1 16.5zM774 274h184 v236z" />
<glyph unicode="&#xbd;" horiz-adv-x="1292" d="M96 889l203 131q12 2 25.5 3t19.5 1q8 0 21.5 -1t25.5 -3v-612q-12 -2 -25.5 -3.5t-19.5 -1.5q-8 0 -21.5 1.5t-25.5 3.5v503q-37 -25 -76 -51t-80 -49q-8 4 -17 15.5t-13 15.5q-6 6 -11.5 20.5t-5.5 26.5zM336 6l450 1012q14 4 26.5 5t29.5 1q20 0 32.5 -3t22.5 -9 l-451 -1000q-10 -6 -22 -9t-33 -3q-16 0 -28.5 1t-26.5 5zM774 449q0 29 5 59.5t26.5 55t63.5 41t116 16.5q72 0 114 -16.5t63.5 -41t27.5 -55.5t6 -59q0 -59 -41 -109.5t-95 -95.5t-105.5 -86t-71.5 -80h309q2 -12 3 -24.5t1 -18.5q0 -8 -1 -14.5t-3 -20.5h-408 q-2 14 -3 20.5t-1 12.5q0 14 6 39q14 57 66.5 107t108 95t99.5 87t44 85q0 20 -2 40t-13.5 33t-35 21.5t-68.5 8.5t-68.5 -8.5t-35 -21.5t-13.5 -32.5t-2 -40.5q-12 -2 -26.5 -3t-18.5 -1q-20 0 -47 7z" />
<glyph unicode="&#xbe;" horiz-adv-x="1288" d="M96 860q0 29 5 59.5t27 56t63.5 42t115.5 16.5t116 -16.5t63.5 -42t27.5 -56t6 -59.5q0 -37 -13 -74.5t-50 -66.5q37 -27 51 -66t14 -73q0 -29 -6 -61t-27.5 -57.5t-63.5 -42t-116 -16.5t-115.5 16.5t-63 42t-27 56.5t-5.5 60q12 4 25.5 5t21.5 1q6 0 18.5 -1t26.5 -3 q0 -23 2.5 -40.5t13.5 -28.5t34.5 -17.5t68.5 -6.5t68.5 6.5t35 17.5t13.5 28.5t2 40.5t-2 41t-15.5 32.5t-41 21.5t-78.5 7q-6 27 -6 39q0 6 1 13t3 22q51 0 79.5 7t42 21.5t15.5 33t2 40.5q0 23 -2 40t-13.5 28.5t-35 17.5t-68.5 6t-69.5 -6t-35.5 -17.5t-13.5 -28.5 t-2.5 -40q-12 -2 -25 -3t-20 -1q-8 0 -21 1t-26 5zM399 6l451 1012q14 4 26.5 5t28.5 1q20 0 32.5 -3t23.5 -9l-451 -1000q-10 -6 -22.5 -9t-32.5 -3q-16 0 -28.5 1t-27.5 5zM727 229q0 8 1 20.5t3 24.5l264 342q12 2 36 3.5t38 1.5h25.5t21.5 -5v-342h72q2 -12 3 -24t1 -19 q0 -8 -1 -18t-3 -23h-72v-186q-16 -4 -29.5 -4h-17.5h-23.5t-23.5 4v186h-291q-2 12 -3 22.5t-1 16.5zM838 274h184v236z" />
<glyph unicode="&#xbf;" horiz-adv-x="759" d="M111 20q0 88 41 137.5t91 84t91 69.5t41 95v159q43 6 65 6q25 0 68 -6v-159q0 -90 -41 -138.5t-91 -82t-91 -68.5t-41 -97q0 -29 6 -48t24.5 -32.5t51 -19.5t88.5 -6q127 0 192 43q35 -49 41 -113q-49 -29 -113.5 -39t-123.5 -10q-145 0 -222 49.5t-77 175.5zM373 664 v159q43 6 65 6q25 0 68 -6v-159q-43 -7 -66 -7q-25 0 -67 7z" />
<glyph unicode="&#xff;" horiz-adv-x="1941" />
<glyph unicode="&#xe01;" horiz-adv-x="856" d="M96 711v75q29 8 60.5 15.5t70.5 13.5q72 14 158 14q186 0 280.5 -91t94.5 -283v-449q-43 -6 -68 -6q-23 0 -65 6v443q0 53 -14.5 101t-43 84t-73.5 56.5t-109 20.5h-63q-29 -43 -45.5 -82t-24.5 -70q-8 -37 -12 -67v-490q-43 -6 -68 -6q-23 0 -65 6v494q0 55 12 92 t28.5 59.5t30 31.5t17.5 11v21h-101z" />
<glyph unicode="&#xe02;" horiz-adv-x="745" d="M72 762q0 14 2 28.5t8 28.5h209v-141q-16 -23 -29 -57q-10 -29 -19.5 -77t-9.5 -114v-213q0 -14 5.5 -32.5t20.5 -36t43 -28.5t73 -11t72.5 11t43 27.5t20.5 35t5 32.5v598q43 6 68 6q23 0 65 -6v-610q0 -20 -5 -56t-29.5 -71t-78 -60.5t-147.5 -25.5h-29 q-96 0 -148 25.5t-76.5 60.5t-30 70.5t-5.5 56.5v227q0 82 10.5 132t21.5 77t22 34l10 7v20h-86q-6 39 -6 62z" />
<glyph unicode="&#xe03;" horiz-adv-x="751" d="M51 762q0 14 2 28.5t8 28.5h66q8 0 17.5 -18.5t9.5 -22.5h49q4 12 10 21q4 8 8 14t8 6h68v-155q-16 -23 -29 -58q-10 -29 -19 -77t-9 -113v-199q0 -14 5 -32.5t20.5 -36t43 -28.5t72.5 -11t72.5 11t43 27.5t20.5 35t5 32.5v598q43 6 68 6q23 0 65 -6v-610q0 -20 -5 -56 t-29.5 -71t-78 -60.5t-147.5 -25.5h-28q-96 0 -148.5 25.5t-77 60.5t-30 70.5t-5.5 56.5v213q0 82 10.5 132t22 76.5t21.5 33.5l10 8v20h-113q-4 20 -5 43t-1 33z" />
<glyph unicode="&#xe04;" horiz-adv-x="823" d="M72 6v457q0 70 6 135.5t36.5 116.5t97 82.5t187.5 31.5t187.5 -31.5t97.5 -82.5t37 -117t6 -135v-457q-43 -6 -68 -6q-23 0 -65 6v490q0 35 -4 72.5t-22.5 69.5t-57.5 52.5t-111 20.5t-110.5 -20.5t-57 -52.5t-22.5 -70t-4 -72v-78h20q23 14 52.5 16t72.5 2h105 q4 -12 5 -22.5t1 -34.5q0 -27 -10 -62h-107q-41 0 -79 -2t-60 -16v-293q-43 -6 -68 -6q-23 0 -65 6z" />
<glyph unicode="&#xe05;" horiz-adv-x="829" d="M72 6v457q0 70 6 129t28.5 106t66.5 81t120 50l100 -43h21l100 43q70 -2 114 -35.5t66.5 -86t30.5 -117t8 -127.5v-457q-43 -6 -67 -6q-23 0 -66 6v467q0 33 -1 67.5t-9 67.5t-25.5 59.5t-50.5 43.5l-100 -35h-21l-100 35q-33 -14 -50.5 -42t-25.5 -62t-10 -70.5 t-2 -73.5v-45h20q23 14 52.5 16t72.5 2h105q4 -12 5 -22.5t1 -34.5q0 -27 -10 -62h-107q-41 0 -79 -2t-60 -16v-293q-43 -6 -68 -6q-23 0 -65 6z" />
<glyph unicode="&#xe06;" horiz-adv-x="847" d="M45 762q0 14 2 28.5t8 28.5h66q8 0 17 -18.5t9 -22.5h50q4 12 10 21q4 8 8 14t8 6h68v-155q-16 -23 -29 -58q-10 -29 -19.5 -77t-9.5 -113v-78q0 -45 15.5 -86t45.5 -73t75 -51t104 -19q45 0 72.5 20.5t44 53t22.5 73.5t6 82v475q43 6 66 6q25 0 68 -6v-512 q0 -68 -15.5 -124t-49.5 -98t-86 -65.5t-128 -23.5q-14 0 -45 2t-65.5 13t-65.5 34.5t-43 69.5v8h-21l-12 -111q-43 -6 -59 -6q-12 0 -25.5 1t-36.5 5v410q0 82 10.5 132t21.5 76.5t22 33.5l10 8v20h-113q-4 20 -5 43t-1 33z" />
<glyph unicode="&#xe07;" horiz-adv-x="679" d="M41 338q33 12 63.5 21.5t65.5 13.5l96 -269v-8h21q43 25 77.5 51.5t59.5 63.5t38 86t13 117q0 59 -3 111.5t-20.5 91t-53.5 61t-101 22.5h-47q-4 18 -4 34v26v24.5t4 34.5h47q98 0 158.5 -32.5t94.5 -88t46 -129t12 -155.5q0 -78 -22.5 -155t-68.5 -136.5t-114.5 -96 t-158.5 -36.5q-23 0 -44.5 1t-41.5 11z" />
<glyph unicode="&#xe08;" horiz-adv-x="743" d="M41 788q27 8 61.5 15.5t70.5 13.5t70.5 9t63.5 3q80 0 144.5 -15t110.5 -51t70.5 -94.5t24.5 -144.5v-123q0 -78 -11 -150.5t-44 -127.5t-92 -89t-156 -34h-32.5t-44 3t-43 7t-27.5 15l-19 280h-86q-6 43 -6 64q0 10 1 21t5 34h213l23 -305h20q51 4 83 22.5t50.5 53 t25.5 86t7 120.5v136q0 98 -60.5 136t-154.5 38q-25 0 -56.5 -3t-64 -7.5t-62.5 -10.5t-54 -14q-16 27 -23.5 52.5t-7.5 59.5z" />
<glyph unicode="&#xe09;" horiz-adv-x="819" d="M72 301v205q43 6 67 6q23 0 66 -6v-168q0 -41 6 -82t22.5 -73.5t44 -53t72.5 -20.5q59 0 104.5 19t75 51t45 73t15.5 86v199q0 98 -60.5 136t-154.5 38q-25 0 -56.5 -3t-64.5 -7.5t-62.5 -10.5t-54.5 -14q-16 27 -23.5 52.5t-7.5 59.5q27 8 62 15.5t70.5 13.5t70.5 9 t64 3q80 0 144.5 -15t110.5 -51t70.5 -94.5t24.5 -144.5v-518q-23 -4 -36 -5t-25 -1q-16 0 -60 6l-12 111h-21v-8q-12 -45 -42.5 -69t-65.5 -35t-65.5 -13t-45.5 -2q-76 0 -128 23.5t-86 65.5t-49 98t-15 124z" />
<glyph unicode="&#xe0a;" horiz-adv-x="786" d="M72 762q0 14 2 28.5t8 28.5h209v-141q-16 -23 -29 -57q-10 -29 -19.5 -77t-9.5 -114v-213q0 -14 8.5 -32.5t28 -36t50 -28.5t75.5 -11t76 11t50.5 27.5t27.5 35t8 32.5v277q0 27 -1 51t-8 43.5t-22.5 31t-44.5 11.5h-61q-4 18 -4 32.5v24.5v26.5t4 35.5h63q27 0 42.5 13 t22.5 31.5t8 39t1 34.5v23q45 6 70 6q16 0 31.5 -2t31.5 -10v-19q0 -10 -2 -36.5t-14 -54.5t-38 -50.5t-73 -22.5v-20q12 0 33.5 -8t42 -29.5t36 -58.5t15.5 -92v-289q0 -20 -8 -56t-37 -71t-85 -60.5t-150 -25.5h-29q-96 0 -151.5 25.5t-84 60.5t-37 70.5t-8.5 56.5v227 q0 82 10.5 132t21.5 77t22 34l10 7v20h-86q-6 39 -6 62z" />
<glyph unicode="&#xe0b;" horiz-adv-x="792" d="M51 762q0 14 2 28.5t8 28.5h66q8 0 17.5 -18.5t9.5 -22.5h49q4 12 10 21q4 8 8 14t8 6h68v-155q-16 -23 -29 -58q-10 -29 -19 -77t-9 -113v-199q0 -14 8 -32.5t27.5 -36t50 -28.5t75.5 -11t76 11t50.5 27.5t27.5 35t8 32.5v277q0 27 -1 51t-8 43.5t-22.5 31t-44.5 11.5 h-61q-4 18 -4 32.5v24.5v26.5t4 35.5h63q27 0 42.5 13t22.5 31.5t8 39t1 34.5v23q45 6 70 6q16 0 31.5 -2t31.5 -10v-19q0 -10 -2 -36.5t-14 -54.5t-38 -50.5t-73 -22.5v-20q12 0 34 -8t42.5 -29.5t35.5 -58.5t15 -92v-289q0 -20 -8 -56t-36.5 -71t-85 -60.5t-150.5 -25.5 h-29q-96 0 -151.5 25.5t-84 60.5t-37 70.5t-8.5 56.5v213q0 82 10.5 132t22 76.5t21.5 33.5l10 8v20h-113q-4 20 -5 43t-1 33z" />
<glyph unicode="&#xe0c;" horiz-adv-x="1327" d="M96 711v75q29 8 60.5 15.5t70.5 13.5q72 14 158 14q186 0 280.5 -91t94.5 -283v-131q0 -90 52 -152.5t171 -62.5q43 0 66.5 17t34 45t12.5 64.5t2 77.5v500q42 6 65 6q25 0 68 -6v-512q0 -68 -10.5 -124t-38 -98t-75.5 -65.5t-124 -23.5q-14 0 -43 2t-59.5 12t-59 32.5 t-41.5 63.5v9h-20l-12 -103q-43 -6 -60 -6q-12 0 -25.5 1t-35.5 5v443q0 53 -14.5 101t-43 84t-73.5 56.5t-109 20.5h-63q-29 -43 -45.5 -82t-24.5 -70q-8 -37 -12 -65v-385h102q4 -23 5 -32t1 -22q0 -10 -1 -21t-5 -34h-170q-23 0 -65 6v490q0 55 12 92t28.5 59.5t30 31.5 t17.5 11v21h-101z" />
<glyph unicode="&#xe0d;" horiz-adv-x="1327" d="M96 711v75q29 8 60.5 15.5t70.5 13.5q72 14 158 14q186 0 280.5 -91t94.5 -283v-142q0 -41 2 -77.5t12 -64.5t33.5 -45t66.5 -17q119 0 171.5 62t52.5 153v489q42 6 67 6q23 0 66 -6v-715q0 -68 -10.5 -126t-38 -101t-75.5 -68.5t-124 -25.5h-238q-4 14 -5 24.5t-1 30.5 q0 14 1 27.5t5 36.5h238q43 0 65.5 18t33 48t12.5 68t2 79h-19v-9q-12 -41 -40.5 -63.5t-59.5 -32.5t-59.5 -12t-43.5 -2q-76 0 -124 23.5t-75.5 65.5t-37.5 98t-10 124v148q0 53 -14.5 101t-43 84t-73.5 56.5t-109 20.5h-63q-29 -43 -45.5 -82t-24.5 -70q-8 -37 -12 -65 v-385h102q4 -23 5 -32t1 -22q0 -10 -1 -21t-5 -34h-170q-23 0 -65 6v490q0 55 12 92t28.5 59.5t30 31.5t17.5 11v21h-101z" />
<glyph unicode="&#xe0e;" horiz-adv-x="886" d="M61 55q0 12 1 21.5t6 32.5h71v387q0 55 12.5 92t29 59.5t29.5 31.5t17 11v21h-100v75q29 8 60.5 15.5t70.5 13.5q72 14 158 14q186 0 280.5 -91t94.5 -283v-510q0 -63 -3.5 -126t-24 -112t-65.5 -78.5t-127 -29.5h-424q-6 27 -7 34t-1 21q0 16 1 31.5t7 31.5h424 q33 0 50.5 10.5t25.5 36t9 69.5t1 112v504q0 53 -14 101t-43 84t-74 56.5t-108 20.5h-64q-29 -43 -45 -82t-24 -70q-8 -37 -13 -65v-488q-43 -6 -65 -6h-139q-4 23 -5.5 34t-1.5 21z" />
<glyph unicode="&#xe0f;" horiz-adv-x="886" d="M61 55q0 12 1 21.5t6 32.5h71v387q0 55 12.5 92t29 59.5t29.5 31.5t17 11v21h-100v75q29 8 60.5 15.5t70.5 13.5q72 14 158 14q186 0 280.5 -91t94.5 -283v-510q0 -63 -3.5 -126t-24 -112t-65.5 -78.5t-127 -29.5h-82l-100 67h-20l-99 -67h-123q-4 27 -6 34t-2 21 q0 16 1 31.5t7 31.5h121l101 58h20l100 -58h82q33 0 50.5 10.5t25.5 36t9 69.5t1 112v504q0 53 -14 101t-43 84t-74 56.5t-108 20.5h-64q-29 -43 -45 -82t-24 -70q-8 -37 -13 -65v-488q-43 -6 -65 -6h-139q-4 23 -5.5 34t-1.5 21z" />
<glyph unicode="&#xe10;" horiz-adv-x="743" d="M41 788q27 8 61.5 15.5t70.5 13.5t71 9t63 3q33 0 61.5 -2t57.5 -8v21q27 20 52.5 32.5t64.5 12.5h108q4 -18 5 -30.5t1 -23.5q0 -33 -10 -55h-63q-2 0 -12.5 1t-16.5 9v-18q47 -35 74.5 -94.5t27.5 -149.5v-123q0 -78 -11 -150.5t-44 -127.5t-92 -89t-156 -34h-32.5 t-44 3t-43 7t-27.5 15l-19 290h-86q-6 43 -6 64q0 10 1 21.5t5 33.5h213l23 -315h20q51 4 83 22.5t50.5 53t25.5 86t7 120.5v136q0 98 -60.5 136t-154.5 38q-25 0 -56.5 -3t-64 -7.5t-62.5 -10.5t-54 -14q-16 27 -23.5 52.5t-7.5 59.5zM123 -225q0 16 1 31.5t7 31.5h53 l101 47h20l101 -47h32q31 0 48.5 1t25.5 8.5t10 23.5t2 45v45q43 6 66 6q25 0 67 -6v-45q0 -63 -4 -102t-24.5 -59.5t-64.5 -28t-126 -7.5h-32l-101 48h-20l-99 -48h-55q-6 16 -7 28.5t-1 27.5z" />
<glyph unicode="&#xe11;" horiz-adv-x="847" d="M45 762q0 14 2 28.5t8 28.5h66q8 0 17 -17.5t9 -21.5h50q4 10 10 19q4 8 8 14t8 6h68v-78h16q20 49 70.5 68.5t95.5 19.5q76 0 128 -23.5t86 -65.5t49.5 -98t15.5 -124v-512q-43 -6 -68 -6q-23 0 -66 6v475q0 41 -6 82t-22.5 74t-44 53.5t-72.5 20.5q-66 0 -111 -23.5 t-73.5 -63.5t-42 -93.5t-13.5 -110.5v-414q-43 -6 -67 -6q-23 0 -66 6v424q0 80 10.5 127t21.5 72.5t22 32.5l10 8v16h-113q-4 20 -5 43t-1 33z" />
<glyph unicode="&#xe12;" horiz-adv-x="1300" d="M72 244v217q0 70 6 129t28.5 107t66.5 82t120 50l100 -45h21l100 45q70 -2 114 -35.5t66.5 -86t30.5 -118t8 -128.5v-137q0 -90 52.5 -152.5t170.5 -62.5q43 0 67 17t34 45t12 64.5t2 77.5v500q43 6 66 6q25 0 67 -6v-512q0 -68 -10 -124t-38 -98t-76 -65.5t-124 -23.5 q-14 0 -42.5 2t-59.5 12t-59.5 32.5t-40.5 63.5v9h-21l-12 -103q-43 -6 -59 -6q-12 0 -25.5 1t-36.5 5v465q0 33 -1 67.5t-9 67.5t-25.5 59.5t-50.5 43.5l-100 -35h-21l-100 35q-33 -14 -50.5 -42t-25.5 -62t-10 -70.5t-2 -73.5v-209q0 -35 3 -60.5t14 -41t34 -23.5t61 -8 h52q6 -41 6 -62q0 -20 -6 -57h-50q-72 0 -118.5 10t-75.5 38t-41 75t-12 121z" />
<glyph unicode="&#xe13;" horiz-adv-x="1327" d="M96 711v75q29 8 60.5 15.5t70.5 13.5q72 14 158 14q186 0 280.5 -91t94.5 -283v-142q0 -41 2 -77.5t12 -64.5t33.5 -45t66.5 -17q119 0 171.5 62t52.5 153v489q42 6 67 6q23 0 66 -6v-807q-23 -4 -36 -5t-26 -1q-16 0 -59 6l-12 103h-21v-9q-12 -41 -40.5 -63.5 t-59.5 -32.5t-59.5 -12t-43.5 -2q-76 0 -124 23.5t-75.5 65.5t-37.5 98t-10 124v148q0 53 -14.5 101t-43 84t-73.5 56.5t-109 20.5h-63q-29 -43 -45.5 -82t-24.5 -70q-8 -37 -12 -65v-385h102q4 -23 5 -32t1 -22q0 -10 -1 -21t-5 -34h-170q-23 0 -65 6v490q0 55 12 92 t28.5 59.5t30 31.5t17.5 11v21h-101z" />
<glyph unicode="&#xe14;" horiz-adv-x="829" d="M72 248v213q0 70 7 135.5t40 117.5t99.5 83.5t184.5 31.5q113 0 178.5 -33.5t99.5 -87t43 -119t9 -128.5v-457q-43 -6 -67 -6q-23 0 -66 6v479q0 33 -3 73t-21.5 74t-59.5 57.5t-117 23.5q-72 0 -110.5 -23.5t-57 -58.5t-22.5 -76t-4 -78v-223q0 -35 3 -60.5t14 -41 t34 -23.5t61 -8h52q6 -41 6 -62q0 -20 -6 -57h-50q-72 0 -118.5 11.5t-75.5 40t-41 75.5t-12 121z" />
<glyph unicode="&#xe15;" horiz-adv-x="829" d="M72 248v213q0 70 6 129t28.5 107t66.5 82t120 50l100 -45h21l100 45q70 -2 114 -35.5t66.5 -86t30.5 -118t8 -128.5v-457q-43 -6 -67 -6q-23 0 -66 6v467q0 33 -1 67.5t-9 67.5t-25.5 59.5t-50.5 43.5l-100 -35h-21l-100 35q-33 -14 -50.5 -42t-25.5 -62t-10 -70.5 t-2 -73.5v-209q0 -35 3 -60.5t14 -41t34 -23.5t61 -8h52q6 -41 6 -62q0 -20 -6 -57h-50q-72 0 -118.5 11.5t-75.5 40t-41 75.5t-12 121z" />
<glyph unicode="&#xe16;" horiz-adv-x="856" d="M96 711v75q29 8 60.5 15.5t70.5 13.5q72 14 158 14q186 0 280.5 -91t94.5 -283v-449q-43 -6 -68 -6q-23 0 -65 6v443q0 53 -14.5 101t-43 84t-73.5 56.5t-109 20.5h-63q-29 -43 -45.5 -82t-24.5 -70q-8 -37 -12 -65v-385h102q4 -23 5 -32t1 -22q0 -10 -1 -21t-5 -34h-170 q-23 0 -65 6v490q0 55 12 92t28.5 59.5t30 31.5t17.5 11v21h-101z" />
<glyph unicode="&#xe17;" horiz-adv-x="843" d="M96 6v807q23 4 36 5t26 1q16 0 59 -6l12 -111h21v9q12 45 43 68.5t65.5 34.5t65.5 13t45 2q76 0 128 -23.5t86 -65.5t49.5 -98t15.5 -124v-512q-43 -6 -68 -6q-23 0 -66 6v475q0 41 -6 82t-22.5 74t-44 53.5t-72.5 20.5q-59 0 -104.5 -19.5t-75 -51.5t-45 -73t-15.5 -86 v-475q-42 -6 -67 -6q-23 0 -66 6z" />
<glyph unicode="&#xe18;" horiz-adv-x="768" d="M76 627q0 63 22.5 103t63.5 61.5t99 29.5t130 8q31 0 66 -2t69.5 -6t67.5 -11t57 -15q-4 -35 -10 -58.5t-20 -52.5q-33 12 -96.5 19.5t-129.5 7.5q-109 0 -147.5 -14.5t-38.5 -69.5q0 -29 36 -48.5t88 -35t114.5 -30.5t114.5 -35.5t88 -50.5t36 -75v-137 q0 -68 -20.5 -112t-56.5 -68.5t-84 -34.5t-103 -10q-33 0 -74 1t-84 6t-84 14t-74 26v256q43 6 68 6q23 0 66 -6v-164q47 -12 100 -16t82 -4q59 0 95 20.5t36 85.5v94q0 35 -36 54.5t-88 34t-114.5 27.5t-115 36.5t-88 61.5t-35.5 104z" />
<glyph unicode="&#xe19;" horiz-adv-x="829" d="M82 301v512q43 6 68 6q23 0 65 -6v-475q0 -41 6 -82t22.5 -73.5t44 -53t72.5 -20.5q59 0 104.5 19t75 51t45 73t15.5 86v475q43 6 68 6q23 0 65 -6v-807q-23 -4 -36 -5t-25 -1q-16 0 -60 6l-12 111h-20v-8q-12 -45 -43 -69t-66 -35t-65.5 -13t-45.5 -2q-76 0 -128 23.5 t-85.5 65.5t-49 98t-15.5 124z" />
<glyph unicode="&#xe1a;" horiz-adv-x="845" d="M90 319v494q43 6 68 6q23 0 65 -6v-491q0 -35 3 -73t21.5 -68.5t58.5 -51t114 -20.5t113.5 20.5t58 51t21.5 68.5t3 73v491q43 6 68 6q23 0 66 -6v-494q0 -70 -6.5 -130t-38 -104t-98 -69.5t-187.5 -25.5t-187.5 25.5t-98.5 69.5t-38 104.5t-6 129.5z" />
<glyph unicode="&#xe1b;" horiz-adv-x="845" d="M90 319v494q43 6 68 6q23 0 65 -6v-491q0 -35 3 -73t21.5 -68.5t58.5 -51t114 -20.5t113.5 20.5t58 51t21.5 68.5t3 73v757q43 6 68 6q23 0 66 -6v-760q0 -70 -6.5 -130t-38 -104t-98 -69.5t-187.5 -25.5t-187.5 25.5t-98.5 69.5t-38 104.5t-6 129.5z" />
<glyph unicode="&#xe1c;" horiz-adv-x="946" d="M72 813q31 6 63 6h180q6 -14 8.5 -28.5t2.5 -28.5q0 -23 -7 -62h-106l41 -585v-21h20v21l113 487q16 4 43 7t43 3q18 0 44 -3t42 -7l113 -487v-21h20v21l49 698q31 6 66 6q33 0 67 -6l-67 -797q-35 -12 -62.5 -14t-62.5 -2t-58.5 2t-48.5 12l-92 453h-20l-92 -453 q-25 -10 -48.5 -12t-58.5 -2t-62.5 2t-62.5 14z" />
<glyph unicode="&#xe1d;" horiz-adv-x="952" d="M72 813q31 6 63 6h180q6 -14 8.5 -28.5t2.5 -28.5q0 -23 -7 -62h-106l41 -585v-21h20v21l113 487q16 4 43 7t43 3q18 0 44 -3t42 -7l113 -487v-21h20v21l72 964q31 6 65 6q33 0 68 -6l-90 -1063q-35 -12 -62.5 -14t-62.5 -2t-58.5 2t-48.5 12l-92 453h-20l-92 -453 q-25 -10 -48.5 -12t-58.5 -2t-62.5 2t-62.5 14z" />
<glyph unicode="&#xe1e;" horiz-adv-x="946" d="M72 813q33 6 67 6q35 0 66 -6l49 -698v-21h20v21l113 487q16 4 43 7t43 3q18 0 44 -3t42 -7l113 -487v-21h20v21l49 698q31 6 66 6q33 0 67 -6l-67 -797q-35 -12 -62.5 -14t-62.5 -2t-58.5 2t-48.5 12l-92 453h-20l-92 -453q-25 -10 -48.5 -12t-58.5 -2t-62.5 2t-62.5 14 z" />
<glyph unicode="&#xe1f;" horiz-adv-x="950" d="M72 813q33 6 67 6q35 0 66 -6l49 -698v-21h20v21l113 487q16 4 43 7t43 3q18 0 44 -3t42 -7l113 -487v-21h20v21l68 964q30 6 65 6q33 0 68 -6l-86 -1063q-35 -12 -62.5 -14t-62.5 -2t-58.5 2t-48.5 12l-92 453h-20l-92 -453q-25 -10 -48.5 -12t-58.5 -2t-62.5 2 t-62.5 14z" />
<glyph unicode="&#xe20;" horiz-adv-x="886" d="M61 55q0 12 1 21.5t6 32.5h71v387q0 55 12.5 92t29 59.5t29.5 31.5t17 11v21h-100v75q29 8 60.5 15.5t70.5 13.5q72 14 158 14q186 0 280.5 -91t94.5 -283v-449q-43 -6 -68 -6q-23 0 -66 6v443q0 53 -14 101t-43 84t-74 56.5t-108 20.5h-64q-29 -43 -45 -82t-24 -70 q-8 -37 -13 -65v-488q-43 -6 -65 -6h-139q-4 23 -5.5 34t-1.5 21z" />
<glyph unicode="&#xe21;" horiz-adv-x="843" d="M96 6v807q43 6 66 6q25 0 67 -6v-475q0 -45 15.5 -86t45 -73t75 -51t104.5 -19q45 0 72.5 20.5t44 53t22.5 73.5t6 82v475q43 6 66 6q25 0 68 -6v-512q0 -68 -15.5 -124t-49.5 -98t-86 -65.5t-128 -23.5q-14 0 -45 2t-65.5 13t-65.5 34.5t-43 69.5v8h-21l-12 -111 q-43 -6 -59 -6q-12 0 -25.5 1t-36.5 5z" />
<glyph unicode="&#xe22;" horiz-adv-x="854" d="M72 254q0 66 19.5 99.5t41.5 49.5q27 18 64 23q-47 0 -73 25.5t-37 59.5t-13 63.5t-2 39.5q0 76 24.5 118t64.5 61.5t92 22.5t107 3q25 0 29 -1t29 -3q6 -41 6 -57q0 -18 -6 -58h-29q-20 0 -51 -1t-60.5 -9t-51 -25.5t-21.5 -50.5q0 -14 3 -35.5t19.5 -43t53 -37 t104.5 -15.5h51q4 -20 4 -34.5v-26.5v-24.5t-4 -32.5h-49q-59 0 -95 -7.5t-55.5 -21.5t-25.5 -34.5t-6 -47.5q0 -35 2 -62.5t13 -46t36 -27.5t70 -9h206q35 0 53.5 10t28 28.5t10.5 45t1 61.5v559q43 6 67 6q23 0 66 -6v-561q0 -70 -3 -119t-24.5 -81t-68 -47t-130.5 -15 h-206q-96 0 -147.5 23.5t-75 61.5t-27.5 85t-4 94z" />
<glyph unicode="&#xe23;" horiz-adv-x="727" d="M51 604q0 127 85 176t231 49q31 0 66.5 -2t72.5 -6t70.5 -11t58.5 -15q-4 -35 -10.5 -58.5t-20.5 -52.5q-33 12 -100.5 19.5t-132.5 7.5q-109 0 -148 -26t-39 -81q0 -41 36 -65.5t89 -42t115.5 -34t116 -44t89.5 -70.5t36 -112q0 -68 -27 -115t-70 -76t-97 -42t-110 -13 q-66 0 -131 11t-118 32q4 45 10.5 66.5t26.5 52.5q47 -20 106 -31.5t106 -11.5q31 0 61 8t54.5 23.5t39.5 39t15 56.5q0 39 -35.5 63.5t-89 42.5t-116 35.5t-115.5 45.5t-89 71t-36 110z" />
<glyph unicode="&#xe24;" horiz-adv-x="856" d="M96 711v75q29 8 60.5 15.5t70.5 13.5q72 14 158 14q186 0 280.5 -91t94.5 -283v-850q-43 -6 -68 -6q-23 0 -65 6v844q0 53 -14.5 101t-43 84t-73.5 56.5t-109 20.5h-63q-29 -43 -45.5 -82t-24.5 -70q-8 -37 -12 -65v-385h102q4 -23 5 -32t1 -22q0 -10 -1 -21t-5 -34h-170 q-23 0 -65 6v490q0 55 12 92t28.5 59.5t30 31.5t17.5 11v21h-101z" />
<glyph unicode="&#xe25;" horiz-adv-x="800" d="M53 250q0 70 28 119t73 78.5t103 43t118 13.5q53 0 97 -10.5t85 -28.5h18v45v22q0 49 -18 83t-50 55.5t-74 31t-89 9.5q-100 0 -194 -31q-16 27 -23.5 52.5t-7.5 60.5q53 16 118.5 26t122.5 10q80 0 143.5 -14t109.5 -49t71 -92.5t25 -143.5v-524q-43 -6 -68 -6 q-23 0 -66 6v381q-6 0 -21 1t-33.5 1h-36h-29.5q-53 0 -102.5 -4t-86.5 -18.5t-58.5 -41t-21.5 -71.5q0 -72 37 -102.5t115 -32.5h82q6 -41 6 -62q0 -20 -6 -57h-80q-76 0 -130 11.5t-89 40t-51.5 76.5t-16.5 122z" />
<glyph unicode="&#xe26;" horiz-adv-x="876" d="M51 55q0 12 1 21.5t5 32.5h72v387q0 55 12.5 92t28.5 59.5t29.5 31.5t17.5 11v21h-100v75q29 8 60.5 15.5t70.5 13.5q72 14 158 14q186 0 280 -91t94 -283v-850q-43 -6 -67 -6q-23 0 -66 6v854q0 53 -14.5 99t-43 80t-73.5 53.5t-108 19.5h-64q-29 -43 -45 -82t-25 -70 q-8 -37 -12 -65v-488q-43 -6 -65 -6h-140q-4 23 -5 34t-1 21z" />
<glyph unicode="&#xe27;" horiz-adv-x="684" d="M27 793q53 16 118.5 26t122.5 10q80 0 141.5 -14t104.5 -49t65.5 -92.5t22.5 -143.5v-254q0 -86 -24.5 -141t-65.5 -87t-94 -45t-113 -13q-57 0 -101 5t-98 21q0 35 7.5 60.5t23.5 52.5q25 -6 42.5 -10t32.5 -6t33.5 -3t43.5 -1q78 0 129 34.5t51 132.5v256 q0 98 -61.5 138.5t-155.5 40.5q-100 0 -195 -31q-16 27 -23 52.5t-7 60.5z" />
<glyph unicode="&#xe28;" horiz-adv-x="823" d="M72 6v457q0 70 6 135.5t36.5 116.5t97 82.5t187.5 31.5q53 0 97 -6v25q27 20 52 32.5t64 12.5h109q4 -18 5 -30.5t1 -22.5q0 -33 -10 -56h-64q-2 0 -12 1t-16 10v-19q37 -25 57 -59.5t30.5 -75.5t12.5 -87t2 -91v-457q-43 -6 -68 -6q-23 0 -65 6v490q0 35 -4 72.5 t-22.5 69.5t-57.5 52.5t-111 20.5t-110.5 -20.5t-57 -52.5t-22.5 -70t-4 -72v-78h20q23 14 52.5 16t72.5 2h105q4 -12 5 -22.5t1 -34.5q0 -27 -10 -62h-107q-41 0 -79 -2t-60 -16v-293q-43 -6 -68 -6q-23 0 -65 6z" />
<glyph unicode="&#xe29;" horiz-adv-x="854" d="M90 319v494q43 6 68 6q23 0 65 -6v-491q0 -35 3 -73t21.5 -68.5t58.5 -51t114 -20.5t113.5 20.5t58 51t21.5 68.5t3 73v75h-170h-108q-8 25 -11 45.5t-5.5 40t-2.5 41t-2 49.5q16 8 29.5 10.5t32.5 2.5q27 0 40 -1t27 -5v-103h17q35 18 73.5 27.5t79.5 11.5v297 q43 6 68 6q23 0 66 -6v-297h57q6 -41 6 -61q0 -14 -2 -28.5t-8 -29.5h-53v-78q0 -70 -6.5 -130t-38 -104t-98 -69.5t-187.5 -25.5t-187.5 25.5t-98.5 69.5t-38 104.5t-6 129.5z" />
<glyph unicode="&#xe2a;" horiz-adv-x="800" d="M53 250q0 70 28 119t73 78.5t103 43t118 13.5q53 0 97 -10.5t85 -28.5h18v45v22q0 49 -18 83t-50 55.5t-74 31t-89 9.5q-100 0 -194 -31q-16 27 -23.5 52.5t-7.5 60.5q53 16 118.5 26t122.5 10q70 0 117 -8v23q27 20 52.5 32.5t64.5 12.5h108q4 -18 5.5 -30.5t1.5 -22.5 q0 -33 -11 -56h-63q-2 0 -12.5 1t-16.5 10v-19q49 -35 76 -93t27 -149v-524q-43 -6 -68 -6q-23 0 -66 6v381q-6 0 -21 1t-33.5 1h-36h-29.5q-53 0 -102.5 -4t-86.5 -18.5t-58.5 -41t-21.5 -71.5q0 -72 37 -102.5t115 -32.5h82q6 -41 6 -62q0 -20 -6 -57h-80q-76 0 -130 11.5 t-89 40t-51.5 76.5t-16.5 122z" />
<glyph unicode="&#xe2b;" horiz-adv-x="831" d="M96 6v807q23 4 36 5t26 1q16 0 59 -6l12 -131v-121h170q76 0 133.5 45t57.5 133v74q43 6 67 6q23 0 66 -6v-76q0 -68 -18.5 -114.5t-47.5 -81.5q39 -49 59.5 -107.5t31.5 -126.5v-301q-43 -6 -66 -6q-25 0 -68 6v301q-4 43 -15 85t-34 81l-6 10h-20q-6 -16 -31 -24 t-55.5 -11.5t-60.5 -4.5t-48 -1h-115v-436q-43 -6 -67 -6q-23 0 -66 6z" />
<glyph unicode="&#xe2c;" horiz-adv-x="919" d="M72 813q33 6 67 6q35 0 66 -6l49 -698v-21h20v21l134 487q35 10 65 10q18 0 33.5 -3t32.5 -7l133 -487v-21h20v21l41 600q-2 43 -16.5 73.5t-61.5 30.5h-61q-4 18 -4 32.5v25.5v26.5t4 34.5h63q27 0 42.5 13.5t22.5 31.5t8 38.5t1 35.5v22q45 6 70 6q16 0 31.5 -2 t31.5 -10v-18q0 -10 -2 -37t-14 -54.5t-38 -50t-73 -22.5v-21q12 0 34 -7t41 -24.5t34.5 -47t15.5 -76.5l-55 -699q-35 -12 -62.5 -14t-62.5 -2t-58.5 2t-48.5 12l-92 346h-20l-92 -346q-25 -10 -48.5 -12t-58.5 -2t-62.5 2t-62.5 14z" />
<glyph unicode="&#xe2d;" horiz-adv-x="800" d="M76 313v152h241q6 -43 7 -64q0 -10 -1 -21t-6 -34h-108v-72q0 -37 5 -67.5t23.5 -52t55.5 -33.5t100 -12q51 0 87 6t59.5 33.5t35 84t11.5 158.5v146q0 98 -60.5 136t-154.5 38q-25 0 -57.5 -1t-66.5 -4.5t-65.5 -8.5t-56.5 -13q-16 27 -23.5 52.5t-7.5 60.5q27 8 63 14 t73.5 10t73.5 6t65 2q80 0 144.5 -15t110.5 -51t70.5 -94.5t24.5 -144.5v-170q0 -98 -12.5 -167.5t-48 -112.5t-99 -63.5t-166.5 -20.5q-106 0 -169.5 20.5t-96.5 60.5t-42 101t-9 141z" />
<glyph unicode="&#xe2e;" horiz-adv-x="800" d="M76 313v152h241q6 -43 7 -64q0 -10 -1 -21t-6 -34h-108v-72q0 -37 5 -67.5t23.5 -52t55.5 -33.5t100 -12q51 0 87 6t59.5 33.5t35 84t11.5 158.5v146q0 98 -60.5 136t-154.5 38q-25 0 -57.5 -1t-66.5 -4.5t-65.5 -8.5t-56.5 -13q-16 27 -23.5 52.5t-7.5 60.5q27 8 63 14 t73.5 10t73.5 6t65 2q33 0 61.5 -2t56.5 -8v21q27 20 52.5 32.5t64.5 12.5h109q4 -18 5 -30.5t1 -23.5q0 -33 -10 -55h-64q-2 0 -12 1t-17 9v-18q47 -35 75 -94.5t28 -149.5v-170q0 -98 -12.5 -167.5t-48 -112.5t-99 -63.5t-166.5 -20.5q-106 0 -169.5 20.5t-96.5 60.5 t-42 101t-9 141z" />
<glyph unicode="&#xe2f;" horiz-adv-x="702" d="M51 707v106q43 6 66 6q25 0 67 -6v-108q0 -14 5.5 -33t20.5 -35t43 -27.5t73 -11.5t72.5 11.5t43 28.5t20.5 35.5t5 33.5v106q42 6 65 6q25 0 68 -6v-930q-43 -6 -65 -6q-25 0 -68 6v635q-49 -18 -127 -24h-29q-96 6 -148 32.5t-77 59t-30 66.5t-5 55z" />
<glyph unicode="&#xe30;" horiz-adv-x="516" d="M59 326q16 8 29.5 10t32.5 2q27 0 40 -1t27 -5v-103h17q80 39 180 39h66q6 -41 6 -61q0 -14 -2 -28.5t-9 -28.5h-61h-197h-108q-8 25 -11 45t-5.5 39.5t-2.5 41t-2 50.5zM59 707q16 8 29.5 10t32.5 2q27 0 40 -1t27 -5v-103h17q80 39 180 39h66q6 -41 6 -61 q0 -14 -2 -28.5t-9 -29.5h-61h-197h-108q-8 25 -11 45.5t-5.5 40t-2.5 41t-2 50.5z" />
<glyph unicode="&#xe31;" d="M-526 1169q16 8 29.5 10.5t31.5 2.5q27 0 40 -1t28 -5v-103h16q80 39 180 39h224q6 -41 6 -61q0 -14 -2 -28.5t-9 -29.5h-524q-8 25 -11 45.5t-5 40t-2 41t-2 49.5z" />
<glyph unicode="&#xe32;" horiz-adv-x="585" d="M-6 793q31 14 65.5 21t65.5 10t55.5 4t32.5 1q80 0 131 -21.5t81 -59t42 -88t12 -105.5v-549q-43 -6 -67 -6q-23 0 -66 6v551q0 23 -3 49.5t-17.5 50t-41 39t-71.5 15.5t-93 -3t-95 -20q-16 27 -23.5 48.5t-7.5 56.5z" />
<glyph unicode="&#xe33;" horiz-adv-x="571" d="M-373 1090q0 57 41 98t96 41q59 0 99.5 -41t40.5 -98t-40 -97.5t-100 -40.5q-55 0 -96 40t-41 98zM-274 1090q0 -16 11 -27.5t27 -11.5q41 0 41 39q0 41 -41 40q-16 0 -27 -11t-11 -29zM-6 793q31 14 65.5 21t65.5 10t55.5 4t32.5 1q80 0 131 -21.5t81 -59t42 -88 t12 -105.5v-549q-43 -6 -67 -6q-23 0 -66 6v551q0 23 -3 49.5t-17.5 50t-41 39t-71.5 15.5t-93 -3t-95 -20q-16 27 -23.5 48.5t-7.5 56.5z" />
<glyph unicode="&#xe34;" d="M-696 1042q0 12 1 21.5t5 32.5h26q37 4 60.5 7t42 5t36 3t42.5 1h381q6 -41 6 -61q0 -14 -2 -28.5t-8 -29.5h-584q-4 23 -5 31t-1 18z" />
<glyph unicode="&#xe35;" d="M-696 1051q0 20 6 61h268q100 0 180 -39h17v103q14 4 27.5 5t39.5 1q18 0 31.5 -2t30.5 -11q-2 -29 -2 -50t-2 -40.5t-5.5 -40t-11.5 -45.5h-569q-6 14 -8 28.5t-2 29.5z" />
<glyph unicode="&#xe36;" d="M-696 1051q0 20 6 61h241q72 0 134 -20q0 4 -1 6t-1 6q0 47 32.5 78.5t77.5 31.5q47 0 79 -31.5t32 -78.5t-32 -77t-79 -34h-479q-6 14 -8 28.5t-2 29.5z" />
<glyph unicode="&#xe37;" d="M-696 1051q0 20 6 61h16h56.5t63.5 -2t62.5 -6t51.5 -10h24v82q14 4 27.5 5t40.5 1q18 0 29.5 -2t27.5 -11v-75h66v82q14 4 27 5t40 1q18 0 31.5 -2t30.5 -11q-2 -29 -2 -50t-2 -40.5t-5.5 -40t-11.5 -45.5h-108h-90h-109h-250h-12q-6 14 -8 28.5t-2 29.5z" />
<glyph unicode="&#xe38;" d="M-276 -178q0 18 2 28.5t10 26.5q59 0 102 -2t66 -18v-240q-23 -10 -54 -10q-10 0 -23 1t-34 9v29q0 33 1 49t11 51v16h-75q-4 16 -5 25.5t-1 34.5z" />
<glyph unicode="&#xe39;" d="M-436 -178q0 18 2 28.5t10 26.5q59 0 91 -2t54 -18v-176h76v190q20 4 31.5 5t21.5 1q14 0 26.5 -1t27.5 -5v-252q-25 -16 -71 -19t-71 -3q-47 0 -75.5 4t-71.5 18v35v25.5t1 18.5t2 19.5t3 28.5v16h-51q-4 16 -5 25.5t-1 34.5z" />
<glyph unicode="&#xe3a;" d="M-256 -203q0 33 23.5 56.5t56.5 23.5q31 0 55.5 -23.5t24.5 -56.5t-24.5 -56.5t-55.5 -23.5q-33 0 -56.5 23.5t-23.5 56.5z" />
<glyph unicode="&#xe3b;" />
<glyph unicode="&#xe3c;" />
<glyph unicode="&#xe3d;" />
<glyph unicode="&#xe3e;" />
<glyph unicode="&#xe3f;" horiz-adv-x="958" d="M113 0v1024h276v119q43 6 66 6q25 0 67 -6v-119h15q70 0 129 -4t104 -31.5t70.5 -86t25.5 -167.5q0 -86 -15 -138t-44 -85q29 -31 44 -83t15 -138q0 -109 -25.5 -167t-70.5 -86t-104.5 -33t-128.5 -5h-15v-119q-43 -6 -67 -6q-23 0 -66 6v119h-276zM246 119h143v332h-143 v-332zM246 569h143v336h-143v-336zM522 119h13q35 0 72.5 5t68.5 22.5t51.5 51t20.5 93.5q0 57 -20.5 90t-51.5 48t-69 18.5t-72 3.5h-13v-332zM522 569h13q35 0 72.5 4.5t68.5 20.5t51.5 49t20.5 92q0 57 -20.5 92t-51.5 51.5t-69 21.5t-72 5h-13v-336z" />
<glyph unicode="&#xe40;" horiz-adv-x="342" d="M106 6v807q43 6 66 6q25 0 68 -6v-807q-43 -6 -66 -6q-25 0 -68 6z" />
<glyph unicode="&#xe41;" horiz-adv-x="675" d="M113 6v807q42 6 65 6q25 0 68 -6v-807q-43 -6 -66 -6q-25 0 -67 6zM440 6v807q43 6 66 6q25 0 67 -6v-807q-43 -6 -65 -6q-25 0 -68 6z" />
<glyph unicode="&#xe42;" horiz-adv-x="358" d="M66 1155q0 14 2 32.5t6 41.5h381q6 -14 8 -28.5t2 -29.5q0 -23 -6 -61h-254v-20l8 -8q8 -7 17.5 -33.5t17.5 -76.5t8 -132v-834q-43 -6 -68 -6q-23 0 -65 6v834q0 66 -7 113.5t-16 76.5q-10 35 -22 57q-12 33 -12 68z" />
<glyph unicode="&#xe43;" horiz-adv-x="358" d="M-33 1176q27 27 57.5 41t57.5 20t45 7t20 1q74 0 119 -13t68.5 -39t31 -66t7.5 -95q0 -43 -18.5 -78.5t-40 -72.5t-40 -79t-18.5 -97v-699q-43 -6 -66 -6q-25 0 -67 6v699q0 70 19.5 119.5t42 86.5t42 65t19.5 54q0 25 -2 43.5t-11.5 29.5t-29 17t-56.5 6q-14 0 -51 -5 t-82 -38q-20 12 -33.5 35t-13.5 58z" />
<glyph unicode="&#xe44;" horiz-adv-x="358" d="M-86 1171q0 14 2 28.5t8 29.5h381q4 -23 6 -41.5t2 -32.5q0 -35 -12 -68q-14 -23 -22 -57q-10 -29 -16.5 -77t-6.5 -113v-834q-43 -6 -66 -6q-25 0 -67 6v834q0 82 8 132t17.5 76.5t17.5 33.5l8 8v20h-254q-6 39 -6 61z" />
<glyph unicode="&#xe45;" horiz-adv-x="585" d="M-6 793q31 14 65.5 21t65.5 10t55.5 4t32.5 1q80 0 131 -21.5t81 -59t42 -88t12 -105.5v-950q-43 -6 -67 -6q-23 0 -66 6v952q0 23 -3 49.5t-17.5 50t-41 39t-71.5 15.5t-93 -3t-95 -20q-16 27 -23.5 48.5t-7.5 56.5z" />
<glyph unicode="&#xe46;" horiz-adv-x="724" d="M61 516v150q0 51 16.5 82.5t38 50t45 24.5t38.5 6h24q49 0 81 -18t32 -47h12q0 29 31 47t82 18h24q14 0 38 -6t45.5 -24.5t38 -50t16.5 -82.5v-783q-43 -6 -68 -6q-23 0 -66 6v787q0 12 -6 26.5t-22 14.5h-21q-14 0 -24 -6.5t-13 -32.5v-72q-35 -8 -63 -8q-10 0 -24.5 2 t-34.5 6v72q-2 27 -12.5 33t-26.5 6h-19q-16 0 -22 -14.5t-6 -26.5v-154q-43 -6 -68 -6q-23 0 -66 6z" />
<glyph unicode="&#xe47;" d="M-610 1149v37q0 53 18.5 81.5t42 43t45 16.5t29.5 2h432q4 -20 5 -29.5t1 -19.5q0 -14 -1 -26.5t-9 -26.5h-399q-31 0 -36 -13.5t-5 -23.5v-60q0 -12 3 -23t21 -11h19q27 0 30.5 9t3.5 32v16q37 6 58 6q18 0 55 -6v-16q0 -23 3 -32t26 -9h22q16 0 18.5 11t2.5 23v21 q39 6 61 6q20 0 62 -6v-18q0 -53 -21.5 -82t-48.5 -41q-31 -16 -68 -17h-10q-47 0 -72.5 16.5t-25.5 43.5h-10q0 -27 -29 -43.5t-76 -16.5h-14q-8 0 -29.5 5.5t-45 21.5t-41 47t-17.5 82z" />
<glyph unicode="&#xe48;" d="M-203 1307v182q16 6 26.5 7t26.5 1q12 0 22.5 -1t31.5 -7v-178q-16 -8 -26.5 -9.5t-27.5 -1.5q-12 0 -21 1.5t-32 5.5z" />
<glyph unicode="&#xe49;" d="M-422 1436q0 10 1 22t5 33h125q25 0 38 -1t28 -5v-115h16q41 20 87 26.5t93 6.5h66q4 -20 5 -32.5t1 -22.5q0 -25 -10 -48h-62h-196h-119q-4 10 -4 15.5v13.5v55h-64q-10 23 -10 52z" />
<glyph unicode="&#xe4a;" d="M-598 1309v131q0 43 11.5 65.5t27.5 33.5t35.5 13t36.5 2h30q47 0 76 -16t29 -43h10q0 27 28.5 43t75.5 16h35q14 0 32.5 -2t35 -13t28 -33.5t11.5 -65.5v-49h63q10 -23 10 -45q0 -10 -1 -17.5t-5 -28.5h-112q-25 0 -38.5 2.5t-29.5 6.5q0 31 1 50t1 32.5v23.5v23 q0 27 -14 26h-35q-14 0 -23.5 -6t-11.5 -28v-21q-37 -6 -57 -6q-18 0 -55 6v21q-2 23 -11.5 28.5t-23.5 5.5h-35q-14 0 -14 -26v-47h34q10 -23 11 -45q0 -10 -1 -17.5t-6 -28.5h-81q-25 0 -38.5 2.5t-29.5 6.5z" />
<glyph unicode="&#xe4b;" d="M-283 1442q0 10 1 19t6 30h77v84q14 4 24.5 5t24.5 1q10 0 22.5 -1t31.5 -5v-84h73q11 -22 11 -45q0 -10 -1 -19.5t-5 -29.5h-78v-80q-14 -8 -25.5 -9t-25.5 -1q-10 0 -20.5 1t-31.5 5v84h-73q-10 23 -11 45z" />
<glyph unicode="&#xe4c;" d="M-342 1313q2 29 2 49t2 38.5t5 37t11 43.5h97h196h25q10 -23 10 -49q0 -17 -6 -56h-29q-47 0 -93 6.5t-87 26.5h-16v-102q-14 -4 -24.5 -5.5t-37.5 -1.5q-18 0 -28.5 2.5t-26.5 10.5z" />
<glyph unicode="&#xe4d;" d="M-373 1090q0 57 41 98t96 41q59 0 99.5 -41t40.5 -98t-40 -97.5t-100 -40.5q-55 0 -96 40t-41 98zM-274 1090q0 -16 11 -27.5t27 -11.5q41 0 41 39q0 41 -41 40q-16 0 -27 -11t-11 -29z" />
<glyph unicode="&#xe4e;" />
<glyph unicode="&#xe4f;" horiz-adv-x="915" d="M113 420q0 74 26.5 137.5t72.5 110.5t108.5 73.5t134.5 26.5q74 0 137 -26.5t110.5 -73.5t74 -110.5t26.5 -137.5q0 -72 -26.5 -134.5t-74 -108.5t-111 -72.5t-136.5 -26.5q-72 0 -134.5 26.5t-108.5 72.5t-72.5 108.5t-26.5 134.5zM160 420q0 -61 22.5 -115.5 t62.5 -94.5t94.5 -62.5t115.5 -22.5q63 0 117.5 22.5t95.5 62.5t64.5 94t23.5 116q0 63 -23.5 117.5t-64.5 95.5t-95.5 64.5t-117.5 23.5q-61 0 -115.5 -23.5t-94.5 -64.5t-62.5 -95.5t-22.5 -117.5zM252 420q0 86 58.5 145.5t144.5 59.5q41 0 77.5 -16.5t64.5 -44t43 -64.5 t15 -80q0 -84 -58 -142.5t-142 -58.5q-86 0 -144.5 58.5t-58.5 142.5z" />
<glyph unicode="&#xe50;" horiz-adv-x="823" d="M82 326q0 70 6 129t38 104t98.5 70.5t187.5 25.5t187.5 -25.5t98 -70.5t37.5 -106.5t6 -133.5q0 -70 -6 -130t-37.5 -104t-98.5 -69.5t-187 -25.5q-121 0 -187.5 25.5t-98.5 70.5t-38 106.5t-6 133.5zM215 322q0 -35 3 -73t21.5 -68.5t58.5 -51t114 -20.5t113.5 20.5 t58 51t21.5 68.5t3 73t-3 72.5t-21.5 69.5t-58.5 52.5t-113 20.5q-74 0 -114 -20.5t-58.5 -52.5t-21.5 -70t-3 -72z" />
<glyph unicode="&#xe51;" horiz-adv-x="813" d="M72 410q0 41 6 84t37.5 78.5t98.5 59t187 23.5q121 0 187.5 -25.5t98.5 -70.5t38 -106.5t6 -133.5v-57q0 -86 -24.5 -144.5t-70.5 -94t-110.5 -51t-144.5 -15.5q-29 0 -63.5 3t-70.5 9t-71 13.5t-61 15.5q0 35 7 60.5t23 52.5q25 -8 54.5 -14.5t62.5 -11.5t64.5 -7 t56.5 -2q94 0 154.5 38t60.5 136v72q0 35 -3 72.5t-21.5 69.5t-58.5 52.5t-114 20.5t-113.5 -10.5t-58 -29t-21.5 -43t-3 -51.5q0 -35 2 -55t14 -31.5t40 -15.5t77 -4q6 -43 6 -59q0 -12 -1 -24.5t-5 -35.5q-100 0 -154.5 9.5t-79 35t-28.5 70.5t-4 117z" />
<glyph unicode="&#xe52;" horiz-adv-x="878" d="M82 238v557q43 6 65 6q25 0 68 -6v-553q0 -35 3 -60.5t14.5 -42t34 -23.5t61.5 -7h223q39 0 61.5 7t33.5 23.5t14.5 42t3.5 60.5v45q0 33 -1 67.5t-9.5 67.5t-26 59.5t-49.5 42.5l-70 -35h-21l-69 35q-23 0 -43.5 -15.5t-32.5 -31.5q-18 10 -29.5 15.5t-19.5 15.5 q-8 8 -17.5 21.5t-17.5 35.5q45 55 160 80l69 -45h21l70 45q70 -2 113.5 -36t66 -86t31 -117.5t8.5 -129.5v-38q0 -74 -12.5 -121t-41 -76t-77 -40t-117.5 -11h-219q-72 0 -119 11t-76 40t-41 76t-12 121z" />
<glyph unicode="&#xe53;" horiz-adv-x="845" d="M82 248v39q0 70 7 129t31.5 107t71 82t121.5 50l101 -45h20l101 45q70 -2 114.5 -35.5t70 -86t35 -118t9.5 -128.5v-283q-43 -6 -68 -6q-23 0 -65 6v293q0 33 -3 67.5t-13.5 67.5t-29 59.5t-50.5 43.5l-101 -35h-20l-101 35q-33 -14 -52 -42t-29.5 -62t-13.5 -70.5 t-3 -73.5v-35q0 -35 3 -60.5t14.5 -41t34 -23.5t61.5 -8h51q6 -41 6 -62q0 -20 -6 -57h-49q-72 0 -119 11.5t-76 40t-41 75.5t-12 121z" />
<glyph unicode="&#xe54;" horiz-adv-x="868" d="M72 326q0 70 9 129t45 104t105.5 70.5t190.5 25.5q59 0 111.5 2t91.5 11.5t61.5 31t22.5 60.5v31q18 4 33.5 4h25.5h24.5t34.5 -4v-31q0 -84 -32.5 -129t-88 -66.5t-129 -24.5t-155.5 -3q-74 0 -117 -20.5t-65.5 -52.5t-28.5 -70t-6 -72q0 -35 6 -73t28.5 -68.5t66.5 -51 t118 -20.5q-23 31 -31 68.5t-8 78.5v117h201q6 -43 6 -64q0 -10 -1 -21.5t-5 -33.5h-68q0 -27 2 -53.5t13.5 -47t35 -32.5t66.5 -12h170q6 -41 6 -62q0 -20 -6 -57h-383q-121 0 -190.5 25.5t-105.5 70.5t-45 106.5t-9 133.5z" />
<glyph unicode="&#xe55;" horiz-adv-x="868" d="M72 326q0 57 7 109t30.5 94t66.5 72t117 44q-8 18 -8 47q0 57 41 98t96 41q59 0 99 -40.5t40 -98.5q0 -10 -1 -17t-3 -18q68 6 110 28t42 75v31q18 4 33.5 4h25.5h24.5t34.5 -4v-31q0 -84 -32.5 -129t-88 -66.5t-129 -24.5t-155.5 -3q-74 0 -117 -20.5t-65.5 -52.5 t-28.5 -70t-6 -72q0 -35 6 -73t28.5 -68.5t66.5 -51t118 -20.5q-23 31 -31 68.5t-8 78.5v117h201q6 -43 6 -64q0 -10 -1 -21.5t-5 -33.5h-68q0 -27 2 -53.5t13.5 -47t35 -32.5t66.5 -12h170q6 -41 6 -62q0 -20 -6 -57h-383q-121 0 -190.5 25.5t-105.5 70.5t-45 106.5 t-9 133.5zM383 694q0 -14 8 -26.5t31 -12.5t32 12.5t9 26.5q0 39 -41 39q-16 0 -27.5 -10t-11.5 -29z" />
<glyph unicode="&#xe56;" horiz-adv-x="831" d="M51 788q43 6 68 7q23 0 65 -7l39 -200q27 25 53.5 39t51 20t46 7t36.5 1q80 0 144 -15t110.5 -51t71 -94.5t24.5 -144.5v-24q0 -72 -6 -133.5t-38 -106.5t-98.5 -70.5t-187.5 -25.5t-187.5 21.5t-98 53t-38 68.5t-6.5 68q0 37 3 66.5t20.5 51t56.5 34t111 12.5 q4 -23 5 -35.5t1 -24.5q0 -16 -6 -59q-43 0 -50.5 -14.5t-7.5 -30.5q0 -20 3.5 -38t21.5 -30t58 -18t114 -6t114 20.5t58.5 52t21.5 69.5t3 73v38q0 98 -60.5 136.5t-154.5 38.5q-39 0 -81 -6.5t-102 -41.5q-23 -4 -34 -4h-21h-22t-33 4q-6 25 -11.5 40.5t-11.5 42t-16 75.5 t-29 141z" />
<glyph unicode="&#xe57;" horiz-adv-x="1015" d="M82 248v39q0 70 6 129t28.5 107t66.5 82t120 50l90 -45h21l90 45q70 -2 114 -35.5t66.5 -86t30.5 -118t8 -128.5v-168q27 0 42 2t23.5 13t10.5 32.5t2 60.5v578q43 6 67 6q23 0 66 -6v-582q0 -72 -12.5 -116t-40 -67.5t-73.5 -31.5t-114 -8h-39h-26.5t-38.5 4v293 q0 33 -1 67.5t-9.5 67.5t-25.5 59.5t-50 43.5l-90 -35h-21l-90 35q-33 -14 -50 -42t-25.5 -62t-10.5 -70.5t-2 -73.5v-35q0 -35 3 -60.5t14.5 -41t34 -23.5t61.5 -8h51q6 -41 6 -62q0 -20 -6 -57h-49q-72 0 -119 11.5t-76 40t-41 75.5t-12 121z" />
<glyph unicode="&#xe58;" horiz-adv-x="847" d="M72 326q0 70 8 129t42 104t101.5 70.5t188.5 25.5q59 0 106 2t81 11.5t51.5 31t17.5 60.5v31q18 4 33.5 4h25.5h24.5t34.5 -4v-31q0 -84 -27.5 -129t-77.5 -66.5t-118.5 -24.5t-150.5 -3q-74 0 -116 -20.5t-61.5 -52.5t-24.5 -70t-5 -72q0 -66 15.5 -121.5t80.5 -89.5 l107 45h20l100 -45q31 10 47.5 20t24.5 22.5t9 29t1 38.5v31q0 18 -3 28.5t-13 14.5t-29.5 6t-54.5 2h-37q-6 39 -6 62q0 20 6 57h37q70 0 116 -3t71.5 -18.5t35.5 -49.5t10 -95v-39q0 -70 -5 -107.5t-26.5 -58t-64.5 -33t-119 -28.5l-100 55h-20l-107 -55q-72 2 -116 30.5 t-69.5 74.5t-34.5 106.5t-9 124.5z" />
<glyph unicode="&#xe59;" horiz-adv-x="835" d="M82 250v37q0 70 5 135t27.5 117.5t66.5 84t122 31.5h45q88 0 150 -53q29 41 62.5 47t57.5 6q6 0 21.5 1t33 9.5t31 25t13.5 46.5v54q18 4 33.5 4h25.5h24.5t35.5 -4v-54q0 -31 -12.5 -65.5t-39 -64t-67.5 -49t-99 -19.5q-43 0 -47 -7.5t-6 -13.5q45 -80 68.5 -206 t23.5 -306q-43 -6 -67 -6q-23 0 -66 6q0 143 -15 243.5t-40 164t-56.5 92.5t-64.5 29h-45q-33 0 -51.5 -26t-26.5 -62.5t-9 -79.5t-1 -80v-37q0 -35 3 -59.5t14.5 -40t34 -22.5t61.5 -7h51q6 -41 6 -62q0 -20 -6 -57h-49q-72 0 -119 11.5t-76 40t-41 75.5t-12 121z" />
<glyph unicode="&#xe5a;" horiz-adv-x="966" d="M51 707v106q43 6 66 6q25 0 67 -6v-108q0 -14 5.5 -33t20.5 -35t43 -27.5t73 -11.5t72.5 11.5t43 28.5t20.5 35.5t5 33.5v106q42 6 65 6q25 0 68 -6v-930q-43 -6 -65 -6q-25 0 -68 6v635q-49 -18 -127 -24h-29q-96 6 -148 32.5t-77 59t-30 66.5t-5 55zM731 -117v930 q43 6 66 6q25 0 67 -6v-930q-43 -6 -65 -6q-25 0 -68 6z" />
<glyph unicode="&#xe5b;" />
<glyph unicode="&#x2000;" horiz-adv-x="790" />
<glyph unicode="&#x2001;" horiz-adv-x="1581" />
<glyph unicode="&#x2002;" horiz-adv-x="790" />
<glyph unicode="&#x2003;" horiz-adv-x="1581" />
<glyph unicode="&#x2004;" horiz-adv-x="527" />
<glyph unicode="&#x2005;" horiz-adv-x="395" />
<glyph unicode="&#x2006;" horiz-adv-x="263" />
<glyph unicode="&#x2007;" horiz-adv-x="263" />
<glyph unicode="&#x2008;" horiz-adv-x="197" />
<glyph unicode="&#x2009;" horiz-adv-x="316" />
<glyph unicode="&#x200a;" horiz-adv-x="87" />
<glyph unicode="&#x200b;" />
<glyph unicode="&#x2010;" horiz-adv-x="772" d="M113 397q0 20 6 64h534q6 -43 6 -62q0 -12 -1 -23t-5 -34h-534q-4 23 -5 34t-1 21z" />
<glyph unicode="&#x2011;" horiz-adv-x="772" d="M113 397q0 20 6 64h534q6 -43 6 -62q0 -12 -1 -23t-5 -34h-534q-4 23 -5 34t-1 21z" />
<glyph unicode="&#x2012;" horiz-adv-x="772" d="M113 397q0 20 6 64h534q6 -43 6 -62q0 -12 -1 -23t-5 -34h-534q-4 23 -5 34t-1 21z" />
<glyph unicode="&#x2013;" horiz-adv-x="1046" d="M113 397q0 20 6 64h809q6 -43 6 -62q0 -12 -1 -23t-5 -34h-809q-4 23 -5 34t-1 21z" />
<glyph unicode="&#x2014;" horiz-adv-x="1245" d="M113 397q0 20 6 64h1007q6 -43 7 -62q0 -12 -1.5 -23t-5.5 -34h-1007q-4 23 -5 34t-1 21z" />
<glyph unicode="&#x2018;" horiz-adv-x="399" d="M113 860l90 232q14 4 25.5 5t21.5 1q12 0 17 -1t20 -5l-41 -232q-43 -6 -66 -6q-25 0 -67 6z" />
<glyph unicode="&#x2019;" horiz-adv-x="399" d="M113 860l41 232q42 6 65 6q25 0 68 -6l-90 -232q-14 -4 -25.5 -5t-21.5 -1q-12 0 -17.5 1t-19.5 5z" />
<glyph unicode="&#x2022;" horiz-adv-x="585" d="M143 399q0 63 44 106.5t106 43.5q61 0 105 -43t44 -107q0 -61 -44 -104t-105 -43t-105.5 43t-44.5 104z" />
<glyph unicode="&#x2026;" horiz-adv-x="890" d="M113 6v160q42 6 65 6q25 0 68 -6v-160q-43 -6 -66 -6q-25 0 -67 6zM379 6v160q42 6 65 6q25 0 68 -6v-160q-43 -6 -66 -6q-25 0 -67 6zM645 6v160q43 6 66 6q25 0 67 -6v-160q-43 -6 -65 -6q-25 0 -68 6z" />
<glyph unicode="&#x202f;" horiz-adv-x="316" />
<glyph unicode="&#x205f;" horiz-adv-x="395" />
<glyph unicode="&#x25cc;" horiz-adv-x="1048" />
<glyph unicode="&#xe000;" horiz-adv-x="819" d="M0 0v819h819v-819h-819z" />
<glyph unicode="&#xf700;" horiz-adv-x="757" d="M55 788q27 8 62 15.5t70.5 13.5t70.5 9t64 3q33 0 61.5 -2t56.5 -8v21q27 20 52.5 32.5t64.5 12.5h109q4 -18 5 -30.5t1 -23.5q0 -33 -10 -55h-64q-2 0 -12.5 1t-16.5 9v-18q47 -35 75 -94.5t28 -149.5v-123q0 -78 -11.5 -150.5t-44 -127.5t-92 -89t-155.5 -34h-33 t-44.5 3t-43 7t-27.5 15l-18 280h-86q-6 43 -6 64q0 10 1 21t5 34h213l22 -305h21q51 4 82.5 22.5t50 53t26 86t7.5 120.5v136q0 98 -60.5 136t-154.5 38q-25 0 -56.5 -3t-64.5 -7.5t-62.5 -10.5t-54.5 -14q-16 27 -23.5 52.5t-7.5 59.5z" />
<glyph unicode="&#xf701;" d="M-819 1042q0 12 1 21.5t5 32.5h27q37 4 60.5 7t41.5 5t35.5 3t42.5 1h293q6 -41 6 -61q0 -14 -2 -28.5t-8 -29.5h-496q-4 23 -5 31t-1 18z" />
<glyph unicode="&#xf702;" d="M-819 1051q0 20 6 61h180q100 0 180 -39h17v103q14 4 27.5 5t39.5 1q18 0 31.5 -2t30.5 -11q-2 -29 -2 -50t-2 -40.5t-5 -40t-12 -45.5h-481q-6 14 -8 28.5t-2 29.5z" />
<glyph unicode="&#xf703;" d="M-819 1051q0 20 6 61h180q72 0 133 -20q0 4 -1 6t-1 6q0 47 33 78.5t78 31.5q47 0 78.5 -31.5t31.5 -78.5t-31.5 -77t-78.5 -34h-418q-6 14 -8 28.5t-2 29.5z" />
<glyph unicode="&#xf704;" d="M-819 1051q0 10 2 25.5t10 35.5h96q31 0 54.5 -5t31.5 -13h19v82q14 4 27.5 5t39.5 1q18 0 29.5 -2t28.5 -11v-75h63v82q14 4 27.5 5t40.5 1q18 0 31.5 -2t29.5 -11q-2 -29 -2 -50t-2 -40.5t-5 -40t-11 -45.5h-500q-6 14 -8 28.5t-2 29.5z" />
<glyph unicode="&#xf705;" d="M-426 999v189q16 6 29.5 7t29.5 1q12 0 25.5 -1t34.5 -7v-184q-16 -8 -29.5 -9.5t-30.5 -1.5q-12 0 -24 1t-35 5z" />
<glyph unicode="&#xf706;" d="M-772 1145q0 20 6 61h125q25 0 38 -1t28 -5v-127h16q80 39 180 39h66q6 -41 6 -61q0 -14 -2 -28.5t-8 -29.5h-62h-196h-119q-4 10 -4 20.5v18.5v55h-64q-6 14 -8 28.5t-2 29.5z" />
<glyph unicode="&#xf707;" d="M-793 1001v146q0 47 14.5 72.5t35 38t42 14.5t33.5 2h11q47 0 73.5 -16.5t26.5 -43.5h10q0 27 26.5 43.5t74.5 16.5h10q12 0 33.5 -2t42 -14.5t35 -38t14.5 -72.5v-51h32q10 -23 11 -52q0 -10 -1 -20t-5 -31h-95q-25 0 -38 2t-29 6q2 63 2 91v53q0 27 -15 26h-16 q-14 0 -23.5 -6t-11.5 -28v-21q-37 -6 -53 -6q-14 0 -51 6v21q-2 23 -11.5 28.5t-23.5 5.5h-16q-14 0 -15 -26v-49h31q10 -23 10 -52q0 -10 -1 -20t-5 -31h-90q-25 0 -38 2t-30 6z" />
<glyph unicode="&#xf708;" d="M-590 1135q0 10 1 22t5 33h78v80q23 10 55 10q18 0 60 -6v-84h74q10 -22 10 -51q0 -16 -6 -56h-78v-79q-23 -10 -55 -11q-20 0 -60 6v84h-74q-10 23 -10 52z" />
<glyph unicode="&#xf709;" d="M-668 1001q2 29 2 50.5t2 41t5.5 40t11.5 45.5h108h197h25q6 -14 8 -28.5t2 -29.5q0 -22 -6 -61h-29q-100 0 -180 39h-17v-103q-14 -4 -27.5 -5t-39.5 -1q-18 0 -31.5 2t-30.5 10z" />
<glyph unicode="&#xf70a;" d="M-215 999v189q16 6 29.5 7t29.5 1q12 0 25.5 -1t34.5 -7v-184q-16 -8 -29.5 -9.5t-30.5 -1.5q-12 0 -24.5 1t-34.5 5z" />
<glyph unicode="&#xf70b;" d="M-524 1145q0 20 6 61h125q25 0 38 -1t27 -5v-127h17q80 39 180 39h65q6 -41 7 -61q0 -14 -2 -28.5t-9 -29.5h-61h-197h-118q-4 10 -4.5 20.5t-0.5 18.5v55h-63q-6 14 -8 28.5t-2 29.5z" />
<glyph unicode="&#xf70c;" d="M-610 1001v146q0 47 14 72.5t34.5 38t42 14.5t34.5 2h22q47 0 76 -16.5t29 -43.5h10q0 27 28.5 43.5t75.5 16.5h23q12 0 33.5 -2t42 -14.5t35 -38t14.5 -72.5v-51h63q10 -23 10 -52q0 -10 -1 -20t-5 -31h-125q-25 0 -38 2t-29 6q2 63 2 91v53q0 27 -14 26h-29 q-14 0 -23.5 -6t-11.5 -28v-21q-37 -6 -57 -6q-18 0 -56 6v21q-2 23 -11 28.5t-23 5.5h-29q-14 0 -14 -26v-49h34q10 -23 11 -52q0 -10 -1 -20t-6 -31h-94q-25 0 -38 2t-29 6z" />
<glyph unicode="&#xf70d;" d="M-295 1135q0 10 1 22t5 33h78v80q23 10 55 10q18 0 60 -6v-84h73q11 -22 11 -51q0 -16 -6 -56h-78v-79q-23 -10 -56 -11q-20 0 -59 6v84h-74q-10 23 -10 52z" />
<glyph unicode="&#xf70e;" d="M-360 1006q2 29 2 50t2 40.5t5 40t11 45.5h109h196h25q6 -14 8 -28.5t2 -29.5q0 -22 -6 -61h-29q-100 0 -180 39h-16v-103q-14 -4 -27.5 -5t-40.5 -1q-18 0 -31.5 2t-29.5 11z" />
<glyph unicode="&#xf70f;" horiz-adv-x="1325" d="M96 711v75q29 8 60.5 15.5t70.5 13.5q72 14 158 14q186 0 280.5 -91t94.5 -283v-238q0 -59 39 -83.5t129 -24.5t129 24.5t39 83.5v596q43 6 67 6q23 0 66 -6v-612q0 -37 -9.5 -74t-39 -67.5t-87 -50t-151.5 -19.5h-29q-96 0 -152 19.5t-86 50t-39 67.5t-9 74v248 q0 53 -14.5 101t-43 84t-73.5 56.5t-109 20.5h-63q-29 -43 -45.5 -82t-24.5 -70q-8 -37 -12 -65v-385h102q4 -23 5 -32t1 -22q0 -10 -1 -21t-5 -34h-170q-23 0 -65 6v490q0 55 12 92t28.5 59.5t30 31.5t17.5 11v21h-101z" />
<glyph unicode="&#xf710;" d="M-801 1169q16 8 29.5 10.5t32.5 2.5q27 0 40 -1t27 -5v-103h17q80 39 180 39h178q6 -41 6 -61q0 -14 -2 -28.5t-8 -29.5h-479q-8 25 -11.5 45.5t-5.5 40t-2 41t-2 49.5z" />
<glyph unicode="&#xf711;" d="M-584 1100q0 57 41.5 98t96.5 41q59 0 99 -41t40 -98t-40 -97t-99 -40q-55 0 -96.5 39.5t-41.5 97.5zM-485 1100q0 -16 11.5 -27.5t27.5 -11.5q41 0 40 39q0 41 -40 41q-16 0 -27.5 -11.5t-11.5 -29.5z" />
<glyph unicode="&#xf712;" d="M-768 1149v37q0 53 18.5 81.5t42 43t45 16.5t29.5 2h432q4 -20 5 -29.5t1 -19.5q0 -14 -1 -26.5t-9 -26.5h-399q-31 0 -36 -13.5t-5 -23.5v-60q0 -12 3 -23t21 -11h19q27 0 31 9t4 32v16q37 6 57 6q18 0 55 -6v-16q0 -23 3 -32t26 -9h23q16 0 18 11t2 23v21q39 6 61 6 q20 0 62 -6v-18q0 -53 -21.5 -82t-48.5 -41q-31 -16 -67 -17h-11q-47 0 -72.5 16.5t-25.5 43.5h-10q0 -27 -28.5 -43.5t-76.5 -16.5h-14q-8 0 -29.5 5.5t-45 21.5t-41 47t-17.5 82z" />
<glyph unicode="&#xf713;" d="M-414 1307v182q16 6 27 7t27 1q12 0 22 -1t31 -7v-178q-16 -8 -26.5 -9.5t-26.5 -1.5q-12 0 -21.5 1.5t-32.5 5.5z" />
<glyph unicode="&#xf714;" d="M-649 1436q0 10 1 22t5 33h125q25 0 38 -1t27 -5v-115h17q41 20 87 26.5t93 6.5h66q4 -20 5 -32.5t1 -22.5q0 -25 -11 -48h-61h-197h-118q-4 10 -4 15.5v13.5v55h-64q-10 23 -10 52z" />
<glyph unicode="&#xf715;" d="M-809 1309v131q0 43 11.5 65.5t27.5 33.5t35.5 13t36.5 2h30q47 0 76 -16t29 -43h10q0 27 28.5 43t75.5 16h35q14 0 33 -2t35 -13t27.5 -33.5t11.5 -65.5v-49h63q10 -23 11 -45q0 -10 -1.5 -17.5t-5.5 -28.5h-112q-25 0 -38 2.5t-30 6.5q0 31 1 50t1 32.5v23.5v23 q0 27 -14 26h-35q-14 0 -23.5 -6t-11.5 -28v-21q-37 -6 -57 -6q-18 0 -55 6v21q-2 23 -11.5 28.5t-23.5 5.5h-35q-14 0 -14 -26v-47h34q10 -23 11 -45q0 -10 -1 -17.5t-5 -28.5h-82q-25 0 -38.5 2.5t-29.5 6.5z" />
<glyph unicode="&#xf716;" d="M-494 1436q0 10 1 19t6 30h77v84q14 4 24.5 5t25.5 1q10 0 22 -1t31 -5v-84h74q10 -22 10 -45q0 -10 -1 -19.5t-5 -29.5h-78v-84q-14 -4 -24.5 -5.5t-24.5 -1.5q-10 0 -21.5 1.5t-32.5 5.5v84h-73q-10 23 -11 45z" />
<glyph unicode="&#xf717;" d="M-553 1313q2 29 2 49t2 38.5t5 37t12 43.5h96h196h25q10 -23 10 -49q0 -17 -6 -56h-29q-47 0 -93 6.5t-87 26.5h-16v-102q-14 -4 -24.5 -5.5t-37.5 -1.5q-18 0 -28.5 2.5t-26.5 10.5z" />
<glyph unicode="&#xf718;" d="M-276 -506q0 18 2 28.5t10 26.5q59 0 102 -2t66 -18v-240q-23 -10 -54 -10q-10 0 -23 1t-34 9v29q0 33 1 49.5t11 50.5v17h-75q-4 16 -5 25.5t-1 33.5z" />
<glyph unicode="&#xf719;" d="M-436 -506q0 18 2 28.5t10 26.5q59 0 91 -2t54 -18v-176h76v190q20 4 31.5 5t21.5 1q14 0 26.5 -1t27.5 -5v-252q-25 -16 -71 -19t-71 -3q-47 0 -75.5 4t-71.5 18v35v25.5t1 18.5t2 19.5t3 28.5v17h-51q-4 16 -5 25.5t-1 33.5z" />
<glyph unicode="&#xf71a;" d="M-256 -530q0 33 23.5 56t56.5 23q31 0 55.5 -23.5t24.5 -55.5q0 -33 -24.5 -56.5t-55.5 -23.5q-33 0 -56.5 23.5t-23.5 56.5z" />
<glyph unicode="&#xf71d;" horiz-adv-x="913" d="M72 813q33 6 67 6q35 0 66 -6l49 -698v-21h20v21l134 395q35 10 65 10q18 0 33.5 -3t32.5 -7l133 -395v-21h20v21l21 334q-2 43 -16.5 73.5t-61.5 30.5h-62q-4 18 -4 32.5v24.5v26.5t4 35.5h64q27 0 42 13t22.5 31.5t8.5 39t1 35.5v22q45 6 69 6q16 0 31.5 -2t32.5 -10 v-19q0 -10 -2 -36.5t-14.5 -54t-38 -50t-72.5 -22.5v-21q12 0 33.5 -7t41 -24.5t35 -47t15.5 -76.5l-35 -433q-35 -12 -62.5 -14t-62.5 -2t-58.5 2t-48.5 12l-92 254h-20l-92 -254q-25 -10 -48.5 -12t-58.5 -2t-62.5 2t-62.5 14z" />
<glyph horiz-adv-x="571" d="M-584 1100q0 57 41.5 98t96.5 41q59 0 99 -41t40 -98t-40 -97t-99 -40q-55 0 -96.5 39.5t-41.5 97.5zM-485 1100q0 -16 11.5 -27.5t27.5 -11.5q41 0 40 39q0 41 -40 41q-16 0 -27.5 -11.5t-11.5 -29.5zM-6 793q31 14 65.5 21t65.5 10t55.5 4t32.5 1q80 0 131 -21.5 t81 -59t42 -88t12 -105.5v-549q-43 -6 -67 -6q-23 0 -66 6v551q0 23 -3 49.5t-17.5 50t-41 39t-71.5 15.5t-93 -3t-95 -20q-16 27 -23.5 48.5t-7.5 56.5z" />
<glyph />
<glyph />
<glyph />
<glyph horiz-adv-x="1257" d="M113 514q0 109 41 203t110.5 164.5t163 111.5t199.5 41q109 0 203 -41t164.5 -111.5t111.5 -164.5t41 -203q0 -106 -41 -199.5t-111.5 -163t-165 -110.5t-202.5 -41q-106 0 -199.5 41t-163 110.5t-110.5 163t-41 199.5zM348 373q0 -86 58.5 -137.5t150.5 -51.5 q23 0 45.5 1t42.5 5v111l-12 8q-14 -6 -24.5 -7t-22.5 -1q-33 0 -62.5 18.5t-29.5 65.5q0 16 7 27.5t31.5 19.5t70.5 16.5t122 20.5v-145q0 -74 20.5 -107t81.5 -33h19q29 0 47 11.5t18 44.5q0 35 -11 48t-38 13v272q0 53 -19.5 88t-45.5 58q10 4 19 4h20h19t19 -4h23v133 q-63 -8 -125.5 -23.5t-109.5 -42.5q-18 4 -35 4.5t-41 0.5q-47 0 -90 -6.5t-90 -22.5v-129h12q39 12 81 22.5t74 10.5q18 0 44 -1t50.5 -9.5t41 -27t16.5 -50.5l-168 -17q-37 -4 -74 -12t-67.5 -28.5t-49 -55.5t-18.5 -92z" />
</font>
</defs>
</svg>
