<?xml version="1.0" standalone="no"?>
<!DOCTYPE svg PUBLIC "-//W3C//DTD SVG 1.1//EN" "http://www.w3.org/Graphics/SVG/1.1/DTD/svg11.dtd" >
<svg xmlns="http://www.w3.org/2000/svg">
<metadata></metadata>
<defs>
<font id="pestobold_italic" horiz-adv-x="0" >
<font-face units-per-em="2048" ascent="1638" descent="-410" />
<missing-glyph horiz-adv-x="378" />
<glyph unicode="&#x3b;&#x3b;For&#x20;Education&#x20;Used&#x20;Only&#x3b;&#x3b;" horiz-adv-x="1269" d="M207 541q18 106 76.5 201.5t141.5 167t185 112.5t211 41q106 0 194.5 -41t147 -112.5t83 -167t5.5 -201.5q-18 -109 -76.5 -204t-142.5 -166t-186.5 -112t-208.5 -41q-109 0 -197 41t-146 112t-82 166t-5 204zM342 541q-14 -80 4.5 -151t61.5 -123t107 -81.5t144 -29.5 t156 29.5t137.5 81.5t104.5 123t57 151t-4 150.5t-61 122.5t-109 83t-145 31q-80 0 -156 -31t-137.5 -83t-103.5 -122.5t-56 -150.5zM442 461l29 162q23 131 104.5 183t202.5 52q43 0 104.5 -7t106.5 -22q-6 -39 -18.5 -67.5t-34.5 -59.5q-39 14 -93.5 19.5t-88.5 5.5 q-55 0 -90 -20.5t-46 -77.5l-32 -180q-10 -55 18.5 -76t83.5 -21q35 0 92.5 4t100.5 17q12 -29 13 -53.5t-7 -65.5q-49 -16 -112.5 -22.5t-106.5 -6.5q-121 0 -184.5 51.5t-41.5 184.5z" />
<glyph unicode="&#x3b;&#x3b;Registered&#x3b;&#x3b;" horiz-adv-x="1269" d="M199 512q18 106 75.5 201.5t141.5 167t186 112.5t211 41q106 0 194.5 -41t146.5 -112.5t83 -167t6 -201.5q-18 -109 -76.5 -204t-142.5 -165.5t-186.5 -111.5t-208.5 -41q-109 0 -197 41t-146.5 111.5t-82 165.5t-4.5 204zM334 512q-14 -80 3 -150.5t60 -123t107.5 -82 t144.5 -29.5t156 29.5t138.5 82t105.5 123t57 150.5t-4.5 150.5t-61.5 123t-108.5 83t-145.5 30.5t-155.5 -30.5t-137 -83t-103.5 -123t-56 -150.5zM453 225l104 592h246q43 0 80 -5t60.5 -26.5t32.5 -63.5t-3 -116q-14 -76 -37 -127t-55 -71l22 -177q-29 -12 -61 -12 q-10 0 -35 1t-39 7l-14 164h-127l-29 -166q-23 -4 -46.5 -5t-33.5 -1q-4 0 -25.5 1t-39.5 5zM649 514h64q20 0 38.5 1t33 10.5t25.5 27.5t17 53q4 27 -1 42.5t-16 23.5t-28.5 11t-38.5 3h-63z" />
<glyph unicode="&#x3b;&#x3b;Multiply&#x3b;&#x3b;" horiz-adv-x="864" d="M147 182l242 205l-172 211q10 12 28.5 29.5t28.5 27.5q12 10 26.5 20.5t47.5 29.5l170 -207l244 207q27 -18 37 -28.5t20 -21.5q8 -10 19.5 -27.5t17.5 -29.5l-246 -211l168 -205q-23 -29 -36 -42t-25 -23t-30.5 -23.5t-35.5 -23.5l-172 209l-246 -209q-10 10 -24 23 t-21 24q-10 10 -18 23.5t-23 41.5z" />
<glyph unicode="&#x3b;&#x3b;Divide&#x3b;&#x3b;" horiz-adv-x="995" d="M176 330q0 16 2 37.5t4 35.5q4 16 7.5 32t17.5 50h749q2 -35 1 -50t-5 -32q-2 -14 -7 -35.5t-11 -37.5h-758zM418 33l37 205q35 6 58.5 7t35.5 1t34.5 -1t55.5 -7l-37 -205q-35 -6 -57.5 -7t-34.5 -1t-35.5 1t-56.5 7zM514 578l37 204q35 6 58.5 7.5t35.5 1.5t34.5 -1.5 t55.5 -7.5l-37 -204q-35 -6 -57.5 -7.5t-34.5 -1.5t-35.5 1t-56.5 8z" />
<glyph unicode="&#x2018;&#x2018;" horiz-adv-x="737" d="M256 819l152 271q31 6 44 7t25 1q16 0 25.5 -1t42.5 -10l-94 -270q-35 -8 -58 -9t-33 -1q-14 0 -41.5 1t-62.5 11zM526 819l152 271q31 6 44 7t26 1q16 0 25 -1t42 -10l-94 -270q-35 -8 -57.5 -9t-32.5 -1q-14 0 -42 1t-63 11z" />
<glyph unicode="&#x2019;&#x2019;" horiz-adv-x="737" d="M256 817l94 270q35 8 57.5 9.5t32.5 1.5q14 0 42 -1t63 -12l-152 -270q-31 -6 -44 -7t-25 -1q-16 0 -25.5 1t-42.5 9zM526 817l95 270q35 8 57.5 9.5t32.5 1.5q14 0 41.5 -1t62.5 -12l-151 -270q-31 -6 -44.5 -7t-25.5 -1q-16 0 -25.5 1t-42.5 9z" />
<glyph unicode="&#x3b;&#x3b;Trademark&#x3b;&#x3b;" horiz-adv-x="1411" d="M276 907q-2 12 1.5 31.5t5.5 32.5q2 8 4 19t12 34h461q0 -23 -1 -34t-3 -19q-2 -12 -6.5 -31.5t-8.5 -32.5h-166l-90 -508q-20 -4 -39.5 -4h-25.5h-27.5t-40.5 4l90 508h-166zM696 399l107 609q35 12 70.5 14t56.5 2q20 0 59 -2t66 -14l-8 -525l174 525q33 12 73.5 14 t59.5 2q23 0 57.5 -2t63.5 -14l-107 -609q-23 -4 -40 -4h-25h-29t-41 4l88 504h-12l-2 -12l-177 -490q-10 -2 -24 -3t-28.5 -2t-27 -1h-18.5h-17.5t-28.5 1t-30.5 2t-23.5 3l-2 490l2 12h-14l-89 -504q-20 -4 -38.5 -4h-26.5h-28.5t-39.5 4z" />
<glyph unicode="&#xe24;&#xe32;" horiz-adv-x="1384" d="M109 10l81 457q10 66 33 106.5t45 63.5l4 20h-61l22 123q74 20 150 34.5t158 14.5q188 0 266 -92t43 -284l-148 -846q-35 -6 -58 -7t-36 -1q-12 0 -35.5 1t-54.5 7l148 839q8 43 4 81t-22.5 68t-51.5 46t-84 16h-45q-25 -33 -42 -62.5t-27.5 -53t-15.5 -39t-5 -17.5 l-58 -329h93q2 -18 0 -35t-6 -41q-6 -39 -21 -80h-186q-10 0 -33 3t-57 7zM900.5 699.5q-5.5 31.5 4.5 84.5q39 16 78 25.5t71.5 13.5t57.5 5t33 1q82 0 132 -22.5t74.5 -61t27.5 -91t-7 -109.5l-164 -936q-35 -6 -58.5 -7t-35.5 -1t-35.5 1t-54.5 7l166 938q2 16 3 35.5 t-6 36t-23.5 27.5t-49.5 11q-41 0 -87 -4t-105 -22q-16 37 -21.5 68.5z" />
<glyph unicode="&#xe26;&#xe32;" horiz-adv-x="1417" d="M69 41q1 18 5 39q4 25 9 41t13 35h72l55 311q10 66 33 106.5t45 63.5l4 20h-61l22 123q74 20 150 34.5t157 14.5q188 0 266.5 -92t43.5 -284l-148 -846q-35 -6 -58.5 -7t-35.5 -1t-35.5 1t-54.5 7l147 839q8 43 4 81t-22 68t-51 46t-84 16h-45q-25 -33 -42.5 -62.5 t-27.5 -53t-15 -39t-5 -17.5l-84 -475q-35 -4 -57.5 -7t-32.5 -3h-166q-2 23 -1 41zM933 699.5q-5 31.5 5 84.5q39 16 78 25.5t71.5 13.5t57 5t33.5 1q82 0 132 -22.5t74.5 -61t27.5 -91t-7 -109.5l-164 -936q-35 -6 -58.5 -7t-35.5 -1t-36 1t-54 7l166 938q2 16 3 35.5 t-6.5 36t-23.5 27.5t-49 11q-41 0 -87 -4t-106 -22q-16 37 -21 68.5z" />
<glyph unicode="&#xd;" horiz-adv-x="579" />
<glyph unicode=" "  horiz-adv-x="378" />
<glyph unicode="&#x09;" horiz-adv-x="378" />
<glyph unicode="&#xa0;" horiz-adv-x="378" />
<glyph unicode="!" horiz-adv-x="411" d="M115 8l37 205q35 6 58 7t36 1q12 0 34.5 -1t55.5 -7l-37 -205q-35 -6 -57.5 -7t-34.5 -1t-36 1t-56 7zM180 311l111 703q35 8 60.5 9t35.5 1q12 0 37 -1t55 -9q-35 -178 -68.5 -348t-68.5 -355q-47 -6 -82 -6q-25 0 -43 2t-37 4z" />
<glyph unicode="&#x22;" horiz-adv-x="663" d="M268 762l35 325q35 8 58.5 9.5t37.5 1.5t38 -1t57 -10l-82 -325q-29 -6 -41.5 -7t-30.5 -1q-20 0 -39.5 2t-32.5 6zM516 762l35 325q35 8 58.5 9.5t37.5 1.5t38 -1t56 -10l-82 -325q-29 -6 -41 -7t-30 -1q-20 0 -40 2t-32 6z" />
<glyph unicode="#" horiz-adv-x="1226" d="M152 12l116 258h-102q-2 20 1 40t5 34q4 27 8 39t17 43h153l90 205h-131q-2 20 1 39.5t5 34.5q4 27 8.5 39t16.5 42h178l107 228q33 8 53 9t37 1q23 0 46 -5t46 -18l-102 -215h225l106 228q33 8 53.5 9t36.5 1q23 0 47.5 -5t47.5 -18l-103 -215h125q2 -31 0 -49t-6 -30 q-4 -18 -7 -38t-9 -38h-181l-96 -205h156q2 -31 0 -49.5t-6 -30.5q-4 -18 -7.5 -37.5t-9.5 -38.5h-209l-120 -254q-18 -10 -42 -13t-47 -3q-16 0 -37.5 1t-58.5 11l117 258h-225l-119 -254q-18 -10 -42 -13t-48 -3q-14 0 -36 1t-58 11zM532 426h228l92 205h-223z" />
<glyph unicode="$" horiz-adv-x="1005" d="M121 86q10 43 29.5 77t66.5 68q51 -33 108.5 -50t108.5 -27l51 297q-51 18 -98 41.5t-83 57.5t-52 80t-6 107q25 139 114 206t228 83l20 113q33 6 56.5 7t35.5 1t35 -1t58 -7l-21 -109q68 -4 139.5 -15t124.5 -34q-6 -25 -12 -44t-13 -37.5t-19.5 -37t-30.5 -43.5 q-35 14 -95.5 24.5t-124.5 14.5l-47 -276q51 -18 101.5 -42t87.5 -55.5t55 -76t8 -103.5q-16 -94 -52 -153.5t-83 -94t-104.5 -49t-116.5 -18.5l-21 -109q-35 -6 -57.5 -7t-34.5 -1t-35.5 1t-56.5 7l21 111q-41 4 -83 11t-80 17.5t-71 26.5t-51 39zM430 737 q-6 -33 19.5 -55.5t70.5 -40.5l37 213q-55 -8 -86 -33t-41 -84zM616 147q51 10 90 42t56 116q4 31 -24.5 51.5t-75.5 38.5z" />
<glyph unicode="%" horiz-adv-x="1310" d="M233 686l29 164q8 45 31.5 78t57.5 54.5t73 31.5t80 10q39 0 74.5 -10t61.5 -31.5t38 -54.5t4 -78l-29 -164q-18 -98 -85.5 -136t-153.5 -38q-43 0 -80 9t-62.5 28.5t-37 53.5t-1.5 83zM348 18l608 994q27 10 48.5 11t37.5 1q25 0 52.5 -2t50.5 -16l-608 -992 q-18 -10 -41 -12t-45 -2q-16 0 -39 2t-64 16zM391 690q-2 -12 5 -21.5t42 -9.5q33 0 44.5 9.5t13.5 21.5l26 156q2 10 -5 21.5t-40 11.5q-35 0 -46 -11.5t-13 -21.5zM807 174l31 164q8 45 31.5 78t57.5 54.5t72.5 31.5t79.5 10q39 0 75 -10t61.5 -31.5t38 -54.5t3.5 -78 l-30 -164q-16 -98 -85 -136t-153 -38q-43 0 -80 9t-62.5 28.5t-36.5 53.5t-3 83zM967 178q-4 -12 4 -21.5t43 -9.5q33 0 43 9.5t14 21.5l27 156q2 10 -5 21.5t-40 11.5q-35 0 -46.5 -11.5t-13.5 -21.5z" />
<glyph unicode="&#x26;" horiz-adv-x="1064" d="M162 287q8 53 32.5 92t58.5 68.5t76 51t89 40.5q-33 90 -15 196q12 66 31 120t54.5 94t90 62.5t138.5 22.5q82 0 130 -22.5t69.5 -62.5t21.5 -94t-12 -120q-10 -53 -34 -94t-58.5 -72.5t-77.5 -57.5t-92 -46q20 -27 56 -69t83 -97q31 43 43 87t22 103q33 6 50.5 8.5 t29.5 2.5t41 -2t49 -6q-23 -125 -52.5 -195t-70.5 -121l56 -63q-25 -31 -40.5 -45.5t-25.5 -22.5q-31 -23 -80 -45l-47 51q-70 -37 -143.5 -49t-132.5 -12q-76 0 -145.5 5t-120 32.5t-72 88t-2.5 171.5zM346 287q-8 -47 2 -75t36 -42t67 -19.5t96 -5.5q33 0 63.5 6.5 t55.5 22.5q-43 47 -92.5 107.5t-81.5 113.5q-59 -25 -99.5 -49t-46.5 -59zM583 668.5q1 -31.5 11 -66.5q53 23 95 54.5t52 78.5q6 31 9.5 55.5t-2 40t-19.5 23.5t-43 8q-57 0 -72.5 -32t-25.5 -95q-6 -35 -5 -66.5z" />
<glyph unicode="'" horiz-adv-x="415" d="M268 762l35 325q35 8 58.5 9.5t37.5 1.5t38 -1t57 -10l-82 -325q-29 -6 -41.5 -7t-30.5 -1q-20 0 -39.5 2t-32.5 6z" />
<glyph unicode="(" horiz-adv-x="473" d="M155 36q3 83 9 168t16 167t23 147q12 66 29.5 144.5t41 161.5t49 164t52.5 149q35 4 57.5 5t32.5 1t32.5 -1t61.5 -7q-31 -74 -56.5 -156t-48 -163t-39 -157.5t-28.5 -140.5q-10 -61 -20.5 -141t-18.5 -165t-10 -170t2 -155q-41 -6 -63.5 -8t-32.5 -2q-12 0 -35 2t-53 6 q-4 68 -1 151z" />
<glyph unicode=")" horiz-adv-x="473" d="M92 -113q29 70 55.5 155t50 170t41 165t27.5 141q12 63 21.5 140t16.5 158t9 163t-2 156q41 6 65 7t34 1t32.5 -1t53.5 -5q4 -68 2 -149t-9.5 -164t-16.5 -161.5t-21 -144.5t-31 -147.5t-41.5 -166.5t-49 -168t-53.5 -151q-35 -4 -57 -6t-35 -2q-10 0 -31.5 2t-60.5 8z " />
<glyph unicode="*" horiz-adv-x="778" d="M254 803q6 27 12 49t17 45q8 27 49 86l151 -74l2 181q35 4 57.5 6t39.5 2q16 0 37.5 -2t54.5 -6l-62 -181l179 74q10 -29 14 -50.5t6 -35.5v-45.5t-4 -48.5l-166 -19l98 -120q-35 -35 -54 -48.5t-23 -17.5q-23 -14 -45.5 -25.5t-47.5 -17.5l-57 150l-111 -150 q-23 6 -41 17.5t-34 25.5l-17.5 17.5t-36.5 48.5l140 120z" />
<glyph unicode="+" horiz-adv-x="991" d="M176 332q0 16 2 37.5t4 36.5q4 16 8.5 31.5t16.5 49.5h280l54 297q35 6 57.5 7.5t34.5 1.5t35.5 -1t56.5 -8l-53 -297h280v-50t-2 -29q-4 -16 -10 -37t-10 -39h-285l-51 -295q-35 -8 -59.5 -9t-34.5 -1q-14 0 -37 1t-53 9l51 295h-285z" />
<glyph unicode="," horiz-adv-x="415" d="M53 -94l84 264q35 6 57.5 8t32.5 2q14 0 40 -2t65 -10l-139 -264q-33 -10 -47.5 -12.5t-24.5 -2.5q-16 0 -24.5 2.5t-43.5 14.5z" />
<glyph unicode="-" horiz-adv-x="800" d="M176 332q0 16 2 37.5t4 36.5q4 16 8.5 31.5t16.5 49.5h555q4 -35 2 -50t-6 -31q-2 -14 -7.5 -36t-11.5 -38h-563z" />
<glyph unicode="." horiz-adv-x="409" d="M113 8l37 205q35 6 58 7t36 1q12 0 34.5 -1t55.5 -7l-37 -205q-35 -6 -57.5 -7t-34.5 -1t-36 1t-56 7z" />
<glyph unicode="/" horiz-adv-x="647" d="M63 12l537 1123q33 6 52.5 7t35.5 1q23 0 48.5 -4t45.5 -19l-532 -1104q-18 -10 -42 -13t-46 -3q-16 0 -39 1t-60 11z" />
<glyph unicode="0" horiz-adv-x="999" d="M156 219q6 72 22 160l47 266q14 88 34 160t65 123t129 78.5t229 27.5t219 -27.5t100.5 -78.5t19.5 -123t-22 -160l-47 -266q-16 -88 -34.5 -160t-63.5 -123t-128 -78.5t-228 -27.5t-219 27.5t-101.5 78.5t-21.5 123zM346 262.5q-4 -41.5 10.5 -68t53 -38t114.5 -11.5 t119 11.5t66.5 38t35 67.5t21.5 103l49 278q10 61 14.5 102t-10 68t-53.5 38t-115 11t-119 -11t-66.5 -38t-34.5 -67.5t-21 -102.5l-50 -278q-10 -61 -14 -102.5z" />
<glyph unicode="1" horiz-adv-x="657" d="M180 797l373 215l12 6q20 4 39 5t29 1q12 0 34.5 -1t55.5 -9l-178 -1004q-35 -8 -57.5 -9t-32.5 -1q-12 0 -36 1t-59 9l138 770q-72 -39 -116 -61.5t-71 -36.5q-31 -16 -47 -25q-16 6 -29.5 19.5t-19.5 21.5q-10 10 -21.5 37t-13.5 62z" />
<glyph unicode="2" horiz-adv-x="909" d="M131 0q-2 23 1 45.5t7 36.5q2 16 6.5 30.5t12.5 34.5q18 47 67 96.5t110.5 99.5t130.5 101.5t126 100.5t97 95t48 89q6 29 8.5 53.5t-9 42t-42 27.5t-88.5 10q-59 0 -93 -12t-52.5 -33.5t-26.5 -51.5t-14 -63q-35 -4 -57.5 -7t-34.5 -3t-35 2t-57 13q10 53 26.5 111.5 t58 106.5t116.5 78.5t200 30.5t188.5 -28.5t88 -72.5t20.5 -98.5t-12 -103.5q-10 -59 -43 -112.5t-81 -101.5t-104.5 -94t-113 -90t-109.5 -88t-92 -89h434q4 -29 2 -43.5t-4 -28.5q-4 -16 -8 -41t-12 -43h-660z" />
<glyph unicode="3" horiz-adv-x="888" d="M134 208q3 58 13 114q37 8 60.5 9t36.5 1q12 0 33.5 -1t56.5 -5q-6 -35 -8 -67t8 -57.5t39.5 -41t89.5 -15.5q57 0 91 12.5t51.5 34t24.5 48t13 55.5q4 27 5 52.5t-16.5 45t-58 30.5t-120.5 11q-2 20 0 43t6 37q2 12 7 27.5t15 48.5q78 0 123 11t68.5 30.5t33 44 t13.5 53.5q6 29 7 53.5t-10 42t-41 27.5t-87 10q-59 0 -93 -12t-53.5 -33.5t-27.5 -51.5t-15 -63q-35 -8 -57.5 -9t-32.5 -1q-31 0 -94 15q10 53 26.5 111.5t58.5 106.5t117 78.5t199 30.5q125 0 189.5 -28.5t89.5 -72.5t20.5 -98.5t-12.5 -103.5q-4 -29 -11 -57.5 t-19.5 -57t-34 -55t-56.5 -49.5q47 -47 51.5 -104.5t-6.5 -110.5q-10 -51 -25.5 -105.5t-55 -99.5t-113.5 -73.5t-199 -28.5t-189.5 30.5t-89 80t-21.5 107.5z" />
<glyph unicode="4" horiz-adv-x="858" d="M90 303q-2 18 1 43t7 39q2 20 21 74l524 557q27 4 53 6t49 2t40.5 -2t48.5 -14l-97 -549h109q4 -29 2 -44.5t-4 -27.5q-6 -35 -11.5 -50t-9.5 -34h-112l-54 -293q-39 -8 -60.5 -9t-31.5 -1q-16 0 -35.5 2t-54.5 12l51 289h-436zM326 459h227l51 291z" />
<glyph unicode="5" horiz-adv-x="907" d="M153 198.5q3 57.5 13 112.5q35 8 59.5 9.5t34.5 1.5q14 0 36.5 -1.5t53.5 -9.5q-6 -35 -8 -64.5t9 -52t41 -36t89 -13.5q57 0 91 16.5t53.5 41t26.5 55.5t14 59q6 31 8 61t-8.5 54.5t-40 39.5t-86.5 15q-18 0 -45 -1t-53.5 -7t-46 -17t-21.5 -32q-37 -10 -60.5 -11 t-42.5 -1q-16 0 -42.5 1t-41.5 7l90 508q2 14 9.5 34.5t17.5 55.5h633q2 -31 -1 -53.5t-5 -34.5q-4 -18 -8 -41t-13 -43h-463l-40 -231q37 16 75.5 19t85.5 3q125 0 188.5 -31.5t87 -81t19.5 -105.5t-12 -106q-10 -51 -25.5 -109t-56.5 -107.5t-115.5 -81t-199.5 -31.5 t-189.5 29.5t-89 75.5t-21.5 103.5z" />
<glyph unicode="6" horiz-adv-x="874" d="M155 210q3 58 13 109l70 398q33 178 142 247.5t273 69.5q27 0 64 -2t74.5 -7t74.5 -12t68 -18q-10 -53 -27.5 -89t-46.5 -75q-53 16 -122.5 23.5t-116.5 7.5q-76 0 -129.5 -29.5t-67.5 -105.5l-23 -131q35 16 74 23.5t86 7.5q125 0 188.5 -30t88 -75t21.5 -99.5 t-11 -103.5q-10 -51 -25.5 -109t-56.5 -107.5t-116 -81t-199 -31.5q-125 0 -188.5 31.5t-87 81t-20.5 107.5zM344 253.5q-2 -28.5 8 -53t39 -40t86 -15.5t92 16.5t54.5 41t26.5 55.5t14 59q6 29 8 56.5t-9.5 49t-41 35t-86.5 13.5q-59 0 -93 -13.5t-52.5 -35t-26 -51 t-13.5 -60.5q-4 -29 -6 -57.5z" />
<glyph unicode="7" horiz-adv-x="794" d="M195 852q2 16 4 42t6 40q2 14 8 34.5t16 55.5h654q-2 -35 -3 -55.5t-3 -32.5q-4 -14 -6.5 -25.5t-10.5 -31.5l-418 -871q-29 -4 -49 -6t-37 -2q-20 0 -100 12l395 840h-456z" />
<glyph unicode="8" horiz-adv-x="911" d="M154 191.5q2 54.5 12 105.5q8 51 30.5 108.5t88.5 104.5q-27 25 -39.5 51.5t-15.5 55t1.5 57t8.5 57.5q8 49 24.5 103.5t57 98.5t115.5 72.5t200 28.5t188.5 -28.5t88 -72.5t20.5 -98.5t-12 -103.5q-4 -29 -10.5 -57.5t-18.5 -57t-33.5 -55t-54.5 -49.5q47 -47 51 -104.5 t-6 -110.5q-10 -51 -25.5 -105.5t-56.5 -99.5t-115.5 -73.5t-199.5 -28.5t-188.5 28.5t-88 73.5t-22.5 99.5zM342 239.5q-2 -26.5 9 -48t41 -34t89 -12.5q57 0 92 12.5t53.5 34t25.5 48t14 55.5q4 27 6 52.5t-9.5 44t-42 29.5t-88.5 11q-59 0 -92.5 -11t-52 -29.5t-26 -44 t-11.5 -52.5q-6 -29 -8 -55.5zM418 675.5q-2 -24.5 9 -45t41 -31.5t89 -11q57 0 91 11t52.5 31.5t25.5 45t11 53.5q6 29 8.5 53.5t-9 42t-42 27.5t-88.5 10q-59 0 -92 -10t-51.5 -27.5t-25.5 -42t-13 -53.5q-4 -29 -6 -53.5z" />
<glyph unicode="9" horiz-adv-x="864" d="M109 29q4 27 9 45t13 34.5t18.5 33t26.5 34.5q53 -16 125 -23.5t119 -7.5q76 0 129 30t67 106l25 147q-35 -16 -74 -23.5t-86 -7.5q-125 0 -188.5 30t-88 75t-21 99.5t11.5 103.5q8 51 25.5 109t58 107.5t115.5 81t200 31.5t188.5 -31.5t87 -81t18.5 -107.5t-14 -109 l-69 -398q-16 -90 -52 -150.5t-89.5 -97t-122 -53t-150.5 -16.5q-29 0 -64.5 2t-74.5 7t-76 12t-67 18zM372 650.5q-3 -27.5 8 -49t40 -35t88 -13.5q57 0 92 13.5t53.5 35t25.5 51t13 60.5q4 27 6 54.5t-9 48t-39.5 33.5t-86.5 13q-59 0 -93 -13t-52.5 -34.5t-25.5 -50.5 t-13 -57q-4 -29 -7 -56.5z" />
<glyph unicode=":" horiz-adv-x="409" d="M113 8l37 205q35 6 58 7t36 1q12 0 34.5 -1t55.5 -7l-37 -205q-35 -6 -57.5 -7t-34.5 -1t-36 1t-56 7zM207 537l35 204q35 6 58.5 7.5t35.5 1.5t34.5 -1t55.5 -8l-35 -204q-35 -6 -58.5 -7.5t-35.5 -1.5t-35.5 1t-54.5 8z" />
<glyph unicode=";" horiz-adv-x="415" d="M57 -94q35 -12 43.5 -14.5t24.5 -2.5q10 0 24.5 2.5t47.5 12.5l139 264q-39 8 -65 10t-40 2q-10 0 -32.5 -2t-57.5 -8zM209 537l35 204q35 6 58.5 7.5t35.5 1.5t34.5 -1t55.5 -8l-35 -204q-35 -6 -58.5 -7.5t-35.5 -1.5t-35.5 1t-54.5 8z" />
<glyph unicode="&#x3c;" horiz-adv-x="892" d="M172 328.5q0 13.5 2 27t6 29.5q6 35 12.5 58.5t32.5 70.5l662 254q20 -53 10 -100q-4 -16 -8 -37t-17 -47l-507 -187h-21l-4 -22h20l443 -187q4 -27 1 -47t-7 -37q-6 -45 -45 -100l-572 254q-4 25 -6 41t-2 29.5z" />
<glyph unicode="=" horiz-adv-x="800" d="M150 180q0 16 2 38t4 36q4 16 8 31.5t16 50.5h555q4 -35 2 -50.5t-6 -31.5q-2 -14 -7 -35.5t-11 -38.5h-563zM199 463q0 16 2 37.5t6 36.5q2 16 6 31.5t18 49.5h555q2 -35 0 -50t-4 -31q-4 -14 -9 -36t-11 -38h-563z" />
<glyph unicode="&#x3e;" horiz-adv-x="892" d="M129 104q4 16 9 37t18 47l508 187h20l4 22h-20l-443 187q-4 27 -2 47t6 37q10 51 47 100l572 -254q8 -47 7 -70.5t-7 -58.5q-4 -16 -6 -29.5t-7.5 -27t-12.5 -29.5t-19 -41l-662 -254q-18 53 -12 100z" />
<glyph unicode="?" horiz-adv-x="790" d="M248 8l37 205q35 6 58.5 7t35.5 1t34.5 -1t55.5 -7l-37 -205q-35 -6 -57.5 -7t-34.5 -1t-35.5 1t-56.5 7zM283 975q66 33 137.5 46t130.5 13q152 0 220.5 -52t45.5 -191q-14 -80 -62 -130.5t-101.5 -88t-97.5 -69.5t-50 -73l-25 -133q-33 -4 -55.5 -5t-34.5 -1t-35.5 1 t-58.5 5l25 133q10 61 35.5 100t57 67t67.5 46.5t67 38.5t53.5 45t30.5 64q6 37 -14.5 54t-102.5 17q-115 0 -199 -51q-23 41 -30.5 79t-3.5 85z" />
<glyph unicode="@" horiz-adv-x="1347" d="M162 283l80 454q29 154 158.5 225.5t342.5 71.5h226q213 0 318.5 -71.5t76.5 -225.5l-70 -393q-8 -47 -35.5 -76.5t-61.5 -47t-68.5 -24t-57.5 -6.5q-31 0 -64.5 2.5t-61 10.5t-44 22.5t-12.5 38.5h-19q-10 -25 -30.5 -39t-44 -21t-49 -10.5t-46.5 -3.5q-98 0 -154.5 25 t-83 67t-29.5 95t7 108l15 78q10 55 29.5 105.5t58.5 88.5t100.5 59.5t155.5 21.5q8 0 28.5 -2t43 -9.5t44 -20.5t31.5 -36h15l10 55q16 4 40.5 5t35.5 1q10 0 33.5 -1t39.5 -5l-80 -450q-8 -41 3.5 -48.5t33.5 -7.5q27 0 36 7.5t17 48.5l64 362q10 66 -50.5 108t-201.5 42 h-225q-141 0 -218 -42t-87 -108l-80 -454q-8 -49 9 -78t52 -44.5t85 -19.5t106 -4h290h60.5t42 2t37 7.5t43.5 13.5q18 -20 27.5 -56t13.5 -67q-29 -18 -52.5 -27.5t-51 -13.5t-61.5 -5t-83 -1h-291q-111 0 -191.5 13t-132 47t-71 90.5t-2.5 142.5zM589 436.5 q-3 -30.5 7 -56.5t39 -42t88 -16t94 16t54.5 42t27.5 56.5t12 59.5l17 88q4 25 0 48t-20.5 39.5t-49.5 27t-84 10.5q-53 0 -84 -13.5t-47 -36t-23.5 -50t-13.5 -54.5l-10 -59q-4 -29 -7 -59.5z" />
<glyph unicode="A" horiz-adv-x="972" d="M33 23l469 978q53 16 92 19.5t74 3.5t71.5 -3t83.5 -20l121 -978q-23 -14 -49.5 -18.5t-50.5 -4.5q-14 0 -35 1t-51 7l-39 309h-354l-150 -309q-31 -6 -51.5 -7t-34.5 -1q-25 0 -50.5 4t-45.5 19zM451 494h243l-47 364l4 21h-22l-4 -21z" />
<glyph unicode="B" horiz-adv-x="985" d="M113 0l180 1024h428q72 0 135.5 -5t106.5 -33t60 -90q8 -28 8 -68q0 -46 -11 -107q-14 -78 -40 -126t-79 -83q41 -33 49 -83q3 -20 3 -44q0 -36 -7 -80q-20 -115 -59 -176t-92.5 -90t-118 -34t-135.5 -5h-428zM324 156h241q27 0 57.5 4t58.5 18.5t49.5 42t29.5 72.5 q2 15 2 28q0 25 -8 41q-12 26 -33 42t-50.5 22t-56.5 6h-241zM399 588h242q27 0 58.5 4t59 18.5t48.5 41t29 69.5q3 18 3 32q1 23 -7 39q-12 26 -35 39t-52.5 17t-56.5 4h-242z" />
<glyph unicode="C" horiz-adv-x="966" d="M156 194q-8 36 -8 79q0 47 10 104l47 268q18 98 62 171t109.5 122t150.5 72.5t186 23.5q33 0 77 -3t90 -9t91 -15.5t82 -21.5q-6 -33 -11.5 -53.5t-12.5 -36.5t-18.5 -32.5t-29.5 -39.5q-31 10 -72 17.5t-82 12.5t-79.5 7t-69.5 2q-49 0 -96 -13t-86 -39t-68 -63.5 t-37 -87.5l-51 -294q-4 -26 -4 -48q0 -29 7 -53q13 -42 43 -68t72 -38.5t91 -12.5q31 0 73 2.5t87 7.5t90 12t80 17q17 -31 17 -63q0 -30 -11 -90q-41 -12 -90.5 -20.5t-97.5 -13.5t-92 -6t-77 -1q-100 0 -178 19.5t-127 65t-67 119.5z" />
<glyph unicode="D" horiz-adv-x="1009" d="M113 0l180 1024h356q100 0 177 -19.5t126 -64.5q48 -45 66 -120q9 -37 9 -82q0 -46 -9 -101l-43 -250q-18 -109 -62.5 -183.5t-110 -119.5t-149.5 -64.5t-184 -19.5h-356zM324 156h174q115 0 193.5 59t96.5 160l48 274q4 24 4 46q0 67 -42 105q-56 52 -177 52h-175z" />
<glyph unicode="E" horiz-adv-x="913" d="M113 0l180 1024h694q1 -14 1 -26q0 -18 -2 -30q-3 -20 -5 -32q-4 -18 -8 -42t-12 -42h-515l-47 -262h447q4 -27 3 -40t-5 -28q-2 -16 -7.5 -37.5t-17.5 -50.5h-446l-49 -278h510q4 -27 3 -40.5t-6 -27.5q-4 -16 -8 -37.5t-16 -50.5h-694z" />
<glyph unicode="F" horiz-adv-x="888" d="M113 10l180 1014h692q2 -20 2 -35q0 -11 -1 -21q-3 -20 -5 -32q-4 -18 -8 -42t-12 -42h-515l-49 -281h447q4 -27 2 -40t-4 -27q-4 -16 -8.5 -38t-18.5 -50h-446l-72 -406q-33 -6 -56.5 -7t-37.5 -1q-10 0 -33 1t-57 7z" />
<glyph unicode="G" horiz-adv-x="1015" d="M178 377l47 268q33 186 171.5 287.5t338.5 101.5q33 0 77 -3t90 -9t91 -15.5t82 -21.5q-6 -33 -11 -53.5t-12.5 -36.5t-18.5 -32.5t-29 -39.5q-31 10 -72 17.5t-82 12.5t-80 7t-70 2q-49 0 -96 -13t-87 -39t-68.5 -63.5t-36.5 -87.5l-56 -313q-3 -17 -3 -33q0 -30 9 -54 q15 -38 45.5 -63.5t73.5 -38t92 -12.5q35 0 77 1t93 8l41 239h-161q-2 33 -1 47.5t5 26.5q2 16 6 34.5t18 53.5h254q12 0 36 -3t54 -7l-90 -512q-41 -12 -89 -21.5t-96 -13.5t-92 -6t-77 -2q-100 0 -178 19.5t-127 64.5t-68 120q-9 37 -9 84q0 45 9 99z" />
<glyph unicode="H" horiz-adv-x="1001" d="M113 8l178 1008q35 6 58.5 7t33.5 1q14 0 37.5 -1t54.5 -7l-74 -422h408l74 422q35 6 58.5 7t33.5 1q14 0 37.5 -1t54.5 -7l-178 -1008q-33 -6 -56.5 -7t-37.5 -1q-10 0 -33 1t-57 7l75 430h-407l-76 -430q-33 -6 -56.5 -7t-37.5 -1q-10 0 -33 1t-57 7z" />
<glyph unicode="I" horiz-adv-x="409" d="M113 8l178 1008q35 6 58.5 7t35.5 1t34.5 -1t55.5 -7l-178 -1008q-35 -6 -57.5 -7t-34.5 -1t-36 1t-56 7z" />
<glyph unicode="J" horiz-adv-x="825" d="M125 132v17q0 34 6 72l16 98q35 8 57.5 9.5t35.5 1.5q12 0 36.5 -1t55.5 -10l-19 -100q-2 -11 -2 -20q0 -33 24 -43q30 -11 97 -11q68 0 100.5 10.5t42.5 61.5l142 797q33 6 56.5 7t35.5 1t34.5 -1t57.5 -7l-139 -793q-8 -47 -25.5 -89t-55.5 -73.5t-100.5 -50 t-162.5 -18.5h-27q-98 0 -154.5 18.5t-83 50t-28.5 73.5z" />
<glyph unicode="K" horiz-adv-x="1048" d="M113 8l178 1008q35 6 58.5 7t35.5 1t34.5 -1t55.5 -7l-69 -389l612 397q25 -10 43 -29.5t22 -29.5q6 -12 12.5 -26.5t10.5 -47.5l-371 -248l264 -620q-27 -14 -60.5 -18.5t-55.5 -4.5q-16 0 -40 1t-48 11l-234 520l-194 -129l-70 -395q-35 -6 -57.5 -7t-34.5 -1t-36 1 t-56 7z" />
<glyph unicode="L" horiz-adv-x="849" d="M113 0l178 1014q33 6 56.5 7t35.5 1t34.5 -1t57.5 -7l-151 -858h491q1 -23 1 -38v-12q-1 -16 -5 -30q-4 -16 -7 -28.5t-16 -47.5h-675z" />
<glyph unicode="M" horiz-adv-x="1296" d="M113 8l174 989q57 20 99 23.5t77 3.5q33 0 89 -3t99 -22l21 -854l325 854q49 18 106.5 21.5t90.5 3.5q35 0 76 -3t88 -24l-174 -989q-35 -6 -57.5 -7t-34.5 -1t-36 1t-57 7l152 854h-27l-4 -20l-325 -828q-16 -6 -39 -8t-44.5 -4t-39 -2h-25.5h-25.5t-39 2l-43 4t-35.5 8 l-33 828l4 20h-26l-152 -854q-33 -6 -56.5 -7t-35.5 -1t-35 1t-57 7z" />
<glyph unicode="N" horiz-adv-x="1120" d="M113 8l174 989q29 10 52 14.5t40 8.5q20 4 37 4q70 0 117 -3t85 -20l211 -815l-6 -24h27l151 854q35 6 58.5 7t36.5 1q12 0 34.5 -1t55.5 -7l-174 -989q-29 -10 -51.5 -14.5t-38.5 -8.5q-20 -4 -37 -4q-70 0 -120 3t-91 20l-203 815l4 24h-26l-152 -854q-33 -6 -56.5 -7 t-35.5 -1t-35 1t-57 7z" />
<glyph unicode="O" horiz-adv-x="1017" d="M137 219q4 72 21 160l47 264q14 88 35.5 161t70.5 124t139 78.5t244 27.5t232 -27.5t108 -78.5q25 -43 26 -101q0 -11 -1 -23q-6 -73 -21 -161l-47 -264q-16 -88 -35.5 -160t-67.5 -123t-136 -78.5t-242 -27.5t-234.5 27.5t-111.5 78.5q-27 45 -27 107v16zM330 262.5 q0 -41.5 19.5 -68t64.5 -38t123 -11.5q76 0 124 11.5t76.5 38t43 67.5t24.5 103l49 276q11 67 11 107q-1 39 -19 65q-20 27 -63.5 38t-118.5 11q-78 0 -127.5 -11t-78 -38t-44 -69t-25.5 -103l-49 -276q-10 -61 -10 -102.5z" />
<glyph unicode="P" horiz-adv-x="921" d="M113 10l180 1014h395q72 0 134.5 -6t104.5 -39t58 -103q7 -29 7 -68q0 -54 -13 -126q-23 -125 -62.5 -193.5t-93 -101.5t-119 -39t-137.5 -6h-211l-59 -332q-33 -8 -56.5 -9t-35.5 -1t-35 1t-57 9zM383 498h209q27 0 58.5 7t60 26.5t51 55.5t33.5 95q5 29 5 52 q0 24 -6 41q-10 34 -31.5 51.5t-51 21.5t-56.5 4h-209z" />
<glyph unicode="Q" horiz-adv-x="1038" d="M148 232q6 67 20 147l47 264q14 88 35.5 161t71 124t139.5 78.5t244 27.5t231.5 -27.5t107.5 -78.5q26 -43 26 -101q0 -11 -1 -23q-6 -73 -20 -161l-48 -264q-14 -80 -31.5 -147.5t-57.5 -118t-110.5 -81t-189.5 -38.5l-14 -82q12 10 23.5 13t13.5 3h174q6 -29 7 -48 t-3 -36q-2 -12 -5 -24.5t-20 -46.5h-258q-45 0 -74.5 11t-58.5 38l31 172q-119 8 -179.5 38.5t-82.5 81.5q-19 40 -19 92q0 12 1 26zM340 262.5q0 -41.5 19.5 -68t64.5 -38t123 -11.5q76 0 124 11.5t76.5 38t43 67.5t24.5 103l49 276q10 61 12 103v6q0 38 -18 63 q-20 27 -64 38t-120 11q-78 0 -127 -11t-78 -38t-44 -69t-26 -103l-49 -276q-10 -61 -10 -102.5z" />
<glyph unicode="R" horiz-adv-x="989" d="M113 10l180 1014h422q72 0 135 -6t105 -39q41 -33 57 -103q6 -29 7 -66q0 -54 -13 -128q-23 -129 -66 -195.5t-100 -99.5l45 -364q-23 -12 -50.5 -17.5t-52.5 -5.5q-16 0 -37.5 1t-46.5 11l-47 330h-295l-59 -332q-33 -8 -56.5 -9t-35.5 -1t-35 1t-57 9zM383 498h235 q27 0 59 7t60.5 26.5t51 55.5t32.5 95q5 30 5 53t-5 40q-10 34 -31.5 51.5t-51 21.5t-56.5 4h-236z" />
<glyph unicode="S" horiz-adv-x="962" d="M102 88q10 43 31 76.5t68 68.5q41 -27 87 -43t89 -26t81 -14.5t62 -4.5q37 0 72 4.5t65.5 20.5t53 48t32.5 89q1 5 1 9q0 30 -34 50q-40 24 -102.5 43t-135.5 41.5t-132 59.5t-93 91q-24 38 -24 92q0 22 4 46q29 164 150 229.5t305 65.5q35 0 79 -3t90 -9t89 -15.5 t78 -23.5q-6 -25 -11.5 -44t-13.5 -37.5t-20 -37t-31 -43.5q-23 8 -56.5 16.5t-73.5 13.5t-81 8t-76 3q-57 0 -99 -3t-71.5 -15.5t-47 -37t-25.5 -67.5q-1 -7 -1 -13q1 -32 33 -54q40 -26 101 -47t134 -43.5t133 -57.5t95 -86q25 -36 25 -88q0 -20 -4 -43 q-18 -111 -63.5 -174t-105 -95t-129 -40t-138.5 -8q-41 0 -97.5 4t-113 14t-104.5 29.5t-75 50.5z" />
<glyph unicode="T" horiz-adv-x="845" d="M195 852q-1 7 -1 15q0 12 2 27q3 24 7 42q2 12 7 32.5t17 55.5h752q0 -35 -3 -55.5t-5 -32.5q-4 -18 -8.5 -42t-12.5 -42h-284l-150 -842q-35 -8 -57.5 -9t-32.5 -1q-14 0 -36.5 1t-57.5 9l149 842h-286z" />
<glyph unicode="U" horiz-adv-x="1044" d="M148 219q4 72 20 160l113 637q35 6 58 7t36 1q12 0 34.5 -1t55.5 -7l-115 -651q-10 -61 -10 -102.5t20.5 -68t64.5 -38t122 -11.5t126 11.5t77.5 38t45 67.5t25.5 103l115 651q35 6 58.5 7t35.5 1t34.5 -1t55.5 -7l-112 -637q-16 -88 -37 -160t-70 -123t-138 -78.5 t-243 -27.5t-233.5 27.5t-111.5 78.5q-28 45 -28 106q0 8 1 17z" />
<glyph unicode="V" horiz-adv-x="972" d="M207 1001q23 14 50.5 18.5t51.5 4.5q14 0 35 -1t49 -7l111 -850l-4 -21h22l4 21l410 850q33 6 53.5 7t34.5 1q25 0 49.5 -4t44.5 -19l-469 -978q-51 -16 -89 -19.5t-73 -3.5t-73.5 3t-85.5 20z" />
<glyph unicode="W" horiz-adv-x="1265" d="M207 23v983q25 14 51.5 16t48.5 2q16 0 35.5 -2t48.5 -12v-865l-4 -20h23l4 20l229 697q33 10 78 11t61 1h24.5t36 -1t40 -4t35.5 -7l-17 -697l-4 -20h23l4 20l303 865q35 10 55.5 12t36.5 2q23 0 48.5 -2t43.5 -16l-348 -983q-47 -16 -79 -19.5t-66 -3.5h-43t-52.5 2 t-55.5 7t-50 14l31 634l-195 -634q-47 -16 -108.5 -19.5t-96.5 -3.5t-65.5 3t-75.5 20z" />
<glyph unicode="X" horiz-adv-x="1052" d="M39 23l467 483l-299 493q45 18 76.5 21.5t46.5 3.5h15t25.5 -1t28 -3t21.5 -6l219 -365l350 365q20 8 52 9t42 1q14 0 45 -3t70 -22l-475 -493l295 -483q-35 -16 -77 -19.5t-54 -3.5q-10 0 -38 1t-56 7l-205 348l-328 -348q-29 -6 -56.5 -7t-37.5 -1q-12 0 -53 3t-74 20z " />
<glyph unicode="Y" horiz-adv-x="1044" d="M225 997q41 20 79 23.5t52 3.5q8 0 40 -1t53 -11l182 -389l321 389q23 8 55.5 10t41.5 2q14 0 50 -3t68 -24l-477 -559l-76 -428q-35 -8 -58.5 -9t-33.5 -1q-14 0 -36.5 1t-55.5 9l76 428z" />
<glyph unicode="Z" horiz-adv-x="1028" d="M113 0v53.5t4 32.5q2 10 6 25.5t14 44.5l692 696h-567q-2 33 0 52.5t4 33.5q4 14 8.5 32.5t18.5 53.5h813q1 -18 1 -31t-1 -23q-2 -18 -6 -30q0 -2 -7.5 -30.5t-27.5 -57.5l-70 -72q-31 -31 -79 -80t-121.5 -124.5t-175 -179t-236.5 -240.5h537q2 -33 2 -43.5t-4 -24.5 q-4 -16 -8.5 -34.5t-16.5 -53.5h-780z" />
<glyph unicode="[" horiz-adv-x="518" d="M94 -102l217 1235q35 4 58.5 7t36.5 3h196q-2 -20 -4 -43t-6 -41q-4 -12 -7 -24.5t-14 -47.5h-102l-166 -944h103q-2 -35 -3.5 -47t-3.5 -25l-9 -40.5t-9 -43.5h-197q-12 0 -34.5 3.5t-55.5 7.5z" />
<glyph unicode="\" horiz-adv-x="647" d="M258 1120q27 14 53.5 18.5t48.5 4.5q16 0 36 -1t48 -7l144 -1123q-41 -10 -63.5 -11t-39.5 -1q-23 0 -45 3t-39 13z" />
<glyph unicode="]" horiz-adv-x="520" d="M98 -113q2 20 4 43t7 41q2 12 5 24.5t13 47.5h102l166 944h-102q2 35 3 47.5t5 24.5l9 40.5t9 43.5h197q12 0 34.5 -3t55.5 -7l-217 -1235q-35 -4 -58.5 -7.5t-35.5 -3.5h-197z" />
<glyph unicode="^" horiz-adv-x="808" d="M201 502l233 499q51 16 84 19.5t68 3.5t65.5 -3t75.5 -20l57 -499q-29 -14 -54 -20.5t-48 -6.5q-16 0 -32.5 2t-45.5 12l-29 420l5 21h-23l-4 -21l-176 -420q-35 -10 -52.5 -12t-33.5 -2q-23 0 -45.5 6t-44.5 21z" />
<glyph unicode="_" horiz-adv-x="755" d="M-29 -171.5q2 21.5 6 36.5q4 16 7.5 31.5t15.5 50.5h735q2 -35 1 -50.5t-5 -31.5q-4 -14 -9 -36t-9 -38h-742q-2 16 0 37.5z" />
<glyph unicode="`" horiz-adv-x="466" d="M303 1085q41 10 68 11.5t37 1.5t32.5 -1t55.5 -10l-4 -303q-12 -12 -30 -14t-22 -2q-25 0 -49 1t-35 7z" />
<glyph unicode="a" horiz-adv-x="856" d="M121 262q12 74 49 120t84 72.5t98 36t94 9.5q59 0 94 -5.5t83 -25.5h18q4 29 6 41q2 8 2 12q2 14 2 26q0 22 -6 38q-10 26 -32.5 41.5t-54.5 22.5t-69 7q-47 0 -95 -9t-105 -25q-17 39 -21 75q-1 11 -1 25q0 28 7 63q66 20 135.5 31.5t127.5 11.5q80 0 142 -15t102 -50 q41 -36 55 -96q7 -29 6 -63q0 -39 -8 -85l-91 -510q-35 -8 -57 -9t-35 -1q-12 0 -35.5 1t-56.5 9l16 88q-16 -31 -40.5 -51t-53 -32.5t-57.5 -18.5t-53 -6q-157 0 -217 60q-41 42 -41 127q0 38 8 85zM303 246q-4 -24 -4 -41q1 -33 15 -43q22 -16 81 -17q61 0 113.5 30 t91.5 67l16 92h-81q-43 0 -83 -1t-71 -9.5t-51.5 -26.5t-26.5 -51z" />
<glyph unicode="b" horiz-adv-x="878" d="M113 10l190 1077q35 8 58.5 9.5t35.5 1.5q14 0 37 -1t53 -10l-59 -344h18q25 31 54.5 47.5t59.5 25.5t52.5 11t30.5 2q109 0 163 -26.5t72 -71.5q14 -34 15 -77q0 -14 -2 -30q-6 -62 -19 -130l-28 -166q-12 -72 -28.5 -133.5t-52.5 -106.5t-98.5 -71.5t-168.5 -26.5 q-6 0 -32 1t-56.5 10t-58 26.5t-40.5 52.5l-12 -70q-33 -8 -55.5 -9t-34.5 -1q-14 0 -38 1t-56 9zM343 256q-1 -7 -1 -13q0 -23 8 -41q10 -24 39 -40.5t86 -16.5t90 16.5t51.5 41t26.5 54.5t12 56l33 179q4 26 7 56q1 8 1 16q0 20 -6 38q-8 24 -32.5 39.5t-73.5 15.5 q-51 0 -86 -12t-58.5 -30.5t-36 -43t-16.5 -49.5l-37 -209q-4 -27 -7 -57z" />
<glyph unicode="c" horiz-adv-x="776" d="M138 154q-8 30 -7 67q0 38 8 82l37 213q14 88 51 148.5t89.5 97.5t121 52t148.5 15q27 0 63.5 -2t74.5 -7t75 -12t65 -17q-10 -51 -26.5 -88t-46.5 -76q-53 16 -122 23t-116 7q-74 0 -126 -28.5t-65 -102.5l-45 -250q-3 -16 -3 -31q0 -49 33 -71q42 -28 116 -29 q47 0 121.5 7.5t134.5 23.5q14 -40 16 -68v-12q0 -26 -6 -67q-33 -10 -72 -17.5t-78.5 -12.5t-76.5 -7t-64 -2q-80 0 -142.5 15t-102 52t-55.5 97z" />
<glyph unicode="d" horiz-adv-x="878" d="M131 194q6 62 19 134l28 166q12 70 27.5 131t50.5 106t98.5 71.5t171.5 26.5q8 0 30 -2t48.5 -11t51 -25.5t38.5 -47.5h19l59 344q35 8 57.5 9.5t36.5 1.5q12 0 36 -1t54 -10l-190 -1077q-33 -8 -56.5 -9t-37.5 -1q-12 0 -35 1t-55 9l12 70q-23 -35 -56.5 -52.5 t-67.5 -26.5t-59.5 -10t-31.5 -1q-106 0 -159.5 26.5t-73.5 71.5q-16 35 -16 79q0 13 1 27zM322 256q-1 -7 0 -14q0 -22 8 -40q10 -24 37.5 -40.5t85.5 -16.5q57 0 91 16.5t52 41t26.5 54.5t12.5 56l37 209q2 14 2 28q0 12 -1 22q-3 24 -19.5 42.5t-47.5 30.5t-82 12 q-49 0 -78.5 -15t-47 -39.5t-24.5 -54.5t-12 -56l-32 -179q-4 -27 -8 -57z" />
<glyph unicode="e" horiz-adv-x="837" d="M144 154q-8 30 -7 67q0 38 8 82l27 158q18 100 44 169.5t71 113.5t114.5 64.5t173.5 20.5q106 0 169 -20.5t90.5 -62t27.5 -104t-14 -144.5l-29 -168h-487l-6 -37q-3 -18 -3 -34q1 -49 33 -77q44 -37 117 -37q23 0 56.5 2.5t70.5 5.5t73 9t66 14q11 -38 15 -66 q1 -7 1 -16q0 -25 -7 -65q-33 -10 -74 -17.5t-82 -12.5t-78.5 -7t-64.5 -2q-80 0 -142.5 15t-104.5 52t-58 97zM360 483h302l10 52q3 23 3 42v9q-1 22 -13.5 38.5t-40 24.5t-76.5 8q-43 0 -73 -6t-51.5 -24.5t-35.5 -52t-25 -91.5z" />
<glyph unicode="f" horiz-adv-x="628" d="M205 703q0 12 2 28q4 12 9 34.5t15 53.5h127q16 88 38 146.5t53.5 94.5t75.5 51t108 15q18 0 70.5 -3t117.5 -25q-10 -53 -22.5 -78t-40.5 -62q-66 8 -90.5 10.5t-42.5 2.5q-41 0 -55.5 -42t-26.5 -110h215q0 -31 -3 -53.5t-7 -34.5q-2 -16 -6.5 -27.5t-20.5 -39.5h-205 l-117 -654q-35 -6 -57.5 -7t-34.5 -1t-35.5 1t-56.5 7l117 654h-121q-6 27 -6 39z" />
<glyph unicode="g" horiz-adv-x="878" d="M55 -338q6 27 11.5 46.5t13.5 35.5t17 31.5t24 34.5q27 -10 59.5 -15.5t66.5 -9.5t65.5 -5t54.5 -1q76 0 130 28.5t68 104.5l29 168q-23 -35 -56.5 -52.5t-67.5 -26.5t-59.5 -10t-31.5 -1q-106 0 -159.5 26.5t-73.5 71.5q-16 35 -16 79q0 14 1 27q6 62 19 134l28 166 q12 70 27.5 131t50.5 106t98.5 71.5t171.5 26.5q8 0 30 -2t48.5 -11t51 -25.5t38.5 -47.5h19l10 66q35 8 57.5 9t36.5 1q12 0 36 -1t54 -9l-153 -868q-16 -90 -52 -150.5t-89.5 -97.5t-123 -53.5t-151.5 -16.5q-27 0 -62.5 2t-74.5 7.5t-77 12.5t-69 17zM322 256v-14 q0 -21 8 -40q10 -24 37.5 -40.5t85.5 -16.5q57 0 91 16.5t52 41t26.5 54.5t12.5 56l37 209q2 14 2 28q0 11 -1 22q-3 24 -19.5 42.5t-47.5 30.5t-82 12q-49 0 -78.5 -15t-47 -39.5t-24.5 -54.5t-12 -56l-32 -179q-4 -27 -8 -57z" />
<glyph unicode="h" horiz-adv-x="886" d="M113 8l190 1079q35 8 54.5 9.5t31.5 1.5q10 0 38 -1t60 -10l-57 -331h21q47 47 92 60t98 13q78 0 129 -24.5t77.5 -67.5t31.5 -101q2 -17 2 -35q0 -43 -9 -91l-88 -502q-33 -6 -56 -7t-38 -1q-10 0 -32.5 1t-57.5 7l84 469q6 33 9 64.5t-6 57.5t-35.5 42t-80.5 16 q-92 0 -132 -30.5t-52 -98.5l-92 -520q-33 -6 -56.5 -7t-37.5 -1q-10 0 -32 1t-56 7z" />
<glyph unicode="i" horiz-adv-x="409" d="M113 8q33 -6 56.5 -7t35.5 -1t34.5 1t57.5 7l141 803q-33 6 -55.5 7t-34.5 1t-35.5 -1t-58.5 -7zM279 946l36 205q33 6 56.5 7t36.5 1q12 0 34.5 -1t57.5 -7l-37 -205q-35 -6 -58.5 -7t-35.5 -1t-36 1t-54 7z" />
<glyph unicode="j" horiz-adv-x="393" d="M-254 -344q61 -23 108.5 -28t102.5 -5q61 0 111.5 13.5t89.5 47t65.5 92t42.5 148.5l156 887q-33 6 -55.5 7t-34.5 1t-36 -1t-58 -7l-160 -905q-12 -76 -35 -101.5t-74 -25.5q-49 0 -79.5 3t-82.5 19q-14 -18 -23 -33.5t-16.5 -32t-12.5 -34.5t-9 -45zM262 946l37 205 q33 6 56.5 7t35.5 1t35 -1t57 -7l-37 -205q-35 -6 -58 -7t-36 -1q-12 0 -35.5 1t-54.5 7z" />
<glyph unicode="k" horiz-adv-x="919" d="M113 10l190 1077q35 8 55.5 9.5t32.5 1.5q10 0 37 -1t59 -10l-90 -518h23q6 12 15 23.5t30 23.5l356 203q23 -18 37 -35.5t19 -27.5q6 -10 13 -30.5t13 -57.5l-196 -111l178 -526q-29 -23 -52.5 -27t-48.5 -4q-16 0 -39.5 1t-46.5 11l-149 453l-189 -105l-63 -350 q-35 -8 -61.5 -9t-36.5 -1q-12 0 -32 1t-54 9z" />
<glyph unicode="l" horiz-adv-x="409" d="M113 10l190 1077q35 8 54.5 9.5t31.5 1.5q10 0 38 -1t60 -10l-190 -1077q-35 -8 -62.5 -9t-37.5 -1q-12 0 -31 1t-53 9z" />
<glyph unicode="m" horiz-adv-x="1204" d="M113 8l141 801q35 8 55.5 9t32.5 1q10 0 23.5 -1t46.5 -9l2 -53h20q18 25 44 39t52.5 21t50 10t37.5 3q57 0 94.5 -21.5t65.5 -45.5q23 25 54.5 39t62.5 20t55.5 7t34.5 1q78 0 125 -24.5t69.5 -67.5t23.5 -101v-9q0 -54 -11 -117l-88 -502q-33 -6 -56.5 -7t-37.5 -1 q-10 0 -33 1t-57 7l84 469q6 33 8 64.5t-3 57.5t-19.5 42t-45.5 16q-27 0 -58.5 -5t-74.5 -36q2 -31 -1 -51t-9 -55l-88 -502q-33 -6 -56.5 -7t-38.5 -1q-10 0 -32.5 1t-57.5 7l84 469q6 33 7.5 64.5t-5 57.5t-23 42t-46.5 16q-82 0 -113 -31.5t-43 -97.5l-92 -520 q-33 -6 -56.5 -7t-37.5 -1q-10 0 -33 1t-57 7z" />
<glyph unicode="n" horiz-adv-x="888" d="M113 8l141 801q35 8 55.5 9t32.5 1q10 0 23.5 -1t46.5 -9l2 -53h20q47 47 101.5 60t107.5 13q78 0 129 -24.5t78 -67.5t32 -101q1 -16 1 -33q0 -44 -9 -93l-88 -502q-33 -6 -56 -7t-38 -1q-10 0 -32.5 1t-57.5 7l84 469q6 33 9 64.5t-6 57.5t-35.5 42t-80.5 16 q-92 0 -132 -30.5t-52 -98.5l-92 -520q-33 -6 -56.5 -7t-37.5 -1q-10 0 -33 1t-57 7z" />
<glyph unicode="o" horiz-adv-x="856" d="M132 194q5 62 18 134l28 164q12 70 29.5 132t57.5 107t112.5 71.5t195.5 26.5t185 -27q64 -26 88 -71q21 -39 21 -90q0 -7 -1 -17q-4 -62 -16 -132l-29 -164q-12 -72 -30.5 -133.5t-58.5 -106.5t-111.5 -71.5t-194.5 -26.5t-186.5 26.5t-87.5 71.5q-20 37 -21 86 q0 10 1 20zM322 254q-1 -7 -1 -14q1 -22 9 -40q10 -24 37.5 -39.5t85.5 -15.5q57 0 89.5 15.5t51 40t27 54.5t12.5 58l33 176q4 27 7 57q1 7 1 12q0 22 -8 42q-10 25 -38 41t-85 16t-91 -16t-52.5 -41t-25.5 -54.5t-12 -56.5l-32 -176q-4 -29 -8 -59z" />
<glyph unicode="p" horiz-adv-x="878" d="M47 -367l207 1176q35 8 58.5 9t37.5 1q12 0 35 -1t53 -9l-10 -66h18q25 31 54.5 47.5t59.5 25.5t52.5 11t30.5 2q109 0 163 -26.5t72 -71.5q14 -34 14 -77q0 -14 -1 -30q-6 -61 -19 -130l-28 -166q-12 -72 -28.5 -133.5t-52.5 -106.5t-98.5 -71.5t-168.5 -26.5 q-6 0 -32 1t-56.5 7t-60.5 19.5t-42 37.5l-74 -422q-35 -8 -57 -9t-37 -1q-12 0 -35.5 1t-54.5 9zM345 232q3 -25 19.5 -43.5t47 -31t82.5 -12.5q49 0 78.5 15.5t47 40t24.5 54.5t11 56l33 178q4 27 7 57q1 6 1 13q0 22 -8 41q-10 25 -37.5 41t-85.5 16q-57 0 -91 -16 t-52.5 -41t-26.5 -54.5t-12 -56.5l-37 -208q-2 -14 -2 -28q0 -11 1 -21z" />
<glyph unicode="q" horiz-adv-x="878" d="M131 194q6 62 19 134l28 166q12 70 27.5 131t50.5 106t98.5 71.5t171.5 26.5q8 0 30 -2t48.5 -11t51 -25.5t38.5 -47.5h19l10 66q35 8 57.5 9t34.5 1q14 0 38 -1t54 -9l-207 -1176q-35 -8 -58.5 -9t-35.5 -1q-14 0 -36.5 1t-53.5 9l74 422q-20 -25 -54 -38t-67 -19 t-58.5 -7t-31.5 -1q-106 0 -159.5 26.5t-73.5 71.5q-16 35 -16 79q0 14 1 27zM322 254q-1 -8 -1 -16q0 -20 7 -38q8 -24 32.5 -39.5t73.5 -15.5q51 0 86 12.5t58.5 31t36 43t16.5 49.5l37 208q4 27 7 57q1 6 1 12q0 23 -8 42q-11 25 -39.5 41t-85.5 16t-91 -16t-52.5 -41 t-25.5 -54.5t-12 -56.5l-32 -178q-4 -27 -8 -57z" />
<glyph unicode="r" horiz-adv-x="569" d="M113 8l141 801q35 8 55.5 9t32.5 1q10 0 23.5 -1t46.5 -9l2 -53h20q47 41 98.5 52t104.5 11h53q9 -23 9 -42q0 -20 -5 -42q-4 -12 -8 -34.5t-18 -53.5h-101q-92 0 -130 -29.5t-50 -95.5l-90 -514q-35 -6 -57.5 -7t-34.5 -1t-36 1t-56 7z" />
<glyph unicode="s" horiz-adv-x="784" d="M100 41q8 29 13.5 49.5t13.5 35.5t18.5 28.5t26.5 31.5q20 -8 54 -15t72 -13t73 -9.5t55 -3.5q82 0 109.5 30t35.5 73q4 29 -25.5 45t-76.5 31.5t-102.5 33t-99.5 44.5q-43 28 -69 73q-17 31 -18 73q0 20 4 42q25 135 121 187t246 52q29 0 64.5 -2t72.5 -7t72 -13t63 -21 q-12 -47 -27.5 -80.5t-45.5 -80.5q-39 16 -103.5 24t-122.5 8q-86 0 -117.5 -16t-37.5 -51q-6 -31 24.5 -48.5t77.5 -31.5t102.5 -30.5t99.5 -43.5q43 -28 69 -74q17 -31 18 -72q0 -20 -4 -42q-25 -141 -106 -199.5t-251 -58.5q-33 0 -72.5 4t-81.5 10t-80 15.5t-65 21.5z " />
<glyph unicode="t" horiz-adv-x="573" d="M152 703q0 12 2 28q4 12 9 34.5t15 53.5h129l41 234q35 8 57.5 9t34.5 1t36 -1t56 -9l-40 -234h147q0 -31 -3 -53.5t-7 -34.5q-2 -16 -6.5 -27.5t-20.5 -39.5h-137l-72 -400q-5 -27 -5 -48q0 -16 3 -30q6 -30 58 -30h75q2 -31 1 -43.5t-3 -28.5q-4 -10 -8 -32.5 t-16 -51.5h-74q-74 0 -122 12.5t-73.5 42t-29.5 80.5q-1 11 -1 24q0 44 11 105l72 400h-121q-8 27 -8 39z" />
<glyph unicode="u" horiz-adv-x="878" d="M138 184q-1 17 -1 35q0 43 8 90l88 502q35 6 58.5 7t38.5 1q10 0 32.5 -1t55.5 -7l-84 -485q-6 -33 -10.5 -65t5 -57.5t36 -42t79.5 -16.5q92 0 132 31t53 98l94 537q35 6 58.5 7t37.5 1q10 0 32.5 -1t55.5 -7l-141 -801q-35 -8 -54.5 -9t-31.5 -1q-10 0 -23.5 1t-48.5 9 v53h-20q-47 -47 -101.5 -60t-107.5 -13q-78 0 -129 24.5t-79 68t-33 101.5z" />
<glyph unicode="v" horiz-adv-x="837" d="M170 797q27 14 53.5 18t48.5 4q14 0 34 -1t48 -9l80 -643l-4 -21h27l4 21l305 643q33 8 52.5 9t33.5 1q23 0 48.5 -4t45.5 -18l-371 -774q-47 -16 -84.5 -19.5t-72.5 -3.5t-71 3.5t-81 19.5z" />
<glyph unicode="w" horiz-adv-x="1085" d="M164 25l55 782q63 12 98 12q39 0 91 -10l-54 -643l-4 -21h21l4 21l129 444q14 6 35.5 9.5t44 6.5t42 4t25.5 1q8 0 27.5 -1t41 -4t42 -6.5t33.5 -9.5l-27 -444l-4 -21h20l4 21l173 643q57 10 94 10q35 0 94 -12l-219 -782q-55 -18 -93 -21.5t-73 -3.5q-33 0 -78 3t-84 20 l35 460h-21l-129 -460q-41 -16 -87 -19.5t-78 -3.5q-35 0 -72 3t-86 22z" />
<glyph unicode="x" horiz-adv-x="937" d="M66 23l368 378l-244 398q45 16 76 18t45 2q8 0 39 -1t53 -11l160 -272l254 272q25 10 56.5 11t39.5 1q14 0 44 -2t69 -18l-383 -398l234 -378q-59 -16 -85 -19.5t-38 -3.5q-10 0 -38 1t-54 7l-148 258l-238 -258q-27 -6 -54 -7t-38 -1q-12 0 -37.5 3t-80.5 20z" />
<glyph unicode="y" horiz-adv-x="837" d="M170 797q27 14 53.5 18t48.5 4q14 0 34 -1t48 -9l80 -643l-4 -21h27l4 21l305 643q33 8 52.5 9t33.5 1q23 0 48.5 -4t45.5 -18l-559 -1170q-14 -4 -41 -4h-43q-20 0 -50 3t-40 9l152 314q8 16 17 21t21 10l5 20h-9q-35 0 -61.5 3t-71.5 20z" />
<glyph unicode="z" horiz-adv-x="808" d="M92 0v53.5t4 30.5q2 12 6 26.5t15 43.5l471 493h-383q2 35 2 54.5t4 33.5q2 12 8 30.5t17 53.5h624q1 -18 1 -31t-1 -22q-2 -18 -4 -29q2 4 -4 -18.5t-21 -52.5q2 0 -47 -54q-20 -23 -54 -59.5t-85 -90.5t-120.5 -130t-164.5 -176h385q-2 -35 -2 -45.5t-2 -24.5 q-4 -14 -8 -35.5t-16 -50.5h-625z" />
<glyph unicode="{" horiz-adv-x="667" d="M195 432q-2 23 0 39t6 37q4 14 7 30.5t17 49.5q31 0 52.5 3t37 15t25.5 38t18 69l50 278q4 20 11 47t23.5 50.5t43 39t69.5 15.5h193q-2 -35 -2.5 -47.5t-2.5 -26.5q-4 -14 -9 -30.5t-15 -51.5h-82q-23 0 -42.5 -4t-23.5 -31l-39 -231q-14 -78 -35.5 -125t-68.5 -82 q35 -35 39 -85t-8 -126l-41 -231q-4 -27 13.5 -31t39.5 -4h82q-2 -35 -3 -51.5t-3 -30.5q-4 -14 -8 -26.5t-15 -47.5h-192q-43 0 -64.5 15.5t-30 39t-6.5 49t7 48.5l49 278q8 43 6 67.5t-12.5 37t-32 14.5t-53.5 2z" />
<glyph unicode="|" horiz-adv-x="409" d="M92 -109l219 1242q35 8 58.5 9t33.5 1q14 0 38 -1t55 -9l-220 -1242q-35 -8 -58 -9t-36 -1q-12 0 -34.5 1t-55.5 9z" />
<glyph unicode="}" horiz-adv-x="667" d="M98 -119q2 35 2 47.5t4 26.5q2 14 7.5 30.5t15.5 51.5h82q23 0 42 4t23 31l41 231q12 76 35 126t70 85q-35 35 -40 82t9 125l39 231q4 27 -13.5 31t-39.5 4h-82q2 35 3 51.5t5 30.5q2 14 6 26.5t15 47.5h192q43 0 64.5 -15.5t29.5 -39t6 -50t-6 -47.5l-49 -278 q-8 -43 -7 -69t12 -38t31.5 -15t51.5 -3q2 -33 1 -49.5t-5 -30.5q-4 -20 -7 -36.5t-11 -39.5q-33 0 -55.5 -2t-38 -14.5t-25.5 -37t-19 -67.5l-49 -278q-4 -23 -11 -48.5t-23.5 -49t-43 -39t-69.5 -15.5h-193z" />
<glyph unicode="~" horiz-adv-x="997" d="M203 522q53 41 111.5 62.5t117.5 21.5q47 0 87 -15.5t79 -32.5t78 -32.5t86 -15.5q33 0 59.5 14.5t69.5 42.5q12 -10 25.5 -21t23.5 -28q14 -25 18.5 -42t2.5 -40q-59 -47 -112.5 -64.5t-113.5 -17.5q-47 0 -87 15.5t-78 33t-77.5 33t-89.5 15.5q-31 0 -62.5 -12.5 t-72.5 -41.5q-23 27 -31 35.5t-16 20.5q-18 31 -18 69z" />
<glyph unicode="&#xad;" horiz-adv-x="800" d="M176 332q0 16 2 37.5t4 36.5q4 16 8.5 31.5t16.5 49.5h555q4 -35 2 -50t-6 -31q-2 -14 -7.5 -36t-11.5 -38h-563z" />
<glyph unicode="&#xbc;" horiz-adv-x="1337" d="M249 835.5q-3 24.5 1 47.5l229 131l13 6q12 2 26 3t23 1q8 0 29.5 -1t43.5 -7l-110 -631q-25 -4 -47.5 -5t-28.5 -1q-8 0 -29.5 1t-44.5 5l78 442l-125 -69q-16 10 -28.5 21.5t-20.5 21.5q-6 10 -9 34.5zM373 12l637 1006q29 4 46 5t34 1q23 0 35 -2t32 -14l-631 -996 q-18 -10 -41.5 -11t-46.5 -1q-18 0 -33.5 2t-31.5 10zM776 178q0 10 2 34t6 34q0 14 13 51l323 342q16 4 45 5t41 1q16 0 30.5 -2t43.5 -12l-59 -334h63q4 -23 3 -33t-3 -16q-2 -12 -6 -25q-4 -10 -6 -22.5t-6 -22.5h-66l-31 -172q-35 -4 -53 -5t-22 -1q-10 0 -26.5 1 t-47.5 7l31 170h-275zM944 297h127l29 164z" />
<glyph unicode="&#xbd;" horiz-adv-x="1398" d="M249 835.5q-3 24.5 1 47.5l229 131l13 6q12 2 26 3t23 1q8 0 29.5 -1t43.5 -7l-110 -631q-25 -4 -47.5 -5t-28.5 -1q-8 0 -29.5 1t-44.5 5l78 442l-125 -69q-16 10 -28.5 21.5t-20.5 21.5q-6 10 -9 34.5zM373 12l637 1006q29 4 46 5t34 1q23 0 35 -2t32 -14l-631 -996 q-18 -10 -41.5 -11t-46.5 -1q-18 0 -33.5 2t-31.5 10zM852 0q2 16 4 33.5t4 27.5q2 12 4 22.5t8 22.5q16 37 71.5 80t117 88t113 90.5t57.5 86.5q2 14 3 25t-5 20.5t-20.5 14.5t-45.5 5q-61 0 -76.5 -26.5t-21.5 -65.5q-23 -4 -47.5 -5t-28.5 -1q-10 0 -29.5 2t-44.5 8 q6 37 19.5 75t43.5 69.5t79 52t129 20.5q78 0 121 -18.5t61 -46t18 -62.5t-6 -65q-8 -51 -42.5 -97.5t-82 -86.5t-99.5 -74.5t-93 -65.5h256q-2 -23 -4 -41t-4 -25q-2 -10 -6.5 -28.5t-10.5 -34.5h-442z" />
<glyph unicode="&#xbe;" horiz-adv-x="1388" d="M196 522q1 39 7 76q25 6 45 9t31 3q4 0 25.5 -2t45.5 -6q-6 -41 0 -61.5t66 -20.5q61 0 74.5 13.5t17.5 41.5q2 14 2 26.5t-10.5 21t-35 13.5t-73.5 5q0 23 1 37t5 31q2 10 6.5 30.5t8.5 32.5q49 0 75.5 5t41 13.5t18.5 20.5t8 27q2 14 2 24t-6 17.5t-22.5 10.5t-47.5 3 t-48 -5t-26.5 -15.5t-13.5 -26t-8 -35.5q-23 -4 -45.5 -6t-28.5 -2q-10 0 -29.5 3t-41.5 9q6 37 18 75t41 70.5t78 53t129 20.5t123 -18.5t61.5 -47t18.5 -63.5t-7 -65q-6 -33 -24.5 -69t-63.5 -64q35 -29 42.5 -64t0.5 -68q-6 -33 -18 -67.5t-41 -63t-78 -47t-129 -18.5 t-121 20.5t-58 52t-16 70.5zM424 12l637 1006q29 4 46 5t34 1q23 0 35 -2t32 -14l-630 -996q-18 -10 -42 -11t-47 -1q-18 0 -33.5 2t-31.5 10zM827 178q0 10 2 34t7 34q0 14 12 51l323 342q16 4 45 5t41 1q16 0 31 -2t43 -12l-59 -334h63q4 -23 3 -33t-3 -16q-2 -12 -6 -25 q-4 -10 -6 -22.5t-6 -22.5h-66l-30 -172q-35 -4 -53.5 -5t-22.5 -1q-10 0 -26.5 1t-47.5 7l31 170h-275zM995 297h127l29 164z" />
<glyph unicode="&#xbf;" horiz-adv-x="788" d="M117 39q-12 -70 0 -116t46 -74.5t89 -41t131 -12.5q59 0 130 13.5t136 46.5q4 47 -4 84.5t-31 78.5q-84 -51 -196 -51q-41 0 -65.5 4t-37 13.5t-15.5 22.5t1 32q6 39 28.5 63.5t54.5 45t66.5 39t67.5 46t58.5 66.5t35.5 100l23 133q-33 4 -56.5 5.5t-35.5 1.5t-35 -1 t-57 -6l-23 -133q-6 -41 -51 -72.5t-98.5 -69.5t-100.5 -88t-61 -130zM465 616l35 205q35 6 58.5 7t35.5 1t35.5 -1t54.5 -7l-35 -205q-35 -6 -58.5 -7t-35.5 -1t-34.5 1t-55.5 7z" />
<glyph unicode="&#xff;" horiz-adv-x="1941" />
<glyph unicode="&#xe01;" horiz-adv-x="868" d="M109 8l81 459q10 66 33 106.5t45 63.5l4 20h-61l22 123q74 20 150 34.5t158 14.5q188 0 266 -92t43 -284l-78 -445q-35 -6 -57.5 -7t-34.5 -1t-35.5 1t-56.5 7l78 438q8 43 4 81t-22.5 68t-51.5 46t-84 16h-45q-25 -33 -42 -62.5t-27.5 -53t-15.5 -39t-5 -17.5l-84 -477 q-33 -6 -56.5 -7t-37.5 -1q-10 0 -33 1t-57 7z" />
<glyph unicode="&#xe02;" horiz-adv-x="765" d="M130 157q1 38 5 60l33 189q12 70 31.5 114.5t38 70t34 35t21.5 11.5l4 20h-100q-2 33 -1 47.5t5 36.5q2 4 8 27t22 51h250l-30 -172q-4 -6 -15.5 -19.5t-25 -38t-28.5 -64.5t-26 -97l-37 -213q-2 -10 0.5 -22.5t11.5 -22.5t27.5 -17.5t51.5 -7.5q66 0 87 25t25 43 l105 596q35 8 58.5 9t35.5 1t35.5 -1t54.5 -9l-104 -592q-4 -23 -15.5 -60.5t-44.5 -74.5t-92 -64.5t-158 -27.5h-26q-100 0 -150.5 27.5t-71 64.5t-19.5 75z" />
<glyph unicode="&#xe03;" horiz-adv-x="768" d="M132 157q1 38 5 60l35 199q12 72 30.5 114.5t36 66.5t32 32t20.5 8l4 20h-125q4 33 6 50.5t4 29.5q4 14 8.5 34t20.5 48h84q10 0 14 -12t10 -27h31q8 14 16.5 26.5t24.5 12.5h92l-32 -184q-18 -20 -35 -51q-16 -27 -31.5 -68t-26.5 -100l-34 -201q-2 -10 0 -22.5 t11 -22.5t27.5 -17.5t51.5 -7.5q66 0 87 25t25 43l105 596q35 8 58.5 9t35.5 1t35.5 -1t54.5 -9l-104 -592q-4 -23 -15.5 -60.5t-44.5 -74.5t-92 -64.5t-158 -27.5h-26q-100 0 -150.5 27.5t-71 64.5t-19.5 75z" />
<glyph unicode="&#xe04;" horiz-adv-x="835" d="M72 10l80 449q12 70 29.5 136.5t59.5 118.5t114.5 83.5t195.5 31.5t184.5 -31.5t85 -83.5t17 -119t-18.5 -136l-80 -451q-33 -6 -56.5 -7t-37.5 -1q-10 0 -32.5 1t-57.5 9l84 477q6 27 8 57.5t-7 55.5t-37 41t-83 16t-88 -16t-51.5 -41t-26.5 -55.5t-14 -57.5l-8 -47h20 q25 10 43.5 13.5t48.5 3.5h117q4 -23 2 -39.5t-6 -44.5q-4 -16 -9 -33.5t-22 -44.5h-88h-33.5t-43 -1t-38 -3t-18.5 -6l-49 -277q-33 -6 -56.5 -7t-37.5 -1q-10 0 -33 1t-57 9z" />
<glyph unicode="&#xe05;" horiz-adv-x="841" d="M72 8l80 449q10 63 30.5 128.5t55 119t89 88t132.5 36.5l80 -45h16l94 45q76 -2 118 -36.5t58.5 -88t13.5 -119t-14 -128.5l-80 -449q-33 -6 -55 -7t-37 -1q-10 0 -33.5 1t-58.5 7l82 463q4 27 8 54.5t3 52t-8 46t-23 33.5l-95 -28h-16l-88 28q-43 -27 -59.5 -80 t-26.5 -106l-6 -31h20q25 10 43.5 13.5t48.5 3.5h101q4 -23 2 -39.5t-6 -44.5q-4 -16 -9.5 -33.5t-21.5 -44.5h-72h-33.5t-43 -1t-38 -3t-18.5 -6l-49 -277q-33 -6 -55.5 -7t-36.5 -1q-10 0 -34 1t-58 7z" />
<glyph unicode="&#xe06;" horiz-adv-x="854" d="M94 10l74 412q12 70 29.5 111.5t35 64.5t32 31t20.5 8l4 20h-125q4 33 6 50.5t4 29.5q4 14 8 34t21 48h84q10 0 14 -12t10 -27h31q8 14 16.5 26.5t24.5 12.5h92l-33 -184q-18 -20 -34 -51q-14 -27 -30 -67t-26 -95l-16 -96q-14 -72 24.5 -126.5t133.5 -54.5q33 0 56 16.5 t38.5 42t26 57.5t16.5 65l84 485q35 6 58.5 7t35.5 1t34.5 -1t55.5 -7l-88 -502q-12 -68 -37.5 -126t-67.5 -101t-100.5 -67.5t-138.5 -24.5q-10 0 -33.5 1t-50.5 9t-48.5 22.5t-29.5 43.5l2 8h-20l-21 -64q-35 -8 -54 -9t-30 -1q-14 0 -33.5 1t-54.5 9z" />
<glyph unicode="&#xe07;" horiz-adv-x="698" d="M102 354q49 25 88 36t93 20l39 -265l-3 -8h21q74 37 115 101.5t59 175.5q8 49 13 91t-2 73.5t-31.5 50t-73.5 18.5h-70q0 35 2 54.5t6 33.5q2 10 6.5 28.5t16.5 55.5h70q100 0 156.5 -32.5t82 -88t24.5 -129t-16 -155.5q-14 -78 -42.5 -154t-78 -135t-122 -97t-170.5 -38 q-25 0 -64 2t-65 16z" />
<glyph unicode="&#xe08;" horiz-adv-x="759" d="M152 283q0 35 1 54t3 34q4 20 8 35.5t12 37.5h256l-33 -299h21q63 10 91 78t48 178l23 125q12 74 -31 102.5t-117 28.5q-23 0 -53.5 -3t-63 -7t-65.5 -11t-59 -15q-16 37 -20.5 73.5t5.5 87.5q31 8 69 17.5t76.5 15.5t74.5 10t65 4q80 0 142.5 -15t103.5 -52t55 -97.5 t0 -148.5l-21 -115q-14 -78 -38.5 -151.5t-68.5 -132t-110.5 -93t-165.5 -34.5q-12 0 -34.5 1t-47 4t-46 11t-33.5 25l28 252h-75z" />
<glyph unicode="&#xe09;" horiz-adv-x="831" d="M118 183.5q-5 58.5 7 125.5l31 172q35 6 58.5 7t35.5 1t35.5 -1t54.5 -7l-27 -155q-6 -33 -8 -65t5 -57.5t24.5 -42t50.5 -16.5q94 0 151.5 54.5t71.5 126.5l35 200q12 74 -30 102.5t-115 28.5q-47 0 -118 -10t-126 -29q-16 39 -19.5 76t7.5 88q31 8 68.5 17.5t75.5 15.5 t75 10t65 4q80 0 142.5 -15t102.5 -52t54.5 -97.5t-0.5 -148.5l-90 -506q-35 -8 -54 -9t-34 -1q-10 0 -29.5 1t-54.5 9l4 64h-20l-2 -8q-16 -29 -44 -43.5t-55.5 -22.5t-52 -9t-35.5 -1q-80 0 -130 24.5t-77.5 67.5t-32.5 101.5z" />
<glyph unicode="&#xe0a;" horiz-adv-x="800" d="M133 157q-2 38 2 60l33 189q12 70 31.5 114.5t38 70t34 35t21.5 11.5l4 20h-100q-2 33 -1 47.5t5 36.5q2 4 8 27t22 51h250l-30 -172q-4 -6 -15.5 -19.5t-25 -38t-28.5 -64.5t-26 -97l-37 -213q-4 -20 18.5 -45t88.5 -25t96.5 25t34.5 43l47 268q6 37 7 70t-27 33h-84 q2 35 3 52t5 30q2 12 5 27.5t15 51.5h86q14 0 23.5 10.5t14.5 24t8.5 27.5t5.5 24l8 48q29 8 57.5 9t40.5 1q16 0 34.5 -2t51.5 -8l-8 -50q-2 -10 -8 -30.5t-19.5 -43t-37 -45t-58.5 -36.5l-4 -21q43 -23 61.5 -59.5t3.5 -108.5l-47 -268q-4 -23 -19 -60.5t-51 -74.5 t-97.5 -64.5t-159.5 -27.5h-27q-98 0 -150.5 27.5t-77 64.5t-26.5 75z" />
<glyph unicode="&#xe0b;" horiz-adv-x="802" d="M135 157q-2 38 2 60l35 199q12 72 30.5 114.5t36 66.5t32 32t20.5 8l4 20h-125q4 33 6 50.5t4 29.5q4 14 8.5 34t20.5 48h84q10 0 14 -12t10 -27h31q8 14 16.5 26.5t24.5 12.5h92l-32 -184q-18 -20 -35 -51q-16 -27 -31.5 -68t-26.5 -100l-34 -201q-4 -20 18 -45t88 -25 t96.5 25t34.5 43l47 268q6 37 7 70t-27 33h-84q2 35 3 52t5 30q2 12 5 27.5t15 51.5h86q14 0 23.5 10.5t14.5 24t8.5 27.5t5.5 24l8 48q29 8 57.5 9t40.5 1q16 0 34.5 -2t51.5 -8l-8 -50q-2 -10 -8 -30.5t-19.5 -43t-37 -45t-58.5 -36.5l-4 -21q43 -23 61.5 -59.5 t4.5 -108.5l-48 -268q-4 -23 -19 -60.5t-51 -74.5t-97.5 -64.5t-159.5 -27.5h-27q-98 0 -150.5 27.5t-77 64.5t-26.5 75z" />
<glyph unicode="&#xe0c;" horiz-adv-x="1312" d="M109 10l81 457q10 66 33 106.5t45 63.5l4 20h-61l22 123q74 20 150 34.5t158 14.5q188 0 266 -92t43 -284l-23 -136q-12 -72 22 -122t130 -50q29 0 47 13.5t29.5 36t17.5 51t12 61.5l89 502q35 8 58 9t36 1q12 0 34.5 -1t55.5 -9l-88 -496q-12 -70 -32.5 -129t-57.5 -102 t-92.5 -67.5t-135.5 -24.5q-12 0 -35.5 2t-48 13t-42 32.5t-17.5 62.5l2 9h-20l-31 -99q-35 -4 -53.5 -7t-28.5 -3q-16 0 -35.5 3t-54.5 7l78 436q8 43 4 81t-22.5 68t-51.5 46t-84 16h-45q-25 -33 -42 -62.5t-27.5 -53t-15.5 -39t-5 -17.5l-58 -329h93q2 -18 0 -35t-6 -41 q-6 -39 -21 -80h-186q-10 0 -33 3t-57 7z" />
<glyph unicode="&#xe0d;" horiz-adv-x="1306" d="M109 10l81 457q10 66 33 106.5t45 63.5l4 20h-61l22 123q74 20 150 34.5t158 14.5q188 0 266 -92t43 -284l-25 -148q-6 -33 -10 -61.5t-1 -50t17.5 -35t42.5 -13.5q94 0 143.5 49.5t63.5 120.5l86 496q35 8 58.5 9t36.5 1q12 0 35.5 -1t54.5 -9l-133 -760 q-16 -88 -38 -147.5t-56.5 -94t-88 -50t-133.5 -15.5h-241q-4 35 -3.5 48t5.5 34q0 6 1 11t3 12.5t6 18.5t12 32h246q27 0 42 4t25.5 23.5t18.5 58.5t20 110h-18l-2 -8q-10 -37 -33.5 -56.5t-51.5 -28.5t-51.5 -11t-33.5 -2q-98 0 -147.5 24.5t-67 67.5t-11 101.5 t18.5 125.5l25 137q8 43 4 81t-22.5 68t-51.5 46t-84 16h-45q-25 -33 -42 -62.5t-27.5 -53t-15.5 -39t-5 -17.5l-58 -329h93q2 -18 0 -35t-6 -41q-6 -39 -21 -80h-186q-10 0 -33 3t-57 7z" />
<glyph unicode="&#xe0e;" horiz-adv-x="901" d="M69 41q1 18 5 39q4 25 9 41t13 35h72l55 311q10 66 33 106.5t45 63.5l4 20h-61l22 123q74 20 150 34.5t157 14.5q188 0 266.5 -92t43.5 -284l-86 -498q-14 -80 -29.5 -145.5t-46.5 -112.5t-84 -72.5t-141 -25.5h-422q-4 43 -4 54t4 28q4 16 8 31.5t24 47.5h418 q39 0 53.5 42t34.5 153l86 491q8 43 4 81t-22 68t-51 46t-84 16h-45q-25 -33 -42.5 -62.5t-27.5 -53t-15 -39t-5 -17.5l-84 -475q-35 -4 -57.5 -7t-32.5 -3h-166q-2 23 -1 41z" />
<glyph unicode="&#xe0f;" horiz-adv-x="901" d="M66 -347q0 11 4 28q4 16 8 31.5t24 47.5h134l112 56h19l92 -56h67q18 0 30.5 8.5t21 30t16.5 59.5t18 97l86 491q8 43 4 81t-22 68t-51 46t-84 16h-45q-25 -33 -42.5 -62.5t-27.5 -53t-15 -39t-5 -17.5l-84 -475q-35 -4 -57.5 -7t-32.5 -3h-166q-2 23 -1 41t5 39 q4 25 9 41t13 35h72l55 311q10 66 33 106.5t45 63.5l4 20h-61l22 123q74 20 150 34.5t157 14.5q188 0 266.5 -92t43.5 -284l-88 -506q-12 -66 -26.5 -128.5t-45.5 -111.5t-84 -78.5t-141 -29.5h-86l-74 63h-19l-94 -63h-155q-4 43 -4 54z" />
<glyph unicode="&#xe10;" horiz-adv-x="759" d="M59.5 -282.5q-0.5 16.5 3.5 32.5t8.5 29.5t24.5 48.5h64l106 43h23l94 -43h23q37 0 46 5t13 38l14 80q35 8 58.5 9t35.5 1t36 -1t55 -9l-13 -68q-12 -72 -23.5 -113.5t-38 -65t-75.5 -31t-137 -7.5h-39l-76 45h-22l-93 -45h-79q-8 35 -8.5 51.5zM152 283q0 35 1 54t3 34 q4 20 8 35.5t12 37.5h256l-33 -299h21q63 10 91 78t48 178l23 125q12 74 -31 102.5t-117 28.5q-23 0 -53.5 -3t-63 -7t-65.5 -11t-59 -15q-16 37 -20.5 73.5t5.5 87.5q31 8 69 17.5t76.5 15.5t74.5 10t65 4q14 0 28.5 -1t28.5 -1l2 21q10 14 33 27.5t50.5 23.5t56 17.5 t47.5 7.5h120q2 -18 -1 -38t-5 -30q-2 -14 -7 -35.5t-15 -36.5h-76q-2 0 -12.5 1t-14.5 10l-4 -23q47 -35 66.5 -97.5t3.5 -158.5l-21 -115q-14 -78 -38.5 -151.5t-68.5 -132t-110.5 -93t-165.5 -34.5q-12 0 -34.5 1t-47 4t-46 11t-33.5 25l28 252h-75z" />
<glyph unicode="&#xe11;" horiz-adv-x="860" d="M100 8l68 385q14 80 35.5 128t41 74t33.5 34l13 8l4 20h-131q4 33 6 50.5t4 29.5q4 14 8 34t21 48h84q10 0 14 -12t10 -27h31q8 14 16.5 26.5t24.5 12.5h92l-12 -74h20v9q12 29 37 44t52.5 22t52 8t34.5 1q57 0 99.5 -24.5t67 -67.5t31.5 -101t-5 -126l-88 -502 q-35 -6 -57.5 -7t-34.5 -1t-36 1t-56 7l84 469q6 33 7 64.5t-6.5 57.5t-24.5 42t-50 16q-94 0 -151.5 -54t-69.5 -126l-84 -469q-35 -6 -57.5 -7t-34.5 -1t-36 1t-57 7z" />
<glyph unicode="&#xe12;" horiz-adv-x="1286" d="M106.5 132q-4.5 50 10.5 128l35 197q10 63 30.5 128.5t55 119t89 88t132.5 36.5l80 -45h16l94 45q76 -2 118 -36.5t58.5 -89t13.5 -120t-16 -130.5l-22 -136q-12 -72 21.5 -122t129.5 -50q29 0 47.5 13.5t29.5 36t17.5 51t12.5 61.5l88 502q35 8 58.5 9t35.5 1t34.5 -1 t55.5 -9l-88 -496q-12 -70 -32.5 -129t-57.5 -102t-92 -67.5t-135 -24.5q-12 0 -36 2t-48.5 13t-42 32.5t-17.5 62.5l2 9h-20l-31 -99q-35 -4 -53 -7t-29 -3q-16 0 -35.5 3t-54.5 7l82 461q4 27 8 54.5t3 52t-8 46t-23 33.5l-95 -28h-16l-88 28q-43 -27 -59.5 -80 t-26.5 -106l-39 -223q-10 -49 -2 -70.5t59 -21.5h74q4 -20 1 -39t-5 -35q-4 -10 -8 -36t-15 -46h-71q-74 0 -122 12.5t-73.5 41t-30 78.5z" />
<glyph unicode="&#xe13;" horiz-adv-x="1312" d="M109 10l81 457q10 66 33 106.5t45 63.5l4 20h-61l22 123q74 20 150 34.5t158 14.5q188 0 266 -92t43 -284l-25 -146q-6 -33 -9 -61.5t0 -51t16.5 -36t41.5 -13.5q96 0 148.5 50.5t64.5 121.5l87 492q35 8 58 9t36 1q12 0 34.5 -1t55.5 -9l-141 -799q-35 -4 -54.5 -7 t-36.5 -3q-10 0 -28.5 3t-53.5 7l7 99h-21l-2 -9q-14 -41 -38.5 -62.5t-52.5 -32.5t-52.5 -13t-36.5 -2q-80 0 -127 24.5t-68.5 67.5t-22.5 102.5t11 128.5l25 133q8 43 4 81t-22.5 68t-51.5 46t-84 16h-45q-25 -33 -42 -62.5t-27.5 -53t-15.5 -39t-5 -17.5l-58 -329h93 q2 -18 0 -35t-6 -41q-6 -39 -21 -80h-186q-10 0 -33 3t-57 7z" />
<glyph unicode="&#xe14;" horiz-adv-x="839" d="M106.5 132q-4.5 50 10.5 128l35 199q12 70 31.5 136.5t61.5 118.5t114.5 83.5t193.5 31.5q115 0 175 -34.5t85 -88t23 -119t-13 -128.5l-80 -449q-33 -8 -55 -9t-37 -1q-10 0 -33.5 1t-58.5 9l84 467q4 27 7 58.5t-6 58.5t-37.5 45t-86.5 18q-55 0 -88 -18t-52.5 -46 t-27.5 -61.5t-14 -62.5l-39 -221q-10 -49 -2 -70.5t59 -21.5h74q4 -20 1 -39t-5 -35q-4 -10 -8 -36t-15 -46h-71q-74 0 -122 12.5t-73.5 41t-30 78.5z" />
<glyph unicode="&#xe15;" horiz-adv-x="841" d="M106.5 132q-4.5 50 10.5 128l35 197q10 63 30.5 128.5t55 119t89 88t132.5 36.5l80 -45h16l94 45q76 -2 118 -36.5t58.5 -88t13.5 -119t-14 -128.5l-80 -449q-33 -6 -55 -7t-37 -1q-10 0 -33.5 1t-58.5 7l82 463q4 27 8 54.5t3 52t-8 46t-23 33.5l-95 -28h-16l-88 28 q-43 -27 -59.5 -80t-26.5 -106l-39 -223q-10 -49 -2 -70.5t59 -21.5h74q4 -20 1 -39t-5 -35q-4 -10 -8 -36t-15 -46h-71q-74 0 -122 12.5t-73.5 41t-30 78.5z" />
<glyph unicode="&#xe16;" horiz-adv-x="868" d="M109 10l81 457q10 66 33 106.5t45 63.5l4 20h-61l22 123q74 20 150 34.5t158 14.5q188 0 266 -92t43 -284l-78 -445q-35 -6 -57.5 -7t-34.5 -1t-35.5 1t-56.5 7l78 438q8 43 4 81t-22.5 68t-51.5 46t-84 16h-45q-25 -33 -42 -62.5t-27.5 -53t-15.5 -39t-5 -17.5l-58 -329 h93q2 -18 0 -35t-6 -41q-6 -39 -21 -80h-186q-10 0 -33 3t-57 7z" />
<glyph unicode="&#xe17;" horiz-adv-x="856" d="M96 8l142 801q35 8 55 9t35 1q10 0 29.5 -1t52.5 -9l-2 -64h20v9q18 27 46 42t55.5 23t52 9t34.5 1q80 0 130.5 -24.5t77 -67.5t31.5 -101t-7 -126l-88 -502q-35 -6 -57.5 -7t-34.5 -1t-36 1t-57 7l84 469q6 33 7.5 64.5t-6 57.5t-25 42t-49.5 16q-94 0 -151.5 -54 t-69.5 -126l-84 -469q-35 -6 -57.5 -7t-35.5 -1q-12 0 -35.5 1t-56.5 7z" />
<glyph unicode="&#xe18;" horiz-adv-x="784" d="M113 47l49 283q35 8 58.5 9t35.5 1t35.5 -1t54.5 -9l-31 -172q35 -8 75 -10.5t61 -2.5q41 0 68.5 13.5t35.5 54.5l18 104q2 18 -28.5 29.5t-77.5 23t-101.5 28t-99.5 43t-70.5 67.5t-13.5 104q12 68 43 110t77 66.5t107.5 32.5t135.5 8q57 0 133 -10t131 -33 q-10 -47 -26.5 -78.5t-45.5 -78.5q-39 16 -100.5 22t-118.5 6q-84 0 -114.5 -8t-36.5 -37q-4 -23 26.5 -35t77.5 -24t102.5 -25.5t100.5 -34t71.5 -53t18.5 -84.5l-23 -127q-12 -72 -41.5 -117.5t-71.5 -73.5t-94.5 -38t-109.5 -10q-31 0 -71 2t-82 8t-84 17.5t-74 29.5z " />
<glyph unicode="&#xe19;" horiz-adv-x="841" d="M128 183.5q-5 58.5 7 125.5l88 502q35 6 58.5 7t35.5 1t36 -1t55 -7l-84 -485q-6 -33 -8.5 -65t5 -57.5t24.5 -42t50 -16.5q94 0 151.5 54.5t71.5 126.5l84 485q35 6 58.5 7t36.5 1q12 0 35.5 -1t54.5 -7l-142 -801q-35 -8 -54 -9t-34 -1q-10 0 -29.5 1t-54.5 9l5 64h-21 l-2 -8q-16 -29 -44 -43.5t-55.5 -22.5t-52 -9t-34.5 -1q-80 0 -130.5 24.5t-78 67.5t-32.5 101.5z" />
<glyph unicode="&#xe1a;" horiz-adv-x="856" d="M130 194.5q5 61.5 17 133.5l84 483q35 6 58.5 7t36.5 1q12 0 35.5 -1t54.5 -7l-88 -498q-4 -29 -7.5 -58.5t7 -54t38 -40t85.5 -15.5q55 0 88.5 15.5t52 40t26 54.5t11.5 58l88 498q35 6 58.5 7t35.5 1t35.5 -1t54.5 -7l-84 -483q-12 -72 -29.5 -133.5t-57.5 -106.5 t-111.5 -71.5t-194.5 -26.5t-186.5 26.5t-88 71.5t-19.5 106.5z" />
<glyph unicode="&#xe1b;" horiz-adv-x="856" d="M130 194.5q5 61.5 17 133.5l84 483q35 6 58.5 7t36.5 1q12 0 35.5 -1t54.5 -7l-88 -498q-4 -29 -7.5 -58.5t7 -54t38 -40t85.5 -15.5q55 0 88.5 15.5t52 40t26 54.5t11.5 58l135 764q35 6 58.5 7t35.5 1t36 -1t54 -7l-131 -749q-12 -72 -29.5 -133.5t-57.5 -106.5 t-111.5 -71.5t-194.5 -26.5t-186.5 26.5t-88 71.5t-19.5 106.5z" />
<glyph unicode="&#xe1c;" horiz-adv-x="999" d="M127 25l86 782q20 6 41.5 9t52.5 3h193q8 -29 7 -45t-5 -33q-2 -25 -23 -84h-110l-68 -512h21l4 21l131 383q14 6 34.5 8t42 4t39 2h25.5h25.5t38 -2l41 -4t32.5 -8l-4 -383l-4 -21h21l4 21l141 643q27 8 46 9t38 1q16 0 38.5 -1t53.5 -11l-188 -782q-53 -18 -90 -21.5 t-68 -3.5q-35 0 -81 3t-83 20l19 366l4 21h-21l-4 -21l-113 -366q-41 -16 -87 -19.5t-81 -3.5q-31 0 -66.5 3t-82.5 22z" />
<glyph unicode="&#xe1d;" horiz-adv-x="997" d="M127 25l86 782q20 6 41.5 9t52.5 3h193q8 -29 7 -45t-5 -33q-2 -25 -23 -84h-110l-68 -512h21l4 21l131 383q14 6 34.5 8t42 4t39 2h25.5h25.5t38 -2l41 -4t32.5 -8l-4 -383l-4 -21h21l4 21l202 909q27 8 46.5 9t37.5 1q16 0 39 -1t53 -11l-249 -1048q-53 -18 -90 -21.5 t-68 -3.5q-35 0 -81 3t-83 20l19 366l4 21h-21l-4 -21l-113 -366q-41 -16 -87 -19.5t-81 -3.5q-31 0 -66.5 3t-82.5 22z" />
<glyph unicode="&#xe1e;" horiz-adv-x="999" d="M127 25l86 782q35 10 57.5 11t38.5 1q18 0 38 -1t42 -9l-88 -664h21l4 21l143 446q29 10 76 12.5t63 2.5h25.5t38 -2t40 -4.5t31.5 -8.5l-12 -446l-4 -21h21l4 21l141 643q27 8 46 9t38 1q16 0 38.5 -1t53.5 -11l-188 -782q-53 -18 -90 -21.5t-68 -3.5q-35 0 -81 3 t-83 20l29 430l4 20h-21l-4 -20l-123 -430q-41 -16 -87 -19.5t-81 -3.5q-31 0 -66.5 3t-82.5 22z" />
<glyph unicode="&#xe1f;" horiz-adv-x="1001" d="M127 25l86 782q35 10 57.5 11t38.5 1q18 0 38 -1t42 -9l-88 -664h21l4 21l143 446q29 10 76 12.5t63 2.5h25.5t38 -2t40 -4.5t31.5 -8.5l-12 -446l-4 -21h21l4 21l204 909q27 8 46.5 9t37.5 1q16 0 39 -1t54 -11l-252 -1048q-53 -18 -90 -21.5t-68 -3.5q-35 0 -81 3 t-83 20l29 430l4 20h-21l-4 -20l-123 -430q-41 -16 -87 -19.5t-81 -3.5q-31 0 -66.5 3t-82.5 22z" />
<glyph unicode="&#xe20;" horiz-adv-x="901" d="M69 41q1 18 5 39q4 25 9 41t13 35h72l55 311q10 66 33 106.5t45 63.5l4 20h-61l22 123q74 20 150 34.5t157 14.5q188 0 266.5 -92t43.5 -284l-78 -445q-35 -6 -57.5 -7t-34.5 -1t-36 1t-56 7l77 438q8 43 4 81t-22 68t-51 46t-84 16h-45q-25 -33 -42.5 -62.5t-27.5 -53 t-15 -39t-5 -17.5l-84 -475q-35 -4 -57.5 -7t-32.5 -3h-166q-2 23 -1 41z" />
<glyph unicode="&#xe21;" horiz-adv-x="856" d="M96 10l142 801q35 6 58 7t36 1q12 0 34.5 -1t55.5 -7l-84 -485q-14 -72 24.5 -126.5t133.5 -54.5q33 0 56 16.5t38.5 42t26 57.5t16.5 65l84 485q35 6 58.5 7t35.5 1t34.5 -1t55.5 -7l-88 -502q-12 -68 -37.5 -126t-67.5 -101t-100.5 -67.5t-138.5 -24.5q-10 0 -33.5 1 t-50.5 9t-48.5 22.5t-29.5 43.5l2 8h-20l-21 -64q-35 -8 -54 -9t-30 -1q-14 0 -33.5 1t-54.5 9z" />
<glyph unicode="&#xe22;" horiz-adv-x="864" d="M104.5 168q4.5 49 12.5 98q10 61 38.5 98t71.5 60q-29 18 -40 45t-14 53.5t-1 48t4 29.5q14 82 47 127t78 65.5t99.5 23.5t111.5 3h80q4 -31 2 -48t-6 -30q-2 -14 -6 -32.5t-19 -51.5h-51q-16 0 -39.5 -1t-47.5 -8t-43.5 -22.5t-23.5 -43.5q-2 -10 -3 -24.5t10.5 -27 t38 -21.5t77.5 -9h72q-2 -37 -3 -51.5t-3 -26.5q-4 -12 -7 -27.5t-16 -50.5h-69q-45 0 -74 -6t-45.5 -16.5t-24.5 -24.5t-10 -31q-4 -27 -7 -48t2 -37.5t20.5 -26t45.5 -9.5h191q41 0 52 27t22 78l98 559q35 8 58.5 9t37.5 1q10 0 33 -1t55 -9l-96 -545q-12 -72 -24.5 -124 t-41 -86t-80 -49t-141.5 -15h-190q-100 0 -149.5 24.5t-68 64.5t-14 89z" />
<glyph unicode="&#xe23;" horiz-adv-x="743" d="M113 41q8 41 20 79t43 75q18 -8 45 -16.5t55.5 -14.5t56 -10t50.5 -4q20 0 46 2t48.5 11t40 29.5t23.5 55.5q4 29 -26 47t-77 33.5t-101 33t-99 46t-71 71.5t-13 111q25 135 121 187t243 52q57 0 137 -10t138 -33q-12 -47 -28.5 -80.5t-47.5 -80.5q-37 16 -102.5 24 t-122.5 8q-84 0 -116 -16t-38 -51q-6 -29 24.5 -46.5t77.5 -32.5t101.5 -32.5t99.5 -46.5t70.5 -73t13.5 -111q-12 -72 -48 -121t-86 -80t-108.5 -44t-113.5 -13q-68 0 -135.5 14t-120.5 37z" />
<glyph unicode="&#xe24;" horiz-adv-x="868" d="M109 10l81 457q10 66 33 106.5t45 63.5l4 20h-61l22 123q74 20 150 34.5t158 14.5q188 0 266 -92t43 -284l-148 -846q-35 -6 -58 -7t-36 -1q-12 0 -35.5 1t-54.5 7l148 839q8 43 4 81t-22.5 68t-51.5 46t-84 16h-45q-25 -33 -42 -62.5t-27.5 -53t-15.5 -39t-5 -17.5 l-58 -329h93q2 -18 0 -35t-6 -41q-6 -39 -21 -80h-186q-10 0 -33 3t-57 7z" />
<glyph unicode="&#xe25;" horiz-adv-x="813" d="M94 136q-8 50 4 126q12 74 49 120t84.5 72.5t98.5 36t94 9.5q59 0 94 -5.5t82 -25.5h18q4 29 7 41q2 8 2 12q6 37 -4.5 63.5t-33 42t-54 22.5t-68.5 7q-47 0 -95 -9t-106 -25q-16 39 -20 75.5t6 87.5q66 20 135.5 31.5t126.5 11.5q80 0 142.5 -15t102.5 -50t54 -95.5 t-2 -148.5l-90 -510q-35 -8 -57.5 -9t-34.5 -1t-36 1t-56 9l57 324h-82q-43 0 -83 -1t-70.5 -9.5t-51 -26.5t-26.5 -51q-12 -68 11 -79t83 -11h63q2 -31 1 -44.5t-3 -29.5q-4 -10 -8 -31.5t-16 -50.5h-62q-78 0 -132 12.5t-85 43t-39 80.5z" />
<glyph unicode="&#xe26;" horiz-adv-x="890" d="M58 41q1 18 5 39q4 25 9.5 41t13.5 35h72l55 311q10 66 32.5 106.5t45.5 63.5l4 20h-62l23 123q74 20 149.5 34.5t157.5 14.5q188 0 266 -92t43 -284l-147 -846q-35 -6 -58.5 -7t-35.5 -1t-36 1t-54 7l147 839q8 43 4 81t-22.5 68t-51 46t-83.5 16h-46q-25 -33 -42 -62.5 t-27 -53t-15.5 -39t-5.5 -17.5l-84 -475q-35 -4 -57 -7t-33 -3h-166q-2 23 -1 41z" />
<glyph unicode="&#xe27;" horiz-adv-x="702" d="M100 20q10 51 25.5 83t46.5 65q51 -16 77.5 -19.5t74.5 -3.5q59 0 102 26t57 99l43 252q14 74 -28.5 104.5t-118.5 30.5q-84 0 -201 -34q-16 39 -20 75.5t6 87.5q66 20 136.5 31.5t125.5 11.5q80 0 141.5 -15t98 -50t49 -95.5t-3.5 -148.5l-41 -233q-16 -88 -51 -145.5 t-82.5 -91.5t-104.5 -47t-119 -13q-57 0 -103 4t-110 26z" />
<glyph unicode="&#xe28;" horiz-adv-x="835" d="M72 10l80 449q12 70 29.5 136.5t59.5 118.5t114.5 83.5t195.5 31.5h35l4 27q8 14 31.5 27.5t51 24t56.5 17.5t47 7h121q2 -18 -1 -38t-5 -30q-4 -14 -9 -35.5t-14 -35.5h-75q-2 0 -12.5 1t-14.5 9l-4 -21q37 -25 54.5 -60.5t20.5 -77.5t-3.5 -89t-14.5 -96l-80 -451 q-33 -6 -56.5 -7t-37.5 -1q-10 0 -32.5 1t-57.5 9l84 477q6 27 8 57.5t-7 55.5t-37 41t-83 16t-88 -16t-51.5 -41t-26.5 -55.5t-14 -57.5l-8 -47h20q25 10 43.5 13.5t48.5 3.5h117q4 -23 2 -39.5t-6 -44.5q-4 -16 -9 -33.5t-22 -44.5h-88h-33.5t-43 -1t-38 -3t-18.5 -6 l-49 -277q-33 -6 -56.5 -7t-37.5 -1q-10 0 -33 1t-57 9z" />
<glyph unicode="&#xe29;" horiz-adv-x="876" d="M130 194.5q5 61.5 17 133.5l84 483q35 6 58.5 7t36.5 1q12 0 35.5 -1t54.5 -7l-88 -498q-4 -29 -7.5 -58.5t7 -54t38 -40t85.5 -15.5q55 0 88.5 15.5t52 40t26 54.5t11.5 58l12 60h-219q-4 53 -1 106t11 113q33 12 48.5 16t37.5 4q29 0 47.5 -3t40.5 -9l-14 -80 q25 8 39 14.5t39 10.5l47 266q35 6 58.5 7t35.5 1t35.5 -1t54.5 -7l-47 -266h66q4 -29 1 -51.5t-6 -34.5q-4 -16 -10 -42t-24 -44h-56l-8 -45q-12 -72 -29.5 -133.5t-57.5 -106.5t-111.5 -71.5t-194.5 -26.5t-186.5 26.5t-88 71.5t-19.5 106.5z" />
<glyph unicode="&#xe2a;" horiz-adv-x="813" d="M94 136q-8 50 4 126q12 74 49 120t84.5 72.5t98.5 36t94 9.5q59 0 94 -5.5t82 -25.5h18l9 53q6 37 -4.5 63.5t-33 42t-54 22.5t-68.5 7q-47 0 -95 -9t-106 -25q-16 39 -20 75.5t6 87.5q66 20 135.5 31.5t126.5 11.5h26.5t26.5 -2l2 21q10 14 33 27.5t50.5 23.5t56 17.5 t47.5 7.5h121q2 -18 -1.5 -38t-5.5 -30q-2 -14 -7 -35.5t-15 -36.5h-76q-2 0 -12 1t-15 10l-4 -19q47 -35 66.5 -96.5t3.5 -159.5l-90 -510q-35 -8 -57.5 -9t-34.5 -1t-36 1t-56 9l57 324h-82q-43 0 -83 -1t-70.5 -9.5t-51 -26.5t-26.5 -51q-12 -68 11 -79t83 -11h63 q2 -31 1 -44.5t-3 -29.5q-4 -10 -8 -31.5t-16 -50.5h-62q-78 0 -132 12.5t-85 43t-39 80.5z" />
<glyph unicode="&#xe2b;" horiz-adv-x="843" d="M96 8l142 801q35 8 54 9t36 1q10 0 29.5 -1t52.5 -9l-13 -143l-14 -84h127q59 0 108.5 32.5t61.5 100.5l16 94q33 8 57.5 9t39.5 1q10 0 33.5 -1t54.5 -9l-17 -96q-10 -59 -33.5 -103.5t-52.5 -79.5q43 -90 37 -211l-55 -311q-33 -6 -56.5 -7t-37.5 -1q-10 0 -33 1t-58 7 l56 307q4 31 2 62t-15 61l-6 13h-20q-10 -16 -36 -24.5t-56.5 -11.5t-60 -4t-48.5 -1h-39l-71 -402q-33 -6 -56.5 -7t-38.5 -1q-10 0 -32.5 1t-57.5 7z" />
<glyph unicode="&#xe2c;" horiz-adv-x="974" d="M127 25l86 782q35 10 57.5 11t38.5 1q18 0 38 -1t42 -9l-88 -664h21l4 21l143 446q29 10 76 12.5t63 2.5h25.5t38 -2t40 -4.5t31.5 -8.5l-12 -446l-4 -21h21l4 21l114 512q8 47 6 74.5t-26 27.5h-96l3 52.5t5 29.5q2 12 5 27.5t15 52.5h86q14 0 23.5 10.5t14.5 23.5 t8 27.5t5 24.5l9 47q29 8 57.5 9t40.5 1q16 0 34.5 -2t51.5 -8l-8 -49q-2 -10 -8.5 -30.5t-19.5 -43t-36.5 -45t-60.5 -37.5l-2 -20q43 -23 61.5 -59.5t3.5 -108.5l-157 -657q-53 -18 -90 -21.5t-68 -3.5q-35 0 -81 3t-83 20l29 430l4 20h-21l-4 -20l-123 -430 q-41 -16 -87 -19.5t-81 -3.5q-31 0 -66.5 3t-82.5 22z" />
<glyph unicode="&#xe2d;" horiz-adv-x="815" d="M116 176.5q1 61.5 15 145.5l29 161h280q2 -31 0 -48t-6 -34q-2 -12 -6 -27.5t-14 -51.5h-99l-8 -54q-6 -29 -6 -51t11.5 -38.5t37 -25t74.5 -8.5q39 0 68.5 5.5t51 28t39 68.5t31.5 130l27 149q12 74 -31 102.5t-116 28.5q-47 0 -119 -7t-129 -23q-16 39 -20.5 75.5 t5.5 88.5q33 10 72 17t79 12t75.5 7t64.5 2q80 0 142.5 -15t103.5 -52t55.5 -97.5t-0.5 -148.5l-28 -158q-18 -100 -43 -169.5t-69 -113.5t-112.5 -64.5t-173.5 -20.5q-109 0 -170 20.5t-86.5 62.5t-24.5 103.5z" />
<glyph unicode="&#xe2e;" horiz-adv-x="815" d="M116 176.5q1 61.5 15 145.5l29 161h280q2 -31 0 -48t-6 -34q-2 -12 -6 -27.5t-14 -51.5h-99l-8 -54q-6 -29 -6 -51t11.5 -38.5t37 -25t74.5 -8.5q39 0 68.5 5.5t51 28t39 68.5t31.5 130l27 149q12 74 -31 102.5t-116 28.5q-47 0 -119 -7t-129 -23q-16 39 -20.5 75.5 t5.5 88.5q33 10 72 17t79 12t75.5 7t64.5 2q14 0 28.5 -1t29.5 -1l2 21q10 14 32.5 27.5t50 23.5t56.5 17.5t47 7.5h121q2 -18 -1 -38t-5 -30q-2 -14 -7.5 -35.5t-15.5 -36.5h-76q-2 0 -12 1t-14 10l-4 -23q47 -35 66.5 -97.5t2.5 -158.5l-28 -158q-18 -100 -43 -169.5 t-69 -113.5t-112.5 -64.5t-173.5 -20.5q-109 0 -170 20.5t-86.5 62.5t-24.5 103.5z" />
<glyph unicode="&#xe2f;" horiz-adv-x="724" d="M165 626q1 36 5 58l23 125q35 8 58 9t36 1q12 0 35.5 -1t54.5 -9l-23 -127q-2 -10 0 -21.5t11.5 -21.5t28 -17.5t48.5 -7.5q33 0 54.5 7.5t35 18.5t18.5 22.5t7 21.5l23 125q35 8 58.5 9t35.5 1t35.5 -1t54.5 -9l-162 -922q-35 -8 -58.5 -9t-35.5 -1t-34.5 1t-55.5 9 l102 582q-45 -10 -90 -10h-29q-98 6 -148 33.5t-69.5 62.5t-18.5 71z" />
<glyph unicode="&#xe30;" horiz-adv-x="552" d="M100.5 216q8.5 58 18.5 122q31 12 49 16t41 4q29 0 50.5 -3t43.5 -7l-16 -98q80 27 155 26h95q-2 -18 -4.5 -39.5t-4.5 -31.5q-4 -16 -10 -37t-22 -47h-390q-14 37 -5.5 95zM165 582.5q7 58.5 17 122.5q33 12 51.5 16t40.5 4q29 0 50.5 -3t44.5 -7l-17 -99q78 27 156 27 h94q-2 -18 -4 -39.5t-4 -32.5q-4 -16 -11.5 -36.5t-23.5 -47.5h-389q-12 37 -5 95.5z" />
<glyph unicode="&#xe31;" d="M-330 1058.5q0 26.5 2 51.5t6.5 48.5t8.5 55.5q31 12 49 14.5t41 2.5q29 0 47 -1t47 -5l-18 -103h16q41 16 71.5 21.5t67.5 5.5h213v-43t-4 -29q-4 -16 -10 -36.5t-23 -47.5h-510q-4 39 -4 65.5z" />
<glyph unicode="&#xe32;" horiz-adv-x="610" d="M126 699.5q-5 31.5 5 84.5q39 16 78 25.5t71.5 13.5t57 5t33.5 1q82 0 132 -22.5t74.5 -61t27.5 -91t-7 -109.5l-94 -537q-35 -6 -57.5 -7t-34.5 -1t-36 1t-57 7l97 539q2 16 3 35.5t-6 36t-23.5 27.5t-49.5 11q-41 0 -87 -4t-106 -22q-16 37 -21 68.5z" />
<glyph unicode="&#xe33;" horiz-adv-x="610" d="M-217 1112q6 33 24.5 62.5t44 51t56 35t63.5 13.5q66 0 105 -48t26 -114q-6 -33 -23.5 -62.5t-43 -51t-57 -34t-64.5 -12.5q-66 0 -103.5 47.5t-27.5 112.5zM-98 1112q-4 -18 7.5 -29.5t27.5 -11.5q43 0 49 41q10 43 -35 43q-39 0 -49 -43zM126 699.5q-5 31.5 5 84.5 q39 16 78 25.5t71.5 13.5t57 5t33.5 1q82 0 132 -22.5t74.5 -61t27.5 -91t-7 -109.5l-94 -537q-35 -6 -57.5 -7t-34.5 -1t-36 1t-57 7l97 539q2 16 3 35.5t-6 36t-23.5 27.5t-49.5 11q-41 0 -87 -4t-106 -22q-16 37 -21 68.5z" />
<glyph unicode="&#xe34;" d="M-513 1023.5q1 16.5 5 39.5q4 29 9 43t16 29h49q37 4 60.5 7t41 4t32.5 2t36 1h362q2 -16 0 -35.5t-6 -36.5q-4 -16 -8 -35.5t-14 -48.5h-578q-6 14 -5 30.5z" />
<glyph unicode="&#xe35;" d="M-510 1040.5q0 20.5 4 36.5q4 14 7 28.5t14 43.5h256q39 0 68.5 -5t64.5 -22h16l19 103q29 4 47 5t45 1q23 0 40 -2t46 -15q-6 -33 -10.5 -56t-10.5 -48t-16 -51.5t-29 -65.5h-553q-8 27 -8 47.5z" />
<glyph unicode="&#xe36;" d="M-502 1034.5q0 18.5 4 34.5q2 12 6.5 32.5t14.5 47.5h264q47 0 88 -8q16 41 53 67.5t78 26.5q53 0 82 -35t21 -84q-10 -51 -50.5 -85t-93.5 -38h-461q-6 23 -6 41.5z" />
<glyph unicode="&#xe37;" d="M-510 1040.5q0 20.5 4 36.5q4 14 7 28.5t14 43.5h51h39t26.5 -2t24.5 -6t29 -11h12l16 95q14 4 29.5 5t42.5 1q18 0 44 -2t42 -10l-14 -89h65l17 95q29 4 47 5t45 1q23 0 40 -2t46 -15q-6 -33 -10.5 -56t-10.5 -48t-16 -51.5t-29 -65.5h-553q-8 27 -8 47.5z" />
<glyph unicode="&#xe38;" d="M-373 -295q0 29 3 49.5t8 38.5q4 16 9 41t17 43q70 0 124 -4t89 -31l-47 -268q-29 -10 -47.5 -11t-34.5 -1q-12 0 -29.5 1t-54.5 11l8 53q4 14 7.5 26.5t13.5 37.5l2 14h-68z" />
<glyph unicode="&#xe39;" d="M-567 -289q2 25 2 37t6 45q4 23 9 39t22 45q72 0 108.5 -4t71.5 -31l-31 -174h70l35 201q39 6 51 7t24 1q16 0 30.5 -1t49.5 -11l-49 -277q-23 -14 -50.5 -21t-55 -10t-51 -4.5t-35.5 -1.5q-43 0 -88.5 6.5t-100.5 24.5l8 53q6 29 19 56l4 20h-49z" />
<glyph unicode="&#xe3a;" d="M-348 -229q8 45 44 75.5t81 30.5t70.5 -30.5t17.5 -75.5t-44 -76t-81 -31t-70.5 31t-17.5 76z" />
<glyph unicode="&#xe3b;" />
<glyph unicode="&#xe3c;" />
<glyph unicode="&#xe3d;" />
<glyph unicode="&#xe3e;" />
<glyph unicode="&#xe3f;" horiz-adv-x="985" d="M113 0l180 1024h297l20 117q33 6 56.5 7t35.5 1t35 -1t58 -7l-21 -117q61 0 113.5 -9t88.5 -40t49 -91.5t-5 -162.5q-14 -78 -40 -126t-79 -83q41 -33 49 -83t-4 -124q-18 -102 -52 -162.5t-80 -91.5t-102.5 -40t-117.5 -11l-23 -117q-35 -6 -57 -7t-35 -1q-12 0 -35.5 1 t-56.5 7l23 117h-297zM324 156h112l49 276h-112zM399 588h113l47 264h-113zM621 160q47 8 87 35.5t52 97.5q10 66 -19.5 94.5t-72.5 38.5zM696 592q47 8 87 35.5t53 93.5q10 68 -20 94.5t-75 32.5z" />
<glyph unicode="&#xe40;" horiz-adv-x="393" d="M106 8l142 803q35 6 58.5 7t33.5 1q14 0 37.5 -1t54.5 -7l-141 -803q-33 -6 -56.5 -7t-37.5 -1q-10 0 -33 1t-58 7z" />
<glyph unicode="&#xe41;" horiz-adv-x="770" d="M113 8l141 803q35 6 58.5 7t33.5 1q14 0 38 -1t54 -7l-141 -803q-33 -6 -56.5 -7t-37.5 -1q-10 0 -33 1t-57 7zM483 8l142 803q35 6 58.5 7t33.5 1q14 0 37.5 -1t54.5 -7l-141 -803q-33 -6 -56.5 -7t-38.5 -1q-10 0 -32.5 1t-57.5 7z" />
<glyph unicode="&#xe42;" horiz-adv-x="387" d="M119 8l145 823q10 59 12.5 101.5t-2.5 68.5q-4 31 -10 52q-2 23 -3 41t3 34q4 25 9.5 49.5t15.5 51.5h409q4 -14 2 -38t-4 -38q-2 -10 -8 -34.5t-12 -45.5h-260l-4 -18q2 0 13 -9.5t20.5 -34t11.5 -69.5t-11 -119l-143 -815q-33 -6 -56.5 -7t-37.5 -1q-10 0 -32.5 1 t-57.5 7z" />
<glyph unicode="&#xe43;" horiz-adv-x="403" d="M119 8l123 699q10 61 35.5 103t53 73.5t51.5 61.5t30 67q4 31 0 54.5t-50 23.5q-10 0 -42.5 -6.5t-92.5 -45.5q-27 18 -46 46t-11 75q39 33 78 50.5t69.5 25.5t51 9t22.5 1q80 0 125 -14t66.5 -43t22.5 -72t-9 -102q-8 -43 -32.5 -79t-52.5 -71t-52.5 -73.5t-32.5 -83.5 l-123 -699q-35 -6 -57.5 -7t-32.5 -1q-14 0 -37.5 1t-56.5 7z" />
<glyph unicode="&#xe44;" horiz-adv-x="395" d="M109 1073q0 20 3 45t5 35q2 14 8 37.5t14 38.5h418q2 -27 -1 -51.5t-7 -49.5q-6 -31 -29 -75q-14 -20 -28 -52q-12 -27 -25.5 -68.5t-24.5 -101.5l-145 -823q-35 -6 -57.5 -7t-32.5 -1q-14 0 -38 1t-56 7l143 815q12 74 31.5 119t37 69.5t31 34t17.5 9.5l4 18h-268z" />
<glyph unicode="&#xe45;" horiz-adv-x="610" d="M126 699.5q-5 31.5 5 84.5q39 16 78 25.5t71.5 13.5t57 5t33.5 1q82 0 132 -22.5t74.5 -61t27.5 -91t-7 -109.5l-164 -936q-35 -6 -58.5 -7t-35.5 -1t-35.5 1t-54.5 7l166 938q2 16 3 35.5t-6 36t-23.5 27.5t-49.5 11q-41 0 -87 -4t-106 -22q-16 37 -21 68.5z" />
<glyph unicode="&#xe46;" horiz-adv-x="786" d="M145 479l29 166q10 57 34.5 93t53.5 56.5t57.5 27.5t45.5 7h22q35 0 67.5 -11t43.5 -42h16q23 33 60.5 43t72.5 10h25q16 0 41.5 -7t47 -27.5t34 -56.5t2.5 -93l-133 -760q-35 -4 -58.5 -6t-36.5 -2q-12 0 -35.5 2t-54.5 6l133 764q2 2 -7 5t-19 3q-2 0 -14.5 -1 t-14.5 -7l-14 -90q-35 -8 -48.5 -9t-27.5 -1q-10 0 -23.5 1t-42.5 9l17 92q0 4 -12.5 5t-16.5 1q-10 0 -19.5 -3t-11.5 -5l-28 -168q-35 -4 -58.5 -7t-38.5 -3q-10 0 -29.5 2z" />
<glyph unicode="&#xe47;" d="M-449 1128q4 29 9 52q4 20 7 40.5t5 30.5q16 96 70.5 128t136.5 32h422q2 -20 -1 -41.5t-5 -32.5q-4 -14 -9.5 -40.5t-15.5 -41.5h-397q-31 0 -38 -13t-11 -23l-9 -54q-4 -12 -2 -23.5t21 -11.5h8q27 0 32 9.5t9 31.5l4 23q20 4 39.5 5t30.5 1q10 0 29.5 -1t35.5 -5 l-4 -23q-4 -23 -2 -32t25 -9h10q16 0 19 11.5t7 23.5l5 27q37 6 61 6q10 0 29.5 -1t40.5 -5q0 -2 -2 -11.5t-3.5 -19.5t-3.5 -17l-2 -7q-10 -53 -34.5 -82t-49.5 -43q-31 -16 -63 -19h-16q-47 0 -75 16.5t-24 43.5h-22q-4 -27 -33 -43.5t-76 -16.5h-35q-8 0 -31.5 2 t-47 14.5t-39 40t-5.5 78.5z" />
<glyph unicode="&#xe48;" d="M-31 1348l31 196q37 10 55.5 12.5t34.5 2.5q14 0 31.5 -1.5t54.5 -11.5l-37 -200q-41 -8 -58.5 -9.5t-31.5 -1.5q-16 0 -33.5 1t-46.5 12z" />
<glyph unicode="&#xe49;" d="M-264 1507q4 14 7 27.5t15 44.5h144q29 0 48 -3t42 -9l-17 -103h17q39 16 69.5 21.5t71.5 5.5h84q4 -31 3 -53.5t-5 -34.5q-2 -16 -7 -30.5t-26 -37.5h-395q-4 31 -3 44.5t3 23.5l4 20h-51q-10 47 -4 84z" />
<glyph unicode="&#xe4a;" d="M-436 1343l33 181q8 47 27.5 78.5t44 50t53 27t53.5 8.5h22q47 0 76 -16.5t25 -43.5h22q4 27 36 43.5t77 16.5h24q25 0 48.5 -8.5t41 -27t25.5 -50t0 -78.5q-2 -10 -4 -19q-2 -8 -3 -18t-3 -21h49q4 -14 3 -31.5t-5 -31.5q-2 -10 -5 -28.5t-14 -39.5h-145q-25 0 -37 2 t-26 6q12 63 18 100.5t10 61.5q4 12 -4 19.5t-14 7.5h-10q-14 0 -18.5 -6t-10.5 -29l-4 -22q-18 -4 -40 -5.5t-32 -1.5t-30.5 1t-39.5 6l5 22q4 23 -2.5 29t-20.5 6h-10q-8 0 -16.5 -7t-12.5 -20l-6 -39h37q4 -14 3 -31.5t-5 -31.5q-2 -10 -5 -28.5t-14 -39.5h-96 q-25 0 -54.5 2t-45.5 6z" />
<glyph unicode="&#xe4b;" d="M-83 1465.5q1 17.5 5 35.5q2 14 6 32.5t19 49.5h61l12 74q35 10 53.5 12t35.5 2q14 0 31.5 -1t54.5 -11l-13 -76h64q2 -31 0 -49.5t-4 -32.5q-4 -18 -9.5 -35.5t-21.5 -44.5h-57l-15 -75q-41 -8 -58.5 -9.5t-31.5 -1.5q-16 0 -33.5 1t-46.5 12l13 73h-58q-8 27 -7 44.5z " />
<glyph unicode="&#xe4c;" d="M-223 1356q14 66 28.5 108.5t34.5 91.5h355q4 -27 2 -39t-4 -28q-4 -12 -9.5 -35.5t-15.5 -52.5h-55q-39 0 -76 5t-72 21l-12 -79q-27 -6 -48.5 -9.5t-49.5 -3.5q-23 0 -36.5 4t-41.5 17z" />
<glyph unicode="&#xe4d;" d="M-211 1112q6 33 24.5 62.5t44 51t56 35t63.5 13.5q66 0 105 -48t27 -114q-6 -33 -23.5 -62.5t-43.5 -51t-57.5 -34t-64.5 -12.5q-66 0 -103.5 47.5t-27.5 112.5zM-92 1112q-4 -18 7.5 -29.5t27.5 -11.5q43 0 49 41q10 43 -35 43q-39 0 -49 -43z" />
<glyph unicode="&#xe4e;" />
<glyph unicode="&#xe4f;" horiz-adv-x="915" d="M186 420q12 74 50 137.5t92.5 110.5t122 73.5t139.5 26.5q74 0 132 -26.5t96 -73.5t54.5 -110.5t4.5 -137.5q-12 -72 -51.5 -134.5t-94.5 -108.5t-122.5 -72.5t-141.5 -26.5q-72 0 -130 26.5t-96 72.5t-52.5 108.5t-2.5 134.5zM233 420q-12 -61 1.5 -115.5t46 -94.5 t83 -62.5t111.5 -22.5q63 0 121.5 22.5t107 62.5t81 94t44.5 116q10 63 -3 117.5t-47 95.5t-84 64.5t-113 23.5q-61 0 -120 -23.5t-106 -64.5t-79.5 -95.5t-43.5 -117.5zM326 420q6 43 28.5 80t54 64.5t71.5 44t83 16.5q84 0 132 -59.5t34 -145.5q-8 -41 -30.5 -78 t-54.5 -64.5t-72 -43t-80 -15.5q-43 0 -77 15.5t-56.5 43t-31.5 64.5t-1 78z" />
<glyph unicode="&#xe50;" horiz-adv-x="829" d="M121 192.5q4 61.5 16 131.5t29.5 130t57.5 105t112.5 70.5t193.5 25.5t183.5 -25.5t86 -70.5t19.5 -106.5t-16 -130.5q-12 -70 -29.5 -130.5t-57.5 -105.5t-110.5 -70.5t-191.5 -25.5t-184.5 25.5t-88 70.5t-20.5 106.5zM314.5 261.5q-3.5 -30.5 6 -56t37 -43t82.5 -17.5 t88 17.5t51.5 43t26.5 56t12 57.5t7.5 55.5t-6 53.5t-37 40t-82.5 15t-89 -15t-52.5 -40t-25.5 -53.5t-11 -55.5t-7.5 -57.5z" />
<glyph unicode="&#xe51;" horiz-adv-x="821" d="M111 -4q10 53 23 86t48 63q25 -10 54.5 -17t60.5 -11t59.5 -7.5t51.5 -3.5q74 0 126 35t64 107l12 74q4 27 7.5 55.5t-7 52t-38 38.5t-83.5 15q-55 0 -86.5 -5t-47 -15t-20.5 -25.5t-9 -36.5q-4 -23 -4 -34t10 -17t33.5 -7t66.5 -1q4 -27 1 -48.5t-5 -33.5 q-4 -14 -8 -34.5t-17 -49.5q-111 0 -169 16.5t-81.5 47t-21.5 73.5t12 95q6 43 21.5 87t53.5 79.5t109.5 58t192.5 22.5t184.5 -25.5t88 -69.5t19.5 -105.5t-17 -132.5l-11 -64q-16 -86 -52 -144.5t-88 -95t-119.5 -52t-147.5 -15.5q-55 0 -132 14.5t-134 30.5z" />
<glyph unicode="&#xe52;" horiz-adv-x="919" d="M117 125q-4 51 8 129l96 537q35 8 57.5 9t34.5 1t36 -1t57 -9l-99 -551q-10 -51 -2 -73t62 -22h235q53 0 67.5 21.5t24.5 73.5l11 61q4 25 9 54.5t4 57t-8.5 50t-27.5 35.5l-51 -21h-19l-47 23q-12 -6 -36.5 -24.5t-41.5 -35.5q-35 14 -49 26.5t-18 22.5q-4 4 -12.5 22.5 t-8.5 41.5q29 31 53.5 50.5t47 31.5t45 19.5t49.5 13.5l45 -35h18l56 35q78 -2 118.5 -37t58 -89.5t14.5 -120t-15 -130.5l-8 -37q-12 -78 -34 -129t-57.5 -81t-88 -42t-128.5 -12h-231q-76 0 -124 12t-72.5 42t-28.5 81z" />
<glyph unicode="&#xe53;" horiz-adv-x="849" d="M117 129q-4 49 8 125l8 37q12 68 30.5 126t52.5 105t88 81t138 52l80 -43h17l94 41q74 -2 116 -34.5t61 -85t19 -117t-10 -125.5l-51 -283q-35 -6 -57.5 -7t-34.5 -1t-36 1t-56 7l51 291q10 51 8 104.5t-37 79.5l-94 -28h-16l-80 28q-47 -25 -68.5 -82t-30.5 -110l-6 -33 q-10 -49 -4 -81t55 -32h72q4 -29 3 -42t-5 -29q-2 -10 -6 -27.5t-16 -46.5h-70q-72 0 -120 11.5t-73.5 40t-29.5 77.5z" />
<glyph unicode="&#xe54;" horiz-adv-x="872" d="M116 193.5q1 60.5 13 132.5q12 70 32.5 129t63.5 104t118 70.5t194 25.5q96 0 164.5 8.5t78.5 57.5l11 65q35 6 57 7.5t35 1.5q12 0 31.5 -1t54.5 -8l-11 -65q-16 -88 -58 -136t-102.5 -70.5t-135 -27t-156.5 -4.5q-57 0 -93 -15t-56.5 -38.5t-31 -51.5t-14.5 -54 q-14 -86 11.5 -131.5t119.5 -47.5q-16 33 -14 72t4 47l25 133h239q0 -31 -2 -52t-6 -34q-4 -20 -8 -34.5t-10 -36.5h-62q-2 -27 9.5 -61t52.5 -34h151q4 -29 2 -44t-4 -27q-4 -12 -8 -34t-16 -50h-375q-119 0 -184.5 25.5t-93 71.5t-26.5 106.5z" />
<glyph unicode="&#xe55;" horiz-adv-x="872" d="M116 193.5q1 60.5 13 132.5q8 55 23.5 104t42 90t68.5 71t108 46q-10 20 -15.5 44t0.5 52q10 63 62.5 107.5t116.5 44.5q63 0 99 -44t25 -108q-8 -43 -34 -78q63 4 105 16.5t50 49.5l11 65q35 6 57 7.5t35 1.5q12 0 31.5 -1t54.5 -8l-11 -65q-16 -88 -58 -136 t-102.5 -70.5t-135 -27t-156.5 -4.5q-57 0 -93 -15t-56.5 -38.5t-31 -51.5t-14.5 -54q-14 -86 11.5 -131.5t119.5 -47.5q-16 33 -14 72t4 47l25 133h239q0 -31 -2 -52t-6 -34q-4 -20 -8 -34.5t-10 -36.5h-62q-2 -27 9.5 -61t52.5 -34h151q4 -29 2 -44t-4 -27q-4 -12 -8 -34 t-16 -50h-375q-119 0 -184.5 25.5t-93 71.5t-26.5 106.5zM473 733q-4 -14 5 -24.5t24 -10.5q16 0 27.5 10.5t15.5 24.5q2 16 -6.5 26.5t-24.5 10.5q-14 0 -26.5 -10t-14.5 -27z" />
<glyph unicode="&#xe56;" horiz-adv-x="837" d="M131 140q0 38 6 71q6 39 16.5 72.5t37 56t75.5 36t135 13.5q0 -31 -1 -49t-5 -33q-2 -12 -7 -32.5t-15 -51.5q-37 0 -45.5 -11t-10.5 -26q-2 -12 1.5 -19t18.5 -12t44 -7.5t78 -2.5q55 0 87 11.5t50 34t26.5 56.5t16.5 79l4 28q12 72 -29 100.5t-112 28.5q-33 0 -68 -5 t-94 -36q-23 -4 -36 -4h-25h-29.5t-42.5 4q-4 31 -6 58.5t-4 63.5t-4.5 88.5t-4.5 131.5q33 8 57.5 9.5t39.5 1.5q10 0 32.5 -1t53.5 -10l6 -166q49 29 88 33t61 4q80 0 142.5 -16t102.5 -53t54.5 -95.5t-0.5 -142.5l-2 -22q-12 -72 -30.5 -132.5t-58.5 -106.5t-110.5 -71.5 t-191.5 -25.5t-184.5 22.5t-90 56t-26.5 71.5z" />
<glyph unicode="&#xe57;" horiz-adv-x="1103" d="M117 129q-4 49 8 125l8 37q12 68 30.5 126t52.5 105t88 81t138 52l80 -43h17l94 41q74 -2 116 -34.5t61 -85t19 -117t-10 -125.5l-26 -146q12 0 24 1t23.5 8.5t20.5 24t16 44.5l100 578q35 8 58.5 9t35.5 1t35.5 -1t54.5 -9l-98 -568q-14 -76 -45 -120.5t-76 -69.5 t-104.5 -34t-128.5 -9h-35q-10 0 -30.5 1t-59.5 7l51 291q10 51 8 104.5t-37 79.5l-94 -28h-16l-80 28q-47 -25 -68.5 -82t-30.5 -110l-6 -33q-10 -49 -4 -81t55 -32h72q4 -29 3 -42t-5 -29q-2 -10 -6 -27.5t-16 -46.5h-70q-72 0 -120 11.5t-73.5 40t-29.5 77.5z" />
<glyph unicode="&#xe58;" horiz-adv-x="845" d="M117 200.5q0 59.5 10 123.5q10 57 29.5 115.5t62.5 106.5t117 78.5t192 30.5q94 0 150.5 8.5t66.5 57.5l9 53q35 6 53 7t33 1q10 0 27.5 -1t52.5 -7l-9 -53q-16 -88 -52 -136t-89 -70.5t-121.5 -27t-150.5 -4.5q-55 0 -90 -15t-54.5 -38.5t-29 -51.5t-13.5 -54 q-8 -51 -8 -100.5t37 -78.5q23 8 52.5 20.5t49.5 18.5h19l88 -39q29 10 39 26.5t14 43.5l6 31q2 10 -7 12t-52 2h-60q2 33 2.5 47.5t2.5 28.5q4 12 8 32.5t14 49.5h59q74 0 121 -3t72 -18.5t30 -50.5t-5 -98l-5 -21q-12 -72 -25 -111.5t-41 -62t-76 -35t-132 -30.5l-78 53 h-18l-101 -51q-76 2 -118.5 30.5t-62 74.5t-19.5 105.5z" />
<glyph unicode="&#xe59;" horiz-adv-x="839" d="M118 131q-5 49 9 125l6 35q12 70 29.5 135.5t50.5 116.5t86 81.5t133 30.5h41q35 0 72 -10t63 -43q33 33 61.5 43t51.5 10q2 0 12 1t21.5 5.5t20.5 12.5t13 24l15 88q35 6 52.5 7.5t31.5 1.5q10 0 32.5 -1t57.5 -8l-14 -88q-6 -31 -27 -68.5t-55.5 -69.5t-82.5 -54.5 t-108 -22.5h-10q20 -78 19 -192.5t-29 -280.5q-33 -4 -55.5 -7t-36.5 -3q-10 0 -33 3t-56 7q23 129 27 219t-6 146.5t-31.5 82t-48.5 25.5h-18q-23 0 -39.5 -19.5t-26.5 -49t-17 -63.5t-12 -60l-6 -35q-10 -47 -3 -73.5t57 -26.5h73q0 -29 -1 -46.5t-5 -31.5q-4 -25 -20 -76 h-72q-72 0 -120 11.5t-72.5 40t-29.5 77.5z" />
<glyph unicode="&#xe5a;" horiz-adv-x="1034" d="M165 626q1 36 5 58l23 125q35 8 58 9t36 1q12 0 35.5 -1t54.5 -9l-23 -127q-2 -10 0 -21.5t11.5 -21.5t28 -17.5t48.5 -7.5q33 0 54.5 7.5t35 18.5t18.5 22.5t7 21.5l23 125q35 8 58.5 9t35.5 1t35.5 -1t54.5 -9l-162 -922q-35 -8 -58.5 -9t-35.5 -1t-34.5 1t-55.5 9 l102 582q-45 -10 -90 -10h-29q-98 6 -148 33.5t-69.5 62.5t-18.5 71zM727 -113q33 -8 55.5 -9t34.5 -1t36 1t58 9l162 922q-31 8 -54.5 9t-35.5 1t-35.5 -1t-58.5 -9z" />
<glyph unicode="&#xe5b;" />
<glyph unicode="&#x2000;" horiz-adv-x="844" />
<glyph unicode="&#x2001;" horiz-adv-x="1688" />
<glyph unicode="&#x2002;" horiz-adv-x="844" />
<glyph unicode="&#x2003;" horiz-adv-x="1688" />
<glyph unicode="&#x2004;" horiz-adv-x="562" />
<glyph unicode="&#x2005;" horiz-adv-x="422" />
<glyph unicode="&#x2006;" horiz-adv-x="281" />
<glyph unicode="&#x2007;" horiz-adv-x="281" />
<glyph unicode="&#x2008;" horiz-adv-x="211" />
<glyph unicode="&#x2009;" horiz-adv-x="337" />
<glyph unicode="&#x200a;" horiz-adv-x="93" />
<glyph unicode="&#x200b;" />
<glyph unicode="&#x2010;" horiz-adv-x="800" d="M176 332q0 16 2 37.5t4 36.5q4 16 8.5 31.5t16.5 49.5h555q4 -35 2 -50t-6 -31q-2 -14 -7.5 -36t-11.5 -38h-563z" />
<glyph unicode="&#x2011;" horiz-adv-x="800" d="M176 332q0 16 2 37.5t4 36.5q4 16 8.5 31.5t16.5 49.5h555q4 -35 2 -50t-6 -31q-2 -14 -7.5 -36t-11.5 -38h-563z" />
<glyph unicode="&#x2012;" horiz-adv-x="800" d="M176 332q0 16 2 37.5t4 36.5q4 16 8.5 31.5t16.5 49.5h555q4 -35 2 -50t-6 -31q-2 -14 -7.5 -36t-11.5 -38h-563z" />
<glyph unicode="&#x2013;" horiz-adv-x="1056" d="M176 332q0 16 2 37.5t4 36.5q4 16 8.5 31.5t16.5 49.5h811q4 -35 2 -50t-6 -31q-2 -14 -7.5 -36t-11.5 -38h-819z" />
<glyph unicode="&#x2014;" horiz-adv-x="1245" d="M176 332q0 16 2 37.5t4 36.5q4 16 8.5 31.5t16.5 49.5h999q4 -35 2 -50t-6 -31q-2 -14 -7 -36t-11 -38h-1008z" />
<glyph unicode="&#x2018;" horiz-adv-x="466" d="M256 819l152 271q31 6 44 7t25 1q16 0 25.5 -1t42.5 -10l-94 -270q-35 -8 -58 -9t-33 -1q-14 0 -41.5 1t-62.5 11z" />
<glyph unicode="&#x2019;" horiz-adv-x="399" d="M215 817l94 270q35 8 57.5 9.5t32.5 1.5q14 0 42 -1t63 -12l-152 -270q-31 -6 -44 -7t-25 -1q-16 0 -25.5 1t-42.5 9z" />
<glyph unicode="&#x2022;" horiz-adv-x="616" d="M215 416q12 70 69.5 118t125.5 48q35 0 62.5 -14.5t45 -39t25.5 -56.5t2 -64q-12 -66 -68.5 -111t-126.5 -45q-68 0 -106.5 48t-28.5 116z" />
<glyph unicode="&#x2026;" horiz-adv-x="1146" d="M113 8l37 205q35 6 58 7t36 1q12 0 34.5 -1t55.5 -7l-37 -205q-35 -6 -57.5 -7t-34.5 -1t-36 1t-56 7zM481 8l37 205q35 6 58.5 7t35.5 1t35 -1t55 -7l-36 -205q-35 -6 -57.5 -7t-35.5 -1q-12 0 -35.5 1t-56.5 7zM850 8l37 205q35 6 58.5 7t35.5 1t34.5 -1t55.5 -7 l-37 -205q-35 -6 -57.5 -7t-34.5 -1t-35.5 1t-56.5 7z" />
<glyph unicode="&#x202f;" horiz-adv-x="337" />
<glyph unicode="&#x205f;" horiz-adv-x="422" />
<glyph unicode="&#x25cc;" horiz-adv-x="1048" />
<glyph unicode="&#xe000;" horiz-adv-x="819" d="M0 0v819h819v-819h-819z" />
<glyph unicode="&#xf700;" horiz-adv-x="774" d="M166 283q0 35 1 54t3 34q4 20 8 35.5t12 37.5h256l-32 -299h20q63 10 91 78t48 178l23 125q12 74 -31 102.5t-116 28.5q-23 0 -53.5 -3t-63.5 -7t-66 -11t-59 -15q-16 37 -20.5 73.5t6.5 87.5q31 8 68.5 17.5t76.5 15.5t75 10t64 4q14 0 28.5 -1t29.5 -1l2 21 q10 14 32.5 27.5t50 23.5t56.5 17.5t47 7.5h121q2 -18 -1 -38t-5 -30q-2 -14 -7.5 -35.5t-15.5 -36.5h-76q-2 0 -12 1t-14 10l-4 -23q47 -35 66.5 -97.5t2.5 -158.5l-20 -115q-14 -78 -39 -151.5t-69 -132t-110.5 -93t-164.5 -34.5q-12 0 -35 1t-47.5 4t-46 11t-33.5 25 l29 252h-76z" />
<glyph unicode="&#xf701;" d="M-660 1023.5q1 16.5 5 39.5q4 29 9 43t15 29h49q37 4 60.5 7t41 4t33 2t35.5 1h289q2 -16 0 -35.5t-6 -36.5q-4 -16 -8 -35.5t-15 -48.5h-503q-6 14 -5 30.5z" />
<glyph unicode="&#xf702;" d="M-657 1040.5q0 20.5 4 36.5q4 14 7 28.5t13 43.5h180q39 0 69 -5t65 -22h16l18 103q29 4 47.5 5t47.5 1q23 0 40 -2t46 -15q-6 -33 -10.5 -56t-10.5 -48t-16.5 -51.5t-28.5 -65.5h-479q-8 27 -8 47.5z" />
<glyph unicode="&#xf703;" d="M-657 1034.5q0 18.5 4 34.5q2 12 6 32.5t14 47.5h205q47 0 88 -8q16 41 54 67.5t79 26.5q53 0 82 -35t21 -84q-10 -51 -50.5 -85t-95.5 -38h-401q-6 23 -6 41.5z" />
<glyph unicode="&#xf704;" d="M-670 1040.5q0 20.5 4 36.5q4 14 7.5 28.5t13.5 43.5h27q20 0 32.5 -2t46.5 -17h13l16 95q14 4 29.5 5t42.5 1q18 0 43.5 -2t42.5 -10l-15 -89h66l16 95q29 4 47.5 5t47.5 1q23 0 40 -2t46 -15q-6 -33 -10.5 -56t-10.5 -48t-16.5 -51.5t-28.5 -65.5h-492q-8 27 -8 47.5z " />
<glyph unicode="&#xf705;" d="M-352 1006l39 221q35 10 53 12t35 2q14 0 31.5 -1t54.5 -11l-39 -225q-41 -8 -58.5 -9.5t-31.5 -1.5q-16 0 -33.5 1t-50.5 12z" />
<glyph unicode="&#xf706;" d="M-633 1165q2 14 5 27.5t18 44.5h143q29 0 48.5 -3t41.5 -9l-18 -103h16q41 16 72 21.5t71 5.5h84q6 -31 4 -53.5t-4 -34.5q-4 -16 -8 -30.5t-24 -37.5h-398q-4 31 -3 44.5t3 23.5l4 20h-51q-10 47 -4 84z" />
<glyph unicode="&#xf707;" d="M-705 1001q8 51 14.5 85t10.5 57q4 25 6 39q16 94 66.5 129t101.5 35h23q47 0 68.5 -16.5t17.5 -43.5h22q4 27 28.5 43.5t72.5 16.5h24q25 0 47.5 -8.5t37.5 -27t21.5 -50t-1.5 -78.5q0 -10 -2 -19l-4.5 -18t-4.5 -21h29q4 -14 3 -31.5t-3 -31.5q-2 -10 -6 -28.5 t-12 -39.5h-125q-25 0 -36 3t-28 8l29 159q4 27 -10 27h-11q-14 0 -18 -6t-10 -29l-4 -22q-37 -6 -60 -7q-16 0 -53 7l4 22q4 23 -2 29t-20 6h-11q-14 0 -18 -27l-8 -39h37q4 -14 3 -31.5t-3 -31.5q-2 -10 -6.5 -28.5t-12.5 -39.5h-96q-25 0 -55.5 2t-45.5 6z" />
<glyph unicode="&#xf708;" d="M-478 1123.5q1 17.5 5 35.5q4 14 8 32.5t16 49.5h64l14 74q35 10 53.5 12t34.5 2q14 0 32 -1t54 -11l-14 -76h64q4 -31 1.5 -49.5t-6.5 -32.5q-4 -18 -9 -35.5t-21 -44.5h-58l-12 -75q-41 -8 -58.5 -9.5t-31.5 -1.5q-16 0 -33.5 1t-50.5 12l12 73h-57q-8 27 -7 44.5z" />
<glyph unicode="&#xf709;" d="M-567 1014q12 66 26.5 108.5t34.5 91.5h356q4 -27 3.5 -39t-5.5 -28q-2 -12 -7 -36t-15 -52h-55q-39 0 -77 5t-73 21l-14 -79q-27 -6 -47.5 -9.5t-48.5 -3.5q-23 0 -37.5 4t-40.5 17z" />
<glyph unicode="&#xf70a;" d="M-92 1006l39 221q35 10 52 12t34 2q14 0 31.5 -1t54.5 -11l-39 -225q-41 -8 -58.5 -9.5t-29.5 -1.5q-16 0 -33.5 1t-50.5 12z" />
<glyph unicode="&#xf70b;" d="M-319 1165q2 14 5 27.5t17 44.5h143q29 0 48.5 -3t42.5 -9l-19 -103h16q41 16 71 21.5t71 5.5h84q6 -31 4 -53.5t-4 -34.5q-4 -16 -8.5 -30.5t-24.5 -37.5h-395q-4 31 -3 44.5t3 23.5l4 20h-51q-10 47 -4 84z" />
<glyph unicode="&#xf70c;" d="M-496 1001q8 51 14.5 85t10.5 57q4 25 6 39q8 47 27.5 78.5t44 50t53.5 27t53 8.5h23q47 0 75.5 -16.5t24.5 -43.5h23q4 27 35.5 43.5t78.5 16.5h25q23 0 46.5 -8.5t40.5 -27t25.5 -50t0.5 -78.5q0 -10 -2 -19l-4.5 -18t-4.5 -21h50q4 -14 3 -31.5t-3 -31.5 q-2 -10 -6.5 -28.5t-12.5 -39.5h-143q-25 0 -38 2t-28 6q12 63 19.5 100.5t11.5 61.5q2 12 -5 19.5t-16 7.5h-10q-14 0 -18 -6t-10 -29l-5 -22q-18 -4 -40.5 -5.5t-32.5 -1.5t-29.5 1t-38.5 6l4 22q4 23 -2 29t-20 6h-11q-8 0 -17 -7t-11 -20l-8 -39h36q4 -14 3 -31.5 t-3 -31.5q-2 -10 -6 -28.5t-12 -39.5h-96q-25 0 -55.5 2t-45.5 6z" />
<glyph unicode="&#xf70d;" d="M-144 1123.5q1 17.5 5 35.5q4 14 8 32.5t16 49.5h64l14 74q35 10 52.5 12t33.5 2q14 0 31.5 -1t54.5 -11l-14 -76h63q4 -31 2 -49.5t-6 -32.5q-4 -18 -9 -35.5t-21 -44.5h-58l-12 -75q-41 -8 -58.5 -9.5t-29.5 -1.5q-16 0 -33.5 1t-50.5 12l12 73h-57q-8 27 -7 44.5z" />
<glyph unicode="&#xf70e;" d="M-276 1014q12 66 26 108.5t35 91.5h354q4 -27 3 -39t-5 -28q-2 -12 -7 -36t-15 -52h-56q-39 0 -75.5 5t-71.5 21l-14 -79q-27 -6 -47.5 -9.5t-49.5 -3.5q-23 0 -37 4t-40 17z" />
<glyph unicode="&#xf70f;" horiz-adv-x="1302" d="M109 10l81 457q10 66 33 106.5t45 63.5l4 20h-61l22 123q74 20 150 34.5t158 14.5q188 0 266 -92t43 -284l-41 -238q-6 -39 20.5 -54.5t92.5 -15.5q70 0 100.5 15.5t36.5 54.5l104 594q35 8 58.5 9t35.5 1t36 -1t55 -9l-105 -594q-6 -39 -22.5 -79t-53.5 -72.5t-98 -53 t-160 -20.5h-26q-98 0 -153.5 20.5t-81 53t-28 72.5t4.5 79l41 231q8 43 4 81t-22.5 68t-51.5 46t-84 16h-45q-25 -33 -42 -62.5t-27.5 -53t-15.5 -39t-5 -17.5l-58 -329h93q2 -18 0 -35t-6 -41q-6 -39 -21 -80h-186q-10 0 -33 3t-57 7z" />
<glyph unicode="&#xf710;" d="M-602 1058.5q0 26.5 2 51.5t6 48.5t8 55.5q31 12 49.5 14.5t40.5 2.5q29 0 47.5 -1t47.5 -5l-19 -103h17q41 16 71.5 21.5t69.5 5.5h131v-43t-4 -29q-4 -16 -10.5 -36.5t-22.5 -47.5h-430q-4 39 -4 65.5z" />
<glyph unicode="&#xf711;" d="M-467 1112q6 33 24.5 62.5t44 51t56 35t63.5 13.5q68 0 107 -48t27 -114q-6 -33 -23.5 -62.5t-43.5 -51t-58.5 -34t-65.5 -12.5q-66 0 -103.5 47.5t-27.5 112.5zM-348 1112q-4 -18 7.5 -29.5t27.5 -11.5q43 0 49 41q10 43 -35 43q-39 0 -49 -43z" />
<glyph unicode="&#xf712;" d="M-672 1128q4 29 8 52q4 20 7.5 40.5t5.5 30.5q16 96 70.5 128t136.5 32h424q2 -20 -1.5 -41.5t-5.5 -32.5q-4 -14 -9 -40.5t-15 -41.5h-400q-31 0 -38 -13t-11 -23l-8 -54q-4 -12 -2 -23.5t21 -11.5h8q27 0 32 9.5t9 31.5l4 23q20 4 39.5 5t29.5 1t30 -1t36 -5l-4 -23 q-4 -23 -2 -32t24 -9h11q16 0 19 11.5t7 23.5l4 27q39 6 64 6q10 0 29.5 -1t39.5 -5q0 -2 -2 -11.5t-3 -19.5t-3 -17l-2 -7q-10 -53 -33.5 -82t-50.5 -43q-31 -16 -65 -19h-17q-47 0 -74.5 16.5t-23.5 43.5h-23q-4 -27 -32.5 -43.5t-75.5 -16.5h-35q-8 0 -31.5 2t-47 14.5 t-39 40t-5.5 78.5z" />
<glyph unicode="&#xf713;" d="M-254 1348l39 221q35 10 53.5 12t34.5 2q14 0 31.5 -1t54.5 -11l-41 -225q-41 -8 -58.5 -9.5t-31.5 -1.5q-16 0 -33.5 1t-48.5 12z" />
<glyph unicode="&#xf714;" d="M-481 1507q4 14 7 27.5t15 44.5h144q29 0 48 -3t42 -9l-17 -103h17q41 16 71.5 21.5t71.5 5.5h82q4 -31 3 -53.5t-3 -34.5q-2 -16 -7 -30.5t-26 -37.5h-397q-4 31 -3 44.5t3 23.5l4 20h-51q-10 47 -4 84z" />
<glyph unicode="&#xf715;" d="M-631 1343q10 51 14.5 83t8.5 51q4 23 6 30q16 94 66.5 137.5t101.5 43.5h22q47 0 76 -16.5t25 -43.5h22q4 27 36 43.5t79 16.5h22q47 0 81 -42t18 -139q-2 -4 -2 -10q-2 -4 -2 -12t-2 -19h61q4 -14 3 -31.5t-5 -31.5q0 -10 -3 -28.5t-13 -39.5h-146q-25 0 -37 2t-28 6 q12 63 19 100.5t11 61.5q4 12 -4 19.5t-16 7.5h-10q-14 0 -21.5 -6t-13.5 -29l-2 -20q-41 -6 -68 -7q-10 0 -27.5 1.5t-33.5 5.5l2 20q4 23 -5.5 29t-23.5 6h-10q-8 0 -16.5 -7t-12.5 -20l-6 -39h41q4 -14 3 -31.5t-5 -31.5q-2 -10 -5 -28.5t-13 -39.5h-101q-25 0 -47 2 t-39 6z" />
<glyph unicode="&#xf716;" d="M-306 1465.5q1 17.5 5 35.5q2 14 6 32.5t19 49.5h63l12 74q35 10 53.5 12t34.5 2q14 0 32 -1t54 -11l-12 -76h62q2 -31 -0.5 -49.5t-4.5 -32.5q-4 -18 -8 -35.5t-20 -44.5h-58l-14 -75q-41 -8 -58.5 -9.5t-31.5 -1.5q-16 0 -33.5 1t-48.5 12l12 73h-57q-8 27 -7 44.5z " />
<glyph unicode="&#xf717;" d="M-434 1356q14 66 28.5 108.5t34.5 91.5h357q4 -27 2 -39t-4 -28q-4 -12 -9.5 -35.5t-15.5 -52.5h-55q-39 0 -76 5t-74 21l-12 -79q-27 -6 -48.5 -9.5t-49.5 -3.5q-23 0 -36.5 4t-41.5 17z" />
<glyph unicode="&#xf718;" d="M-430 -623q0 29 2 49.5t6 38.5q4 16 10 41t19 43q70 0 124 -4t89 -30l-47 -269q-29 -10 -47.5 -11t-34.5 -1q-12 0 -29.5 1t-54.5 11l8 54q4 14 7 26t13 37l3 14h-68z" />
<glyph unicode="&#xf719;" d="M-627 -616q4 25 4 37t5 44q4 23 9 39.5t23 44.5q72 0 109 -4t71 -30l-30 -174h69l35 200q39 6 51.5 7t24.5 1q16 0 30.5 -1t49.5 -11l-49 -276q-23 -14 -50.5 -21.5t-55 -10.5t-51.5 -4t-36 -1q-43 0 -88 6t-102 25l10 53q6 29 18 55l2 21h-49z" />
<glyph unicode="&#xf71a;" d="M-406 -557q8 45 44 75.5t81 30.5t71 -30.5t17 -75.5q-10 -45 -45.5 -76t-80.5 -31t-71 31t-16 76z" />
<glyph unicode="&#xf71d;" horiz-adv-x="972" d="M127 25l86 782q35 10 57.5 11t38.5 1q18 0 38 -1t42 -9l-88 -664h21l4 21l108 244q29 10 76 12t63 2h25.5t38 -2t40 -4t32.5 -8l22 -244l-4 -21h21l4 21l51 246q8 47 6 74.5t-27 27.5h-96l3 52.5t5 29.5q2 12 5 27.5t16 52.5h86q14 0 23.5 10t14.5 23.5t8 28t5 24.5l8 47 q29 8 57.5 9t40.5 1q16 0 35 -2t51 -8l-8 -49q-2 -10 -8 -30.5t-19.5 -43t-37 -45.5t-58.5 -37l-4 -20q43 -23 61.5 -60t4.5 -108l-94 -391q-53 -18 -90 -21.5t-68 -3.5q-35 0 -81 3t-83 20l-6 227l4 20h-20l-5 -20l-88 -227q-41 -16 -87 -19.5t-81 -3.5q-31 0 -66.5 3 t-82.5 22z" />
<glyph horiz-adv-x="616" d="M-467 1112q6 33 24.5 62.5t44 51t56 35t63.5 13.5q68 0 107 -48t27 -114q-6 -33 -23.5 -62.5t-43.5 -51t-58.5 -34t-65.5 -12.5q-66 0 -103.5 47.5t-27.5 112.5zM-348 1112q-4 -18 7.5 -29.5t27.5 -11.5q43 0 49 41q10 43 -35 43q-39 0 -49 -43zM132.5 699.5 q-5.5 31.5 4.5 84.5q39 16 78 25.5t71.5 13.5t57.5 5t33 1q82 0 132 -22.5t74.5 -61t27.5 -91t-7 -109.5l-94 -537q-35 -6 -57.5 -7t-34.5 -1t-36 1t-56 7l96 539q2 16 3 35.5t-6 36t-23.5 27.5t-49.5 11q-41 0 -87 -4t-105 -22q-16 37 -21.5 68.5z" />
<glyph />
<glyph />
<glyph />
<glyph horiz-adv-x="1255" d="M113 514q0 109 41 203t110.5 164.5t163 111.5t199.5 41q109 0 203 -41t164.5 -111.5t111.5 -164.5t41 -203q0 -106 -41 -199.5t-111.5 -163t-165 -110.5t-202.5 -41q-106 0 -199.5 41t-163 110.5t-110.5 163t-41 199.5zM348 373q0 -86 58.5 -137.5t150.5 -51.5 q23 0 45.5 1t42.5 5v111l-12 8q-14 -6 -24.5 -7t-22.5 -1q-33 0 -62.5 18.5t-29.5 65.5q0 16 7 27.5t31.5 19.5t70.5 16.5t122 20.5v-145q0 -74 20.5 -107t81.5 -33h19q29 0 47 11.5t18 44.5q0 35 -11 48t-38 13v272q0 53 -19.5 88t-45.5 58q10 4 19 4h20h19t19 -4h23v133 q-63 -8 -125.5 -23.5t-109.5 -42.5q-18 4 -35 4.5t-41 0.5q-47 0 -90 -6.5t-90 -22.5v-129h12q39 12 81 22.5t74 10.5q18 0 44 -1t50.5 -9.5t41 -27t16.5 -50.5l-168 -17q-37 -4 -74 -12t-67.5 -28.5t-49 -55.5t-18.5 -92z" />
</font>
</defs>
</svg>
