<?xml version="1.0" standalone="no"?>
<!DOCTYPE svg PUBLIC "-//W3C//DTD SVG 1.1//EN" "http://www.w3.org/Graphics/SVG/1.1/DTD/svg11.dtd" >
<svg xmlns="http://www.w3.org/2000/svg">
<metadata></metadata>
<defs>
<font id="pestobookitalic" horiz-adv-x="0" >
<font-face units-per-em="2048" ascent="1638" descent="-410" />
<missing-glyph horiz-adv-x="378" />
<glyph unicode="&#x3b;&#x3b;For&#x20;Education&#x20;Used&#x20;Only&#x3b;&#x3b;" horiz-adv-x="1249" d="M203 512q18 109 74.5 204t137.5 165.5t182 111.5t210 41t194.5 -41t142 -111.5t79 -165.5t4.5 -204t-74.5 -204t-138.5 -165.5t-182.5 -111.5t-208.5 -41q-109 0 -195 41t-142.5 111.5t-79 165.5t-3.5 204zM291 512q-16 -84 5 -162t68.5 -138t118 -97t154.5 -37t167 37 t152.5 97t117.5 138t65 162q14 84 -7.5 162t-68.5 138t-118 97t-154 37q-84 0 -167 -37t-153 -97t-118 -138t-62 -162zM425 307q-11 45 1 111l33 180q23 131 105.5 182t205.5 51q20 0 48 -2t56.5 -5t56 -8t48.5 -11q-4 -27 -13.5 -41t-25.5 -33q-35 10 -91 14.5t-95 4.5 q-72 0 -130.5 -34t-70.5 -112l-35 -192q-14 -78 32 -112t118 -34q39 0 97 4t97 15q10 -18 13.5 -32.5t-1.5 -41.5q-47 -14 -111.5 -20.5t-107.5 -6.5q-61 0 -109 11.5t-79 39t-42 72.5z" />
<glyph unicode="&#x3b;&#x3b;Registered&#x3b;&#x3b;" horiz-adv-x="1269" d="M199 512q18 109 75.5 204t141.5 165.5t186 111.5t211 41t196 -41t145 -111.5t83 -165.5t6 -204q-18 -109 -76.5 -204t-141.5 -165.5t-185.5 -111.5t-210.5 -41q-109 0 -197 41t-146.5 111.5t-82 165.5t-4.5 204zM287 512q-16 -84 6 -162t72.5 -138t122 -97t155.5 -37 t169 37t155.5 97t121 138t66.5 162q14 84 -8.5 162t-72.5 138t-121.5 97t-155.5 37t-169 -37t-156 -97t-121 -138t-64 -162zM453 215l108 616h264q43 0 81 -4t62.5 -24.5t33 -61.5t-6.5 -116q-16 -86 -42.5 -129t-61.5 -62l33 -217q-16 -8 -43 -8q-10 0 -24.5 1t-22.5 5 l-33 201h-221l-35 -201q-14 -4 -28.5 -5t-20.5 -1q-16 0 -43 6zM594 496h141q20 0 47 2t50.5 14t43 37.5t27.5 75.5q8 47 -2 72.5t-29.5 36.5t-45 13.5t-46.5 2.5h-141z" />
<glyph unicode="&#x3b;&#x3b;Multiply&#x3b;&#x3b;" horiz-adv-x="847" d="M139 160l285 229l-188 227q8 10 11 17.5t21 21.5q12 10 22.5 15.5t22.5 13.5l191 -227l268 227l19.5 -13t17.5 -16q12 -14 14 -21t6 -18l-270 -227l203 -229q-16 -16 -25.5 -24.5t-17.5 -14.5q-16 -12 -51 -29l-189 227l-270 -227q-31 16 -39 29q-4 6 -12 14t-19 25z" />
<glyph unicode="&#x3b;&#x3b;Divide&#x3b;&#x3b;" horiz-adv-x="966" d="M178 358q0 12 1 22.5t3 20.5t4 18.5t9 16.5h729q4 -10 3 -19t-3 -20q-4 -18 -13 -43zM444 63l23 130q16 4 28.5 5t20.5 1q10 0 20.5 -1t26.5 -5l-22 -130q-18 -4 -29.5 -5t-19.5 -1q-10 0 -21.5 1t-26.5 5zM541 606l22 129q16 4 27.5 5t19.5 1q10 0 21.5 -1t27.5 -5 l-22 -129q-18 -4 -29.5 -5t-19.5 -1q-10 0 -21.5 1t-25.5 5z" />
<glyph unicode="&#x2018;&#x2018;" horiz-adv-x="524" d="M268 889q31 57 60.5 105t58.5 102q10 2 16.5 2h16.5q12 0 20 -2l-75 -205q-16 -2 -31 -3t-23 -1h-20t-23 2zM432 889q31 57 60.5 105t58.5 102q10 2 16 2h17q12 0 20 -2l-76 -205q-16 -2 -30.5 -3t-22.5 -1h-20.5t-22.5 2z" />
<glyph unicode="&#x2019;&#x2019;" horiz-adv-x="524" d="M268 889l76 205q16 2 30.5 3t22.5 1h20.5t22.5 -2q-31 -57 -60.5 -105.5t-57.5 -101.5q-10 -2 -16.5 -2h-16.5q-12 0 -21 2zM432 889l76 205q16 2 30.5 3t22.5 1h20.5t22.5 -2q-31 -57 -60.5 -105.5t-58.5 -101.5q-10 -2 -16 -2h-16q-12 0 -21 2z" />
<glyph unicode="&#x3b;&#x3b;Trademark&#x3b;&#x3b;" horiz-adv-x="1300" d="M285 958q2 14 1 17.5t-1 9.5q2 8 5 16.5t7 22.5h424q-2 -14 -2 -22.5t-2 -14.5q0 -8 -2 -11t-6 -18h-174l-99 -559q-12 -2 -21 -3t-16 -1q-8 0 -15 1t-22 3l99 559h-176zM692 401l109 613q23 8 42 9t42 1q20 0 28.5 -1t26.5 -9l45 -559l242 559q23 8 31 9t28 1 q23 0 41.5 -1t38.5 -9l-109 -613q-8 -6 -34 -6h-19.5t-19.5 4l100 568h-16l-2 -13l-234 -555q-10 -4 -27.5 -4h-27.5h-29.5t-27.5 4l-39 555l2 13h-17l-100 -568q-10 -4 -19.5 -4h-19.5q-27 0 -35 6z" />
<glyph unicode="&#xe24;&#xe32;" horiz-adv-x="1359" d="M109 4l88 498q8 53 28.5 94t42 68.5t39 43t21.5 17.5l2 12h-105l8 49q74 23 142.5 33t146.5 10q186 0 266 -91t46 -281l-152 -854q-16 -4 -27.5 -4h-21.5h-20.5t-28.5 4l149 848q10 61 4 113t-32.5 90t-74.5 60.5t-120 22.5h-78q-45 -49 -70.5 -93t-42.5 -77 q-18 -37 -26 -69l-72 -406h109q0 -27 -4 -47q0 -6 -3.5 -19.5t-7.5 -25.5h-159q-8 0 -19.5 1t-27.5 3zM921 760q-1 16 3 39q31 12 65.5 18t65 9t53 3h31.5q76 0 123 -20.5t70.5 -57t26.5 -86t-7 -104.5l-170 -958q-16 -4 -28.5 -4h-23.5h-19t-28 4l170 960q4 27 5.5 57.5 t-10 56t-41 43t-85.5 17.5q-45 0 -95 -2t-97 -14q-8 23 -9 39z" />
<glyph unicode="&#xe26;&#xe32;" horiz-adv-x="1394" d="M66 0q0 12 1 25.5t1 19.5q2 8 5 19.5t7 27.5h78l73 410q8 53 29 94t42.5 68.5t38.5 43t21 17.5l3 12h-105l8 49q74 23 142.5 33t146.5 10q186 0 266 -91t45 -281l-151 -854q-16 -4 -27.5 -4h-21.5h-20.5t-29.5 4l150 848q10 61 4 113t-32.5 90t-75 60.5t-119.5 22.5h-78 q-45 -49 -70.5 -93t-42.5 -77q-18 -37 -26 -69l-86 -494q-16 -2 -27.5 -3t-19.5 -1h-129zM955.5 760q-1.5 16 2.5 39q31 12 66 18t65.5 9t53 3h31.5q76 0 122.5 -20.5t70.5 -57t27 -86t-8 -104.5l-169 -958q-16 -4 -28.5 -4h-23.5h-19t-28 4l170 960q4 27 5 57.5t-10 56 t-41 43t-85 17.5q-45 0 -95 -2t-97 -14q-8 23 -9.5 39z" />
<glyph unicode="&#xd;" horiz-adv-x="579" />
<glyph unicode=" "  horiz-adv-x="378" />
<glyph unicode="&#x09;" horiz-adv-x="378" />
<glyph unicode="&#xa0;" horiz-adv-x="378" />
<glyph unicode="!" horiz-adv-x="331" d="M119 6q16 -4 27.5 -5t21.5 -1q8 0 19.5 1t27.5 5l23 129q-16 4 -27 5t-21 1q-8 0 -20 -1t-29 -5zM158 227q35 199 69.5 399.5t63.5 393.5q16 2 31.5 3t23.5 1t22.5 -1t30.5 -3q-39 -193 -75.5 -393.5t-75.5 -399.5q-18 -6 -43 -6q-27 0 -47 6z" />
<glyph unicode="&#x22;" horiz-adv-x="477" d="M279 829q8 72 13 134.5t13 130.5q16 2 27.5 3t19.5 1q10 0 21.5 -1t27.5 -3q-16 -66 -35.5 -132.5t-35.5 -132.5q-8 -4 -27 -4q-14 0 -24 4zM434 829q8 72 13.5 134.5t13.5 130.5q16 2 27.5 3t19.5 1q10 0 21.5 -1t27.5 -3q-16 -66 -35.5 -132.5t-36.5 -132.5 q-8 -4 -26 -4q-15 0 -25 4z" />
<glyph unicode="#" horiz-adv-x="1222" d="M162 4l139 287h-135q-2 6 -1 10t1 8l4 17q2 10 4 19t6 26h160l154 317h-172q-2 8 2 21l2 16q2 10 5 19.5t7 25.5h192l121 252q12 2 24.5 2h24.5q18 0 39 -4l-118 -250h366l119 252q14 2 26.5 2h24.5q18 0 39 -4l-119 -250h164l-4 -43q-2 -8 -3 -16.5t-5 -22.5h-191 l-155 -317h198l-2 -43q-2 -8 -3 -16.5t-5 -20.5h-223l-139 -285q-18 -6 -50 -6h-20t-21 4l140 287h-367l-139 -285q-18 -6 -49 -6h-20.5t-20.5 4zM426 371h371l151 317h-366z" />
<glyph unicode="$" horiz-adv-x="980" d="M119 72q4 27 18.5 50t30.5 38q76 -45 151.5 -59.5t133.5 -18.5l71 407q-59 18 -113.5 41t-94.5 53.5t-60 74.5t-10 106q25 139 123 199.5t252 70.5l18 111q16 4 27.5 4h19.5h22.5t28.5 -4l-18 -111q72 -2 150.5 -10t131.5 -27q-4 -25 -13 -46t-21 -44q-43 14 -118 22.5 t-149 10.5l-67 -385q59 -18 114.5 -39.5t97.5 -52.5t62.5 -74t10.5 -102q-16 -96 -55.5 -154.5t-91.5 -89.5t-113.5 -41t-122.5 -12l-21 -111q-16 -4 -28.5 -4h-20.5h-21.5t-27.5 4l20 111q-41 2 -88 8t-92 15.5t-81 23.5t-56 35zM344 764q-6 -35 7.5 -61.5t41 -48t65.5 -38 t83 -30.5l61 354q-119 -10 -181.5 -57t-76.5 -119zM551 82q39 2 82 10t81 29.5t65.5 60.5t39.5 105q6 35 -8 60.5t-42 46t-67.5 36.5t-85.5 31z" />
<glyph unicode="%" horiz-adv-x="1163" d="M233 696l33 176q6 39 27.5 68t51.5 47.5t65.5 27.5t72.5 9t69 -9t55.5 -27.5t34.5 -47.5t5 -68l-33 -176q-14 -86 -76.5 -118.5t-140.5 -32.5q-39 0 -71.5 7t-55 25.5t-33 47t-4.5 71.5zM311 6l617 1012q16 4 25.5 5t25.5 1q20 0 28.5 -3t18.5 -9l-614 -1000 q-12 -6 -21.5 -9t-30.5 -3q-16 0 -25 1t-24 5zM326 696q-4 -29 12 -50t74 -21q57 0 82.5 21.5t29.5 49.5l33 176q2 20 -14.5 47t-73.5 27t-82 -26.5t-29 -47.5zM694 150l33 176q6 39 27.5 67.5t51.5 47t65.5 27.5t72.5 9t68.5 -9t55.5 -27.5t35 -47t5 -67.5l-33 -176 q-16 -86 -77.5 -119t-139.5 -33q-39 0 -71.5 7t-56 25.5t-34 47t-2.5 72.5zM786 150q-4 -29 12.5 -50.5t73.5 -21.5t83 21.5t30 50.5l33 176q2 20 -14.5 46.5t-73.5 26.5t-82 -26.5t-29 -46.5z" />
<glyph unicode="&#x26;" horiz-adv-x="1054" d="M158 262q8 51 34.5 90t65.5 68t88 51.5t105 42.5q-29 66 -32 126t7 120q10 59 28.5 109.5t50.5 87t82 57t126 20.5t118.5 -20.5t62 -57t19.5 -87t-10 -109.5q-18 -104 -107 -172t-214 -113q49 -74 107.5 -146.5t123.5 -133.5q37 49 64.5 110.5t42.5 134.5q18 2 29.5 3 t19.5 1q10 0 22.5 -1t26.5 -3q-20 -100 -58 -175t-88 -132l68 -80q-2 -6 -13.5 -15t-24.5 -18.5t-26.5 -15.5t-19.5 -6l-61 74q-82 -53 -159 -67.5t-140 -14.5q-74 0 -142.5 4t-118 29.5t-73 81t-4.5 157.5zM254 157.5q10 -36.5 42 -53t85 -19.5t129 -3q53 0 106.5 9 t120.5 40q-63 76 -128.5 147.5t-123.5 161.5q-94 -39 -155.5 -75.5t-73.5 -102.5q-12 -68 -2 -104.5zM521 652.5q7 -52.5 28 -105.5q98 35 168.5 82t87.5 131q8 49 12 83t-6 55.5t-36.5 31.5t-80.5 10q-51 0 -80.5 -10t-47 -31.5t-26 -55.5t-16.5 -83q-10 -55 -3 -107.5z " />
<glyph unicode="'" horiz-adv-x="321" d="M279 829q8 72 13 134.5t13 130.5q16 2 27.5 3t19.5 1q10 0 21.5 -1t27.5 -3q-16 -66 -35.5 -132.5t-35.5 -132.5q-8 -4 -27 -4q-14 0 -24 4z" />
<glyph unicode="(" horiz-adv-x="387" d="M154 37q2 82 9 166t17 166t23 149q12 70 29.5 148.5t40 159.5t49 161t55.5 152q16 2 28.5 3t20.5 1h21.5t27.5 -2q-29 -72 -54.5 -151t-48 -160.5t-41 -160.5t-30.5 -151q-12 -68 -22.5 -149.5t-17.5 -166.5t-10 -168t1 -151q-14 -2 -27.5 -2h-19.5q-10 0 -21.5 1 t-27.5 3q-4 70 -2 152z" />
<glyph unicode=")" horiz-adv-x="387" d="M90 -117q27 68 54.5 151t50 168t41 167t30.5 149q12 72 22.5 151t16.5 160.5t8 160.5t0 151q14 2 27.5 2h21.5t20.5 -1t29.5 -3q2 -72 0 -152t-8.5 -161t-16.5 -159.5t-22 -148.5q-12 -68 -31 -149.5t-41.5 -165.5t-48 -166t-54.5 -152q-18 -2 -30.5 -3t-22.5 -1h-19.5 t-27.5 2z" />
<glyph unicode="*" horiz-adv-x="745" d="M264 860q6 23 9 30t10 17q4 10 8 17.5t20 27.5l187 -75l18 215q23 4 31 5t18 1q12 0 19.5 -1t27.5 -5l-57 -215l211 75q8 -18 11 -26t5 -19q0 -10 1 -17t1 -30l-223 -39l117 -151q-10 -20 -18.5 -28.5t-18.5 -16.5q-8 -6 -16.5 -12.5t-30.5 -16.5l-84 188l-150 -188 q-18 10 -24 16t-14 13q-8 8 -12.5 16t-8.5 29l170 151z" />
<glyph unicode="+" horiz-adv-x="968" d="M178 356q0 12 1 22.5t3 20.5t4 19.5t9 19.5h317l57 324q16 2 27.5 3t19.5 1q10 0 21.5 -1t28.5 -3l-58 -324h318q4 -10 3 -19t-3 -20l-4 -20t-9 -23h-319l-57 -323q-16 -2 -27.5 -3t-20.5 -1q-10 0 -21 1t-28 3l58 323h-320z" />
<glyph unicode="," horiz-adv-x="321" d="M57 -72l76 207q16 2 28.5 3t20.5 1h22.5t26.5 -2q-31 -57 -59.5 -105t-58.5 -102q-10 -2 -19.5 -2h-19.5h-17z" />
<glyph unicode="-" horiz-adv-x="755" d="M178 356q0 12 1 22.5t3 20.5t4 19.5t9 19.5h518q4 -10 3 -19t-3 -20l-4 -20t-9 -23h-522z" />
<glyph unicode="." horiz-adv-x="321" d="M113 6l22 129q16 4 28.5 5t20.5 1q10 0 20.5 -1t26.5 -5l-22 -129q-16 -4 -27.5 -5t-19.5 -1q-10 0 -21.5 1t-27.5 5z" />
<glyph unicode="/" horiz-adv-x="565" d="M61 4l547 1137q10 2 22.5 2h26.5q10 0 24.5 -1t23.5 -3l-547 -1133q-10 -4 -24.5 -5t-31.5 -1h-20t-21 4z" />
<glyph unicode="0" horiz-adv-x="974" d="M155 211q5 70 21 154l51 294q14 84 34 154t64 119t125 75.5t220 26.5t210.5 -26.5t98.5 -75.5t19.5 -119t-21.5 -154l-51 -294q-16 -84 -34 -154t-62 -119t-124.5 -75.5t-220.5 -26.5q-139 0 -210.5 26.5t-98 75.5t-21.5 119zM255 231.5q-5 -55.5 15.5 -88t74 -47 t157.5 -14.5t162.5 14.5t89 47t45 88t28.5 137.5l52 286q14 82 19 137.5t-14.5 88t-72.5 47t-158 14.5q-104 0 -162.5 -14.5t-90 -47t-46 -88t-28.5 -137.5l-52 -286q-14 -82 -19 -137.5z" />
<glyph unicode="1" horiz-adv-x="593" d="M182 805l379 213q23 4 31 5t18 1t21.5 -1t27.5 -3l-178 -1016q-16 -4 -28.5 -4h-20.5h-21.5t-27.5 4l158 899q-106 -63 -166 -98t-89.5 -51.5t-34.5 -19.5l-5 -3q-16 4 -29.5 14.5t-17.5 16.5q-4 4 -9.5 15t-7.5 28z" />
<glyph unicode="2" horiz-adv-x="874" d="M127 0q0 12 1 19.5t3 17.5t6 24.5t15 36.5q25 53 79 110.5t122.5 114t143 114t138 111.5t107.5 106.5t53 99.5q8 43 11 77.5t-14.5 59t-60.5 38t-129 13.5q-82 0 -129 -11t-73.5 -34t-37 -54.5t-16.5 -70.5q-16 -4 -28.5 -4h-20.5h-22.5t-26.5 4q8 45 25.5 91t56.5 84 t107.5 62.5t178.5 24.5q119 0 180.5 -26.5t86 -66.5t22.5 -90t-10 -95q-12 -68 -53 -128.5t-98.5 -113.5t-125 -104.5t-135 -102.5t-127 -103t-98.5 -112h512q4 0 2 -18.5t-6 -30.5q-2 -10 -4 -21.5t-6 -21.5h-629z" />
<glyph unicode="3" horiz-adv-x="858" d="M131 159q0 46 6 93q18 4 30.5 4h22.5h18.5t27.5 -4q-6 -39 -6.5 -70.5t18 -53.5t62.5 -34t124 -12q86 0 134 13.5t74 38t35 59t17 77.5q6 43 9.5 79t-15 62.5t-66 42t-137.5 17.5q0 16 1 24.5t3 18.5q0 6 2.5 15.5t6.5 23.5q90 0 142 15.5t80 41t38 62.5t18 82 q8 43 11.5 77.5t-14 59t-60.5 38t-129 13.5q-82 0 -130 -11t-74 -34t-37 -54.5t-17 -70.5q-16 -4 -27.5 -4h-19.5h-23.5t-28.5 4q8 45 25.5 91t57.5 84t108.5 62.5t179.5 24.5q119 0 179.5 -26.5t85 -66.5t23.5 -90t-9 -95q-10 -59 -38 -125t-110 -119q33 -27 49.5 -56.5 t21.5 -60t2 -62.5t-9 -61q-8 -47 -23.5 -97t-54.5 -91t-109.5 -67.5t-189.5 -26.5q-113 0 -173.5 23.5t-86 61.5t-25.5 84z" />
<glyph unicode="4" horiz-adv-x="837" d="M88 324q2 12 4 25t2 22q6 23 17 57l557 592q20 4 40.5 4h43.5h26t25 -4l-107 -604h127l-2 -43q-2 -8 -5 -22.5t-7 -26.5h-129l-55 -322q-16 -2 -33 -2h-21h-23t-22 2l56 322h-494zM211 416h387l88 502z" />
<glyph unicode="5" horiz-adv-x="876" d="M148.5 151.5q-1.5 45.5 5.5 90.5q18 4 30.5 4h20.5h21.5t25.5 -4q-6 -39 -6 -69t19.5 -50.5t64.5 -30.5t125 -10q84 0 133 17.5t74.5 47t36 68.5t18.5 82t12 86t-11.5 78t-57.5 57.5t-125 22.5h-11q-27 0 -62.5 -1t-69.5 -9.5t-60.5 -23.5t-36.5 -42q-18 -2 -30.5 -2 h-22.5q-12 0 -27.5 1t-19.5 5l90 510q2 10 5 19.5t7 25.5h606q0 -10 -1 -21.5t-3 -21.5q-2 -8 -4 -21.5t-6 -27.5h-514l-62 -344q59 35 115 40t119 5q119 0 179 -35t82.5 -86t18.5 -109.5t-12 -103.5q-8 -49 -24.5 -103.5t-55.5 -100.5t-110.5 -75.5t-190.5 -29.5 q-111 0 -171 22.5t-86.5 58t-28 81z" />
<glyph unicode="6" horiz-adv-x="845" d="M153 195.5q3 54.5 11 103.5l78 438q14 84 49 140.5t87 91.5t118.5 50t144.5 15q27 0 60.5 -2t68.5 -5t68.5 -8t60.5 -13q-4 -23 -14.5 -46.5t-20.5 -39.5q-51 14 -121.5 18t-119.5 4q-109 0 -185 -38t-96 -152l-35 -195q53 20 111.5 33.5t124.5 13.5q119 0 179 -30.5 t83.5 -75.5t20.5 -99.5t-11 -99.5q-8 -49 -24.5 -103.5t-55.5 -100.5t-110.5 -75.5t-190.5 -29.5q-117 0 -177 29.5t-83.5 75.5t-20.5 100.5zM252 210q-2 -38 14.5 -66.5t60.5 -45t128 -16.5t133 17.5t74.5 47t36 68.5t18.5 82t11 82t-12.5 68.5t-58.5 47t-127 17.5 q-86 0 -136 -17.5t-76.5 -48t-37 -70.5t-18.5 -85q-8 -43 -10 -81z" />
<glyph unicode="7" horiz-adv-x="755" d="M207 932q0 14 2 26.5t4 20.5q2 10 4 19.5t8 25.5h625l-4 -43q-2 -10 -4 -19.5t-8 -27.5q-6 -16 -58 -119q-23 -43 -54.5 -110.5t-79.5 -166t-111.5 -230.5t-145.5 -304q-14 -2 -28.5 -3t-22.5 -1h-21.5t-25.5 2l440 930h-520z" />
<glyph unicode="8" horiz-adv-x="878" d="M152 175q2 50 10 97q6 29 13 59.5t22.5 61.5t41 60.5t66.5 56.5q-33 27 -48 57.5t-19.5 62.5t-1 63.5t9.5 62.5q8 45 23.5 95t53 90t108.5 66.5t187 26.5q119 0 180.5 -26.5t86 -66.5t22.5 -90t-10 -95q-10 -59 -38 -125t-109 -119q33 -27 49 -56.5t21 -60t2 -62.5 t-9 -61q-8 -47 -23.5 -97t-54.5 -91t-108.5 -67.5t-188.5 -26.5t-179 26.5t-84.5 67.5t-22.5 91zM250 192.5q-2 -34.5 15.5 -59t61.5 -38t130 -13.5q84 0 132 13.5t73.5 38t35 59t17.5 77.5t11 79t-14.5 61.5t-60.5 40t-127 14.5q-86 0 -135 -14.5t-75.5 -40t-36 -61.5 t-17.5 -79t-10 -77.5zM332 675q-2 -36 15.5 -61.5t61.5 -40t130 -14.5q84 0 132 14.5t73.5 40t34.5 61.5t18 79q8 43 11 77.5t-14.5 59t-60.5 38t-127 13.5q-86 0 -135 -13.5t-75.5 -38t-36 -59t-17.5 -77.5t-10 -79z" />
<glyph unicode="9" horiz-adv-x="835" d="M115 18q6 23 15 46.5t20 39.5q51 -14 122.5 -18t120.5 -4q53 0 100.5 8t83 29.5t60.5 58.5t35 94l35 195q-53 -20 -110.5 -33.5t-123.5 -13.5q-119 0 -180.5 30.5t-85 75.5t-20 98.5t11.5 100.5q8 49 24.5 103.5t56 100.5t111.5 75.5t191 29.5q117 0 177 -29.5 t82.5 -75.5t19.5 -100.5t-11 -103.5l-78 -438q-14 -84 -49 -140.5t-86 -91.5t-117.5 -50t-144.5 -15q-27 0 -60.5 2t-69.5 5t-70 8t-60 13zM286 645q-3 -39 13 -68.5t59 -47t127 -17.5q86 0 135.5 17.5t76 48t38 70.5t19.5 85q6 43 9 81t-14.5 66.5t-60.5 45t-127 16.5 t-133 -17.5t-75.5 -47t-37 -68.5t-18.5 -82t-11 -82z" />
<glyph unicode=":" horiz-adv-x="321" d="M113 6l22 129q16 4 28.5 5t20.5 1q10 0 20.5 -1t26.5 -5l-22 -129q-16 -4 -27.5 -5t-19.5 -1q-10 0 -21.5 1t-27.5 5zM215 588l23 129q16 4 28.5 5t20.5 1q10 0 20 -1t27 -5l-23 -129q-16 -4 -27.5 -5t-19.5 -1q-10 0 -21.5 1t-27.5 5z" />
<glyph unicode=";" horiz-adv-x="321" d="M61 -72l76 207q16 2 28.5 3t20.5 1h22.5t27.5 -2q-31 -57 -60 -105t-59 -102q-10 -2 -19.5 -2h-19.5h-17zM219 588l23 129q16 4 28.5 5t20.5 1q10 0 20.5 -1t26.5 -5l-23 -129q-16 -4 -27.5 -5t-19.5 -1q-10 0 -21 1t-28 5z" />
<glyph unicode="&#x3c;" horiz-adv-x="856" d="M169 319.5q1 10.5 7 45.5t10 48t15 31l659 258q2 -8 1 -21t-3 -24q-2 -12 -4 -25.5t-6 -25.5l-574 -227h-16l-4 -25h16l492 -229q0 -10 -2 -24.5t-4 -26.5q-2 -10 -6.5 -22.5t-8.5 -22.5l-569 260q-4 20 -3 30.5z" />
<glyph unicode="=" horiz-adv-x="755" d="M150 190q-2 12 0 22.5t4 20.5t4 19.5t8 19.5h518q4 -10 3 -19t-3 -20q-4 -18 -12 -43h-522zM204 522q1 10 3 21q2 10 4 19t10 20h518q2 -10 1 -19.5t-3 -19.5t-4 -20.5t-6 -22.5h-522q-2 12 -1 22z" />
<glyph unicode="&#x3e;" horiz-adv-x="856" d="M122 51q1 12 3 23q4 27 10 51l574 229h16l4 25h-16l-492 227q0 12 2 25.5t4 25.5q2 10 6.5 23.5t8.5 21.5l569 -258q4 -18 3 -31t-7 -48t-9 -45.5t-16 -30.5l-659 -260q-2 10 -1 22z" />
<glyph unicode="?" horiz-adv-x="741" d="M256 6l23 129q16 4 28.5 5t20.5 1q10 0 21 -1t28 -5l-23 -129q-16 -4 -28.5 -5t-20.5 -1q-10 0 -21.5 1t-27.5 5zM287 946v45q53 25 114.5 34t116.5 9q141 0 208 -47t46 -166q-14 -84 -65.5 -132t-109.5 -87t-107.5 -78t-61.5 -104l-35 -191q-16 -4 -28.5 -5t-20.5 -1 q-10 0 -22.5 1t-26.5 5l35 193q10 57 36.5 96t62.5 67.5t76 52.5t74.5 49.5t60.5 57t34 76.5q6 35 3 57.5t-22.5 37t-57.5 19.5t-101 5q-125 0 -201 -37q-8 18 -8 43z" />
<glyph unicode="@" horiz-adv-x="1296" d="M160 279l82 460q14 76 62 131.5t113.5 92t143.5 54t150 17.5h239q72 0 142.5 -17.5t125 -54t82 -92t13.5 -131.5l-72 -411q-16 -86 -63.5 -121t-151.5 -35q-51 0 -81 9t-45 24.5t-19 35t0 38.5h-13q-14 -31 -42.5 -49.5t-60.5 -29t-62.5 -13.5t-51.5 -3q-96 0 -147 26 t-72.5 66.5t-20.5 93t11 107.5l14 84q10 55 25.5 106.5t49.5 90.5t91 62.5t150 23.5q8 0 34.5 -1t56 -9.5t55.5 -25.5t36 -48h10l14 82q10 2 30 2h28h14t21 -2l-90 -514q-6 -31 0 -46.5t18 -23.5t28.5 -9t32.5 -1q35 0 64 10t39 70l71 411q6 39 -6 75t-46 64.5t-91 46 t-137 17.5h-240q-80 0 -143.5 -17.5t-107.5 -46t-70.5 -64.5t-32.5 -75l-82 -460q-10 -55 9.5 -93.5t59.5 -62t96 -32.5t120 -9h239q78 0 143.5 6t114.5 39q2 -4 6.5 -15.5t6.5 -19.5q4 -10 4 -24.5t-2 -24.5q-55 -39 -125 -46t-164 -7h-240q-78 0 -150.5 13t-124.5 47 t-79 89.5t-12 139.5zM506 410.5q-4 -35.5 8 -66.5t47 -50.5t107 -19.5t113.5 19.5t65 50.5t33 66.5t15.5 68.5l18 113q6 31 2 59.5t-24.5 51t-58 36t-99.5 13.5q-63 0 -101 -17.5t-58.5 -45t-28.5 -61.5t-15 -67l-14 -82q-6 -33 -10 -68.5z" />
<glyph unicode="A" horiz-adv-x="933" d="M31 4l516 1010q27 8 48 9t52 1q33 0 51.5 -1t42.5 -9l162 -1010q-8 -2 -23.5 -3t-25.5 -1h-30.5t-26.5 2l-54 334h-440l-164 -334q-12 -2 -29.5 -2h-29.5q-10 0 -25.5 1t-23.5 3zM346 428h389l-86 504l2 14h-35l-2 -14z" />
<glyph unicode="B" horiz-adv-x="966" d="M113 0l180 1024h420q68 0 129 -4t104 -30q42 -27 60 -85q9 -29 9 -68q0 -41 -9 -94q-16 -82 -46 -139t-83 -96q41 -38 51 -92q4 -23 4 -49q0 -38 -8 -84q-18 -104 -56.5 -162t-89.5 -84.5t-114.5 -31.5t-131.5 -5h-419zM225 92h320q39 0 84 4t84 22.5t69.5 57.5t42.5 107 q5 29 5 53q0 30 -9 52q-16 38 -50 54.5t-77 19.5t-82 3h-319zM307 557h320q39 0 84 4t84 21.5t69.5 55t42.5 105.5q5 28 5 51q0 33 -10 55q-17 38 -50 56.5t-76 22.5t-82 4h-319z" />
<glyph unicode="C" horiz-adv-x="944" d="M156 186q-9 35 -10 79q0 44 10 97l51 300q18 104 62 175.5t108.5 114.5t148.5 62.5t181 19.5q33 0 75.5 -2t86.5 -7t86 -12t77 -16q-6 -27 -13 -46t-24 -40q-31 8 -69.5 14.5t-81.5 9.5t-84 5t-74 2q-158 0 -255 -62.5t-122 -203.5l-59 -328q-6 -35 -7 -65q0 -91 58 -139 q76 -62 234 -62q33 0 74.5 2t85.5 6t86 10t75 15q10 -25 10 -42.5t-4 -45.5q-37 -10 -82 -16.5t-91 -11.5t-90 -7t-77 -2q-96 0 -173 19.5t-126 62t-67 114.5z" />
<glyph unicode="D" horiz-adv-x="997" d="M113 0l182 1034h344q98 0 175 -19.5t127 -63.5q51 -43 69 -115q9 -36 9 -82q0 -44 -9 -97l-49 -280q-18 -106 -62.5 -178t-110 -116t-149.5 -63.5t-182 -19.5h-344zM225 92h250q63 0 127 15.5t117 49t91 84t50 121.5l53 310q5 28 5 53q0 37 -11 68q-18 51 -59 84.5 t-99.5 49t-121.5 15.5h-250z" />
<glyph unicode="E" horiz-adv-x="884" d="M113 0l180 1024h670v-22.5t-2 -22.5t-5.5 -22.5t-7.5 -24.5h-573l-68 -375h500q4 -23 0 -45q-2 -10 -5 -22.5t-7 -24.5h-502l-68 -373h572q4 -23 0 -45q-4 -10 -6.5 -22.5t-6.5 -24.5h-671z" />
<glyph unicode="F" horiz-adv-x="860" d="M113 4l180 1020h670v-22.5t-2 -22.5t-5.5 -22.5t-7.5 -24.5h-573l-68 -375h500q4 -23 0 -45q-2 -10 -5 -22.5t-7 -24.5h-502l-82 -461q-16 -4 -28.5 -4h-20.5h-21.5t-27.5 4z" />
<glyph unicode="G" horiz-adv-x="995" d="M176 362l51 300q18 104 62.5 175.5t109 114.5t148.5 62.5t180 19.5q35 0 78 -2t87 -7t86 -12t75 -16q-6 -27 -13.5 -46t-21.5 -40q-31 8 -71 14.5t-83 9.5t-84 5t-73 2q-158 0 -255.5 -62.5t-121.5 -203.5l-60 -328q-6 -35 -6 -64q0 -92 58 -140q77 -62 233 -62 q47 0 110.5 4t135.5 14l59 336h-188q-2 12 0 24.5t4 20.5t5 21.5t7 25.5h234q10 0 23 -1t30 -3l-88 -497q-37 -10 -82 -16.5t-92 -11.5t-91 -7t-79 -2q-96 0 -173 19.5t-126 62.5t-68 114q-9 37 -9 81t9 95z" />
<glyph unicode="H" horiz-adv-x="980" d="M113 4l178 1016q16 4 28.5 4h22.5h20.5t26.5 -4l-80 -457h559l80 457q16 4 28.5 4h22.5h20.5t27.5 -4l-179 -1016q-16 -4 -28.5 -4h-20.5h-21.5t-27.5 4l82 467h-559l-82 -467q-16 -4 -28.5 -4h-20.5h-21.5t-27.5 4z" />
<glyph unicode="I" horiz-adv-x="323" d="M113 4l178 1016q16 4 28.5 4h22.5h20.5t26.5 -4l-178 -1016q-16 -4 -28.5 -4h-20.5h-21.5t-27.5 4z" />
<glyph unicode="J" horiz-adv-x="792" d="M120 113q-1 10 -1 20q0 28 6 57l10 60q16 4 27.5 4h19.5h22.5t28.5 -4l-8 -45q-4 -23 -4 -41t4 -30q8 -25 31 -36.5t59.5 -13.5t90.5 -2q51 0 90 2t65.5 13.5t41.5 36t24 69.5l143 817q16 4 28.5 4h22.5h20.5t26.5 -4l-145 -830q-6 -41 -23.5 -76.5t-52.5 -63t-93 -44 t-151 -16.5h-28q-92 0 -146.5 15t-80 43t-28.5 65z" />
<glyph unicode="K" horiz-adv-x="1011" d="M113 4l178 1016q16 4 28.5 4h22.5h20.5t26.5 -4l-86 -494l762 498q12 -16 23.5 -34.5t19.5 -41.5l-436 -293l289 -651q-10 -2 -22.5 -3t-23.5 -1h-32.5t-32.5 2l-270 600l-299 -196l-70 -402q-16 -4 -28.5 -4h-20.5h-21.5t-27.5 4z" />
<glyph unicode="L" horiz-adv-x="808" d="M113 0l178 1020q16 4 28.5 4h22.5h20.5t26.5 -4l-164 -928h545q0 -12 -2 -25.5t-2 -19.5q-4 -10 -5 -22.5t-5 -24.5h-643z" />
<glyph unicode="M" horiz-adv-x="1253" d="M113 2l178 1012q31 8 68.5 9t68.5 1q14 0 21.5 -1t31.5 -9l160 -928l487 928q29 8 36 9t22 1q31 0 67.5 -1t65.5 -9l-178 -1012q-10 -2 -22.5 -2h-22.5h-26.5t-27.5 2l166 940h-22l-2 -10q-113 -231 -244 -461.5t-246 -464.5q-16 -4 -33.5 -5t-33.5 -1t-34 1t-34 5 q-16 117 -37.5 232.5t-44 231.5t-44 231.5t-36.5 230.5l2 10h-22l-166 -940q-12 -2 -26.5 -2h-26.5h-22.5t-22.5 2z" />
<glyph unicode="N" horiz-adv-x="1069" d="M113 4l178 1010q31 8 46 9t48 1q31 0 49.5 -1t40.5 -9l375 -916l-2 -16h24l164 940q16 4 28.5 4h22.5h20.5t27.5 -4l-179 -1012q-29 -8 -60.5 -9t-61.5 -1h-26.5t-35.5 4l-375 928l2 10h-22l-166 -938q-16 -4 -28.5 -4h-20.5h-21.5t-27.5 4z" />
<glyph unicode="O" horiz-adv-x="1007" d="M136 211q3 70 20 154l51 294q14 84 35.5 154t69.5 119t136 75.5t240 26.5q150 0 227.5 -26.5t108.5 -75.5q26 -42 26 -98v-21q-6 -70 -20 -154l-51 -294q-16 -84 -35.5 -154t-68 -119t-135.5 -75.5t-236 -26.5q-152 0 -230.5 26.5t-109.5 75.5q-28 45 -28 107v12z M240 231.5q0 -55.5 27.5 -88t88 -47t164.5 -14.5q102 0 166 14.5t102.5 47t58 88t34.5 137.5l51 286q14 82 14 137.5t-26.5 88t-86 47t-161.5 14.5q-104 0 -169 -14.5t-104 -47t-59.5 -88t-34.5 -137.5l-51 -286q-14 -82 -14 -137.5z" />
<glyph unicode="P" horiz-adv-x="899" d="M113 4l180 1020h385q68 0 127 -6t101 -37t58 -97q7 -30 8 -69q0 -49 -11 -113q-20 -119 -60.5 -185t-93.5 -99t-115.5 -41t-130.5 -8h-287l-63 -365q-16 -4 -28.5 -4h-20.5h-21.5t-27.5 4zM291 461h284q39 0 83 4t84 26.5t72 71.5t48 139q7 41 7 72q0 34 -8 58 q-15 46 -47 69t-74 27t-81 4h-284z" />
<glyph unicode="Q" horiz-adv-x="1028" d="M146 216q6 67 20 149l51 294q14 84 35.5 154t70 119t136 75.5t239.5 26.5q150 0 228 -26.5t108 -75.5q27 -42 27 -100q0 -9 -1 -19q-5 -70 -20 -154l-51 -294q-14 -80 -33.5 -147.5t-62.5 -116t-121 -77t-209 -32.5l-18 -98q10 6 14 7t6 1h166q2 -10 0 -22.5t-4 -22.5 q-2 -8 -4 -21.5t-6 -25.5h-166q-72 0 -102 53l22 127q-135 4 -204.5 32.5t-97.5 77.5q-23 42 -23 95v21zM250 231.5q0 -55.5 27.5 -88t88 -47t164.5 -14.5q102 0 166 14.5t103 47t58.5 88t33.5 137.5l51 286q14 82 14 137.5t-26.5 88t-86 47t-161.5 14.5 q-104 0 -168.5 -14.5t-103.5 -47t-59.5 -88t-35.5 -137.5l-51 -286q-14 -82 -14 -137.5z" />
<glyph unicode="R" horiz-adv-x="968" d="M113 4l180 1020h414q68 0 128 -6t101 -37q42 -31 58 -97q7 -29 7 -67q0 -49 -12 -115q-23 -133 -77 -200.5t-117 -100.5l55 -397q-8 -2 -22.5 -3t-24.5 -1h-26.5t-24.5 2l-54 375q-23 -6 -53.5 -7t-54.5 -1h-316l-63 -365q-16 -4 -28.5 -4h-20.5h-21.5t-27.5 4zM291 461 h313q39 0 84 6t85 30.5t72 72.5t46 132q7 42 7 74t-7 56q-14 46 -46 69t-75 27t-82 4h-313z" />
<glyph unicode="S" horiz-adv-x="937" d="M100 74v6q4 23 18.5 45t31.5 37q49 -29 98 -45.5t94 -23.5t84 -9t66 -2q43 0 91 5t92 24.5t78.5 60.5t47.5 115q2 11 2 21q0 43 -34 71q-42 35 -110.5 60.5t-150.5 49t-148.5 57.5t-106.5 85q-30 38 -30 93q0 19 4 40q14 76 51 128t93.5 84t130 45t164.5 13q37 0 81 -2 t87 -6t81.5 -11t67.5 -18q-4 -25 -13 -46t-22 -44q-25 8 -59.5 14.5t-74.5 10.5t-82 6t-81 2q-154 0 -231.5 -47t-93.5 -129q-2 -11 -2 -22q0 -44 34 -74q42 -37 110.5 -63.5t150 -50.5t148.5 -56.5t107 -81.5q29 -36 29 -89q0 -19 -4 -40q-18 -104 -62 -164t-102.5 -89.5 t-126 -36.5t-133.5 -7q-41 0 -95 4t-108.5 14t-100.5 25.5t-71 40.5z" />
<glyph unicode="T" horiz-adv-x="815" d="M205 932q0 12 2 26.5t4 24.5t4 20.5t8 20.5h729q0 -10 -1 -20.5t-3 -20.5t-4 -24.5t-6 -26.5h-317l-164 -928q-16 -4 -28.5 -4h-20.5h-21.5t-28.5 4l164 928h-317z" />
<glyph unicode="U" horiz-adv-x="1028" d="M146 211q4 70 20 154l115 655q16 4 28.5 4h22.5h20.5t26.5 -4l-115 -651q-14 -82 -14 -137.5t27.5 -88t88 -47t164.5 -14.5t168 14.5t102 47t57.5 88t33.5 137.5l115 651q16 4 28.5 4h22.5h20.5t26.5 -4l-115 -655q-16 -84 -35.5 -154t-67.5 -119t-135 -75.5t-237 -26.5 q-152 0 -230.5 26.5t-109.5 75.5q-28 44 -28 105v14z" />
<glyph unicode="V" horiz-adv-x="933" d="M209 1020q8 2 24.5 3t26.5 1h29.5t27.5 -2l148 -930l-2 -14h35l2 14l475 930q12 2 28.5 2h30.5q10 0 24.5 -1t22.5 -3l-518 -1010q-27 -8 -45 -9t-51 -1q-31 0 -52.5 1t-45.5 9z" />
<glyph unicode="W" horiz-adv-x="1282" d="M209 1020q10 4 23.5 4h27.5h25.5t23.5 -2l60 -928l-2 -12h22v10l352 742q14 4 25.5 4h24.5h22t18 -4l91 -742v-10h22l2 12l383 928q14 2 27.5 2h25.5h26.5t21.5 -4l-420 -1010q-29 -8 -45.5 -9t-49.5 -1q-29 0 -46 1t-42 9l-79 602l-293 -602q-25 -8 -42.5 -9t-45.5 -1 q-33 0 -49.5 1t-45.5 9z" />
<glyph unicode="X" horiz-adv-x="993" d="M37 2l487 502l-315 512q14 6 27.5 7t19.5 1h31.5t38.5 -2l272 -442l430 442q16 2 40 2h30q10 0 21 -1t22 -7l-494 -512l309 -502q-16 -2 -31.5 -2h-23.5h-30.5t-43.5 4l-256 420l-405 -420q-23 -4 -43.5 -4h-30.5h-22.5t-32.5 2z" />
<glyph unicode="Y" horiz-adv-x="966" d="M229 1014q31 10 47 10h33t39 -4l230 -485l395 485q16 4 42.5 4h33.5q10 0 45 -10l-486 -568l-78 -442q-16 -4 -28.5 -4h-20.5h-21t-28 4l78 442z" />
<glyph unicode="Z" horiz-adv-x="1009" d="M106 0q0 20 5 41q2 10 4 22.5t10 30.5l831 838h-686q0 12 1 24.5t3 22.5l4.5 22.5t8.5 22.5h809q-4 -25 -6 -37q-2 -10 -4.5 -23.5t-8.5 -31.5l-819 -838h639q0 -10 -1 -22.5t-3 -22.5t-5 -23.5t-7 -25.5h-775z" />
<glyph unicode="[" horiz-adv-x="442" d="M92 -115l221 1254q16 2 27.5 3t19.5 1h166q2 -10 0 -24.5t-4 -24.5t-4 -20.5t-6 -22.5h-117l-190 -1078h114q2 -10 0 -24.5t-4 -24.5l-4 -20t-6 -23h-166q-10 0 -20 1t-27 3z" />
<glyph unicode="\" horiz-adv-x="565" d="M262 1139q8 2 22.5 3t24.5 1h26.5t22.5 -2l146 -1137q-10 -4 -20.5 -4h-20.5q-16 0 -30.5 1t-24.5 5z" />
<glyph unicode="]" horiz-adv-x="444" d="M94 -119q2 25 6 43q2 10 5.5 24.5t7.5 24.5h114l191 1078h-117q0 12 2 22t4 21q2 10 5 24.5t7 24.5h166q8 0 19.5 -1t27.5 -3l-221 -1254q-18 -2 -29.5 -3t-21.5 -1h-166z" />
<glyph unicode="^" horiz-adv-x="686" d="M205 530l229 484q27 8 42 9t48 1q31 0 45.5 -1t38.5 -9q14 -123 28.5 -242t29.5 -242q-20 -4 -43 -4h-25.5t-24.5 2l-57 404l2 12h-18l-2 -12l-201 -404q-12 -2 -24.5 -2h-24.5q-23 0 -43 4z" />
<glyph unicode="_" horiz-adv-x="753" d="M-29 -170.5q2 10.5 4 20.5t4.5 19.5t8.5 19.5h739q4 -10 3 -19t-3 -20q-4 -18 -12 -43h-744q-2 12 0 22.5z" />
<glyph unicode="`" horiz-adv-x="374" d="M305 1096q12 2 24.5 2h18.5q10 0 27.5 -1t34.5 -3q-2 -72 -1 -134.5t-1 -132.5q-6 -4 -15.5 -4h-15.5h-19q-6 0 -10 2z" />
<glyph unicode="a" horiz-adv-x="839" d="M117 242q12 68 48 114.5t87 75.5t110.5 41t118.5 12q53 0 111.5 -10t99.5 -29h15l16 91q4 22 4 42q1 30 -9 54q-16 39 -47.5 61.5t-78.5 32.5t-100 10t-100.5 -5t-96.5 -19q-8 18 -9 39.5t1 44.5q59 16 122.5 24t116.5 8q78 0 139.5 -14t101.5 -48q41 -34 55 -90 q7 -28 7 -62q0 -36 -8 -80l-94 -531q-16 -4 -27.5 -4h-21.5h-20.5t-28.5 4l18 105q-78 -78 -148.5 -98.5t-142.5 -20.5q-148 0 -206 55q-41 39 -40 120q0 34 7 77zM217 246q-4 -23 -4 -42q0 -120 158 -122q92 0 163.5 39t131.5 96l30 172q-31 4 -78 4h-71q-61 0 -116.5 -2 t-99.5 -16.5t-75 -44t-39 -84.5z" />
<glyph unicode="b" horiz-adv-x="858" d="M113 4l192 1090q16 4 28.5 4h20.5h21.5t27.5 -4l-61 -342h16q25 29 63 45t74.5 23t67.5 8t43 1q115 0 172.5 -25.5t77.5 -69.5q16 -35 17 -79q1 -13 -1 -25q-6 -60 -18 -126l-35 -191q-12 -68 -28.5 -126t-55.5 -102t-109.5 -69.5t-189.5 -25.5q-25 0 -53.5 1t-57 9 t-55 25.5t-47.5 50.5l-12 -72q-16 -4 -27.5 -4h-21.5h-20.5t-28.5 4zM256 234q-1 -9 -1 -16q1 -32 13 -59q16 -34 57.5 -55.5t127.5 -21.5t136 21.5t77.5 55.5t39 75.5t17.5 80.5l33 187q6 39 10 81q1 10 1 20q1 31 -9 57q-12 34 -50 55.5t-114 21.5q-74 0 -126 -17.5 t-86 -45t-52.5 -63.5t-24.5 -74l-39 -222q-6 -39 -10 -81z" />
<glyph unicode="c" horiz-adv-x="753" d="M135 289l43 241q31 168 138.5 233.5t265.5 65.5q27 0 60.5 -2t68 -5t68.5 -9t63 -14q-4 -20 -14.5 -43t-20.5 -39q-51 12 -123 16t-121 4q-55 0 -102 -9t-84 -30.5t-62.5 -59.5t-35.5 -95l-48 -269q-4 -25 -5 -47q0 -27 8 -48q12 -38 41.5 -59.5t73.5 -29.5t100 -8 q49 0 121.5 5t129.5 22q7 -30 7 -61q0 -16 -2 -32q-61 -16 -139.5 -21t-131.5 -5q-78 0 -140.5 15t-102 50t-55.5 93q-8 30 -8 67q0 34 7 74z" />
<glyph unicode="d" horiz-adv-x="858" d="M130 188q3 58 15 125l35 191q12 68 26.5 127t51.5 103t103.5 69.5t181.5 25.5q12 0 41.5 -1t64.5 -8t67 -23.5t46 -44.5h16l62 342q16 4 27.5 4h21.5h20.5t28.5 -4l-193 -1090q-16 -4 -28 -4h-21h-21t-28 4l12 72q-31 -33 -63.5 -50.5t-63 -25.5t-60.5 -9t-54 -1 q-121 0 -182.5 25.5t-85.5 69.5q-21 39 -20 89v14zM236 234q-1 -9 -1 -18q-1 -31 11 -57q16 -34 59 -55.5t129 -21.5t135 21.5t77 55.5t39 75.5t17 80.5l39 222q3 21 3 42q0 17 -2 33q-5 36 -29.5 63t-70.5 44.5t-120 17.5q-76 0 -121 -21.5t-69.5 -56t-35.5 -76.5t-17 -81 l-33 -187q-6 -39 -10 -81z" />
<glyph unicode="e" horiz-adv-x="823" d="M141 289l33 178q16 98 43 166.5t72 113t113.5 63.5t166.5 19q104 0 165 -20.5t88.5 -60t27.5 -99t-14 -139.5l-25 -148h-557l-16 -88q-4 -25 -4 -46q0 -28 7 -49q13 -38 44.5 -59.5t77 -29.5t100.5 -8q25 0 57.5 1t68.5 4t70.5 8t63.5 14q6 -28 6 -57q0 -17 -2 -34 q-31 -8 -67.5 -13t-74.5 -8t-73.5 -5t-62.5 -2q-78 0 -141.5 15t-105.5 50t-58 93q-9 31 -9 69q0 33 6 72zM270 455h459l16 98q8 40 8 73q-1 36 -21 62q-20 24 -62.5 36.5t-116.5 12.5t-123 -14t-80 -47t-48 -87t-32 -134z" />
<glyph unicode="f" horiz-adv-x="581" d="M211 727q0 10 1 23.5t3 23.5q4 20 12 45h148l6 35q14 82 34.5 135t49.5 85t67.5 44t90.5 12q16 0 60 -2t93 -16q-4 -23 -12 -43t-21 -39q-41 6 -68.5 7t-49.5 1q-39 0 -62.5 -7t-39 -27.5t-25 -56.5t-19.5 -93l-6 -35h238q-2 -14 -2 -25.5t-2 -19.5q-2 -10 -5.5 -23.5 t-7.5 -23.5h-237l-127 -723q-16 -4 -28.5 -4h-20.5h-21.5t-28.5 4l127 723h-147z" />
<glyph unicode="g" horiz-adv-x="858" d="M76 -348q4 20 14 43.5t21 40.5q25 -6 55.5 -10.5t64 -6.5t65.5 -3t56 -1q53 0 99.5 8.5t83 30t61.5 59t35 95.5l28 168q-31 -33 -62.5 -50.5t-63 -25.5t-61.5 -9t-54 -1q-121 0 -182.5 25.5t-85.5 69.5q-20 39 -20 89v14q3 58 15 125l35 191q12 68 26.5 127t51.5 103 t103.5 69.5t181.5 25.5q12 0 41.5 -1t64.5 -8t67 -23.5t46 -44.5h16l13 63q16 4 27 4h22h20t29 -4l-158 -895q-14 -84 -49 -140t-86 -91t-117.5 -50.5t-144.5 -15.5q-55 0 -130 6t-128 23zM236 234q-2 -9 -2 -18q0 -31 12 -57q16 -34 59 -55.5t129 -21.5t135 21.5t77 55.5 t39 75.5t17 80.5l39 222q3 21 3 42q0 16 -2 33q-5 35 -29.5 62.5t-70.5 45t-120 17.5q-76 0 -121 -21.5t-69.5 -56t-35.5 -76.5t-17 -81l-33 -187q-6 -39 -10 -81z" />
<glyph unicode="h" horiz-adv-x="870" d="M113 4l192 1090q16 4 28.5 4h20.5h21.5t27.5 -4l-61 -342h23q27 29 59.5 45t66 23t68.5 8t66 1q82 0 133 -23.5t76.5 -64.5t30.5 -97q1 -16 1 -34q0 -42 -8 -88l-90 -518q-16 -4 -27.5 -4h-21.5h-20.5t-28.5 4l84 479q8 49 13 95q1 12 1 22q0 32 -10 58q-14 36 -54 57.5 t-122 21.5q-70 0 -118 -12t-81 -36.5t-51.5 -62.5t-26.5 -89l-94 -533q-16 -4 -27.5 -4h-21.5h-20.5t-28.5 4z" />
<glyph unicode="i" horiz-adv-x="323" d="M113 4l143 811q16 4 27.5 4h19.5h22.5t28.5 -4l-143 -811q-16 -4 -28.5 -4h-22.5h-19.5t-27.5 4zM279 942l22 129q16 4 27.5 4h19.5h22.5t28.5 -4l-22 -129q-18 -4 -30.5 -4h-20.5h-21.5t-25.5 4z" />
<glyph unicode="j" horiz-adv-x="335" d="M-256 -352q4 18 14.5 41.5t22.5 40.5q39 -10 65.5 -12.5t77.5 -2.5q45 0 76 7.5t51.5 28t32.5 57t22 94.5l162 913q16 4 27.5 4h19.5h22.5t29.5 -4l-162 -913q-14 -84 -39 -137.5t-59.5 -85t-79.5 -44t-101 -12.5q-53 0 -93 4t-89 21zM291 942l22 129q16 4 27.5 4h19.5 h22.5t29.5 -4l-23 -129q-18 -4 -30.5 -4h-20.5h-21.5t-25.5 4z" />
<glyph unicode="k" horiz-adv-x="884" d="M113 4l192 1090q16 4 27.5 4h19.5h22.5t28.5 -4l-104 -594h14q4 6 22.5 18t76 44t165 92.5t289.5 164.5q18 -18 27 -35l10 -20t10 -27l-264 -149l197 -584q-16 -4 -33 -4h-35.5t-34.5 2l-182 539l-285 -160l-65 -377q-16 -4 -28.5 -4h-20.5h-21.5t-27.5 4z" />
<glyph unicode="l" horiz-adv-x="323" d="M113 4l178 1016q16 4 28.5 4h20.5h21.5t27.5 -4l-178 -1016q-16 -4 -28.5 -4h-20.5h-21.5t-27.5 4z" />
<glyph unicode="m" horiz-adv-x="1230" d="M113 4l143 811q14 4 23.5 4h19.5q8 0 19.5 -1t27.5 -3v-61h16q29 29 62 44t63.5 22t55 8t35.5 1q66 0 112.5 -13t75.5 -56q25 27 59.5 41t70.5 20t68.5 7t55.5 1q76 0 122 -23.5t67.5 -64.5t22.5 -97v-10q0 -52 -9 -110l-93 -520q-16 -4 -27 -4h-22h-20t-29 4l84 479 q8 49 11 95q1 11 1 22q0 32 -7 58q-9 36 -36.5 57.5t-80.5 21.5q-20 0 -51 -1t-64 -5t-62.5 -14t-44.5 -29q5 -35 5 -67v-11q-1 -37 -9 -86l-92 -520q-16 -4 -27.5 -4h-21.5h-20.5t-28.5 4l84 479q8 49 9 95v6q1 40 -11 74q-12 36 -41 57.5t-82 21.5q-61 0 -103.5 -10 t-70 -33.5t-43 -59.5t-23.5 -87l-96 -543q-16 -4 -27.5 -4h-21.5h-20.5t-28.5 4z" />
<glyph unicode="n" horiz-adv-x="870" d="M113 4l143 811q14 4 23.5 4h19.5q8 0 19.5 -1t27.5 -3v-63h19q27 29 59.5 45t66 23t68.5 8t66 1q82 0 133 -23.5t76.5 -64.5t30.5 -97q1 -16 1 -34q0 -42 -8 -88l-90 -518q-16 -4 -27.5 -4h-21.5h-20.5t-28.5 4l84 479q8 49 13 95q1 12 1 22q0 32 -10 58q-14 36 -54 57.5 t-122 21.5q-70 0 -118 -12t-81 -36.5t-51.5 -62.5t-26.5 -89l-94 -533q-16 -4 -27.5 -4h-21.5h-20.5t-28.5 4z" />
<glyph unicode="o" horiz-adv-x="839" d="M131 188q4 60 16 127l33 189q12 68 28.5 127t56.5 103t110.5 69.5t189.5 25.5t181 -25q60 -26 84 -70q21 -39 21 -90v-14q-3 -60 -15 -126l-33 -189q-12 -68 -29.5 -127t-57.5 -103t-109.5 -69.5t-188.5 -25.5t-180.5 25.5t-85.5 69.5q-21 38 -22 87q0 8 1 16zM230 210 q-1 -9 -2 -17q0 -31 14 -55q18 -28 62 -42t130 -14t135 13.5t75 42t37 72.5t24 107l32 185q11 63 15 108q1 10 0 19q0 32 -12 54q-16 28 -60.5 41t-130.5 13t-135 -12t-75 -41t-37 -74t-23 -108l-33 -185q-12 -63 -16 -107z" />
<glyph unicode="p" horiz-adv-x="858" d="M45 -373l211 1188q16 4 28.5 4h20.5h21.5t27.5 -4l-12 -63h16q25 29 63 45t74.5 23t67.5 8t43 1q115 0 172.5 -25.5t77.5 -69.5q17 -35 17 -79q0 -12 -1 -25q-6 -59 -18 -126l-35 -191q-12 -68 -28.5 -126t-55.5 -102t-109.5 -69.5t-189.5 -25.5q-25 0 -53.5 1t-58 9 t-56 25.5t-45.5 50.5l-80 -449q-16 -4 -27.5 -4h-21.5h-20.5t-28.5 4zM256 234q-1 -8 -1 -16q0 -32 13 -59q15 -34 57 -55.5t128 -21.5t136 21.5t77.5 55.5t39 75.5t17.5 80.5l33 187q6 39 10 81q1 10 1 20q0 30 -9 57q-13 34 -50.5 55.5t-113.5 21.5q-74 0 -126 -17.5 t-86 -45t-52.5 -63.5t-24.5 -74l-39 -222q-6 -39 -10 -81z" />
<glyph unicode="q" horiz-adv-x="858" d="M130 188q3 58 15 125l35 191q12 68 26.5 127t51.5 103t103.5 69.5t181.5 25.5q12 0 41.5 -1t64.5 -8t67 -23.5t46 -44.5h16l13 63q16 4 27 4h22h20t29 -4l-211 -1188q-16 -4 -28.5 -4h-20.5h-21.5t-27.5 4l79 449q-31 -33 -62.5 -50.5t-63 -25.5t-61.5 -9t-54 -1 q-121 0 -182.5 25.5t-85.5 69.5q-20 39 -20 89v14zM236 234q-2 -9 -2 -18q0 -31 12 -57q16 -34 59 -55.5t129 -21.5t135 21.5t77 55.5t39 75.5t17 80.5l39 222q3 21 3 42q0 16 -2 33q-5 35 -29.5 62.5t-70.5 45t-120 17.5q-76 0 -121 -21.5t-69.5 -56t-35.5 -76.5t-17 -81 l-33 -187q-6 -39 -10 -81z" />
<glyph unicode="r" horiz-adv-x="520" d="M113 4l143 811q10 4 22.5 4h22.5q12 0 20.5 -1t24.5 -5v-59h12q25 25 60 38t72.5 19t76.5 7t70 1h18v-20.5t-2 -20.5q-2 -8 -6 -21.5t-8 -29.5h-61q-68 0 -116 -10t-80 -32.5t-50.5 -58.5t-26.5 -87l-94 -535q-16 -4 -27.5 -4h-21.5h-20.5t-28.5 4z" />
<glyph unicode="s" horiz-adv-x="759" d="M102 29q6 29 16.5 50t24.5 42q25 -10 61 -18.5t72.5 -12.5t70.5 -6t56 -2q63 0 103.5 8t65 24.5t38 44t19.5 66.5q2 9 2 17q0 34 -27 57q-33 29 -86 50.5t-115.5 41t-113.5 48t-82 69.5q-22 30 -22 72q0 16 3 34q20 121 114.5 168t236.5 47q59 0 131.5 -7t122.5 -23 q-6 -20 -14.5 -43t-18.5 -43q-41 12 -105.5 18t-128.5 6q-63 0 -106 -6t-70.5 -20.5t-42 -38t-20.5 -58.5q-2 -8 -1 -15q0 -31 26 -53q34 -26 86.5 -47.5t114.5 -42t113.5 -49t81.5 -72.5q22 -32 23 -74q0 -17 -4 -36q-23 -131 -100.5 -183t-239.5 -52q-66 0 -149 10.5 t-136 28.5z" />
<glyph unicode="t" horiz-adv-x="520" d="M158 727q0 10 1 24.5t3 24.5q2 14 12 43h150l43 240q16 4 27.5 4h19.5h22.5t28.5 -4l-43 -240h172q-2 -14 -2 -24.5t-2 -18.5q-2 -10 -5 -24.5t-7 -24.5h-172l-87 -489q-6 -41 -8 -69t9.5 -44t37 -24.5t72.5 -8.5h35q0 -27 -4 -47q0 -6 -3 -19.5t-7 -25.5h-33 q-68 0 -111 11.5t-66.5 38t-27.5 72.5q-1 12 -1 24q0 39 9 92l86 489h-149z" />
<glyph unicode="u" horiz-adv-x="860" d="M136 175q-1 16 -1 34q0 42 8 88l93 518q16 4 27 4h22h20t29 -4l-86 -479q-8 -49 -12 -94q-1 -11 -1 -21q1 -33 11 -60q14 -36 54 -57.5t122 -21.5q137 0 197.5 48t78.5 153l95 532q16 4 27 4h22h20t29 -4l-143 -811q-14 -4 -23.5 -4h-19.5q-8 0 -19.5 1t-28.5 3l-2 64 h-18q-27 -29 -58.5 -45.5t-65.5 -23.5t-68.5 -8t-65.5 -1q-82 0 -133 23.5t-78 64.5t-32 97z" />
<glyph unicode="v" horiz-adv-x="786" d="M174 815q8 2 22.5 3t24.5 1h25.5t23.5 -2l131 -719l-2 -16h19l2 16l383 719q10 2 23.5 2h25.5q10 0 24.5 -1t22.5 -3l-422 -805q-25 -8 -38 -9t-44 -1q-33 0 -45 1t-39 9z" />
<glyph unicode="w" horiz-adv-x="1026" d="M182 10l39 807q10 2 21.5 2h25.5h22.5t26.5 -2l-20 -721l-2 -14h24l3 14l237 498q14 4 29.5 6t27.5 2q14 0 30 -2t28 -6l63 -500l-2 -12h23l2 12l235 723q12 2 24.5 2h24.5h22.5t25.5 -2l-246 -809q-27 -6 -55.5 -7t-59.5 -1q-29 0 -49 1t-41 9l-41 416h-27l-186 -418 q-23 -6 -44 -7t-50 -1q-31 0 -58.5 1t-52.5 9z" />
<glyph unicode="x" horiz-adv-x="872" d="M57 4l387 397l-251 410q14 6 26 7t21 1h32.5t38.5 -4l209 -338l328 338q14 4 38.5 4h33.5q8 0 20 -1t23 -7l-396 -410l248 -397q-18 -4 -32.5 -4h-24.5t-30.5 1t-43.5 5l-192 316l-304 -316q-23 -4 -43 -5t-30 -1h-24.5t-33.5 4z" />
<glyph unicode="y" horiz-adv-x="786" d="M174 815q8 2 22.5 3t24.5 1h25.5t23.5 -2l131 -719l-2 -16h19l2 16l383 719q10 2 23.5 2h25.5q10 0 24.5 -1t22.5 -3l-623 -1190q-10 -2 -19 -2h-19q-12 0 -24.5 1t-20.5 5l147 295q23 45 36 53.5t23 12.5l2 10q-33 0 -48 1t-42 9z" />
<glyph unicode="z" horiz-adv-x="784" d="M84 0q0 25 4 41q2 10 5 20.5t11 32.5l607 633h-500q2 14 3 26.5t3 18.5q2 8 4 20.5t6 26.5h617q-2 -14 -3 -23.5t-1 -15.5q-2 -10 -5.5 -23.5t-9.5 -29.5q-18 -18 -86 -90q-29 -31 -72.5 -77t-106 -112.5t-145.5 -154.5t-190 -201h490q0 -14 -2 -25.5t-2 -17.5 q-2 -8 -4 -22.5t-7 -26.5h-616z" />
<glyph unicode="{" horiz-adv-x="606" d="M198 491.5q1 8.5 3 16.5q2 6 4 17.5t8 25.5q37 0 62.5 7t44 26.5t32 57.5t25.5 103l53 302q2 14 7 30.5t15.5 30.5t28 24.5t45.5 10.5h166q-2 -12 -3 -25.5t-3 -19.5q-4 -18 -10 -47h-82q-29 0 -48.5 -7.5t-27.5 -50.5l-43 -248q-16 -86 -42.5 -140t-65.5 -93 q27 -37 35 -85t-7 -132l-47 -264q-8 -43 9.5 -50.5t45.5 -7.5h82q0 -12 -2 -24t-4 -23q-2 -6 -4 -19t-6 -26h-166q-29 0 -43 10.5t-19 24.5t-4 30.5t5 30.5l53 304q12 66 12 102.5t-12 56t-35.5 24.5t-60.5 5q-2 14 -1 22.5z" />
<glyph unicode="|" horiz-adv-x="323" d="M92 -115l221 1254q16 4 28.5 4h20.5h21.5t28.5 -4l-222 -1254q-18 -4 -29 -4h-22h-20.5t-26.5 4z" />
<glyph unicode="}" horiz-adv-x="606" d="M92 -119q2 12 3 25.5t3 19.5q2 18 11 47h81q29 0 48.5 7.5t27.5 50.5l47 264q14 84 40 132t67 85q-27 39 -35 93t8 140l43 248q8 43 -9 50.5t-46 7.5h-82q0 12 2 24t4 23q2 6 4 19t6 26h166q29 0 43.5 -10.5t19.5 -24.5t4 -30.5t-3 -30.5l-53 -302q-12 -66 -12.5 -103.5 t11 -57t35 -26.5t60.5 -7q0 -27 -4 -43q-2 -8 -4.5 -16.5t-6.5 -22.5q-37 0 -62.5 -5t-44 -24.5t-30.5 -56.5t-24 -102l-54 -304q-4 -14 -8 -30.5t-15 -30.5t-28.5 -24.5t-46.5 -10.5h-166z" />
<glyph unicode="~" horiz-adv-x="960" d="M203 522q47 35 91 46.5t93 11.5q51 0 98 -19.5t92.5 -43t88.5 -43t88 -19.5t70.5 9t64.5 38q6 -8 11 -14.5t9 -12.5q6 -6 8.5 -17.5t6.5 -21.5q-47 -35 -92.5 -49t-94.5 -14q-51 0 -97 19.5t-90 43t-88 43t-89 19.5t-71 -9.5t-64 -35.5q-6 8 -12.5 14t-8.5 12 q-4 6 -8 21.5t-6 21.5z" />
<glyph unicode="&#xad;" horiz-adv-x="755" d="M178 356q0 12 1 22.5t3 20.5t4 19.5t9 19.5h518q4 -10 3 -19t-3 -20l-4 -20t-9 -23h-522z" />
<glyph unicode="&#xbc;" horiz-adv-x="1179" d="M252 889l225 131q12 2 23.5 3t17.5 1q8 0 18.5 -1t22.5 -3l-106 -612q-14 -2 -25.5 -3.5t-17.5 -1.5q-8 0 -18.5 1.5t-20.5 3.5l92 524q-41 -25 -85 -51.5t-89 -49.5q-6 4 -14.5 12.5l-12.5 12.5q-4 6 -8 13.5t-2 19.5zM326 6l628 1012q16 4 26.5 5t27.5 1q20 0 28 -3 t19 -9l-627 -1000q-12 -6 -21.5 -9t-29.5 -3q-16 0 -26.5 1t-24.5 5zM678 180q0 29 2 37t4 16.5t6 20.5l318 362q12 2 32.5 3.5t34.5 1.5h22.5t18.5 -5l-65 -362h71q0 -27 -2 -35t-4 -17t-6 -22h-72l-30 -176q-16 -4 -26.5 -4h-14.5h-20.5t-20.5 4l30 176h-278zM784 254h185 l49 276z" />
<glyph unicode="&#xbd;" horiz-adv-x="1271" d="M252 889l225 131q12 2 23.5 3t17.5 1q8 0 18.5 -1t22.5 -3l-106 -612q-14 -2 -25.5 -3.5t-17.5 -1.5q-8 0 -18.5 1.5t-20.5 3.5l92 524q-41 -25 -85 -51.5t-89 -49.5q-6 4 -14.5 12.5l-12.5 12.5q-4 6 -8 13.5t-2 19.5zM326 6l628 1012q16 4 26.5 5t27.5 1q20 0 28 -3 t19 -9l-627 -1000q-12 -6 -21.5 -9t-29.5 -3q-16 0 -26.5 1t-24.5 5zM764 0v33q4 16 14 39q25 57 86.5 104t127 90t117.5 87t62 93q4 20 4.5 39t-11 33t-35 21.5t-68.5 7.5t-71.5 -7.5t-42 -21.5t-22.5 -32.5t-12 -39.5q-12 -4 -24 -4h-17q-8 0 -17 1t-24 6q6 29 16.5 59.5 t37 55t70.5 41t118 16.5q72 0 112 -16.5t56 -41t17.5 -55.5t-5.5 -59q-10 -59 -63 -108.5t-117.5 -94.5t-125 -87t-85.5 -85h322q-2 -12 -2 -21.5v-15.5q-2 -8 -4 -15.5t-7 -21.5h-407z" />
<glyph unicode="&#xbe;" horiz-adv-x="1241" d="M192.5 518q2.5 31 6.5 60q27 6 39 6q6 0 18 -1t25 -3q-4 -23 -5.5 -41.5t8 -32.5t32 -21.5t67.5 -7.5t71.5 7.5t42 21.5t21.5 32.5t10 41.5t4 41t-12 32.5t-41 21.5t-80 7q0 29 2 39q0 6 3.5 13t7.5 22q51 0 81.5 7t48 21.5t24.5 33t12 40.5q4 23 4 41.5t-11.5 32.5 t-35 21.5t-68.5 7.5t-71.5 -7.5t-40 -21.5t-18.5 -32.5t-9 -41.5q-12 -2 -25.5 -3t-19.5 -1q-14 0 -35 6q4 29 13 59.5t33.5 56t68 42t116.5 16.5q74 0 113 -16.5t56.5 -42t17.5 -56t-4 -59.5q-8 -37 -28 -74.5t-63 -66.5q33 -27 40 -66t1 -73q-4 -29 -15 -61t-38 -57.5 t-72 -42t-118 -16.5q-74 0 -111 16.5t-52.5 42t-13 56.5zM387 6l629 1012q16 4 26.5 5t26.5 1q20 0 28.5 -3t18.5 -9l-627 -1000q-12 -6 -21 -9t-30 -3q-16 0 -26.5 1t-24.5 5zM739 180q0 29 2 37t4.5 16.5t6.5 20.5l317 362q12 2 33 3.5t35 1.5h22t19 -5l-66 -362h72 q0 -27 -2 -35t-4 -17t-7 -22h-71l-31 -176q-16 -4 -26.5 -4h-14.5h-20.5t-20.5 4l31 176h-279zM846 254h184l49 276z" />
<glyph unicode="&#xbf;" horiz-adv-x="739" d="M111 8q10 55 36.5 95t62.5 70t77 54.5t75.5 50t60.5 57.5t34 75l32 190q16 4 29.5 5t22.5 1q10 0 22 -1t25 -5l-33 -192q-10 -57 -38 -96.5t-63.5 -68t-74.5 -52t-75 -49t-61.5 -57.5t-33.5 -77q-6 -35 -3 -57.5t22.5 -36.5t57.5 -19.5t101 -5.5q123 0 201 37 q8 -18 9 -42.5t1 -45.5q-53 -25 -114.5 -34t-116.5 -9q-72 0 -124.5 11.5t-85 36t-45 65.5t-1.5 100zM506 694l22 129q18 4 30.5 5t21.5 1q10 0 21 -1t26 -5l-23 -129q-16 -4 -27.5 -5t-19.5 -1q-10 0 -22.5 1t-28.5 5z" />
<glyph unicode="&#xff;" horiz-adv-x="1941" />
<glyph unicode="&#xe01;" horiz-adv-x="849" d="M109 4l88 498q8 53 28.5 94t42 68.5t39 43t21.5 17.5l2 12h-105l8 49q74 23 142.5 33t146.5 10q186 0 266 -91t46 -281l-80 -453q-16 -4 -27.5 -4h-21.5h-20.5t-29.5 4l78 447q10 61 4 113t-32.5 90t-74.5 60.5t-120 22.5h-78q-45 -49 -70.5 -93t-42.5 -77 q-18 -37 -26 -69l-86 -494q-16 -4 -27.5 -4h-21.5h-20.5t-28.5 4z" />
<glyph unicode="&#xe02;" horiz-adv-x="733" d="M131 139q0 35 4 54l41 227q14 88 28.5 141t28 84t28.5 45.5t34 24.5l2 12h-94q2 16 2 27.5t2 19.5q2 10 5 22.5t7 22.5h184l-22 -131q-6 -4 -18.5 -15t-26.5 -40t-30.5 -79t-31.5 -134l-38 -221q-4 -18 -1 -39t18 -38.5t47 -28.5t85 -11t88 11t55.5 27.5t29.5 37t13 39.5 l111 618q10 4 25.5 4h23.5h20.5t28.5 -4l-110 -622q-4 -18 -14.5 -53.5t-40 -68t-85 -57t-147.5 -24.5h-29q-92 0 -139 24.5t-65.5 57t-18.5 67.5z" />
<glyph unicode="&#xe03;" horiz-adv-x="712" d="M111 139q0 35 4 54l41 227q14 88 28.5 141t27.5 84t28.5 45.5t33.5 24.5l2 12h-94q0 16 2 29.5t4 21.5q2 10 4.5 20.5t6.5 20.5h55q2 0 5 -6t1 -16h51q0 4 4 8q2 4 5.5 7t7.5 7h55l-23 -131q-6 -4 -18 -15t-26.5 -40t-31 -79t-30.5 -134l-39 -221q-4 -18 -1 -39 t18.5 -38.5t47 -28.5t85.5 -11q53 0 87.5 11t55 27.5t30 37t13.5 39.5l111 618q10 4 25 4h24h20t29 -4l-111 -622q-4 -18 -14 -53.5t-40 -68t-85 -57t-148 -24.5h-28q-92 0 -139.5 24.5t-65.5 57t-18 67.5z" />
<glyph unicode="&#xe04;" horiz-adv-x="815" d="M72 4l82 461q12 70 28.5 135.5t56.5 116.5t110.5 81.5t189.5 30.5t179 -30.5t82.5 -81.5t17.5 -116.5t-17 -135.5l-82 -461q-16 -4 -27.5 -4h-21.5h-20.5t-28.5 4l86 488q6 39 10 82.5t-11.5 79.5t-57.5 59.5t-126 23.5t-133 -23.5t-76.5 -59.5t-39 -80t-17.5 -82 l-16 -95h12q25 14 74 17.5t90 3.5h88q2 -6 0 -19.5t-6 -27.5q-4 -23 -13 -45h-90q-43 0 -88 -4.5t-86 -26.5l-51 -291q-16 -4 -27.5 -4h-21.5h-20.5t-28.5 4z" />
<glyph unicode="&#xe05;" horiz-adv-x="825" d="M72 4l82 461q12 68 27.5 127t45 106t77.5 80t124 49l104 -45h11l123 47q66 -2 100.5 -35.5t47.5 -86t10 -117t-15 -127.5l-80 -459q-16 -4 -27.5 -4h-21.5h-20.5t-28.5 4l82 461q6 37 11 77t1 75.5t-21.5 66.5t-56.5 53l-121 -47h-10l-102 47q-45 -18 -74 -50 t-46.5 -69.5t-27.5 -79.5t-16 -83l-10 -58h12q25 14 74 17.5t90 3.5h88q2 -6 0 -19.5t-6 -27.5q-4 -23 -13 -45h-90q-43 0 -88 -4.5t-86 -26.5l-51 -291q-16 -4 -27.5 -4h-21.5h-20.5t-28.5 4z" />
<glyph unicode="&#xe06;" horiz-adv-x="815" d="M76 4l74 416q14 88 28.5 141t27.5 84t28.5 45.5t33.5 24.5l2 12h-94q0 16 2 29.5t4 21.5q2 10 4 20.5t7 20.5h55q2 0 5 -6t1 -16h51q0 4 4 8q2 4 5 7t8 7h55l-23 -131q-6 -4 -18 -15t-26.5 -40t-31 -79t-30.5 -134l-15 -74q-8 -51 0.5 -98t36 -84t75.5 -59.5t116 -22.5 q53 0 90 18.5t61.5 52t41 83t26.5 110.5l84 469q16 4 28.5 4h20.5h21.5t27.5 -4l-92 -520q-12 -66 -33.5 -121t-59.5 -96t-94.5 -64.5t-138.5 -23.5q-12 0 -48 3t-74.5 15t-71.5 36t-39 62v9h-16l-31 -111q-16 -4 -26.5 -4h-18.5h-21.5t-21.5 4z" />
<glyph unicode="&#xe07;" horiz-adv-x="661" d="M96 322q23 8 48.5 15t52.5 11q10 -70 23 -131t26 -127v-8h10q45 4 94 27.5t92 65.5t76 101.5t45 135.5q12 66 18.5 123t-6 100t-50.5 67.5t-113 24.5h-31q4 33 6 43q2 8 4 20.5t6 28.5h31q96 0 150.5 -32.5t77 -88t21.5 -130t-15 -156.5q-14 -78 -50.5 -154t-92.5 -135.5 t-130 -96t-162 -36.5q-23 0 -40 1t-35 5q-16 82 -28.5 163t-27.5 163z" />
<glyph unicode="&#xe08;" horiz-adv-x="733" d="M158 322q2 16 2 25t2 20q2 6 4 18t6 29h186l-30 -322h41q61 4 102 24.5t69.5 57.5t46 94.5t31.5 134.5l25 140q10 57 -1 95t-40 60.5t-72 30.5t-98 8q-53 0 -123.5 -9t-124.5 -21q-10 39 -4 86q29 8 65 15t71.5 11t69 7t60.5 3q78 0 139.5 -15t100.5 -50t53.5 -92.5 t-0.5 -141.5l-22 -127q-14 -80 -38 -152.5t-65 -127.5t-105.5 -89t-158.5 -34h-29.5t-39 2t-38 4t-26.5 8l33 308h-92z" />
<glyph unicode="&#xe09;" horiz-adv-x="811" d="M114 174q-3 55 9 121l35 197q16 4 27.5 4h21.5h20.5t28.5 -4l-27 -146q-10 -61 -11 -110.5t12.5 -83t44 -52t83.5 -18.5q68 0 123.5 22.5t95 59.5t65.5 84t34 98l35 197q10 57 -1.5 95t-41 59.5t-72.5 30.5t-98 9q-51 0 -121 -9t-123 -23q-4 18 -7 41.5t1 46.5 q61 16 137 26t127 10q78 0 139.5 -15t101.5 -50t54 -92.5t0 -141.5l-92 -526q-10 -4 -21.5 -4h-21.5h-18.5t-26.5 4l6 111h-17v-9q-20 -39 -60 -62.5t-83 -35.5t-81 -15t-50 -3q-82 0 -130 23.5t-71.5 64.5t-26.5 96z" />
<glyph unicode="&#xe0a;" horiz-adv-x="778" d="M134 139q-3 35 1 54l41 227q14 88 28.5 141t28 84t28.5 45.5t34 24.5l2 12h-94q2 16 2 27.5t2 19.5q2 10 5 22.5t7 22.5h184l-22 -131q-6 -4 -18.5 -15t-26.5 -40t-30.5 -79t-31.5 -134l-41 -225q-6 -37 31 -75t142 -38q106 0 155 37t55 74l54 303q6 31 9 59.5t-2 50 t-23.5 34.5t-55.5 13h-45q0 12 2 25.5t4 21.5q2 10 4 22.5t6 27.5h47q37 0 58.5 8t33 21.5t15.5 29.5t8 33l8 51q18 4 30.5 4h23.5h23t22 -4l-9 -51q-2 -10 -7 -32t-18 -43.5t-36 -38.5t-59 -17l-2 -9q14 0 28.5 -12t24.5 -38.5t13 -65.5t-5 -90l-53 -303 q-4 -18 -17.5 -53.5t-47.5 -68t-93 -57t-154 -24.5h-28q-92 0 -142.5 24.5t-73 57t-25.5 67.5z" />
<glyph unicode="&#xe0b;" horiz-adv-x="757" d="M114 139q-3 35 1 54l41 227q14 88 28.5 141t27.5 84t28.5 45.5t33.5 24.5l2 12h-94q0 16 2 29.5t4 21.5q2 10 4.5 20.5t6.5 20.5h55q2 0 5 -6t1 -16h51q0 4 4 8q2 4 5.5 7t7.5 7h55l-23 -131q-6 -4 -18 -15t-26.5 -40t-31 -79t-30.5 -134l-41 -225q-6 -37 31 -75t141 -38 q106 0 155.5 37t55.5 74l53 303q6 31 9.5 59.5t-2 50t-24 34.5t-54.5 13h-46q0 12 2.5 25.5t4.5 21.5q2 10 4 22.5t6 27.5h47q37 0 58.5 8t32.5 21.5t15.5 29.5t8.5 33l8 51q18 4 30.5 4h22.5h23.5t21.5 -4l-8 -51q-2 -10 -7 -32t-18.5 -43.5t-36 -38.5t-59.5 -17l-2 -9 q14 0 28.5 -12t25 -38.5t13.5 -65.5t-5 -90l-54 -303q-4 -18 -17 -53.5t-47 -68t-93.5 -57t-153.5 -24.5h-29q-92 0 -142 24.5t-72.5 57t-25.5 67.5z" />
<glyph unicode="&#xe0c;" horiz-adv-x="1347" d="M109 4l88 498q8 53 28.5 94t42 68.5t39 43t21.5 17.5l2 12h-105l8 49q74 23 142.5 33t146.5 10q186 0 266 -91t46 -281l-25 -135q-18 -106 30 -173t185 -67q53 0 86 20.5t52.5 53t28.5 75.5t17 91l88 493q16 2 26.5 3t20.5 1t22.5 -1t29.5 -3l-92 -520q-12 -66 -32 -121 t-54.5 -96t-85 -64.5t-123.5 -23.5q-12 0 -46 3t-70 14t-65.5 35t-35.5 64v9h-17l-31 -111q-16 -4 -26 -4h-19h-21t-22 4l78 447q10 61 4 113t-32.5 90t-74.5 60.5t-120 22.5h-78q-45 -49 -70.5 -93t-42.5 -77q-18 -37 -26 -69l-72 -406h109q0 -27 -4 -47q0 -6 -3.5 -19.5 t-7.5 -25.5h-159q-8 0 -19.5 1t-27.5 3z" />
<glyph unicode="&#xe0d;" horiz-adv-x="1343" d="M109 4l88 498q8 53 28.5 94t42 68.5t39 43t21.5 17.5l2 12h-105l8 49q74 23 142.5 33t146.5 10q186 0 266 -91t46 -281l-25 -140q-8 -45 -13 -88t2 -75.5t32.5 -52t78.5 -19.5q68 0 119 19.5t88 52t58.5 77.5t31.5 97l86 487q16 4 27.5 4h21.5h20.5t29.5 -4l-129 -733 q-12 -66 -33 -121t-54.5 -96t-85 -64.5t-122.5 -23.5h-228q0 16 2 30.5t4 18.5q2 10 3.5 21.5t5.5 21.5h229q51 0 84 19.5t51.5 53t28.5 77.5t18 94h-18l-2 -9q-10 -43 -46 -66.5t-77 -33.5t-79 -12t-50 -2q-72 0 -115 22.5t-62.5 63.5t-20.5 96t12 121l26 158q10 61 4 113 t-32.5 90t-74.5 60.5t-120 22.5h-78q-45 -49 -70.5 -93t-42.5 -77q-18 -37 -26 -69l-72 -406h109q0 -27 -4 -47q0 -6 -3.5 -19.5t-7.5 -25.5h-159q-8 0 -19.5 1t-27.5 3z" />
<glyph unicode="&#xe0e;" horiz-adv-x="884" d="M66 0q0 12 1 25.5t1 19.5q2 8 5 19.5t7 27.5h78l73 410q8 53 29 94t42.5 68.5t38.5 43t21 17.5l3 12h-105l8 49q74 23 142.5 33t146.5 10q186 0 266 -91t45 -281l-92 -520q-18 -104 -32.5 -170t-41 -104t-70.5 -51t-122 -13h-424q0 16 2 30.5t2 18.5q2 10 4 21.5t6 21.5 h426q41 0 64.5 9t38 35.5t25 75t24.5 126.5l90 514q10 61 4 113t-32.5 90t-75 60.5t-119.5 22.5h-78q-45 -49 -70.5 -93t-42.5 -77q-18 -37 -26 -69l-86 -494q-16 -2 -27.5 -3t-19.5 -1h-129z" />
<glyph unicode="&#xe0f;" horiz-adv-x="884" d="M66 0q0 12 1 25.5t1 19.5q2 8 5 19.5t7 27.5h78l73 410q8 53 29 94t42.5 68.5t38.5 43t21 17.5l3 12h-105l8 49q74 23 142.5 33t146.5 10q186 0 266 -91t45 -281l-92 -520q-18 -104 -32.5 -170t-41 -104t-70.5 -51t-122 -13h-96l-86 69h-11l-108 -69h-123q0 16 2 30.5 t2 18.5q2 10 4 21.5t6 21.5h117l117 69h10l92 -69h90q41 0 64.5 9t38 35.5t25 75t24.5 126.5l90 514q10 61 4 113t-32.5 90t-75 60.5t-119.5 22.5h-78q-45 -49 -70.5 -93t-42.5 -77q-18 -37 -26 -69l-86 -494q-16 -2 -27.5 -3t-19.5 -1h-129z" />
<glyph unicode="&#xe10;" horiz-adv-x="733" d="M88 -258q0 10 1 22.5t3 22.5t5 23.5t7 23.5h62l113 49h14l96 -49h21q41 0 63.5 2t35.5 11.5t19.5 30t12.5 59.5l4 26q16 2 27.5 3t19.5 1q10 0 21.5 -1t25.5 -3l-4 -26q-10 -59 -20.5 -97.5t-34 -60t-67.5 -29.5t-120 -8h-12l-94 49h-31q-29 -10 -56.5 -23.5t-56.5 -25.5 h-55zM158 322q2 16 2 25t2 20q2 6 4 18t6 29h186l-30 -322h41q61 4 102 24.5t69.5 57.5t46 94.5t31.5 134.5l25 140q10 57 -1 95t-40 60.5t-72 30.5t-98 8q-53 0 -123.5 -9t-124.5 -21q-10 39 -4 86q29 8 65 15t71.5 11t69 7t60.5 3q41 0 76 -4t68 -12l2 23q49 53 123 53h86 q0 -12 -2 -25.5t-4 -21.5q-2 -10 -5.5 -22.5t-7.5 -22.5h-86q-2 0 -6 1t-10 7l-6 -33q45 -35 63.5 -92t1.5 -150l-22 -127q-14 -80 -38 -152.5t-65 -127.5t-105.5 -89t-158.5 -34h-29.5t-39 2t-38 4t-26.5 8l33 308h-92z" />
<glyph unicode="&#xe11;" horiz-adv-x="817" d="M76 4l76 426q14 84 38.5 138.5t47.5 86.5q27 37 55 60l2 12h-119q0 16 2 29.5t4 21.5q2 10 4 20.5t7 20.5h55q2 0 5 -6t1 -16h51q0 4 4 8q2 4 5 7t8 7h55l-12 -71h14q16 23 44 39t58.5 25t60 13t52.5 4q74 0 121 -23.5t72.5 -64.5t30.5 -97t-5 -120l-92 -520 q-16 -2 -28.5 -3t-22.5 -1q-8 0 -19.5 1t-27.5 3l82 469q8 49 9 96t-11.5 84t-42 60.5t-82.5 23.5q-74 0 -131.5 -25.5t-97.5 -68.5t-65.5 -101.5t-35.5 -121.5l-74 -416q-16 -2 -27.5 -3t-21.5 -1t-21.5 1t-27.5 3z" />
<glyph unicode="&#xe12;" horiz-adv-x="1323" d="M104.5 122q-4.5 46 8.5 118l39 223q12 68 28.5 127t46 106t77.5 81t124 50l104 -45h11l123 47q66 -2 100.5 -35.5t47.5 -86t10 -117t-15 -127.5l-25 -144q-18 -104 30 -170.5t185 -66.5q53 0 86 20.5t52.5 53t29 75.5t17.5 91l88 493q16 2 26.5 3t20.5 1t22.5 -1t28.5 -3 l-92 -520q-12 -66 -31.5 -121t-54.5 -96t-85 -64.5t-124 -23.5q-12 0 -46 3t-70 14t-65.5 35t-35.5 64v9h-16l-31 -111q-16 -4 -26.5 -4h-18.5h-21.5t-21.5 4l82 461q6 37 11 77t1 75.5t-21.5 66.5t-56.5 53l-121 -47h-10l-102 47q-45 -18 -74 -50t-46.5 -69.5t-27.5 -79.5 t-16 -83l-39 -211q-6 -43 -7 -72t9 -46t36.5 -25.5t74.5 -8.5h34q0 -27 -4 -47q0 -6 -3 -19.5t-7 -25.5h-33q-68 0 -111.5 11.5t-67 38t-28 72.5z" />
<glyph unicode="&#xe13;" horiz-adv-x="1347" d="M109 4l88 498q8 53 28.5 94t42 68.5t39 43t21.5 17.5l2 12h-105l8 49q74 23 142.5 33t146.5 10q186 0 266 -91t46 -281l-25 -135q-8 -47 -13 -90.5t3 -76t33.5 -53t78.5 -20.5q137 0 208 66.5t89 170.5l88 496q16 2 28.5 3t23.5 1q10 0 20 -1t27 -3l-144 -811 q-10 -4 -21 -4h-22h-18t-27 4l6 111h-16v-9q-23 -41 -60.5 -64.5t-77.5 -34.5t-74 -14t-46 -3q-74 0 -117 23.5t-62.5 64.5t-20.5 96t12 121l26 156q10 61 4 113t-32.5 90t-74.5 60.5t-120 22.5h-78q-45 -49 -70.5 -93t-42.5 -77q-18 -37 -26 -69l-72 -406h109q0 -27 -4 -47 q0 -6 -3.5 -19.5t-7.5 -25.5h-159q-8 0 -19.5 1t-27.5 3z" />
<glyph unicode="&#xe14;" horiz-adv-x="825" d="M104.5 122q-4.5 46 8.5 118l39 223q12 68 31.5 134.5t61.5 117.5t113.5 82.5t188.5 31.5q111 0 170 -33.5t83.5 -87t22.5 -118t-14 -127.5l-80 -459q-16 -4 -27.5 -4h-21.5h-20.5t-28.5 4l82 471q6 39 11 84t-10.5 85t-57.5 66.5t-130 26.5q-84 0 -134 -26.5t-79.5 -66.5 t-42 -88t-18.5 -89l-41 -223q-6 -43 -7 -72t10 -46t36.5 -25.5t73.5 -8.5h34q0 -27 -4 -47q0 -6 -3 -19.5t-7 -25.5h-33q-68 0 -111.5 11.5t-67 38t-28 72.5z" />
<glyph unicode="&#xe15;" horiz-adv-x="825" d="M104.5 122q-4.5 46 8.5 118l39 223q12 68 28.5 127t46 106t77.5 81t124 50l104 -45h11l123 47q66 -2 100.5 -35.5t47.5 -86t10 -117t-15 -127.5l-80 -459q-16 -4 -27.5 -4h-21.5h-20.5t-28.5 4l82 461q6 37 11 77t1 75.5t-21.5 66.5t-56.5 53l-121 -47h-10l-102 47 q-45 -18 -74 -50t-46.5 -69.5t-27.5 -79.5t-16 -83l-39 -211q-6 -43 -7 -72t9 -46t36.5 -25.5t74.5 -8.5h34q0 -27 -4 -47q0 -6 -3 -19.5t-7 -25.5h-33q-68 0 -111.5 11.5t-67 38t-28 72.5z" />
<glyph unicode="&#xe16;" horiz-adv-x="849" d="M109 4l88 498q8 53 28.5 94t42 68.5t39 43t21.5 17.5l2 12h-105l8 49q74 23 142.5 33t146.5 10q186 0 266 -91t46 -281l-80 -453q-16 -4 -27.5 -4h-21.5h-20.5t-29.5 4l78 447q10 61 4 113t-32.5 90t-74.5 60.5t-120 22.5h-78q-45 -49 -70.5 -93t-42.5 -77 q-18 -37 -26 -69l-72 -406h109q0 -27 -4 -47q0 -6 -3.5 -19.5t-7.5 -25.5h-159q-8 0 -19.5 1t-27.5 3z" />
<glyph unicode="&#xe17;" horiz-adv-x="835" d="M96 4l144 811q10 4 21 4h22h18t27 -4l-9 -110h17l2 8q20 39 60 62.5t83 35.5t81 15t50 3q82 0 130.5 -23.5t72 -64.5t26.5 -96t-10 -121l-92 -520q-16 -4 -27.5 -4h-21.5h-20.5t-28.5 4l82 469q12 61 13 110.5t-12 83t-44 52t-84 18.5q-68 0 -123 -22.5t-96 -59.5 t-66.5 -84t-34.5 -98l-81 -469q-16 -4 -27.5 -4h-22.5h-20t-29 4z" />
<glyph unicode="&#xe18;" horiz-adv-x="761" d="M115 31l41 235q16 2 28.5 3t22.5 1q8 0 19.5 -1t27.5 -3l-27 -155q55 -18 117 -23.5t92 -5.5q72 0 119 21.5t61 101.5l19 100q6 35 -28 56.5t-87 39t-115.5 34t-114.5 42t-83 63.5t-21 97q10 61 40 98t74 58.5t103.5 28.5t131.5 7q59 0 126.5 -7t116.5 -23 q-6 -20 -14 -43t-19 -41q-41 10 -101 16t-122 6q-63 0 -106 -2t-70 -11t-41 -29.5t-20 -57.5q-6 -33 27.5 -55.5t87 -42t116 -37t114.5 -40t83.5 -51t25.5 -71.5l-24 -135q-12 -66 -40 -107t-68 -65.5t-88 -33.5t-99 -9q-31 0 -72 2t-82 6t-81 12t-70 21z" />
<glyph unicode="&#xe19;" horiz-adv-x="821" d="M124 174q-3 55 9 121l92 520q16 4 27.5 4h21.5h20.5t29.5 -4l-84 -469q-10 -61 -11.5 -110.5t12 -83t44 -52t84.5 -18.5q68 0 123 22.5t95 59.5t65.5 84t33.5 98l84 469q16 4 27.5 4h21.5h20.5t28.5 -4l-143 -811q-10 -4 -21.5 -4h-21.5h-18.5t-26.5 4l6 111h-16v-9 q-20 -39 -60.5 -62.5t-83.5 -35.5t-80.5 -15t-50.5 -3q-82 0 -130 23.5t-71.5 64.5t-26.5 96z" />
<glyph unicode="&#xe1a;" horiz-adv-x="841" d="M128 187.5q3 58.5 15 125.5l90 502q16 4 27.5 4h22.5h20t29 -4l-92 -514q-6 -41 -9.5 -80t12 -69.5t58.5 -50t129 -19.5t136 19.5t78 50t38 69.5t16 80l93 514q16 4 27 4h22h20t29 -4l-90 -502q-12 -68 -28.5 -126t-56.5 -102t-111 -69.5t-189 -25.5q-119 0 -180.5 25.5 t-85 69.5t-20.5 102.5z" />
<glyph unicode="&#xe1b;" horiz-adv-x="841" d="M128 187.5q3 58.5 15 125.5l90 502q16 4 27.5 4h22.5h20t29 -4l-92 -514q-6 -41 -9.5 -80t12 -69.5t58.5 -50t129 -19.5t136 19.5t78 50t38 69.5t16 80l140 780q16 4 27.5 4h21.5h20.5t28.5 -4l-137 -768q-12 -68 -28.5 -126t-56.5 -102t-111 -69.5t-189 -25.5 q-119 0 -180.5 25.5t-85 69.5t-20.5 102.5z" />
<glyph unicode="&#xe1c;" horiz-adv-x="940" d="M137 10l78 805q10 2 20.5 3t22.5 1h174q2 -23 0 -39q-2 -8 -5 -22.5t-9 -30.5h-115l-55 -645h24l2 12l228 498q18 6 37.5 8t35.5 2q14 0 34 -3t34 -7l57 -498l-2 -12h25l192 733q14 4 26.5 4h25.5h22t23 -4l-209 -805q-27 -8 -54.5 -9t-58.5 -1t-50 1t-42 7l-33 484h-18 l-205 -484q-18 -6 -39.5 -7t-50.5 -1q-31 0 -59.5 1t-55.5 9z" />
<glyph unicode="&#xe1d;" horiz-adv-x="946" d="M137 10l78 805q10 2 20.5 3t22.5 1h174q2 -23 0 -39q-2 -8 -5 -22.5t-9 -30.5h-115l-55 -645h24l2 12l228 498q18 6 37.5 8t35.5 2q14 0 34 -3t34 -7l57 -498l-2 -12h25l262 999q14 4 26.5 4h24.5h22.5t22.5 -4l-278 -1071q-27 -8 -54.5 -9t-58.5 -1t-50 1t-42 7l-33 484 h-18l-205 -484q-18 -6 -39.5 -7t-50.5 -1q-31 0 -59.5 1t-55.5 9z" />
<glyph unicode="&#xe1e;" horiz-adv-x="940" d="M137 10l78 805q10 4 22.5 4h24.5h23.5t25.5 -4l-63 -733h24l2 12l228 498q18 6 37.5 8t35.5 2q14 0 34 -3t34 -7l57 -498l-2 -12h25l192 733q14 4 27 4h25h22t23 -4l-209 -805q-27 -8 -54.5 -9t-58.5 -1t-50 1t-42 7l-33 484h-18l-205 -484q-18 -6 -39.5 -7t-50.5 -1 q-31 0 -59.5 1t-55.5 9z" />
<glyph unicode="&#xe1f;" horiz-adv-x="946" d="M137 10l78 805q10 4 22.5 4h24.5h23.5t25.5 -4l-63 -733h24l2 12l228 498q18 6 37.5 8t35.5 2q14 0 34 -3t34 -7l57 -498l-2 -12h25l260 999q14 4 26.5 4h24.5h22.5t22.5 -4l-276 -1071q-27 -8 -54.5 -9t-58.5 -1t-50 1t-42 7l-33 484h-18l-205 -484q-18 -6 -39.5 -7 t-50.5 -1q-31 0 -59.5 1t-55.5 9z" />
<glyph unicode="&#xe20;" horiz-adv-x="884" d="M66 0q0 12 1 25.5t1 19.5q2 8 5 19.5t7 27.5h78l73 410q8 53 29 94t42.5 68.5t38.5 43t21 17.5l3 12h-105l8 49q74 23 142.5 33t146.5 10q186 0 266 -91t45 -281l-80 -453q-16 -4 -27 -4h-22h-20t-29 4l78 447q10 61 4 113t-32.5 90t-75 60.5t-119.5 22.5h-78 q-45 -49 -70.5 -93t-42.5 -77q-18 -37 -26 -69l-86 -494q-16 -2 -27.5 -3t-19.5 -1h-129z" />
<glyph unicode="&#xe21;" horiz-adv-x="835" d="M96 4l144 811q16 4 28.5 4h20.5h21.5t27.5 -4l-84 -469q-8 -51 0 -98t35.5 -84t76 -59.5t115.5 -22.5q53 0 90 18.5t61.5 52t41 83t26.5 110.5l84 469q16 4 28.5 4h21.5h21t28 -4l-92 -520q-12 -66 -34 -121t-60 -96t-94 -64.5t-138 -23.5q-12 0 -48 3t-75 15t-71.5 36 t-39.5 62v9h-16l-31 -111q-16 -4 -26.5 -4h-18.5h-21.5t-21.5 4z" />
<glyph unicode="&#xe22;" horiz-adv-x="847" d="M102 155q4 46 13 91q10 59 33.5 95t47 55.5t42.5 25.5l18 6q-41 0 -58.5 27.5t-21.5 62.5t0 66.5t4 40.5q12 74 43 112.5t73 57t93 21.5t107 3h41q0 -27 -5 -43q-2 -8 -4 -18t-8 -31q-59 0 -101 -2t-72 -12.5t-46 -30.5t-22 -57q-4 -16 -5.5 -43t14 -51.5t55.5 -42 t118 -17.5h35q-4 -31 -7 -49q-2 -6 -4 -16.5t-6 -26.5h-33q-70 0 -112.5 -9.5t-67 -25.5t-36 -40.5t-17.5 -57.5q-8 -41 -11 -72t7 -51.5t37.5 -30.5t83.5 -10h219q45 0 70.5 10t40 30.5t21.5 51.5t15 72l101 569q16 4 28.5 4h20.5h21.5t27.5 -4l-102 -571 q-12 -68 -23.5 -116t-37 -79t-73 -45t-127.5 -14h-219q-92 0 -137 22.5t-61.5 59.5t-12.5 83z" />
<glyph unicode="&#xe23;" horiz-adv-x="720" d="M121 25q6 27 15 53t26 47q47 -20 104.5 -31.5t108.5 -11.5q35 0 71.5 8t68.5 24.5t55.5 44t29.5 66.5q8 45 -24.5 73t-86 47.5t-117 36.5t-114.5 46t-82 72t-18 114q20 121 114.5 168t237.5 47q57 0 129 -7t123 -23q-4 -20 -13.5 -43t-21.5 -41q-41 10 -105.5 16 t-123.5 6q-63 0 -106.5 -6t-71 -20.5t-43 -38t-21.5 -58.5q-8 -45 25.5 -72.5t86 -48t116 -40t114.5 -48t82 -71.5t18 -109q-12 -66 -47 -110.5t-82 -72.5t-103 -40t-108 -12q-137 0 -237 35z" />
<glyph unicode="&#xe24;" horiz-adv-x="849" d="M109 4l88 498q8 53 28.5 94t42 68.5t39 43t21.5 17.5l2 12h-105l8 49q74 23 142.5 33t146.5 10q186 0 266 -91t46 -281l-152 -854q-16 -4 -27.5 -4h-21.5h-20.5t-28.5 4l149 848q10 61 4 113t-32.5 90t-74.5 60.5t-120 22.5h-78q-45 -49 -70.5 -93t-42.5 -77 q-18 -37 -26 -69l-72 -406h109q0 -27 -4 -47q0 -6 -3.5 -19.5t-7.5 -25.5h-159q-8 0 -19.5 1t-27.5 3z" />
<glyph unicode="&#xe25;" horiz-adv-x="796" d="M94 242q12 68 48 114.5t87.5 75.5t110.5 41t119 12q53 0 111.5 -10t99.5 -29h14l16 93q10 57 -5 95t-47 60.5t-79 32.5t-100 10t-100 -5t-99 -21q-6 20 -7 41.5t1 44.5q59 16 122 24t116 8q78 0 139 -14t101 -48t55.5 -90t1.5 -140l-94 -533q-16 -4 -27.5 -4h-22.5h-20 t-29 4l68 385q-31 4 -78 4h-72q-61 0 -116.5 -2t-99.5 -16.5t-74.5 -44t-38.5 -84.5q-16 -84 22.5 -118t130.5 -36h68q2 -16 0 -27.5t-4 -19.5q0 -6 -3 -19.5t-8 -25.5h-65q-147 0 -206.5 50t-35.5 192z" />
<glyph unicode="&#xe26;" horiz-adv-x="874" d="M55 0q0 12 1 25.5t1 19.5q2 8 5.5 19.5t7.5 27.5h77l74 410q8 53 28.5 94t42 68.5t39 43t21.5 17.5l2 12h-104l8 49q74 23 142.5 33t146.5 10q186 0 266 -91t45 -281l-151 -854q-16 -4 -27.5 -4h-22.5h-20t-29 4l150 848q10 61 4 113t-33 90t-75 60.5t-119 22.5h-78 q-45 -49 -71 -93t-42 -77q-18 -37 -27 -69l-86 -494q-16 -2 -27 -3t-20 -1h-129z" />
<glyph unicode="&#xe27;" horiz-adv-x="671" d="M111 12q4 20 15 45t24 41q35 -10 63.5 -13t81.5 -3q45 0 85 7t71.5 27.5t54 57.5t33.5 94l47 271q10 57 -2.5 95t-41 60.5t-72.5 32.5t-99 10q-53 0 -102.5 -5t-96.5 -21q-6 20 -7 41.5t1 44.5q57 16 120.5 24t116.5 8q78 0 137.5 -14t96.5 -48t49 -90t-2 -140l-47 -269 q-14 -84 -48 -137t-80 -85t-101.5 -44t-112.5 -12q-53 0 -93 4t-91 18z" />
<glyph unicode="&#xe28;" horiz-adv-x="815" d="M72 4l82 461q12 70 28.5 135.5t56.5 116.5t110.5 81.5t189.5 30.5q74 0 123 -12l2 19q49 53 122 53h86q0 -12 -2 -25.5t-4 -21.5q-2 -10 -5 -22.5t-7 -22.5h-86q-2 0 -6 1t-10 7l-4 -25q35 -25 50 -59.5t18 -75.5t-2 -87t-13 -93l-82 -461q-16 -4 -27.5 -4h-21.5h-20.5 t-28.5 4l86 488q6 39 10 82.5t-11.5 79.5t-57.5 59.5t-126 23.5t-133 -23.5t-76.5 -59.5t-39 -80t-17.5 -82l-16 -95h12q25 14 74 17.5t90 3.5h88q2 -6 0 -19.5t-6 -27.5q-4 -23 -13 -45h-90q-43 0 -88 -4.5t-86 -26.5l-51 -291q-16 -4 -27.5 -4h-21.5h-20.5t-28.5 4z" />
<glyph unicode="&#xe29;" horiz-adv-x="854" d="M128 187.5q3 58.5 15 125.5l90 502q16 4 27.5 4h22.5h20t29 -4l-92 -514q-6 -41 -9.5 -80t12 -69.5t58.5 -50t129 -19.5t136 19.5t78 50t38 69.5t16 80l21 117h-297q-4 35 -1 60.5t7 56.5l6 34q10 4 20.5 4h22.5h29.5t21.5 -2l-18 -98h10q41 18 103.5 22.5t111.5 4.5 l56 315q16 4 27 4h22h20t29 -4l-55 -315h61q-2 -16 -1 -25.5t-1 -17.5q-2 -16 -14 -39h-62l-18 -105q-12 -68 -28.5 -126t-56.5 -102t-111 -69.5t-189 -25.5q-119 0 -180.5 25.5t-85 69.5t-20.5 102.5z" />
<glyph unicode="&#xe2a;" horiz-adv-x="796" d="M94 242q12 68 48 114.5t87.5 75.5t110.5 41t119 12q53 0 111.5 -10t99.5 -29h14l16 93q10 57 -5 95t-47 60.5t-79 32.5t-100 10t-100 -5t-99 -21q-6 20 -7 41.5t1 44.5q59 16 122 24t116 8q41 0 75.5 -4t69.5 -12l2 23q49 53 123 53h86q0 -12 -2 -25.5t-4 -21.5 q-2 -10 -5 -22.5t-7 -22.5h-86q-2 0 -6.5 1t-10.5 7l-6 -29q45 -35 64.5 -92t3.5 -147l-94 -533q-16 -4 -27.5 -4h-22.5h-20t-29 4l68 385q-31 4 -78 4h-72q-61 0 -116.5 -2t-99.5 -16.5t-74.5 -44t-38.5 -84.5q-16 -84 22.5 -118t130.5 -36h68q2 -16 0 -27.5t-4 -19.5 q0 -6 -3 -19.5t-8 -25.5h-65q-147 0 -206.5 50t-35.5 192z" />
<glyph unicode="&#xe2b;" horiz-adv-x="823" d="M96 4l144 811q10 2 21 3t22 1q8 0 19 -1t28 -3l-15 -123l-24 -145h198q43 0 86 13t78 40t59.5 66t35.5 90l10 59q18 2 29.5 3t21.5 1q8 0 19.5 -1t27.5 -3l-12 -61q-10 -66 -37 -119t-62 -88q29 -49 44.5 -112.5t1.5 -135.5l-52 -295q-16 -2 -27.5 -3t-19.5 -1 q-10 0 -22.5 1t-28.5 3l51 297q6 49 0 98.5t-35 108.5h-14q-10 -16 -40 -24.5t-65.5 -12.5t-69.5 -5t-50 -1h-142l-81 -461q-16 -2 -28.5 -3t-23.5 -1q-8 0 -19 1t-28 3z" />
<glyph unicode="&#xe2c;" horiz-adv-x="913" d="M137 10l78 805q10 4 22.5 4h24.5h23.5t25.5 -4l-63 -733h24l2 12l228 498q18 6 37.5 8t35.5 2q14 0 34 -3t34 -7l57 -498l-2 -12h25l156 602q6 31 10 61.5t-1 53t-23.5 37t-55.5 14.5h-45q0 12 1 21.5t3 17.5q2 10 4 18t6 23h47q37 0 58.5 9t33 23.5t15.5 33t8 34.5 l10 51q16 4 28.5 4h22.5h23.5t24.5 -4l-11 -51q-2 -10 -7 -31.5t-18.5 -43t-36 -39t-58.5 -17.5l-3 -8q33 -2 49.5 -24.5t20.5 -54.5t0 -66.5t-8 -61.5l-174 -674q-27 -8 -54.5 -9t-58.5 -1t-50 1t-42 7l-33 484h-18l-205 -484q-18 -6 -39.5 -7t-50.5 -1q-31 0 -59.5 1 t-55.5 9z" />
<glyph unicode="&#xe2d;" horiz-adv-x="794" d="M115 170q0 59 14 139l25 140h215q0 -16 -1 -25.5t-3 -20.5q-2 -8 -4.5 -17t-6.5 -21h-116l-17 -95q-8 -43 -8 -77.5t17.5 -59t58.5 -38t114 -13.5q59 0 102.5 6t76 36t57.5 93.5t45 177.5l25 148q10 57 -2.5 95t-41 59.5t-72.5 30.5t-99 9q-25 0 -56.5 -1t-65.5 -4 t-68 -8t-60 -11q-6 18 -8.5 41.5t0.5 44.5q31 8 66.5 14t72.5 9t71.5 5t61.5 2q78 0 140.5 -15t102.5 -50t54 -92.5t0 -141.5l-31 -178q-18 -98 -41.5 -166.5t-66.5 -112.5t-110 -63.5t-169 -19.5q-104 0 -162.5 20.5t-84 60.5t-25.5 99z" />
<glyph unicode="&#xe2e;" horiz-adv-x="798" d="M115 170q0 59 14 139l25 140h215q0 -16 -1 -25.5t-3 -20.5q-2 -8 -4.5 -17t-6.5 -21h-116l-17 -95q-8 -43 -8 -77.5t17.5 -59t58.5 -38t114 -13.5q59 0 102.5 6t76 36t57.5 93.5t45 177.5l25 148q10 57 -2.5 95t-41 59.5t-72.5 30.5t-99 9q-25 0 -56.5 -1t-65.5 -4 t-68 -8t-60 -11q-6 18 -8.5 41.5t0.5 44.5q31 8 66.5 14t72.5 9t71.5 5t61.5 2q84 0 149 -18l5 25q49 53 122 53h86q0 -12 -2 -25.5t-4 -21.5q-2 -10 -5 -22.5t-7 -22.5h-86q-2 0 -6 1t-10 7l-7 -35q43 -35 60.5 -93.5t1.5 -146.5l-31 -178q-18 -98 -41.5 -166.5 t-66.5 -112.5t-110 -63.5t-169 -19.5q-104 0 -162.5 20.5t-84 60.5t-25.5 99z" />
<glyph unicode="&#xe2f;" horiz-adv-x="688" d="M172 667q2 38 6 56l17 92q16 4 26 4h19h23t30 -4l-17 -94q-4 -18 -2 -42t17.5 -43.5t45.5 -33.5t83 -14t89 14t58.5 34.5t32.5 44.5t14 42l17 92q16 4 26.5 4h18.5h23.5t29.5 -4l-166 -934q-16 -4 -27.5 -4h-21.5h-20.5t-28.5 4l119 676q-37 -33 -80 -45t-84 -16h-29 q-96 0 -142 28.5t-62.5 66.5t-14.5 76z" />
<glyph unicode="&#xe30;" horiz-adv-x="489" d="M100 156q-4 35 1 71.5t12 77.5q10 4 19 4h24h27.5t21.5 -2l-15 -86h11q47 20 109.5 23.5t109.5 3.5h49q-2 -14 -2 -24.5t-2 -16.5q-2 -10 -5 -25.5t-7 -25.5h-353zM170 553q-4 35 1 72t11 77q10 4 19.5 4.5t23.5 0.5h27.5t21.5 -2l-14 -87h10q47 20 109.5 23.5t109.5 3.5 h50q-2 -14 -2 -24.5v-16.5q-4 -10 -7.5 -25.5t-7.5 -25.5h-352z" />
<glyph unicode="&#xe31;" d="M-330 993q-4 37 0 76t11 82q10 4 27.5 5t29.5 1h24.5t16.5 -2l-19 -98h17q47 23 104.5 25.5t106.5 2.5h227q-4 -35 -6 -45t-5 -23t-9 -24h-525z" />
<glyph unicode="&#xe32;" horiz-adv-x="569" d="M130 760q-1 16 3 39q31 12 65.5 18t65.5 9t53.5 3h30.5q76 0 123 -20.5t70.5 -57t26.5 -86t-7 -104.5l-98 -557q-16 -4 -28.5 -4h-22.5h-19.5t-27.5 4l98 559q4 27 5 57.5t-10.5 56t-41 43t-84.5 17.5q-45 0 -95.5 -2t-97.5 -14q-8 23 -9 39z" />
<glyph unicode="&#xe33;" horiz-adv-x="575" d="M-180 1090q10 57 58.5 98t103.5 41q57 0 89.5 -41t22.5 -98t-57 -97.5t-105 -40.5q-55 0 -88.5 40t-23.5 98zM-102 1090q-4 -27 11 -43.5t38 -16.5q29 0 48 16.5t23 43.5q6 29 -7 46t-42 17q-23 0 -44 -17.5t-27 -45.5zM136 760q-1 16 3 39q31 12 66 18t65.5 9t53 3h30.5 q76 0 123 -20.5t70.5 -57t27 -86t-7.5 -104.5l-98 -557q-16 -4 -28.5 -4h-22.5h-19.5t-27.5 4l98 559q4 27 5 57.5t-10 56t-41 43t-85 17.5q-45 0 -95 -2t-98 -14q-8 23 -9 39z" />
<glyph unicode="&#xe34;" d="M-516 993q0 10 1 17.5t3 13.5q2 8 5 22.5t7 22.5h33q12 2 34.5 4t46.5 5t45.5 5t35.5 2h397q-4 -35 -6 -45t-6 -23t-8 -24h-588z" />
<glyph unicode="&#xe35;" d="M-498 1016.5q2 13.5 4 23.5q2 6 4.5 17.5t6.5 27.5h260q49 0 104.5 -3t93.5 -25h17l16 98q10 2 16.5 2h24.5q12 0 29.5 -1t27.5 -5q-10 -43 -20 -82t-27 -76h-555q-4 10 -2 23.5z" />
<glyph unicode="&#xe36;" d="M-498 1016.5q2 13.5 4 23.5q2 6 4.5 17.5t6.5 27.5h233q37 0 76 -2t80 -18v8t2 8q8 43 40 72t68 29q39 0 62.5 -28t15.5 -67q-6 -39 -36.5 -64.5t-71.5 -29.5h-482q-4 10 -2 23.5z" />
<glyph unicode="&#xe37;" d="M-498 1016.5q2 13.5 4 23.5q2 6 4.5 17.5t6.5 27.5q88 0 174 -2t127 -16h24l17 86q10 4 21 4h28q12 0 25.5 -1t21.5 -7l-14 -82h53l14 88q10 2 16.5 2h24.5q12 0 29.5 -1t27.5 -5q-10 -43 -20 -82t-27 -76h-555q-4 10 -2 23.5z" />
<glyph unicode="&#xe38;" d="M-274 -207q0 10 1 18.5t3 22.5q2 10 5 22.5t7 20.5q47 0 83 -2t56 -12l-41 -225q-12 -6 -23.5 -7.5t-25.5 -1.5q-6 0 -17.5 1.5t-21.5 7.5q8 41 15.5 73.5t23.5 69.5l2 12h-67z" />
<glyph unicode="&#xe39;" d="M-434 -201q0 10 1 18.5t5 22.5q4 18 10 37q47 0 83 -2t52 -12l-30 -166h75l31 174q16 4 25.5 5t17.5 1q10 0 24.5 -1t20.5 -5l-39 -229q-25 -10 -66.5 -12.5t-62.5 -2.5q-41 0 -64.5 3t-58.5 14l4 22q4 31 10.5 55.5t16.5 61.5l2 16h-57z" />
<glyph unicode="&#xe3a;" d="M-252 -186q4 27 26.5 45t47.5 18t39 -18.5t10 -44.5q-4 -25 -25.5 -43.5t-46.5 -18.5t-40 18.5t-11 43.5z" />
<glyph unicode="&#xe3b;" />
<glyph unicode="&#xe3c;" />
<glyph unicode="&#xe3d;" />
<glyph unicode="&#xe3e;" />
<glyph unicode="&#xe3f;" horiz-adv-x="966" d="M113 0l180 1024h317l21 121q16 4 27.5 4h21.5h20.5t28.5 -4l-20 -121q70 0 132 -4t105 -30.5t60.5 -84t-0.5 -162.5q-16 -82 -46 -139t-83 -96q41 -37 51 -91.5t-4 -133.5q-18 -104 -56.5 -162t-90.5 -84.5t-115.5 -31.5t-133.5 -5l-22 -121q-16 -4 -28.5 -4h-20.5h-21.5 t-27.5 4l22 121h-317zM225 92h219l68 373h-219zM307 557h219l68 375h-219zM543 92q41 0 85 4t84 22.5t70.5 57.5t42.5 107t-4 105.5t-50 54t-77 19.5t-84 3zM625 557q41 0 85 4t84 21.5t70.5 55.5t42.5 105q12 68 -5 106t-50 56.5t-76 22.5t-84 4z" />
<glyph unicode="&#xe40;" horiz-adv-x="307" d="M106 4l144 811q16 4 27.5 4h19.5h22.5t28.5 -4l-143 -811q-16 -4 -28.5 -4h-20.5h-21.5t-28.5 4z" />
<glyph unicode="&#xe41;" horiz-adv-x="606" d="M113 4l143 811q16 4 27.5 4h19.5h22.5t28.5 -4l-143 -811q-16 -4 -28.5 -4h-20.5h-21.5t-27.5 4zM406 4l143 811q16 4 27.5 4h19.5h22.5t28.5 -4l-143 -811q-16 -4 -28.5 -4h-20.5h-21.5t-27.5 4z" />
<glyph unicode="&#xe42;" horiz-adv-x="358" d="M125 4l147 842q12 66 13.5 113t-2.5 77.5t-9.5 46t-7.5 19.5q-2 16 -1 30.5t3 28.5q4 10 8.5 29.5t10.5 38.5h389v-22.5t-4 -22.5q0 -8 -4 -20.5t-9 -26.5h-297l-2 -19l8 -10q7 -10 13 -40t5 -83t-15 -139l-148 -842q-16 -4 -28.5 -4h-22.5h-19.5t-27.5 4z" />
<glyph unicode="&#xe43;" horiz-adv-x="346" d="M133 4l123 701q12 72 42 122t60.5 86.5t55 66.5t30.5 64q6 31 7.5 51.5t-8 34t-34 18.5t-69.5 5q-14 0 -52 -5t-91 -34q-8 12 -15.5 37t-5.5 45q29 18 59.5 28.5t57 14.5t44 5t19.5 1q70 0 112 -12t61.5 -37t21.5 -61.5t-6 -87.5q-6 -31 -33 -68t-58.5 -80t-60 -91 t-39.5 -103l-123 -701q-16 -4 -28.5 -4h-22.5h-19t-28 4z" />
<glyph unicode="&#xe44;" horiz-adv-x="358" d="M117 1137q2 14 3 26.5t1 20.5q4 10 6 22.5t6 22.5h389q0 -18 -1 -38t-5 -30q-4 -29 -18 -59q-4 -4 -14.5 -19.5t-25 -46t-29.5 -78t-28 -112.5l-147 -842q-16 -4 -27.5 -4h-19.5h-22.5t-28.5 4l147 842q14 86 33.5 139t36 83t27.5 40l12 10l2 19h-297z" />
<glyph unicode="&#xe45;" horiz-adv-x="569" d="M130 760q-1 16 3 39q31 12 65.5 18t65.5 9t53.5 3h30.5q76 0 123 -20.5t70.5 -57t26.5 -86t-7 -104.5l-170 -958q-16 -4 -28.5 -4h-22.5h-19.5t-27.5 4l170 960q4 27 5 57.5t-10.5 56t-41 43t-84.5 17.5q-45 0 -95.5 -2t-97.5 -14q-8 23 -9 39z" />
<glyph unicode="&#xe46;" horiz-adv-x="714" d="M156 541l24 137q8 49 28.5 78.5t43 46t45 21.5t37.5 5h24q41 0 75 -19t30 -48h14q4 29 45 48t86 19h25q12 0 32.5 -5t38 -21.5t26.5 -46t1 -78.5l-141 -797q-16 -4 -27.5 -4h-21.5h-20.5t-28.5 4l141 801q4 20 -3 37.5t-26 17.5h-33q-25 0 -41 -10t-26 -53l-10 -58 q-18 -4 -29.5 -4h-22.5h-20t-27 4l11 58q4 43 -8.5 53t-35.5 10h-32q-20 0 -34.5 -22.5t-19.5 -42.5l-22 -131q-16 -4 -27.5 -4h-21.5h-20.5t-28.5 4z" />
<glyph unicode="&#xe47;" d="M-393 1062q-8 28 0 73l4 16q8 47 27.5 75.5t42 44t44 20.5t33.5 5h430q2 -12 0 -25.5t-4 -21.5q-2 -10 -5 -17t-7 -18h-399q-47 0 -59.5 -21.5t-14.5 -37.5l-6 -39q-8 -41 39 -41h18q35 0 46 15.5t18 48.5q16 4 25 4h20h19t24 -4q-6 -33 -2 -48.5t34 -15.5h23 q33 0 40 19.5t11 42.5q16 4 26.5 4h18.5h20.5t22.5 -4q-10 -53 -32.5 -82t-47.5 -43q-29 -16 -61 -19h-16q-100 0 -93 51h-14q-8 -51 -115 -51h-14q-16 0 -36.5 5.5t-36 20.5t-23.5 43z" />
<glyph unicode="&#xe48;" d="M35 1307l28 168q16 6 26 7t26 1q12 0 20 -1t27 -7l-29 -164q-16 -8 -25.5 -9.5t-25.5 -1.5q-12 0 -18.5 1.5t-28.5 5.5z" />
<glyph unicode="&#xe49;" d="M-119 1389v19t2 19q2 8 5 22.5t10 31.5h120h26.5t21.5 -2l-21 -115h18q18 10 44 16t56 9.5t58.5 3.5h52.5h52q0 -16 -2 -31.5t-5 -22.5q-4 -23 -12 -39h-370l16 89h-72z" />
<glyph unicode="&#xe4a;" d="M-301 1307l20 118q8 41 25.5 67t37 39t39 18t29.5 5h17q39 0 60.5 -14t15.5 -43h12q6 29 31.5 43t64.5 14h17q10 0 27.5 -5t32.5 -18t24.5 -39t1.5 -67l-7 -43h54q0 -8 -2 -20t-4 -21q-2 -8 -4.5 -17t-6.5 -24h-92q-27 0 -45 7l21 116q4 23 -2.5 36.5t-26.5 13.5h-21 q-23 0 -26.5 -9.5t-11.5 -50.5q-14 -4 -25.5 -4h-20.5q-6 0 -17 1t-26 5q8 39 5.5 48.5t-25.5 9.5h-23q-18 0 -28 -13.5t-15 -36.5l-6 -41h43q0 -6 -1 -19t-3 -22q-2 -8 -4 -17t-8 -24h-80q-27 0 -47 7z" />
<glyph unicode="&#xe4b;" d="M-25 1380q0 6 1 19.5t4 23.5q2 6 4 14.5t6 20.5h71l15 80q20 6 47 6q8 0 23.5 -1t27.5 -5l-14 -80h71v-14.5t-2 -16.5q0 -6 -4 -20t-8 -27h-72l-12 -73q-10 -4 -25.5 -5.5t-27.5 -1.5q-10 0 -22.5 2.5t-22.5 6.5l12 71h-72z" />
<glyph unicode="&#xe4c;" d="M-61 1305q8 41 17 77.5t26 71.5h317v-19.5t-4 -19.5q-2 -8 -5 -23.5t-7 -29.5h-13q-47 0 -107.5 3t-99.5 21h-14l-14 -83q-10 -2 -21.5 -2.5t-27.5 -0.5h-25.5t-21.5 5z" />
<glyph unicode="&#xe4d;" d="M-180 1090q10 57 58.5 98t103.5 41q57 0 89.5 -41t22.5 -98t-57 -97.5t-105 -40.5q-55 0 -88.5 40t-23.5 98zM-102 1090q-4 -27 11 -43.5t38 -16.5q29 0 48 16.5t23 43.5q6 29 -7 46t-42 17q-23 0 -44 -17.5t-27 -45.5z" />
<glyph unicode="&#xe4e;" />
<glyph unicode="&#xe4f;" horiz-adv-x="915" d="M186 420q12 74 50 137.5t92.5 110.5t122 73.5t139.5 26.5q74 0 132 -26.5t96 -73.5t54.5 -110.5t4.5 -137.5q-12 -72 -51.5 -134.5t-94.5 -108.5t-122.5 -72.5t-141.5 -26.5q-72 0 -130 26.5t-96 72.5t-52.5 108.5t-2.5 134.5zM233 420q-12 -61 1.5 -115.5t46 -94.5 t83 -62.5t111.5 -22.5q63 0 121.5 22.5t107 62.5t81 94t44.5 116q10 63 -3 117.5t-47 95.5t-84 64.5t-113 23.5q-61 0 -120 -23.5t-106 -64.5t-79.5 -95.5t-43.5 -117.5zM326 420q6 43 28.5 80t54 64.5t71.5 44t83 16.5q84 0 132 -59.5t34 -145.5q-8 -41 -30.5 -78 t-54.5 -64.5t-72 -43t-80 -15.5q-43 0 -77 15.5t-56.5 43t-31.5 64.5t-1 78z" />
<glyph unicode="&#xe50;" horiz-adv-x="825" d="M122 193.5q5 60.5 17 132.5q12 70 28.5 129t56.5 104t110.5 70.5t191.5 25.5t183.5 -25.5t86 -70.5t19.5 -106.5t-16 -133.5q-12 -68 -29.5 -128t-57.5 -105t-111 -70.5t-191 -25.5q-121 0 -183.5 25.5t-86 71.5t-18.5 106.5zM225.5 239q-4.5 -42 11 -77t59.5 -57.5 t130 -22.5q88 0 139 22.5t79 57.5t39 77t17 83q8 41 12.5 84t-12 77.5t-59.5 57t-131 22.5q-86 0 -137 -22.5t-79 -57t-39 -78t-19 -83.5q-6 -41 -10.5 -83z" />
<glyph unicode="&#xe51;" horiz-adv-x="811" d="M117 -6q4 23 14 45t21 39q49 -12 117.5 -20.5t121.5 -8.5q109 0 185.5 45t99.5 162l10 66q8 41 12 84t-11 77.5t-58 57t-129 22.5t-135.5 -11t-75 -30.5t-33.5 -48.5t-14 -63q-8 -41 -10.5 -68t9 -41t40 -20.5t81.5 -6.5q0 -14 -2 -24t-4 -19q0 -8 -2 -17t-6 -21 q-90 0 -138 9t-66.5 33.5t-15.5 67.5t15 113q6 39 20.5 82t52.5 77.5t108.5 57t191.5 22.5q119 0 181.5 -25.5t85 -70.5t18.5 -106.5t-17 -133.5l-8 -51q-31 -170 -138.5 -240.5t-264.5 -70.5q-27 0 -60.5 3t-68.5 7t-68 11.5t-59 15.5z" />
<glyph unicode="&#xe52;" horiz-adv-x="854" d="M114 116q-3 48 9 120l98 561q16 4 27.5 4h21.5h21.5t27.5 -4l-98 -555q-8 -45 -9 -76t11.5 -49.5t40 -26.5t76.5 -8h205q49 0 79.5 8t48 26.5t26 49.5t16.5 76l8 47l12 78t2 75.5t-21.5 67.5t-56.5 53l-90 -49h-12l-68 49q-27 0 -54.5 -16.5t-47.5 -32.5 q-10 4 -19.5 15.5t-13.5 17.5q-4 8 -7 15t-7 24q29 23 71 40t91 29l71 -49h13q16 10 43.5 24.5t46.5 24.5q66 -4 100.5 -38.5t48 -89t10 -120t-15.5 -128.5l-6 -43q-12 -72 -32.5 -120t-53.5 -76t-82 -39t-119 -11h-200q-70 0 -115 11t-69.5 39t-27.5 76z" />
<glyph unicode="&#xe53;" horiz-adv-x="847" d="M115 125q-4 47 8 119l8 39q12 70 29.5 130t49.5 108t82 82t128 50l108 -45h9l127 47q68 -2 103.5 -35.5t49.5 -87t12 -119t-14 -130.5l-49 -279q-16 -4 -27.5 -4h-21.5h-20.5t-28.5 4l51 293q6 37 9 76t-3 73.5t-24.5 64.5t-55.5 52l-127 -47h-8l-104 47q-45 -18 -76 -49 t-51.5 -68.5t-31.5 -79.5t-18 -83l-6 -35q-8 -43 -9 -73t9 -48t37 -26.5t76 -8.5h35q2 -16 0 -28.5t-4 -20.5t-4.5 -19.5t-6.5 -23.5h-32q-68 0 -113 11.5t-68.5 39t-27.5 74.5z" />
<glyph unicode="&#xe54;" horiz-adv-x="890" d="M115 194.5q2 61.5 14 133.5q12 68 31.5 128t63.5 104t119 69.5t198 25.5q66 0 125 2t105 12.5t77 32t37 62.5l6 29q14 2 27.5 2h19.5h21.5t29.5 -2l-6 -29q-12 -72 -54 -112t-104.5 -60.5t-140.5 -24.5t-160 -4q-86 0 -140 -22.5t-87 -57t-48.5 -78t-23.5 -83.5 q-6 -41 -5 -83t26.5 -77t81 -57.5t155.5 -22.5q-16 12 -24 33.5t-10.5 48t0 53.5t6.5 47l20 111h170q0 -16 -1 -25.5t-3 -19.5q-2 -8 -5 -21.5t-7 -25.5h-72q-6 -37 -10 -74t4 -64.5t34.5 -45t80.5 -17.5h161q2 -14 1 -23.5t-3 -17.5q-2 -10 -5 -24.5t-9 -26.5h-387 q-123 0 -188.5 25.5t-94 71.5t-26.5 107.5z" />
<glyph unicode="&#xe55;" horiz-adv-x="890" d="M115 194.5q2 61.5 14 133.5q10 61 27.5 116.5t53.5 98.5t96.5 71.5t156.5 36.5q-10 25 -6 56q10 51 51 86.5t92 35.5t81 -35.5t19 -86.5q-4 -29 -18 -50q84 4 138 26t65 81l6 29q14 2 27.5 2h19.5h21.5t29.5 -2l-6 -29q-12 -72 -54 -112t-104.5 -60.5t-140.5 -24.5 t-160 -4q-86 0 -140 -22.5t-87 -57t-48.5 -78t-23.5 -83.5q-6 -41 -5 -83t26.5 -77t81 -57.5t155.5 -22.5q-16 12 -24 33.5t-10.5 48t0 53.5t6.5 47l20 111h170q0 -16 -1 -25.5t-3 -19.5q-2 -8 -5 -21.5t-7 -25.5h-72q-6 -37 -10 -74t4 -64.5t34.5 -45t80.5 -17.5h161 q2 -14 1 -23.5t-3 -17.5q-2 -10 -5 -24.5t-9 -26.5h-387q-123 0 -188.5 25.5t-94 71.5t-26.5 107.5zM526 709q-4 -23 8.5 -38.5t34.5 -15.5h2q23 0 40.5 15.5t21.5 38.5t-9 38t-36 15t-40.5 -15.5t-21.5 -37.5z" />
<glyph unicode="&#xe56;" horiz-adv-x="829" d="M126 126q-1 36 5 67q6 33 14.5 62.5t26.5 51t54 34.5t98 13q-2 -14 -3.5 -26.5t-3.5 -20.5q-2 -6 -4 -18.5t-6 -26.5q-49 -2 -61.5 -24.5t-16.5 -44.5q-4 -27 -4 -47.5t19.5 -35t65.5 -21.5t134 -7q86 0 136.5 22.5t78 57.5t39 78t17.5 84l8 43q10 59 -1 97t-41 60.5 t-75 30.5t-100 8q-43 0 -91 -7t-120 -44q-18 -4 -30.5 -4h-22.5h-17.5t-19.5 4q-4 27 -6 68q-4 35 -5 88t-4 125q14 2 25.5 2h22.5h20t29 -4l6 -195q33 23 66.5 35t65.5 17t56.5 6t38.5 1q80 0 142.5 -15t102.5 -51t54.5 -93.5t-0.5 -143.5l-4 -26q-10 -59 -26.5 -120 t-56.5 -109t-111.5 -77.5t-192.5 -29.5t-184.5 20.5t-90 50t-27.5 65.5z" />
<glyph unicode="&#xe57;" horiz-adv-x="1056" d="M115 125q-4 47 8 119l8 39q12 70 29.5 130t49.5 108t82 82t128 50l108 -45h9l127 47q68 -2 103.5 -35.5t49.5 -87t12 -119t-14 -130.5l-35 -191q37 0 59.5 2t37 14.5t21.5 38t17 74.5l103 582q16 4 26.5 4h20.5h22.5t28.5 -4l-104 -588q-12 -70 -28.5 -112t-44.5 -65.5 t-71 -30.5t-110 -7h-41h-20.5t-28.5 2l51 295q6 37 9 76t-3 73.5t-24.5 64.5t-55.5 52l-127 -47h-8l-104 47q-45 -18 -76 -49t-51.5 -68.5t-31.5 -79.5t-18 -83l-6 -35q-8 -43 -9 -73t9 -48t37 -26.5t76 -8.5h35q2 -16 0 -28.5t-4 -20.5t-4.5 -19.5t-6.5 -23.5h-32 q-68 0 -113 11.5t-68.5 39t-27.5 74.5z" />
<glyph unicode="&#xe58;" horiz-adv-x="899" d="M117 201.5q0 58.5 10 122.5q12 70 30.5 130t60.5 105t115.5 70.5t194.5 25.5q66 0 125.5 2t105.5 12.5t76.5 32t36.5 62.5l7 29q14 2 27.5 2h19.5h21.5t29.5 -2l-6 -29q-12 -72 -54.5 -112t-104.5 -60.5t-140 -24.5t-160 -4q-86 0 -139.5 -22.5t-83 -58.5t-43 -79 t-21.5 -84q-6 -39 -8 -72.5t5 -63t27.5 -55.5t59.5 -46l125 57h15l106 -57q43 12 66.5 22.5t36 22.5t17.5 31.5t11 54.5l6 33q4 27 3 42t-12 22t-36.5 9.5t-71.5 2.5h-18q0 16 1 26t3 21q2 6 5 18t7 27h19q70 0 114 -3t66.5 -19.5t25.5 -49.5t-7 -92l-9 -41q-10 -61 -21 -97 t-35 -57.5t-68 -35t-119 -29.5l-105 57h-14l-121 -59q-66 4 -105.5 33.5t-58 75.5t-18.5 104.5z" />
<glyph unicode="&#xe59;" horiz-adv-x="858" d="M117 127q-4 47 8 119l6 39q12 70 29.5 136t48.5 118.5t79 84t124 31.5h47q41 0 74.5 -10t68.5 -47q23 43 58.5 50t89.5 7q6 0 26.5 2t44 12.5t45 33t29.5 65.5l6 35q16 4 27.5 4h21.5h21.5t27.5 -4l-6 -35q-6 -33 -26.5 -68.5t-53 -66.5t-79 -50.5t-101.5 -19.5 q-47 0 -65.5 -4t-22.5 -16q0 -4 1 -7.5t1 -7.5q63 -168 6 -524q-16 -4 -27.5 -4h-23.5h-19.5t-27.5 4q25 154 25 260.5t-17.5 173t-49.5 96t-71 29.5h-47q-43 0 -71.5 -27.5t-47 -69.5t-28.5 -90t-19 -91l-6 -39q-8 -43 -9 -73t10.5 -47t38 -25.5t75.5 -8.5h35 q2 -16 0 -28.5t-4 -20.5t-4.5 -19.5t-6.5 -23.5h-32q-68 0 -113 11.5t-68.5 40t-27.5 75.5z" />
<glyph unicode="&#xe5a;" horiz-adv-x="909" d="M172 667q2 38 6 56l17 92q16 4 26 4h19h23t30 -4l-17 -94q-4 -18 -2 -42t17.5 -43.5t45.5 -33.5t83 -14t89 14t58.5 34.5t32.5 44.5t14 42l17 92q16 4 26.5 4h18.5h23.5t29.5 -4l-166 -934q-16 -4 -27.5 -4h-21.5h-20.5t-28.5 4l119 676q-37 -33 -80 -45t-84 -16h-29 q-96 0 -142 28.5t-62.5 66.5t-14.5 76zM686 -119l166 934q16 4 27.5 4h19.5h22.5t28.5 -4l-166 -934q-16 -4 -28.5 -4h-20.5h-21.5t-27.5 4z" />
<glyph unicode="&#xe5b;" />
<glyph unicode="&#x2000;" horiz-adv-x="777" />
<glyph unicode="&#x2001;" horiz-adv-x="1554" />
<glyph unicode="&#x2002;" horiz-adv-x="777" />
<glyph unicode="&#x2003;" horiz-adv-x="1554" />
<glyph unicode="&#x2004;" horiz-adv-x="518" />
<glyph unicode="&#x2005;" horiz-adv-x="388" />
<glyph unicode="&#x2006;" horiz-adv-x="259" />
<glyph unicode="&#x2007;" horiz-adv-x="259" />
<glyph unicode="&#x2008;" horiz-adv-x="194" />
<glyph unicode="&#x2009;" horiz-adv-x="310" />
<glyph unicode="&#x200a;" horiz-adv-x="86" />
<glyph unicode="&#x200b;" />
<glyph unicode="&#x2010;" horiz-adv-x="755" d="M178 356q0 12 1 22.5t3 20.5t4 19.5t9 19.5h518q4 -10 3 -19t-3 -20l-4 -20t-9 -23h-522z" />
<glyph unicode="&#x2011;" horiz-adv-x="755" d="M178 356q0 12 1 22.5t3 20.5t4 19.5t9 19.5h518q4 -10 3 -19t-3 -20l-4 -20t-9 -23h-522z" />
<glyph unicode="&#x2012;" horiz-adv-x="755" d="M178 356q0 12 1 22.5t3 20.5t4 19.5t9 19.5h518q4 -10 3 -19t-3 -20l-4 -20t-9 -23h-522z" />
<glyph unicode="&#x2013;" horiz-adv-x="1038" d="M178 356q0 12 1 22.5t3 20.5t4 19.5t9 19.5h800q4 -10 3 -19t-3 -20l-4 -20t-8 -23h-805z" />
<glyph unicode="&#x2014;" horiz-adv-x="1243" d="M178 356q0 12 1 22.5t3 20.5t4 19.5t9 19.5h1005q4 -10 3 -19t-3 -20l-4 -20t-8 -23h-1010z" />
<glyph unicode="&#x2018;" horiz-adv-x="360" d="M268 889q31 57 60.5 105t58.5 102q10 2 16.5 2h16.5q12 0 20 -2l-75 -205q-16 -2 -31 -3t-23 -1h-20t-23 2z" />
<glyph unicode="&#x2019;" horiz-adv-x="360" d="M268 889l76 205q16 2 30.5 3t22.5 1h20.5t22.5 -2q-31 -57 -60.5 -105.5t-57.5 -101.5q-10 -2 -16.5 -2h-16.5q-12 0 -21 2z" />
<glyph unicode="&#x2022;" horiz-adv-x="536" d="M209 377q10 53 52 90t95 37t83 -37t20 -90q-10 -51 -52 -88t-96 -37q-53 0 -82.5 37t-19.5 88z" />
<glyph unicode="&#x2026;" horiz-adv-x="706" d="M113 6l22 129q16 4 28.5 5t20.5 1q10 0 20.5 -1t26.5 -5l-22 -129q-16 -4 -27.5 -5t-19.5 -1q-10 0 -21.5 1t-27.5 5zM305 6l23 129q16 4 28.5 5t20.5 1q10 0 20.5 -1t26.5 -5l-23 -129q-16 -4 -27.5 -5t-19.5 -1q-10 0 -21 1t-28 5zM498 6l22 129q16 4 28.5 5t20.5 1 q10 0 20.5 -1t26.5 -5l-22 -129q-16 -4 -27.5 -5t-19.5 -1q-10 0 -21.5 1t-27.5 5z" />
<glyph unicode="&#x202f;" horiz-adv-x="310" />
<glyph unicode="&#x205f;" horiz-adv-x="388" />
<glyph unicode="&#x25cc;" horiz-adv-x="1048" />
<glyph unicode="&#xe000;" horiz-adv-x="819" d="M0 0v819h819v-819h-819z" />
<glyph unicode="&#xf700;" horiz-adv-x="747" d="M172 322q2 16 2 25t2 20q2 6 4 18t6 29h187l-31 -322h41q61 4 102 24.5t70 57.5t46 94.5t32 134.5l24 140q10 57 -1 95t-39.5 60.5t-71.5 30.5t-99 8q-53 0 -123.5 -9t-123.5 -21q-10 39 -4 86q29 8 64.5 15t71.5 11t69.5 7t60.5 3q41 0 75.5 -4t67.5 -12l2 23 q49 53 123 53h86q0 -12 -2 -25.5t-4 -21.5q-2 -10 -5 -22.5t-7 -22.5h-86q-2 0 -6.5 1t-10.5 7l-6 -33q45 -35 63.5 -92t2.5 -150l-23 -127q-14 -80 -37.5 -152.5t-64.5 -127.5t-105.5 -89t-158.5 -34h-30t-39.5 2t-37.5 4t-27 8l33 308h-92z" />
<glyph unicode="&#xf701;" d="M-627 993q0 10 1 17.5t3 13.5q2 8 5.5 22.5t7.5 22.5h32q12 2 35 4t46.5 5t45 5t35.5 2h340q-4 -35 -6 -45t-6 -23t-8 -24h-531z" />
<glyph unicode="&#xf702;" d="M-625 1016.5q2 13.5 4 23.5q2 6 4.5 17.5t6.5 27.5h217q49 0 104.5 -3t93.5 -25h17l18 98q10 2 16.5 2h24.5q12 0 29.5 -1t28.5 -5q-10 -43 -20.5 -82t-27.5 -76h-514q-4 10 -2 23.5z" />
<glyph unicode="&#xf703;" d="M-625 1016.5q2 13.5 4 23.5q2 6 4.5 17.5t6.5 27.5h190q37 0 76 -2t80 -18v8t2 8q8 43 40 72t70 29q39 0 62.5 -28t15.5 -67q-6 -39 -37.5 -64.5t-72.5 -29.5h-439q-4 10 -2 23.5z" />
<glyph unicode="&#xf704;" d="M-625 1016.5q2 13.5 4 23.5q2 6 4.5 17.5t6.5 27.5q88 0 152.5 -2t105.5 -16h24l17 86q10 4 21 4h28q12 0 25.5 -1t21.5 -7l-14 -82h53l16 88q10 2 16.5 2h24.5q12 0 29.5 -1t28.5 -5q-10 -43 -20.5 -82t-27.5 -76h-514q-4 10 -2 23.5z" />
<glyph unicode="&#xf705;" d="M-254 1001l27 154q20 6 47 6q8 0 23.5 -1t27.5 -5l-27 -156q-10 -4 -25.5 -5t-27.5 -1q-10 0 -23.5 2t-21.5 6z" />
<glyph unicode="&#xf706;" d="M-522 1081v19.5t2 19.5q2 8 5 22.5t9 31.5h123q35 0 45 -3l-20 -114h18q18 10 45 16t56.5 9t58 3h53.5h51q-2 -16 -4 -31.5t-4 -21.5q-2 -16 -10 -39h-373l16 88h-71z" />
<glyph unicode="&#xf707;" d="M-580 999l21 119q6 41 23.5 66.5t38 39t40 18.5t29.5 5h16q39 0 59.5 -14t16.5 -43h12q4 29 32 43t67 14h16q10 0 27.5 -5t33 -18.5t23.5 -39t2 -66.5l-8 -43h53q0 -8 -2 -20.5t-2 -20.5q-2 -8 -4 -17t-6 -24h-92q-31 0 -45 6l20 117q4 23 -2 36t-27 13h-20q-23 0 -29 -9 t-12 -50q-16 -4 -27.5 -4h-19.5q-6 0 -17.5 1t-23.5 5q6 39 4 48t-25 9h-22q-18 0 -28.5 -13t-14.5 -36l-8 -41h43q0 -6 -1 -19.5t-1 -21.5q-2 -8 -4 -17t-9 -24h-79q-29 0 -48 6z" />
<glyph unicode="&#xf708;" d="M-324 1079q0 6 1 19.5t4 23.5q2 6 4 14.5t6 20.5h73l17 86q20 6 47 6q8 0 23.5 -1t27.5 -5l-16 -86h71v-14.5t-2 -16.5q0 -6 -4 -20t-8 -27h-72l-12 -80q-10 -4 -25.5 -5t-27.5 -1q-10 0 -23.5 2t-21.5 6l12 78h-74z" />
<glyph unicode="&#xf709;" d="M-430 997q10 41 18.5 78t24.5 72h319v-19.5t-2 -19.5q-2 -8 -5 -23.5t-9 -29.5h-12q-47 0 -107.5 3t-99.5 21h-14l-15 -84q-10 -2 -21.5 -2h-27.5h-25.5t-23.5 4z" />
<glyph unicode="&#xf70a;" d="M-16 1001l24 154q20 6 47 6q8 0 23.5 -1t27.5 -5l-26 -156q-10 -4 -25.5 -5t-27.5 -1q-23 0 -43 8z" />
<glyph unicode="&#xf70b;" d="M-334 1081v19.5t2 19.5q2 8 5 22.5t10 31.5h122q35 0 45 -3l-20 -114h18q18 10 45 16t55.5 9t58.5 3h52h52q-2 -16 -4.5 -31.5t-4.5 -21.5q-2 -16 -10 -39h-371l17 88h-72z" />
<glyph unicode="&#xf70c;" d="M-354 999l20 119q6 41 23.5 66.5t38 39t40 18.5t29.5 5h17q39 0 59.5 -14t15.5 -43h13q4 29 31.5 43t66.5 14h14q10 0 27.5 -5t33 -18.5t23.5 -39t2 -66.5l-8 -43h74q0 -8 -2 -20.5t-2 -20.5q-2 -8 -4 -17t-6 -24h-113q-31 0 -43 6l18 117q4 23 -2 36t-24 13h-21 q-23 0 -29 -9t-12 -50q-16 -4 -27.5 -4h-19.5q-6 0 -17.5 1t-23.5 5q6 39 4 48t-24 9h-23q-18 0 -28.5 -13t-14.5 -36l-8 -41h43q0 -6 -1 -19.5t-1 -21.5q-2 -8 -4 -17t-8 -24h-80q-29 0 -47 6z" />
<glyph unicode="&#xf70d;" d="M-78 1079q0 6 1 19.5t3 23.5q2 6 4 14.5t7 20.5h71l17 86q20 6 47 6q8 0 23.5 -1t27.5 -5l-17 -86h72v-14.5t-2 -16.5q0 -6 -4 -20t-8 -27h-72l-12 -80q-10 -4 -25.5 -5t-27.5 -1q-23 0 -43 8l12 78h-74z" />
<glyph unicode="&#xf70e;" d="M-207 997q10 41 18.5 78t24.5 72h318v-19.5t-2 -19.5q-2 -8 -5.5 -23.5t-9.5 -29.5h-12q-47 0 -106.5 3t-98.5 21h-14l-15 -84q-10 -2 -21 -2h-28h-25.5t-23.5 4z" />
<glyph unicode="&#xf70f;" horiz-adv-x="1343" d="M109 4l88 498q8 53 28.5 94t42 68.5t39 43t21.5 17.5l2 12h-105l8 49q74 23 142.5 33t146.5 10q186 0 266 -91t46 -281l-43 -238q-12 -74 28.5 -105.5t147.5 -31.5q106 0 156.5 31.5t62.5 105.5l106 596q16 4 27.5 4h21.5h20.5t29.5 -4l-111 -625q-6 -35 -21.5 -69.5 t-49 -64t-93 -48t-151.5 -18.5h-29q-92 0 -145.5 18.5t-78 48t-27.5 64.5t3 69l45 261q10 61 4 113t-32.5 90t-74.5 60.5t-120 22.5h-78q-45 -49 -70.5 -93t-42.5 -77q-18 -37 -26 -69l-72 -406h109q0 -27 -4 -47q0 -6 -3.5 -19.5t-7.5 -25.5h-159q-8 0 -19.5 1t-27.5 3z " />
<glyph unicode="&#xf710;" d="M-567 993q-4 37 0 76t10 82q10 4 27.5 5t29.5 1h24.5t16.5 -2l-18 -98h16q47 23 104.5 25.5t106.5 2.5h174q-4 -35 -6 -45t-5 -23t-9 -24h-471z" />
<glyph unicode="&#xf711;" d="M-350 1090q10 57 58.5 98t103.5 41q59 0 92 -41t22 -98q-10 -57 -57 -97.5t-107 -40.5q-55 0 -88.5 40t-23.5 98zM-272 1090q-4 -27 11 -43.5t38 -16.5q29 0 49 16.5t24 43.5q6 29 -8 46t-43 17q-23 0 -44 -17.5t-27 -45.5z" />
<glyph unicode="&#xf712;" d="M-557 1062q-8 28 0 73l4 16q8 47 27.5 75.5t42 44t44 20.5t33.5 5h431q2 -12 0 -25.5t-5 -21.5q-2 -10 -5 -17t-7 -18h-399q-47 0 -59.5 -21.5t-14.5 -37.5l-6 -39q-8 -41 39 -41h18q35 0 46.5 15.5t17.5 48.5q16 4 25.5 4h19.5h19.5t23.5 -4q-6 -33 -2 -48.5t35 -15.5 h22q33 0 41 19.5t12 42.5q16 4 26.5 4h18.5h20.5t22.5 -4q-10 -53 -33.5 -82t-47.5 -43q-29 -16 -62 -19h-16q-100 0 -92 51h-15q-8 -51 -114 -51h-15q-16 0 -36.5 5.5t-36 20.5t-23.5 43z" />
<glyph unicode="&#xf713;" d="M-133 1307l29 168q16 6 25.5 7t25.5 1q12 0 20 -1t27 -7l-29 -164q-16 -8 -25.5 -9.5t-25.5 -1.5q-12 0 -18.5 1.5t-28.5 5.5z" />
<glyph unicode="&#xf714;" d="M-289 1389v19t2 19q2 8 5 22.5t10 31.5h122h26.5t21.5 -2l-21 -115h19q18 10 43.5 16t54.5 9.5t57.5 3.5h52.5h52q0 -16 -2 -31.5t-4 -22.5q-4 -23 -13 -39h-370l16 89h-72z" />
<glyph unicode="&#xf715;" d="M-471 1307l20 118q8 41 25.5 67t37 39t39 18t30.5 5h16q39 0 60.5 -14t15.5 -43h12q6 29 32.5 43t65.5 14h17q10 0 27.5 -5t32.5 -18t23.5 -39t2.5 -67l-6 -43h51q0 -8 -2 -20t-4 -21q-2 -8 -4.5 -17t-6.5 -24h-90q-27 0 -45 7l21 116q4 23 -2.5 36.5t-26.5 13.5h-21 q-23 0 -27.5 -9.5t-12.5 -50.5q-14 -4 -25.5 -4h-20.5q-6 0 -17 1t-26 5q8 39 5.5 48.5t-25.5 9.5h-23q-18 0 -28 -13.5t-15 -36.5l-6 -41h43q0 -6 -1 -19t-3 -22q-2 -8 -4 -17t-8 -24h-80q-27 0 -47 7z" />
<glyph unicode="&#xf716;" d="M-195 1380q0 6 1 19.5t4 23.5q2 6 4 14.5t6 20.5h74l14 80q20 6 47 6q8 0 23.5 -1t25.5 -5l-12 -80h69v-14.5t-2 -16.5q0 -6 -4 -20t-8 -27h-70l-12 -73q-10 -4 -25.5 -5.5t-27.5 -1.5q-10 0 -22.5 2.5t-22.5 6.5l12 71h-74z" />
<glyph unicode="&#xf717;" d="M-231 1305q8 41 17 77.5t26 71.5h317v-19.5t-4 -19.5q-2 -8 -5 -23.5t-7 -29.5h-13q-47 0 -106.5 3t-97.5 21h-15l-14 -83q-10 -2 -22.5 -2.5t-28.5 -0.5h-25.5t-21.5 5z" />
<glyph unicode="&#xf718;" d="M-334 -535q2 10 2 18.5t4 22.5q2 10 5.5 22.5t7.5 20.5q47 0 82.5 -2t54.5 -12l-39 -225q-14 -6 -25.5 -7t-25.5 -1q-6 0 -16.5 1t-20.5 7q8 41 14 73.5t23 69.5l2 12h-68z" />
<glyph unicode="&#xf719;" d="M-492 -528q0 10 1.5 18t5.5 23q4 18 10 36q47 0 82 -2t51 -12l-29 -166h76l31 174q16 4 25.5 5t17.5 1q10 0 24.5 -1t20.5 -5l-41 -229q-25 -10 -66 -12t-61 -2q-41 0 -64.5 3t-58.5 13l4 22q4 31 9 55.5t18 61.5l2 17h-58z" />
<glyph unicode="&#xf71a;" d="M-309 -514q4 27 26 45t47 18t39.5 -18t10.5 -45q-4 -25 -25.5 -43t-46.5 -18t-40 18t-11 43z" />
<glyph unicode="&#xf71d;" horiz-adv-x="905" d="M137 10l78 805q10 4 22.5 4h24.5h23.5t25.5 -4l-63 -733h24l2 12l209 393q18 6 38 8.5t36 2.5q14 0 33.5 -3t34.5 -8l75 -393l-2 -12h25l86 336q6 31 10 59.5t-2 50t-24.5 34.5t-55.5 13h-45q0 12 2 25.5t4 22.5q2 10 4.5 22t6.5 27h47q37 0 58.5 8t32.5 21.5t15 30 t8 32.5l11 51q16 4 28.5 4h22.5h23.5t23.5 -4l-10 -51q-2 -10 -7.5 -31.5t-18.5 -43t-35.5 -39t-59.5 -17.5l-2 -8q14 0 28.5 -12.5t24.5 -39t13 -65.5t-5 -90l-104 -408q-27 -8 -54.5 -9t-58.5 -1t-50 1t-42 7l-51 379h-19l-186 -379q-18 -6 -39.5 -7t-50.5 -1 q-31 0 -59.5 1t-55.5 9z" />
<glyph horiz-adv-x="569" d="M-371 1090q10 57 58.5 98t103.5 41q59 0 92 -41t23 -98t-57.5 -97.5t-106.5 -40.5q-55 0 -89 40t-24 98zM-293 1090q-4 -27 11 -43.5t38 -16.5q29 0 49.5 16.5t24.5 43.5q6 29 -8.5 46t-42.5 17q-23 0 -44.5 -17.5t-27.5 -45.5zM130 760q-1 16 3 39q31 12 65.5 18t65.5 9 t53.5 3h30.5q76 0 123 -20.5t70.5 -57t26.5 -86t-7 -104.5l-98 -557q-16 -4 -28.5 -4h-22.5h-19.5t-27.5 4l98 559q4 27 5 57.5t-10.5 56t-41 43t-84.5 17.5q-45 0 -95.5 -2t-97.5 -14q-8 23 -9 39z" />
<glyph />
<glyph />
<glyph />
<glyph horiz-adv-x="1257" d="M113 514q0 109 41 203t110.5 164.5t163 111.5t199.5 41q109 0 203 -41t164.5 -111.5t111.5 -164.5t41 -203q0 -106 -41 -199.5t-111.5 -163t-165 -110.5t-202.5 -41q-106 0 -199.5 41t-163 110.5t-110.5 163t-41 199.5zM348 373q0 -86 58.5 -137.5t150.5 -51.5 q23 0 45.5 1t42.5 5v111l-12 8q-14 -6 -24.5 -7t-22.5 -1q-33 0 -62.5 18.5t-29.5 65.5q0 16 7 27.5t31.5 19.5t70.5 16.5t122 20.5v-145q0 -74 20.5 -107t81.5 -33h19q29 0 47 11.5t18 44.5q0 35 -11 48t-38 13v272q0 53 -19.5 88t-45.5 58q10 4 19 4h20h19t19 -4h23v133 q-63 -8 -125.5 -23.5t-109.5 -42.5q-18 4 -35 4.5t-41 0.5q-47 0 -90 -6.5t-90 -22.5v-129h12q39 12 81 22.5t74 10.5q18 0 44 -1t50.5 -9.5t41 -27t16.5 -50.5l-168 -17q-37 -4 -74 -12t-67.5 -28.5t-49 -55.5t-18.5 -92z" />
</font>
</defs>
</svg>
