<?xml version="1.0" standalone="no"?>
<!DOCTYPE svg PUBLIC "-//W3C//DTD SVG 1.1//EN" "http://www.w3.org/Graphics/SVG/1.1/DTD/svg11.dtd" >
<svg xmlns="http://www.w3.org/2000/svg">
<metadata></metadata>
<defs>
<font id="pestobold" horiz-adv-x="0" >
<font-face units-per-em="2048" ascent="1638" descent="-410" />
<missing-glyph horiz-adv-x="378" />
<glyph unicode="&#x3b;&#x3b;For&#x20;Education&#x20;Used&#x20;Only&#x3b;&#x3b;" horiz-adv-x="1269" d="M113 541q0 106 41 201.5t111.5 167t165.5 112.5t204 41q106 0 201.5 -41t167 -112.5t112.5 -167t41 -201.5q0 -109 -41 -204t-112.5 -166t-167 -112t-201.5 -41q-109 0 -204 41t-165.5 112t-111.5 166t-41 204zM248 541q0 -80 29.5 -151t82 -123t123 -81.5t150.5 -29.5 t150.5 29.5t122.5 81.5t83 123t31 151t-31 150.5t-83 122.5t-122.5 83t-150.5 31t-150.5 -31t-123 -83t-82 -122.5t-29.5 -150.5zM362 461v162q0 131 73 183t194 52q43 0 105.5 -7t109.5 -22q0 -39 -7.5 -67.5t-23.5 -59.5q-41 14 -96 19.5t-90 5.5q-55 0 -87 -20.5 t-32 -77.5v-180q0 -55 31.5 -76t87.5 -21q18 0 41.5 1t50 3t51.5 6.5t45 10.5q18 -29 23.5 -53.5t5.5 -65.5q-47 -16 -109.5 -22.5t-105.5 -6.5q-121 0 -194 51.5t-73 184.5z" />
<glyph unicode="&#x3b;&#x3b;Registered&#x3b;&#x3b;" horiz-adv-x="1269" d="M109 512q0 106 40.5 201.5t111.5 167t166 112.5t204 41q106 0 201.5 -41t167 -112.5t112.5 -167t41 -201.5q0 -109 -41 -204t-112.5 -165.5t-167 -111.5t-201.5 -41q-109 0 -204 41t-166 111.5t-111.5 165.5t-40.5 204zM244 512q0 -80 29.5 -150.5t82 -123t123 -82 t150.5 -29.5t150.5 29.5t122.5 82t83 123t31 150.5t-31 150.5t-83 123t-122.5 83t-150.5 30.5t-150.5 -30.5t-123 -83t-82 -123t-29.5 -150.5zM414 225v592h245q43 0 81 -5t66 -26.5t44 -63.5t16 -116q0 -76 -14 -127t-43 -71l55 -177q-29 -12 -59 -12q-10 0 -35 1t-41 7 l-43 164h-127v-166q-20 -4 -43.5 -5t-34.5 -1q-4 0 -25.5 1t-41.5 5zM559 514h64q20 0 38.5 1t32 10.5t20.5 27.5t7 53q0 53 -28.5 66.5t-69.5 13.5h-64v-172z" />
<glyph unicode="&#x3b;&#x3b;Multiply&#x3b;&#x3b;" horiz-adv-x="864" d="M113 598q8 12 22.5 29.5t24.5 27.5t23.5 20.5t41.5 29.5l207 -207l207 207q29 -18 42 -28.5t24 -21.5q10 -10 24 -27.5t23 -29.5l-209 -211l205 -205q-18 -29 -30 -42t-22 -23t-26.5 -23.5t-28.5 -23.5l-209 209l-209 -209q-12 10 -28.5 23t-26.5 24q-12 10 -22.5 23.5 t-28.5 41.5l205 205z" />
<glyph unicode="&#x3b;&#x3b;Divide&#x3b;&#x3b;" horiz-adv-x="995" d="M113 403q0 16 1 32t9 50h749q8 -35 9.5 -50t1.5 -32q0 -14 -1 -35.5t-5 -37.5h-758q-4 16 -5 37.5t-1 35.5zM414 33v205q33 6 56.5 7t35.5 1t34.5 -1t57.5 -7v-205q-35 -6 -57.5 -7t-34.5 -1t-36 1t-56 7zM414 578v204q33 6 56.5 7.5t35.5 1.5t34.5 -1.5t57.5 -7.5v-204 q-35 -6 -57.5 -7.5t-34.5 -1.5t-36 1t-56 8z" />
<glyph unicode="&#x2018;&#x2018;" horiz-adv-x="737" d="M113 819l104 271q29 6 42 7t26 1q16 0 25 -1t44 -10l-47 -270q-35 -8 -56.5 -9t-31.5 -1q-14 0 -43 1t-63 11zM383 819l104 271q29 6 42.5 7t25.5 1q16 0 25.5 -1t44.5 -10l-47 -270q-35 -8 -57 -9t-32 -1q-14 0 -42.5 1t-63.5 11z" />
<glyph unicode="&#x2019;&#x2019;" horiz-adv-x="737" d="M113 817l47 270q35 8 56.5 9.5t31.5 1.5q14 0 42.5 -1t63.5 -12l-104 -270q-29 -6 -42 -7t-26 -1q-16 0 -25.5 1t-43.5 9zM383 817l47 270q35 8 56.5 9.5t31.5 1.5q14 0 43 -1t64 -12l-105 -270q-29 -6 -42 -7t-25 -1q-16 0 -25.5 1t-44.5 9z" />
<glyph unicode="&#x3b;&#x3b;Trademark&#x3b;&#x3b;" horiz-adv-x="1411" d="M113 938.5v32.5q0 8 1 19t5 34h461q4 -23 5 -34t1 -19v-31.5t-4 -32.5h-166v-508q-20 -4 -40 -4h-26h-27.5t-39.5 4v508h-166q-4 12 -4 31.5zM627 399v609q31 12 66.5 14t56.5 2q20 0 60 -2t69 -14l84 -525l81 525q29 12 70 14t60 2q23 0 58.5 -2t65.5 -14v-609 q-23 -4 -40 -4h-25h-28.5t-41.5 4v504h-12v-12l-90 -490q-10 -2 -24.5 -3l-29 -2t-26.5 -1h-18h-17.5t-29 1l-31 2t-23.5 3l-88 490v12h-14v-504q-20 -4 -39 -4h-27h-28.5t-38.5 4z" />
<glyph unicode="&#xe24;&#xe32;" horiz-adv-x="1384" d="M96 657v123q72 20 144.5 34.5t154.5 14.5q188 0 282.5 -92t94.5 -284v-846q-35 -6 -57.5 -7t-34.5 -1t-35.5 1t-56.5 7v839q0 86 -44 148.5t-147 62.5h-45q-20 -33 -31.5 -62.5t-17.5 -53t-8 -39t-2 -17.5v-329h92q4 -18 6 -35t2 -41q0 -41 -8 -80h-186q-10 0 -33 3 t-57 7v457q0 66 15 106.5t34 63.5v20h-62zM768 784q35 16 73 25.5t69.5 13.5t56 5t32.5 1q82 0 136.5 -22.5t86 -61t44 -91t12.5 -109.5v-936q-35 -6 -57.5 -7t-34.5 -1t-36 1t-56 7v938q0 16 -3.5 35.5t-12.5 36t-27.5 27.5t-51.5 11q-41 0 -87 -4t-101 -22 q-23 37 -33 68.5t-10 84.5z" />
<glyph unicode="&#xe26;&#xe32;" horiz-adv-x="1417" d="M61 80q0 25 2.5 41t6.5 35h71v311q0 66 15.5 106.5t33.5 63.5v20h-61v123q72 20 144.5 34.5t154.5 14.5q188 0 282.5 -92t94.5 -284v-846q-35 -6 -57.5 -7t-34.5 -1t-36 1t-56 7v839q0 86 -44.5 148.5t-146.5 62.5h-45q-20 -33 -31.5 -62.5t-17.5 -53t-8 -39t-2 -17.5 v-475q-35 -4 -57.5 -7t-32.5 -3h-166q-8 39 -9 80zM801 784q35 16 72.5 25.5t69.5 13.5t56.5 5t32.5 1q82 0 136.5 -22.5t86 -61t44 -91t12.5 -109.5v-936q-35 -6 -57.5 -7t-34.5 -1t-36 1t-57 7v938q0 16 -3 35.5t-12 36t-27.5 27.5t-51.5 11q-41 0 -87 -4t-101 -22 q-23 37 -33 68.5t-10 84.5z" />
<glyph unicode="&#xd;" horiz-adv-x="579" />
<glyph unicode=" "  horiz-adv-x="378" />
<glyph unicode="&#x09;" horiz-adv-x="378" />
<glyph unicode="&#xa0;" horiz-adv-x="378" />
<glyph unicode="!" horiz-adv-x="411" d="M113 1014q35 8 59.5 9t34.5 1q12 0 36.5 -1t57.5 -9q-4 -178 -7 -348t-5 -355q-47 -6 -82 -6q-25 0 -43.5 2t-36.5 4zM115 8v205q33 6 56.5 7t35.5 1t34.5 -1t57.5 -7v-205q-35 -6 -57.5 -7t-34.5 -1t-36 1t-56 7z" />
<glyph unicode="&#x22;" horiz-adv-x="663" d="M113 1087q33 8 56.5 9.5t37.5 1.5t37.5 -1t58.5 -10l-24 -325q-27 -6 -39.5 -7t-30.5 -1q-20 0 -41 2t-33 6zM360 1087q33 8 57 9.5t38 1.5t37.5 -1t58.5 -10l-25 -325q-27 -6 -39 -7t-30 -1q-20 0 -41 2t-33 6z" />
<glyph unicode="#" horiz-adv-x="1226" d="M113 344q0 27 1 39t9 43h153l54 205h-131q-4 20 -5 39.5t-1 34.5q0 27 1 39t9 42h178l65 228q31 8 51.5 9t37.5 1q23 0 48 -5t48 -18l-64 -215h226l65 228q31 8 51.5 9t36.5 1q23 0 49.5 -5t48.5 -18l-63 -215h125q6 -31 7 -49t1 -30v-38t-4 -38h-180l-60 -205h156 q6 -31 7 -49.5t1 -30.5v-37.5t-4 -38.5h-209l-76 -254q-16 -10 -39.5 -13t-46.5 -3q-16 0 -37.5 1t-60.5 11l72 258h-225l-74 -254q-16 -10 -40 -13t-48 -3q-14 0 -36 1t-60 11l71 258h-102q-4 20 -5 40t-1 34zM459 426h227l55 205h-223z" />
<glyph unicode="$" horiz-adv-x="1005" d="M106 86q2 43 16.5 77t55.5 68q55 -33 115.5 -50t114.5 -27v297q-55 18 -107.5 41.5t-93.5 57.5t-65.5 80t-24.5 107q0 139 77.5 206t213.5 83v113q33 6 56 7t36 1q12 0 34.5 -1t57.5 -7v-109q68 -4 142.5 -15t129.5 -34q-2 -25 -4 -44t-6 -37.5t-13.5 -37t-23.5 -43.5 q-37 14 -99.5 24.5t-125.5 14.5v-276q55 -18 109.5 -42t97.5 -55.5t68.5 -76t25.5 -103.5q0 -94 -24.5 -153.5t-66.5 -94t-96.5 -49t-113.5 -18.5v-109q-35 -6 -57.5 -7t-34.5 -1t-36 1t-56 7v111q-82 8 -168 28.5t-134 65.5zM301 737q0 -33 29.5 -55.5t77.5 -40.5v213 q-53 -8 -80 -33t-27 -84zM592 147q49 10 83 42t34 116q0 31 -32 51.5t-85 38.5v-248z" />
<glyph unicode="%" horiz-adv-x="1310" d="M113 686v164q0 45 18.5 78t47 54.5t66.5 31.5t79 10q39 0 76.5 -10t66.5 -31.5t47 -54.5t18 -78v-164q0 -49 -16 -83t-45 -53.5t-66.5 -28.5t-80.5 -9q-86 0 -148.5 38t-62.5 136zM270 690q0 -12 9.5 -21.5t44.5 -9.5q33 0 42 9.5t9 21.5v156q0 10 -9 21.5t-42 11.5 q-35 0 -44.5 -11.5t-9.5 -21.5v-156zM346 18l432 994q25 10 46.5 11t37.5 1q25 0 53.5 -2t53.5 -16l-434 -992q-16 -10 -39 -12t-45 -2q-16 0 -39 2t-66 16zM778 174v164q0 45 18.5 78t47 54.5t66.5 31.5t79 10q39 0 77 -10t66.5 -31.5t47 -54.5t18.5 -78v-164 q0 -49 -16.5 -83t-45 -53.5t-66.5 -28.5t-81 -9q-86 0 -148.5 38t-62.5 136zM936 178q0 -12 9 -21.5t44 -9.5q33 0 42 9.5t9 21.5v156q0 10 -9 21.5t-42 11.5q-35 0 -44 -11.5t-9 -21.5v-156z" />
<glyph unicode="&#x26;" horiz-adv-x="1064" d="M113 287q0 53 16 92t45 68.5t68 51t82 40.5q-49 92 -50 196q0 66 9.5 120t38 94t79 62.5t134.5 22.5q82 0 134 -22.5t79.5 -62.5t38 -94t10.5 -120q0 -53 -16.5 -94t-46 -72.5t-68.5 -57.5t-84 -46q25 -27 67.5 -69t102.5 -97q23 43 26.5 87t3.5 103q33 6 49.5 8.5 t28.5 2.5t42 -2t50 -6q0 -125 -16 -195t-51 -121l67 -63q-20 -31 -31.5 -45.5t-21.5 -22.5q-27 -23 -74 -45l-55 51q-63 -37 -135 -49t-131 -12q-76 0 -146.5 5t-125 32.5t-87 88t-32.5 171.5zM297 287q0 -92 57 -117t168 -25q33 0 62.5 6.5t52.5 22.5q-53 47 -112.5 107.5 t-102.5 113.5q-55 -25 -90 -49t-35 -59zM459 735q0 -35 7 -66.5t23 -66.5q49 23 86 54.5t37 78.5q0 63 -10 95t-67 32t-66.5 -32t-9.5 -95z" />
<glyph unicode="'" horiz-adv-x="415" d="M113 1087q33 8 56.5 9.5t37.5 1.5t37.5 -1t58.5 -10l-24 -325q-27 -6 -39.5 -7t-30.5 -1q-20 0 -41 2t-33 6z" />
<glyph unicode="(" horiz-adv-x="473" d="M113 518q0 66 4 144.5t12 161.5t19.5 164t27.5 149q33 4 55.5 5t32.5 1t32.5 -1t63.5 -7q-16 -74 -28.5 -156t-20.5 -163t-11 -157.5t-3 -140.5q0 -61 3 -141t11 -165t20.5 -170t28.5 -155q-41 -6 -62.5 -8t-31.5 -2q-12 0 -34.5 2t-55.5 6q-16 68 -27.5 151t-19.5 168 t-12 167t-4 147z" />
<glyph unicode=")" horiz-adv-x="473" d="M113 -113q16 70 28.5 155t19.5 170t11 165t4 141q0 63 -4 140t-11 158t-19.5 163t-28.5 156q41 6 63.5 7t32.5 1t32.5 -1t55.5 -5q14 -68 26.5 -149t20.5 -164t12 -161.5t4 -144.5t-4 -147.5t-12 -166.5t-20.5 -168t-26.5 -151q-33 -4 -55.5 -6t-34.5 -2q-10 0 -31.5 2 t-62.5 8z" />
<glyph unicode="*" horiz-adv-x="778" d="M113 803q2 47 12 94q4 14 11 35.5t24 50.5l164 -74l-29 181q35 4 56.5 6t37.5 2t38 -2t56 -6l-30 -181l165 74q16 -29 23.5 -50.5t11.5 -35.5q10 -47 13 -94l-162 -19l119 -120q-29 -35 -45.5 -48.5t-20.5 -17.5q-20 -14 -40.5 -25.5t-43.5 -17.5l-84 150l-84 -150 q-23 6 -43 17.5t-41 25.5q-4 4 -20.5 17.5t-44.5 48.5l118 120z" />
<glyph unicode="+" horiz-adv-x="991" d="M113 406q0 16 1 31.5t9 49.5h280v297q33 6 55.5 7.5t35.5 1.5q12 0 35.5 -1t58.5 -8v-297h280q4 -35 7.5 -50t3.5 -29q0 -16 -2.5 -37t-4.5 -39h-284v-295q-35 -8 -58.5 -9t-33.5 -1q-14 0 -37 1t-56 9v295h-284q-4 16 -5 37.5t-1 36.5z" />
<glyph unicode="," horiz-adv-x="415" d="M72 -94l37 264q35 6 56.5 8t31.5 2q14 0 39.5 -2t66.5 -10l-92 -264q-31 -10 -45 -12.5t-25 -2.5h-13t-11 2.5t-16.5 5.5t-28.5 9z" />
<glyph unicode="-" horiz-adv-x="800" d="M113 406q0 16 1 31.5t9 49.5h555q8 -35 9 -50t1 -31q0 -14 -1 -36t-5 -38h-563q-4 16 -5 37.5t-1 36.5z" />
<glyph unicode="." horiz-adv-x="409" d="M113 8v205q33 6 56.5 7t35.5 1t34.5 -1t57.5 -7v-205q-35 -6 -57.5 -7t-34.5 -1t-36 1t-56 7z" />
<glyph unicode="/" horiz-adv-x="647" d="M61 12l340 1123q31 6 50.5 7t35.5 1q23 0 49.5 -4t49.5 -19l-338 -1104q-16 -10 -40 -13t-46 -3q-16 0 -39 1t-62 11z" />
<glyph unicode="0" horiz-adv-x="999" d="M113 379v266q0 88 6 160t42 123t115 78.5t224 27.5t224 -27.5t114.5 -78.5t42 -123t6.5 -160v-266q0 -88 -6.5 -160t-42 -123t-114.5 -78.5t-224 -27.5t-224 27.5t-115 78.5t-42 123t-6 160zM297 365q0 -61 3 -102.5t22.5 -68t60.5 -38t117 -11.5t116.5 11.5t60 38 t22.5 67.5t3 103v278q0 61 -3 102t-22.5 68t-60.5 38t-116 11q-76 0 -117 -11t-60.5 -38t-22.5 -67.5t-3 -102.5v-278z" />
<glyph unicode="1" horiz-adv-x="657" d="M41 797l334 215l12 6q39 6 66 6q12 0 34.5 -1t57.5 -9v-1004q-35 -8 -57.5 -9t-32.5 -1q-12 0 -36 1t-59 9v770q-63 -39 -104 -61.5t-63 -36.5q-29 -16 -43 -25q-18 6 -34 19.5t-24 21.5q-12 10 -27.5 37t-23.5 62z" />
<glyph unicode="2" horiz-adv-x="909" d="M113 707q0 53 6 111.5t38.5 106.5t102.5 78.5t195 30.5t193.5 -28.5t101 -72.5t39 -98.5t6.5 -103.5q0 -88 -51.5 -163.5t-122 -144.5t-146.5 -134.5t-123 -132.5h434q8 -29 9.5 -43.5t1.5 -28.5q0 -16 -1 -41t-5 -43h-660q-4 23 -5 45.5t-1 36.5q0 31 8 65 q12 47 51 96.5t92.5 99.5t111.5 101.5t108.5 100.5t82 95t31.5 89q0 29 -2 53.5t-17.5 42t-47 27.5t-88.5 10q-59 0 -91 -12t-46.5 -33.5t-17.5 -51.5t-3 -63q-33 -4 -55.5 -7t-34.5 -3t-36 2t-58 13z" />
<glyph unicode="3" horiz-adv-x="888" d="M92 322q35 8 58.5 9t35.5 1t34 -1t56 -5q0 -35 3.5 -67t19.5 -57.5t48 -41t91 -15.5q57 0 89 12.5t46.5 34t16.5 48t2 55.5q0 27 -4 52.5t-23.5 45t-63.5 30.5t-124 11q-4 20 -6 43t-2 37q0 12 2 27.5t8 48.5q78 0 121 11t63.5 30.5t24.5 44t4 53.5t-3 53.5t-17.5 42 t-46 27.5t-89.5 10q-59 0 -91 -12t-47 -33.5t-18.5 -51.5t-3.5 -63q-35 -8 -56 -9t-32 -1q-31 0 -96 15q0 53 6 111.5t39 106.5t102.5 78.5t194.5 30.5t194.5 -28.5t102.5 -72.5t39 -98.5t6 -103.5q0 -57 -11 -114.5t-73 -104.5q57 -47 70.5 -104.5t13.5 -110.5 q0 -51 -6 -105.5t-39 -99.5t-101.5 -73.5t-193.5 -28.5t-194.5 30.5t-102.5 80t-40 107.5t-7 114z" />
<glyph unicode="4" horiz-adv-x="858" d="M31 385q0 10 2 27.5t6 46.5l426 557q27 4 52 6t48 2t40.5 -2t51.5 -14v-549h109q8 -29 9 -44.5t1 -27.5q0 -35 -2 -50t-4 -34h-113v-293q-39 -8 -60.5 -9t-31.5 -1q-16 0 -35.5 2t-56.5 12v289h-436q-4 18 -5 43t-1 39zM246 459h227v291z" />
<glyph unicode="5" horiz-adv-x="907" d="M113 311q35 8 58.5 9.5t33.5 1.5q14 0 36.5 -1.5t55.5 -9.5q0 -35 3 -64.5t18.5 -52t47 -36t91.5 -13.5q57 0 89 16.5t46 41t16 55.5t2 59q0 31 -2 61t-17.5 54.5t-47 39.5t-88.5 15q-18 0 -45 -1t-52.5 -7t-43 -17t-17.5 -32q-35 -10 -57.5 -11t-40.5 -1q-16 0 -43 1 t-43 7v508q0 14 3 34.5t7 55.5h633q8 -31 9 -53.5t1 -34.5q0 -18 -1 -41t-5 -43h-463v-231q35 16 73 19t85 3q125 0 193.5 -31.5t101 -81t39 -105.5t6.5 -106q0 -51 -6.5 -109t-39 -107.5t-101 -81t-193.5 -31.5t-195 29.5t-102.5 75.5t-38.5 103.5t-6 112.5z" />
<glyph unicode="6" horiz-adv-x="874" d="M113 319v398q0 88 25.5 149.5t72.5 98t112.5 53t147.5 16.5q27 0 63.5 -2t76.5 -7t79 -12t70 -18q0 -53 -11.5 -89t-33.5 -75q-29 8 -61.5 14.5t-66.5 9.5t-64.5 5t-53.5 2q-76 0 -124 -29.5t-48 -105.5v-131q31 16 70 23.5t86 7.5q125 0 193.5 -30t101 -75t39 -99.5 t6.5 -103.5q0 -51 -6.5 -109t-39 -107.5t-101 -81t-193.5 -31.5t-194 31.5t-101.5 81t-38.5 107.5t-6 109zM297 311q0 -29 3 -57.5t18.5 -53t46 -40t88.5 -15.5q57 0 88.5 16.5t47 41t17.5 55.5t2 59q0 29 -2 56.5t-17.5 49t-47 35t-88.5 13.5q-59 0 -90 -13.5t-46.5 -35 t-17.5 -51t-2 -60.5z" />
<glyph unicode="7" horiz-adv-x="794" d="M41 934q0 14 2 34.5t6 55.5h653q4 -35 7.5 -55.5t3.5 -32.5q0 -14 -1 -25.5t-5 -31.5l-265 -871q-29 -4 -49 -6t-37 -2q-20 0 -102 12l248 840h-457q-2 16 -3 42t-1 40z" />
<glyph unicode="8" horiz-adv-x="911" d="M113 731q0 49 6 103.5t38.5 98.5t102.5 72.5t195 28.5t193.5 -28.5t101 -72.5t39 -98.5t6.5 -103.5q0 -57 -10.5 -114.5t-69.5 -104.5q55 -47 69.5 -104.5t14.5 -110.5q0 -51 -6.5 -105.5t-40 -99.5t-103 -73.5t-194.5 -28.5t-193.5 28.5t-101.5 73.5t-39 99.5t-6 105.5 q0 27 2 54.5t10 55t24.5 54t45.5 49.5q-31 25 -48.5 51.5t-25.5 55t-9 57t-1 57.5zM297 729q0 -29 3 -53.5t17.5 -45t46 -31.5t91.5 -11q57 0 88.5 11t47 31.5t17.5 45t2 53.5t-2 53.5t-17.5 42t-47 27.5t-88.5 10q-59 0 -91 -10t-46.5 -27.5t-17.5 -42t-3 -53.5zM299 295 q0 -29 3 -55.5t17.5 -48t46 -34t91.5 -12.5q57 0 90 12.5t47 34t17 48t3 55.5q0 27 -3 52.5t-17 44t-47 29.5t-90 11q-59 0 -91 -11t-46.5 -29.5t-17.5 -44t-3 -52.5z" />
<glyph unicode="9" horiz-adv-x="864" d="M72 705q0 51 6 109t39 107.5t101.5 81t193.5 31.5t193.5 -31.5t101 -81t39 -107.5t6.5 -109v-398q0 -90 -26 -150.5t-73 -97t-112.5 -53t-147.5 -16.5q-29 0 -64.5 2t-75.5 7t-79 12t-70 18q0 53 9.5 80.5t31.5 66.5q27 -8 62 -14t68.5 -9t65.5 -5.5t54 -2.5q76 0 124 30 t48 106v147q-31 -16 -69.5 -23.5t-85.5 -7.5q-125 0 -193.5 30t-101.5 75t-39 99.5t-6 103.5zM256 707q0 -29 2 -56.5t17.5 -49t46 -35t90.5 -13.5q57 0 88.5 13.5t47 35t17.5 51t2 60.5q0 27 -3 54.5t-18.5 48t-46 33.5t-87.5 13q-59 0 -90 -13t-46.5 -34.5t-17.5 -50.5 t-2 -57z" />
<glyph unicode=":" horiz-adv-x="409" d="M113 8v205q33 6 56.5 7t35.5 1t34.5 -1t57.5 -7v-205q-35 -6 -57.5 -7t-34.5 -1t-36 1t-56 7zM113 537v204q33 6 56.5 7.5t35.5 1.5t34.5 -1t57.5 -8v-204q-35 -6 -57.5 -7.5t-34.5 -1.5t-36 1t-56 8z" />
<glyph unicode=";" horiz-adv-x="415" d="M76 -94q18 -6 28.5 -9t16.5 -5.5t11 -2.5h13q10 0 24.5 2.5t45.5 12.5l92 264q-41 8 -66.5 10t-39.5 2q-10 0 -32 -2t-56 -8zM115 537v204q33 6 56.5 7.5t35.5 1.5t34.5 -1t57.5 -8v-204q-35 -6 -57.5 -7.5t-34.5 -1.5t-36 1t-56 8z" />
<glyph unicode="&#x3c;" horiz-adv-x="892" d="M113 355.5v29.5q0 35 3 58.5t19 70.5l617 254q29 -51 28 -100q0 -16 -1 -37t-9 -47l-475 -187h-21v-22h21l475 -187q8 -27 9 -47t1 -37q0 -47 -28 -100l-617 254q-8 25 -13 41t-7 29.5t-2 27z" />
<glyph unicode="=" horiz-adv-x="800" d="M113 254q0 16 1 31.5t9 50.5h555q8 -35 9 -50.5t1 -31.5q0 -14 -1 -35.5t-5 -38.5h-563q-4 16 -5 38t-1 36zM113 537q0 16 1 31.5t9 49.5h555q8 -35 9 -50t1 -31q0 -14 -1 -36t-5 -38h-563q-4 16 -5 37.5t-1 36.5z" />
<glyph unicode="&#x3e;" horiz-adv-x="892" d="M113 104q0 16 1 37t9 47l475 187h20v22h-20l-475 187q-8 27 -9 47t-1 37q0 49 28 100l617 -254q16 -47 19 -70.5t3 -58.5v-29.5t-2 -27t-7 -29.5t-13 -41l-617 -254q-29 53 -28 100z" />
<glyph unicode="?" horiz-adv-x="790" d="M113 975q59 33 127.5 46t128.5 13q150 0 229.5 -53t79.5 -190q0 -80 -39 -130.5t-85 -88t-85 -69.5t-39 -73v-133q-33 -4 -55.5 -5t-34.5 -1t-35.5 1t-58.5 5v133q0 61 18.5 100t46 67t59 46.5t59.5 38.5t46.5 45t18.5 64q0 37 -24 54t-105 17q-113 0 -189 -51 q-29 41 -44 79t-19 85zM248 8v205q33 6 56.5 7t35.5 1t34.5 -1t57.5 -7v-205q-35 -6 -57.5 -7t-34.5 -1t-35.5 1t-56.5 7z" />
<glyph unicode="@" horiz-adv-x="1347" d="M113 283v454q0 154 117.5 225.5t330.5 71.5h225q213 0 331 -71.5t118 -225.5v-393q0 -47 -22.5 -76.5t-53.5 -47t-64.5 -24t-56.5 -6.5q-31 0 -64.5 2.5t-62 10.5t-48 22.5t-19.5 38.5h-19q-6 -25 -24.5 -39t-41 -21t-47 -10.5t-44.5 -3.5q-98 0 -158.5 25t-94.5 67 t-46.5 95t-12.5 108v78q0 55 11.5 105.5t43 88.5t89 59.5t151.5 21.5q8 0 29.5 -2t45.5 -9.5t47.5 -20.5t37.5 -36h14v55q16 4 41 5t35 1t33.5 -1t40.5 -5v-450q0 -41 12 -48.5t35 -7.5q27 0 35 7.5t8 48.5v362q0 66 -68.5 108t-210.5 42h-225q-141 0 -209.5 -42t-68.5 -108 v-454q0 -49 22.5 -78t60 -44.5t89 -19.5t106.5 -4h291h60.5t42 2t35 7.5l40.5 13.5q23 -20 38 -56t24 -67q-25 -18 -47.5 -27.5t-49 -13.5t-60.5 -5t-83 -1h-291q-111 0 -193.5 13t-140 47t-86 90.5t-28.5 142.5zM510 496q0 -29 2 -59.5t17.5 -56.5t47 -42t91.5 -16 q59 0 91 16t47 42t17 56.5t2 59.5v88q0 51 -35.5 88t-140.5 37q-53 0 -80.5 -13.5t-41 -36t-15.5 -50t-2 -54.5v-59z" />
<glyph unicode="A" horiz-adv-x="972" d="M31 23l295 978q49 16 88 19.5t73 3.5q35 0 73 -3t87 -20l295 -978q-23 -14 -48.5 -18.5t-49.5 -4.5q-14 0 -35 1t-51 7l-94 309h-355l-94 -309q-31 -6 -51.5 -7t-34.5 -1q-25 0 -50.5 4t-47.5 19zM365 494h243l-110 364v21h-23v-21z" />
<glyph unicode="B" horiz-adv-x="985" d="M113 0v1024h428q72 0 135 -5t111.5 -33t77 -90t28.5 -175q0 -78 -17.5 -126t-64.5 -83q47 -33 64.5 -83t17.5 -124q0 -115 -28.5 -176t-77 -90t-112 -34t-134.5 -5h-428zM297 156h242q27 0 57.5 4t55 18.5t41 42t16.5 72.5q0 43 -16.5 69.5t-41 42t-55.5 21.5t-57 6h-242 v-276zM297 588h242q27 0 57.5 4t55 18.5t41 41t16.5 69.5q0 45 -16.5 70.5t-41 39t-55.5 17.5t-57 4h-242v-264z" />
<glyph unicode="C" horiz-adv-x="966" d="M92 377v268q0 197 119 293t319 96q33 0 77 -3t92.5 -9t95.5 -15.5t86 -21.5q0 -33 -2 -53.5t-6.5 -36.5t-13.5 -32.5t-21 -39.5q-35 10 -76 17.5t-84 12.5t-82 7t-70 2q-49 0 -94 -13t-80 -39t-55.5 -63.5t-20.5 -87.5v-294q0 -59 20.5 -100.5t55.5 -68t79 -39t93 -12.5 q31 0 72 2.5t86 7.5t88 12t78 17q23 -29 28 -58.5t5 -94.5q-39 -12 -86 -20.5t-95.5 -13.5t-92.5 -6t-77 -1q-100 0 -181 19.5t-138 64.5t-88 119.5t-31 183.5z" />
<glyph unicode="D" horiz-adv-x="1009" d="M113 0v1024h356q100 0 181 -19.5t138.5 -64.5t88 -120t30.5 -183v-250q0 -109 -30.5 -183.5t-88 -119.5t-138.5 -64.5t-181 -19.5h-356zM297 156h174q115 0 183.5 59t68.5 160v274q0 100 -64.5 151.5t-187.5 51.5h-174v-696z" />
<glyph unicode="E" horiz-adv-x="913" d="M113 0v1024h694q8 -35 9 -55.5t1 -32.5q0 -18 -1 -42t-5 -42h-514v-262h446q8 -27 9.5 -40t1.5 -28q0 -16 -1 -37.5t-10 -50.5h-446v-278h510q8 -27 9 -40.5t1 -27.5q0 -16 -1 -37.5t-9 -50.5h-694z" />
<glyph unicode="F" horiz-adv-x="888" d="M113 10v1014h692q10 -35 11 -55.5t1 -32.5q0 -18 -1 -42t-5 -42h-514v-281h446q8 -27 9.5 -40t1.5 -27q0 -16 -1 -38t-10 -50h-446v-406q-33 -6 -56.5 -7t-37.5 -1q-10 0 -33 1t-57 7z" />
<glyph unicode="G" horiz-adv-x="1015" d="M113 377v268q0 92 31.5 165t89 123t138.5 75.5t181 25.5q33 0 77 -3t92 -9t95 -15.5t86 -21.5q0 -33 -2 -53.5t-6 -36.5t-13.5 -32.5t-21.5 -39.5q-35 10 -76 17.5t-84 12.5t-81.5 7t-69.5 2q-49 0 -94 -13t-80 -39t-56.5 -63.5t-21.5 -87.5v-313q0 -49 21.5 -87 t56.5 -63.5t80 -38t94 -12.5q35 0 77 1t91 8v239h-162q-8 33 -9 47.5t-1 26.5q0 16 1 34.5t9 53.5h254q12 0 35.5 -3t56.5 -7v-512q-39 -12 -86 -21.5t-94 -13.5t-91 -6t-77 -2q-100 0 -181 19.5t-138.5 64.5t-89 119.5t-31.5 183.5z" />
<glyph unicode="H" horiz-adv-x="1001" d="M113 8v1008q35 6 57.5 7t32.5 1q14 0 37.5 -1t56.5 -7v-422h408v422q35 6 57 7t33 1q14 0 37.5 -1t56.5 -7v-1008q-33 -6 -56.5 -7t-37.5 -1q-10 0 -33 1t-57 7v430h-408v-430q-33 -6 -56.5 -7t-37.5 -1q-10 0 -33 1t-57 7z" />
<glyph unicode="I" horiz-adv-x="409" d="M113 8v1008q33 6 56.5 7t35.5 1t34.5 -1t57.5 -7v-1008q-35 -6 -57.5 -7t-34.5 -1t-36 1t-56 7z" />
<glyph unicode="J" horiz-adv-x="825" d="M92 221v98q35 8 56.5 9.5t33.5 1.5t37 -1t57 -10v-100q0 -51 32 -62.5t100 -11.5t99.5 10.5t31.5 61.5v797q33 6 56 7t36 1q12 0 34.5 -1t57.5 -7v-793q0 -47 -10.5 -89t-42 -73.5t-91 -50t-159.5 -18.5h-27q-98 0 -157.5 18.5t-91 50t-42 73.5t-10.5 89z" />
<glyph unicode="K" horiz-adv-x="1048" d="M113 8v1008q33 6 56.5 7t35.5 1t34.5 -1t57.5 -7v-389l541 397q27 -10 48 -29.5t27 -29.5q10 -12 18.5 -26.5t18.5 -47.5l-327 -248l374 -620q-25 -14 -58.5 -18.5t-55.5 -4.5q-16 0 -40 1t-50 11l-324 520l-172 -129v-395q-35 -6 -57.5 -7t-34.5 -1t-36 1t-56 7z" />
<glyph unicode="L" horiz-adv-x="849" d="M113 0v1014q33 6 56.5 7t35.5 1t34.5 -1t57.5 -7v-858h491q8 -35 9.5 -50.5t1.5 -29.5q0 -16 -1 -28.5t-10 -47.5h-675z" />
<glyph unicode="M" horiz-adv-x="1296" d="M113 8v989q53 20 94 23.5t76 3.5q33 0 89 -3t103 -22l172 -854l174 854q47 18 103.5 21.5t89.5 3.5q35 0 75.5 -3t94.5 -24v-989q-35 -6 -57.5 -7t-34.5 -1t-36 1t-57 7v854h-26v-20l-180 -828q-16 -6 -38 -8t-43.5 -4t-39 -2h-25.5h-25.5t-39 2t-44 4t-36.5 8l-178 828 v20h-27v-854q-33 -6 -56.5 -7t-35.5 -1t-35 1t-57 7z" />
<glyph unicode="N" horiz-adv-x="1120" d="M113 8v989q25 10 47 14.5t39 8.5q20 4 37 4q70 0 117.5 -3t88.5 -20l355 -815v-24h26v854q33 6 56.5 7t35.5 1t35 -1t58 -7v-989q-27 -10 -48.5 -14.5t-37.5 -8.5q-20 -4 -37 -4q-70 0 -121 3t-92 20l-348 815v24h-27v-854q-33 -6 -56.5 -7t-35.5 -1t-35 1t-57 7z" />
<glyph unicode="O" horiz-adv-x="1017" d="M92 379v264q0 88 8.5 161t48 124t124.5 78.5t239 27.5t236.5 -27.5t122.5 -78.5t47.5 -124t7.5 -161v-264q0 -88 -7.5 -160t-47.5 -123t-122.5 -78.5t-236.5 -27.5t-239 27.5t-124.5 78.5t-48 123t-8.5 160zM276 365q0 -61 7.5 -102.5t32 -68t71.5 -38t125 -11.5 q76 0 122 11.5t69.5 38t30.5 67.5t7 103v276q0 61 -7 103t-30.5 69t-69.5 38t-122 11q-78 0 -125 -11t-71.5 -38t-32 -69t-7.5 -103v-276z" />
<glyph unicode="P" horiz-adv-x="921" d="M113 10v1014h395q72 0 135.5 -6t111.5 -39t76.5 -102.5t28.5 -194.5t-28.5 -193.5t-76.5 -101.5t-111.5 -39t-135.5 -6h-211v-332q-33 -8 -56.5 -9t-35.5 -1t-35 1t-57 9zM297 498h209q27 0 57.5 7t55 26.5t41 55.5t16.5 95t-16.5 93t-41 51.5t-55.5 21.5t-57 4h-209 v-354z" />
<glyph unicode="Q" horiz-adv-x="1038" d="M102 379v264q0 88 8.5 161t48.5 124t124.5 78.5t238.5 27.5t237 -27.5t123 -78.5t47 -124t7 -161v-264q0 -80 -6 -147.5t-37 -118t-95.5 -81t-183.5 -38.5v-82q10 10 21.5 13t13.5 3h174q10 -29 14.5 -48t4.5 -36q0 -12 -1 -24.5t-12 -46.5h-258q-45 0 -75.5 11t-65.5 38 v172q-121 8 -186.5 38.5t-97 81t-38 118t-6.5 147.5zM287 365q0 -61 7 -102.5t31.5 -68t71.5 -38t125 -11.5q76 0 122 11.5t69.5 38t31 67.5t7.5 103v276q0 61 -7.5 103t-31 69t-69.5 38t-122 11q-78 0 -125 -11t-71.5 -38t-31.5 -69t-7 -103v-276z" />
<glyph unicode="R" horiz-adv-x="989" d="M113 10v1014h422q72 0 136 -6t112 -39t76 -102.5t28 -194.5q0 -129 -32 -195.5t-83 -99.5l111 -364q-23 -12 -49.5 -17.5t-51.5 -5.5q-16 0 -37.5 1t-48.5 11l-104 330h-295v-332q-33 -8 -56.5 -9t-35.5 -1t-35 1t-57 9zM297 498h235q27 0 58 7t55.5 26.5t40.5 55.5 t16 95t-16 93t-40.5 51.5t-55.5 21.5t-58 4h-235v-354z" />
<glyph unicode="S" horiz-adv-x="962" d="M88 88q2 43 16.5 76.5t55.5 68.5q45 -27 94 -43t94 -26t84 -14.5t64 -4.5q37 0 71.5 4.5t62 20.5t44 48t16.5 89q0 35 -44 58.5t-109.5 43t-142.5 42t-142.5 59.5t-109.5 91t-44 138q0 82 28 138.5t80 91.5t127 50t167 15q35 0 80 -3t92 -9t92 -15.5t82 -23.5 q-2 -25 -4 -44t-6.5 -37.5t-13.5 -37t-23 -43.5q-25 8 -61 16.5t-75.5 13.5t-81.5 8t-77 3q-57 0 -98 -3t-69 -15.5t-41 -37t-13 -67.5q0 -41 44 -66.5t109.5 -47t142 -44t142 -57.5t109.5 -86t44 -131q0 -111 -33.5 -174t-88 -95t-122 -40t-136.5 -8q-41 0 -97.5 4t-115 14 t-110.5 29.5t-83 50.5z" />
<glyph unicode="T" horiz-adv-x="845" d="M39 936q0 12 1 32.5t7 55.5h752q6 -35 7 -55.5t1 -32.5q0 -18 -1 -42t-5 -42h-285v-842q-35 -8 -57.5 -9t-32.5 -1q-14 0 -36.5 1t-57.5 9v842h-287q-4 18 -5 42t-1 42z" />
<glyph unicode="U" horiz-adv-x="1044" d="M102 379v637q33 6 56.5 7t36.5 1q12 0 34.5 -1t57.5 -7v-651q0 -61 8 -102.5t32.5 -68t70.5 -38t124 -11.5t124 11.5t70.5 38t33 67.5t8.5 103v651q33 6 56.5 7t35.5 1t34.5 -1t57.5 -7v-637q0 -88 -8 -160t-48 -123t-125 -78.5t-239 -27.5t-238.5 27.5t-124.5 78.5 t-48.5 123t-8.5 160z" />
<glyph unicode="V" horiz-adv-x="972" d="M31 1001q23 14 48 18.5t50 4.5q14 0 34.5 -1t51.5 -7l260 -850v-21h23v21l260 850q31 6 51 7t35 1q25 0 50.5 -4t47.5 -19l-295 -978q-49 -16 -87 -19.5t-73 -3.5t-73.5 3t-87.5 20z" />
<glyph unicode="W" horiz-adv-x="1265" d="M31 1006q23 14 48 16t48 2q16 0 36.5 -2t51.5 -12l152 -865v-20h22v20l107 697q14 4 34.5 7t41 4t37 1h24.5h24.5t36 -1t40 -4t36.5 -7l107 -697v-20h22v20l152 865q31 10 51 12t37 2q23 0 48 -2t48 -16l-174 -983q-47 -16 -78 -19.5t-65 -3.5h-43t-52.5 2t-56.5 7 t-51 14l-82 634l-82 -634q-23 -8 -51.5 -13.5t-56 -7.5t-52 -2h-43.5q-35 0 -65.5 3t-77.5 20z" />
<glyph unicode="X" horiz-adv-x="1052" d="M31 999q41 18 72.5 21.5t46.5 3.5q10 0 41.5 -1t50.5 -9l284 -365l285 365q18 8 50 9t42 1q14 0 46 -3t73 -22l-387 -493l381 -483q-35 -16 -76 -19.5t-53 -3.5q-10 0 -38 1t-56 7l-267 348l-266 -348q-29 -6 -56.5 -7t-37.5 -1q-12 0 -53 3t-76 20l381 483z" />
<glyph unicode="Y" horiz-adv-x="1044" d="M51 997q37 20 74 23.5t51 3.5q8 0 40 -1t54 -11l252 -389l252 389q23 10 54.5 11t39.5 1q14 0 51 -3t74 -24l-379 -559v-428q-35 -8 -58.5 -9t-33.5 -1q-14 0 -36.5 1t-55.5 9v428z" />
<glyph unicode="Z" horiz-adv-x="1028" d="M102 86q0 10 2 25.5t7 44.5l569 696h-567q-8 33 -9.5 52.5t-1.5 33.5t1 32.5t10 53.5h813q8 -35 9 -53.5t1 -30.5q0 -2 -2 -30.5t-19 -57.5l-57 -72q-25 -31 -64.5 -80t-100 -124.5t-143.5 -179t-194 -240.5h537q8 -33 9 -43.5t1 -24.5q0 -16 -1 -34.5t-9 -53.5h-780 q-4 35 -7.5 53.5t-3.5 32.5z" />
<glyph unicode="[" horiz-adv-x="518" d="M113 -102v1235q35 4 57.5 7t34.5 3h196q2 -20 3.5 -43t1.5 -41q0 -12 -1.5 -24.5t-5.5 -47.5h-102v-944h102q4 -35 5.5 -47t1.5 -25q0 -18 -1.5 -40.5t-3.5 -43.5h-196q-12 0 -35 3.5t-57 7.5z" />
<glyph unicode="\" horiz-adv-x="647" d="M61 1120q23 14 49.5 18.5t49.5 4.5q16 0 35.5 -1t50.5 -7l340 -1123q-39 -10 -61.5 -11t-39.5 -1q-23 0 -46 3t-40 13z" />
<glyph unicode="]" horiz-adv-x="520" d="M115 -29q0 12 1 24.5t5 47.5h102v944h-102q-4 35 -5 47.5t-1 24.5q0 18 1 40.5t3 43.5h196q12 0 35 -3t58 -7v-1235q-35 -4 -57.5 -7.5t-35.5 -3.5h-196q-2 20 -3 43t-1 41z" />
<glyph unicode="^" horiz-adv-x="808" d="M113 502l145 499q47 16 80 19.5t68 3.5t66.5 -3t78.5 -20l145 -499q-25 -14 -49 -20.5t-47 -6.5q-16 0 -33.5 2t-48.5 12l-102 420v21h-23v-21l-102 -420q-31 -10 -48.5 -12t-33.5 -2q-23 0 -47.5 6t-48.5 21z" />
<glyph unicode="_" horiz-adv-x="755" d="M0 -135q0 16 1 31.5t9 50.5h735q8 -35 9.5 -50.5t1.5 -31.5q0 -14 -1 -36t-5 -38h-744q-4 16 -5 37.5t-1 36.5z" />
<glyph unicode="`" horiz-adv-x="466" d="M113 1085q41 10 66.5 11.5t35.5 1.5t32.5 -1t57.5 -10l49 -303q-10 -12 -27.5 -14t-21.5 -2q-25 0 -49.5 1t-34.5 7z" />
<glyph unicode="a" horiz-adv-x="856" d="M76 262q0 74 27.5 120t70.5 72.5t92 36t92 9.5q59 0 96.5 -5.5t86.5 -25.5h18v53q0 76 -55 105.5t-129 29.5q-47 0 -94.5 -9t-100.5 -25q-23 39 -33 75.5t-10 87.5q59 20 128 31.5t126 11.5q80 0 144.5 -15t110.5 -50t71.5 -95.5t25.5 -148.5v-510q-35 -8 -57 -9t-35 -1 q-12 0 -35.5 1t-56.5 9v88q-10 -31 -31.5 -51t-48 -32.5t-54.5 -18.5t-52 -6q-158 0 -227.5 60.5t-69.5 211.5zM260 246q0 -68 25.5 -84.5t85.5 -16.5q61 0 108 30t80 67v92h-82q-43 0 -82 -1t-69.5 -9.5t-48 -26.5t-17.5 -51z" />
<glyph unicode="b" horiz-adv-x="878" d="M113 10v1077q33 8 56.5 9.5t35.5 1.5q14 0 36.5 -1t55.5 -10v-344h18q18 31 46 47.5t55.5 25.5t50 11t31.5 2q109 0 167 -26.5t85.5 -71.5t31.5 -106.5t4 -130.5v-166q0 -72 -5 -133.5t-32.5 -106.5t-86 -71.5t-164.5 -26.5q-6 0 -32 1t-57.5 10t-63.5 26.5t-48 52.5v-70 q-33 -8 -55.5 -9t-34.5 -1q-14 0 -38 1t-56 9zM297 313q0 -27 2 -56.5t16.5 -54t46 -41t89.5 -16.5q57 0 87.5 16.5t45 41t16.5 54.5t2 56v179q0 27 -2 56.5t-14.5 54t-40 39.5t-76.5 15q-51 0 -84 -12t-52.5 -30.5t-27.5 -43t-8 -49.5v-209z" />
<glyph unicode="c" horiz-adv-x="776" d="M86 303v213q0 88 25.5 148.5t71.5 97.5t111.5 52t145.5 15q27 0 64 -2t75.5 -7t76.5 -12t69 -17q0 -51 -10 -88t-33 -76q-55 16 -126 23t-118 7q-74 0 -121 -28.5t-47 -102.5v-250q0 -74 47.5 -102.5t120.5 -28.5q23 0 54.5 2.5t65.5 5.5t67.5 9t62.5 14q23 -39 30 -66.5 t7 -80.5q-31 -10 -69 -17.5t-76.5 -12.5t-75.5 -7t-64 -2q-80 0 -145.5 15t-111.5 52t-71.5 97.5t-25.5 148.5z" />
<glyph unicode="d" horiz-adv-x="878" d="M92 328v166q0 70 4 131t32 106t86 71.5t167 26.5q8 0 30.5 -2t50 -11t55.5 -25.5t46 -47.5h19v344q33 8 55 9.5t37 1.5q12 0 35.5 -1t56.5 -10v-1077q-33 -8 -56.5 -9t-37.5 -1q-12 0 -35 1t-55 9v70q-16 -35 -48 -52.5t-64 -26.5t-57.5 -10t-31.5 -1q-106 0 -164.5 26.5 t-86.5 71.5t-33 106.5t-5 133.5zM276 313q0 -27 2.5 -56.5t16.5 -54t45 -41t88 -16.5t89 16.5t46.5 41t16.5 54.5t2 56v209q0 25 -8.5 49.5t-28 43t-52 30.5t-83.5 12q-49 0 -77 -15t-40 -39.5t-14.5 -54.5t-2.5 -56v-179z" />
<glyph unicode="e" horiz-adv-x="837" d="M92 303v158q0 100 13.5 169.5t51.5 113.5t103.5 64.5t169.5 20.5q106 0 172 -20.5t101.5 -62t47 -104t11.5 -144.5v-168h-488v-37q0 -74 50.5 -111t124.5 -37q23 0 55.5 2.5t68 5.5t71.5 9t65 14q20 -39 27 -66.5t7 -80.5q-31 -10 -70.5 -17.5t-79.5 -12.5t-77.5 -7 t-64.5 -2q-80 0 -145.5 15t-113 52t-74 97.5t-26.5 148.5zM276 483h302v52q0 29 -5.5 51t-20.5 38.5t-44 24.5t-78 8q-43 0 -71.5 -6t-47 -24.5t-27 -52t-8.5 -91.5z" />
<glyph unicode="f" horiz-adv-x="628" d="M80 731q0 12 1 34.5t7 53.5h127q0 88 11.5 146.5t37 94.5t67.5 51t105 15q18 0 70.5 -3t122.5 -25q0 -53 -8.5 -78t-30.5 -62q-66 10 -91.5 11.5t-43.5 1.5q-41 0 -48.5 -42t-7.5 -110h215q4 -31 5.5 -53.5t1.5 -34.5q0 -16 -2.5 -27.5t-14.5 -39.5h-205v-654 q-35 -6 -57.5 -7t-34.5 -1t-35.5 1t-56.5 7v654h-121q-10 27 -12 39t-2 28z" />
<glyph unicode="g" horiz-adv-x="878" d="M92 328v166q0 70 4 131t32 106t86 71.5t167 26.5q8 0 30.5 -2t50 -11t55.5 -25.5t46 -47.5h19v66q33 8 55.5 9t36.5 1q12 0 35.5 -1t56.5 -9v-868q0 -90 -25.5 -150.5t-72.5 -97.5t-114 -53.5t-148 -16.5q-27 0 -64 2t-76 7.5t-77.5 12.5t-71.5 17q0 27 2 46.5t6 35.5 t12 31.5t19 34.5q57 -18 130.5 -24.5t121.5 -6.5q76 0 125 28.5t49 104.5v168q-16 -35 -48 -52.5t-64 -26.5t-57.5 -10t-31.5 -1q-106 0 -164.5 26.5t-86.5 71.5t-33 106.5t-5 133.5zM276 313q0 -27 2.5 -56.5t16.5 -54t45 -41t88 -16.5t89 16.5t46.5 41t16.5 54.5t2 56v209 q0 25 -8.5 49.5t-28 43t-52 30.5t-83.5 12q-49 0 -77 -15t-40 -39.5t-14.5 -54.5t-2.5 -56v-179z" />
<glyph unicode="h" horiz-adv-x="886" d="M113 8v1079q35 8 53 9.5t31 1.5q10 0 37.5 -1t62.5 -10v-331h20q39 47 82 60t97 13q78 0 133 -24.5t90 -67.5t50 -101t15 -126v-502q-33 -6 -56 -7t-38 -1q-10 0 -32.5 1t-57.5 7v469q0 33 -2 64.5t-15.5 57.5t-43 42t-82.5 16q-92 0 -127 -30.5t-35 -98.5v-520 q-33 -6 -56.5 -7t-37.5 -1q-10 0 -32 1t-56 7z" />
<glyph unicode="i" horiz-adv-x="409" d="M113 8q33 -6 56.5 -7t35.5 -1t34.5 1t57.5 7v803q-35 6 -57.5 7t-34.5 1t-36 -1t-56 -7v-803zM113 946v205q33 6 56.5 7t35.5 1t34.5 -1t57.5 -7v-205q-35 -6 -57.5 -7t-34.5 -1t-36 1t-56 7z" />
<glyph unicode="j" horiz-adv-x="393" d="M-195 -344q66 -23 114 -28t104 -5q63 0 111 13.5t81 47t49.5 92t16.5 148.5v887q-35 6 -57.5 7t-35.5 1q-12 0 -35.5 -1t-56.5 -7v-905q0 -76 -17.5 -101.5t-70.5 -25.5q-49 0 -80.5 3t-85.5 19q-23 -39 -30 -65.5t-7 -79.5zM96 946v205q33 6 56.5 7t35.5 1t35 -1t58 -7 v-205q-35 -6 -57.5 -7t-35.5 -1q-12 0 -35.5 1t-56.5 7z" />
<glyph unicode="k" horiz-adv-x="919" d="M113 10v1077q35 8 54 9.5t32 1.5q10 0 36.5 -1t61.5 -10v-518h22q4 12 12.5 23.5t24.5 23.5l322 203q25 -18 42 -35.5t23 -27.5q8 -10 19.5 -30.5t23.5 -57.5l-176 -111l271 -526q-27 -23 -49.5 -27t-47.5 -4q-16 0 -39.5 1t-48.5 11l-229 453l-170 -105v-350 q-35 -8 -61.5 -9t-36.5 -1q-12 0 -32 1t-54 9z" />
<glyph unicode="l" horiz-adv-x="409" d="M113 10v1077q35 8 53 9.5t31 1.5q10 0 37.5 -1t62.5 -10v-1077q-35 -8 -62.5 -9t-37.5 -1q-12 0 -31 1t-53 9z" />
<glyph unicode="m" horiz-adv-x="1204" d="M113 8v801q35 8 54 9t32 1q10 0 23.5 -1t47.5 -9l11 -53h20q14 25 37.5 39t48.5 21t48.5 10t37.5 3q57 0 98 -21.5t74 -45.5q18 25 47 39t58.5 20t54 7t35.5 1q78 0 129 -24.5t80.5 -67.5t42 -101t12.5 -126v-502q-33 -6 -56.5 -7t-37.5 -1q-10 0 -33 1t-57 7v469 q0 33 -3.5 64.5t-12.5 57.5t-26.5 42t-48.5 16q-27 0 -57.5 -5t-69.5 -36q8 -31 9.5 -51t1.5 -55v-502q-33 -6 -56.5 -7t-38.5 -1q-10 0 -32.5 1t-57.5 7v469q0 33 -4 64.5t-14 57.5t-29.5 42t-50.5 16q-82 0 -107.5 -31.5t-25.5 -97.5v-520q-33 -6 -56.5 -7t-37.5 -1 q-10 0 -33 1t-57 7z" />
<glyph unicode="n" horiz-adv-x="888" d="M113 8v801q35 8 54 9t32 1q10 0 23.5 -1t47.5 -9l11 -53h20q39 47 91 60t106 13q78 0 133 -24.5t90 -67.5t50 -101t15 -126v-502q-33 -6 -56 -7t-38 -1q-10 0 -32.5 1t-57.5 7v469q0 33 -2 64.5t-15.5 57.5t-43 42t-82.5 16q-92 0 -127 -30.5t-35 -98.5v-520 q-33 -6 -56.5 -7t-37.5 -1q-10 0 -33 1t-57 7z" />
<glyph unicode="o" horiz-adv-x="856" d="M92 328v164q0 70 6 132t38 107t100.5 71.5t191.5 26.5t190.5 -26.5t99.5 -71.5t39 -107.5t7 -131.5v-164q0 -72 -7 -133.5t-39 -106.5t-99.5 -71.5t-190.5 -26.5t-191.5 26.5t-100.5 71.5t-38 106.5t-6 133.5zM276 313q0 -29 2.5 -58.5t16.5 -54t45 -40t88 -15.5t88 15.5 t45 40t16.5 54.5t2.5 58v176q0 27 -2.5 56.5t-16.5 54.5t-45 41t-88 16t-88 -16t-45 -41t-16.5 -54.5t-2.5 -56.5v-176z" />
<glyph unicode="p" horiz-adv-x="878" d="M113 -367v1176q33 8 56.5 9t37.5 1q12 0 34.5 -1t55.5 -9v-66h18q18 31 46 47.5t55.5 25.5t50 11t31.5 2q109 0 167 -26.5t85.5 -71.5t31.5 -106.5t4 -130.5v-166q0 -72 -5 -133.5t-32.5 -106.5t-86 -71.5t-164.5 -26.5q-6 0 -32 1t-57.5 7t-63.5 19.5t-48 37.5v-422 q-33 -8 -55.5 -9t-36.5 -1q-12 0 -36 1t-56 9zM297 281q0 -25 8 -49.5t27.5 -43t52.5 -31t84 -12.5q49 0 76.5 15.5t40 40t14.5 54.5t2 56v178q0 27 -2 56.5t-16.5 54.5t-45 41t-87.5 16t-89 -16t-46.5 -41t-16.5 -54.5t-2 -56.5v-208z" />
<glyph unicode="q" horiz-adv-x="878" d="M92 328v166q0 70 4 131t32 106t86 71.5t167 26.5q8 0 30.5 -2t50 -11t55.5 -25.5t46 -47.5h19v66q33 8 55 9t35 1q14 0 37.5 -1t56.5 -9v-1176q-33 -8 -56.5 -9t-35.5 -1q-14 0 -37 1t-55 9v422q-16 -25 -48 -38t-64 -19t-57.5 -7t-31.5 -1q-106 0 -164.5 26.5 t-86.5 71.5t-33 106.5t-5 133.5zM276 311q0 -27 2.5 -56.5t14.5 -54t39.5 -40t77.5 -15.5q51 0 83.5 12.5t52 31t28 43t8.5 49.5v208q0 27 -2 56.5t-16.5 54.5t-46.5 41t-89 16t-88 -16t-45 -41t-16.5 -54.5t-2.5 -56.5v-178z" />
<glyph unicode="r" horiz-adv-x="569" d="M113 8v801q35 8 54 9t32 1q10 0 23.5 -1t47.5 -9l11 -53h20q41 41 90 52t103 11h53q14 -25 16 -46t2 -38q0 -12 -1 -34.5t-9 -53.5h-100q-92 0 -125 -29.5t-33 -95.5v-514q-35 -6 -57.5 -7t-34.5 -1t-36 1t-56 7z" />
<glyph unicode="s" horiz-adv-x="784" d="M82 590q0 135 87 187t237 52q29 0 64.5 -2t73.5 -7t74.5 -13t67.5 -21q-4 -47 -13 -80.5t-32 -80.5q-41 16 -107.5 24t-123.5 8q-86 0 -115 -16t-29 -51q0 -31 33 -48.5t83 -31.5t107.5 -30.5t107.5 -44t83 -73t33 -114.5q0 -141 -71 -199.5t-241 -58.5q-33 0 -73.5 4 t-82.5 10t-82 15.5t-69 21.5q2 29 4 49.5t7.5 35.5t13.5 28.5t20 31.5q20 -8 57 -15t75 -13t74 -9.5t56 -3.5q82 0 104.5 30t22.5 73q0 29 -32.5 45t-83 31.5t-107.5 33t-107.5 45t-83 72.5t-32.5 115z" />
<glyph unicode="t" horiz-adv-x="573" d="M27 731q0 12 1 34.5t7 53.5h129v234q33 8 55.5 9t34.5 1t35.5 -1t58.5 -9v-234h148q4 -31 5 -53.5t1 -34.5q0 -16 -2 -27.5t-15 -39.5h-137v-400q0 -47 11.5 -77.5t62.5 -30.5h76q8 -31 9 -43.5t1 -28.5q0 -10 -1 -32.5t-9 -51.5h-74q-74 0 -124 12.5t-81 42t-43 80.5 t-12 129v400h-121q-12 27 -14 39t-2 28z" />
<glyph unicode="u" horiz-adv-x="878" d="M92 309v502q33 6 56.5 7t37.5 1q10 0 33 -1t57 -7v-485q0 -33 2.5 -65t15.5 -57.5t43 -42t83 -16.5q92 0 127 31t35 98v537q33 6 56.5 7t37.5 1q10 0 32.5 -1t57.5 -7v-801q-35 -8 -54.5 -9t-31.5 -1q-10 0 -23.5 1t-48.5 9l-10 53h-20q-39 -47 -91.5 -60t-105.5 -13 q-78 0 -133 24.5t-90 67.5t-50.5 101.5t-15.5 125.5z" />
<glyph unicode="v" horiz-adv-x="837" d="M31 797q23 14 49 18t49 4q14 0 33.5 -1t50.5 -9l193 -643v-21h26v21l193 643q31 8 50 9t34 1q23 0 49 -4t49 -18l-234 -774q-47 -16 -83.5 -19.5t-71.5 -3.5t-71 3.5t-83 19.5z" />
<glyph unicode="w" horiz-adv-x="1085" d="M78 807q61 12 96 12q20 0 44 -3t48 -7l60 -643v-21h20v21l51 444q12 6 34 9.5t44.5 6.5t41 4t24.5 1q8 0 27.5 -1t42 -4t44 -6.5t33.5 -9.5l51 -444v-21h21v21l59 643q25 4 48.5 7t43.5 3q35 0 97 -12l-82 -782q-53 -18 -90 -21.5t-72 -3.5q-33 0 -78 3t-86 20l-47 460 h-21l-47 -460q-41 -16 -86 -19.5t-77 -3.5q-35 0 -72 3t-90 22z" />
<glyph unicode="x" horiz-adv-x="937" d="M51 799q41 16 72 18t45 2q8 0 40 -1t54 -11l207 -272l207 272q23 10 54.5 11t39.5 1q14 0 45 -2t72 -18l-314 -398l301 -378q-57 -16 -82.5 -19.5t-37.5 -3.5q-10 0 -38 1t-54 7l-193 258l-193 -258q-27 -6 -54 -7t-38 -1q-12 0 -37.5 3t-83.5 20l302 378z" />
<glyph unicode="y" horiz-adv-x="837" d="M31 797q23 14 49 18t49 4q14 0 33.5 -1t50.5 -9l193 -643v-21h26v21l193 643q31 8 50 9t34 1q23 0 49 -4t49 -18l-352 -1170q-14 -4 -41 -4h-43q-20 0 -51 3t-41 9l96 314q4 16 13 21t20 10v20h-9q-35 0 -61.5 3t-73.5 20z" />
<glyph unicode="z" horiz-adv-x="808" d="M82 84q0 12 2 26.5l6 43.5l385 493h-383q-4 35 -7 54.5t-3 33.5q0 12 3 30.5t7 53.5h625q8 -35 9 -53t1 -29q0 4 -1 -18.5t-11 -52.5q2 0 -37 -54q-16 -23 -44 -59.5t-69 -90.5t-98 -130t-133 -176h385q4 -35 6 -45.5t2 -24.5t-1 -35.5t-9 -50.5h-625q-4 35 -7 53.5 t-3 30.5z" />
<glyph unicode="{" horiz-adv-x="667" d="M113 508q0 14 1 30.5t9 49.5q31 0 52.5 3t33.5 15t18 38t6 69v278q0 20 3.5 47t14.5 50.5t35.5 39t67.5 15.5h193q4 -35 6 -47.5t2 -26.5t-2 -30.5t-6 -51.5h-82q-23 0 -41 -4t-18 -31v-231q0 -78 -13.5 -125t-54.5 -82q41 -35 54.5 -85t13.5 -126v-231q0 -27 18 -31 t41 -4h82q4 -35 6 -51.5t2 -30.5t-2 -26.5t-6 -47.5h-193q-43 0 -67.5 15.5t-35.5 39t-14.5 49t-3.5 48.5v278q0 43 -6 67.5t-19 37t-34.5 14.5t-54.5 2q-4 23 -5 39t-1 37z" />
<glyph unicode="|" horiz-adv-x="409" d="M113 -109v1242q35 8 57.5 9t32.5 1q14 0 37.5 -1t56.5 -9v-1242q-33 -8 -56.5 -9t-35.5 -1t-35 1t-57 9z" />
<glyph unicode="}" horiz-adv-x="667" d="M113 -45q0 14 2 30.5t6 51.5h82q23 0 41 4t18 31v231q0 76 13.5 126t54.5 85q-41 35 -54.5 82t-13.5 125v231q0 27 -18.5 31t-40.5 4h-82q-4 35 -6 51.5t-2 30.5t2 26.5t6 47.5h192q43 0 68 -15.5t36 -39t14 -50t3 -47.5v-278q0 -43 6 -69t18.5 -38t34 -15t52.5 -3 q8 -33 9 -49.5t1 -30.5q0 -20 -1 -36.5t-5 -39.5q-33 0 -54.5 -2t-35 -14.5t-19.5 -37t-6 -67.5v-278q0 -23 -3 -48.5t-14 -49t-36 -39t-68 -15.5h-192q-4 35 -6 47.5t-2 26.5z" />
<glyph unicode="~" horiz-adv-x="997" d="M113 522q96 84 213 84q47 0 90 -15.5t85 -32.5t84 -32.5t89 -15.5q33 0 56.5 14.5t62.5 42.5q14 -10 28.5 -21t28.5 -28q18 -25 24.5 -42t10.5 -40q-53 -47 -102.5 -64.5t-108.5 -17.5q-47 0 -89 15.5t-84 33t-84 33t-91 15.5q-31 0 -60.5 -12.5t-66.5 -41.5 q-29 27 -37.5 35.5t-18.5 20.5q-25 31 -30 69z" />
<glyph unicode="&#xad;" horiz-adv-x="800" d="M113 406q0 16 1 31.5t9 49.5h555q8 -35 9 -50t1 -31q0 -14 -1 -36t-5 -38h-563q-4 16 -5 37.5t-1 36.5z" />
<glyph unicode="&#xbc;" horiz-adv-x="1337" d="M96 883l205 131l12 6q12 2 25.5 3t21.5 1t31 -1t45 -7v-631q-23 -4 -45 -5t-29 -1q-8 0 -30.5 1t-44.5 5v442l-113 -69q-18 10 -31.5 21.5t-23.5 21.5t-16.5 34.5t-6.5 47.5zM371 12l460 1006q27 4 44.5 5t33.5 1q23 0 36 -2t36 -14l-457 -996q-16 -10 -39.5 -11 t-46.5 -1q-18 0 -34.5 2t-32.5 10zM741 246v19.5t4 31.5l263 342q16 4 45 5t41 1q16 0 30.5 -2t44.5 -12v-334h64q6 -23 7 -33t1 -16v-25q0 -10 -2 -22.5t-4 -22.5h-66v-172q-35 -4 -53 -5t-22 -1q-10 0 -26.5 1t-47.5 7v170h-275q-2 10 -3 34t-1 34zM893 297h127v164z" />
<glyph unicode="&#xbd;" horiz-adv-x="1398" d="M96 883l205 131l12 6q12 2 25.5 3t21.5 1t31 -1t45 -7v-631q-23 -4 -45 -5t-29 -1q-8 0 -30.5 1t-44.5 5v442l-113 -69q-18 10 -31.5 21.5t-23.5 21.5t-16.5 34.5t-6.5 47.5zM371 12l460 1006q27 4 44.5 5t33.5 1q23 0 36 -2t36 -14l-457 -996q-16 -10 -39.5 -11 t-46.5 -1q-18 0 -34.5 2t-32.5 10zM842 428q0 37 6 75t29.5 69.5t69.5 52t126 20.5q78 0 124 -18.5t69.5 -46t30 -62.5t6.5 -65q0 -51 -28 -97.5t-68 -86.5t-85 -74.5t-82 -65.5h256q4 -23 4 -41v-25q0 -10 -1 -28.5t-5 -34.5h-442q0 16 -1 33.5t-1 27.5v22.5t4 22.5 q10 37 58.5 80t101.5 88t96 90.5t43 86.5q0 29 -10 47t-70 18q-61 0 -71.5 -26.5t-10.5 -65.5q-23 -4 -46 -5t-27 -1q-10 0 -31 2t-45 8z" />
<glyph unicode="&#xbe;" horiz-adv-x="1388" d="M96 815q0 37 6.5 75t29 70.5t67.5 53t125 20.5t127 -18.5t69.5 -47t28.5 -63.5t6 -65q0 -33 -12.5 -69t-50.5 -64q39 -29 52 -64t13 -68t-6 -67.5t-29.5 -63t-69.5 -47t-126 -18.5t-125 20.5t-67.5 52t-29 70.5t-6.5 76q23 6 43.5 9t30.5 3q4 0 25.5 -2t48.5 -6 q0 -41 10 -61.5t70 -20.5q61 0 71.5 13.5t10.5 41.5q0 14 -2.5 26.5t-14.5 21t-37.5 13.5t-74.5 5q-4 23 -5.5 37t-1.5 31v30.5t4 32.5q49 0 76 5t39 13.5t14.5 20.5t2.5 27q0 29 -10.5 42t-71.5 13t-71.5 -20.5t-10.5 -61.5q-23 -4 -45.5 -6t-28.5 -2q-10 0 -30.5 3 t-43.5 9zM422 12l461 1006q27 4 44 5t34 1q23 0 36 -2t35 -14l-457 -996q-16 -10 -39.5 -11t-46.5 -1q-18 0 -34.5 2t-32.5 10zM793 246v19.5t4 31.5l262 342q16 4 45 5t41 1q16 0 30.5 -2t45.5 -12v-334h63q6 -23 7 -33t1 -16v-25q0 -10 -2 -22.5t-4 -22.5h-65v-172 q-35 -4 -53.5 -5t-22.5 -1q-10 0 -26.5 1t-47.5 7v170h-274q-2 10 -3 34t-1 34zM944 297h127v164z" />
<glyph unicode="&#xbf;" horiz-adv-x="788" d="M111 39q0 -70 20.5 -116t59 -74.5t96 -41t133.5 -12.5q59 0 127.5 13.5t128.5 46.5q-4 47 -19.5 84.5t-44.5 78.5q-76 -51 -188 -51q-41 0 -66.5 4t-40 13.5t-18.5 22.5t-4 32q0 39 18.5 63.5t46 45t59.5 39t59.5 46t46 66.5t18.5 100v133q-35 4 -58.5 5.5t-35.5 1.5 t-35 -1t-56 -6v-133q0 -41 -38.5 -72.5t-85 -69.5t-85 -88t-38.5 -130zM356 616v205q35 6 57.5 7t35.5 1q12 0 35.5 -1t56.5 -7v-205q-33 -6 -56.5 -7t-35.5 -1t-35 1t-58 7z" />
<glyph unicode="&#xff;" horiz-adv-x="1941" />
<glyph unicode="&#xe01;" horiz-adv-x="868" d="M96 657v123q72 20 144.5 34.5t154.5 14.5q188 0 282.5 -92t94.5 -284v-445q-35 -6 -57.5 -7t-34.5 -1t-35.5 1t-56.5 7v438q0 86 -44 148.5t-147 62.5h-45q-20 -33 -31.5 -62.5t-17.5 -53t-8 -39t-2 -17.5v-477q-33 -6 -56.5 -7t-37.5 -1q-10 0 -33 1t-57 7v459 q0 66 15 106.5t34 63.5v20h-62z" />
<glyph unicode="&#xe02;" horiz-adv-x="765" d="M72 741q0 4 2 27t14 51h250v-172q-4 -6 -12.5 -19.5t-18.5 -38t-17 -64.5t-7 -97v-213q0 -10 4 -22.5t15 -22.5t30.5 -17.5t52.5 -7.5q63 0 81.5 25t18.5 43v596q35 8 57.5 9t35.5 1q12 0 35.5 -1t56.5 -9v-592q0 -23 -5.5 -60.5t-31 -74.5t-80.5 -64.5t-154 -27.5h-26 q-100 0 -155.5 27.5t-82 64.5t-32 75t-5.5 60v189q0 70 11.5 114.5t24.5 70t27.5 35t20.5 11.5v20h-100q-8 33 -9 47.5t-1 36.5z" />
<glyph unicode="&#xe03;" horiz-adv-x="768" d="M51 707.5v29.5q0 14 2 34t13 48h84q10 0 16 -12t14 -27h31q6 14 12 26.5t23 12.5h92v-184q-16 -20 -27 -51q-10 -27 -18 -68t-8 -100v-201q0 -10 4 -22.5t15 -22.5t30.5 -17.5t52.5 -7.5q63 0 81.5 25t18.5 43v596q35 8 57.5 9t35.5 1q12 0 35.5 -1t56.5 -9v-592 q0 -23 -5 -60.5t-31 -74.5t-81 -64.5t-154 -27.5h-26q-100 0 -155.5 27.5t-82 64.5t-32 75t-5.5 60v199q0 72 10.5 114.5t25 66.5t26.5 32t18 8v20h-125q-4 33 -4 50.5z" />
<glyph unicode="&#xe04;" horiz-adv-x="835" d="M72 10v449q0 70 6 136.5t37.5 118.5t99.5 83.5t191 31.5t190.5 -31.5t99 -83.5t37.5 -119t6 -136v-451q-33 -6 -56.5 -7t-37.5 -1q-10 0 -32.5 1t-57.5 9v477q0 27 -3 57.5t-16.5 55.5t-44 41t-85.5 16t-85 -16t-44.5 -41t-17.5 -55.5t-3 -57.5v-47h20q23 10 40.5 13.5 t48.5 3.5h116q8 -23 9.5 -39.5t1.5 -44.5q0 -16 -2.5 -33.5t-14.5 -44.5h-88h-33.5t-42 -1t-37 -3t-18.5 -6v-277q-33 -6 -56.5 -7t-37.5 -1q-10 0 -33 1t-57 9z" />
<glyph unicode="&#xe05;" horiz-adv-x="841" d="M72 8v449q0 63 8 128.5t34.5 119t74 88t124.5 36.5l88 -45h17l86 45q78 -2 125 -36.5t73.5 -88t34.5 -119t8 -128.5v-449q-33 -6 -55 -7t-37 -1q-10 0 -33.5 1t-58.5 7v463q0 53 -7 106.5t-46 79.5l-90 -28h-17l-92 28q-39 -27 -46 -80t-7 -106v-31h20q23 10 40.5 13.5 t48.5 3.5h100q8 -23 9 -39.5t1 -44.5q0 -16 -2 -33.5t-14 -44.5h-72h-33.5t-42 -1t-37 -3t-18.5 -6v-277q-33 -6 -55.5 -7t-36.5 -1q-10 0 -34 1t-58 7z" />
<glyph unicode="&#xe06;" horiz-adv-x="854" d="M45 707.5v29.5q0 14 2 34t12 48h84q10 0 16.5 -12t14.5 -27h31q6 14 12 26.5t23 12.5h92v-184q-16 -20 -27 -51q-10 -27 -18 -67t-8 -95v-96q0 -72 48 -126.5t142 -54.5q33 0 53.5 16.5t31.5 42t15 57.5t4 65v485q33 6 56.5 7t36.5 1q12 0 34.5 -1t57.5 -7v-502 q0 -68 -15.5 -126t-50.5 -101t-89 -67.5t-134 -24.5q-10 0 -34.5 1t-51.5 9t-51.5 22.5t-36.5 43.5v8h-21l-8 -64q-35 -8 -54 -9t-30 -1q-14 0 -33.5 1t-54.5 9v412q0 70 10.5 111.5t24.5 64.5t26.5 31t18.5 8v20h-125q-4 33 -4 50.5z" />
<glyph unicode="&#xe07;" horiz-adv-x="698" d="M41 354q45 25 82 36t88 20l86 -265v-8h20q66 37 95.5 101.5t29.5 175.5q0 49 -2 91t-15 73.5t-41 50t-77 18.5h-69q-6 35 -7.5 54.5t-1.5 33.5q0 10 1 28.5t8 55.5h69q100 0 162.5 -32.5t97.5 -88t47.5 -129t12.5 -155.5q0 -78 -16.5 -154t-55.5 -135t-104.5 -97 t-163.5 -38q-25 0 -64 2t-67 16z" />
<glyph unicode="&#xe08;" horiz-adv-x="759" d="M41 782q29 8 65.5 17.5t74.5 15.5t73 10t63 4q80 0 145.5 -15t113 -52t73 -97.5t25.5 -148.5v-115q0 -78 -12.5 -151.5t-46 -132t-94 -93t-159.5 -34.5q-12 0 -34.5 1t-47 4t-48 11t-37.5 25l-17 252h-76q-6 35 -8 54t-2 34q0 20 1 35.5t5 37.5h256l21 -299h20 q61 10 76.5 78t17.5 178v125q0 74 -48 102.5t-122 28.5q-47 0 -115.5 -10t-119.5 -26q-23 37 -33 73.5t-10 87.5z" />
<glyph unicode="&#xe09;" horiz-adv-x="831" d="M72 309v172q35 6 57.5 7t34.5 1t35.5 -1t56.5 -7v-155q0 -33 4 -65t15.5 -57.5t32 -42t52.5 -16.5q94 0 142.5 54.5t48.5 126.5v200q0 74 -47 102.5t-121 28.5q-47 0 -115.5 -10t-122.5 -29q-23 39 -32 76t-9 88q59 18 139.5 32.5t137.5 14.5q80 0 145.5 -15t111.5 -52 t71.5 -97.5t25.5 -148.5v-506q-35 -8 -54 -9t-34 -1q-10 0 -29.5 1t-54.5 9l-8 64h-20v-8q-12 -29 -37 -43.5t-51.5 -22.5t-51 -9t-35.5 -1q-80 0 -134 24.5t-89 67.5t-50 101.5t-15 125.5z" />
<glyph unicode="&#xe0a;" horiz-adv-x="800" d="M72 741q0 4 2 27t14 51h250v-172q-4 -6 -12.5 -19.5t-18.5 -38t-17 -64.5t-7 -97v-213q0 -20 26.5 -45t91.5 -25q66 0 92.5 25t26.5 43v268q0 37 -5 70t-34 33h-84q-4 35 -5 52t-1 30q0 12 1 27.5t5 51.5h86q14 0 21.5 10.5t10.5 24t4 27.5t1 24v48q27 8 55.5 9t40.5 1 q16 0 35 -2t54 -8v-50q0 -10 -3.5 -30.5t-12.5 -43t-28.5 -45t-52.5 -36.5v-21q47 -23 72 -59.5t25 -108.5v-268q0 -23 -8.5 -60.5t-38 -74.5t-87 -64.5t-155.5 -27.5h-27q-98 0 -155.5 27.5t-87 64.5t-39 75t-9.5 60v189q0 70 11.5 114.5t24.5 70t27.5 35t20.5 11.5v20 h-100q-8 33 -9 47.5t-1 36.5z" />
<glyph unicode="&#xe0b;" horiz-adv-x="802" d="M51 707.5v29.5q0 14 2 34t13 48h84q10 0 16 -12t14 -27h31q6 14 12 26.5t23 12.5h92v-184q-16 -20 -27 -51q-10 -27 -18 -68t-8 -100v-201q0 -20 26.5 -45t91.5 -25q66 0 92.5 25t26.5 43v268q0 37 -5 70t-34 33h-84q-4 35 -5 52t-1 30q0 12 1 27.5t5 51.5h86 q14 0 21.5 10.5t10.5 24t4 27.5t1 24v48q27 8 55.5 9t40.5 1q16 0 35 -2t54 -8v-50q0 -10 -3.5 -30.5t-12.5 -43t-28.5 -45t-52.5 -36.5v-21q47 -23 72 -59.5t25 -108.5v-268q0 -23 -8.5 -60.5t-38 -74.5t-87 -64.5t-155.5 -27.5h-27q-98 0 -155.5 27.5t-87 64.5t-39 75 t-9.5 60v199q0 72 10.5 114.5t25 66.5t26.5 32t18 8v20h-125q-4 33 -4 50.5z" />
<glyph unicode="&#xe0c;" horiz-adv-x="1312" d="M96 657v123q72 20 144.5 34.5t154.5 14.5q188 0 282.5 -92t94.5 -284v-136q0 -72 43 -122t139 -50q29 0 44.5 13.5t23.5 36t9 51t1 61.5v502q35 8 57.5 9t34.5 1t35 -1t58 -9v-496q0 -70 -11.5 -129t-40 -102t-80 -67.5t-131.5 -24.5q-12 0 -36.5 2t-50 13t-47 32.5 t-27.5 62.5v9h-21l-12 -99q-35 -4 -53.5 -7t-28.5 -3q-16 0 -35.5 3t-54.5 7v436q0 86 -44 148.5t-147 62.5h-45q-20 -33 -31.5 -62.5t-17.5 -53t-8 -39t-2 -17.5v-329h92q4 -18 6 -35t2 -41q0 -41 -8 -80h-186q-10 0 -33 3t-57 7v457q0 66 15 106.5t34 63.5v20h-62z" />
<glyph unicode="&#xe0d;" horiz-adv-x="1306" d="M96 657v123q72 20 144.5 34.5t154.5 14.5q188 0 282.5 -92t94.5 -284v-148q0 -33 1 -61.5t8 -50t23.5 -35t45.5 -13.5q94 0 135 49.5t41 120.5v496q35 8 57.5 9t34.5 1t36 -1t56 -9v-760q0 -88 -11 -147.5t-40 -94t-79 -50t-130 -15.5h-241q-10 35 -12.5 48t-2.5 34 q0 12 1 22.5t10 51.5h245q27 0 41.5 4t21.5 23.5t8 58.5t1 110h-18v-8q-4 -37 -25 -56.5t-46.5 -28.5t-49 -11t-33.5 -2q-98 0 -151.5 24.5t-78 67.5t-28.5 101.5t-4 125.5v137q0 86 -44 148.5t-147 62.5h-45q-20 -33 -31.5 -62.5t-17.5 -53t-8 -39t-2 -17.5v-329h92 q4 -18 6 -35t2 -41q0 -41 -8 -80h-186q-10 0 -33 3t-57 7v457q0 66 15 106.5t34 63.5v20h-62z" />
<glyph unicode="&#xe0e;" horiz-adv-x="901" d="M61 80q0 25 2.5 41t6.5 35h71v311q0 66 15.5 106.5t33.5 63.5v20h-61v123q72 20 144.5 34.5t154.5 14.5q188 0 282.5 -92t94.5 -284v-498q0 -80 -4 -145.5t-25.5 -112.5t-71 -72.5t-137.5 -25.5h-422q-10 43 -12 54t-2 28q0 16 2 31.5t17 47.5h417q39 0 46.5 42t7.5 153 v491q0 86 -44.5 148.5t-146.5 62.5h-45q-20 -33 -31.5 -62.5t-17.5 -53t-8 -39t-2 -17.5v-475q-35 -4 -57.5 -7t-32.5 -3h-166q-8 39 -9 80z" />
<glyph unicode="&#xe0f;" horiz-adv-x="901" d="M61 80q0 25 2.5 41t6.5 35h71v311q0 66 15.5 106.5t33.5 63.5v20h-61v123q72 20 144.5 34.5t154.5 14.5q188 0 282.5 -92t94.5 -284v-506q0 -66 -4 -128.5t-26.5 -111.5t-70 -78.5t-135.5 -29.5h-86l-84 63h-18l-84 -63h-156q-10 43 -12 54t-2 28q0 16 2 31.5t16 47.5 h134l102 56h18l103 -56h67q18 0 29.5 8.5t15.5 30t5.5 59.5t1.5 97v491q0 86 -44.5 148.5t-146.5 62.5h-45q-20 -33 -31.5 -62.5t-17.5 -53t-8 -39t-2 -17.5v-475q-35 -4 -57.5 -7t-32.5 -3h-166q-8 39 -9 80z" />
<glyph unicode="&#xe10;" horiz-adv-x="759" d="M41 782q29 8 65.5 17.5t74.5 15.5t73 10t63 4q14 0 28.5 -1t29.5 -1v21q6 14 26.5 27.5t47 23.5t53 17.5t45.5 7.5h121q4 -18 5 -38t1 -30q0 -14 -2 -35.5t-8 -36.5h-76q-2 0 -12.5 1t-16.5 10v-23q53 -35 84 -97.5t31 -158.5v-115q0 -78 -12.5 -151.5t-46 -132t-94 -93 t-159.5 -34.5q-12 0 -34.5 1t-47 4t-48 11t-37.5 25l-17 252h-76q-6 35 -8 54t-2 34q0 20 1 35.5t5 37.5h256l21 -299h20q61 10 76.5 78t17.5 178v125q0 74 -48 102.5t-122 28.5q-47 0 -115.5 -10t-119.5 -26q-23 37 -33 73.5t-10 87.5zM109 -250q0 16 2 29.5t16 48.5h63 l101 43h22l101 -43h22q37 0 45 5t8 38v80q35 8 57.5 9t35.5 1q12 0 35.5 -1t56.5 -9v-68q0 -72 -4 -113.5t-26.5 -65t-71 -31t-136.5 -7.5h-39l-84 45h-22l-84 -45h-80q-14 35 -16 51.5t-2 32.5z" />
<glyph unicode="&#xe11;" horiz-adv-x="860" d="M45 707.5v29.5q0 14 2 34t12 48h84q10 0 16.5 -12t14.5 -27h31q6 14 12 26.5t23 12.5h92v-74h20v9q6 29 27.5 44t48.5 22t51.5 8t34.5 1q57 0 103.5 -24.5t79 -67.5t50 -101t17.5 -126v-502q-35 -6 -57.5 -7t-34.5 -1t-36 1t-56 7v469q0 33 -4.5 64.5t-15.5 57.5 t-31.5 42t-53.5 16q-94 0 -142 -54t-48 -126v-469q-35 -6 -57.5 -7t-34.5 -1t-36 1t-57 7v385q0 80 12.5 128t28 74t27.5 34l12 8v20h-131q-4 33 -4 50.5z" />
<glyph unicode="&#xe12;" horiz-adv-x="1286" d="M72 260v197q0 63 8 128.5t34.5 119t74 88t124.5 36.5l88 -45h17l86 45q78 -2 125 -36.5t73.5 -89t34.5 -120t8 -130.5v-136q0 -72 43 -122t140 -50q29 0 44 13.5t23.5 36t9.5 51t1 61.5v502q35 8 57 9t35 1q12 0 34.5 -1t57.5 -9v-496q0 -70 -11.5 -129t-40 -102 t-79.5 -67.5t-131 -24.5q-12 0 -37 2t-50.5 13t-47 32.5t-27.5 62.5v9h-21l-12 -99q-35 -4 -53 -7t-29 -3q-16 0 -35.5 3t-54.5 7v461q0 53 -7 106.5t-46 79.5l-90 -28h-17l-92 28q-39 -27 -46 -80t-7 -106v-223q0 -49 11.5 -70.5t62.5 -21.5h73q6 -20 7.5 -39t1.5 -35 q0 -10 -1 -36t-8 -46h-71q-74 0 -124 12.5t-80 41t-43 78.5t-13 128z" />
<glyph unicode="&#xe13;" horiz-adv-x="1312" d="M96 657v123q72 20 144.5 34.5t154.5 14.5q188 0 282.5 -92t94.5 -284v-146q0 -33 1 -61.5t9.5 -51t23.5 -36t44 -13.5q96 0 139 50.5t43 121.5v492q35 8 57.5 9t34.5 1t35 -1t58 -9v-799q-35 -4 -54.5 -7t-36.5 -3q-10 0 -28.5 3t-53.5 7l-12 99h-20v-9 q-6 -41 -27.5 -62.5t-47.5 -32.5t-50.5 -13t-36.5 -2q-80 0 -131 24.5t-80 67.5t-40 102.5t-11 128.5v133q0 86 -44 148.5t-147 62.5h-45q-20 -33 -31.5 -62.5t-17.5 -53t-8 -39t-2 -17.5v-329h92q4 -18 6 -35t2 -41q0 -41 -8 -80h-186q-10 0 -33 3t-57 7v457q0 66 15 106.5 t34 63.5v20h-62z" />
<glyph unicode="&#xe14;" horiz-adv-x="839" d="M72 260v199q0 70 7 136.5t41 118.5t100.5 83.5t187.5 31.5q115 0 181 -34.5t101 -88t44 -119t9 -128.5v-449q-33 -8 -55 -9t-37 -1q-10 0 -33.5 1t-58.5 9v467q0 27 -2 58.5t-16.5 58.5t-46 45t-88.5 18q-55 0 -85 -18t-44.5 -46t-17.5 -61.5t-3 -62.5v-221 q0 -49 11.5 -70.5t62.5 -21.5h73q6 -20 7.5 -39t1.5 -35q0 -10 -1 -36t-8 -46h-71q-74 0 -124 12.5t-80 41t-43 78.5t-13 128z" />
<glyph unicode="&#xe15;" horiz-adv-x="841" d="M72 260v197q0 63 8 128.5t34.5 119t74 88t124.5 36.5l88 -45h17l86 45q78 -2 125 -36.5t73.5 -88t34.5 -119t8 -128.5v-449q-33 -6 -55 -7t-37 -1q-10 0 -33.5 1t-58.5 7v463q0 53 -7 106.5t-46 79.5l-90 -28h-17l-92 28q-39 -27 -46 -80t-7 -106v-223q0 -49 11.5 -70.5 t62.5 -21.5h73q6 -20 7.5 -39t1.5 -35q0 -10 -1 -36t-8 -46h-71q-74 0 -124 12.5t-80 41t-43 78.5t-13 128z" />
<glyph unicode="&#xe16;" horiz-adv-x="868" d="M96 657v123q72 20 144.5 34.5t154.5 14.5q188 0 282.5 -92t94.5 -284v-445q-35 -6 -57.5 -7t-34.5 -1t-35.5 1t-56.5 7v438q0 86 -44 148.5t-147 62.5h-45q-20 -33 -31.5 -62.5t-17.5 -53t-8 -39t-2 -17.5v-329h92q4 -18 6 -35t2 -41q0 -41 -8 -80h-186q-10 0 -33 3 t-57 7v457q0 66 15 106.5t34 63.5v20h-62z" />
<glyph unicode="&#xe17;" horiz-adv-x="856" d="M96 8v801q35 8 54.5 9t33.5 1q10 0 29.5 -1t54.5 -9l8 -64h21v9q12 27 36.5 42t51.5 23t51.5 9t34.5 1q80 0 134 -24.5t89 -67.5t50.5 -101t15.5 -126v-502q-35 -6 -57.5 -7t-34.5 -1t-36 1t-57 7v469q0 33 -4 64.5t-15 57.5t-31.5 42t-53.5 16q-94 0 -142 -54t-48 -126 v-469q-35 -6 -57.5 -7t-35.5 -1q-12 0 -35.5 1t-56.5 7z" />
<glyph unicode="&#xe18;" horiz-adv-x="784" d="M76 612q0 68 22.5 110t64.5 66.5t102.5 32.5t133.5 8q29 0 64 -2t71.5 -7t71.5 -13t66 -21q-4 -47 -13.5 -78.5t-31.5 -78.5q-41 16 -103.5 22t-120.5 6q-84 0 -113.5 -8t-29.5 -37q0 -23 33 -35t82 -24t106.5 -25.5t106.5 -34t81.5 -53t32.5 -84.5v-127 q0 -72 -21.5 -117.5t-59 -73.5t-88 -38t-107.5 -10q-31 0 -72 2t-84 8t-86 17.5t-80 29.5v283q35 8 57.5 9t35.5 1q12 0 35.5 -1t56.5 -9v-172q37 -8 77 -10.5t60 -2.5q41 0 66.5 13.5t25.5 54.5v104q0 18 -32.5 29.5t-82 23t-106.5 28t-106.5 43t-82 67.5t-32.5 104z" />
<glyph unicode="&#xe19;" horiz-adv-x="841" d="M82 309v502q35 6 57.5 7t34.5 1t35.5 -1t56.5 -7v-485q0 -33 4 -65t15.5 -57.5t32 -42t53.5 -16.5q94 0 142 54.5t48 126.5v485q35 6 57.5 7t34.5 1t36 -1t56 -7v-801q-35 -8 -54 -9t-34 -1q-10 0 -29.5 1t-54.5 9l-8 64h-20v-8q-12 -29 -37 -43.5t-51.5 -22.5t-51 -9 t-34.5 -1q-80 0 -134.5 24.5t-89 67.5t-50 101.5t-15.5 125.5z" />
<glyph unicode="&#xe1a;" horiz-adv-x="856" d="M90 328v483q35 6 57.5 7t34.5 1t36 -1t56 -7v-498q0 -29 2.5 -58.5t16.5 -54t45 -40t88 -15.5q55 0 86 15.5t45 40t16 54.5t2 58v498q35 6 57.5 7t35.5 1q12 0 35.5 -1t56.5 -7v-483q0 -72 -6 -133.5t-39 -106.5t-99.5 -71.5t-189.5 -26.5t-191.5 26.5t-100.5 71.5 t-38 106.5t-6 133.5z" />
<glyph unicode="&#xe1b;" horiz-adv-x="856" d="M90 328v483q35 6 57.5 7t34.5 1t36 -1t56 -7v-498q0 -29 2.5 -58.5t16.5 -54t45 -40t88 -15.5q55 0 86 15.5t45 40t16 54.5t2 58v764q35 6 57.5 7t35.5 1q12 0 35.5 -1t56.5 -7v-749q0 -72 -6 -133.5t-39 -106.5t-99.5 -71.5t-189.5 -26.5t-191.5 26.5t-100.5 71.5 t-38 106.5t-6 133.5z" />
<glyph unicode="&#xe1c;" horiz-adv-x="999" d="M72 807q18 6 39.5 9t52.5 3h192q12 -29 14.5 -45t2.5 -33q0 -14 -2 -32.5t-6 -51.5h-111l22 -512h21v21l63 383q12 6 33 8t42.5 4t39 2h25.5h25.5t39 -2t42 -4t32.5 -8l63 -383v-21h21v21l29 643q25 8 44 9t38 1q16 0 38.5 -1t55.5 -11l-51 -782q-51 -18 -87 -21.5 t-67 -3.5q-35 0 -81 3t-85 20l-47 366v21h-21v-21l-47 -366q-39 -16 -85 -19.5t-81 -3.5q-31 0 -66.5 3t-86.5 22z" />
<glyph unicode="&#xe1d;" horiz-adv-x="997" d="M72 807q18 6 39.5 9t52.5 3h192q12 -29 14.5 -45t2.5 -33q0 -14 -2 -32.5t-6 -51.5h-111l22 -512h21v21l63 383q12 6 33 8t42.5 4t39 2h25.5h25.5t39 -2t42 -4t32.5 -8l63 -383v-21h21v21l43 909q25 8 44 9t38 1q16 0 38.5 -1t55.5 -11l-65 -1048q-51 -18 -87 -21.5 t-67 -3.5q-35 0 -81 3t-85 20l-47 366v21h-21v-21l-47 -366q-39 -16 -85 -19.5t-81 -3.5q-31 0 -66.5 3t-86.5 22z" />
<glyph unicode="&#xe1e;" horiz-adv-x="999" d="M72 807q33 10 55.5 11t38.5 1q18 0 37.5 -1t44.5 -9l28 -664h21v21l65 446q12 6 33 8.5t41.5 4.5t38 2h25.5h25.5t38 -2t41 -4.5t32.5 -8.5l65 -446v-21h21v21l29 643q25 8 44 9t38 1q16 0 38.5 -1t55.5 -11l-51 -782q-51 -18 -87 -21.5t-67 -3.5q-35 0 -81 3t-85 20 l-47 430v20h-21v-20l-47 -430q-39 -16 -85 -19.5t-81 -3.5q-31 0 -66.5 3t-86.5 22z" />
<glyph unicode="&#xe1f;" horiz-adv-x="1001" d="M72 807q33 10 55.5 11t38.5 1q18 0 37.5 -1t44.5 -9l28 -664h21v21l65 446q12 6 33 8.5t41.5 4.5t38 2h25.5h25.5t38 -2t41 -4.5t32.5 -8.5l65 -446v-21h21v21l45 909q25 8 44 9t38 1q16 0 38.5 -1t55.5 -11l-67 -1048q-51 -18 -87 -21.5t-67 -3.5q-35 0 -81 3t-85 20 l-47 430v20h-21v-20l-47 -430q-39 -16 -85 -19.5t-81 -3.5q-31 0 -66.5 3t-86.5 22z" />
<glyph unicode="&#xe20;" horiz-adv-x="901" d="M61 80q0 25 2.5 41t6.5 35h71v311q0 66 15.5 106.5t33.5 63.5v20h-61v123q72 20 144.5 34.5t154.5 14.5q188 0 282.5 -92t94.5 -284v-445q-35 -6 -57.5 -7t-34.5 -1t-36 1t-56 7v438q0 86 -44.5 148.5t-146.5 62.5h-45q-20 -33 -31.5 -62.5t-17.5 -53t-8 -39t-2 -17.5 v-475q-35 -4 -57.5 -7t-32.5 -3h-166q-8 39 -9 80z" />
<glyph unicode="&#xe21;" horiz-adv-x="856" d="M96 10v801q33 6 56.5 7t35.5 1t35 -1t58 -7v-485q0 -72 48 -126.5t142 -54.5q33 0 53.5 16.5t31.5 42t15 57.5t4 65v485q33 6 56.5 7t36.5 1q12 0 34.5 -1t57.5 -7v-502q0 -68 -15.5 -126t-50.5 -101t-89 -67.5t-134 -24.5q-10 0 -34.5 1t-51.5 9t-51.5 22.5t-36.5 43.5 v8h-21l-8 -64q-35 -8 -54 -9t-30 -1q-14 0 -33.5 1t-54.5 9z" />
<glyph unicode="&#xe22;" horiz-adv-x="864" d="M72 266q0 61 20.5 98t61.5 60q-31 18 -47.5 45t-24.5 53.5t-9 48t-1 29.5q0 82 24.5 127t66.5 65.5t95 23.5t111 3h80q8 -31 9 -48t1 -30q0 -14 -1 -32.5t-9 -51.5h-52q-16 0 -39.5 -1t-46 -8t-39 -22.5t-16.5 -43.5q0 -10 2 -24.5t15.5 -27t41 -21.5t78.5 -9h72 q6 -37 7 -51.5t1 -26.5t-1 -27.5t-7 -50.5h-70q-45 0 -72.5 -6t-42 -16.5t-19.5 -24.5t-5 -31q0 -53 10 -87t72 -34h190q41 0 48.5 27t7.5 78v559q33 8 56.5 9t37.5 1q10 0 32.5 -1t57.5 -9v-545q0 -72 -4 -124t-26.5 -86t-71 -49t-138.5 -15h-190q-100 0 -154.5 24.5 t-79 64.5t-28.5 89t-4 98z" />
<glyph unicode="&#xe23;" horiz-adv-x="743" d="M51 590q0 135 87 187t235 52q29 0 64.5 -2t74.5 -7t76 -13t67 -21q-4 -47 -14 -80.5t-33 -80.5q-41 16 -107.5 24t-123.5 8q-84 0 -112.5 -16t-28.5 -51q0 -29 32.5 -46.5t82.5 -32.5t107.5 -32.5t107.5 -46.5t83 -73t33 -111q0 -72 -27.5 -121t-71.5 -80t-100.5 -44 t-111.5 -13q-68 0 -136.5 14t-128.5 37q0 41 6 79t31 75q20 -8 49 -16.5t59 -14.5t57.5 -10t49.5 -4q20 0 45 2t46.5 11t35 29.5t13.5 55.5q0 29 -33 47t-83 33.5t-107.5 33t-107.5 46t-83 71.5t-33 111z" />
<glyph unicode="&#xe24;" horiz-adv-x="868" d="M96 657v123q72 20 144.5 34.5t154.5 14.5q188 0 282.5 -92t94.5 -284v-846q-35 -6 -57.5 -7t-34.5 -1t-35.5 1t-56.5 7v839q0 86 -44 148.5t-147 62.5h-45q-20 -33 -31.5 -62.5t-17.5 -53t-8 -39t-2 -17.5v-329h92q4 -18 6 -35t2 -41q0 -41 -8 -80h-186q-10 0 -33 3 t-57 7v457q0 66 15 106.5t34 63.5v20h-62z" />
<glyph unicode="&#xe25;" horiz-adv-x="813" d="M53 262q0 74 28 120t71 72.5t92 36t92 9.5q59 0 96 -5.5t86 -25.5h19v53q0 76 -55.5 105.5t-129.5 29.5q-47 0 -94 -9t-100 -25q-23 39 -33 75.5t-10 87.5q59 20 127.5 31.5t126.5 11.5q80 0 144.5 -15t110.5 -50t71.5 -95.5t25.5 -148.5v-510q-35 -8 -57.5 -9t-34.5 -1 t-36 1t-56 9v324h-82q-43 0 -82 -1t-70 -9.5t-48 -26.5t-17 -51q0 -35 6 -52.5t19 -26.5t34.5 -10t50.5 -1h64q8 -31 9 -44.5t1 -29.5q0 -10 -1 -31.5t-9 -50.5h-62q-78 0 -134 12.5t-92 43t-53.5 80.5t-17.5 126z" />
<glyph unicode="&#xe26;" horiz-adv-x="890" d="M51 80q0 25 2 41t6 35h72v311q0 66 15.5 106.5t33.5 63.5v20h-61v123q72 20 144.5 34.5t154.5 14.5q188 0 282.5 -92t94.5 -284v-846q-35 -6 -57.5 -7t-35.5 -1q-12 0 -35.5 1t-56.5 7v839q0 86 -44 148.5t-146 62.5h-45q-20 -33 -31.5 -62.5t-18 -53t-8.5 -39t-2 -17.5 v-475q-35 -4 -57 -7t-33 -3h-166q-8 39 -8 80z" />
<glyph unicode="&#xe27;" horiz-adv-x="702" d="M27 786q59 20 129 31.5t125 11.5q80 0 143 -15t107 -50t67 -95.5t23 -148.5v-233q0 -88 -25 -145.5t-67 -91.5t-97 -47t-117 -13q-57 0 -103 4t-114 26q0 51 10.5 83t34.5 65q27 -8 46.5 -12t36 -6.5t32.5 -3.5t41 -1q59 0 98 26t39 99v252q0 74 -48 104.5t-124 30.5 q-84 0 -194 -34q-23 39 -33 75.5t-10 87.5z" />
<glyph unicode="&#xe28;" horiz-adv-x="835" d="M72 10v449q0 70 6 136.5t37.5 118.5t99.5 83.5t191 31.5h34v27q6 14 26.5 27.5t47.5 24t53.5 17.5t44.5 7h121q4 -18 5 -38t1 -30q0 -14 -2 -35.5t-8 -35.5h-76q-2 0 -12 1t-16 9v-21q43 -25 65.5 -60.5t33.5 -77.5t13 -89t2 -96v-451q-33 -6 -56.5 -7t-37.5 -1 q-10 0 -32.5 1t-57.5 9v477q0 27 -3 57.5t-16.5 55.5t-44 41t-85.5 16t-85 -16t-44.5 -41t-17.5 -55.5t-3 -57.5v-47h20q23 10 40.5 13.5t48.5 3.5h116q8 -23 9.5 -39.5t1.5 -44.5q0 -16 -2.5 -33.5t-14.5 -44.5h-88h-33.5t-42 -1t-37 -3t-18.5 -6v-277q-33 -6 -56.5 -7 t-37.5 -1q-10 0 -33 1t-57 9z" />
<glyph unicode="&#xe29;" horiz-adv-x="876" d="M90 328v483q35 6 57.5 7t34.5 1t36 -1t56 -7v-498q0 -29 2.5 -58.5t16.5 -54t45 -40t88 -15.5q55 0 86 15.5t45 40t16 54.5t2 58v60h-219q-14 53 -19 106t-7 113q29 12 44 16t38 4q29 0 47 -3t43 -9v-80q23 8 36 14.5t37 10.5v266q35 6 57.5 7t35.5 1q12 0 35.5 -1 t56.5 -7v-266h65q8 -29 9.5 -51.5t1.5 -34.5q0 -16 -2.5 -42t-18.5 -44h-55v-45q0 -72 -6 -133.5t-39 -106.5t-99.5 -71.5t-189.5 -26.5t-191.5 26.5t-100.5 71.5t-38 106.5t-6 133.5z" />
<glyph unicode="&#xe2a;" horiz-adv-x="813" d="M53 262q0 74 28 120t71 72.5t92 36t92 9.5q59 0 96 -5.5t86 -25.5h19v53q0 76 -55.5 105.5t-129.5 29.5q-47 0 -94 -9t-100 -25q-23 39 -33 75.5t-10 87.5q59 20 127.5 31.5t126.5 11.5h26.5t26.5 -2v21q6 14 26.5 27.5t47 23.5t53 17.5t45.5 7.5h121q4 -18 5 -38t1 -30 q0 -14 -2 -35.5t-8 -36.5h-76q-2 0 -12.5 1t-16.5 10v-19q53 -35 84 -96.5t31 -159.5v-510q-35 -8 -57.5 -9t-34.5 -1t-36 1t-56 9v324h-82q-43 0 -82 -1t-70 -9.5t-48 -26.5t-17 -51q0 -35 6 -52.5t19 -26.5t34.5 -10t50.5 -1h64q8 -31 9 -44.5t1 -29.5q0 -10 -1 -31.5 t-9 -50.5h-62q-78 0 -134 12.5t-92 43t-53.5 80.5t-17.5 126z" />
<glyph unicode="&#xe2b;" horiz-adv-x="843" d="M96 8v801q35 8 53.5 9t34.5 1q10 0 29.5 -1t54.5 -9l13 -143v-84h127q59 0 103 32.5t44 100.5v94q31 8 55.5 9t38.5 1q10 0 34 -1t56 -9v-96q0 -59 -15 -103.5t-38 -79.5q29 -45 47.5 -98t26.5 -113v-311q-33 -6 -56.5 -7t-37.5 -1q-10 0 -33 1t-58 7v307q0 63 -32 123 l-8 13h-21q-6 -16 -30.5 -24.5t-55.5 -11.5t-60.5 -4t-48.5 -1h-38v-402q-33 -6 -56.5 -7t-38.5 -1q-10 0 -32.5 1t-57.5 7z" />
<glyph unicode="&#xe2c;" horiz-adv-x="974" d="M72 807q33 10 55.5 11t38.5 1q18 0 37.5 -1t44.5 -9l28 -664h21v21l65 446q12 6 33 8.5t41.5 4.5t38 2h25.5h25.5t38 -2t41 -4.5t32.5 -8.5l65 -446v-21h21v21l25 512q0 47 -7.5 74.5t-31.5 27.5h-97q-4 35 -5 52.5t-1 29.5t1 27.5t5 52.5h86q14 0 21.5 10.5t10.5 23.5 t4 27.5t1 24.5v47q27 8 55.5 9t40.5 1q16 0 35 -2t54 -8v-49q0 -10 -3.5 -30.5t-12.5 -43t-28.5 -45t-52.5 -37.5v-20q47 -23 72 -59.5t25 -108.5l-43 -657q-51 -18 -87 -21.5t-67 -3.5q-35 0 -81 3t-85 20l-47 430v20h-21v-20l-47 -430q-39 -16 -85 -19.5t-81 -3.5 q-31 0 -66.5 3t-86.5 22z" />
<glyph unicode="&#xe2d;" horiz-adv-x="815" d="M76 322v161h280q6 -31 7.5 -48t1.5 -34q0 -12 -1.5 -27.5t-5.5 -51.5h-98v-54q0 -29 4 -51t17.5 -38.5t41 -25t76.5 -8.5q39 0 68 5.5t47 28t26.5 68.5t8.5 130v149q0 74 -48 102.5t-122 28.5q-23 0 -53.5 -2t-63.5 -5t-65.5 -9t-59.5 -14q-23 39 -34 75.5t-11 88.5 q31 10 69 17t76.5 12t74.5 7t65 2q80 0 145.5 -15t112.5 -52t72.5 -97.5t25.5 -148.5v-158q0 -100 -13 -169.5t-49 -113.5t-101.5 -64.5t-170.5 -20.5q-109 0 -173 20.5t-98 62.5t-43 103.5t-9 145.5z" />
<glyph unicode="&#xe2e;" horiz-adv-x="815" d="M76 322v161h280q6 -31 7.5 -48t1.5 -34q0 -12 -1.5 -27.5t-5.5 -51.5h-98v-54q0 -29 4 -51t17.5 -38.5t41 -25t76.5 -8.5q39 0 68 5.5t47 28t26.5 68.5t8.5 130v149q0 74 -48 102.5t-122 28.5q-23 0 -53.5 -2t-63.5 -5t-65.5 -9t-59.5 -14q-23 39 -34 75.5t-11 88.5 q31 10 69 17t76.5 12t74.5 7t65 2q14 0 28.5 -1t28.5 -1v21q6 14 26.5 27.5t47.5 23.5t53.5 17.5t44.5 7.5h121q4 -18 5 -38t1 -30q0 -14 -2 -35.5t-8 -36.5h-76q-2 0 -12 1t-17 10v-23q53 -35 84 -97.5t31 -158.5v-158q0 -100 -13 -169.5t-49 -113.5t-101.5 -64.5 t-170.5 -20.5q-109 0 -173 20.5t-98 62.5t-43 103.5t-9 145.5z" />
<glyph unicode="&#xe2f;" horiz-adv-x="724" d="M51 684v125q35 8 57.5 9t34.5 1t36 -1t57 -9v-127q0 -18 18 -43t82 -25q66 0 84 26t18 44v125q35 8 57.5 9t34.5 1t36 -1t57 -9v-922q-33 -8 -56.5 -9t-36.5 -1q-12 0 -34.5 1t-57.5 9v582q-41 -10 -88 -10h-28q-98 6 -153.5 33.5t-81.5 62.5t-31 71t-5 58z" />
<glyph unicode="&#xe30;" horiz-adv-x="552" d="M59 338q29 12 47.5 16t40.5 4q29 0 50.5 -3t46.5 -7v-98q74 27 151 26h94q2 -18 3.5 -39.5t1.5 -31.5q0 -16 -3.5 -37t-15.5 -47h-389q-20 37 -22.5 95t-4.5 122zM59 705q29 12 47.5 16t40.5 4q29 0 50.5 -3t46.5 -7v-99q74 27 151 27h94q2 -18 3.5 -39.5t1.5 -32.5 q0 -16 -3.5 -36.5t-15.5 -47.5h-389q-20 37 -22.5 95.5t-4.5 122.5z" />
<glyph unicode="&#xe31;" d="M-528 1214q29 12 47 14.5t41 2.5q29 0 47 -1t47 -5v-103h16q39 16 69 21.5t68 5.5h213q4 -29 6.5 -43t2.5 -29q0 -16 -3 -36.5t-16 -47.5h-512q-12 39 -17 65.5t-6 51.5t-1 48.5t-2 55.5z" />
<glyph unicode="&#xe32;" horiz-adv-x="610" d="M-6 784q35 16 72.5 25.5t69.5 13.5t56.5 5t32.5 1q82 0 136.5 -22.5t86 -61t44 -91t12.5 -109.5v-537q-35 -6 -57.5 -7t-34.5 -1t-36 1t-57 7v539q0 16 -3 35.5t-12 36t-27.5 27.5t-51.5 11q-41 0 -87 -4t-101 -22q-23 37 -33 68.5t-10 84.5z" />
<glyph unicode="&#xe33;" horiz-adv-x="610" d="M-414 1112q0 33 13.5 62.5t35 51t50 35t61.5 13.5q68 0 115 -48t47 -114t-47 -113t-115 -47q-33 0 -61.5 12.5t-50 34t-35 51t-13.5 62.5zM-295 1112q0 -18 12.5 -29.5t28.5 -11.5q43 0 43 41q0 43 -43 43q-16 0 -28.5 -11t-12.5 -32zM-6 784q35 16 72.5 25.5t69.5 13.5 t56.5 5t32.5 1q82 0 136.5 -22.5t86 -61t44 -91t12.5 -109.5v-537q-35 -6 -57.5 -7t-34.5 -1t-36 1t-57 7v539q0 16 -3 35.5t-12 36t-27.5 27.5t-51.5 11q-41 0 -87 -4t-101 -22q-23 37 -33 68.5t-10 84.5z" />
<glyph unicode="&#xe34;" d="M-696 1063q0 29 1 43t11 29h49q35 4 58.5 7t41 4t33 2t35.5 1h365q4 -16 5 -35.5t1 -36.5q0 -16 -2 -35.5t-6 -48.5h-580q-10 14 -11 30.5t-1 39.5z" />
<glyph unicode="&#xe35;" d="M-696 1077q0 14 2 28.5l6 43.5h256q39 0 68.5 -5t68.5 -22h16v103q29 4 47.5 5t47.5 1q23 0 41 -2t47 -15q-2 -33 -2 -56t-1 -48t-6.5 -51.5t-17.5 -65.5h-555q-12 27 -15 47.5t-3 36.5z" />
<glyph unicode="&#xe36;" d="M-688 1069q0 12 2 32.5t6 47.5h264q47 0 88 -8q10 41 43 67.5t74 26.5q53 0 88 -35t35 -84q0 -51 -35 -85t-88 -38h-461q-10 23 -13 41.5t-3 34.5z" />
<glyph unicode="&#xe37;" d="M-696 1077q0 14 2 28.5l6 43.5h51q47 0 66.5 -2t54.5 -17h12v95q14 4 29.5 5t42.5 1q18 0 45 -2t43 -10v-89h65v95q29 4 47.5 5t47.5 1q23 0 41 -2t47 -15q-2 -33 -2 -56t-1 -48t-6.5 -51.5t-17.5 -65.5h-555q-12 27 -15 47.5t-3 36.5z" />
<glyph unicode="&#xe38;" d="M-328 -207q0 16 1 41t12 43q70 0 125 -4t94 -31v-268q-29 -10 -46.5 -11t-33.5 -1q-12 0 -29.5 1t-56.5 11v53q0 14 1 26.5t7 37.5v14h-68q-4 29 -5 49.5t-1 38.5z" />
<glyph unicode="&#xe39;" d="M-524 -207q0 23 2 39t14 45q72 0 110 -4t76 -31v-174h70v201q37 6 49.5 7t24.5 1q16 0 31.5 -1t50.5 -11v-277q-20 -14 -47 -21t-53.5 -10t-50 -4.5t-36.5 -1.5q-43 0 -89 6.5t-105 24.5v53q0 29 8 56v20h-49q-2 25 -4 37t-2 45z" />
<glyph unicode="&#xe3a;" d="M-309 -229q0 45 30.5 75.5t75.5 30.5t76 -30.5t31 -75.5t-31 -76t-76 -31t-75.5 31t-30.5 76z" />
<glyph unicode="&#xe3b;" />
<glyph unicode="&#xe3c;" />
<glyph unicode="&#xe3d;" />
<glyph unicode="&#xe3e;" />
<glyph unicode="&#xe3f;" horiz-adv-x="985" d="M113 0v1024h297v117q33 6 56 7t36 1q12 0 34.5 -1t57.5 -7v-117q61 0 116.5 -9t95.5 -40t63.5 -91.5t23.5 -162.5q0 -78 -17.5 -126t-64.5 -83q47 -33 64.5 -83t17.5 -124q0 -102 -23.5 -162.5t-63.5 -91.5t-95.5 -40t-116.5 -11v-117q-35 -6 -57.5 -7t-34.5 -1t-36 1 t-56 7v117h-297zM297 156h113v276h-113v-276zM297 588h113v264h-113v-264zM594 160q45 8 80 35.5t35 97.5q0 66 -35 94.5t-80 38.5v-266zM594 592q45 8 80 35.5t35 93.5q0 68 -35 94.5t-80 32.5v-256z" />
<glyph unicode="&#xe40;" horiz-adv-x="393" d="M106 8v803q35 6 57.5 7t33.5 1q14 0 37.5 -1t56.5 -7v-803q-33 -6 -56.5 -7t-37.5 -1q-10 0 -33 1t-58 7z" />
<glyph unicode="&#xe41;" horiz-adv-x="770" d="M113 8v803q35 6 57.5 7t32.5 1q14 0 37.5 -1t56.5 -7v-803q-33 -6 -56.5 -7t-37.5 -1q-10 0 -33 1t-57 7zM483 8v803q35 6 57.5 7t32.5 1q14 0 38 -1t57 -7v-803q-33 -6 -56.5 -7t-38.5 -1q-10 0 -32.5 1t-57.5 7z" />
<glyph unicode="&#xe42;" horiz-adv-x="387" d="M66 1128q0 25 1 49.5t7 51.5h409q6 -14 8.5 -38t2.5 -38q0 -10 -1 -34.5t-6 -45.5h-260v-18q2 0 14.5 -9.5t27 -34t24.5 -69.5t10 -119v-815q-33 -6 -56.5 -7t-37.5 -1q-10 0 -32.5 1t-57.5 7v823q0 59 -6.5 101.5t-14.5 68.5q-8 31 -18 52q-6 23 -10 41t-4 34z" />
<glyph unicode="&#xe43;" horiz-adv-x="403" d="M-33 1159q33 33 69 50.5t64.5 25.5t49 9t22.5 1q80 0 128 -14t73.5 -43t35 -72t9.5 -102q0 -43 -18.5 -79t-40 -71t-39 -73.5t-17.5 -83.5v-699q-35 -6 -57.5 -7t-32.5 -1q-14 0 -37.5 1t-56.5 7v699q0 61 17.5 103t39 73.5t39.5 61.5t18 67q0 31 -8 54.5t-53 23.5 q-10 0 -42 -6.5t-85 -45.5q-29 18 -53.5 46t-24.5 75z" />
<glyph unicode="&#xe44;" horiz-adv-x="395" d="M-86 1153q0 14 2 37.5t8 38.5h418q6 -27 7 -51.5t1 -49.5q0 -16 -4 -34.5t-10 -40.5q-12 -20 -21 -52q-8 -27 -13 -68.5t-5 -101.5v-823q-35 -6 -57.5 -7t-32.5 -1q-14 0 -38 1t-56 7v815q0 74 10 119t24.5 69.5t25.5 34t15 9.5v18h-268q-4 20 -5 45t-1 35z" />
<glyph unicode="&#xe45;" horiz-adv-x="610" d="M-6 784q35 16 72.5 25.5t69.5 13.5t56.5 5t32.5 1q82 0 136.5 -22.5t86 -61t44 -91t12.5 -109.5v-936q-35 -6 -57.5 -7t-34.5 -1t-36 1t-57 7v938q0 16 -3 35.5t-12 36t-27.5 27.5t-51.5 11q-41 0 -87 -4t-101 -22q-23 37 -33 68.5t-10 84.5z" />
<glyph unicode="&#xe46;" horiz-adv-x="786" d="M61 479v166q0 57 18.5 93t44.5 56.5t52.5 27.5t42.5 7h23q35 0 69.5 -11t50.5 -42h17q16 33 52 43t71 10h24q16 0 43 -7t52.5 -27.5t44 -56.5t18.5 -93v-760q-33 -4 -56.5 -6t-35.5 -2t-36 2t-56 6v764q0 2 -9.5 5t-19.5 3q-2 0 -14.5 -1t-12.5 -7v-90q-33 -8 -46 -9 t-27 -1q-10 0 -23.5 1t-44.5 9v92q0 4 -12 5t-17 1q-10 0 -19 -3t-9 -5v-168q-33 -4 -56.5 -7t-37.5 -3q-10 0 -30 2t-61 6z" />
<glyph unicode="&#xe47;" d="M-649 1128v123q0 96 48 128t130 32h424q4 -20 5 -41.5t1 -32.5q0 -14 -1 -40.5t-9 -41.5h-400q-31 0 -36 -13t-5 -23v-54q0 -12 3.5 -23.5t21.5 -11.5h8q27 0 31 9.5t4 31.5v23q18 4 37.5 5t30.5 1q10 0 29.5 -1t37.5 -5v-23q0 -23 3 -32t26 -9h10q16 0 18.5 11.5 t2.5 23.5v27q39 6 61 6q10 0 30.5 -1t41.5 -5v-55q0 -53 -20.5 -82t-43.5 -43q-27 -16 -61 -19h-17q-47 0 -77.5 16.5t-30.5 43.5h-23q0 -27 -25.5 -43.5t-72.5 -16.5h-35q-8 0 -32.5 2t-50 14.5t-45 40t-19.5 78.5z" />
<glyph unicode="&#xe48;" d="M-270 1348v196q35 10 52 12.5t34 2.5q14 0 31.5 -1.5t56.5 -11.5v-200q-39 -8 -56.5 -9.5t-31.5 -1.5q-16 0 -34 1t-52 12z" />
<glyph unicode="&#xe49;" d="M-530 1507q0 14 1 27.5t9 44.5h143q29 0 48.5 -3t43.5 -9v-103h17q39 16 68.5 21.5t70.5 5.5h84q10 -31 12 -53.5t2 -34.5q0 -16 -2 -30.5t-18 -37.5h-398q-10 31 -11 44.5t-1 23.5v20h-51q-10 27 -14 47.5t-4 36.5z" />
<glyph unicode="&#xe4a;" d="M-674 1343v181q0 47 14.5 78.5t36 50t48 27t51.5 8.5h22q47 0 79 -16.5t32 -43.5h22q0 27 29 43.5t76 16.5h24q25 0 49.5 -8.5t46 -27t35 -50t13.5 -78.5v-58h49q6 -14 8 -31.5t2 -31.5q0 -10 -1 -28.5t-5 -39.5h-145q-25 0 -38.5 2t-29.5 6q2 63 2 100.5v61.5 q0 12 -8 19.5t-17 7.5h-10q-14 0 -17 -6t-5 -29v-22q-18 -4 -40 -5.5t-32 -1.5t-30.5 1t-39.5 6v22q-2 23 -8 29t-20 6h-11q-8 0 -16 -7t-8 -20v-39h37q6 -14 8 -31.5t2 -31.5q0 -10 -1 -28.5t-5 -39.5h-96q-25 0 -55.5 2t-47.5 6z" />
<glyph unicode="&#xe4b;" d="M-344 1501q0 14 1 32.5t9 49.5h64v74q35 10 52 12t34 2q14 0 31.5 -1t56.5 -11v-76h63q8 -31 9 -49.5t1 -32.5q0 -18 -2 -35.5t-14 -44.5h-57v-75q-39 -8 -56.5 -9.5t-31.5 -1.5q-16 0 -34 1t-52 12v73h-58q-12 27 -14 44.5t-2 35.5z" />
<glyph unicode="&#xe4c;" d="M-463 1356q2 66 9.5 108.5t17.5 91.5h356q8 -27 9 -39t1 -28q0 -12 -1 -35.5t-7 -52.5h-55q-39 0 -77 5t-77 21v-79q-25 -6 -45 -9.5t-49 -3.5q-23 0 -38 4t-44 17z" />
<glyph unicode="&#xe4d;" d="M-408 1112q0 33 13.5 62.5t35 51t50 35t61.5 13.5q68 0 115 -48t47 -114t-47 -113t-115 -47q-33 0 -61.5 12.5t-50 34t-35 51t-13.5 62.5zM-289 1112q0 -18 12.5 -29.5t28.5 -11.5q43 0 43 41q0 43 -43 43q-16 0 -28.5 -11t-12.5 -32z" />
<glyph unicode="&#xe4e;" />
<glyph unicode="&#xe4f;" horiz-adv-x="915" d="M113 420q0 74 26.5 137.5t72.5 110.5t108.5 73.5t134.5 26.5q74 0 137 -26.5t110.5 -73.5t74 -110.5t26.5 -137.5q0 -72 -26.5 -134.5t-74 -108.5t-111 -72.5t-136.5 -26.5q-72 0 -134.5 26.5t-108.5 72.5t-72.5 108.5t-26.5 134.5zM160 420q0 -61 22.5 -115.5 t62.5 -94.5t94.5 -62.5t115.5 -22.5q63 0 117.5 22.5t95.5 62.5t64.5 94t23.5 116q0 63 -23.5 117.5t-64.5 95.5t-95.5 64.5t-117.5 23.5q-61 0 -115.5 -23.5t-94.5 -64.5t-62.5 -95.5t-22.5 -117.5zM252 420q0 86 58.5 145.5t144.5 59.5q41 0 77.5 -16.5t64.5 -44t43 -64.5 t15 -80q0 -84 -58 -142.5t-142 -58.5q-86 0 -144.5 58.5t-58.5 142.5z" />
<glyph unicode="&#xe50;" horiz-adv-x="829" d="M82 324q0 70 6 130t39 105t100.5 70.5t188.5 25.5t187.5 -25.5t99 -70.5t39 -106.5t6.5 -130.5q0 -70 -6.5 -130.5t-39 -105.5t-99 -70.5t-187.5 -25.5t-188.5 25.5t-100.5 70.5t-39 106.5t-6 131.5zM266 319q0 -27 2 -57.5t16.5 -56t45 -43t86.5 -17.5q55 0 84.5 17.5 t44 43t16.5 56t2 57.5t-2 55.5t-16.5 53.5t-44 40t-84.5 15t-86 -15t-45.5 -40t-16.5 -53.5t-2 -55.5z" />
<glyph unicode="&#xe51;" horiz-adv-x="821" d="M72 408q0 43 7 87t39 79.5t99.5 58t188.5 22.5t188.5 -25.5t99 -69.5t38.5 -105.5t7 -132.5v-64q0 -86 -25.5 -144.5t-71.5 -95t-110.5 -52t-144.5 -15.5q-29 0 -63.5 4t-71.5 10t-73 14.5t-66 16.5q0 53 8 86t37 63q51 -18 118.5 -28.5t112.5 -10.5q74 0 120 35t46 107 v74q0 27 -2 55.5t-16.5 52t-45 38.5t-85.5 15t-86 -5t-45.5 -15t-16.5 -25.5t-2 -36.5q0 -23 2 -34t12.5 -17t35 -7t67.5 -1q8 -27 9 -48.5t1 -33.5q0 -14 -1 -34.5t-9 -49.5q-111 0 -172.5 16.5t-90 47t-33.5 73.5t-5 95z" />
<glyph unicode="&#xe52;" horiz-adv-x="919" d="M82 254v537q35 8 57.5 9t34.5 1t35.5 -1t56.5 -9v-551q0 -51 11.5 -73t64.5 -22h236q53 0 64 21.5t11 73.5v61q0 25 -1 54.5t-6 57t-17.5 50t-32.5 35.5l-49 -21h-19l-51 23q-10 -6 -31.5 -24.5t-33.5 -35.5q-37 14 -53.5 26.5t-24.5 22.5q-4 4 -15.5 22.5t-15.5 41.5 q47 61 85 81.5t89 33.5l51 -35h19l49 35q78 -2 126 -37t73.5 -89.5t34 -120t8.5 -130.5v-37q0 -78 -12.5 -129t-43 -81t-81 -42t-126.5 -12h-231q-76 0 -126 12t-81 42t-43 81t-12 129z" />
<glyph unicode="&#xe53;" horiz-adv-x="849" d="M82 254v37q0 68 8 126t35 105t75 81t128 52l88 -43h16l86 41q74 -2 123 -34.5t76.5 -85t39 -117t11.5 -125.5v-283q-35 -6 -57.5 -7t-34.5 -1t-36 1t-56 7v291q0 51 -11.5 104.5t-50.5 79.5l-90 -28h-16l-84 28q-23 -12 -35 -33.5t-19.5 -48t-9.5 -55.5t-2 -55v-33 q0 -49 11.5 -81t60.5 -32h72q8 -29 9 -42t1 -29q0 -10 -1 -27.5t-9 -46.5h-70q-72 0 -121 11.5t-79.5 40t-44 77.5t-13.5 125z" />
<glyph unicode="&#xe54;" horiz-adv-x="872" d="M72 326q0 70 10 129t46 104t105.5 70.5t188.5 25.5q47 0 89 1t73.5 7.5t50 19.5t18.5 38v65q35 6 56.5 7.5t33.5 1.5t33 -1t55 -8v-65q0 -88 -33.5 -136t-90 -70.5t-130 -27t-155.5 -4.5q-57 0 -90 -15t-50.5 -38.5t-21.5 -51.5t-4 -54q0 -86 34 -131.5t128 -47.5 q-23 33 -27 72t-4 47v133h240q6 -31 7 -52t1 -34q0 -20 -2 -34.5t-4 -36.5h-62q4 -27 20.5 -61t57.5 -34h152q8 -29 9 -44t1 -27t-1 -34t-9 -50h-375q-119 0 -188.5 25.5t-105.5 71.5t-46 106.5t-10 132.5z" />
<glyph unicode="&#xe55;" horiz-adv-x="872" d="M72 326q0 55 6 104t25.5 90t56.5 71t100 46q-33 43 -33 96q0 63 44 107.5t108 44.5q63 0 107 -44t44 -108q0 -41 -20 -78q63 4 103 16.5t40 49.5v65q35 6 56.5 7.5t33.5 1.5t33 -1t55 -8v-65q0 -88 -33.5 -136t-90 -70.5t-130 -27t-155.5 -4.5q-57 0 -90 -15t-50.5 -38.5 t-21.5 -51.5t-4 -54q0 -86 34 -131.5t128 -47.5q-23 33 -27 72t-4 47v133h240q6 -31 7 -52t1 -34q0 -20 -2 -34.5t-4 -36.5h-62q4 -27 20.5 -61t57.5 -34h152q8 -29 9 -44t1 -27t-1 -34t-9 -50h-375q-119 0 -188.5 25.5t-105.5 71.5t-46 106.5t-10 132.5zM344 733 q0 -14 10.5 -24.5t24.5 -10.5q16 0 26.5 10.5t10.5 24.5q0 16 -10.5 26.5t-26.5 10.5q-14 0 -24.5 -10t-10.5 -27z" />
<glyph unicode="&#xe56;" horiz-adv-x="837" d="M51 784q31 8 55.5 9.5t38.5 1.5q10 0 33 -1t55 -10l35 -166q45 29 83 33t61 4q80 0 144.5 -16t111.5 -53t72.5 -95.5t25.5 -142.5v-22q0 -72 -6 -132.5t-39 -106.5t-99.5 -71.5t-187.5 -25.5t-188.5 22.5t-99 56t-39 71.5t-7.5 71q0 39 4.5 72.5t27 56t69.5 36t133 13.5 q6 -31 7 -49t1 -33q0 -12 -1 -32.5t-7 -51.5q-37 0 -43 -11t-6 -26q0 -23 26.5 -32t122.5 -9q55 0 85 11.5t44.5 34t16.5 56.5t2 79v28q0 72 -46.5 100.5t-117.5 28.5q-33 0 -68 -5t-88 -36q-20 -4 -33.5 -4h-25.5h-30.5t-43.5 4q-10 31 -17.5 58.5t-15.5 63.5t-18 88.5 t-27 131.5z" />
<glyph unicode="&#xe57;" horiz-adv-x="1103" d="M82 254v37q0 68 8 126t35 105t75 81t128 52l88 -43h16l86 41q74 -2 123 -34.5t76.5 -85t39 -117t11.5 -125.5v-146q12 0 24.5 1t22.5 8.5t16.5 24t6.5 44.5v578q35 8 57.5 9t34.5 1t35.5 -1t56.5 -9v-568q0 -76 -22.5 -120.5t-63.5 -69.5t-99.5 -34t-127.5 -9h-35 q-10 0 -30.5 1t-59.5 7v291q0 51 -11.5 104.5t-50.5 79.5l-90 -28h-16l-84 28q-23 -12 -35 -33.5t-19.5 -48t-9.5 -55.5t-2 -55v-33q0 -49 11.5 -81t60.5 -32h72q8 -29 9 -42t1 -29q0 -10 -1 -27.5t-9 -46.5h-70q-72 0 -121 11.5t-79.5 40t-44 77.5t-13.5 125z" />
<glyph unicode="&#xe58;" horiz-adv-x="845" d="M72 324q0 57 9 115.5t43 106.5t102.5 78.5t187.5 30.5q94 0 149 8.5t55 57.5v53q33 6 51.5 7t32.5 1q10 0 29 -1t53 -7v-53q0 -88 -27.5 -136t-76.5 -70.5t-116.5 -27t-149.5 -4.5q-55 0 -87 -15t-47.5 -38.5t-19.5 -51.5t-4 -54q0 -51 9 -100.5t50 -78.5q23 8 49.5 20.5 t47.5 18.5h18l94 -39q29 10 35 26.5t6 43.5v31q0 10 -9 12t-52 2h-60q-4 33 -6 47.5t-2 28.5q0 12 2 32.5t6 49.5h60q74 0 121 -3t74.5 -18.5t39 -50.5t11.5 -98v-21q0 -72 -6.5 -111.5t-29 -62t-69.5 -35t-127 -30.5l-88 53h-18l-93 -51q-76 2 -124 30.5t-75.5 74.5 t-37.5 105.5t-10 123.5z" />
<glyph unicode="&#xe59;" horiz-adv-x="839" d="M82 256v35q0 70 6 135.5t30.5 116.5t72 81.5t126.5 30.5h41q35 0 74 -10t72 -43q27 33 53.5 43t48.5 10q2 0 12.5 1t20.5 5.5t18.5 12.5t8.5 24v88q33 6 50.5 7.5t31.5 1.5q10 0 33.5 -1t58.5 -8v-88q0 -31 -14.5 -68.5t-43 -69.5t-72.5 -54.5t-104 -22.5h-10 q35 -78 54.5 -192.5t19.5 -280.5q-33 -4 -55.5 -7t-36.5 -3q-10 0 -33 3t-56 7q0 129 -12 219t-32.5 146.5t-46 82t-52.5 25.5h-18q-23 0 -35 -19.5t-18.5 -49t-7.5 -63.5t-1 -60v-35q0 -47 11.5 -73.5t60.5 -26.5h74q4 -29 6 -46.5t2 -31.5q0 -10 -2 -28.5t-6 -47.5h-72 q-72 0 -121 11.5t-79.5 40t-44 77.5t-13.5 125z" />
<glyph unicode="&#xe5a;" horiz-adv-x="1034" d="M51 684v125q35 8 57.5 9t34.5 1t36 -1t57 -9v-127q0 -18 18 -43t82 -25q66 0 84 26t18 44v125q35 8 57.5 9t34.5 1t36 -1t57 -9v-922q-33 -8 -56.5 -9t-36.5 -1q-12 0 -34.5 1t-57.5 9v582q-41 -10 -88 -10h-28q-98 6 -153.5 33.5t-81.5 62.5t-31 71t-5 58zM748 -113 q35 -8 57 -9t35 -1q12 0 35.5 1t56.5 9v922q-33 8 -56.5 9t-35.5 1t-35 -1t-57 -9v-922z" />
<glyph unicode="&#xe5b;" />
<glyph unicode="&#x2000;" horiz-adv-x="844" />
<glyph unicode="&#x2001;" horiz-adv-x="1688" />
<glyph unicode="&#x2002;" horiz-adv-x="844" />
<glyph unicode="&#x2003;" horiz-adv-x="1688" />
<glyph unicode="&#x2004;" horiz-adv-x="562" />
<glyph unicode="&#x2005;" horiz-adv-x="422" />
<glyph unicode="&#x2006;" horiz-adv-x="281" />
<glyph unicode="&#x2007;" horiz-adv-x="281" />
<glyph unicode="&#x2008;" horiz-adv-x="211" />
<glyph unicode="&#x2009;" horiz-adv-x="337" />
<glyph unicode="&#x200a;" horiz-adv-x="93" />
<glyph unicode="&#x200b;" />
<glyph unicode="&#x2010;" horiz-adv-x="800" d="M113 406q0 16 1 31.5t9 49.5h555q8 -35 9 -50t1 -31q0 -14 -1 -36t-5 -38h-563q-4 16 -5 37.5t-1 36.5z" />
<glyph unicode="&#x2011;" horiz-adv-x="800" d="M113 406q0 16 1 31.5t9 49.5h555q8 -35 9 -50t1 -31q0 -14 -1 -36t-5 -38h-563q-4 16 -5 37.5t-1 36.5z" />
<glyph unicode="&#x2012;" horiz-adv-x="800" d="M113 406q0 16 1 31.5t9 49.5h555q8 -35 9 -50t1 -31q0 -14 -1 -36t-5 -38h-563q-4 16 -5 37.5t-1 36.5z" />
<glyph unicode="&#x2013;" horiz-adv-x="1056" d="M113 406q0 16 1 31.5t9 49.5h811q8 -35 9 -50t1 -31q0 -14 -1 -36t-5 -38h-819q-4 16 -5 37.5t-1 36.5z" />
<glyph unicode="&#x2014;" horiz-adv-x="1245" d="M113 406q0 16 1 31.5t9 49.5h999q8 -35 9.5 -50t1.5 -31q0 -14 -1.5 -36t-5.5 -38h-1007q-4 16 -5 37.5t-1 36.5z" />
<glyph unicode="&#x2018;" horiz-adv-x="466" d="M113 819l104 271q29 6 42 7t26 1q16 0 25 -1t44 -10l-47 -270q-35 -8 -56.5 -9t-31.5 -1q-14 0 -43 1t-63 11z" />
<glyph unicode="&#x2019;" horiz-adv-x="399" d="M72 817l47 270q35 8 56.5 9.5t31.5 1.5q14 0 43 -1t63 -12l-104 -270q-29 -6 -42 -7t-26 -1q-16 0 -25.5 1t-43.5 9z" />
<glyph unicode="&#x2022;" horiz-adv-x="616" d="M143 416q0 70 48.5 118t115.5 48q35 0 64.5 -14.5t52 -39t36 -56.5t13.5 -64q0 -66 -48 -111t-118 -45q-68 0 -116 48t-48 116z" />
<glyph unicode="&#x2026;" horiz-adv-x="1146" d="M113 8v205q33 6 56.5 7t35.5 1t34.5 -1t57.5 -7v-205q-35 -6 -57.5 -7t-34.5 -1t-36 1t-56 7zM481 8v205q33 6 56.5 7t35.5 1t35 -1t58 -7v-205q-35 -6 -57.5 -7t-35.5 -1q-12 0 -35.5 1t-56.5 7zM850 8v205q33 6 56.5 7t35.5 1t34.5 -1t57.5 -7v-205q-35 -6 -57.5 -7 t-34.5 -1t-35.5 1t-56.5 7z" />
<glyph unicode="&#x202f;" horiz-adv-x="337" />
<glyph unicode="&#x205f;" horiz-adv-x="422" />
<glyph unicode="&#x25cc;" horiz-adv-x="1048" />
<glyph unicode="&#xe000;" horiz-adv-x="819" d="M0 0v819h819v-819h-819z" />
<glyph unicode="&#xf700;" horiz-adv-x="774" d="M55 782q29 8 66 17.5t74.5 15.5t72.5 10t64 4q14 0 28.5 -1t28.5 -1v21q6 14 26.5 27.5t47 23.5t53.5 17.5t45 7.5h121q4 -18 5 -38t1 -30q0 -14 -2 -35.5t-8 -36.5h-76q-2 0 -12 1t-17 10v-23q53 -35 84 -97.5t31 -158.5v-115q0 -78 -12 -151.5t-46 -132t-94.5 -93 t-158.5 -34.5q-12 0 -35 1t-47.5 4t-48 11t-37.5 25l-16 252h-76q-6 35 -8.5 54t-2.5 34q0 20 1.5 35.5t5.5 37.5h256l20 -299h21q61 10 76.5 78t17.5 178v125q0 74 -48 102.5t-122 28.5q-47 0 -115.5 -10t-120.5 -26q-23 37 -33 73.5t-10 87.5z" />
<glyph unicode="&#xf701;" d="M-844 1063q0 29 1 43t12 29h49q35 4 58.5 7t40.5 4t32.5 2t36.5 1h288q4 -16 5.5 -35.5t1.5 -36.5q0 -16 -2.5 -35.5t-6.5 -48.5h-503q-10 14 -11.5 30.5t-1.5 39.5z" />
<glyph unicode="&#xf702;" d="M-844 1077q0 14 2 28.5l6 43.5h181q39 0 68.5 -5t68.5 -22h16v103q29 4 47.5 5t46.5 1q23 0 41.5 -2t47.5 -15q-2 -33 -2.5 -56t-1.5 -48t-6 -51.5t-17 -65.5h-479q-12 27 -15.5 47.5t-3.5 36.5z" />
<glyph unicode="&#xf703;" d="M-844 1069q0 12 2 32.5t6 47.5h205q47 0 88 -8q10 41 43 67.5t74 26.5q53 0 88 -35t35 -84q0 -51 -35 -85t-88 -38h-401q-10 23 -13.5 41.5t-3.5 34.5z" />
<glyph unicode="&#xf704;" d="M-856 1077q0 14 2 28.5l6 43.5h27q20 0 33.5 -2t48.5 -17h12v95q14 4 29.5 5t42.5 1q18 0 44.5 -2t43.5 -10v-89h65v95q29 4 47.5 5t46.5 1q23 0 41.5 -2t47.5 -15q-2 -33 -2.5 -56t-1.5 -48t-6 -51.5t-17 -65.5h-492q-12 27 -15 47.5t-3 36.5z" />
<glyph unicode="&#xf705;" d="M-530 1006v221q35 10 52 12t34 2q14 0 31.5 -1t56.5 -11v-225q-39 -8 -56.5 -9.5t-31.5 -1.5q-16 0 -34 1t-52 12z" />
<glyph unicode="&#xf706;" d="M-840 1165q0 14 1 27.5t10 44.5h143q29 0 48.5 -3t43.5 -9v-103h16q39 16 69 21.5t71 5.5h84q10 -31 12 -53.5t2 -34.5q0 -16 -2 -30.5t-18 -37.5h-398q-10 31 -11 44.5t-1 23.5v20h-51q-10 27 -14.5 47.5t-4.5 36.5z" />
<glyph unicode="&#xf707;" d="M-883 1001v181q0 94 44 129t96 35h22q47 0 71.5 -16.5t24.5 -43.5h23q0 27 21.5 43.5t68.5 16.5h25q25 0 48 -8.5t41.5 -27t31 -50t12.5 -78.5v-58h28q6 -14 8.5 -31.5t2.5 -31.5q0 -10 -1 -28.5t-6 -39.5h-124q-25 0 -37.5 3t-28.5 8v159q0 27 -14 27h-11q-14 0 -17 -6 t-5 -29v-22q-37 -6 -57 -7q-18 0 -56 7v22q-2 23 -8 29t-20 6h-11q-14 0 -14 -27v-39h37q6 -14 8 -31.5t2 -31.5q0 -10 -1 -28.5t-5 -39.5h-96q-25 0 -55.5 2t-47.5 6z" />
<glyph unicode="&#xf708;" d="M-678 1159q0 14 1 32.5t9 49.5h64v74q35 10 52 12t34 2q14 0 31.5 -1t56.5 -11v-76h63q8 -31 9.5 -49.5t1.5 -32.5q0 -18 -2 -35.5t-15 -44.5h-57v-75q-39 -8 -56.5 -9.5t-31.5 -1.5q-16 0 -33.5 1t-52.5 12v73h-58q-12 27 -14 44.5t-2 35.5z" />
<glyph unicode="&#xf709;" d="M-748 1014q2 66 9.5 108.5t17.5 91.5h356q8 -27 9.5 -39t1.5 -28q0 -12 -1 -36t-7 -52h-56q-39 0 -76.5 5t-76.5 21v-79q-25 -6 -45.5 -9.5t-49.5 -3.5q-23 0 -38 4t-44 17z" />
<glyph unicode="&#xf70a;" d="M-270 1006v221q35 10 52 12t34 2q14 0 31.5 -1t56.5 -11v-225q-39 -8 -56.5 -9.5t-31.5 -1.5q-16 0 -34 1t-52 12z" />
<glyph unicode="&#xf70b;" d="M-526 1165q0 14 1 27.5t9 44.5h143q29 0 48.5 -3t43.5 -9v-103h17q39 16 68.5 21.5t70.5 5.5h84q10 -31 12 -53.5t2 -34.5q0 -16 -2 -30.5t-18 -37.5h-397q-10 31 -11.5 44.5t-1.5 23.5v20h-51q-10 27 -14 47.5t-4 36.5z" />
<glyph unicode="&#xf70c;" d="M-674 1001v181q0 47 14.5 78.5t36 50t48 27t51.5 8.5h22q47 0 79 -16.5t32 -43.5h22q0 27 29 43.5t76 16.5h24q25 0 49.5 -8.5t46 -27t35 -50t13.5 -78.5v-58h49q6 -14 8 -31.5t2 -31.5q0 -10 -1 -28.5t-5 -39.5h-145q-25 0 -38.5 2t-29.5 6q2 63 2 100.5v61.5 q0 12 -8 19.5t-17 7.5h-10q-14 0 -17 -6t-5 -29v-22q-18 -4 -40 -5.5t-32 -1.5t-30.5 1t-39.5 6v22q-2 23 -8 29t-20 6h-11q-8 0 -16 -7t-8 -20v-39h37q6 -14 8 -31.5t2 -31.5q0 -10 -1 -28.5t-5 -39.5h-96q-25 0 -55.5 2t-47.5 6z" />
<glyph unicode="&#xf70d;" d="M-344 1159q0 14 1 32.5t9 49.5h64v74q35 10 52 12t34 2q14 0 31.5 -1t56.5 -11v-76h63q8 -31 9 -49.5t1 -32.5q0 -18 -2 -35.5t-14 -44.5h-57v-75q-39 -8 -56.5 -9.5t-31.5 -1.5q-16 0 -34 1t-52 12v73h-58q-12 27 -14 44.5t-2 35.5z" />
<glyph unicode="&#xf70e;" d="M-457 1014q2 66 9.5 108.5t17.5 91.5h356q8 -27 9.5 -39t1.5 -28q0 -12 -1.5 -36t-7.5 -52h-55q-39 0 -77 5t-77 21v-79q-25 -6 -45 -9.5t-49 -3.5q-23 0 -38 4t-44 17z" />
<glyph unicode="&#xf70f;" horiz-adv-x="1302" d="M96 657v123q72 20 144.5 34.5t154.5 14.5q188 0 282.5 -92t94.5 -284v-238q0 -39 29.5 -54.5t95.5 -15.5q70 0 97.5 15.5t27.5 54.5v594q35 8 57.5 9t34.5 1t36 -1t56 -9v-594q0 -39 -9 -79t-40 -72.5t-89 -53t-157 -20.5h-26q-98 0 -156.5 20.5t-90.5 53t-41 72.5t-9 79 v231q0 86 -44 148.5t-147 62.5h-45q-20 -33 -31.5 -62.5t-17.5 -53t-8 -39t-2 -17.5v-329h92q4 -18 6 -35t2 -41q0 -41 -8 -80h-186q-10 0 -33 3t-57 7v457q0 66 15 106.5t34 63.5v20h-62z" />
<glyph unicode="&#xf710;" d="M-801 1214q29 12 47.5 14.5t40.5 2.5q29 0 47.5 -1t47.5 -5v-103h16q39 16 68.5 21.5t68.5 5.5h131q4 -29 6 -43t2 -29q0 -16 -3 -36.5t-15 -47.5h-430q-12 39 -17.5 65.5t-6.5 51.5t-1 48.5t-2 55.5z" />
<glyph unicode="&#xf711;" d="M-664 1112q0 33 13.5 62.5t35 51t50 35t61.5 13.5q68 0 115 -48t47 -114t-47 -113t-115 -47q-33 0 -61.5 12.5t-50 34t-35 51t-13.5 62.5zM-545 1112q0 -18 12.5 -29.5t28.5 -11.5q43 0 43 41q0 43 -43 43q-16 0 -28.5 -11t-12.5 -32z" />
<glyph unicode="&#xf712;" d="M-872 1128v123q0 96 48 128t130 32h424q4 -20 5 -41.5t1 -32.5q0 -14 -1 -40.5t-9 -41.5h-400q-31 0 -36 -13t-5 -23v-54q0 -12 3 -23.5t22 -11.5h8q27 0 31 9.5t4 31.5v23q18 4 37.5 5t29.5 1t30 -1t38 -5v-23q0 -23 3 -32t26 -9h10q16 0 18 11.5t2 23.5v27q39 6 62 6 q10 0 30.5 -1t41.5 -5v-55q0 -53 -20.5 -82t-43.5 -43q-27 -16 -61 -19h-17q-47 0 -77.5 16.5t-30.5 43.5h-23q0 -27 -25.5 -43.5t-72.5 -16.5h-35q-8 0 -32.5 2t-50.5 14.5t-45 40t-19 78.5z" />
<glyph unicode="&#xf713;" d="M-494 1348v221q35 10 52.5 12t33.5 2q14 0 32 -1t57 -11v-225q-39 -8 -56.5 -9.5t-32.5 -1.5q-16 0 -33.5 1t-52.5 12z" />
<glyph unicode="&#xf714;" d="M-748 1507q0 14 1.5 27.5t9.5 44.5h143q29 0 48.5 -3t43.5 -9v-103h17q39 16 68.5 21.5t70.5 5.5h84q10 -31 12 -53.5t2 -34.5q0 -16 -2 -30.5t-18 -37.5h-398q-10 31 -11 44.5t-1 23.5v20h-51q-10 27 -14.5 47.5t-4.5 36.5z" />
<glyph unicode="&#xf715;" d="M-868 1343v164q0 96 42 138.5t93 42.5h22q47 0 79 -16.5t32 -43.5h22q0 27 29 43.5t76 16.5h22q47 0 89.5 -42t42.5 -139v-41h63q6 -14 8 -31.5t2 -31.5q0 -10 -1 -28.5t-5 -39.5h-145q-25 0 -38.5 2t-29.5 6q2 63 2 100.5v61.5q0 12 -8 19.5t-16 7.5h-11q-14 0 -20 -6 t-8 -29v-20q-18 -4 -37 -5.5t-29 -1.5t-27.5 1.5t-35.5 5.5v20q-2 23 -11.5 29t-23.5 6h-10q-8 0 -16.5 -7t-8.5 -20v-39h41q6 -14 8 -31.5t2 -31.5q0 -10 -1 -28.5t-5 -39.5h-100q-25 0 -48.5 2t-39.5 6z" />
<glyph unicode="&#xf716;" d="M-567 1501q0 14 1 32.5t9 49.5h63v74q35 10 52.5 12t33.5 2q14 0 32 -1t57 -11v-76h63q8 -31 9 -49.5t1 -32.5q0 -18 -2 -35.5t-14 -44.5h-57v-75q-39 -8 -56.5 -9.5t-32.5 -1.5q-16 0 -33.5 1t-52.5 12v73h-57q-12 27 -14 44.5t-2 35.5z" />
<glyph unicode="&#xf717;" d="M-674 1356q2 66 9.5 108.5t17.5 91.5h356q8 -27 9 -39t1 -28q0 -12 -1 -35.5t-7 -52.5h-55q-39 0 -77 5t-77 21v-79q-25 -6 -45 -9.5t-49 -3.5q-23 0 -38 4t-44 17z" />
<glyph unicode="&#xf718;" d="M-328 -535q0 16 1 41t12 43q70 0 125 -4t94 -30v-269q-29 -10 -46.5 -11t-33.5 -1q-12 0 -29.5 1t-56.5 11v54q0 14 1 26t7 37v14h-68q-4 29 -5 49.5t-1 38.5z" />
<glyph unicode="&#xf719;" d="M-524 -535q0 23 2 39.5t14 44.5q72 0 110 -4t76 -30v-174h70v200q37 6 49.5 7t24.5 1q16 0 31.5 -1t50.5 -11v-276q-20 -14 -47 -21.5t-53.5 -10.5t-50 -4t-36.5 -1q-43 0 -89 6t-105 25v53q0 29 8 55v21h-49q-2 25 -4 37t-2 44z" />
<glyph unicode="&#xf71a;" d="M-309 -557q0 45 30.5 75.5t75.5 30.5t76 -30.5t31 -75.5t-31 -76t-76 -31t-75.5 31t-30.5 76z" />
<glyph unicode="&#xf71d;" horiz-adv-x="972" d="M72 807q33 10 55.5 11t38.5 1q18 0 37.5 -1t44.5 -9l28 -664h21v21l65 244q12 6 33 8t41.5 4t38 2h25.5h25.5t38 -2l41 -4t32.5 -8l65 -244v-21h21v21l8 246q0 47 -7 74.5t-32 27.5h-96q-4 35 -5 52.5t-1 29.5t1 27.5t5 52.5h86q14 0 21.5 10t10.5 23.5t4 28t1 24.5v47 q27 8 55.5 9t40.5 1q16 0 34.5 -2t53.5 -8v-49q0 -10 -3 -30.5t-12 -43t-28.5 -45.5t-52.5 -37v-20q47 -23 71.5 -60t24.5 -108l-26 -391q-51 -18 -87 -21.5t-67 -3.5q-35 0 -81 3t-85 20l-47 227v20h-21v-20l-47 -227q-39 -16 -85 -19.5t-81 -3.5q-31 0 -66.5 3t-86.5 22z " />
<glyph horiz-adv-x="616" d="M-664 1112q0 33 13.5 62.5t35 51t50 35t61.5 13.5q68 0 115 -48t47 -114t-47 -113t-115 -47q-33 0 -61.5 12.5t-50 34t-35 51t-13.5 62.5zM-545 1112q0 -18 12.5 -29.5t28.5 -11.5q43 0 43 41q0 43 -43 43q-16 0 -28.5 -11t-12.5 -32zM0 784q35 16 73 25.5t69.5 13.5 t56 5t32.5 1q82 0 136.5 -22.5t86 -61t44 -91t12.5 -109.5v-537q-35 -6 -57.5 -7t-34.5 -1t-36 1t-56 7v539q0 16 -3.5 35.5t-12.5 36t-27.5 27.5t-51.5 11q-41 0 -87 -4t-101 -22q-23 37 -33 68.5t-10 84.5z" />
<glyph />
<glyph />
<glyph />
<glyph horiz-adv-x="1255" d="M113 514q0 109 41 203t110.5 164.5t163 111.5t199.5 41q109 0 203 -41t164.5 -111.5t111.5 -164.5t41 -203q0 -106 -41 -199.5t-111.5 -163t-165 -110.5t-202.5 -41q-106 0 -199.5 41t-163 110.5t-110.5 163t-41 199.5zM348 373q0 -86 58.5 -137.5t150.5 -51.5 q23 0 45.5 1t42.5 5v111l-12 8q-14 -6 -24.5 -7t-22.5 -1q-33 0 -62.5 18.5t-29.5 65.5q0 16 7 27.5t31.5 19.5t70.5 16.5t122 20.5v-145q0 -74 20.5 -107t81.5 -33h19q29 0 47 11.5t18 44.5q0 35 -11 48t-38 13v272q0 53 -19.5 88t-45.5 58q10 4 19 4h20h19t19 -4h23v133 q-63 -8 -125.5 -23.5t-109.5 -42.5q-18 4 -35 4.5t-41 0.5q-47 0 -90 -6.5t-90 -22.5v-129h12q39 12 81 22.5t74 10.5q18 0 44 -1t50.5 -9.5t41 -27t16.5 -50.5l-168 -17q-37 -4 -74 -12t-67.5 -28.5t-49 -55.5t-18.5 -92z" />
</font>
</defs>
</svg>
