<?xml version="1.0" standalone="no"?>
<!DOCTYPE svg PUBLIC "-//W3C//DTD SVG 1.1//EN" "http://www.w3.org/Graphics/SVG/1.1/DTD/svg11.dtd" >
<svg xmlns="http://www.w3.org/2000/svg">
<metadata></metadata>
<defs>
<font id="pestolight_italic" horiz-adv-x="0" >
<font-face units-per-em="2048" ascent="1638" descent="-410" />
<missing-glyph horiz-adv-x="378" />
<glyph unicode="&#x3b;&#x3b;For&#x20;Education&#x20;Used&#x20;Only&#x3b;&#x3b;" horiz-adv-x="1269" d="M203 512q18 109 75.5 204t141.5 165.5t186 111.5t211 41t196 -41t145.5 -111.5t83 -165.5t5.5 -204q-18 -109 -76.5 -204t-141.5 -165.5t-185.5 -111.5t-210.5 -41q-109 0 -197 41t-146.5 111.5t-82 165.5t-4.5 204zM276 512q-16 -92 4.5 -174t70.5 -143.5t126 -96.5 t168 -35t180 35t160 96.5t122 143.5t67 174q16 92 -5.5 174t-71.5 143.5t-126 96.5t-168 35t-180 -35t-160 -96.5t-121 -143.5t-66 -174zM429 307q-11 45 1 111l33 180q23 131 105.5 182t205.5 51q20 0 48 -2t56.5 -5t56.5 -8t48 -11q-10 -27 -12 -34t-19 -26 q-18 6 -42.5 9.5t-51.5 5.5t-53.5 3t-44.5 1q-104 0 -154.5 -41t-62.5 -119l-35 -192q-14 -78 21.5 -119t140.5 -41q39 0 99 4t99 14q10 -18 9.5 -25t1.5 -34q-47 -14 -112 -20.5t-108 -6.5q-61 0 -109 11.5t-79 39t-42 72.5z" />
<glyph unicode="&#x3b;&#x3b;Registered&#x3b;&#x3b;" horiz-adv-x="1269" d="M199 512q18 109 75.5 204t141.5 165.5t186 111.5t211 41t196 -41t145 -111.5t83 -165.5t6 -204q-18 -109 -76.5 -204t-141.5 -165.5t-185.5 -111.5t-210.5 -41q-109 0 -197 41t-146.5 111.5t-82 165.5t-4.5 204zM272 512q-16 -92 4.5 -174t70.5 -143.5t126 -96.5t168 -35 t180 35t160 96.5t122 143.5t66 174t-5 174t-71.5 143.5t-126 96.5t-167.5 35t-180.5 -35t-160 -96.5t-120.5 -143.5t-66 -174zM440 219l109 606h268q43 0 80 -8t61.5 -29.5t35 -59.5t-0.5 -99q-16 -86 -55 -135.5t-76 -69.5q6 -51 18.5 -102.5t22.5 -104.5q-4 -2 -18.5 -2 h-20.5h-18t-19 2l-36 197h-238l-35 -195q-10 -4 -17 -4h-18h-18t-25 4zM565 481h160q25 0 53.5 2t56 16.5t49 44t31.5 85.5q8 49 -3 74.5t-33.5 38t-51 14.5t-53.5 2h-160z" />
<glyph unicode="&#x3b;&#x3b;Multiply&#x3b;&#x3b;" horiz-adv-x="823" d="M137 150l293 235l-199 236q4 8 9.5 13t15.5 15q8 6 17.5 11.5t17.5 9.5l196 -236l279 236q8 -4 15 -9.5t12 -11.5q14 -16 16 -28l-281 -236l207 -235l-14 -17.5t-12 -13.5q-12 -10 -41 -23l-199 240l-281 -240q-25 10 -32 23q-10 8 -19 31z" />
<glyph unicode="&#x3b;&#x3b;Divide&#x3b;&#x3b;" horiz-adv-x="958" d="M178 365q0 16 4 32q0 12 6 23h730q0 -6 -1.5 -12.5t-3.5 -14.5q0 -10 -6 -28h-729zM453 63l18 109q14 4 23.5 4h13.5h14t21 -4l-19 -109q-14 -4 -22 -4h-13h-15t-21 4zM551 621l18 108q14 4 23.5 4h13.5h14.5t20.5 -4l-18 -108q-14 -4 -22.5 -4.5t-12.5 -0.5h-15.5 t-21.5 5z" />
<glyph unicode="&#x2018;&#x2018;" horiz-adv-x="464" d="M272 909q8 16 15.5 29.5t17.5 32t26.5 48.5t41.5 77q6 2 18 2t19 -2l-70 -183q-10 -4 -22.5 -5t-18.5 -1h-13t-14 2zM408 909q8 16 15 29.5t17.5 32t26.5 48.5t41 77q6 2 18 2t19 -2l-70 -183q-10 -4 -22.5 -5t-18.5 -1h-13t-13 2z" />
<glyph unicode="&#x2019;&#x2019;" horiz-adv-x="464" d="M272 909l68 183q12 4 24.5 5t18.5 1h13t14 -2q-8 -16 -15.5 -29.5t-18.5 -32t-26.5 -48.5t-40.5 -77q-6 -2 -18 -2t-19 2zM408 909l67 183q12 4 24.5 5t18.5 1h13.5t13.5 -2q-8 -16 -15.5 -29.5t-18.5 -32t-26.5 -48.5t-40.5 -77q-6 -2 -18 -2t-18 2z" />
<glyph unicode="&#x3b;&#x3b;Trademark&#x3b;&#x3b;" horiz-adv-x="1298" d="M286 987q1 6 1 10q4 20 10 27h424q0 -20 -2 -27q-2 -8 -3 -15t-5 -11h-181l-100 -574q-12 -2 -18 -2h-13h-12t-18 2l100 574h-182q-2 10 -1 16zM692 401l109 613q23 8 36 9t35 1q20 0 28.5 -1t27.5 -9l57 -559l252 559q23 8 31 9t28 1q23 0 36.5 -1t31.5 -9l-109 -613 q-8 -6 -28 -6h-16.5t-16.5 4l100 572h-16l-2 -13l-258 -559q-10 -4 -20.5 -4h-22.5h-23.5t-21.5 4l-62 559l2 13h-16l-100 -572q-10 -4 -16.5 -4h-16.5q-20 0 -29 6z" />
<glyph unicode="&#xe24;&#xe32;" horiz-adv-x="1327" d="M109 2l88 504q8 51 29.5 96t45 78t41 52.5t21.5 21.5l2 10h-107l7 35q72 23 138 26.5t142 3.5q186 0 265 -90t44 -280l-151 -858q-8 -2 -18.5 -2h-16.5h-14.5t-22.5 2l150 852q29 154 -28.5 232.5t-215.5 78.5h-88q-49 -55 -79 -103.5t-46 -82.5q-20 -41 -27 -76 l-78 -436h115q0 -12 -1 -19.5t-3 -15.5q0 -4 -2 -13.5t-4 -17.5h-154h-10t-22 2zM903 770.5q0 17.5 2 30.5q33 10 66 16t62.5 9t50 3h28.5q74 0 120 -20.5t68.5 -55t25.5 -82.5t-7 -104l-170 -966q-10 -2 -20.5 -2h-16.5h-16.5t-18.5 2l172 968q4 31 5 65t-12 62.5t-46 48 t-96 19.5q-45 0 -95.5 -5t-97.5 -16q-4 10 -4 27.5z" />
<glyph unicode="&#xe26;&#xe32;" horiz-adv-x="1363" d="M63 0q-2 8 0.5 17.5t2.5 13.5q2 10 8 35h82l77 440q8 51 30 96t45.5 78t41 52.5t21.5 21.5l2 10h-107l6 35q72 23 138.5 26.5t142.5 3.5q186 0 265 -90t44 -280l-151 -858q-8 -2 -18.5 -2h-16.5h-14.5t-22.5 2l149 852q29 154 -28.5 232.5t-214.5 78.5h-88 q-49 -55 -79 -103.5t-46 -82.5q-20 -41 -27 -76l-88 -500q-16 -2 -22.5 -2h-10.5h-121zM940 770.5q0 17.5 2 30.5q33 10 65.5 16t62.5 9t50.5 3h28.5q74 0 120 -20.5t68.5 -55t25.5 -82.5t-7 -104l-170 -966q-10 -2 -20.5 -2h-16.5h-16.5t-18.5 2l172 968q4 31 5 65 t-12 62.5t-46 48t-96 19.5q-45 0 -95.5 -5t-97.5 -16q-4 10 -4 27.5z" />
<glyph unicode="&#xd;" horiz-adv-x="579" />
<glyph unicode=" "  horiz-adv-x="378" />
<glyph unicode="&#x09;" horiz-adv-x="378" />
<glyph unicode="&#xa0;" horiz-adv-x="378" />
<glyph unicode="!" horiz-adv-x="305" d="M117 4q12 -4 21 -4h16h12t22 4l19 109q-12 4 -20.5 4h-14.5h-13t-24 -4zM152 190q6 33 12 72t12 79t13.5 80t13.5 73q25 135 47 267t41 261q14 2 25.5 2h15.5h17t24 -2q-27 -131 -50.5 -261t-50.5 -265q-6 -33 -13 -73t-15 -80t-15.5 -80t-13.5 -73q-11 -2 -31 -2h-16 t-16 2z" />
<glyph unicode="&#x22;" horiz-adv-x="428" d="M279 848q6 66 10 106.5t7 67.5t5 42t4 32q10 2 19.5 2h17.5h14.5t20.5 -2q-16 -61 -26.5 -102.5t-18.5 -69t-12.5 -45t-8.5 -31.5q-4 -2 -8 -2h-8h-8t-8 2zM410 848q6 66 10 106.5t7 67.5t5 42t4 32q10 2 19.5 2h17.5h14.5t20.5 -2q-16 -61 -26.5 -102.5t-18.5 -69 t-12.5 -45t-8.5 -31.5q-4 -2 -8 -2h-8h-8t-8 2z" />
<glyph unicode="#" horiz-adv-x="1220" d="M166 0l145 299h-145q0 10 4 27q0 6 1 11t5 15h164l170 357h-182q-2 10 2 26q2 6 2 11.5t4 15.5h196q29 63 61 129.5t62 130.5q14 2 20.5 2h18.5l23 -2l-125 -260h412l122 260q14 2 20.5 2h18.5l23 -2l-125 -260h174q2 -10 -2 -31q0 -6 -1 -11t-3 -11h-193l-174 -357h211 q2 -10 -2 -30q-2 -6 -2 -11.5t-4 -11.5h-225l-144 -297q-10 -2 -19 -2h-20h-22l143 299h-409l-144 -297q-10 -2 -37 -2h-24zM395 352h414l170 357h-410z" />
<glyph unicode="$" horiz-adv-x="980" d="M119 72q2 16 15 33.5t26 29.5q84 -47 161.5 -62.5t137.5 -19.5l80 447q-59 20 -114.5 42.5t-96.5 53.5t-61.5 73t-10.5 101q23 137 122 195.5t253 66.5l20 115q12 2 20.5 2h18.5h13.5t19.5 -2l-18 -113q72 0 155.5 -5t143.5 -21q-4 -16 -9.5 -33t-15.5 -33 q-51 14 -131 21.5t-156 7.5l-74 -422q61 -20 119 -43t102 -53.5t66.5 -72.5t12.5 -99q-18 -98 -58.5 -155.5t-94.5 -87.5t-117.5 -39t-127.5 -9l-20 -113q-12 -2 -19.5 -2h-13.5h-18.5t-20.5 2l21 115q-41 2 -90.5 7t-95.5 15.5t-85 24.5t-59 33zM328 770q-6 -39 9 -68.5 t47 -53t75 -42t92 -35.5l70 398q-82 -4 -135.5 -19.5t-86 -41t-49 -60.5t-22.5 -78zM530 53q55 0 105.5 7.5t92.5 31t72.5 67.5t45.5 122q6 39 -11.5 68.5t-51 53t-80 42t-97.5 34.5z" />
<glyph unicode="%" horiz-adv-x="1159" d="M236 702l30 181q14 72 77 106.5t130 34.5q33 0 64.5 -9t54 -26.5t33 -44t4.5 -61.5l-31 -181q-6 -41 -26.5 -67.5t-48 -43t-61.5 -23.5t-71 -7t-67.5 7t-53 23.5t-32 43.5t-2.5 67zM301 702q-6 -35 13.5 -62.5t84.5 -27.5q66 0 97.5 28t38.5 62l30 181q4 27 -16 58.5 t-86 31.5t-96.5 -32t-34.5 -58zM322 2l618 1016q14 4 21.5 5t21.5 1q23 0 31 -4l-621 -1014q-10 -4 -17 -5t-24 -1h-16t-14 2zM709 139l32 180q12 72 75 107t130 35q68 0 118 -35t38 -107l-33 -180q-14 -82 -73.5 -111.5t-131.5 -29.5q-37 0 -67.5 7t-53 23.5t-32 43 t-2.5 67.5zM772 139q-6 -35 15.5 -61.5t86.5 -26.5q66 0 96.5 26.5t37.5 61.5l32 180q4 27 -16 60t-86 33t-97.5 -33t-35.5 -60z" />
<glyph unicode="&#x26;" horiz-adv-x="1048" d="M156 254q8 49 36.5 87t69.5 67.5t93.5 52t109.5 45.5q-31 74 -37 138.5t4 121.5q10 59 25.5 108.5t45 85t79 55t129.5 19.5q78 0 120.5 -19.5t59 -55t14.5 -85t-12 -108.5q-8 -49 -38 -91t-74 -77t-102 -63.5t-122 -51.5q55 -86 121.5 -169t138.5 -150q41 55 73 121.5 t48 140.5q16 2 23.5 2h11.5t14 -1t23 -3q-23 -98 -61 -171t-91 -132l70 -82q-8 -10 -26.5 -23.5t-33.5 -17.5l-63 76q-88 -59 -168 -71.5t-145 -12.5q-72 0 -140.5 4t-118 28.5t-72 79t-5.5 152.5zM225.5 139q10.5 -41 44 -60.5t91 -22.5t139.5 -3q55 0 116.5 12.5 t147.5 51.5l-94 106q-45 49 -94.5 109.5t-88.5 122.5q-106 -43 -175.5 -84t-84.5 -117q-12 -74 -1.5 -115zM504 766q-18 -113 31 -238q53 20 102 43t87 50.5t63.5 63.5t33.5 81q10 55 14.5 94t-6 63.5t-41 36t-90.5 11.5q-59 0 -93 -11.5t-53.5 -36t-28.5 -63.5t-19 -94z " />
<glyph unicode="'" horiz-adv-x="296" d="M279 848q6 66 10 106.5t7 67.5t5 42t4 32q10 2 19.5 2h17.5h14.5t20.5 -2q-16 -61 -26.5 -102.5t-18.5 -69t-12.5 -45t-8.5 -31.5q-4 -2 -8 -2h-8h-8t-8 2z" />
<glyph unicode="(" horiz-adv-x="360" d="M155 40q3 83 9 166t16 164t23 148q12 70 30.5 147.5t41 158.5t48 161t54.5 154q12 4 23.5 4h15.5h13t20 -2q-29 -72 -54.5 -152t-48 -160.5t-41 -159.5t-31.5 -151q-12 -68 -21 -147.5t-16.5 -164.5t-10.5 -168t-1 -153q-10 -4 -16 -4h-14h-20.5t-18.5 4q-4 72 -1 155z " />
<glyph unicode=")" horiz-adv-x="360" d="M94 -115q27 70 52.5 153t49 168t41 165t29.5 147q27 143 38 310t9 313q12 2 19.5 2h13.5h15.5t23.5 -4q2 -74 0 -154t-8 -161t-16.5 -158.5t-22.5 -147.5q-12 -68 -30.5 -148.5t-41 -163.5t-49.5 -166t-53 -155q-10 -4 -21.5 -4h-21.5q-18 0 -27 4z" />
<glyph unicode="*" horiz-adv-x="737" d="M264 870q4 14 6 20.5t9 16.5q10 25 26 35l189 -74l28 226q16 4 22.5 4h16.5h17.5t21.5 -4l-53 -226l217 74q10 -10 14 -35v-16t-2 -21l-229 -49l121 -155q-10 -23 -29 -41q-8 -8 -15.5 -12.5t-25.5 -12.5l-90 195l-160 -195q-27 12 -33 25q-12 18 -12 41l174 155z" />
<glyph unicode="+" horiz-adv-x="960" d="M178 367q0 10 1 16t3 12q0 14 6 27h332l60 334q10 2 18 2h14h15.5t21.5 -2l-59 -334h330q0 -6 -1 -12.5t-1 -14.5q-2 -6 -3.5 -12t-5.5 -16h-329l-60 -336q-16 -2 -22 -2h-13h-16t-18 2l59 336h-332z" />
<glyph unicode="," horiz-adv-x="292" d="M57 -74l70 185q10 4 22.5 5t16.5 1l33 -2l-97 -189q-6 -2 -13 -2h-11q-14 0 -21 2z" />
<glyph unicode="-" horiz-adv-x="741" d="M178 367q0 10 1 16t3 12q0 14 6 27h512q0 -6 -1 -12.5t-1 -14.5q-2 -6 -3 -12t-5 -16h-512z" />
<glyph unicode="." horiz-adv-x="296" d="M113 4l18 109q14 4 23.5 4h13.5h14t21 -4l-19 -109q-14 -4 -22 -4h-12h-15.5t-21.5 4z" />
<glyph unicode="/" horiz-adv-x="538" d="M61 2q137 289 273.5 568.5t275.5 570.5q10 2 16.5 2h20.5q20 0 31 -2l-549 -1139q-10 -2 -16.5 -2h-20.5q-21 0 -31 2z" />
<glyph unicode="0" horiz-adv-x="968" d="M153.5 200.5q6.5 69.5 22.5 159.5l53 304q16 92 35 160.5t62 115.5t122 70.5t218 23.5q137 0 208.5 -23.5t99 -70.5t21.5 -115.5t-22 -160.5l-53 -304q-16 -92 -35 -160.5t-63 -115.5t-124 -70.5t-217 -23.5q-139 0 -209.5 23.5t-97.5 70.5t-20.5 116.5zM226.5 217.5 q-5.5 -59.5 16 -96.5t79 -52.5t170.5 -15.5t177 15.5t99 52.5t49 96t31 148l51 294q16 88 22.5 147.5t-16 96.5t-81 52.5t-171.5 15.5t-176 -15.5t-97 -52.5t-49.5 -96t-31.5 -148l-51 -294q-16 -88 -21.5 -147.5z" />
<glyph unicode="1" horiz-adv-x="573" d="M182 807l379 213q14 4 19.5 4h21.5h10t27 -4l-178 -1018q-14 -2 -22.5 -2h-14.5h-15.5t-19.5 2l164 938q-158 -94 -235.5 -137t-94.5 -53q-12 4 -20.5 12t-12.5 14q-4 8 -8 31z" />
<glyph unicode="2" horiz-adv-x="872" d="M127 0v16.5t2 16.5t6 18t15 31q23 49 77 105.5t124.5 113.5t148.5 116.5t143.5 119t111.5 116t56 107.5q8 47 11 86t-15.5 66.5t-66.5 43t-140 15.5q-86 0 -136 -13.5t-79 -36t-41 -56.5t-20 -72q-14 -2 -22.5 -2h-14.5h-14.5t-20.5 2q8 43 23.5 86t54.5 77.5t105.5 56 t174.5 21.5q121 0 181.5 -25.5t83 -65.5t19.5 -88t-11 -93q-10 -63 -53.5 -122.5t-102.5 -116t-131 -112t-141.5 -111.5t-132 -114.5t-103.5 -122.5h549q0 -6 -1 -15t-3 -19q-2 -8 -3 -14.5t-3 -14.5h-631z" />
<glyph unicode="3" horiz-adv-x="845" d="M128 144q-1 44 5 87q16 2 23.5 2h15.5h13.5t19.5 -2q-6 -41 -4 -73.5t23.5 -55t67.5 -36t130 -13.5q92 0 145.5 15.5t81 43t39 66.5t19.5 86q8 45 11 85t-16.5 68.5t-67.5 47t-140 20.5q2 10 2 16.5t2 12.5l4 25q92 2 146 18t83 46t41 70t21 87q8 47 11 86t-15.5 66.5 t-66.5 43t-140 15.5q-86 0 -137.5 -13.5t-80 -36t-41 -56.5t-20.5 -72q-14 -2 -21.5 -2h-13.5h-15t-22 2q8 43 25.5 86t56.5 77.5t105.5 56t173.5 21.5q117 0 176 -25.5t84 -65.5t22.5 -88t-10.5 -93q-6 -29 -14 -60.5t-24.5 -63.5t-45 -63.5t-75.5 -62.5q37 -31 55 -61.5 t24.5 -62.5t3 -62.5t-9.5 -59.5q-8 -47 -22.5 -96t-53 -89t-107.5 -65.5t-185 -25.5q-109 0 -168.5 21.5t-86 55t-27.5 77.5z" />
<glyph unicode="4" horiz-adv-x="829" d="M88 334l6 33q2 20 17 53l561 600q20 4 38.5 4h41.5h20t19 -2l-109 -625h131l-2 -28l-6 -35h-135l-58 -332q-14 -2 -22 -2h-15h-15t-19 2l57 332h-510zM166 397h444l101 576z" />
<glyph unicode="5" horiz-adv-x="864" d="M145 136q-2 42 7 85q14 2 20 2h14h16.5t20.5 -2q-6 -39 -4 -69.5t23.5 -52t68.5 -33t131 -11.5q92 0 145.5 19.5t83 51.5t41 75t19.5 90q8 45 12.5 93t-12 86t-62.5 62.5t-139 24.5h-10q-29 0 -64.5 -2t-70.5 -10t-65.5 -24.5t-45.5 -43.5h-43h-19t-15 2l90 514 q2 6 3 13.5t5 17.5h598q0 -8 -1 -14t-3 -15l-6 -34h-531l-69 -398q78 43 136.5 50.5t119.5 7.5q117 0 175 -34t80.5 -84t19.5 -107.5t-11 -102.5q-8 -47 -24.5 -100.5t-55.5 -98.5t-108.5 -74.5t-186.5 -29.5q-106 0 -165.5 19.5t-87.5 52t-30 74.5z" />
<glyph unicode="6" horiz-adv-x="833" d="M153 192.5q3 53.5 11 100.5l80 450q14 82 48 138.5t85 90.5t116.5 48t141.5 14q53 0 124.5 -6t127.5 -20q-4 -14 -10.5 -29.5t-14.5 -28.5q-51 12 -121.5 16.5t-119.5 4.5q-59 0 -109.5 -9.5t-89.5 -33t-65.5 -65.5t-39.5 -105l-41 -234q61 41 126 54.5t130 13.5 q117 0 176.5 -30t83 -75t21.5 -97t-10 -97q-8 -47 -24.5 -100.5t-55.5 -98.5t-108.5 -74.5t-186.5 -29.5q-115 0 -174 29.5t-81.5 74.5t-19.5 98.5zM222 196q-3 -42 15.5 -74t65.5 -50.5t139 -18.5t145.5 19.5t83 52.5t41 76t19.5 90t11 90t-14 74.5t-63.5 51t-138.5 19.5 q-94 0 -148 -19.5t-83 -52t-41.5 -76.5t-20.5 -93q-8 -47 -11 -89z" />
<glyph unicode="7" horiz-adv-x="747" d="M211 961q2 14 2 18t2 14q2 6 4 13.5t6 17.5h617l-2 -29q-2 -10 -4.5 -19.5t-8.5 -25.5t-57 -121q-23 -45 -55.5 -113.5t-80.5 -169t-112.5 -234.5t-150.5 -310q-12 -2 -24.5 -2h-16.5q-18 0 -29 2l457 959h-547z" />
<glyph unicode="8" horiz-adv-x="868" d="M149.5 170q2.5 49 10.5 96q6 29 14 61.5t24.5 66.5t45 63.5t73.5 52.5q-39 16 -57 46t-23.5 65.5t-1 72.5t10.5 68q8 45 22.5 93t53 88t107.5 65.5t183 25.5q117 0 177.5 -25.5t84 -65.5t21.5 -88t-10 -93q-6 -29 -15.5 -66t-27 -71.5t-46 -65.5t-71.5 -47 q39 -23 57.5 -52.5t24.5 -63.5t3 -67.5t-9 -62.5q-8 -47 -22.5 -96t-53.5 -89t-107.5 -65.5t-185.5 -25.5t-176 25.5t-84 65.5t-22.5 89zM220 178q-3 -39 15.5 -66.5t66.5 -43t142 -15.5q92 0 145.5 15.5t81 43t39 66.5t19.5 86t11 87t-14 69t-65.5 44t-140.5 15 q-94 0 -147.5 -15t-82 -44t-40 -69t-19.5 -87t-11 -86zM306 673q-3 -40 15.5 -69t65.5 -44t141 -15q92 0 145.5 15t81 44t39 69t19.5 87t11 86t-15 66.5t-65.5 43t-139.5 15.5q-94 0 -147.5 -15.5t-81 -43t-39 -66.5t-19.5 -86t-11 -87z" />
<glyph unicode="9" horiz-adv-x="823" d="M115 16q4 14 10 29.5t14 28.5q51 -12 122 -16.5t120 -4.5q57 0 108.5 9.5t91.5 33t66.5 64.5t36.5 106l43 234q-63 -41 -127.5 -54.5t-130.5 -13.5q-117 0 -176.5 30t-83 75t-21 97t10.5 97q8 47 24.5 100.5t55 98.5t109.5 74.5t187 29.5q115 0 173.5 -29.5t81 -74.5 t19.5 -98.5t-11 -100.5l-78 -450q-14 -82 -49 -138.5t-85.5 -90.5t-116 -48t-140.5 -14q-53 0 -126 6t-128 20zM260 643q-4 -43 13.5 -74.5t63.5 -51t138 -19.5q94 0 148.5 19.5t83 52t41 76.5t20.5 93q8 47 11 89t-15.5 74t-65.5 50.5t-139 18.5t-145.5 -19.5t-82 -52.5 t-39.5 -76t-20 -90q-8 -47 -12 -90z" />
<glyph unicode=":" horiz-adv-x="296" d="M113 4l18 109q14 4 23.5 4h13.5h14t21 -4l-19 -109q-14 -4 -22 -4h-12h-15.5t-21.5 4zM217 602l21 109q12 4 21 4h13h14.5t22.5 -4l-20 -109q-14 -4 -22.5 -4h-12.5h-15.5t-21.5 4z" />
<glyph unicode=";" horiz-adv-x="292" d="M61 -74l70 185q10 4 22.5 5t16.5 1l33 -2l-97 -189q-6 -2 -13 -2h-11q-14 0 -21 2zM217 602l21 109q12 4 21 4h13h14.5t22.5 -4l-20 -109q-14 -4 -22.5 -4h-12.5h-15.5t-21.5 4z" />
<glyph unicode="&#x3c;" horiz-adv-x="843" d="M169 319q1 10 7 41q4 29 7 41.5t12 24.5l655 260q0 -6 -1 -11t-3 -13q-2 -10 -3 -21.5t-5 -24.5l-598 -241h-11l-4 -25h11l509 -246q0 -10 -1 -21t-3 -22q-2 -4 -4 -11t-4 -15q-147 63 -280.5 133t-280.5 131q-4 10 -3 20z" />
<glyph unicode="=" horiz-adv-x="741" d="M147 197q0 10 1.5 16t3.5 12t2 12.5t4 12.5h512q0 -16 -2 -25q-2 -6 -3 -12t-6 -16h-512zM205 514q0 10 1 16.5t1 12.5q4 16 8 26h512q0 -6 -1 -12t-3 -14q0 -10 -6 -29h-512z" />
<glyph unicode="&#x3e;" horiz-adv-x="843" d="M119 35q2 8 2 15t2 11q2 10 3 21.5t5 21.5l600 246h10l4 25h-10l-512 241q0 12 1 23.5t3 22.5q2 14 9 24l561 -260q4 -12 3 -24.5t-5 -41.5q-6 -31 -9.5 -41t-11.5 -20q-168 -61 -325.5 -131t-329.5 -133z" />
<glyph unicode="?" horiz-adv-x="729" d="M262 4l19 109q14 4 23 4h13h14.5t20.5 -4l-18 -109q-14 -4 -22.5 -4h-12.5h-15.5t-21.5 4zM287 995q53 23 112.5 31t112.5 8q137 0 203.5 -45t46.5 -160q-10 -53 -38 -93t-64.5 -69.5t-77.5 -55t-78 -53.5t-63.5 -61.5t-34.5 -78.5l-39 -223q-12 -4 -21.5 -4.5 t-13.5 -0.5h-17.5t-19.5 5l41 225q8 53 35.5 91t64.5 67.5t78 54t77 51.5t63.5 61.5t35.5 83.5q6 39 3 67t-23.5 44t-62.5 23.5t-111 7.5q-123 0 -201 -35q-12 23 -8 59z" />
<glyph unicode="@" horiz-adv-x="1298" d="M160 272l84 473q12 74 59 129.5t113.5 90t143.5 52t149 17.5h245q72 0 142.5 -17.5t124 -52t81 -90t15.5 -129.5l-76 -423q-14 -80 -58 -113t-145 -33q-47 0 -74.5 10.5t-42 25.5t-18.5 34.5t0 40.5h-10q-16 -31 -48 -50.5t-68 -29.5t-70.5 -13.5t-53.5 -3.5 q-94 0 -144 25t-71.5 64.5t-20.5 92t11 105.5l14 86q8 53 24.5 103.5t49.5 88.5t89.5 60.5t146.5 22.5q8 0 36.5 -1t61.5 -9.5t61.5 -26t38.5 -49.5h13l16 86q10 2 23.5 2h21.5q14 0 20 -2l-90 -504q-6 -37 1.5 -56.5t21.5 -28.5t33.5 -10t38.5 -1q20 0 40.5 1t36 10 t27.5 28.5t18 56.5l74 411q8 43 -6 84t-51 72t-98.5 50.5t-147.5 19.5h-246q-86 0 -153.5 -19.5t-115.5 -50.5t-75.5 -72t-36.5 -84l-84 -473q-10 -61 9.5 -103t62.5 -67.5t102.5 -37t129.5 -11.5h245q78 0 143.5 4t118.5 33q10 -14 11 -24q4 -10 4 -15.5v-13.5 q-53 -31 -126 -39t-161 -8h-246q-78 0 -149.5 13t-124.5 46t-79 87t-11 136zM485.5 402q-4.5 -40 9 -73.5t52.5 -55t117 -21.5q80 0 126 21.5t71.5 55t36.5 73.5t17 77l21 115q6 35 1 67.5t-27.5 57t-63.5 40t-109 15.5q-72 0 -113.5 -19.5t-65 -50t-33 -67.5t-15.5 -74 l-14 -84q-6 -37 -10.5 -77z" />
<glyph unicode="A" horiz-adv-x="937" d="M31 2l549 1014q23 6 32 7t37 1q29 0 37 -1t29 -7l192 -1014q-10 -2 -16 -2h-12h-25.5t-24.5 2l-63 342h-475l-182 -342q-12 -2 -23.5 -2h-26.5h-12t-16 2zM319 408h443l-113 548l2 9h-24l-2 -9z" />
<glyph unicode="B" horiz-adv-x="960" d="M113 0l180 1024h420q68 0 127 -4t101 -30t59 -82q8 -27 9 -65q0 -40 -10 -93q-14 -84 -49 -143.5t-110 -100.5q62 -40 76 -96q7 -27 7 -60q0 -34 -8 -74q-18 -102 -55 -158.5t-87 -83t-111.5 -30.5t-129.5 -4h-419zM195 63h346q61 0 111 5.5t89 26t64.5 63.5t38.5 118 q6 33 6 59q0 35 -10 58q-18 41 -54 60.5t-82.5 22.5t-89.5 3h-346zM279 543h346q43 0 91 4t91 23.5t76 61.5t45 118q7 41 7 73q0 25 -5 45q-10 42 -41 63t-79 25.5t-112 4.5h-346z" />
<glyph unicode="C" horiz-adv-x="937" d="M154 356l55 310q18 104 62 174.5t108.5 113.5t147.5 61.5t180 18.5q33 0 73.5 -2t84.5 -6t86 -10t77 -15q-4 -14 -10 -28.5t-17 -28.5q-31 8 -70.5 13.5t-81.5 8.5t-84 4t-75 1q-168 0 -274.5 -68.5t-132.5 -220.5l-60 -340q-7 -38 -6 -70q0 -98 61 -150q82 -68 250 -69 q33 0 76 2t87 5t86 8.5t77 13.5q4 -12 4 -26.5t-4 -32.5q-37 -8 -81 -14.5t-89 -10.5t-87 -6t-75 -2q-96 0 -173 18.5t-126 61.5q-49 44 -69 114q-10 36 -9 79q0 43 9 93z" />
<glyph unicode="D" horiz-adv-x="985" d="M113 0l180 1024h338q96 0 173 -18.5t126 -62.5q50 -45 68 -115q9 -35 9 -77q0 -44 -10 -98l-51 -282q-18 -104 -61 -175t-107.5 -115t-147.5 -62.5t-179 -18.5h-338zM195 63h270q68 0 135.5 14.5t122.5 48.5t95 89t54 139l56 316q6 33 6 62q0 42 -12 76q-20 56 -63.5 90 t-106 48.5t-129.5 14.5h-271z" />
<glyph unicode="E" horiz-adv-x="874" d="M113 0l180 1024h663q0 -14 -4 -31q-2 -4 -3 -14t-5 -18h-592l-73 -418h518q0 -8 -1 -16.5t-1 -14.5q-2 -4 -3 -14.5t-6 -18.5h-518l-73 -416h591q0 -14 -4 -30q0 -4 -2 -14.5t-4 -18.5h-663z" />
<glyph unicode="F" horiz-adv-x="849" d="M113 2l180 1022h663q0 -14 -4 -31q-2 -4 -3 -14t-5 -18h-592l-73 -418h518q0 -8 -1 -16.5t-1 -14.5q-2 -4 -3 -14.5t-6 -18.5h-518l-84 -477q-12 -2 -21 -2h-16h-16t-18 2z" />
<glyph unicode="G" horiz-adv-x="989" d="M174 356l55 310q18 104 62.5 174.5t109 113.5t147.5 61.5t179 18.5q33 0 75 -2t85 -5t85 -9t77 -14q-4 -16 -9.5 -31t-13.5 -29q-31 8 -72 13.5t-84 8.5t-85 4t-74 1q-168 0 -274.5 -68.5t-133.5 -220.5l-59 -340q-7 -37 -7 -70q0 -99 63 -150q83 -69 249 -69 q47 0 115.5 4t152.5 17l66 375h-195q0 20 4 32q0 4 2 13.5t6 19.5h228l37 -4l-86 -487q-37 -8 -82 -14.5t-90 -10.5t-88.5 -6t-75.5 -2q-96 0 -173 18.5t-126 61.5t-68 114q-11 36 -11 81q0 42 9 91z" />
<glyph unicode="H" horiz-adv-x="972" d="M113 2l178 1020q12 2 20 2h17h14t20 -2l-81 -473h604l82 473q14 2 22 2h17h14t18 -2l-178 -1020q-12 -2 -20.5 -2h-14.5h-16t-21 2l84 483h-604l-84 -483q-14 -2 -22 -2h-15h-16t-18 2z" />
<glyph unicode="I" horiz-adv-x="296" d="M113 2l178 1020q14 2 22.5 2h18.5h13t17 -2l-178 -1020q-12 -2 -19 -2h-13h-18.5t-20.5 2z" />
<glyph unicode="J" horiz-adv-x="780" d="M118 99q-1 10 -1 20q0 29 6 63l8 47q10 2 18.5 2h14.5h19.5t19.5 -2l-6 -32q-6 -29 -6 -51q0 -18 4 -31q8 -29 32.5 -43.5t65.5 -16.5t100 -2q57 0 99.5 2t72 16.5t47 42t27.5 81.5l145 827q12 2 20.5 2h16.5h16.5t18.5 -2l-147 -840q-8 -47 -24.5 -83t-50.5 -60.5 t-91.5 -36.5t-145.5 -12h-28q-92 0 -144.5 12t-78 36.5t-28.5 60.5z" />
<glyph unicode="K" horiz-adv-x="995" d="M113 2l178 1020q12 2 21.5 2h17.5h14t18 -2l-92 -524q193 125 403 261t402 265q6 -10 15.5 -25.5t17.5 -29.5l-455 -305q70 -164 144.5 -331t146.5 -331q-10 -2 -16 -2h-17h-22t-25 2l-280 623l-328 -213l-72 -410q-12 -2 -20 -2h-14h-17.5t-19.5 2z" />
<glyph unicode="L" horiz-adv-x="798" d="M113 0l178 1022q12 2 20 2h17h16t18 -2l-167 -959h561q0 -12 -4 -32q-2 -8 -2 -14.5t-5 -16.5h-632z" />
<glyph unicode="M" horiz-adv-x="1255" d="M113 0l178 1016q33 6 47 7t43 1q12 0 23.5 -1t33.5 -7l193 -989l543 989q27 6 38 7t23 1q29 0 43 -1t43 -7l-178 -1016h-72l170 969h-16l-2 -8q-135 -238 -269.5 -475.5t-251.5 -481.5q-14 -4 -36.5 -4h-38.5h-37t-37 4q-29 244 -80 481.5t-104 475.5l2 8h-17l-170 -969 h-71z" />
<glyph unicode="N" horiz-adv-x="1062" d="M113 2l178 1014q27 6 40 7t42 1q6 0 19.5 -1t31.5 -5l444 -950l-2 -13h21l170 967q12 2 20 2h17h15t19 -2l-178 -1016q-29 -4 -44 -5t-42 -1h-23.5t-27.5 2q-98 240 -222 479.5t-222 479.5l2 8h-17l-170 -967q-12 -2 -20 -2h-14h-17.5t-19.5 2z" />
<glyph unicode="O" horiz-adv-x="1003" d="M154 358l55 306q14 88 37.5 157.5t74 116.5t137.5 71.5t230 24.5q141 0 217 -24.5t109 -71.5q31 -44 31 -107q-1 -5 -1 -9q-2 -70 -16 -158l-55 -306q-16 -88 -38 -156.5t-71 -115.5t-134 -71.5t-226 -24.5q-145 0 -223 24.5t-112 71.5q-33 46 -33 112q0 67 18 160z M212 218q1 -60 30.5 -97t94 -52.5t177.5 -15.5q111 0 179.5 15.5t109.5 52.5t62.5 96t37.5 148l51 294q17 91 17 149t-30 95t-92.5 52.5t-172.5 15.5q-113 0 -183.5 -15.5t-112.5 -52.5t-63.5 -96t-37.5 -148l-52 -294q-15 -83 -15 -140v-7z" />
<glyph unicode="P" horiz-adv-x="890" d="M113 2l180 1022h381q66 0 125 -6t100 -37t59 -95q8 -29 7 -68q0 -47 -11 -109q-20 -117 -60 -182.5t-92 -98.5t-114.5 -41t-128.5 -8h-309l-66 -377q-14 -2 -22 -2h-15h-16t-18 2zM262 442h307q53 0 102.5 4.5t90.5 30t71.5 79.5t49.5 153q7 49 7 85q0 33 -6 57 q-12 50 -43.5 74.5t-78.5 30t-103 5.5h-307z" />
<glyph unicode="Q" horiz-adv-x="1024" d="M148 204q2 68 16 154l55 306q14 88 38 157.5t74 116.5t137 71.5t230 24.5q141 0 217 -24.5t109 -71.5q31 -44 31 -109v-7q-2 -70 -17 -158l-55 -306q-14 -86 -35.5 -153.5t-67.5 -113.5t-125 -72.5t-208 -28.5l-23 -125q16 8 24.5 9t10.5 1h158v-15t-2 -18q-2 -6 -3 -14 t-5 -18h-158q-29 0 -52.5 12t-39.5 33l24 135q-133 2 -204.5 28.5t-101.5 72.5q-28 42 -28 103q0 5 1 10zM253 121q30 -37 94 -52.5t177 -15.5q111 0 179.5 15.5t109.5 52.5t62.5 96t37.5 148l52 294q16 88 16 147.5t-29.5 96.5t-92 52.5t-173.5 15.5q-113 0 -183.5 -15.5 t-112.5 -52.5t-63.5 -96t-37.5 -148l-51 -294q-16 -85 -16 -144q0 -62 31 -100z" />
<glyph unicode="R" horiz-adv-x="960" d="M113 2l180 1022h412q66 0 125 -6t100 -37q42 -31 58 -95q7 -28 7 -65q0 -48 -12 -112q-12 -68 -33.5 -117t-48.5 -85t-58.5 -60.5t-64.5 -40.5q12 -98 28.5 -202t31.5 -202q-8 -2 -17.5 -2h-15.5h-41l-57 393q-33 -10 -64 -12t-53 -2h-340l-66 -377q-14 -2 -22 -2h-15 h-16t-18 2zM262 442h338q43 0 91 7.5t91 35t78 80.5t51 144q7 43 7 77q0 39 -9 65q-16 50 -50 74.5t-80 30t-89 5.5h-338z" />
<glyph unicode="S" horiz-adv-x="937" d="M100 72q2 16 15.5 33.5t25.5 29.5q51 -29 101.5 -45t96.5 -24.5t84 -10.5t66 -2q57 0 111.5 5t101 28t79 69t46.5 126q2 12 2 22q-1 46 -35 77q-42 38 -113 65.5t-154 52t-152.5 58.5t-110.5 84q-30 37 -30 89q0 19 4 41q12 74 49 125t92 82t129 44t162 13q72 0 162 -5 t153 -21q-4 -16 -9 -33t-15 -33q-53 14 -136.5 21.5t-160.5 7.5q-102 0 -167 -14.5t-104 -40t-57.5 -63.5t-26.5 -83q-3 -13 -3 -25q0 -44 35 -75q44 -39 113.5 -69t152.5 -54.5t153 -58.5q69 -32 110 -82q32 -38 32 -92q0 -16 -3 -33q-18 -102 -61 -161t-101.5 -87.5 t-125 -35.5t-132.5 -7q-41 0 -95 4t-108.5 14t-102.5 25.5t-73 38.5z" />
<glyph unicode="T" horiz-adv-x="808" d="M209 961q0 10 1 17t3 15t4 15.5t6 15.5h723q1 -3 1 -8q0 -9 -3 -23q-2 -14 -8 -32h-328l-168 -951q-12 -2 -20 -2h-14h-17.5t-19.5 2l168 951h-328z" />
<glyph unicode="U" horiz-adv-x="1024" d="M146 206q4 68 18 152l117 664q12 2 21 2h17h14.5t18.5 -2l-114 -657q-16 -85 -16 -144q0 -62 31 -100q30 -37 94.5 -52.5t176.5 -15.5q111 0 179.5 15.5t110.5 52.5t62.5 96t36.5 148l115 657q12 2 20.5 2h16.5h14t21 -2l-117 -664q-14 -84 -34.5 -151.5t-67.5 -115.5 t-133 -74.5t-234 -26.5q-150 0 -228.5 26.5t-110.5 74.5q-29 43 -29 102v13z" />
<glyph unicode="V" horiz-adv-x="915" d="M209 1022q10 2 19.5 2h19.5h19t18 -2l170 -959l-2 -14h26l2 14l506 959q10 2 20.5 2h20.5q25 0 35 -2q-129 -258 -266.5 -508t-266.5 -506q-12 -6 -26 -7t-47 -1t-46.5 1t-25.5 7q-41 256 -88 506t-88 508z" />
<glyph unicode="W" horiz-adv-x="1263" d="M209 1020q10 4 16 4h21h18t17 -2l73 -950l-4 -17h21l2 15l377 759q10 2 28 2q16 0 27 -2l106 -759l-2 -15h21l4 17l405 950q14 2 20.5 2h18.5q23 0 33 -4q-104 -256 -215 -506t-215 -506q-23 -6 -33 -7t-39 -1q-23 0 -35 1t-28 5l-92 682l-336 -682q-16 -4 -28.5 -5 t-35.5 -1q-29 0 -39 1t-32 7q-16 256 -37 506t-37 506z" />
<glyph unicode="X" horiz-adv-x="966" d="M39 2l485 502l-315 518q4 2 17.5 2h17.5h19t28 -2q72 -113 145.5 -230.5t145.5 -230.5q111 113 226.5 230.5t223.5 230.5q16 2 30.5 2h20.5h16.5t14.5 -2l-496 -518l310 -502q-16 -2 -21.5 -2h-13.5h-24.5t-34.5 2l-273 447l-428 -447q-20 -2 -34.5 -2h-24.5h-13.5 t-21.5 2z" />
<glyph unicode="Y" horiz-adv-x="946" d="M229 1020q10 4 25.5 4h19.5h17.5t25.5 -2q57 -127 121 -257t123 -257q104 127 214 257t210 257q16 2 28.5 2h18.5h18.5t22.5 -4l-487 -580l-76 -438q-12 -2 -20.5 -2h-16.5h-16t-19 2l76 438z" />
<glyph unicode="Z" horiz-adv-x="1003" d="M104 0l5 27q2 8 4 21t8 30l878 883h-727q0 20 4 32q2 14 9 31h805q-2 -12 -2.5 -18.5t-2.5 -12.5q-2 -16 -14 -45l-874 -885h688q0 -10 -1 -15t-3 -13q0 -4 -2 -15.5t-5 -19.5h-770z" />
<glyph unicode="[" horiz-adv-x="419" d="M90 -117l223 1258l35 2h158q0 -10 -1 -17.5t-3 -15.5q-4 -23 -8 -31h-121l-199 -1134h121q0 -10 -1 -17.5t-3 -15.5q-4 -23 -8 -31h-156h-14.5t-22.5 2z" />
<glyph unicode="\" horiz-adv-x="538" d="M262 1141q10 2 31 2h20t17 -2q35 -293 72.5 -570.5t74.5 -568.5q-10 -2 -31 -2h-20t-16 2z" />
<glyph unicode="]" horiz-adv-x="421" d="M94 -119q0 6 1 13.5t3 17.5q2 14 8 33h121l199 1134h-121q0 6 1 13.5t3 17.5q2 14 8 33h158l35 -2l-223 -1258q-14 -2 -22.5 -2h-14.5h-156z" />
<glyph unicode="^" horiz-adv-x="663" d="M207 543l239 473q16 6 26.5 7t39.5 1t38 -1t23 -7l72 -473l-15 -3t-12 -1h-19t-19 2l-70 422l2 8h-20l-3 -8l-217 -422q-12 -2 -19 -2h-20q-6 0 -11 1z" />
<glyph unicode="_" horiz-adv-x="745" d="M-27 -166q0 10 1 15.5t3 11.5q0 16 7 28h739q0 -6 -1 -14t-1 -14q-2 -8 -8 -27h-740z" />
<glyph unicode="`" horiz-adv-x="342" d="M305 1096q9 2 25 2q8 0 20 -1t29 -3l-2 -246q-2 -2 -17 -2q-14 0 -20 2q-10 63 -17.5 124.5t-17.5 123.5z" />
<glyph unicode="a" horiz-adv-x="835" d="M117 236q12 68 48 111.5t86 70t109.5 38t118.5 11.5q27 0 59.5 -2t65.5 -5t63.5 -10.5t51.5 -15.5h8l18 107q6 35 6 63q-1 77 -45 113q-62 49 -214 49q-53 0 -98.5 -4t-96.5 -19q-4 12 -6 30t0 30q59 16 119.5 21t113.5 5q78 0 138.5 -13t100.5 -47t54 -90q7 -28 7 -63 t-7 -77l-94 -537q-8 -2 -18.5 -2h-16.5h-15t-22 2l23 131q-47 -49 -89 -77.5t-81 -43t-77 -18.5t-75 -4q-144 0 -202 54q-40 37 -41 116q0 34 8 76zM188 240q-4 -24 -5 -45q0 -137 177 -140q98 0 179.5 44t146.5 106l33 184q-47 6 -95.5 7t-72.5 1q-66 0 -127.5 -2 t-109.5 -17.5t-82 -47t-44 -90.5z" />
<glyph unicode="b" horiz-adv-x="851" d="M113 2l192 1094q12 2 20.5 2h14.5h16.5t20.5 -2l-62 -348h11q45 31 82.5 47t72.5 24t65.5 9t59.5 1q113 0 169 -25q55 -26 75 -70q16 -35 16 -79q0 -11 -1 -23q-5 -58 -17 -124l-35 -199q-12 -66 -28.5 -124t-55.5 -101t-108.5 -68.5t-188.5 -25.5q-25 0 -53.5 1t-60 10 t-62.5 28.5t-57 54.5l-15 -82q-8 -2 -19 -2h-18h-14t-20 2zM228 223q-1 -10 -1 -19q1 -34 13 -63q16 -37 62 -61.5t140 -24.5t149.5 18.5t85.5 52.5t42 81t22 104l35 195q10 60 16 108q1 13 1 24q1 34 -11 58q-16 34 -59 52t-129 18q-80 0 -137.5 -19.5t-94 -50t-56 -71.5 t-27.5 -84l-41 -230q-6 -43 -10 -88z" />
<glyph unicode="c" horiz-adv-x="745" d="M135 285l45 250q14 84 49 140t87.5 91t119 49t144.5 14q53 0 124.5 -5t131.5 -21q-6 -14 -12.5 -29.5t-12.5 -25.5q-53 10 -125 14t-121 4q-59 0 -111.5 -10.5t-92 -35t-67.5 -66.5t-40 -107l-49 -277q-6 -32 -6 -57q0 -27 7 -49q13 -40 45 -65t81 -34.5t108 -9.5 q51 0 123 4t129 19q4 -14 4 -32.5v-33.5q-63 -14 -138 -18t-126 -4q-78 0 -139.5 14t-101 49t-55.5 91q-8 30 -8 67q0 34 7 74z" />
<glyph unicode="d" horiz-adv-x="851" d="M130 186q3 58 15 123l35 199q12 66 26.5 124t50.5 102t101.5 69.5t178.5 25.5q59 0 121.5 -10t129.5 -71h11l61 348q10 2 20.5 2h16.5h14.5t20.5 -2l-193 -1094q-12 -2 -20 -2h-14h-17.5t-19.5 2l14 82q-39 -35 -77 -54.5t-71.5 -28.5t-63.5 -10t-54 -1 q-119 0 -180.5 25.5t-85.5 68.5q-21 38 -20 88v14zM203 207q-1 -9 0 -17q0 -36 13 -64q17 -34 65.5 -52.5t144.5 -18.5q94 0 149.5 24.5t85 61.5t42 82t18.5 88l41 230q5 25 5 48q0 18 -3 36q-6 41 -32.5 71.5t-77 50t-130.5 19.5q-86 0 -135 -18.5t-75.5 -52t-39 -82 t-22.5 -107.5l-35 -195q-10 -57 -14 -104z" />
<glyph unicode="e" horiz-adv-x="815" d="M141 285l33 184q16 98 43 167t71 112t111.5 62t165.5 19q104 0 163.5 -19t86.5 -59q27 -39 28 -99v-8q0 -57 -14 -130l-24 -139h-576l-18 -105q-6 -30 -5 -56q0 -30 7 -52q14 -42 48 -65t83 -32.5t109 -9.5q53 0 128.5 4t133.5 19q4 -14 4 -32.5v-31.5q-31 -6 -68 -11 t-73.5 -8t-71.5 -4t-62 -1q-78 0 -139 14t-103 49t-58 91q-9 31 -9 70q0 32 6 71zM242 442h503l21 117q6 38 6 69v16q-2 38 -23.5 65.5t-67.5 42t-128 14.5t-135 -16.5t-87 -54.5t-54.5 -100.5t-34.5 -152.5z" />
<glyph unicode="f" horiz-adv-x="571" d="M215 756q0 10 1 18t1 14q2 4 3 12.5t5 18.5h156l10 53q14 80 33.5 132.5t47.5 83t64.5 43t86.5 12.5q16 0 57 -2t88 -15l-20 -57q-41 6 -69 7t-50 1q-45 0 -73 -8t-44 -30.5t-27.5 -62.5t-21.5 -104l-10 -53h247q2 -20 -2 -31q0 -14 -6 -32h-250l-133 -754 q-10 -2 -21.5 -2h-17.5h-14t-18 2l133 754h-156z" />
<glyph unicode="g" horiz-adv-x="849" d="M74 -352q6 14 12 29.5t12 27.5q25 -6 57.5 -9t66.5 -4t65.5 -2t56.5 -1q57 0 108.5 9t90.5 32.5t65.5 64.5t38.5 107l31 172q-33 -31 -70 -48.5t-71.5 -25.5t-66.5 -9t-56 -1q-119 0 -179.5 25.5t-84.5 69.5q-20 39 -20 89v14q3 58 15 123l35 197q12 68 27.5 126 t51.5 101t101.5 68.5t178.5 25.5q10 0 44.5 -1t74.5 -9t77 -23.5t51 -45.5h11l12 67q10 2 20.5 2h16.5h14t21 -2l-160 -901q-16 -92 -50 -149.5t-84 -89t-115.5 -43t-141.5 -11.5q-53 0 -127 4t-129 21zM203 207q-1 -9 -1 -17q0 -36 14 -64q17 -34 65.5 -52.5t142.5 -18.5 t149.5 24.5t85 61.5t42 83t18.5 89l41 228q5 25 5 48q0 18 -3 36q-6 41 -33 72.5t-77 50t-130 18.5q-84 0 -133 -18.5t-76.5 -53.5t-39 -83t-21.5 -105l-35 -193q-10 -59 -14 -106z" />
<glyph unicode="h" horiz-adv-x="864" d="M113 2l192 1094q12 2 20.5 2h14.5h16.5t20.5 -2l-62 -346h17q29 31 63.5 46t70.5 23t70.5 9t65.5 1q90 0 144.5 -23.5t82 -63.5t32.5 -96q1 -16 2 -34q0 -41 -9 -86l-92 -524q-10 -2 -20.5 -2h-16.5h-14.5t-20.5 2l84 485q10 53 16 103q1 13 1 25q-1 36 -13 65 q-16 39 -61 62.5t-135 23.5q-76 0 -129.5 -13.5t-88 -41t-55 -70.5t-30.5 -100l-95 -539q-8 -2 -19 -2h-18h-14t-20 2z" />
<glyph unicode="i" horiz-adv-x="296" d="M113 2l143 815q10 2 18.5 2h14.5h17t22 -2l-144 -815q-10 -2 -21 -2h-18h-14t-18 2zM279 944l18 109q12 4 21.5 4h13.5h14t23 -4l-19 -109q-16 -4 -24.5 -4h-12.5h-15t-19 4z" />
<glyph unicode="j" horiz-adv-x="309" d="M-256 -356q4 18 12 35.5t21 27.5q39 -10 65.5 -14t77.5 -4q92 0 129 49t57 164l162 915q10 2 18.5 2h14.5h17.5t21.5 -2l-162 -915q-14 -84 -35.5 -137.5t-52.5 -85t-70.5 -44t-93.5 -12.5q-53 0 -93 2t-89 19zM291 944l18 109q12 4 21.5 4h13.5h14.5t22.5 -4l-19 -109 q-16 -4 -24 -4h-12h-15.5t-19.5 4z" />
<glyph unicode="k" horiz-adv-x="868" d="M113 2l192 1094q12 2 20.5 2h14.5h16.5t20.5 -2l-109 -611h15q8 10 49 27.5t133 69.5l401 227q8 -4 13.5 -13.5t5.5 -4.5q6 -10 9 -17.5t7 -23.5l-270 -154l198 -592q-6 -2 -12 -3t-16 -1h-22.5t-22.5 2l-191 561l-313 -178l-68 -383q-10 -2 -21 -2h-18h-14t-18 2z" />
<glyph unicode="l" horiz-adv-x="296" d="M113 2l178 1020q12 2 20 2h15h16t20 -2l-178 -1020q-10 -2 -21 -2h-18h-14t-18 2z" />
<glyph unicode="m" horiz-adv-x="1239" d="M113 2l143 815q10 2 15 2h14h13t24 -2v-65h12q49 57 115.5 67t125.5 10q66 0 115 -15t80 -62q29 29 64.5 45t72.5 23t71 8t56 1q80 0 125 -23.5t65 -64.5q19 -39 18 -90v-5q-1 -54 -11 -118l-92 -526q-8 -2 -18.5 -2h-16.5h-14.5t-22.5 2l84 485q11 53 17 103q2 19 2 37 q0 28 -6 53q-10 39 -42 62.5t-100 23.5q-23 0 -57.5 -3t-71.5 -12.5t-68.5 -26.5t-48.5 -44q4 -23 5 -40t0 -33.5t-4 -35t-7 -43.5l-92 -526q-8 -2 -18.5 -2h-16.5h-16.5t-20.5 2l84 485q10 53 11 103v8q0 46 -12 82q-13 39 -47 62.5t-93 23.5q-70 0 -116 -12.5t-76.5 -38 t-48 -66.5t-27.5 -98l-97 -549q-8 -2 -18 -2h-16h-14.5t-22.5 2z" />
<glyph unicode="n" horiz-adv-x="864" d="M113 2l143 815q10 2 15 2h14h13t24 -2v-67h10q29 31 63.5 46t70.5 23t70.5 9t65.5 1q90 0 144.5 -23.5t82 -63.5t32.5 -96q1 -16 2 -34q0 -41 -9 -86l-92 -524q-10 -2 -20.5 -2h-16.5h-14.5t-20.5 2l84 485q10 53 16 103q1 13 1 25q-1 36 -13 65q-16 39 -61 62.5 t-135 23.5q-76 0 -129.5 -13.5t-88 -41t-55 -70.5t-30.5 -100l-95 -539q-8 -2 -19 -2h-18h-14t-20 2z" />
<glyph unicode="o" horiz-adv-x="831" d="M128 188q5 58 17 123l35 197q12 66 27.5 124t53.5 102t108.5 69.5t191.5 25.5t183 -25q62 -26 84 -70q18 -36 18 -82q0 -10 -1 -20q-5 -58 -18 -124l-34 -197q-12 -66 -26.5 -124t-52.5 -102t-108.5 -69.5t-191.5 -25.5t-182.5 25.5t-85.5 69.5q-19 36 -19 82q0 11 1 21z M201 196q-1 -9 -1 -17q0 -37 15 -63q18 -32 66.5 -46.5t142.5 -14.5t148.5 14.5t83 46t41 81t24.5 116.5l35 193q12 70 17 119q1 10 1 20q0 37 -14 61q-18 32 -67.5 46t-143.5 14t-147.5 -14.5t-83 -45t-42 -81t-24.5 -119.5l-35 -193q-12 -68 -16 -117z" />
<glyph unicode="p" horiz-adv-x="849" d="M45 -375l211 1192q12 2 20.5 2h14.5h16t21 -2l-13 -67h11q25 31 67.5 46t85.5 23t78 9t45 1q113 0 170 -25.5t78 -68.5q15 -33 15 -76q0 -12 -1 -25q-6 -59 -18 -126l-35 -197q-12 -66 -28.5 -124t-54.5 -102t-107.5 -69.5t-188.5 -25.5q-25 0 -55.5 1t-63 9t-63.5 25.5 t-53 48.5l-80 -449q-8 -2 -19.5 -2h-17.5h-14.5t-20.5 2zM228 224q-1 -10 -1 -19q0 -35 13 -64q16 -37 62 -61.5t140 -24.5t148.5 18.5t84.5 52.5t42 81t22 106l35 193q10 57 16 105q1 13 1 24q0 33 -11 59q-16 35 -59 53.5t-127 18.5q-80 0 -137.5 -18.5t-94 -50t-56 -72.5 t-27.5 -84l-41 -228q-6 -43 -10 -89z" />
<glyph unicode="q" horiz-adv-x="849" d="M130 188q3 58 15 123l35 197q12 68 27.5 126t51.5 101t101.5 68.5t178.5 25.5q10 0 44.5 -1t74.5 -9t77 -23.5t51 -45.5h11l12 67q10 2 20.5 2h16.5h14t21 -2l-211 -1192q-12 -2 -20.5 -2h-14.5h-17.5t-19.5 2l80 449q-33 -31 -70 -48.5t-71.5 -25.5t-66.5 -9t-56 -1 q-119 0 -179.5 25.5t-84.5 69.5q-20 39 -20 89v14zM203 207q-1 -9 -1 -17q0 -36 14 -64q17 -34 65.5 -52.5t142.5 -18.5t149.5 24.5t85 61.5t42 83t18.5 89l41 228q5 25 5 48q0 18 -3 36q-6 41 -33 72.5t-77 50t-130 18.5q-84 0 -133 -18.5t-76.5 -53.5t-39 -83t-21.5 -105 l-35 -193q-10 -59 -14 -106z" />
<glyph unicode="r" horiz-adv-x="505" d="M113 2l143 815q10 2 16.5 2h14.5h16t16 -4l3 -63h12q25 25 63.5 39t81.5 20t84 7t72 1h8q0 -10 -1 -17t-3 -18q0 -4 -3 -13t-7 -17h-51q-76 0 -128.5 -11.5t-87 -37t-54 -65.5t-29.5 -97l-95 -541q-10 -2 -20 -2h-17h-14t-20 2z" />
<glyph unicode="s" horiz-adv-x="751" d="M102 25q4 20 10.5 34.5t16.5 30.5q27 -10 63.5 -16t73.5 -10.5t71 -6.5t56 -2q70 0 115 8.5t72.5 28t42 51t22.5 76.5q2 10 2 19q-1 37 -27 62q-32 32 -86.5 55.5t-119 45t-117.5 50t-85 68.5q-24 30 -24 74q0 14 2 28q23 121 113 164.5t232 43.5q55 0 124.5 -6 t122.5 -20q-6 -12 -11 -27.5t-11 -30.5q-43 10 -106.5 15.5t-127.5 5.5q-70 0 -117 -7t-77.5 -24.5t-47 -45t-22.5 -68.5q-2 -9 -1 -17q0 -35 27 -59q34 -29 88 -52.5t118.5 -44t118 -50t85.5 -71.5q23 -30 23 -73q0 -16 -4 -35q-23 -127 -97.5 -178t-236.5 -51 q-31 0 -67.5 2t-75.5 7t-75 11t-63 15z" />
<glyph unicode="t" horiz-adv-x="505" d="M162 756q0 18 4 35q0 10 6 28h158l45 252q12 2 19 2h14h19t19 -2l-45 -252h181q0 -10 -1 -16t-1 -12q-2 -6 -3.5 -15.5t-5.5 -19.5h-180l-94 -525q-8 -47 -10 -78.5t10 -50t42 -27.5t85 -9h25q0 -12 -1.5 -19.5t-3.5 -15.5q0 -4 -2 -13.5t-4 -17.5h-22q-66 0 -108 10 t-64.5 37t-26.5 72q-1 11 -1 24q0 38 9 88l94 525h-157z" />
<glyph unicode="u" horiz-adv-x="854" d="M135 172q-1 14 -1 28q0 43 9 93l93 524q10 2 20 2h16h14.5t20.5 -2l-86 -485q-10 -54 -14 -104q-1 -11 -1 -20q0 -38 12 -69q15 -39 60.5 -62.5t135.5 -23.5q76 0 129 13.5t88 41t55.5 69.5t30.5 102l96 538q8 2 19.5 2h17.5h14t21 -2l-144 -815q-10 -2 -15 -2h-13h-13.5 t-23.5 2l-2 68h-10q-29 -31 -63 -46.5t-69.5 -23.5t-70.5 -9t-66 -1q-90 0 -145 23.5t-83 63.5t-32 95z" />
<glyph unicode="v" horiz-adv-x="778" d="M174 817q8 2 15.5 2h13.5h28t13 -2l147 -751l-2 -11h17l2 11l413 751q8 2 13.5 2h27.5h13.5t15.5 -2q-106 -205 -220 -404.5t-222 -404.5q-23 -6 -36.5 -7t-23.5 -1t-23.5 1t-35.5 7q-35 205 -79 404.5t-77 404.5z" />
<glyph unicode="w" horiz-adv-x="1015" d="M203 6l18 809q8 2 11.5 3t17.5 1h22.5t18.5 -2l-12 -749l-3 -13h25l2 11l268 522q25 6 41 6q10 0 17.5 -1t19.5 -5l84 -522l-2 -11h25l2 13l254 749q10 2 18 2h23q14 0 17 -1t11 -3l-268 -809q-23 -4 -37 -5t-43 -1h-36t-31 4l-74 438h-12l-230 -438q-20 -4 -31.5 -4 h-35.5q-29 0 -43.5 1t-36.5 5z" />
<glyph unicode="x" horiz-adv-x="839" d="M59 4l385 397l-249 412q14 6 32 6h26.5t27.5 -4l219 -358l346 358q8 4 26.5 4h26.5q16 0 33 -6l-397 -412l245 -397q-8 -4 -28 -4h-28.5t-37.5 4l-207 340l-325 -340q-18 -4 -37 -4h-29q-20 0 -29 4z" />
<glyph unicode="y" horiz-adv-x="763" d="M168 -371l162 301q16 31 30.5 45.5t24.5 20.5l2 8q-20 0 -33.5 1t-27.5 7q-35 203 -77 400.5t-75 402.5l6 2q6 2 15.5 2h13.5h16.5t16.5 -4l143 -729l-2 -14h23l2 14l401 729q4 4 16.5 4h16.5h13t15 -2l7 -2q-35 -68 -87.5 -164t-113 -205.5t-124 -226.5t-123.5 -226.5 t-111.5 -204.5t-86.5 -163q-6 -2 -28 -2q-10 0 -19.5 1t-15.5 5z" />
<glyph unicode="z" horiz-adv-x="784" d="M86 0v16t2 11q4 33 9 39t7 10l650 678h-537q0 14 1 21t1 13q2 8 4 15.5t6 15.5h613l-4 -24q-4 -18 -13 -50q-29 -31 -108 -112q-35 -35 -82 -86t-111.5 -120t-148.5 -159t-191 -202h525q2 -10 -2 -31q0 -10 -9 -35h-612z" />
<glyph unicode="{" horiz-adv-x="589" d="M199 483q0 10 1 15.5t1 9.5q2 4 3 11t5 18q37 2 63.5 10t47 31.5t35 64.5t26.5 109l55 307q4 23 28.5 53.5t72.5 30.5h139q0 -10 -4 -31q-2 -8 -3 -15t-5 -18h-72q-37 0 -60.5 -10t-33.5 -65l-45 -252q-14 -84 -44 -140.5t-73 -99.5q29 -41 40 -91t-5 -132l-47 -269 q-10 -55 11 -65t58 -10h72q0 -10 -4 -31q-2 -8 -3 -15.5t-5 -17.5h-142q-23 0 -37 9.5t-22 21.5t-9 26.5t1 26.5l53 309q12 68 12 109t-12 62.5t-36.5 28.5t-61.5 9z" />
<glyph unicode="|" horiz-adv-x="296" d="M90 -117l223 1258q12 2 20.5 2h14.5h16.5t20.5 -2l-223 -1258q-10 -2 -20.5 -2h-16.5h-14.5t-20.5 2z" />
<glyph unicode="}" horiz-adv-x="589" d="M92 -119q2 10 2 17.5t2 15.5q4 20 8 31h72q37 0 60.5 10t33.5 65l47 269q16 82 44 132t73 91q-29 43 -39 99.5t4 140.5l45 252q10 55 -11 65t-58 10h-72q2 10 2 17.5t2 15.5q4 20 8 31h140q23 0 38 -9.5t22 -21.5t10 -26.5t1 -26.5l-55 -307q-12 -68 -11 -109t13 -64.5 t35.5 -31.5t60.5 -10q-2 -10 -2 -17.5t-2 -11.5q0 -6 -6 -25q-37 -2 -63.5 -9t-46 -28.5t-35 -62.5t-27.5 -109l-53 -309q-4 -23 -28.5 -53.5t-72.5 -30.5h-141z" />
<glyph unicode="~" horiz-adv-x="948" d="M203 518q41 29 83 39t89 10q51 0 98 -20.5t92 -44t90 -44t95 -20.5q45 0 71.5 8.5t65.5 36.5q8 -12 14 -22q8 -16 10 -27q-37 -29 -81 -40t-93 -11q-51 0 -97 20.5t-90 44t-89 44t-94 20.5q-47 0 -74 -7t-64 -36q-6 6 -14 20q-4 8 -8 16.5t-4 12.5z" />
<glyph unicode="&#xad;" horiz-adv-x="741" d="M178 367q0 10 1 16t3 12q0 14 6 27h512q0 -6 -1 -12.5t-1 -14.5q-2 -6 -3 -12t-5 -16h-512z" />
<glyph unicode="&#xbc;" horiz-adv-x="1093" d="M252 889l225 131q12 2 22.5 3t16.5 1q8 0 10 -1t15 -3l-107 -612q-14 -2 -20 -3.5t-13 -1.5q-8 0 -14 1.5t-16 3.5l94 542q-41 -25 -88 -55.5t-92 -52.5q-8 4 -12.5 11t-8.5 11q-4 6 -8 10.5t-4 14.5zM307 6l629 1016q10 2 16 2h23h19.5t13.5 -4l-635 -1014 q-10 -4 -14.5 -5t-14.5 -1q-16 0 -22.5 1t-14.5 5zM629 195q2 12 0 14t0 8q2 8 4 16.5t6 20.5l301 362q12 4 23.5 4.5t25.5 0.5h22.5t18.5 -5l-65 -362h71q2 -12 2 -16.5t-2 -10.5q-2 -8 -3 -14t-7 -18h-72l-32 -191q-16 -4 -22.5 -4h-10.5h-15.5t-15.5 4l33 191h-262z M717 254h184l53 293z" />
<glyph unicode="&#xbd;" horiz-adv-x="1216" d="M252 889l225 131q12 2 22.5 3t16.5 1q8 0 10 -1t15 -3l-107 -612q-14 -2 -20 -3.5t-13 -1.5q-8 0 -14 1.5t-16 3.5l94 542q-41 -25 -88 -55.5t-92 -52.5q-8 4 -12.5 11t-8.5 11q-4 6 -8 10.5t-4 14.5zM307 6l629 1016q10 2 16 2h23h19.5t13.5 -4l-635 -1014 q-10 -4 -14.5 -5t-14.5 -1q-16 0 -22.5 1t-14.5 5zM709 0v33q4 16 14 39q25 57 89.5 104t133 90t123.5 87t66 93q8 43 -15.5 79t-111.5 36q-90 0 -125 -36t-43 -79q-12 -4 -21.5 -4h-13.5h-9t-20 4q4 29 15.5 60t37 56.5t70.5 42t119 16.5q72 0 111.5 -16.5t56 -41 t17.5 -55.5t-5 -59q-6 -39 -34.5 -75t-68.5 -70t-86 -65.5t-90.5 -61.5t-79 -59.5t-51.5 -58.5h338q0 -23 -2 -30q-2 -4 -3 -9.5t-5 -19.5h-407z" />
<glyph unicode="&#xbe;" horiz-adv-x="1169" d="M193 514.5q0 27.5 6 54.5q14 4 19 4h9h13.5t21.5 -4q-4 -23 -4 -41t11.5 -30.5t38 -18.5t73.5 -6q51 0 82 7t48 20.5t25.5 34t12.5 47.5q4 25 4 47t-13.5 37.5t-42 25.5t-83.5 10q0 10 1 15.5t1 9.5q0 2 6 25q53 2 86 10t51.5 23.5t26.5 37t12 45.5q4 27 3 46.5t-13.5 33 t-41 20.5t-79.5 7q-49 0 -78 -6t-44 -17.5t-21.5 -29t-10.5 -41.5q-12 -4 -21 -4h-13h-9.5t-19.5 4q6 27 15 53.5t33 49t67 36.5t114 14q76 0 117 -15t57.5 -40t15.5 -53.5t-7 -55.5q-6 -35 -28 -72.5t-71 -72.5q37 -31 45 -70t4 -73q-6 -29 -15 -58.5t-33.5 -54.5 t-69.5 -40t-121 -15q-74 0 -112 14t-53 36.5t-15 50zM383 6l629 1016q10 2 16 2h23h19t13 -4l-634 -1014q-10 -4 -14.5 -5t-14.5 -1q-16 0 -22.5 1t-14.5 5zM705 195h262l-33 -191q10 -4 15 -4h16h10t22 4l33 191h72q6 12 7 18t3 14q2 6 2 10.5t-2 16.5h-72l66 362 q-10 4 -18.5 4.5t-22.5 0.5h-25.5t-23.5 -5l-301 -362q-4 -12 -6 -20.5t-4 -16.5q-2 -6 0 -8t0 -14zM793 254l237 293l-53 -293h-184z" />
<glyph unicode="&#xbf;" horiz-adv-x="727" d="M111 0q8 53 35.5 93t64.5 70t78 55.5t77.5 53t63.5 61.5t35 79l39 223q14 4 23.5 4h13.5h16t18 -4l-38 -225q-10 -53 -38 -91t-65 -68t-78 -54.5t-76.5 -51t-62.5 -61.5t-35 -84q-8 -41 -5 -67.5t23.5 -43t61.5 -23.5t113 -7q123 0 200 35q12 -23 9 -60 q-51 -23 -110.5 -31t-113.5 -8q-139 0 -205.5 45t-43.5 160zM518 717l21 108q14 4 22 4h12h15.5t21.5 -4l-20 -108q-12 -4 -21.5 -4h-13.5h-14.5t-22.5 4z" />
<glyph unicode="&#xff;" horiz-adv-x="1941" />
<glyph unicode="&#xe01;" horiz-adv-x="841" d="M109 2l88 504q8 51 29.5 96t45 78t41 52.5t21.5 21.5l2 10h-107l7 35q72 23 138 26.5t142 3.5q186 0 265 -90t44 -280l-80 -457q-8 -2 -18 -2h-16h-14.5t-22.5 2l78 451q29 154 -28.5 232.5t-215.5 78.5h-88q-49 -55 -79 -103.5t-46 -82.5q-20 -41 -27 -76l-88 -500 q-8 -2 -19 -2h-18h-14t-20 2z" />
<glyph unicode="&#xe02;" horiz-adv-x="714" d="M122 135q1 33 5 51l41 236q14 88 28.5 143.5t29 90t30.5 52t37 29.5l2 17h-90q2 10 3 19t1 15q2 6 3 13.5t5 17.5h156l-19 -110q-16 -6 -30.5 -20.5t-27.5 -45.5t-27.5 -84t-28.5 -137l-41 -229q-4 -23 -1 -46.5t20.5 -44t52 -34t96.5 -13.5q59 0 99 13.5t63.5 33 t34.5 43t16 45.5l110 627q10 2 21.5 2h15.5h14.5t20.5 -2l-111 -631q-4 -18 -14 -51t-40 -65.5t-83 -56t-143 -23.5h-29q-92 0 -138 23.5t-64.5 56t-17.5 65.5z" />
<glyph unicode="&#xe03;" horiz-adv-x="686" d="M93 135q1 33 5 51l39 224q14 88 28.5 143t29 90t31 52.5t36.5 29.5l2 16h-80q0 16 2 29.5t4 22.5q0 14 7 26h45q2 0 2 -4q0 -10 -2 -16h49q2 4 6 8q2 4 4 6t4 6h39l-22 -123q-14 -6 -28.5 -20t-28 -45t-28 -84t-28.5 -137l-39 -217q-4 -23 -1 -46.5t20.5 -44t52 -34 t96.5 -13.5q59 0 99 13.5t63.5 33t35 43t15.5 45.5l111 627q10 2 21 2h15h14.5t20.5 -2l-110 -631q-4 -18 -14.5 -51t-40 -65.5t-83 -56t-143.5 -23.5h-29q-92 0 -138 23.5t-64.5 56t-17.5 65.5z" />
<glyph unicode="&#xe04;" horiz-adv-x="808" d="M72 2l82 465q12 68 29.5 133.5t57.5 116.5t109.5 81.5t186.5 30.5t176 -30.5t81.5 -81.5t17.5 -116.5t-17 -133.5l-82 -465q-8 -2 -18.5 -2h-16.5h-15.5t-21.5 2l86 494q8 43 11 90t-13 87t-62.5 65.5t-138.5 25.5t-146 -25.5t-85 -65.5t-43 -87t-21 -90l-20 -115h12 q12 6 36 10t50.5 6t54 3t48.5 1h41l-7 -32q0 -12 -10 -33h-43q-47 0 -96 -5t-100 -34l-52 -295q-8 -2 -18 -2h-16h-14.5t-22.5 2z" />
<glyph unicode="&#xe05;" horiz-adv-x="819" d="M72 2l82 463q10 61 25.5 119.5t44 107.5t75.5 85t121 52l106 -53h13l127 53q68 -16 101.5 -52t44.5 -85t7 -107.5t-14 -119.5l-82 -463q-8 -2 -18.5 -2h-16.5h-15t-22 2l80 455q8 43 13.5 89t0 87t-26 75.5t-65.5 57.5l-125 -55h-12l-108 55q-53 -23 -86 -57.5 t-52.5 -75.5t-29 -87t-17.5 -89l-14 -76h12q12 6 36 10t50.5 6t54 3t48.5 1h41l-7 -32q0 -12 -10 -33h-43q-47 0 -96 -5t-100 -34l-52 -295q-12 -2 -21 -2h-16h-16t-18 2z" />
<glyph unicode="&#xe06;" horiz-adv-x="792" d="M59 2l72 408q14 88 28.5 143t29 90t31 52.5t36.5 29.5l2 16h-80q0 16 2 29.5t4 22.5q0 14 6 26h46q2 0 2 -4q0 -10 -2 -16h49q2 4 6 8q2 4 4 6t4 6h39l-23 -123q-14 -6 -28.5 -20t-27.5 -45t-27.5 -84t-28.5 -137l-21 -109q-23 -127 40 -186.5t214 -59.5q119 0 172.5 77 t75.5 212l84 473q10 2 20.5 2h14.5h17t20 -2l-92 -526q-12 -66 -34 -120t-59 -95t-93 -63.5t-136 -22.5q-12 0 -54 2t-87 11t-82 29.5t-41 59.5l2 8h-12l-31 -98q-12 -2 -19.5 -2h-13.5q-18 0 -29 2z" />
<glyph unicode="&#xe07;" horiz-adv-x="647" d="M94 307q16 6 36 12.5t38 8.5q6 -55 19.5 -113.5t33.5 -151.5l-2 -8h12q51 4 105.5 29t102.5 69t84 109.5t52 151.5q12 70 19.5 132t-3.5 108t-49 73t-118 27h-37q2 23 6 37q0 8 1 10t5 18h37q100 0 151.5 -32.5t70 -88t11.5 -129t-22 -155.5q-14 -82 -51 -158t-92 -135.5 t-129 -95t-160 -35.5h-30.5t-30.5 4q-16 78 -29.5 156.5t-30.5 156.5z" />
<glyph unicode="&#xe08;" horiz-adv-x="727" d="M160 336l2 8q0 8 1 13t1 10l6 34h166l-31 -335h60q66 6 111.5 27.5t76.5 62.5t51.5 102t34.5 145l27 144q12 66 -1.5 107.5t-45 66t-79.5 34t-108 9.5q-53 0 -122.5 -8t-123.5 -19q-6 27 -6 62q31 8 69 14t74.5 9t68.5 5t50 2q76 0 137.5 -14t100.5 -49t54.5 -91.5 t0.5 -139.5l-24 -132q-14 -78 -38 -150.5t-65 -128.5t-103.5 -90t-154.5 -34q-23 0 -59.5 1t-59.5 7l29 328h-100z" />
<glyph unicode="&#xe09;" horiz-adv-x="804" d="M114 171q-3 54 9 120l33 192q10 2 19 2h18h14t20 -2l-24 -139q-12 -68 -13.5 -121t14 -91t50.5 -57.5t94 -19.5q152 0 235 59.5t105 186.5l45 246q12 66 -1 107.5t-45 66t-80 34t-109 9.5q-53 0 -122 -8t-122 -21q-4 12 -4 29.5v32.5q63 16 136 24t122 8q78 0 139.5 -14 t101 -49t54 -91.5t0.5 -139.5l-94 -533q-10 -2 -29 -2h-13.5t-19.5 2l2 98h-12l-2 -8q-16 -39 -60.5 -59.5t-92.5 -29.5t-90 -11t-54 -2q-80 0 -128 22.5t-70.5 63.5t-25.5 95z" />
<glyph unicode="&#xe0a;" horiz-adv-x="761" d="M125 134q-2 34 2 52l41 236q14 88 28.5 143.5t29 90t30.5 52t37 29.5l2 17h-90q2 10 3 19t1 15q2 6 3 13.5t5 17.5h156l-19 -110q-16 -6 -30.5 -20.5t-27.5 -45.5t-27.5 -84t-28.5 -137l-41 -234q-4 -23 3 -46t29.5 -42.5t60.5 -32t95 -12.5q59 0 102 12.5t72 31t45.5 42 t20.5 45.5l55 314q6 35 10 66.5t-3 56t-29.5 39t-67.5 14.5h-33q-4 16 2 33q2 10 4 18t6 18h35q45 0 70.5 10.5t39 27t18.5 36t9 39.5l9 39q8 2 18 2h18h17.5t17.5 -2l-8 -39q-2 -10 -7 -33.5t-19.5 -48t-38 -43t-62.5 -18.5l-2 -8q51 0 67.5 -53.5t0.5 -153.5l-56 -314 q-4 -18 -17 -52t-47 -65.5t-92.5 -55t-150.5 -23.5h-29q-92 0 -142 23.5t-71.5 55t-23.5 65.5z" />
<glyph unicode="&#xe0b;" horiz-adv-x="733" d="M96 134q-2 34 2 52l39 224q14 88 28.5 143t29 90t31 52.5t36.5 29.5l2 16h-80q0 16 2 29.5t4 22.5q0 14 7 26h45q2 0 2 -4q0 -10 -2 -16h49q2 4 6 8q2 4 4 6t4 6h39l-22 -123q-14 -6 -28.5 -20t-28 -45t-28 -84t-28.5 -137l-39 -222q-4 -23 3 -46t29.5 -42.5t60.5 -32 t95 -12.5q59 0 102.5 12.5t72 31t45 42t20.5 45.5l55 314q6 35 10.5 66.5t-3 56t-30 39t-67.5 14.5h-33q-4 16 2 33q2 10 4.5 18t6.5 18h35q45 0 70.5 10.5t38.5 27t18.5 36t9.5 39.5l8 39q8 2 18.5 2h18.5h17t18 -2l-9 -39q-2 -10 -7 -33.5t-19.5 -48t-38 -43t-62.5 -18.5 l-2 -8q51 0 67.5 -53.5t0.5 -153.5l-55 -314q-4 -18 -17.5 -52t-47.5 -65.5t-92 -55t-151 -23.5h-28q-92 0 -142.5 23.5t-72 55t-23.5 65.5z" />
<glyph unicode="&#xe0c;" horiz-adv-x="1357" d="M109 2l88 504q8 51 29.5 96t45 78t41 52.5t21.5 21.5l2 10h-107l7 35q72 23 138 26.5t142 3.5q186 0 265 -90t44 -280l-24 -144q-20 -115 32 -187.5t199 -72.5q61 0 99 21.5t60.5 58.5t33 84t20.5 98l88 500q10 2 18.5 2h14.5h15.5t23.5 -2l-92 -526q-12 -66 -31.5 -120 t-53.5 -95t-84 -63.5t-122 -22.5q-12 0 -49 2t-78 12t-76 30.5t-43 57.5l2 8h-12l-31 -98q-12 -2 -19 -2h-14q-18 0 -28 2l78 451q29 154 -28.5 232.5t-215.5 78.5h-88q-49 -55 -79 -103.5t-46 -82.5q-20 -41 -27 -76l-78 -436h115q0 -12 -1 -19.5t-3 -15.5q0 -4 -2 -13.5 t-4 -17.5h-154h-10t-22 2z" />
<glyph unicode="&#xe0d;" horiz-adv-x="1351" d="M109 2l88 504q8 51 29.5 96t45 78t41 52.5t21.5 21.5l2 10h-107l7 35q72 23 138 26.5t142 3.5q186 0 265 -90t44 -280l-26 -146q-8 -51 -14.5 -97t3 -82t38 -57.5t87.5 -21.5q150 0 225.5 60.5t98.5 191.5l90 510q10 2 18.5 2h16.5h15.5t21.5 -2l-133 -747 q-10 -66 -29.5 -119t-53.5 -91t-83 -59.5t-119 -21.5h-297q2 10 3 20.5t1 14.5l6 30h299q59 0 95 18.5t57.5 52.5t32 81t20.5 104h-14l-2 -8q-6 -35 -39 -55.5t-73 -30.5t-77 -13t-49 -3q-90 0 -140 22.5t-71.5 62.5t-20.5 94t11 118l29 166q29 154 -28.5 232.5t-215.5 78.5 h-88q-49 -55 -79 -103.5t-46 -82.5q-20 -41 -27 -76l-78 -436h115q0 -12 -1 -19.5t-3 -15.5q0 -4 -2 -13.5t-4 -17.5h-154h-10t-22 2z" />
<glyph unicode="&#xe0e;" horiz-adv-x="878" d="M63 0q-2 8 0.5 17.5t2.5 13.5q2 10 8 35h82l77 440q8 51 30 96t45.5 78t41 52.5t21.5 21.5l2 10h-107l6 35q72 23 138.5 26.5t142.5 3.5q186 0 265 -90t44 -280l-92 -525q-18 -104 -32.5 -169.5t-40 -102.5t-68.5 -50t-119 -13h-426q0 10 2 21t2 15l6 29h428 q49 0 77 10.5t44 40t27.5 81.5t27.5 138l90 519q29 154 -28.5 232.5t-214.5 78.5h-88q-49 -55 -79 -103.5t-46 -82.5q-20 -41 -27 -76l-88 -500q-16 -2 -22.5 -2h-10.5h-121z" />
<glyph unicode="&#xe0f;" horiz-adv-x="878" d="M63 0q-2 8 0.5 17.5t2.5 13.5q2 10 8 35h82l77 440q8 51 30 96t45.5 78t41 52.5t21.5 21.5l2 10h-107l6 35q72 23 138.5 26.5t142.5 3.5q186 0 265 -90t44 -280l-92 -525q-18 -104 -32.5 -169.5t-40 -102.5t-68.5 -50t-119 -13h-96l-95 55h-10l-110 -55h-115q0 10 2 21 t2 15l6 29h115l113 62h10l94 -62h96q49 0 77 10.5t44 40t27.5 81.5t27.5 138l90 519q29 154 -28.5 232.5t-214.5 78.5h-88q-49 -55 -79 -103.5t-46 -82.5q-20 -41 -27 -76l-88 -500q-16 -2 -22.5 -2h-10.5h-121z" />
<glyph unicode="&#xe10;" horiz-adv-x="731" d="M104 -238q0 16 5 33q2 6 3 14.5t5 18.5h51l117 51h10l98 -51h25q47 0 73.5 2t42 13.5t21.5 36t14 69.5l2 14q12 2 19.5 2h13.5h14.5t18.5 -2l-2 -14q-10 -55 -19.5 -92t-32 -57.5t-63.5 -29t-114 -8.5h-23l-100 52h-15l-112 -52h-52zM160 336l2 8q0 8 1 13t1 10l6 34h166 l-31 -335h60q66 6 111.5 27.5t76.5 62.5t51.5 102t34.5 145l27 144q12 66 -1.5 107.5t-45 66t-79.5 34t-108 9.5q-53 0 -122.5 -8t-123.5 -19q-6 27 -6 62q31 8 66 14t69.5 9t67 5t59.5 2q90 0 164 -22l4 27q39 45 109 45h76l-7 -33q-2 -10 -3 -17.5t-3 -15.5h-75 q-2 0 -7.5 1t-25.5 5l-8 -43q47 -35 66.5 -92t2.5 -149l-24 -132q-14 -78 -38 -150.5t-65 -128.5t-103.5 -90t-154.5 -34q-23 0 -59.5 1t-59.5 7l29 328h-100z" />
<glyph unicode="&#xe11;" horiz-adv-x="794" d="M61 2l76 430q14 84 35 137.5t41 87.5q23 37 47 62l4 22h-86q0 16 2 29.5t4 22.5q0 14 6 26h46q2 0 2 -4q0 -10 -2 -16h49q2 4 6 8q2 4 4 6t4 6h39l-12 -74h16q39 55 106.5 69.5t129.5 14.5q72 0 117.5 -23.5t71.5 -63.5t31 -95t-7 -119l-93 -526q-8 -2 -19 -2h-17h-14.5 t-20.5 2l82 473q8 51 10 103.5t-12.5 93.5t-48 66.5t-93.5 25.5q-162 0 -244.5 -84t-113.5 -258l-74 -420q-8 -2 -19.5 -2h-17.5h-14t-21 2z" />
<glyph unicode="&#xe12;" horiz-adv-x="1335" d="M104.5 121q-4.5 45 8.5 112l41 232q10 61 25.5 119.5t44 107.5t75.5 85t121 52l106 -53h13l127 53q68 -16 101.5 -52t44.5 -85t7 -107.5t-14 -119.5l-27 -150q-20 -115 32 -187.5t200 -72.5q61 0 99 21.5t60.5 58.5t32.5 84t21 98l88 500q10 2 18 2h14h15.5t23.5 -2 l-92 -526q-12 -66 -31.5 -120t-53.5 -95t-84 -63.5t-122 -22.5q-12 0 -49 2t-78 12t-75.5 30.5t-42.5 57.5l2 8h-13l-30 -98q-12 -2 -19.5 -2h-13.5q-18 0 -29 2l80 455q8 43 13.5 89t0 87t-26 75.5t-65.5 57.5l-125 -55h-12l-108 55q-53 -23 -86 -57.5t-52.5 -75.5t-29 -87 t-17.5 -89l-39 -219q-8 -49 -9 -82t11.5 -52.5t43 -28.5t85.5 -9h23q0 -12 -1 -19.5t-3 -15.5q0 -4 -2 -13.5t-4 -17.5h-21q-68 0 -110.5 11.5t-65 38t-27 71.5z" />
<glyph unicode="&#xe13;" horiz-adv-x="1357" d="M109 2l88 504q8 51 29.5 96t45 78t41 52.5t21.5 21.5l2 10h-107l7 35q72 23 138 26.5t142 3.5q186 0 265 -90t44 -280l-24 -142q-10 -51 -15.5 -98t4 -84t39 -58.5t91.5 -21.5q147 0 226 73t99 187l88 502q14 2 23.5 2h15.5h14.5t18.5 -2l-143 -815q-10 -2 -29 -2h-13.5 t-19.5 2l2 98h-12l-2 -8q-20 -37 -62.5 -57.5t-86.5 -30.5t-80.5 -12t-49.5 -2q-72 0 -114.5 19.5t-62 58t-19.5 95t12 128.5l27 162q29 154 -28.5 232.5t-215.5 78.5h-88q-49 -55 -79 -103.5t-46 -82.5q-20 -41 -27 -76l-78 -436h115q0 -12 -1 -19.5t-3 -15.5 q0 -4 -2 -13.5t-4 -17.5h-154h-10t-22 2z" />
<glyph unicode="&#xe14;" horiz-adv-x="819" d="M104.5 121q-4.5 45 8.5 112l41 232q12 68 30.5 133.5t60.5 116.5t112.5 82.5t185.5 31.5t175 -31.5t82.5 -82.5t19.5 -117t-15 -133l-82 -463q-8 -2 -18.5 -2h-16.5h-15t-22 2l82 467q8 45 12.5 97t-13 96.5t-63.5 73t-139 28.5q-92 0 -148 -28.5t-89 -73t-46.5 -96.5 t-21.5 -97l-41 -231q-8 -49 -9 -82t12.5 -52.5t43 -28.5t84.5 -9h23q0 -12 -1 -19.5t-3 -15.5q0 -4 -2 -13.5t-4 -17.5h-21q-68 0 -110.5 11.5t-65 38t-27 71.5z" />
<glyph unicode="&#xe15;" horiz-adv-x="819" d="M104.5 121q-4.5 45 8.5 112l41 232q10 61 25.5 119.5t44 107.5t75.5 85t121 52l106 -53h13l127 53q68 -16 101.5 -52t44.5 -85t7 -107.5t-14 -119.5l-82 -463q-8 -2 -18.5 -2h-16.5h-15t-22 2l80 455q8 43 13.5 89t0 87t-26 75.5t-65.5 57.5l-125 -55h-12l-108 55 q-53 -23 -86 -57.5t-52.5 -75.5t-29 -87t-17.5 -89l-39 -219q-8 -49 -9 -82t11.5 -52.5t43 -28.5t85.5 -9h23q0 -12 -1 -19.5t-3 -15.5q0 -4 -2 -13.5t-4 -17.5h-21q-68 0 -110.5 11.5t-65 38t-27 71.5z" />
<glyph unicode="&#xe16;" horiz-adv-x="841" d="M109 2l88 504q8 51 29.5 96t45 78t41 52.5t21.5 21.5l2 10h-107l7 35q72 23 138 26.5t142 3.5q186 0 265 -90t44 -280l-80 -457q-8 -2 -18 -2h-16h-14.5t-22.5 2l78 451q29 154 -28.5 232.5t-215.5 78.5h-88q-49 -55 -79 -103.5t-46 -82.5q-20 -41 -27 -76l-78 -436h115 q0 -12 -1 -19.5t-3 -15.5q0 -4 -2 -13.5t-4 -17.5h-154h-10t-22 2z" />
<glyph unicode="&#xe17;" horiz-adv-x="829" d="M96 2l144 815q10 2 28 2h13.5t19.5 -2l-4 -98h12l2 8q18 39 62.5 59.5t92.5 29.5t90 11t54 2q80 0 128 -22.5t70.5 -63.5t26 -96t-9.5 -119l-92 -526q-10 -2 -19 -2h-18h-14t-20 2l81 473q12 68 13.5 121t-14 91t-50.5 57.5t-94 19.5q-152 0 -234.5 -59.5t-105.5 -186.5 l-90 -516q-10 -2 -19.5 -2h-17.5h-14.5t-20.5 2z" />
<glyph unicode="&#xe18;" horiz-adv-x="753" d="M115 27l39 221q10 2 18 2h18h13.5t21.5 -2l-28 -160q68 -23 133 -28t96 -5q41 0 76 5.5t61.5 20.5t45 43t26.5 75l16 102q6 39 -27.5 63.5t-89 44t-120 37t-117.5 43t-86 62.5t-23 94t38 94t72 56.5t102.5 26.5t129.5 7q53 0 119 -5t117 -19q-4 -12 -9 -29.5t-9 -30.5 q-43 10 -103.5 14.5t-122.5 4.5q-72 0 -118 -2t-75.5 -13.5t-45 -36t-23.5 -67.5q-6 -35 29 -59.5t89 -46t118.5 -41t119 -42t88 -51t27.5 -67.5l-24 -139q-12 -63 -40 -103.5t-67 -64t-86 -32.5t-98 -9q-31 0 -70 2t-80 6t-81 11t-70 18z" />
<glyph unicode="&#xe19;" horiz-adv-x="815" d="M124 171q-3 54 9 120l92 526q10 2 19.5 2h17.5h14.5t20.5 -2l-84 -473q-12 -68 -13 -121t14 -91t50 -57.5t94 -19.5q152 0 235 59.5t105 186.5l93 516q10 2 19 2h17h14.5t20.5 -2l-143 -815q-10 -2 -29 -2h-13t-20 2l2 98h-12l-2 -8q-16 -39 -60 -59.5t-92.5 -29.5 t-90.5 -11t-54 -2q-80 0 -128 22.5t-70.5 63.5t-25.5 95z" />
<glyph unicode="&#xe1a;" horiz-adv-x="833" d="M128 185.5q3 58.5 15 123.5l90 508q10 2 18.5 2h16.5h15.5t21.5 -2l-92 -520q-8 -43 -11 -87t13 -78t63.5 -55.5t141.5 -21.5t150.5 21.5t86 55.5t41 78t19.5 87l92 520q12 2 20.5 2h16.5h14t21 -2l-90 -508q-12 -66 -29 -124t-55.5 -101t-109.5 -68.5t-187 -25.5 q-117 0 -177.5 25.5t-84 68.5t-20.5 101.5z" />
<glyph unicode="&#xe1b;" horiz-adv-x="833" d="M128 185.5q3 58.5 15 123.5l90 508q10 2 18.5 2h16.5h15.5t21.5 -2l-92 -520q-8 -43 -11 -87t13 -78t63.5 -55.5t141.5 -21.5t150.5 21.5t86 55.5t41 78t19.5 87l139 786q12 2 20.5 2h16.5h14.5t20.5 -2l-137 -774q-12 -66 -29 -124t-55.5 -101t-109.5 -68.5t-187 -25.5 q-117 0 -177.5 25.5t-84 68.5t-20.5 101.5z" />
<glyph unicode="&#xe1c;" horiz-adv-x="954" d="M139 8l76 807q10 4 15.5 4h13.5h172q0 -16 -2 -24q-2 -4 -4 -17.5t-7 -23.5h-124l-58 -699h19l2 15l290 518q18 4 27.5 5t22.5 1q12 0 20 -1t25 -5l106 -518l-2 -15h19l206 760q10 4 18.5 4h18.5h16.5t16.5 -4l-211 -807q-23 -6 -32 -7t-38 -1q-25 0 -44 1t-35 5l-95 504 h-12l-270 -504q-16 -4 -36 -5t-44 -1q-29 0 -38 1t-32 7z" />
<glyph unicode="&#xe1d;" horiz-adv-x="962" d="M139 8l76 807q10 4 15.5 4h13.5h172q0 -16 -2 -24q-2 -4 -4 -17.5t-7 -23.5h-124l-58 -699h19l2 15l290 518q18 4 27.5 5t22.5 1q12 0 20 -1t25 -5l106 -518l-2 -15h19l278 1026q10 4 18.5 4h18.5h16t17 -4l-283 -1073q-23 -6 -32 -7t-38 -1q-25 0 -44 1t-35 5l-95 504 h-12l-270 -504q-16 -4 -36 -5t-44 -1q-29 0 -38 1t-32 7z" />
<glyph unicode="&#xe1e;" horiz-adv-x="954" d="M139 8l76 807q10 4 16.5 4h16.5h18t19 -4l-64 -760h19l2 15l290 518q18 4 27.5 5t22.5 1q12 0 20 -1t25 -5l106 -518l-2 -15h19l206 760q10 4 18.5 4h18.5h16.5t16.5 -4l-211 -807q-23 -6 -32 -7t-38 -1q-25 0 -44 1t-35 5l-95 504h-12l-270 -504q-16 -4 -36 -5t-44 -1 q-29 0 -38 1t-32 7z" />
<glyph unicode="&#xe1f;" horiz-adv-x="964" d="M139 8l76 807q10 4 16.5 4h16.5h18t19 -4l-64 -760h19l2 15l290 518q18 4 27.5 5t22.5 1q12 0 20 -1t25 -5l106 -518l-2 -15h19l278 1026q10 4 18.5 4h18.5h16t17 -4l-283 -1073q-23 -6 -32 -7t-38 -1q-25 0 -44 1t-35 5l-95 504h-12l-270 -504q-16 -4 -36 -5t-44 -1 q-29 0 -38 1t-32 7z" />
<glyph unicode="&#xe20;" horiz-adv-x="878" d="M63 0q-2 8 0.5 17.5t2.5 13.5q2 10 8 35h82l77 440q8 51 30 96t45.5 78t41 52.5t21.5 21.5l2 10h-107l6 35q72 23 138.5 26.5t142.5 3.5q186 0 265 -90t44 -280l-80 -457q-8 -2 -18 -2h-16h-14.5t-22.5 2l77 451q29 154 -28.5 232.5t-214.5 78.5h-88q-49 -55 -79 -103.5 t-46 -82.5q-20 -41 -27 -76l-88 -500q-16 -2 -22.5 -2h-10.5h-121z" />
<glyph unicode="&#xe21;" horiz-adv-x="829" d="M96 2l144 815q10 2 20 2h14h17.5t19.5 -2l-92 -516q-23 -127 40 -186.5t214 -59.5q119 0 172 77t76 212l84 473q10 2 20.5 2h14.5h17t20 -2l-93 -526q-12 -66 -33.5 -120t-58.5 -95t-93 -63.5t-136 -22.5q-12 0 -54 2t-87.5 11t-82 29.5t-40.5 59.5l2 8h-13l-30 -98 q-12 -2 -19.5 -2h-13.5q-18 0 -29 2z" />
<glyph unicode="&#xe22;" horiz-adv-x="841" d="M100 150.5q4 44.5 13 89.5q8 51 28.5 85.5t42 55t40 31t26.5 12.5l2 8q-37 0 -53.5 28.5t-20.5 64.5t-1 68t5 40q12 70 42 107.5t71 55t92 20.5t105 3h28q0 -10 -1 -17t-1 -11q-2 -4 -4 -15.5t-6 -21.5q-59 0 -104.5 -3t-76 -15.5t-48 -36t-25.5 -66.5q-4 -18 -5 -48 t15.5 -57.5t60.5 -48t130 -20.5h24q-2 -16 -2 -20.5t-2 -14.5l-8 -33h-23q-76 0 -124 -9t-75.5 -28.5t-41 -48.5t-19.5 -65q-8 -47 -12 -82t8.5 -57.5t44 -34t94.5 -11.5h228q51 0 79.5 8.5t45 29t25 56t18.5 91.5l102 577q14 2 22.5 2h14.5h15.5t19.5 -2l-103 -579 q-12 -66 -23 -113t-36 -77t-70 -44t-120 -14h-228q-90 0 -135 22.5t-61.5 58t-12.5 80z" />
<glyph unicode="&#xe23;" horiz-adv-x="714" d="M121 20q4 18 11 36t20 34q49 -16 106 -25.5t109 -9.5q39 0 79.5 8.5t76.5 28t61.5 51t33.5 76.5q8 49 -25.5 79t-88.5 51.5t-121 41t-119 47t-85 70.5t-19 113q23 121 114 164.5t234 43.5q51 0 122.5 -6t125.5 -20q-4 -14 -10.5 -29.5t-12.5 -28.5q-43 10 -108.5 14.5 t-124.5 4.5q-72 0 -120 -7t-79 -23.5t-47 -44t-23 -68.5q-8 -49 26 -80t88 -54.5t119.5 -44t120 -48t86 -68.5t19.5 -107q-10 -63 -45 -107t-82 -71t-101.5 -39t-105.5 -12q-66 0 -125 7t-110 23z" />
<glyph unicode="&#xe24;" horiz-adv-x="841" d="M109 2l88 504q8 51 29.5 96t45 78t41 52.5t21.5 21.5l2 10h-107l7 35q72 23 138 26.5t142 3.5q186 0 265 -90t44 -280l-151 -858q-8 -2 -18.5 -2h-16.5h-14.5t-22.5 2l150 852q29 154 -28.5 232.5t-215.5 78.5h-88q-49 -55 -79 -103.5t-46 -82.5q-20 -41 -27 -76 l-78 -436h115q0 -12 -1 -19.5t-3 -15.5q0 -4 -2 -13.5t-4 -17.5h-154h-10t-22 2z" />
<glyph unicode="&#xe25;" horiz-adv-x="790" d="M90 121q-8 45 4 115q12 68 47 111.5t85 70t109.5 38t119.5 11.5q27 0 59.5 -2t65 -5t63.5 -10.5t51 -15.5h8l19 109q12 63 -4.5 106t-51 68.5t-86 36t-110.5 10.5q-53 0 -100 -4t-101 -19q-2 12 -2 32t2 32q55 14 119 19t111 5q78 0 139 -13t101 -47t54.5 -89t0.5 -139 l-95 -539q-8 -2 -18 -2h-16h-16.5t-20.5 2l67 387q-47 6 -95 7t-73 1q-66 0 -126 -2t-109 -17.5t-82 -47t-43 -90.5q-16 -92 27 -132t147 -42h57q0 -10 -1 -18.5t-3 -16.5q0 -10 -6 -31h-55q-74 0 -124 11.5t-80 38t-38 71.5z" />
<glyph unicode="&#xe26;" horiz-adv-x="868" d="M53 0q-2 8 0 17.5t2 13.5q2 10 8 35h82l78 440q8 51 29.5 96t45.5 78t41 52.5t21 21.5l2 10h-106l6 35q72 23 138.5 26.5t142.5 3.5q186 0 265 -90t44 -280l-152 -858q-8 -2 -18 -2h-16h-14.5t-22.5 2l149 852q29 154 -28.5 232.5t-214.5 78.5h-89q-49 -55 -78.5 -103.5 t-45.5 -82.5q-20 -41 -27 -76l-88 -500q-16 -2 -22.5 -2h-10.5h-121z" />
<glyph unicode="&#xe27;" horiz-adv-x="663" d="M113 8q10 33 26 60q31 -8 61.5 -10.5t84.5 -2.5q49 0 93 8.5t80 31t60.5 63.5t36.5 106l49 279q12 70 -1 113.5t-45 67.5t-81 32t-108 8q-53 0 -102.5 -4t-96.5 -19q-4 12 -5 29.5t1 30.5q57 20 120.5 24t110.5 4q78 0 137.5 -13t95.5 -47t48 -89t-2 -139l-49 -277 q-14 -82 -47 -135t-78 -84t-99.5 -43t-111.5 -12q-51 0 -88 3t-90 15z" />
<glyph unicode="&#xe28;" horiz-adv-x="808" d="M72 2l82 465q12 68 29.5 133.5t57.5 116.5t109.5 81.5t186.5 30.5q86 0 141 -18l4 23q39 45 109 45h75l-6 -33q-2 -10 -3 -17.5t-3 -15.5h-76q-2 0 -7 1t-26 5l-6 -37q35 -25 51.5 -59.5t19.5 -75.5t-2 -87t-13 -93l-82 -465q-8 -2 -18.5 -2h-16.5h-15.5t-21.5 2l86 494 q8 43 11 90t-13 87t-62.5 65.5t-138.5 25.5t-146 -25.5t-85 -65.5t-43 -87t-21 -90l-20 -115h12q12 6 36 10t50.5 6t54 3t48.5 1h41l-7 -32q0 -12 -10 -33h-43q-47 0 -96 -5t-100 -34l-52 -295q-8 -2 -18 -2h-16h-14.5t-22.5 2z" />
<glyph unicode="&#xe29;" horiz-adv-x="849" d="M128 185.5q3 58.5 15 123.5l90 508q10 2 18.5 2h16.5h15.5t21.5 -2l-92 -520q-8 -43 -11 -87t13 -78t63.5 -55.5t141.5 -21.5t150.5 21.5t86 55.5t41 78t19.5 87l22 127h-315q-4 29 -1 54.5t7 47.5l6 37q10 4 29 4h23.5t19.5 -4l-19 -102h13q20 10 52 15t66.5 8t68.5 4 t63 1l57 328q12 2 20.5 2h16.5h14t21 -2l-58 -328h66q4 -4 2 -16t-2 -18q-2 -4 -4 -13.5t-6 -17.5h-68l-20 -115q-12 -66 -29 -124t-55.5 -101t-109.5 -68.5t-187 -25.5q-117 0 -177.5 25.5t-84 68.5t-20.5 101.5z" />
<glyph unicode="&#xe2a;" horiz-adv-x="792" d="M90 121q-8 45 4 115q12 68 47 111.5t85 70t109.5 38t119.5 11.5q27 0 59.5 -2t65 -5t63.5 -10.5t51 -15.5h8l19 109q12 63 -4.5 106t-51 68.5t-86 36t-110.5 10.5q-53 0 -100 -4t-101 -19q-2 12 -2 32t2 32q55 14 119 19t111 5t90 -5t78 -17l4 27q39 45 108 45h76l-6 -33 q-2 -10 -3 -17.5t-3 -15.5h-76q-2 0 -7 1t-26 5l-6 -41q45 -33 63.5 -90t2.5 -147l-95 -539q-8 -2 -18 -2h-16h-16.5t-20.5 2l67 387q-47 6 -95 7t-73 1q-66 0 -126 -2t-109 -17.5t-82 -47t-43 -90.5q-16 -92 27 -132t147 -42h57q0 -10 -1 -18.5t-3 -16.5q0 -10 -6 -31h-55 q-74 0 -124 11.5t-80 38t-38 71.5z" />
<glyph unicode="&#xe2b;" horiz-adv-x="815" d="M96 2l144 815q10 2 14 2h14h13.5t19.5 -2l-10 -112l-29 -168h221q98 0 180 57t105 174l8 49q16 2 23.5 2h13.5h15.5t19.5 -2l-10 -51q-10 -66 -39 -122t-68 -93q33 -53 48.5 -118.5t2.5 -137.5l-51 -293q-8 -2 -19.5 -2h-17.5h-14t-21 2l52 295q6 53 -3.5 102.5 t-37.5 114.5h-11q-12 -16 -45.5 -24.5t-73.5 -12.5t-76 -5t-52 -1h-162l-82 -469q-8 -2 -19.5 -2h-17.5h-14t-21 2z" />
<glyph unicode="&#xe2c;" horiz-adv-x="929" d="M139 8l76 807q10 4 16.5 4h16.5h18t19 -4l-64 -760h19l2 15l290 518q18 4 27.5 5t22.5 1q12 0 20 -1t25 -5l106 -518l-2 -15h19l172 631q6 35 10 66.5t-3 56.5t-29.5 39t-68.5 14h-32q-4 16 2 33q2 10 4 18.5t6 18.5h35q45 0 70.5 10t39 26.5t18.5 36t9 39.5l8 39 q8 2 18.5 2h18.5h17.5t17.5 -2l-8 -39q-2 -10 -7.5 -33.5t-19.5 -48t-37.5 -43t-62.5 -18.5l-2 -8q47 0 68.5 -43t6.5 -127q-2 -10 -4 -18.5t-4 -18.5l-178 -678q-23 -6 -32 -7t-38 -1q-25 0 -44 1t-35 5l-95 504h-12l-270 -504q-16 -4 -36 -5t-44 -1q-29 0 -38 1t-32 7z " />
<glyph unicode="&#xe2d;" horiz-adv-x="788" d="M115 169q0 58 14 136l23 131h196q0 -10 -1 -17t-3 -18q0 -4 -2 -12t-6 -18h-125l-18 -105q-8 -47 -8.5 -86t20 -66.5t65.5 -43t125 -15.5q66 0 114 6.5t84 38t61.5 100t47.5 193.5l29 154q10 63 -2 105t-45 66.5t-81 35t-109 10.5q-51 0 -122 -4t-130 -19q-2 14 -3 32 t1 32q66 16 138.5 20t125.5 4q78 0 139.5 -14t101 -49t55 -91.5t1.5 -139.5l-33 -185q-18 -98 -42 -166.5t-67 -111.5t-108.5 -62.5t-165.5 -19.5q-104 0 -161.5 20.5t-83 60.5t-25.5 98z" />
<glyph unicode="&#xe2e;" horiz-adv-x="788" d="M115 169q0 58 14 136l23 131h196q0 -10 -1 -17t-3 -18q0 -4 -2 -12t-6 -18h-125l-18 -105q-8 -47 -8.5 -86t20 -66.5t65.5 -43t125 -15.5q66 0 114 6.5t84 38t61.5 100t47.5 193.5l29 154q10 63 -2 105t-45 66.5t-81 35t-109 10.5q-51 0 -122 -4t-130 -19q-2 14 -3 32 t1 32q66 16 138.5 20t125.5 4q96 0 168 -24l4 29q39 45 108 45h76l-6 -33q-2 -10 -3 -17.5t-3 -15.5h-76q-2 0 -7 1t-26 5l-8 -45q47 -35 66.5 -92t3.5 -147l-33 -185q-18 -98 -42 -166.5t-67 -111.5t-108.5 -62.5t-165.5 -19.5q-104 0 -161.5 20.5t-83 60.5t-25.5 98z" />
<glyph unicode="&#xe2f;" horiz-adv-x="675" d="M174 680q2 37 6 55l15 82q10 2 17 2h13h18.5t22.5 -2l-14 -84q-4 -23 -2 -49.5t18.5 -49t50 -38.5t93.5 -16q59 0 99 16t65.5 39.5t38 50.5t16.5 49l14 82q10 2 18.5 2h14.5h17.5t21.5 -2l-166 -938q-8 -2 -18.5 -2h-16.5h-15t-22 2l127 719q-43 -57 -94 -70.5t-94 -13.5 h-29q-92 0 -138 27.5t-62.5 64.5t-14.5 74z" />
<glyph unicode="&#xe30;" horiz-adv-x="471" d="M96 160q-2 29 2 58.5t8 57.5l3 11q10 2 30 2h35l-16 -92h10q25 10 41 16t37.5 9t55.5 3h93h54q-2 -12 -2.5 -18t-2.5 -10q0 -8 -2 -17.5t-6 -19.5h-340zM170 569q-4 29 1 58.5t9 58.5v10q10 2 16.5 2h16.5h35l-17 -92h11q25 10 40 16.5t36.5 9.5t55.5 3h93h53 q0 -12 -1 -18.5t-1 -10.5q-2 -8 -3 -17t-5 -20h-340z" />
<glyph unicode="&#xe31;" d="M-315 993q-4 29 1 58.5t9 58.5l2 10q10 2 31 2h34l-16 -92h10q25 10 41.5 16.5t38 9.5t55 3h93.5h200q-2 -12 -2 -18.5t-2 -10.5q-2 -8 -3 -17t-5 -20h-487z" />
<glyph unicode="&#xe32;" horiz-adv-x="555" d="M131 770.5q0 17.5 2 30.5q33 10 65.5 16t62.5 9t50.5 3h28.5q74 0 120 -20.5t68.5 -55t25.5 -82.5t-7 -104l-98 -565q-10 -2 -20.5 -2h-16.5h-16.5t-18.5 2l100 567q4 31 5 65t-12 62.5t-46 48t-96 19.5q-45 0 -95.5 -5t-97.5 -16q-4 10 -4 27.5z" />
<glyph unicode="&#xe33;" horiz-adv-x="483" d="M-180 1090q10 57 58.5 98t103.5 41q57 0 89.5 -41t22.5 -98t-57 -97.5t-105 -40.5q-55 0 -88.5 40t-23.5 98zM-115 1090q-4 -31 13.5 -51.5t46.5 -20.5q35 0 58.5 20.5t27.5 51.5q6 35 -10.5 55t-49.5 20q-29 0 -54.5 -20.5t-31.5 -54.5zM131 770.5q0 17.5 2 30.5 q33 10 65.5 16t62.5 9t50.5 3h28.5q74 0 120 -20.5t68.5 -55t25.5 -82.5t-7 -104l-98 -565q-10 -2 -20.5 -2h-16.5h-16.5t-18.5 2l100 567q4 31 5 65t-12 62.5t-46 48t-96 19.5q-45 0 -95.5 -5t-97.5 -16q-4 10 -4 27.5z" />
<glyph unicode="&#xe34;" d="M-516 993q0 10 4 31q0 8 4 20h25q14 0 30 5q31 4 73 7t65 3h403q-2 -16 -2 -20.5t-2 -12.5q-2 -6 -3 -14t-5 -19h-592z" />
<glyph unicode="&#xe35;" d="M-500 993q0 12 4 33l7 33h268q90 0 138 -2t87 -17h10l17 93q10 4 18 4h17q10 0 18 -1t18 -6q-8 -37 -15 -69.5t-24 -67.5h-563z" />
<glyph unicode="&#xe36;" d="M-500 993q0 12 4 33l7 33h239q37 0 87 -2t91 -15v19l2 8q6 39 34 63.5t61 24.5q35 0 54 -23.5t13 -58.5t-33.5 -56.5t-62.5 -25.5h-496z" />
<glyph unicode="&#xe37;" d="M-500 993q0 12 4 33l7 33h195.5t107 -2t49 -6t24.5 -11h15l16 95q10 2 18.5 2h18.5h18.5t16.5 -4l-17 -93h41l17 93q10 4 18 4h17q10 0 18 -1t18 -6q-8 -37 -15 -69.5t-24 -67.5h-563z" />
<glyph unicode="&#xe38;" d="M-250 -176q0 8 2 22t12 31q35 0 67 -2t50 -6l-37 -215q-20 -4 -30 -4h-22.5t-18.5 2q6 39 14 74.5t23 70.5l2 13l-62 2v12z" />
<glyph unicode="&#xe39;" d="M-422 -190q0 4 1 19t3 26q2 4 3 10t5 12q37 0 72 -2t51 -6l-28 -160h96l31 164q12 4 20 4h14q20 0 37 -4l-39 -215q-25 -6 -61.5 -7t-52.5 -1q-37 0 -64.5 2t-60.5 10l2 12q6 31 12 57.5t16 65.5l3 13h-60z" />
<glyph unicode="&#xe3a;" d="M-223 -174q4 23 21.5 37t35.5 14t31.5 -14.5t9.5 -36.5q-4 -18 -22.5 -32.5t-36.5 -14.5t-30.5 14t-8.5 33z" />
<glyph unicode="&#xe3b;" />
<glyph unicode="&#xe3c;" />
<glyph unicode="&#xe3d;" />
<glyph unicode="&#xe3e;" />
<glyph unicode="&#xe3f;" horiz-adv-x="960" d="M113 0l180 1024h342l20 123q12 2 20.5 2h18.5h13.5t19.5 -2l-20 -123h8q68 0 127 -4t100 -29.5t58.5 -82t-1.5 -158.5q-14 -84 -48.5 -143.5t-110.5 -100.5q61 -41 75.5 -96.5t-0.5 -133.5q-18 -102 -55 -158.5t-88 -83t-113.5 -30.5t-132.5 -4l-22 -125q-12 -2 -19.5 -2 h-13.5h-18.5t-20.5 2l23 125h-342zM195 63h270l74 416h-271zM279 543h270l74 418h-271zM537 63h8q61 0 111.5 5.5t87 26t62 63.5t38.5 118q14 76 -3.5 117t-52 60.5t-80.5 22.5t-90 3h-8zM621 543h8q43 0 90 4t89 23.5t74.5 61.5t45.5 118q12 76 3 118.5t-39 63t-78 25 t-112 4.5h-8z" />
<glyph unicode="&#xe40;" horiz-adv-x="280" d="M106 2l144 815q10 2 18 2h15h17t22 -2l-144 -815q-10 -2 -21.5 -2h-17.5h-14t-19 2z" />
<glyph unicode="&#xe41;" horiz-adv-x="552" d="M113 2l143 815q10 2 18.5 2h14.5h17t22 -2l-144 -815q-10 -2 -21 -2h-18h-14t-18 2zM379 2l143 815q10 2 18.5 2h14.5h17.5t21.5 -2l-143 -815q-10 -2 -21.5 -2h-17.5h-14.5t-18.5 2z" />
<glyph unicode="&#xe42;" horiz-adv-x="358" d="M127 2l149 848q12 70 13.5 119t-3.5 80.5t-11.5 49t-6.5 21.5q-2 16 -1 28.5t5 25.5q0 8 4.5 24t8.5 31h393q0 -12 -4 -33q0 -4 -1 -14.5t-5 -18.5h-326l-2 -12l7 -13q7 -14 12.5 -48.5t4 -93t-15.5 -146.5l-149 -848q-10 -2 -20.5 -2h-16.5h-15.5t-19.5 2z" />
<glyph unicode="&#xe43;" horiz-adv-x="325" d="M135 2l123 703q14 80 44 128t60.5 83.5t57 65.5t33.5 71q6 37 8 60.5t-9.5 38.5t-39 21.5t-80.5 6.5q-14 0 -52 -4.5t-90 -28.5q-4 10 -7 26.5t-5 30.5q29 14 57.5 23.5t52 12.5t39 4t17.5 1q68 0 108 -11t58 -34.5t20 -59.5t-6 -83q-6 -41 -33.5 -78t-59.5 -77 t-60.5 -87t-40.5 -110l-123 -703q-10 -2 -21.5 -2h-17.5h-13.5t-19.5 2z" />
<glyph unicode="&#xe44;" horiz-adv-x="358" d="M121 1163q0 8 1 18.5t1 14.5q2 8 3 16.5t5 16.5h393q0 -14 -2 -30.5t-2 -24.5q-4 -12 -6 -24.5t-10 -29.5q-2 -4 -14.5 -21.5t-28 -49t-31.5 -80.5t-29 -119l-149 -848q-12 -2 -19.5 -2h-15.5h-16.5t-20.5 2l150 848q14 88 34.5 146.5t38 93t29.5 48.5l12 13l2 12h-325z " />
<glyph unicode="&#xe45;" horiz-adv-x="555" d="M131 770.5q0 17.5 2 30.5q33 10 65.5 16t62.5 9t50.5 3h28.5q74 0 120 -20.5t68.5 -55t25.5 -82.5t-7 -104l-170 -966q-10 -2 -20.5 -2h-16.5h-16.5t-18.5 2l172 968q4 31 5 65t-12 62.5t-46 48t-96 19.5q-45 0 -95.5 -5t-97.5 -16q-4 10 -4 27.5z" />
<glyph unicode="&#xe46;" horiz-adv-x="700" d="M158 555l22 127q8 45 28.5 72.5t44 43t46.5 20.5t35 5h8q63 0 92 -15t21 -54h10q8 39 33.5 54t97.5 15h10q12 0 34 -5t42 -20.5t31.5 -43t3.5 -72.5l-142 -803q-8 -2 -18 -2h-16h-16.5t-20.5 2l143 807q4 27 -6 49.5t-37 22.5h-33q-33 0 -53 -13.5t-35 -66.5l-8 -45 q-8 -2 -19.5 -2h-17.5h-14t-21 2l9 45q4 53 -11.5 66.5t-44.5 13.5h-34q-29 0 -47.5 -28t-22.5 -54l-23 -121q-8 -2 -19 -2h-17h-14.5t-20.5 2z" />
<glyph unicode="&#xe47;" d="M-385 1124l2 9q8 43 27.5 69.5t43 40.5t44 19.5t32.5 5.5h429q0 -10 -1.5 -20.5t-1.5 -14.5q-2 -4 -4 -15.5t-6 -15.5h-399q-59 0 -73.5 -21.5t-18.5 -43.5l-4 -33q-6 -29 7 -37t48 -8h18q41 0 55.5 12t22.5 45q10 2 17.5 2h13.5h12t19 -2q-4 -33 5 -45t46 -12h22 q41 0 51.5 13t14.5 42q12 2 18 2h13h12t18 -2q-8 -47 -28.5 -71.5t-42.5 -34.5q-25 -12 -56 -15h-16q-47 0 -73.5 7.5t-22.5 35.5h-13q-4 -29 -37.5 -36t-80.5 -7h-15q-16 0 -35.5 5.5t-36 18.5t-24.5 38.5t-2 68.5z" />
<glyph unicode="&#xe48;" d="M61 1305l21 122q12 4 21.5 4.5t15.5 0.5h18t17 -5l-21 -122q-10 -4 -19.5 -4.5t-19.5 -0.5h-14t-19 5z" />
<glyph unicode="&#xe49;" d="M-86 1370v16.5t2 16.5q2 4 4 13t6 20h146l-17 -90h13q37 16 104.5 18t132.5 2h41q-2 -16 -2 -21.5t-2 -11.5q0 -4 -3 -15t-7 -18h-355l13 70h-76z" />
<glyph unicode="&#xe4a;" d="M-283 1303l17 92q6 37 21.5 61.5t33.5 38.5t36.5 20.5t33.5 6.5h10q35 0 59.5 -9.5t18.5 -37.5h12q6 29 36 38t64 9h11q14 0 30.5 -6.5t29.5 -20.5t19.5 -38.5t0.5 -61.5l-7 -29h78q0 -14 -4 -35l-8 -31h-103h-24t-21 3l15 88q6 29 4 47t-31 18h-20q-31 0 -37 -7t-15 -46 l-2 -19q-10 -4 -21 -4h-17h-12.5t-18.5 4l2 19q8 39 4 46t-37 7h-22q-27 0 -35 -18.5t-15 -46.5l-4 -25h49q0 -20 -4 -33q0 -4 -2 -13t-6 -20h-86q-25 0 -33 3z" />
<glyph unicode="&#xe4b;" d="M-4 1370q0 8 2 19.5t2 19.5q0 10 6 29h78l12 71q12 4 21.5 4h15.5h18.5t16.5 -4l-12 -71h75q0 -10 -1 -17.5t-1 -11.5q-2 -8 -4 -19.5t-6 -19.5h-76l-10 -65q-10 -4 -19.5 -4.5t-19.5 -0.5h-14t-19 5l11 65h-76z" />
<glyph unicode="&#xe4c;" d="M-8 1303q6 35 14 63.5t21 63.5h260q0 -10 -4 -27q0 -4 -2.5 -16.5t-6.5 -22.5q-49 0 -97 2t-89 12h-14l-15 -78h-36h-16.5t-14.5 3z" />
<glyph unicode="&#xe4d;" d="M-180 1090q10 57 58.5 98t103.5 41q57 0 89.5 -41t22.5 -98t-57 -97.5t-105 -40.5q-55 0 -88.5 40t-23.5 98zM-115 1090q-4 -31 13.5 -51.5t46.5 -20.5q35 0 58.5 20.5t27.5 51.5q6 35 -10.5 55t-49.5 20q-29 0 -54.5 -20.5t-31.5 -54.5z" />
<glyph unicode="&#xe4e;" />
<glyph unicode="&#xe4f;" horiz-adv-x="915" d="M186 420q12 74 50 137.5t92.5 110.5t122 73.5t139.5 26.5q74 0 132 -26.5t96 -73.5t54.5 -110.5t4.5 -137.5q-12 -72 -51.5 -134.5t-94.5 -108.5t-122.5 -72.5t-141.5 -26.5q-72 0 -130 26.5t-96 72.5t-52.5 108.5t-2.5 134.5zM233 420q-12 -61 1.5 -115.5t46 -94.5 t83 -62.5t111.5 -22.5q63 0 121.5 22.5t107 62.5t81 94t44.5 116q10 63 -3 117.5t-47 95.5t-84 64.5t-113 23.5q-61 0 -120 -23.5t-106 -64.5t-79.5 -95.5t-43.5 -117.5zM326 420q6 43 28.5 80t54 64.5t71.5 44t83 16.5q84 0 132 -59.5t34 -145.5q-8 -41 -30.5 -78 t-54.5 -64.5t-72 -43t-80 -15.5q-43 0 -77 15.5t-56.5 43t-31.5 64.5t-1 78z" />
<glyph unicode="&#xe50;" horiz-adv-x="821" d="M122 193.5q5 60.5 17 132.5q12 70 28.5 129t56.5 104t110.5 70.5t191.5 25.5q119 0 181.5 -25.5t85 -70.5t18.5 -107.5t-16 -134.5q-12 -68 -28.5 -127t-56.5 -104t-111 -70.5t-189 -25.5q-121 0 -183.5 25.5t-86 71.5t-18.5 106.5zM194.5 212q-4.5 -48 13 -83t67 -54.5 t145.5 -19.5t151.5 19.5t86 54.5t43 83t22.5 107q10 61 15 111.5t-13 85.5t-66.5 54.5t-144.5 19.5t-152.5 -19.5t-86 -55.5t-43 -86t-23.5 -110q-10 -59 -14.5 -107z" />
<glyph unicode="&#xe51;" horiz-adv-x="806" d="M115 -14q4 10 12 30.5t14 32.5q51 -12 120 -20.5t122 -8.5q59 0 111.5 12.5t93.5 39t68.5 70.5t39.5 110l13 70q10 61 15 110t-12.5 85t-66.5 54.5t-143 18.5q-96 0 -150.5 -13.5t-82 -36t-38 -55t-16.5 -71.5q-8 -47 -11 -78t9 -48.5t42 -24.5t87 -7l-12 -66 q-84 2 -127 13.5t-60.5 37t-13.5 69.5t16 110q6 39 20.5 81t51.5 75.5t106.5 56t190.5 22.5q119 0 180.5 -25.5t85 -70.5t18.5 -106.5t-18 -133.5l-10 -53q-29 -168 -135.5 -239.5t-263.5 -71.5q-53 0 -127 7t-129 24z" />
<glyph unicode="&#xe52;" horiz-adv-x="845" d="M113 114q-4 46 8 117l100 568q12 2 19.5 2h15.5h16.5t20.5 -2l-98 -561q-10 -51 -11.5 -86t12 -56.5t45 -31t89.5 -9.5h205q57 0 92 9.5t55 31t30.5 56t20.5 86.5l8 49q12 68 20.5 123t3.5 95t-27.5 62.5t-69.5 22.5q-23 -10 -52.5 -24.5t-48.5 -28.5h-8l-82 53 q-35 -8 -58.5 -20.5t-45.5 -30.5q-10 4 -14.5 11t-8.5 13q-4 4 -5 13.5t-3 15.5q27 20 65.5 35.5t81.5 27.5l80 -53h9q31 16 58.5 30.5t43.5 22.5q66 0 100.5 -24.5t47 -71.5t6 -118.5t-22.5 -164.5l-8 -45q-12 -72 -31.5 -117.5t-51.5 -73.5t-80 -39t-118 -11h-200 q-70 0 -115 11t-67.5 39t-26.5 74z" />
<glyph unicode="&#xe53;" horiz-adv-x="851" d="M114 122q-3 46 9 118l8 41q12 70 29.5 131t48.5 110t79 83t124 50l114 -49h13l131 49q70 -16 105.5 -50t50 -83t10 -110.5t-16.5 -130.5l-49 -279q-10 -2 -20.5 -2h-16.5h-14t-21 2l50 279q12 78 15 130t-8.5 88t-36 56t-67.5 35l-125 -51h-12l-108 51q-47 -14 -80 -34.5 t-55.5 -56.5t-39 -88.5t-28.5 -129.5l-8 -37q-8 -49 -9.5 -82t11 -53.5t44 -30.5t87.5 -10h22q0 -14 -1 -22.5t-3 -16.5q-2 -4 -2 -11.5t-4 -17.5h-21q-68 0 -111.5 11.5t-67 38t-26.5 72.5z" />
<glyph unicode="&#xe54;" horiz-adv-x="894" d="M113 193.5q4 60.5 16 132.5q12 70 36.5 129t73 104t121 70.5t181.5 25.5q72 0 136 2t114.5 14.5t84 38t42.5 74.5l2 9q14 2 21 2h13l39 -2l-2 -9q-12 -70 -55 -108.5t-105.5 -58t-141.5 -23.5t-161 -4q-96 0 -156.5 -25.5t-96 -64.5t-52 -87t-24.5 -94 q-10 -57 -13.5 -105t22 -84t90 -55.5t191.5 -19.5q-18 16 -24 43t-7 56.5t3 58.5t8 49l18 100h150q-2 -10 -2 -17t-2 -15q-2 -6 -3 -15.5t-5 -19.5h-78q-8 -45 -13.5 -88t4 -77t39 -54.5t91.5 -20.5h159q2 -10 1 -19t-3 -16q0 -12 -8 -30h-346q-147 0 -224 25.5t-107.5 71.5 t-26.5 106.5z" />
<glyph unicode="&#xe55;" horiz-adv-x="894" d="M113 193.5q4 60.5 16 132.5q10 63 34.5 119.5t64.5 100.5t97.5 72.5t137.5 36.5q-8 16 -12.5 30.5t0.5 35.5q8 47 44.5 81t82.5 34q47 0 75.5 -34t20.5 -81q-10 -41 -35 -66q55 2 102 7.5t84 18.5t61.5 37.5t31.5 65.5l2 9q14 2 21 2h13l39 -2l-2 -9q-12 -70 -55 -108.5 t-105.5 -58t-141.5 -23.5t-161 -4q-96 0 -156.5 -25.5t-96 -64.5t-52 -87t-24.5 -94q-10 -57 -13.5 -105t22 -84t90 -55.5t191.5 -19.5q-18 16 -24 43t-7 56.5t3 58.5t8 49l18 100h150q-2 -10 -2 -17t-2 -15q-2 -6 -3 -15.5t-5 -19.5h-78q-8 -45 -13.5 -88t4 -77t39 -54.5 t91.5 -20.5h159q2 -10 1 -19t-3 -16q0 -12 -8 -30h-346q-147 0 -224 25.5t-107.5 71.5t-26.5 106.5zM506 721q-4 -23 8 -38t35 -15t42 15t23 38t-10 39t-37 16t-40 -16.5t-21 -38.5z" />
<glyph unicode="&#xe56;" horiz-adv-x="827" d="M124 122q-1 34 5 64q6 31 13.5 57.5t24.5 47t48 33t84 16.5q-2 -16 -2 -21.5t-2 -13.5l-8 -31q-49 -6 -63.5 -23.5t-22.5 -64.5q-6 -33 -1 -57.5t29.5 -40.5t73.5 -24.5t133 -8.5q96 0 151.5 21.5t86.5 58.5t43 85t22 102l9 47q12 66 -1.5 108.5t-46 67t-82 35 t-110.5 10.5q-47 0 -98.5 -11.5t-128.5 -50.5q-14 -4 -23.5 -4h-17.5h-15.5t-21.5 2q-2 16 -5 84t-8 181q8 4 16.5 4h16.5h15.5t23.5 -4l4 -211q41 29 80 44t73 22t59.5 8t39.5 1q80 0 142.5 -15t102.5 -51t54 -93.5t0 -141.5l-6 -30q-10 -59 -26.5 -120t-55.5 -108 t-110.5 -76.5t-192.5 -29.5t-184.5 19.5t-90 49t-27.5 63.5z" />
<glyph unicode="&#xe57;" horiz-adv-x="1036" d="M114 122q-3 46 9 118l8 41q12 70 29.5 131t48.5 110t79 83t124 50l114 -49h13l131 49q70 -16 105.5 -50t50 -83t10 -110.5t-16.5 -130.5l-39 -215q41 0 64.5 2t37 16t20.5 45t18 88l104 588q10 2 18.5 2h16.5h16t21 -2l-105 -594q-12 -68 -24.5 -110t-34 -64.5t-60 -29.5 t-102.5 -7h-72l50 281q12 78 15 130t-8.5 88t-36 56t-67.5 35l-125 -51h-12l-108 51q-47 -14 -80 -34.5t-55.5 -56.5t-39 -88.5t-28.5 -129.5l-8 -37q-8 -49 -9.5 -82t11 -53.5t44 -30.5t87.5 -10h22q0 -14 -1 -22.5t-3 -16.5q-2 -4 -2 -11.5t-4 -17.5h-21 q-68 0 -111.5 11.5t-67 38t-26.5 72.5z" />
<glyph unicode="&#xe58;" horiz-adv-x="905" d="M119 203.5q-2 56.5 8 118.5q12 70 36.5 131t70 106t117 70.5t179.5 25.5q72 0 136.5 2t114.5 14.5t84 38t42 74.5l2 9q14 2 21.5 2h13.5l39 -2l-2 -9q-12 -70 -55 -108.5t-105.5 -58t-141.5 -23.5t-161 -4q-96 0 -155.5 -25.5t-93 -64.5t-48 -88.5t-22.5 -94.5 q-8 -41 -10.5 -81.5t8 -75.5t34 -62.5t68.5 -42.5l137 62h10l107 -62q51 14 80 25.5t43 26t20 38t13 64.5l6 33q6 35 6 53t-13.5 27.5t-42 11.5t-79.5 4h-8q0 10 1 17t1 16q2 4 3 12t5 18h8q70 0 112 -3t63.5 -18t24.5 -47t-8 -87l-8 -41q-10 -61 -20 -96t-34 -56.5t-66 -34 t-117 -28.5l-109 59h-10l-129 -59q-61 6 -99 35.5t-56.5 75.5t-20.5 102.5z" />
<glyph unicode="&#xe59;" horiz-adv-x="862" d="M115 124q-4 46 8 118l8 41q12 70 29.5 137t47.5 119.5t78 84t122 31.5h49q41 0 72.5 -11t74.5 -58q6 27 21.5 41t37 20t47 7t50.5 1q6 0 30.5 2t52 14.5t52.5 40t33 76.5l4 17q12 2 19 2h16h16t21 -2l-5 -17q-6 -39 -26.5 -74.5t-52 -63t-74.5 -44t-98 -16.5t-80 -8.5 t-29 -30.5q0 -2 -1 -6t3 -10q33 -88 35 -219.5t-27 -313.5q-10 -2 -20.5 -2h-18.5h-13t-19 2q25 160 22.5 271.5t-23 182t-56.5 102.5t-77 32h-49q-51 0 -85 -31t-55.5 -77t-32.5 -100t-19 -99l-8 -41q-8 -49 -10.5 -83t11 -53.5t45 -28.5t89.5 -9h24q0 -14 -1 -22.5 t-3 -16.5q-2 -4 -2 -11.5t-4 -17.5h-22q-68 0 -112 11.5t-67.5 39t-27.5 73.5z" />
<glyph unicode="&#xe5a;" horiz-adv-x="849" d="M174 680q2 37 6 55l15 82q10 2 17 2h13h18.5t22.5 -2l-14 -84q-4 -23 -2 -49.5t18.5 -49t50 -38.5t93.5 -16q59 0 99 16t65.5 39.5t38 50.5t16.5 49l14 82q10 2 18.5 2h14.5h17.5t21.5 -2l-166 -938q-8 -2 -18.5 -2h-16.5h-15t-22 2l127 719q-43 -57 -94 -70.5t-94 -13.5 h-29q-92 0 -138 27.5t-62.5 64.5t-14.5 74zM653 -121l166 938q12 2 21.5 2h15.5h16.5t18.5 -2l-166 -938q-8 -2 -18.5 -2h-16.5h-15t-22 2z" />
<glyph unicode="&#xe5b;" />
<glyph unicode="&#x2000;" horiz-adv-x="761" />
<glyph unicode="&#x2001;" horiz-adv-x="1522" />
<glyph unicode="&#x2002;" horiz-adv-x="761" />
<glyph unicode="&#x2003;" horiz-adv-x="1522" />
<glyph unicode="&#x2004;" horiz-adv-x="507" />
<glyph unicode="&#x2005;" horiz-adv-x="380" />
<glyph unicode="&#x2006;" horiz-adv-x="253" />
<glyph unicode="&#x2007;" horiz-adv-x="253" />
<glyph unicode="&#x2008;" horiz-adv-x="190" />
<glyph unicode="&#x2009;" horiz-adv-x="304" />
<glyph unicode="&#x200a;" horiz-adv-x="84" />
<glyph unicode="&#x200b;" />
<glyph unicode="&#x2010;" horiz-adv-x="741" d="M178 367q0 10 1 16t3 12q0 14 6 27h512q0 -6 -1 -12.5t-1 -14.5q-2 -6 -3 -12t-5 -16h-512z" />
<glyph unicode="&#x2011;" horiz-adv-x="741" d="M178 367q0 10 1 16t3 12q0 14 6 27h512q0 -6 -1 -12.5t-1 -14.5q-2 -6 -3 -12t-5 -16h-512z" />
<glyph unicode="&#x2012;" horiz-adv-x="741" d="M178 367q0 10 1 16t3 12q0 14 6 27h512q0 -6 -1 -12.5t-1 -14.5q-2 -6 -3 -12t-5 -16h-512z" />
<glyph unicode="&#x2013;" horiz-adv-x="1032" d="M178 367q0 10 1 16t3 12q0 14 6 27h803q0 -6 -1 -12.5t-1 -14.5q-2 -6 -3 -12t-5 -16h-803z" />
<glyph unicode="&#x2014;" horiz-adv-x="1243" d="M178 367q0 10 1 16t3 12q0 14 6 27h1014q0 -6 -1 -12.5t-1 -14.5q-2 -6 -3 -12t-5 -16h-1014z" />
<glyph unicode="&#x2018;" horiz-adv-x="329" d="M272 909q8 16 15.5 29.5t17.5 32t26.5 48.5t41.5 77q6 2 18 2t19 -2l-70 -183q-10 -4 -22.5 -5t-18.5 -1h-13t-14 2z" />
<glyph unicode="&#x2019;" horiz-adv-x="329" d="M272 909l68 183q12 4 24.5 5t18.5 1h13t14 -2q-8 -16 -15.5 -29.5t-18.5 -32t-26.5 -48.5t-40.5 -77q-6 -2 -18 -2t-19 2z" />
<glyph unicode="&#x2022;" horiz-adv-x="481" d="M205 350q6 41 38.5 68.5t73.5 27.5t65 -27.5t17 -68.5q-8 -41 -41.5 -69.5t-74.5 -28.5t-63.5 28.5t-14.5 69.5z" />
<glyph unicode="&#x2026;" horiz-adv-x="583" d="M113 4l18 109q14 4 23.5 4h13.5h14t21 -4l-19 -109q-14 -4 -22 -4h-12h-15.5t-21.5 4zM256 4l18 109q14 4 23.5 4h13.5h14.5t20.5 -4l-18 -109q-14 -4 -22.5 -4h-12.5h-15.5t-21.5 4zM399 4l19 109q14 4 23.5 4h13.5h14t20 -4l-18 -109q-14 -4 -22.5 -4h-12.5h-15t-22 4z " />
<glyph unicode="&#x202f;" horiz-adv-x="304" />
<glyph unicode="&#x205f;" horiz-adv-x="380" />
<glyph unicode="&#x25cc;" horiz-adv-x="1048" />
<glyph unicode="&#xe000;" horiz-adv-x="819" d="M0 0v819h819v-819h-819z" />
<glyph unicode="&#xf700;" horiz-adv-x="741" d="M174 336l2 8q0 8 1 13t1 10l6 34h166l-31 -335h60q66 6 112 27.5t76.5 62.5t51 102t34.5 145l27 144q12 66 -1 107.5t-45 66t-80 34t-108 9.5q-53 0 -122.5 -8t-122.5 -19q-6 27 -6 62q31 8 65.5 14t69.5 9t67.5 5t59.5 2q90 0 164 -22l4 27q39 45 108 45h76l-6 -33 q-2 -10 -3 -17.5t-3 -15.5h-76q-2 0 -7 1t-26 5l-8 -43q47 -35 66.5 -92t3.5 -149l-25 -132q-14 -78 -37.5 -150.5t-64.5 -128.5t-103.5 -90t-154.5 -34q-23 0 -60 1t-59 7l28 328h-100z" />
<glyph unicode="&#xf701;" d="M-565 993q0 10 4 31q0 8 4 20h25q14 0 30 5q31 4 73 7t64 3h312q-2 -16 -2 -20.5t-2 -12.5q-2 -6 -3 -14t-6 -19h-499z" />
<glyph unicode="&#xf702;" d="M-565 993q0 12 4 33l6 33h190q90 0 138.5 -2t89.5 -17h10l16 93q10 4 18.5 4h16.5q10 0 18.5 -1t18.5 -6q-8 -37 -15 -69.5t-24 -67.5h-487z" />
<glyph unicode="&#xf703;" d="M-565 993q0 12 4 33l6 33h162q37 0 87 -2t91 -15v19l2 8q6 39 33.5 63.5t62.5 24.5t54.5 -23.5t13.5 -58.5t-34 -56.5t-64 -25.5h-418z" />
<glyph unicode="&#xf704;" d="M-565 993q0 12 4 33l6 33h150.5t84 -2t41 -6t23.5 -11h14l17 95q10 2 18 2h19h18t16 -4l-16 -93h43l16 93q10 4 18.5 4h16.5q10 0 18.5 -1t18.5 -6q-8 -37 -15 -69.5t-24 -67.5h-487z" />
<glyph unicode="&#xf705;" d="M-231 997l26 146q10 4 19.5 4h15.5h18.5t18.5 -4l-27 -146q-10 -4 -18 -4h-19h-15t-19 4z" />
<glyph unicode="&#xf706;" d="M-494 1081q-2 14 0 33q2 4 4.5 13.5t6.5 19.5h147l-18 -111h12q35 16 102.5 18.5t133.5 2.5h40q0 -16 -1 -21.5t-1 -11.5q-2 -4 -4 -15.5t-6 -17.5h-356l16 90h-76z" />
<glyph unicode="&#xf707;" d="M-567 995l20 113q6 37 21.5 61.5t34 39t37 20.5t32.5 6h10q35 0 59.5 -9t20.5 -38h13q4 29 34.5 38t65.5 9h10q14 0 30.5 -6t30 -20.5t19.5 -39t0 -61.5l-8 -49h78q0 -14 -4 -35l-9 -31h-102h-24.5t-22.5 2l20 109q4 29 2 47t-30 18h-21q-33 0 -39 -7t-12 -46l-4 -18 q-10 -4 -20.5 -4h-16.5h-12t-21 4l4 18q6 39 2 46t-37 7h-22q-27 0 -35 -18t-12 -47l-8 -45h49q0 -8 -2 -18.5t-2 -14.5q-2 -4 -3 -13t-5 -20h-86q-25 0 -35 2z" />
<glyph unicode="&#xf708;" d="M-303 1073q0 18 4 39q2 4 3 11t5 18h78l14 82q10 4 19.5 4h15.5h18.5t18.5 -4l-14 -82h75q0 -20 -4 -29q-2 -8 -3 -19.5t-5 -19.5h-76l-14 -76q-10 -4 -18.5 -4h-18.5h-15t-20 4l15 76h-78z" />
<glyph unicode="&#xf709;" d="M-410 995q8 35 16.5 63.5t20.5 63.5h303v-13t-2 -13q-2 -4 -4 -16.5t-6 -22.5h-55.5t-62 2t-60.5 4t-49 8h-15l-14 -78h-37h-17t-18 2z" />
<glyph unicode="&#xf70a;" d="M6 997l27 146q10 4 19 4h16h18t18 -4l-26 -146q-10 -4 -18.5 -4h-18.5h-15.5t-19.5 4z" />
<glyph unicode="&#xf70b;" d="M-322 1083q-2 16 3 33q0 4 2 13.5t6 19.5h147l-18 -111h12q37 16 103.5 18.5t132.5 2.5h40q-2 -16 -2 -21.5t-2 -11.5q-2 -4 -4 -15.5t-6 -17.5h-354l16 90h-76z" />
<glyph unicode="&#xf70c;" d="M-338 995l21 113q6 37 21 61.5t33.5 39t37 20.5t32.5 6h11q35 0 59.5 -9t20.5 -38h12q4 29 34.5 38t63.5 9h10q14 0 31 -6t30 -20.5t19 -39t0 -61.5l-8 -49h78q0 -14 -4 -35l-8 -31h-103h-24.5t-22.5 2l21 109q4 29 2 47t-29 18h-20q-33 0 -39.5 -7t-12.5 -46l-4 -18 q-10 -4 -20 -4h-17h-12t-20 4l4 18q6 39 2 46t-37 7h-23q-27 0 -35 -18t-12 -47l-8 -45h49q0 -8 -2 -18.5t-2 -14.5q-2 -4 -3 -13t-5 -20h-86q-25 0 -35 2z" />
<glyph unicode="&#xf70d;" d="M-55 1073q0 18 4 39q2 4 3 11t5 18h76l14 82q10 4 19.5 4h15.5h18.5t18.5 -4l-15 -82h76q0 -20 -4 -29q-2 -8 -3 -19.5t-5 -19.5h-76l-14 -76q-10 -4 -18.5 -4h-18.5h-15.5t-19.5 4l14 76h-75z" />
<glyph unicode="&#xf70e;" d="M-143 995q8 35 16 63.5t21 63.5h258v-13t-2 -13q-2 -4 -4.5 -16.5t-6.5 -22.5q-49 0 -96 2t-86 12h-14l-15 -78h-37h-17t-17 2z" />
<glyph unicode="&#xf70f;" horiz-adv-x="1353" d="M109 2l88 504q8 51 29.5 96t45 78t41 52.5t21.5 21.5l2 10h-107l7 35q72 23 138 26.5t142 3.5q186 0 265 -90t44 -280l-43 -246q-16 -86 30 -122t163 -36q119 0 175 36t73 122l106 604q10 2 18.5 2h16.5h15.5t21.5 -2l-113 -635q-6 -33 -20.5 -67.5t-48 -62t-91 -45 t-149.5 -17.5h-31q-92 0 -143 17.5t-75.5 45t-28 62.5t3.5 67l47 271q29 154 -28.5 232.5t-215.5 78.5h-88q-49 -55 -79 -103.5t-46 -82.5q-20 -41 -27 -76l-78 -436h115q0 -12 -1 -19.5t-3 -15.5q0 -4 -2 -13.5t-4 -17.5h-154h-10t-22 2z" />
<glyph unicode="&#xf710;" d="M-555 993q-4 29 1 58.5t9 58.5l2 10q10 2 31 2h35l-17 -92h11q25 10 41 16.5t37.5 9.5t55.5 3h93h203q-2 -12 -2 -18.5t-2 -10.5q-2 -8 -3 -17t-6 -20h-489z" />
<glyph unicode="&#xf711;" d="M-362 1090q10 57 58 98t103 41q59 0 92 -41t23 -98t-57 -97.5t-107 -40.5q-55 0 -89 40t-23 98zM-297 1090q-4 -31 13 -51.5t46 -20.5q35 0 59.5 20.5t28.5 51.5q6 35 -10 55t-51 20q-29 0 -54.5 -20.5t-31.5 -54.5z" />
<glyph unicode="&#xf712;" d="M-528 1124l2 9q8 43 27.5 69.5t43 40.5t44 19.5t32.5 5.5h428q0 -10 -1 -20.5t-1 -14.5q-2 -4 -4 -15.5t-6 -15.5h-399q-59 0 -74 -21.5t-19 -43.5l-4 -33q-6 -29 7.5 -37t48.5 -8h18q41 0 55.5 12t22.5 45q10 2 17 2h14h12t18 -2q-4 -33 5.5 -45t45.5 -12h23q41 0 52 13 t16 42q12 2 18 2h12h12.5t18.5 -2q-8 -47 -28.5 -71.5t-43.5 -34.5q-27 -12 -57 -15h-16q-47 0 -74 7.5t-23 35.5h-12q-4 -29 -38 -36t-81 -7h-14q-16 0 -35.5 5.5t-36 18.5t-25 38.5t-1.5 68.5z" />
<glyph unicode="&#xf713;" d="M-80 1305l21 122q12 4 21 4.5t15 0.5q23 0 33 -5l-18 -122q-10 -4 -19.5 -4.5t-19.5 -0.5h-14.5t-18.5 5z" />
<glyph unicode="&#xf714;" d="M-217 1370v16.5t2 16.5q2 4 4 13t6 20h148l-17 -90h13q37 16 103.5 18t131.5 2h41q-2 -16 -2 -21.5t-2 -11.5q0 -4 -3 -15t-7 -18h-355l13 70h-76z" />
<glyph unicode="&#xf715;" d="M-426 1303l16 92q6 37 21.5 61.5t34 38.5t37 20.5t32.5 6.5h11q35 0 59.5 -9.5t17.5 -37.5h13q6 29 36.5 38t65.5 9h10q14 0 30.5 -6.5t29 -20.5t18.5 -38.5t0 -61.5l-6 -29h78q0 -14 -4 -35l-8 -31h-101h-24.5t-20.5 3l14 88q6 29 4.5 47t-30.5 18h-21q-33 0 -39 -7 t-14 -46l-2 -19q-10 -4 -21.5 -4h-17.5h-12t-19 4l2 19q8 39 4 46t-36 7h-23q-27 0 -35 -18.5t-14 -46.5l-4 -25h49q0 -20 -4 -33q0 -4 -2 -13t-6 -20h-86q-25 0 -33 3z" />
<glyph unicode="&#xf716;" d="M-147 1370q0 8 2 19.5t4 19.5q0 10 6 29h78l12 71q12 4 21.5 4h15.5h16t17 -4l-13 -71h76q0 -10 -1 -17.5t-1 -11.5q-2 -8 -4 -19.5t-6 -19.5h-76l-8 -65q-10 -4 -19.5 -4.5t-19.5 -0.5h-14.5t-18.5 5l10 65h-77z" />
<glyph unicode="&#xf717;" d="M-152 1303q8 35 16.5 63.5t20.5 63.5h258q0 -10 -4 -27q0 -4 -2 -16.5t-6 -22.5q-49 0 -96 2t-88 12h-15l-14 -78h-37h-17t-16 3z" />
<glyph unicode="&#xf718;" d="M-308 -504q-1 8 3 23q2 14 12 30q35 0 66.5 -2t50.5 -6l-39 -215q-8 -2 -14.5 -3t-14.5 -1h-22.5t-20.5 2q8 39 16.5 75t22.5 71l2 12l-61 2q0 4 -1 12z" />
<glyph unicode="&#xf719;" d="M-479 -498.5q2 15.5 4 25.5q0 12 8 22q37 0 72 -2t51 -6l-29 -159h97l28 163q14 4 22.5 4h14.5q8 0 19.5 -1t15.5 -3l-37 -215q-25 -6 -61.5 -7t-53.5 -1q-37 0 -65.5 2t-59.5 10l2 13q6 31 11.5 57.5t17.5 65.5l2 12h-59q-2 4 0 19.5z" />
<glyph unicode="&#xf71a;" d="M-283 -502q4 23 23 37t37 14t30.5 -14t8.5 -37q-4 -18 -21.5 -32.5t-36.5 -14.5q-18 0 -31.5 14.5t-9.5 32.5z" />
<glyph unicode="&#xf71d;" horiz-adv-x="923" d="M139 8l76 807q10 4 16.5 4h16.5h18t19 -4l-64 -760h19l2 15l290 518q18 4 27.5 5t22.5 1q12 0 20 -1t25 -5l106 -518l-2 -15h19l106 375q6 35 10 66.5t-3 56.5t-29.5 39t-67.5 14h-33q-4 16 2 33q2 10 4 18.5t6 18.5h35q45 0 71 10t39 26.5t18 36t10 39.5l8 39q8 2 18 2 h19h17t17 -2l-8 -39q-2 -10 -7 -33.5t-19.5 -48t-38 -43t-62.5 -18.5l-2 -8q47 0 68.5 -43t7.5 -127q-2 -10 -4 -18.5t-4 -18.5l-113 -422q-23 -6 -32 -7t-38 -1q-25 0 -44 1t-35 5l-95 504h-12l-270 -504q-16 -4 -36 -5t-44 -1q-29 0 -38 1t-32 7z" />
<glyph horiz-adv-x="555" d="M-362 1090q10 57 58 98t103 41q59 0 92 -41t23 -98t-57 -97.5t-107 -40.5q-55 0 -89 40t-23 98zM-297 1090q-4 -31 13 -51.5t46 -20.5q35 0 59.5 20.5t28.5 51.5q6 35 -10 55t-51 20q-29 0 -54.5 -20.5t-31.5 -54.5zM131 770.5q0 17.5 2 30.5q33 10 65.5 16t62.5 9 t50.5 3h28.5q74 0 120 -20.5t68.5 -55t25.5 -82.5t-7 -104l-98 -565q-10 -2 -20.5 -2h-16.5h-16.5t-18.5 2l100 567q4 31 5 65t-12 62.5t-46 48t-96 19.5q-45 0 -95.5 -5t-97.5 -16q-4 10 -4 27.5z" />
<glyph />
<glyph />
<glyph />
<glyph horiz-adv-x="1257" d="M113 514q0 109 41 203t110.5 164.5t163 111.5t199.5 41q109 0 203 -41t164.5 -111.5t111.5 -164.5t41 -203q0 -106 -41 -199.5t-111.5 -163t-165 -110.5t-202.5 -41q-106 0 -199.5 41t-163 110.5t-110.5 163t-41 199.5zM348 373q0 -86 58.5 -137.5t150.5 -51.5 q23 0 45.5 1t42.5 5v111l-12 8q-14 -6 -24.5 -7t-22.5 -1q-33 0 -62.5 18.5t-29.5 65.5q0 16 7 27.5t31.5 19.5t70.5 16.5t122 20.5v-145q0 -74 20.5 -107t81.5 -33h19q29 0 47 11.5t18 44.5q0 35 -11 48t-38 13v272q0 53 -19.5 88t-45.5 58q10 4 19 4h20h19t19 -4h23v133 q-63 -8 -125.5 -23.5t-109.5 -42.5q-18 4 -35 4.5t-41 0.5q-47 0 -90 -6.5t-90 -22.5v-129h12q39 12 81 22.5t74 10.5q18 0 44 -1t50.5 -9.5t41 -27t16.5 -50.5l-168 -17q-37 -4 -74 -12t-67.5 -28.5t-49 -55.5t-18.5 -92z" />
</font>
</defs>
</svg>
