<?xml version="1.0" standalone="no"?>
<!DOCTYPE svg PUBLIC "-//W3C//DTD SVG 1.1//EN" "http://www.w3.org/Graphics/SVG/1.1/DTD/svg11.dtd" >
<svg>
<metadata>
Created by FontForge 20090914 at Wed Apr 10 06:24:45 2013
 By www-data
Copyright (c) 2010 by Bright Side Co.,Ltd. exclusively for Rangsit University. All rights reserved.
</metadata>
<defs>
<font id="RSU" horiz-adv-x="0" >
  <font-face 
    font-family="RSU"
    font-weight="400"
    font-stretch="normal"
    units-per-em="1000"
    panose-1="2 0 5 6 4 0 0 2 0 3"
    ascent="800"
    descent="-200"
    x-height="410"
    cap-height="548"
    bbox="-599.267 -462 869 937.001"
    underline-thickness="20"
    underline-position="-113"
    unicode-range="U+0020-U+FB02"
  />
<missing-glyph horiz-adv-x="1000" 
 />
    <glyph glyph-name="uni0E5A" unicode="&#xe2f;&#xe2f;" horiz-adv-x="500" 
 />
    <glyph glyph-name="uni0E4F.liga" unicode="&#xe4f;&#x22;" horiz-adv-x="520" 
d="M426 200c0 -22.667 -4.33301 -44 -13 -64s-20.334 -37.5 -35.001 -52.5s-31.834 -26.833 -51.501 -35.5s-40.834 -13 -63.501 -13s-43.834 4.33301 -63.501 13s-37 20.5 -52 35.5s-26.833 32.5 -35.5 52.5s-13 41.333 -13 64s4.33301 43.834 13 63.501
s20.5 36.834 35.5 51.501s32.333 26.334 52 35.001s40.834 13 63.501 13s43.834 -4.33301 63.501 -13s36.834 -20.334 51.501 -35.001s26.334 -31.834 35.001 -51.501s13 -40.834 13 -63.501zM401 200c0 18.667 -3.5 36.5 -10.5 53.5s-16.833 31.667 -29.5 44
s-27.334 22.166 -44.001 29.499s-34.667 11 -54 11s-37.333 -3.66699 -54 -11s-31.334 -17.166 -44.001 -29.499s-22.5 -27 -29.5 -44s-10.5 -34.833 -10.5 -53.5c0 -19.333 3.5 -37.5 10.5 -54.5s16.833 -31.667 29.5 -44s27.334 -22.166 44.001 -29.499s34.667 -11 54 -11
s37.333 3.66699 54 11s31.334 17.166 44.001 29.499s22.5 27 29.5 44s10.5 35.167 10.5 54.5zM357 200c0 -13.333 -2.5 -25.833 -7.5 -37.5s-11.833 -21.667 -20.5 -30s-18.667 -15 -30 -20s-23.333 -7.5 -36 -7.5c-13.333 0 -25.833 2.5 -37.5 7.5s-21.667 11.833 -30 20.5
s-15 18.667 -20 30s-7.5 23.333 -7.5 36c0 13.333 2.5 25.833 7.5 37.5s11.833 21.667 20.5 30s18.667 15 30 20s23.333 7.5 36 7.5c13.333 0 25.833 -2.5 37.5 -7.5s21.667 -11.833 30 -20.5s15 -18.667 20 -30s7.5 -23.333 7.5 -36z" />
    <glyph glyph-name="uni0E24.liga" unicode="&#xe24;&#xe32;" horiz-adv-x="915" 
d="M682 510c38.667 0 70.167 -5.33203 94.5 -15.999s43.333 -24.334 57 -41.001s23 -34.667 28 -54s7.5 -38 7.5 -56v-530c0 -8.66699 -4.33301 -13 -13 -13h-50c-8 0 -12 4.33301 -12 13v538c0 20.667 -4.16699 37.167 -12.5 49.5s-18.833 21.666 -31.5 27.999
s-26.667 10.5 -42 12.5s-30 3 -44 3c-13.333 0.666992 -26.5 -0.333008 -39.5 -3s-24.167 -5.66699 -33.5 -9c-12 -4 -22.667 -8.33301 -32 -13c-7.33301 -3.33301 -13.666 -1.66602 -18.999 5.00098l-20 29c-1.33301 2.66699 -1.83301 5.66699 -1.5 9
s2.16602 6.33301 5.49902 9c12.667 6.66699 27.334 13 44.001 19c14 5.33301 30.667 10 50 14s40.666 6 63.999 6zM477 -185.999c0 -8.66699 -4.33398 -13.001 -13.001 -13.001h-53c-3.33301 0 -6.33301 0.833008 -9 2.5s-4 5.16699 -4 10.5v510
c0 23.333 -4.66699 42.166 -14 56.499s-21 25.333 -35 33s-28.833 12.834 -44.5 15.501s-29.5 4 -41.5 4c-32 0 -58.833 -3.16699 -80.5 -9.5s-35.5 -11.166 -41.5 -14.499c-3.33301 -2 -5.5 -4.5 -6.5 -7.5s-1.5 -5.83301 -1.5 -8.5v-302c0 -8.66699 4.33301 -13 13 -13h34
c8.66699 0 12.334 -4 11.001 -12l-8 -53c-1.33301 -8.66699 -6.33301 -13 -15 -13h-101c-8 0 -12 4.33301 -12 13v434c0 8.66699 4 14.667 12 18c26 13.333 54.5 24 85.5 32s62.833 12.667 95.5 14c42.667 0 78.667 -5.33301 108 -16s53 -24.334 71 -41.001
s30.833 -35.167 38.5 -55.5s11.5 -40.166 11.5 -59.499v-525z" />
    <glyph glyph-name="uni0E26.liga" unicode="&#xe26;&#xe32;" horiz-adv-x="914" 
d="M682 510c38.667 0 70.167 -5.33203 94.5 -15.999s43.333 -24.334 57 -41.001s23 -34.667 28 -54s7.5 -38 7.5 -56v-530c0 -8.66699 -4.33301 -13 -13 -13h-50c-8 0 -12 4.33301 -12 13v538c0 20.667 -4.16699 37.167 -12.5 49.5s-18.833 21.666 -31.5 27.999
s-26.667 10.5 -42 12.5s-30 3 -44 3c-13.333 0.666992 -26.5 -0.333008 -39.5 -3s-24.167 -5.66699 -33.5 -9c-12 -4 -22.667 -8.33301 -32 -13c-7.33301 -3.33301 -13.666 -1.66602 -18.999 5.00098l-20 29c-1.33301 2.66699 -1.83301 5.66699 -1.5 9
s2.16602 6.33301 5.49902 9c12.667 6.66699 27.334 13 44.001 19c14 5.33301 30.667 10 50 14s40.666 6 63.999 6zM252 511.001c42.667 0 78.666 -5.33398 107.999 -16.001s53 -24.334 71 -41.001s30.833 -35.167 38.5 -55.5s11.5 -40.166 11.5 -59.499v-525
c0 -8.66699 -4 -13 -12 -13h-54c-3.33301 0 -6.33301 0.833008 -9 2.5s-4 5.16699 -4 10.5v510c0 23.333 -4.66699 42.166 -14 56.499s-21 25.333 -35 33s-28.833 12.834 -44.5 15.501s-29.5 4 -41.5 4c-32 0 -58.833 -3.16699 -80.5 -9.5s-35.5 -11.166 -41.5 -14.499
c-3.33301 -2 -5.5 -4.5 -6.5 -7.5s-1.5 -5.83301 -1.5 -8.5v-380c0 -8.66699 -4.33301 -13 -13 -13h-100c-8.66699 0 -13.667 4.33301 -15 13l-8 52c-1.33301 8.66699 2.33398 13 11.001 13h34c8.66699 0 13 4.33301 13 13v356c0 8.66699 4 14.667 12 18
c26 13.333 54.5 24 85.5 32s62.833 12.667 95.5 14z" />
    <glyph glyph-name="fi" unicode="fi" horiz-adv-x="401" 
d="M391 531c0 -9.33301 -0.999023 -15.668 -2.99902 -19.001s-6.33301 -5 -13 -5h-53c-8 0 -13.167 1.5 -15.5 4.5s-3.5 10.167 -3.5 21.5v29c0 9.33301 1.16699 15.5 3.5 18.5s8.16602 4.5 17.499 4.5h51c8 0 12.667 -2.16699 14 -6.5s2 -11.166 2 -20.499v-27z
M391.001 27.998c0 -10.667 -0.666016 -18.002 -1.99902 -22.002s-6 -6 -14 -6h-56c-7.33301 0 -11.833 2 -13.5 6s-2.5 11.333 -2.5 22v340h-148v-342c0 -17.333 -6 -26 -18 -26h-49c-6 0 -11.167 1.5 -15.5 4.5s-6.5 8.16699 -6.5 15.5v348h-42
c-7.33301 0 -12 1.16699 -14 3.5s-3 6.5 -3 12.5v28c0 12 4 18 12 18h39c-3.33301 6 -6.66602 13.167 -9.99902 21.5s-4.66602 22.833 -3.99902 43.5c0 13.333 1.83301 26 5.5 38s9.66699 22.5 18 31.5s19.166 16.167 32.499 21.5s29.666 8 48.999 8
c17.333 0 31.833 -1.16699 43.5 -3.5s20.5 -4.5 26.5 -6.5c2 -1.33301 3 -5.16602 3 -11.499s-0.666992 -13.333 -2 -21s-3 -14.334 -5 -20.001s-4 -8.5 -6 -8.5c-8.66699 2 -14.834 3.33301 -18.501 4s-10.167 1 -19.5 1c-10.667 0 -20 -3 -28 -9s-12 -17.667 -12 -35
c0 -14 2.33301 -24.667 7 -32s10 -14.666 16 -21.999h217c10 0 15.833 -1.66699 17.5 -5s2.5 -9.66602 2.5 -18.999v-378z" />
    <glyph glyph-name="fl" unicode="fl" horiz-adv-x="400" 
d="M392 28c0 -10 -0.666992 -17.165 -2 -21.498s-5.66602 -6.5 -12.999 -6.5h-53c-8.66699 0 -14.167 1.66699 -16.5 5s-3.5 10.666 -3.5 21.999v546c0 7.33301 1.16699 12.833 3.5 16.5s7.5 5.5 15.5 5.5h51c9.33301 0 14.666 -1.83301 15.999 -5.5s2 -9.83398 2 -18.501
v-543zM227 375.002c0 -5.33301 -1.00293 -9.66895 -3.00293 -13.002s-7 -5 -15 -5h-52v-330c0 -18 -6.33301 -27 -19 -27h-48c-6 0 -11.333 1.66699 -16 5s-7 8.66602 -7 15.999v336h-41c-7.33301 0 -12.166 1.16699 -14.499 3.5s-3.5 6.83301 -3.5 13.5v27
c0 11.333 4.33301 17 13 17h40c-3.33301 6.66699 -6.83301 15.334 -10.5 26.001s-5.16699 26.334 -4.5 47.001c0 12.667 1.83301 25.334 5.5 38.001s9.66699 23.834 18 33.501s19 17.5 32 23.5s29.167 9 48.5 9c17.333 0 31.833 -1.16699 43.5 -3.5
s20.834 -4.83301 27.501 -7.5c2 -0.666992 3 -4.16699 3 -10.5s-0.833008 -13.333 -2.5 -21s-3.5 -14.334 -5.5 -20.001s-4 -8.5 -6 -8.5c-8 2 -14 3.33301 -18 4s-10.333 1 -19 1c-11.333 0 -20.833 -4 -28.5 -12s-11.5 -20.333 -11.5 -37c0 -14 2.16699 -26 6.5 -36
s9.5 -18.333 15.5 -25h54c8.66699 0 13.834 -1.33301 15.501 -4s2.5 -6.66699 2.5 -12v-28z" />
    <glyph glyph-name=".notdef" horiz-adv-x="1000" 
 />
    <glyph glyph-name="space" unicode=" " horiz-adv-x="278" 
 />
    <glyph glyph-name="exclam" unicode="!" horiz-adv-x="200" 
d="M133 0h-62c-10.667 0 -17 2 -19 6s-3 8.66699 -3 14v42c0 5.33301 1 9.83301 3 13.5s6.66699 5.5 14 5.5h64c10 0 16.333 -1 19 -3s4 -6.66699 4 -14v-41c0 -7.33301 -1 -13 -3 -17s-7.66699 -6 -17 -6zM134 183c0 -9.33301 -0.998047 -15.502 -2.99805 -18.502
s-5.66699 -4.5 -11 -4.5h-31c-9.33301 0 -15 1.33301 -17 4s-3.33301 9.33398 -4 20.001l-10 333c0 8.66699 0.833008 15.334 2.5 20.001s7.16699 7 16.5 7h47c9.33301 0 15.166 -2 17.499 -6s3.16602 -10.333 2.49902 -19z" />
    <glyph glyph-name="quotedbl" unicode="&#x22;" horiz-adv-x="301" 
d="M245 479c-0.666992 -10.667 -2.5 -17.499 -5.5 -20.499s-6.83301 -4.5 -11.5 -4.5h-20c-6 0 -10.333 1.33301 -13 4s-4.66699 8.66699 -6 18l-13 179c-0.666992 9.33301 0 16.166 2 20.499s7 6.5 15 6.5h50c7.33301 0 12 -2 14 -6s2.66699 -11 2 -21zM112 475.001
c-0.666992 -9.33301 -2.50293 -15.167 -5.50293 -17.5s-7.16699 -3.5 -12.5 -3.5h-21c-5.33301 0 -9.16602 1.66699 -11.499 5s-4.16602 10.333 -5.49902 21l-13 176c-1.33301 9.33301 -1.16602 16 0.500977 20s6.16699 6 13.5 6h50c8.66699 0 14.167 -2.33301 16.5 -7
s2.83301 -11.667 1.5 -21z" />
    <glyph glyph-name="numbersign" unicode="#" horiz-adv-x="460" 
d="M454 371c-1.33301 -7.33301 -3.99805 -12.167 -7.99805 -14.5s-11 -3.5 -21 -3.5h-56l-25 -110h59c9.33301 0 15.166 -1 17.499 -3s2.83301 -6.33301 1.5 -13l-3 -19c-2 -8.66699 -5 -14.667 -9 -18s-11 -5 -21 -5h-56l-36 -161
c-2.66699 -10.667 -5.33398 -17.334 -8.00098 -20.001s-8 -4 -16 -4h-38c-7.33301 0 -11.666 2 -12.999 6s-0.666016 11 2.00098 21l36 158h-106l-37 -162c-2 -10 -4.33301 -16.333 -7 -19s-7 -4 -13 -4h-36c-8 0 -13.333 1.66699 -16 5s-2.66699 10.333 0 21l36 159h-61
c-9.33301 0 -15.333 1.16699 -18 3.5s-2.66699 8.5 0 18.5l3 21c1.33301 7.33301 4 11.666 8 12.999s10.667 2 20 2h58l26 110h-62c-7.33301 0 -12.5 1.16699 -15.5 3.5s-3.83301 8.16602 -2.5 17.499l5 21c1.33301 8 3.66602 12.667 6.99902 14s10 2 20 2h58l34 152
c2 8.66699 4.5 14.667 7.5 18s9.83301 5 20.5 5h36c7.33301 0 11.166 -1.66699 11.499 -5s-0.166992 -9.66602 -1.5 -18.999l-34 -151h105l35 153c1.33301 8 3.33301 13.667 6 17s8.66699 5 18 5h33c9.33301 0 14.833 -1.66699 16.5 -5s1.5 -9.66602 -0.5 -18.999l-33 -151
h56c10.667 0 17.167 -1.16699 19.5 -3.5s2.83301 -7.16602 1.5 -14.499zM190.002 352.999l-25 -110h105l26 110h-106z" />
    <glyph glyph-name="dollar" unicode="$" horiz-adv-x="490" 
d="M262 -98h-43h43zM445 160c0 -24.667 -3.83887 -46.167 -11.5059 -64.5s-18.167 -34 -31.5 -47s-29 -23.5 -47 -31.5s-37.333 -13.667 -58 -17v-57c0 -9.33301 -0.833008 -15.333 -2.5 -18s-6.16699 -4 -13.5 -4h-57c-8 0 -13.667 1.66699 -17 5s-5 10.333 -5 21v46
c-41.333 1.33301 -74.166 5.33301 -98.499 12s-41.166 13.334 -50.499 20.001c-2 1.33301 -3 6.33301 -3 15s0.833008 17.667 2.5 27s3.83398 17.666 6.50098 24.999s5.66699 10.666 9 9.99902l20 -7.5c8 -3 17.833 -6.16699 29.5 -9.5s25.167 -6.16602 40.5 -8.49902
s33 -3.5 53 -3.5c18 0 35 1.33301 51 4s30 7.16699 42 13.5s21.5 14.833 28.5 25.5s10.5 23.667 10.5 39c0 12.667 -1.83301 24 -5.5 34s-10 19.333 -19 28s-20.667 17 -35 25s-32.166 16.333 -53.499 25s-41.666 18 -60.999 28s-36.5 21.833 -51.5 35.5
s-27 29.834 -36 48.501s-13.5 41 -13.5 67c0 34.667 12 66 36 94s62.667 45.667 116 53v59c0 8.66699 1.66699 14.667 5 18s10 5 20 5h57c7.33301 0 11.5 -1.83301 12.5 -5.5s1.5 -10.167 1.5 -19.5v-53c16 -0.666992 29.5 -1.66699 40.5 -3s20.167 -2.83301 27.5 -4.5
s13.333 -3.33398 18 -5.00098s8.66699 -3.16699 12 -4.5c4 -1.33301 6.16699 -6 6.5 -14s-0.666992 -16.5 -3 -25.5s-5.5 -17 -9.5 -24s-8 -10.167 -12 -9.5c-10 3.33301 -25.667 7.16602 -47 11.499s-43.333 6.5 -66 6.5c-43.333 0 -73.333 -7.16699 -90 -21.5
s-25 -33.5 -25 -57.5c0 -23.333 8.83301 -42 26.5 -56s45.834 -28.667 84.501 -44c54 -21.333 95.167 -46.666 123.5 -75.999s42.5 -66 42.5 -110z" />
    <glyph glyph-name="percent" unicode="%" horiz-adv-x="640" 
d="M592 91c0 -19.333 -3.16797 -35.332 -9.50098 -47.999s-14.666 -22.834 -24.999 -30.501s-22 -13.167 -35 -16.5s-26.167 -5 -39.5 -5c-35.333 0 -63.5 8.16699 -84.5 24.5s-31.5 41.5 -31.5 75.5v93c0 38 10.5 66.333 31.5 85s49.167 28 84.5 28
c12.667 0 25.5 -1.66699 38.5 -5s24.833 -9.16602 35.5 -17.499s19.167 -19.333 25.5 -33s9.5 -30.834 9.5 -51.501v-99zM220.999 23.001c-4.66699 -9.33301 -8.50098 -15.501 -11.501 -18.501s-7.83301 -4.5 -14.5 -4.5h-35c-8.66699 -0 -14 1.83301 -16 5.5
s-0.333008 10.5 5 20.5l279 543c4.66699 8.66699 8.66699 14.5 12 17.5s10 4.5 20 4.5h36c7.33301 0 11.333 -1.66699 12 -5s-1.66602 -9.66602 -6.99902 -18.999zM275.998 388c0 -19.333 -3.16797 -35.332 -9.50098 -47.999s-14.666 -22.834 -24.999 -30.501
s-22 -13.167 -35 -16.5s-26.167 -5 -39.5 -5c-35.333 0 -63.5 8.16699 -84.5 24.5s-31.5 41.5 -31.5 75.5v94c0 37.333 10.5 65.333 31.5 84s49.167 28 84.5 28c12.667 0 25.5 -1.66699 38.5 -5s24.833 -9.16602 35.5 -17.499s19.167 -19.333 25.5 -33
s9.5 -30.834 9.5 -51.501v-99zM528.997 175.001c0 16 -3.33203 30 -9.99902 42s-18.334 18 -35.001 18c-20.667 0 -34.5 -5.83301 -41.5 -17.5s-10.5 -26.834 -10.5 -45.501v-74c0 -13.333 4.16699 -24.666 12.5 -33.999s20.833 -14 37.5 -14c17.333 0 29.5 5 36.5 15
s10.5 20.333 10.5 31v79zM212.998 472.001c0 16.667 -3.33105 31 -9.99805 43s-18.334 18 -35.001 18c-20.667 0 -34.5 -5.83301 -41.5 -17.5s-10.5 -27.167 -10.5 -46.5v-74c0 -14 4.16699 -25.5 12.5 -34.5s21.166 -13.5 38.499 -13.5c16.667 0 28.5 4.83301 35.5 14.5
s10.5 20.167 10.5 31.5v79z" />
    <glyph glyph-name="ampersand" unicode="&#x26;" horiz-adv-x="540" 
d="M512 7c1.33301 -1.33301 1.83301 -2.83496 1.5 -4.50195s-2.16602 -2.5 -5.49902 -2.5h-68c-2.66699 0 -5.66699 0.666992 -9 2s-5.66602 3 -6.99902 5l-37 38c-4 4 -8.66699 4.66699 -14 2c-13.333 -10.667 -28 -20 -44 -28c-14 -7.33301 -30.333 -13.666 -49 -18.999
s-39.334 -8 -62.001 -8c-23.333 0 -46.166 3.33301 -68.499 10s-42.333 16.667 -60 30s-31.834 29.833 -42.501 49.5s-16 42.167 -16 67.5s5.66699 47.333 17 66s24 34.334 38 47.001c16.667 14.667 35.334 27.334 56.001 38.001c5.33301 3.33301 6 7.66602 2 12.999
c-10 9.33301 -18.667 20 -26 32c-6.66699 10 -12.5 21.833 -17.5 35.5s-7.5 28.5 -7.5 44.5c0 20 3.83301 38 11.5 54s17.834 29.5 30.501 40.5s27.5 19.5 44.5 25.5s35.167 9 54.5 9c17.333 0 34 -2.83301 50 -8.5s30.167 -13.667 42.5 -24s22.166 -22.833 29.499 -37.5
s11 -31.334 11 -50.001c0 -21.333 -5.66699 -40.5 -17 -57.5s-23.666 -31.167 -36.999 -42.5c-16 -13.333 -33.667 -25.333 -53 -36c-4.66699 -3.33301 -5.33398 -7.33301 -2.00098 -12l117 -128c1.33301 -2 2.66602 -3.66699 3.99902 -5l3 -3l2 2
c0.666992 0.666992 1.16699 1.33398 1.5 2.00098s1.16602 1.66699 2.49902 3l19 23c3.33301 5.33301 7.66602 6 12.999 2l34 -30c4.66699 -3.33301 5.33398 -8 2.00098 -14l-24 -29c-3.33301 -6 -3 -11 1 -15zM232 494.998c-19.333 0 -35.498 -6.16895 -48.498 -18.502
s-19.5 -28.5 -19.5 -48.5c0 -9.33301 2.16699 -18.833 6.5 -28.5s9.16602 -18.5 14.499 -26.5c6.66699 -9.33301 14 -18.333 22 -27c4 -4 9 -5 15 -3c13.333 8 25.666 17 36.999 27c9.33301 8.66699 18 18.334 26 29.001s12 22.334 12 35.001
c0 18.667 -6.33301 33.5 -19 44.5s-28 16.5 -46 16.5zM222.002 57.9961c10.667 0 22 1.83301 34 5.5s23.333 7.83398 34 12.501c12 5.33301 24 11.666 36 18.999c4.66699 3.33301 5.33398 7.33301 2.00098 12l-129 145c-4 5.33301 -8.66699 6 -14 2
c-14 -8.66699 -26.333 -18.334 -37 -29.001c-9.33301 -9.33301 -17.833 -20 -25.5 -32s-11.5 -24.667 -11.5 -38c0 -15.333 3 -29 9 -41s14.167 -22.167 24.5 -30.5s22.166 -14.666 35.499 -18.999s27.333 -6.5 42 -6.5z" />
    <glyph glyph-name="quotesingle" unicode="'" horiz-adv-x="188" 
d="M122 475c-1.33301 -8.66699 -3.33203 -14.332 -5.99902 -16.999s-6.66699 -4 -12 -4h-20c-5.33301 0 -9.33301 1.66699 -12 5s-4.66699 10.666 -6 21.999l-14 176c0 9.33301 0.666992 15.833 2 19.5s5.66602 5.5 12.999 5.5h49c9.33301 0 15 -2.16699 17 -6.5
s3 -11.5 3 -21.5z" />
    <glyph glyph-name="parenleft" unicode="(" horiz-adv-x="248" 
d="M166 -95c-11.333 12 -23.332 29.165 -35.999 51.498s-24.334 48.5 -35.001 78.5s-19.667 63.167 -27 99.5s-11 75.166 -11 116.499c0 39.333 3.5 77 10.5 113s16 69 27 99s23.167 56.333 36.5 79s26.666 40.334 39.999 53.001c2.66699 3.33301 8.5 4 17.5 2
s17.833 -5.16699 26.5 -9.5s15.834 -9.16602 21.501 -14.499s6.83398 -9.66602 3.50098 -12.999c-10.667 -11.333 -22 -28 -34 -50s-23 -47 -33 -75s-18.167 -58 -24.5 -90s-9.5 -63.333 -9.5 -94c0 -33.333 3.33301 -66.333 10 -99s14.834 -62.667 24.501 -90
s20 -51.5 31 -72.5s21.167 -36.5 30.5 -46.5c3.33301 -4 2.16602 -8.66699 -3.50098 -14s-13 -10.333 -22 -15s-17.833 -8.16699 -26.5 -10.5s-14.334 -1.83301 -17.001 1.5z" />
    <glyph glyph-name="parenright" unicode=")" horiz-adv-x="252" 
d="M197 251c0 -41.333 -3.66992 -80.1641 -11.0029 -116.497s-16.333 -69.5 -27 -99.5s-22.5 -56.167 -35.5 -78.5s-24.833 -39.5 -35.5 -51.5c-2.66699 -3.33301 -8.33398 -3.83301 -17.001 -1.5s-17.5 5.83301 -26.5 10.5s-16.333 9.66699 -22 15s-6.83398 10 -3.50098 14
c9.33301 10 19.5 25.5 30.5 46.5s21.333 45.167 31 72.5s17.834 57.333 24.501 90s10 65.667 10 99c0 30.667 -3.16699 62 -9.5 94s-14.5 62 -24.5 90s-21 53 -33 75s-23.333 38.667 -34 50c-3.33301 3.33301 -2.16602 7.66602 3.50098 12.999s12.834 10.166 21.501 14.499
s17.334 7.5 26.001 9.5s14.667 1.33301 18 -2c12.667 -12.667 25.834 -30.334 39.501 -53.001s26 -49 37 -79s20 -63 27 -99s10.5 -73.667 10.5 -113z" />
    <glyph glyph-name="asterisk" unicode="*" horiz-adv-x="300" 
d="M290 490c2 -7.33301 1.50098 -12.334 -1.49902 -15.001s-8.5 -4.66699 -16.5 -6l-81 -20l56 -63c5.33301 -6 8.33301 -10.5 9 -13.5s-1.66602 -6.16699 -6.99902 -9.5l-30 -24c-6 -4 -10.667 -5 -14 -3s-7.33301 6.66699 -12 14l-43 72l-44 -73
c-7.33301 -12.667 -14.333 -16 -21 -10l-31 22c-5.33301 4.66699 -7.66602 8.83398 -6.99902 12.501s3.66699 8.5 9 14.5l55 64l-83 19c-8 2 -13.167 4 -15.5 6s-2.5 5.66699 -0.5 11l11 36c2.66699 7.33301 6 11.166 10 11.499s9.66699 -1.16699 17 -4.5l77 -32l-7 84
c-0.666992 8 -0.333984 13.5 0.999023 16.5s4.66602 4.5 9.99902 4.5h37c7.33301 0 12 -1.83301 14 -5.5s2.66699 -9.5 2 -17.5l-8 -84l80 34c6.66699 3.33301 11.667 4.83301 15 4.5s5.66602 -3.16602 6.99902 -8.49902l12 -37v0z" />
    <glyph glyph-name="plus" unicode="+" horiz-adv-x="490" 
d="M438 263c0 -8 -2.33105 -12.835 -6.99805 -14.502s-12.334 -2.5 -23.001 -2.5h-127v-131c0 -10.667 -0.833008 -18 -2.5 -22s-6.16699 -6 -13.5 -6h-39c-9.33301 0 -15 2.16699 -17 6.5s-3 11.833 -3 22.5v130h-135c-8 0 -13.333 1 -16 3s-4 6.33301 -4 13v37
c0 9.33301 1.66699 14.833 5 16.5s9.66602 2.5 18.999 2.5h131v132c0 8 1.16699 13.833 3.5 17.5s7.5 5.5 15.5 5.5h37c9.33301 0 14.833 -1.66699 16.5 -5s2.5 -9.66602 2.5 -18.999v-131h129c10 0 17.167 -0.666992 21.5 -2s6.5 -5.66602 6.5 -12.999v-40v0z" />
    <glyph glyph-name="comma" unicode="," horiz-adv-x="219" 
d="M174 61c-7.33301 -32 -20.333 -60.998 -39 -86.998s-39.667 -47 -63 -63c-3.33301 -2.66699 -6.83301 -3.83398 -10.5 -3.50098s-7 1.5 -10 3.5s-5.16699 4.5 -6.5 7.5s-1.33301 5.83301 0 8.5c4 10 8 20.667 12 32s7.66699 22.833 11 34.5s6 23.167 8 34.5
s3.33301 21.666 4 30.999c0.666992 12.667 5.66699 19 15 19h61c9.33301 0 15 -1.5 17 -4.5s2.33301 -7.16699 1 -12.5z" />
    <glyph glyph-name="hyphen" unicode="-" horiz-adv-x="323" 
d="M302 246c0 -8.66699 -1.83301 -14.167 -5.5 -16.5s-11.834 -3.5 -24.501 -3.5h-232c-14.667 0 -22 5.66699 -22 17v39c0 9.33301 1.83301 14.666 5.5 15.999s10.167 2 19.5 2h229c10.667 0 18.334 -0.666992 23.001 -2s7 -5.66602 7 -12.999v-39v0z" />
    <glyph glyph-name="period" unicode="." horiz-adv-x="219" 
d="M163 29c0 -7.33301 -0.666992 -14 -2 -20s-7 -9 -17 -9h-62c-10 0 -16.667 2.5 -20 7.5s-5 11.167 -5 18.5v43c0 5.33301 1.33301 10.333 4 15s6.66699 7 12 7h65c11.333 0 18.333 -1.66699 21 -5s4 -8 4 -14v-43v0z" />
    <glyph glyph-name="slash" unicode="/" horiz-adv-x="309" 
d="M94 21c-4 -9.33301 -7.49902 -15.166 -10.499 -17.499s-7.83301 -3.5 -14.5 -3.5h-50c-8 0 -13 1.66699 -15 5s-0.666992 9.66602 4 18.999l204 505c3.33301 8 6.66602 13.5 9.99902 16.5s10 4.5 20 4.5h51c7.33301 0 11 -1.5 11 -4.5s-1.66699 -8.83301 -5 -17.5z" />
    <glyph glyph-name="zero" unicode="0" horiz-adv-x="511" 
d="M269 -6c-23.333 0 -46.665 2.16602 -69.998 6.49902s-44.333 12.5 -63 24.5s-33.834 28.833 -45.501 50.5s-17.5 49.834 -17.5 84.501v214c0 36.667 4.66699 67 14 91s22.666 43 39.999 57s38 23.833 62 29.5s50.667 8.5 80 8.5c24.667 0 48.167 -2.5 70.5 -7.5
s42 -14 59 -27s30.333 -31 40 -54s14.5 -52.5 14.5 -88.5v-206c0 -40 -5.16699 -72 -15.5 -96s-24 -42.5 -41 -55.5s-36.5 -21.5 -58.5 -25.5s-45 -6 -69 -6zM368.001 363.999c0 44 -7.33496 75.3359 -22.002 94.0029s-40 28 -76 28c-23.333 0 -42.166 -2.5 -56.499 -7.5
s-25.5 -12.833 -33.5 -23.5s-13.333 -23.834 -16 -39.501s-4 -34.5 -4 -56.5v-194c0 -35.333 10.167 -60.5 30.5 -75.5s45.833 -22.5 76.5 -22.5c16 0 30.333 1.66699 43 5s23.334 9.16602 32.001 17.499s15.167 19.666 19.5 33.999s6.5 32.5 6.5 54.5v186z" />
    <glyph glyph-name="one" unicode="1" horiz-adv-x="300" 
d="M220 0h-53.002c-7.33301 0 -12.166 2 -14.499 6s-3.5 10.667 -3.5 20v410c0 6 -1 10.167 -3 12.5s-6 3.5 -12 3.5h-57c-7.33301 0 -12 2.33301 -14 7c-2 2 -3 4.33301 -3 7v32c0 6 1.66699 10.5 5 13.5s10.333 6.16699 21 9.5l52 19c9.33301 3.33301 15.833 5.5 19.5 6.5
s8.83398 1.5 15.501 1.5h47c8.66699 0 13.5 -2 14.5 -6s1.5 -10.667 1.5 -20v-499c0 -9.33301 -0.833008 -15.5 -2.5 -18.5s-6.16699 -4.5 -13.5 -4.5z" />
    <glyph glyph-name="two" unicode="2" horiz-adv-x="511" 
d="M429 0l-343 0.00390625c-3.33301 0 -6.83301 1.16699 -10.5 3.5s-5.5 7.16602 -5.5 14.499v36c0 30 4.83301 57.333 14.5 82s22 46.667 37 66s31.667 36 50 50s35.833 25.667 52.5 35c16 8.66699 31.5 17.834 46.5 27.501s28.5 19.667 40.5 30s21.667 20.666 29 30.999
s11 21.166 11 32.499c0 25.333 -8.83301 44.5 -26.5 57.5s-43.5 19.5 -77.5 19.5c-32.667 0 -59.167 -4.83301 -79.5 -14.5s-36.166 -17.834 -47.499 -24.501c-3.33301 -2 -7.16602 0.166992 -11.499 6.5s-8 14 -11 23s-4.83301 17.833 -5.5 26.5s0.666016 14 3.99902 16
c6 3.33301 13.5 7.16602 22.5 11.499s20.167 8.5 33.5 12.5s29 7.33301 47 10s39.333 4 64 4c55.333 0 99.166 -11.167 131.499 -33.5s48.5 -56.5 48.5 -102.5c0 -22.667 -5.16699 -43.167 -15.5 -61.5s-23.5 -35.166 -39.5 -50.499s-34 -29.333 -54 -42
s-40 -24.334 -60 -35.001c-12.667 -7.33301 -25 -15.5 -37 -24.5s-22.5 -19.167 -31.5 -30.5s-16.5 -23.833 -22.5 -37.5s-9.33301 -29.167 -10 -46.5c0 -7.33301 1.66699 -12 5 -14s9 -3 17 -3h223c9.33301 0 15.833 -0.833008 19.5 -2.5s5.5 -5.16699 5.5 -10.5v-49
c0 -8.66699 -4.66699 -13 -14 -13z" />
    <glyph glyph-name="three" unicode="3" horiz-adv-x="491" 
d="M245 -6c-38.667 0 -73.0039 4.00195 -103.004 12.002s-52 16 -66 24c-3.33301 2 -4.83301 7 -4.5 15s1.83301 16.167 4.5 24.5s5.83398 15.666 9.50098 21.999s7.16699 8.83301 10.5 7.5c17.333 -7.33301 37.166 -14.333 59.499 -21s46.833 -10 73.5 -10
c32.667 0 58.667 7.33301 78 22s29 36 29 64c0 14 -3.16699 26.667 -9.5 38s-15 21 -26 29s-24 14.167 -39 18.5s-30.833 7.16602 -47.5 8.49902c-7.33301 0.666992 -12.833 1.33398 -16.5 2.00098s-5.5 4.66699 -5.5 12v33c0 7.33301 2.33301 11.666 7 12.999
s10.667 2.33301 18 3c36 2 64.667 11.167 86 27.5s32 40.166 32 71.499c0 23.333 -9.66699 42.666 -29 57.999s-47.666 23 -84.999 23c-21.333 0 -41.5 -3.33301 -60.5 -10s-35.5 -15 -49.5 -25c-3.33301 -2 -6.66602 -0.166992 -9.99902 5.5s-6.16602 12.667 -8.49902 21
s-3.83301 16.5 -4.5 24.5s0.333008 13 3 15c6 4.66699 12.833 9.16699 20.5 13.5s17.167 8.33301 28.5 12s24.833 6.66699 40.5 9s34.167 3.5 55.5 3.5c58.667 0 103.334 -12 134.001 -36s46 -57.667 46 -101c0 -39.333 -9.66699 -71.333 -29 -96s-44 -40.667 -74 -48
c32 -9.33301 57.833 -25.166 77.5 -47.499s29.5 -51.5 29.5 -87.5c0 -25.333 -4.66699 -47.333 -14 -66s-22 -34.167 -38 -46.5s-34.5 -21.666 -55.5 -27.999s-43.5 -9.5 -67.5 -9.5z" />
    <glyph glyph-name="four" unicode="4" horiz-adv-x="450" 
d="M397 107l-33.002 0.00195312v-95c0 -4.66699 -1 -7.83398 -3 -9.50098s-6 -2.5 -12 -2.5h-38c-7.33301 0 -12.666 1 -15.999 3s-5 6 -5 12v92h-239c-6 0 -10.333 0.666992 -13 2s-4 4.66602 -4 9.99902v35c0 6 0.666992 11 2 15s3.33301 8.33301 6 13l230 340
c2.66699 4.66699 6.33398 10 11.001 16s10.334 9 17.001 9h51c7.33301 0 11.333 -1.5 12 -4.5s1 -7.83301 1 -14.5v-354h34c5.33301 0 8.66602 -0.833008 9.99902 -2.5s2 -5.5 2 -11.5v-35c0 -6 -0.833008 -10.5 -2.5 -13.5s-5.16699 -4.5 -10.5 -4.5zM289.998 425.002
l-168 -251h168v251z" />
    <glyph glyph-name="five" unicode="5" horiz-adv-x="490" 
d="M238 -6c-28 0 -51.8359 1.66797 -71.5029 5.00098s-36 7 -49 11s-23.167 8.16699 -30.5 12.5s-12.333 7.5 -15 9.5s-3.66699 7.16699 -3 15.5s2.33398 17 5.00098 26s6.16699 16.5 10.5 22.5s8.83301 8 13.5 6c11.333 -5.33301 28 -12.333 50 -21s48.667 -13 80 -13
c34.667 0 60.5 9.5 77.5 28.5s25.5 41.167 25.5 66.5c0 23.333 -6 43.166 -18 59.499s-29.667 30.166 -53 41.499c-15.333 7.33301 -34.666 13.666 -57.999 18.999s-45.666 9 -66.999 11c-8.66699 1.33301 -15.834 4.83301 -21.501 10.5s-8.5 13.834 -8.5 24.501v204
c0 7.33301 1.83301 12.166 5.5 14.499s7.5 3.5 11.5 3.5h279c9.33301 0 14 -4.33301 14 -13v-49c0 -5.33301 -1.83301 -8.83301 -5.5 -10.5s-10.167 -2.5 -19.5 -2.5h-185c-8.66699 0 -14.5 -1 -17.5 -3s-4.5 -6.66699 -4.5 -14v-88c0 -4 1.16699 -6.83301 3.5 -8.5
s7.16602 -3.16699 14.499 -4.5c20.667 -3.33301 41.667 -8.16602 63 -14.499s40.333 -13.166 57 -20.499c30.667 -14 56 -33.833 76 -59.5s30 -59.5 30 -101.5c0 -23.333 -4.66699 -45.333 -14 -66s-22.166 -38.5 -38.499 -53.5s-36.166 -26.833 -59.499 -35.5
s-49 -13 -77 -13z" />
    <glyph glyph-name="six" unicode="6" horiz-adv-x="501" 
d="M260 0c-27.333 0 -52.502 2.99512 -75.502 8.99512s-43.167 15.167 -60.5 27.5s-30.833 28 -40.5 47s-14.5 41.833 -14.5 68.5v226c0 66.667 15.5 114.5 46.5 143.5s82.167 43.5 153.5 43.5c8.66699 0 19.334 -0.666992 32.001 -2s25.334 -3.16602 38.001 -5.49902
s24.167 -4.66602 34.5 -6.99902s17.833 -4.5 22.5 -6.5c4 -2 6 -7.16699 6 -15.5s-1 -17.166 -3 -26.499s-4.83301 -17.666 -8.5 -24.999s-7.5 -10.333 -11.5 -9c-3.33301 0.666992 -8.5 2.33398 -15.5 5.00098s-15.5 5.33398 -25.5 8.00098s-21 5 -33 7s-24 3 -36 3
c-25.333 0 -45.5 -2.83301 -60.5 -8.5s-26.333 -13.5 -34 -23.5s-12.667 -22 -15 -36s-3.5 -29 -3.5 -45v-21c0 -12.667 3.66699 -16 11 -10c13.333 8.66699 28.333 16 45 22s36 9 58 9c25.333 0 48.5 -3.5 69.5 -10.5s39 -18 54 -33s26.667 -34.167 35 -57.5
s12.5 -51.333 12.5 -84c0 -30 -2.83301 -56.833 -8.5 -80.5s-15.5 -43.834 -29.5 -60.501s-32.667 -29.5 -56 -38.5s-52.333 -13.5 -87 -13.5zM268.998 304.995c-25.333 0 -45.833 -3.00098 -61.5 -9.00098s-29.167 -13.667 -40.5 -23
c-7.33301 -7.33301 -11 -13.666 -11 -18.999v-84c0 -34 8.83301 -58.5 26.5 -73.5s43.167 -22.5 76.5 -22.5c30 0 53.167 8.66699 69.5 26s24.5 48.333 24.5 93c0 42 -8 71.167 -24 87.5s-36 24.5 -60 24.5z" />
    <glyph glyph-name="seven" unicode="7" horiz-adv-x="500" 
d="M260 19c-2 -6 -4.33301 -10.668 -7 -14.001s-6.66699 -5 -12 -5h-53c-8 0 -13.667 1 -17 3s-3.33301 7 0 15l154 436c3.33301 11.333 -3 17 -19 17h-221c-6 0 -10 2 -12 6s-3 7.33301 -3 10v42c0 6.66699 1 11.334 3 14.001s6.66699 4 14 4h324
c12.667 0 20.5 -2.16699 23.5 -6.5s3.16699 -10.833 0.5 -19.5z" />
    <glyph glyph-name="eight" unicode="8" horiz-adv-x="500" 
d="M255 -3c-67.333 0 -116.332 12.6689 -146.999 38.002s-46 61 -46 107c0 18 2.33301 34.5 7 49.5s10.5 28.333 17.5 40s15 21.5 24 29.5s18.167 13.667 27.5 17c-17.333 8 -33 22.833 -47 44.5s-21 48.5 -21 80.5c0 22 3.83301 42.667 11.5 62s19 36.166 34 50.499
s33.5 25.666 55.5 33.999s47 12.5 75 12.5c32.667 0 60.834 -4 84.501 -12s43.167 -19.167 58.5 -33.5s26.666 -31.166 33.999 -50.499s11 -40 11 -62c0 -16.667 -2.5 -32.167 -7.5 -46.5s-11.167 -26.833 -18.5 -37.5s-15.833 -19.667 -25.5 -27
s-18.834 -12.333 -27.501 -15c29.333 -10 51.5 -27.333 66.5 -52s22.5 -53.334 22.5 -86.001c0 -23.333 -4.66699 -44 -14 -62s-22.333 -33 -39 -45s-36.5 -21 -59.5 -27s-48.5 -9 -76.5 -9zM249.001 251.002c-18 0 -33.5 -2.66602 -46.5 -7.99902s-23.667 -12.333 -32 -21
s-14.5 -18.834 -18.5 -30.501s-6 -23.834 -6 -36.501c0 -28.667 9.66699 -50.167 29 -64.5s46 -21.5 80 -21.5c32 0 57.167 7.16699 75.5 21.5s27.5 35.833 27.5 64.5c0 26.667 -9.33301 49.334 -28 68.001s-45.667 28 -81 28zM249.001 490.003
c-29.333 0 -52.666 -8.16699 -69.999 -24.5s-26 -40.833 -26 -73.5c0 -24 8.83301 -43 26.5 -57s40.5 -21 68.5 -21c32 0 57.167 7.16699 75.5 21.5s27.5 32.833 27.5 55.5c0 34 -9.33301 59 -28 75s-43.334 24 -74.001 24z" />
    <glyph glyph-name="nine" unicode="9" horiz-adv-x="509" 
d="M241 -7c-9.33301 0 -21.334 0.834961 -36.001 2.50195s-29.667 3.5 -45 5.5s-29.5 4.33301 -42.5 7s-21.833 5 -26.5 7c-4 2 -6 7.16699 -6 15.5s1 17.166 3 26.499s4.83301 17.5 8.5 24.5s7.5 9.83301 11.5 8.5c2.66699 -0.666992 8.83398 -2.33398 18.501 -5.00098
s21 -5.33398 34 -8.00098s26.667 -5 41 -7s27.5 -3 39.5 -3c25.333 0 45.5 2.83301 60.5 8.5s26.333 13.667 34 24s12.667 22.333 15 36s3.5 28.5 3.5 44.5v22c0 11.333 -3.66699 14.666 -11 9.99902c-13.333 -9.33301 -28.333 -17 -45 -23s-35.667 -9 -57 -9
c-26 0 -49.5 3.5 -70.5 10.5s-39 18 -54 33s-26.5 34.333 -34.5 58s-12 51.834 -12 84.501c0 29.333 2.83301 56 8.5 80s15.5 44.333 29.5 61s32.5 29.5 55.5 38.5s51.833 13.5 86.5 13.5c27.333 0 52.666 -3 75.999 -9s43.666 -15.167 60.999 -27.5
s30.833 -28.166 40.5 -47.499s14.5 -42 14.5 -68v-226c0 -33.333 -3.66699 -62 -11 -86s-19.166 -43.5 -35.499 -58.5s-37.166 -26 -62.499 -33s-56 -10.5 -92 -10.5zM353.999 389.002c0 33.333 -8.83105 57.502 -26.498 72.502s-42.834 22.5 -75.501 22.5
c-30.667 0 -54.167 -8.5 -70.5 -25.5s-24.5 -47.833 -24.5 -92.5c0 -42.667 8 -72.167 24 -88.5s36 -24.5 60 -24.5c26 0 46.667 3.16699 62 9.5s28.666 14.166 39.999 23.499c7.33301 5.33301 11 11.666 11 18.999v84z" />
    <glyph glyph-name="colon" unicode=":" horiz-adv-x="220" 
d="M162 366c0 -8 -1.33301 -13.999 -4 -17.999s-8 -6 -16 -6h-60c-9.33301 0 -15.5 1.5 -18.5 4.5s-4.5 7.16699 -4.5 12.5v44c0 9.33301 1.16699 16.166 3.5 20.499s7.5 6.5 15.5 6.5h61c15.333 0 23 -7.66699 23 -23v-41zM163 28.001
c0 -6.66699 -0.665039 -13 -1.99805 -19s-7 -9 -17 -9h-61c-10.667 0 -17.834 2.5 -21.501 7.5s-5.5 10.833 -5.5 17.5v43c0 5.33301 1.33301 10.333 4 15s6.66699 7 12 7h67c11.333 0 18.166 -1.5 20.499 -4.5s3.5 -7.5 3.5 -13.5v-44z" />
    <glyph glyph-name="semicolon" unicode=";" horiz-adv-x="226" 
d="M164 356c0 -6 -1 -11.833 -3 -17.5s-7 -8.5 -15 -8.5h-63c-11.333 0 -18.333 2 -21 6s-4 9.33301 -4 16v44c0 6 1 11.5 3 16.5s6.66699 7.5 14 7.5h67c10 0 16.167 -2 18.5 -6s3.5 -9.33301 3.5 -16v-42zM161 63c-7.33301 -32 -20.3311 -60.999 -38.998 -86.999
s-39.667 -47 -63 -63c-3.33301 -2.66699 -6.83301 -3.83398 -10.5 -3.50098s-7 1.5 -10 3.5s-5.16699 4.5 -6.5 7.5s-1.33301 5.83301 0 8.5c9.33301 19.333 17.166 41.5 23.499 66.5s10.166 46.833 11.499 65.5c0.666992 12.667 5.66699 19 15 19h61
c9.33301 0 15 -1.5 17 -4.5s2.33301 -7.16699 1 -12.5z" />
    <glyph glyph-name="less" unicode="&#x3c;" horiz-adv-x="422" 
d="M86 235c-9.33301 3.33301 -15.999 6.33203 -19.999 8.99902s-6 7.33398 -6 14.001v41c0 9.33301 1.66699 15.333 5 18s9.66602 6 18.999 10l252 96c10 4 17.167 5.66699 21.5 5s6.5 -4.66699 6.5 -12v-39c0 -8.66699 -2.16699 -14.5 -6.5 -17.5
s-11.833 -6.16699 -22.5 -9.5l-195 -69l195 -68c10.667 -3.33301 18.167 -6.5 22.5 -9.5s6.5 -8.83301 6.5 -17.5v-39c0 -8 -2.16699 -12.167 -6.5 -12.5s-11.5 1.5 -21.5 5.5l-250 95v0z" />
    <glyph glyph-name="equal" unicode="=" horiz-adv-x="451" 
d="M389 345c0 -9.33301 -1.99902 -14.832 -5.99902 -16.499s-11 -2.5 -21 -2.5h-279c-8.66699 0 -14.667 0.666992 -18 2s-5 6.66602 -5 15.999v29c0 8.66699 2.16699 13.667 6.5 15s11.166 2 20.499 2h277c9.33301 0 15.833 -1 19.5 -3s5.5 -5.66699 5.5 -11v-31z
M387.001 216.001c0 -9.33301 -2.16797 -14.668 -6.50098 -16.001s-11.166 -2 -20.499 -2h-277c-9.33301 0 -15.833 1 -19.5 3s-5.5 5.66699 -5.5 11v31c0 9.33301 2 14.833 6 16.5s11 2.5 21 2.5h279c9.33301 0 15.5 -0.666992 18.5 -2s4.5 -6.66602 4.5 -15.999v-28z" />
    <glyph glyph-name="greater" unicode="&#x3e;" horiz-adv-x="421" 
d="M363 257c0 -6.66699 -1.99902 -11.333 -5.99902 -14s-10.667 -5.66699 -20 -9l-250 -95c-10 -4 -17.167 -5.83301 -21.5 -5.5s-6.5 4.5 -6.5 12.5v39c0 8.66699 2.16699 14.5 6.5 17.5s11.833 6.16699 22.5 9.5l195 68l-195 69c-10.667 3.33301 -18.167 6.5 -22.5 9.5
s-6.5 8.83301 -6.5 17.5v39c0 7.33301 2.16699 11.333 6.5 12s11.5 -1 21.5 -5l252 -96c9.33301 -4 15.666 -7.33301 18.999 -10s5 -8.66699 5 -18v-41v0z" />
    <glyph glyph-name="question" unicode="?" horiz-adv-x="352" 
d="M325 465c0 -28 -6.16309 -52.5029 -18.4961 -73.5029s-25.833 -40.167 -40.5 -57.5l-40.5 -49c-12.333 -15.333 -18.5 -31 -18.5 -47v-42c0 -13.333 -6 -20 -18 -20h-52c-6.66699 0 -11.334 1.33301 -14.001 4s-3.66699 7.66699 -3 15
c-0.666992 7.33301 -1 14.666 -1 21.999c0 6.66699 0.333008 13.667 1 21s1.66699 14 3 20c4.66699 16.667 13.167 32.334 25.5 47.001l38 44c13 14.667 24.667 29.667 35 45s15.5 32.333 15.5 51c0 53.333 -25.333 80 -76 80c-16.667 0 -33.834 -4.16699 -51.501 -12.5
s-31.167 -16.166 -40.5 -23.499c-3.33301 -2 -7 -0.5 -11 4.5s-7.5 11.5 -10.5 19.5s-4.83301 15.833 -5.5 23.5s1 13.167 5 16.5c4 2.66699 10 6.33398 18 11.001s17.333 9.33398 28 14.001s22.667 8.5 36 11.5s27.666 4.5 42.999 4.5c47.333 0 84.666 -11.5 111.999 -34.5
s41 -54.5 41 -94.5zM217.004 28.9971c0 -7.33301 -0.666016 -13.999 -1.99902 -19.999s-7 -9 -17 -9h-61c-10.667 0 -17.834 2.5 -21.501 7.5s-5.5 11.167 -5.5 18.5v40c0 5.33301 1.5 10.166 4.5 14.499s7.16699 6.5 12.5 6.5h68c9.33301 0 15.333 -1.5 18 -4.5
s4 -7.16699 4 -12.5v-41z" />
    <glyph glyph-name="at" unicode="@" horiz-adv-x="621" 
d="M467 117c-21.333 0 -40.3311 4.33008 -56.998 12.9971s-28 21 -34 37c-8 -14 -21 -26.333 -39 -37s-38.333 -16 -61 -16c-14.667 0 -28.5 3 -41.5 9s-24.5 15.333 -34.5 28s-17.833 29 -23.5 49s-8.5 44 -8.5 72c0 50 9 89.667 27 119s44.333 44 79 44
c25.333 0 45.5 -4.16699 60.5 -12.5s26.833 -19.833 35.5 -34.5v26c0 9.33301 3.66699 14 11 14h38c8 0 12.833 -1.5 14.5 -4.5s2.5 -7.16699 2.5 -12.5v-204c0 -11.333 3.66699 -22.166 11 -32.499s18.666 -15.5 33.999 -15.5c17.333 0 31.333 9 42 27s16 47.333 16 88
c0 34.667 -5.5 66.5 -16.5 95.5s-26.667 54 -47 75s-44.666 37.333 -72.999 49s-59.833 17.5 -94.5 17.5c-34 0 -64.833 -6 -92.5 -18s-51.334 -28.667 -71.001 -50s-34.834 -46.333 -45.501 -75s-16 -60 -16 -94c0 -37.333 5.5 -70.666 16.5 -99.999
s26.5 -54.166 46.5 -74.499s43.833 -36 71.5 -47s58.5 -16.5 92.5 -16.5c16 0 31.833 1.16699 47.5 3.5s30.5 5.16602 44.5 8.49902s26.333 7 37 11s19 7.66699 25 11c3.33301 1.33301 6.66602 0.333008 9.99902 -3s6 -7.66602 8 -12.999s2.83301 -10.5 2.5 -15.5
s-2.16602 -8.5 -5.49902 -10.5c-19.333 -9.33301 -44.333 -17.5 -75 -24.5s-62.334 -10.5 -95.001 -10.5c-44.667 0 -84.5 6.83301 -119.5 20.5s-64.5 33 -88.5 58s-42.333 54.667 -55 89s-19 72.166 -19 113.499c0 38.667 7 75 21 109s33.5 63.667 58.5 89
s54.833 45.333 89.5 60s72.334 22 113.001 22s78.167 -6.83301 112.5 -20.5s64 -32.667 89 -57s44.333 -53.666 58 -87.999s20.5 -72.5 20.5 -114.5c0 -54 -11.333 -93.667 -34 -119s-52 -38 -88 -38zM366.002 314.997c0 6 -1.16895 13.335 -3.50195 22.002
s-6 16.667 -11 24s-11.833 13.666 -20.5 18.999s-19 8 -31 8c-21.333 0 -36.666 -7.66699 -45.999 -23s-14 -38 -14 -68v-47c0 -25.333 4.83301 -46.5 14.5 -63.5s25.5 -25.5 47.5 -25.5c10 0 19 2.33301 27 7s14.833 10.167 20.5 16.5s9.83398 12.666 12.501 18.999
s4 11.5 4 15.5v96z" />
    <glyph glyph-name="A" unicode="A" horiz-adv-x="481" 
d="M441 0l-53.9971 0.000976562c-7.33301 0 -11.666 1.16699 -12.999 3.5s-3.33301 7.5 -6 15.5l-34 105h-196l-33 -105c-2.66699 -8 -5 -13.167 -7 -15.5s-6.33301 -3.5 -13 -3.5h-56c-5.33301 0 -8.5 1.16699 -9.5 3.5s0.166992 9.16602 3.5 20.499l160 499
c3.33301 8.66699 6.66602 14.834 9.99902 18.501s9.66602 5.5 18.999 5.5h57c9.33301 0 15.666 -1.83301 18.999 -5.5s6.66602 -9.83398 9.99902 -18.501l160 -499c4 -12 4 -19 0 -21s-9.66699 -3 -17 -3zM237.003 440.001l-78 -250h154z" />
    <glyph glyph-name="B" unicode="B" horiz-adv-x="450" 
d="M245 0l-169 0.00195312c-7.33301 0 -11.833 1.33301 -13.5 4s-2.5 7.66699 -2.5 15v502c0 8.66699 0.666992 15.167 2 19.5s6 6.5 14 6.5h146c67.333 0 117.833 -10.333 151.5 -31s50.5 -56.334 50.5 -107.001c0 -34.667 -7.16699 -63 -21.5 -85
s-34.833 -37.333 -61.5 -46c28 -8.66699 50.333 -22.834 67 -42.501s25 -50.5 25 -92.5c0 -45.333 -14 -80.5 -42 -105.5s-76.667 -37.5 -146 -37.5zM219 484.002l-62 -0.00195312c-6 -0.666992 -9.83301 -2.16699 -11.5 -4.5s-2.5 -5.16602 -2.5 -8.49902v-145
c0 -5.33301 1 -9 3 -11s6.33301 -3 13 -3h63c42 0 71.833 6.83301 89.5 20.5s26.5 35.167 26.5 64.5c0 32.667 -10 55.334 -30 68.001s-49.667 19 -89 19zM224 243h-63.999c-10.667 0 -16 -5 -16 -15v-151c0 -3.33301 1 -6.5 3 -9.5s6 -4.5 12 -4.5h62c42 0 73.5 6 94.5 18
s31.5 34.667 31.5 68c0 32 -10.833 55.667 -32.5 71s-51.834 23 -90.501 23z" />
    <glyph glyph-name="C" unicode="C" horiz-adv-x="450" 
d="M389 466c-9.33301 4 -21.666 8.83398 -36.999 14.501s-37.333 8.5 -66 8.5c-54 0 -92.167 -10.5 -114.5 -31.5s-33.5 -52.833 -33.5 -95.5v-194c0 -20.667 3.83301 -37.834 11.5 -51.501s17.667 -24.5 30 -32.5s26.166 -13.667 41.499 -17s30.666 -5 45.999 -5
c36 0 63.667 3.66699 83 11l43 16c2.66699 0.666992 5.5 -2.16602 8.5 -8.49902s5.5 -13.833 7.5 -22.5s3.5 -16.667 4.5 -24s0.5 -11.666 -1.5 -12.999c-11.333 -6 -30.5 -12 -57.5 -18s-58.5 -9 -94.5 -9c-70.667 0 -123.334 14.667 -158.001 44s-52 70 -52 122v210
c0 26 3 50.5 9 73.5s17.333 43 34 60s39.834 30.5 69.501 40.5s68.167 15 115.5 15c44.667 0 77.334 -4.16699 98.001 -12.5s33.667 -14.833 39 -19.5c2 -1.33301 2.16699 -5.33301 0.5 -12s-4.16699 -13.834 -7.5 -21.501s-6.83301 -14.334 -10.5 -20.001
s-6.5 -8.16699 -8.5 -7.5z" />
    <glyph glyph-name="D" unicode="D" horiz-adv-x="500" 
d="M255 0l-175 0.00195312c-5.33301 0 -10 2 -14 6s-6 10.667 -6 20v497c0 7.33301 1 13.166 3 17.499s6.66699 6.5 14 6.5h152c29.333 0 57.166 -2.5 83.499 -7.5s49.333 -14 69 -27s35.334 -30.833 47.001 -53.5s17.5 -52 17.5 -88v-201c0 -38 -6.5 -68.167 -19.5 -90.5
s-29 -39.333 -48 -51s-39.667 -19.334 -62 -23.001s-42.833 -5.5 -61.5 -5.5zM359 365.002c0 40.667 -11.665 69.333 -34.998 86s-54.666 25 -93.999 25h-66c-8 0 -13 -1.16699 -15 -3.5s-3 -6.16602 -3 -11.499v-372c0 -5.33301 1.16699 -9.5 3.5 -12.5
s8.16602 -4.5 17.499 -4.5h63c15.333 0 30.666 1.16699 45.999 3.5s29.166 7.16602 41.499 14.499s22.333 18.333 30 33s11.5 34 11.5 58v184z" />
    <glyph glyph-name="E" unicode="E" horiz-adv-x="450" 
d="M385 0l-292.001 -0.00292969c-5.33301 0 -9.66602 1.5 -12.999 4.5s-5 8.5 -5 16.5v501c0 7.33301 0.666992 13.333 2 18s5.66602 7 12.999 7h278c9.33301 0 15.166 -0.666992 17.499 -2s3.5 -4.66602 3.5 -9.99902v-44c0 -6 -3.16699 -9.5 -9.5 -10.5
s-15.166 -1.5 -26.499 -1.5h-175c-8.66699 0 -14.334 -1.16699 -17.001 -3.5s-4 -5.16602 -4 -8.49902v-129c0 -7.33301 1.33301 -12.166 4 -14.499s7.33398 -3.5 14.001 -3.5h156c11.333 0 18.333 -0.833008 21 -2.5s3.33398 -5.16699 2.00098 -10.5l-5 -42
c-1.33301 -8 -6 -12.333 -14 -13s-15.667 -1 -23 -1h-131c-8.66699 0 -14.5 -1.33301 -17.5 -4s-4.5 -7 -4.5 -13v-147c0 -8.66699 2 -13.5 6 -14.5s9.66699 -1.5 17 -1.5h190c10.667 0 18.167 -1 22.5 -3s6.5 -6 6.5 -12v-43c0 -5.33301 -1.66699 -8.83301 -5 -10.5
s-7 -2.5 -11 -2.5z" />
    <glyph glyph-name="F" unicode="F" horiz-adv-x="410" 
d="M347 478l-173.002 0.000976562c-9.33301 0 -15.166 -1.16699 -17.499 -3.5s-3.5 -5.16602 -3.5 -8.49902v-146c0 -7.33301 1.33301 -12 4 -14s7 -3 13 -3h152c11.333 0 18.333 -1.16699 21 -3.5s3.33398 -5.83301 2.00098 -10.5l-3 -42
c-1.33301 -7.33301 -5.83301 -11.5 -13.5 -12.5s-15.5 -1.5 -23.5 -1.5h-132c-7.33301 0 -12.166 -1.33301 -14.499 -4s-3.5 -7.33398 -3.5 -14.001v-202c0 -8.66699 -4.33301 -13 -13 -13h-55c-5.33301 0 -9.5 1.5 -12.5 4.5s-4.5 8.83301 -4.5 17.5v501
c0 7.33301 0.666992 13.166 2 17.499s5.66602 6.5 12.999 6.5h268c9.33301 0 15.166 -1 17.499 -3s3.5 -5 3.5 -9v-41c0 -6.66699 -2.16699 -11 -6.5 -13s-11.166 -3 -20.499 -3z" />
    <glyph glyph-name="G" unicode="G" horiz-adv-x="500" 
d="M263 -6c-44 0 -79.8301 4.83691 -107.497 14.5039s-49.334 22.834 -65.001 39.501s-26.5 36.167 -32.5 58.5s-9 46.5 -9 72.5v171c0 28 2.33301 54.667 7 80s15 47.5 31 66.5s39 34.167 69 45.5s70 17 120 17c26 0 48.5 -1.66699 67.5 -5s35.167 -7.33301 48.5 -12
s23.666 -9.33398 30.999 -14.001s12.333 -8.33398 15 -11.001c2 -2 2 -6.5 0 -13.5s-4.83301 -14.333 -8.5 -22s-7.83398 -14.167 -12.501 -19.5s-8.33398 -7 -11.001 -5c-9.33301 6.66699 -23.666 13.667 -42.999 21s-46.666 11 -81.999 11
c-24.667 0 -45.834 -2.16699 -63.501 -6.5s-32.334 -12 -44.001 -23s-20.334 -25.5 -26.001 -43.5s-8.5 -41 -8.5 -69v-160c0 -46 9.16699 -78.667 27.5 -98s49.833 -29 94.5 -29c36 0 62.833 6.5 80.5 19.5s26.5 38.167 26.5 75.5v70c0 4 -0.666992 7.66699 -2 11
s-5.66602 5 -12.999 5l-54 1c-5.33301 0 -9.33301 0.5 -12 1.5s-4 4.5 -4 10.5v38c0 3.33301 0.5 6.33301 1.5 9s4.16699 4 9.5 4h122c15.333 0 25 -1.83301 29 -5.5s6 -12.167 6 -25.5v-105c0 -20.667 -1.5 -41.334 -4.5 -62.001s-10.667 -39.334 -23 -56.001
s-31.166 -30.334 -56.499 -41.001s-60 -16 -104 -16z" />
    <glyph glyph-name="H" unicode="H" horiz-adv-x="530" 
d="M454 0l-51.999 -0.00195312c-12.667 0 -19 7.33301 -19 22v213c0 7.33301 -0.833008 11.666 -2.5 12.999s-5.83398 2 -12.501 2h-204c-5.33301 0 -8.83301 -0.666992 -10.5 -2s-2.5 -4.66602 -2.5 -9.99902v-214c0 -9.33301 -1.5 -15.666 -4.5 -18.999
s-9.16699 -5 -18.5 -5h-48c-6.66699 0 -11 2.16699 -13 6.5s-3 11.5 -3 21.5v500c0 7.33301 1 12.5 3 15.5s6.66699 4.5 14 4.5h49c8.66699 0 14.334 -1.66699 17.001 -5s4 -10 4 -20v-188c0 -9.33301 6 -14 18 -14h201c8.66699 0 13 4.33301 13 13v194
c0 13.333 7.33301 20 22 20h48c9.33301 0 14.666 -1.5 15.999 -4.5s2 -7.83301 2 -14.5v-505c0 -9.33301 -1 -15.666 -3 -18.999s-6.66699 -5 -14 -5z" />
    <glyph glyph-name="I" unicode="I" horiz-adv-x="202" 
d="M128 0h-52c-7.33301 0 -12.333 1.5 -15 4.5s-4 8.5 -4 16.5v510c0 7.33301 1.33301 12 4 14s8.66699 3 18 3h50c7.33301 0 11.833 -1.5 13.5 -4.5s2.5 -8.5 2.5 -16.5v-510c0 -6 -1 -10.333 -3 -13s-6.66699 -4 -14 -4z" />
    <glyph glyph-name="J" unicode="J" horiz-adv-x="250" 
d="M127 -12c-14.667 -7.33301 -29.1689 -13.6689 -43.502 -19.002s-25.5 -9.66602 -33.5 -12.999c-8.66699 -3.33301 -15 -0.333008 -19 9l-18 47c-4 12 0.333008 20.333 13 25l28.5 14c8.33301 4 15.5 8 21.5 12c16.667 9.33301 26.834 20.833 30.501 34.5
s5.5 32.834 5.5 57.501v373c0 7.33301 0.833008 12.5 2.5 15.5s5.83398 4.5 12.501 4.5h50c9.33301 0 15.333 -1.66699 18 -5s4 -10 4 -20v-401c0 -35.333 -5 -63 -15 -83s-29 -37 -57 -51z" />
    <glyph glyph-name="K" unicode="K" horiz-adv-x="500" 
d="M456 0l-70.9971 -0.000976562c-6.66699 0 -11.334 1.16699 -14.001 3.5s-6.66699 6.83301 -12 13.5l-179 228l-21 -24v-202c0 -7.33301 -0.833008 -12.333 -2.5 -15s-6.16699 -4 -13.5 -4h-51c-8.66699 0 -14.334 1.66699 -17.001 5s-4 10 -4 20v498
c0 10 1.66699 16.5 5 19.5s8.66602 4.5 15.999 4.5h50c8 0 12.833 -1.16699 14.5 -3.5s2.5 -8.16602 2.5 -17.499v-201l189 209c6 6 10.167 9.66699 12.5 11s6.5 2 12.5 2h62c10.667 0 17.667 -1 21 -3s1.33301 -6.33301 -6 -13l-209 -229l225 -284
c9.33301 -12 6 -18 -10 -18z" />
    <glyph glyph-name="L" unicode="L" horiz-adv-x="401" 
d="M361 0h-280.001c-7.33301 -0 -11.833 1.83301 -13.5 5.5s-2.5 10.5 -2.5 20.5v502c0 7.33301 1 12.5 3 15.5s6.66699 4.5 14 4.5h49c8.66699 0 14.334 -1.83301 17.001 -5.5s4 -10.167 4 -19.5v-440c0 -6 1.5 -10 4.5 -12s7.5 -3 13.5 -3h195c8 0 12.5 -1 13.5 -3
s1.5 -6 1.5 -12v-39c0 -6.66699 -1.33301 -10.667 -4 -12s-7.66699 -2 -15 -2z" />
    <glyph glyph-name="M" unicode="M" horiz-adv-x="640" 
d="M544 0l-45 0.000976562c-10.667 0 -17.5 1.66699 -20.5 5s-4.5 10 -4.5 20v380c0 12.667 -3.66699 13 -11 1l-118 -195c-5.33301 -8 -9 -13.333 -11 -16s-5 -4 -9 -4h-17c-5.33301 0 -9 1.16699 -11 3.5s-5.66699 8.16602 -11 17.499l-111 190
c-4.66699 7.33301 -8 10.5 -10 9.5s-3 -4.5 -3 -10.5v-382c0 -6 -1 -10.667 -3 -14s-7.33301 -5 -16 -5h-43c-7.33301 0 -13.5 1.16699 -18.5 3.5s-7.5 9.5 -7.5 21.5v498c0 10 1.66699 16.5 5 19.5s8.33301 4.5 15 4.5h52c5.33301 0 10 -0.666992 14 -2s8 -5.33301 12 -12
l142 -224c4 -5.33301 7.66699 -5.33301 11 0l139 222c6.66699 10.667 15 16 25 16h57c8.66699 0 13.5 -2 14.5 -6s1.5 -10.333 1.5 -19v-502c0 -7.33301 -1 -12.5 -3 -15.5s-7 -4.5 -15 -4.5z" />
    <glyph glyph-name="N" unicode="N" horiz-adv-x="571" 
d="M480 -2l-48.998 1c-7.33301 0 -12.833 1.33301 -16.5 4s-7.83398 7.66699 -12.501 15l-229 365c-6 9.33301 -10.333 14.5 -13 15.5s-4 -4.5 -4 -16.5v-356c0 -10 -1 -16.833 -3 -20.5s-6.66699 -5.5 -14 -5.5h-44c-4 0 -8.5 0.666992 -13.5 2s-7.5 8 -7.5 20v501
c0 2 0.5 6.5 1.5 13.5s5.16699 10.5 12.5 10.5h48c6.66699 0 11.667 -0.333008 15 -1s6 -1.5 8 -2.5s3.66699 -2.66699 5 -5s3 -4.83301 5 -7.5l230 -371c5.33301 -9.33301 9.5 -13.333 12.5 -12s4.5 9.33301 4.5 24v351c0 5.33301 0.666992 10.833 2 16.5
s4.66602 8.16699 9.99902 7.5h53c7.33301 0 11.833 -1.83301 13.5 -5.5s2.5 -10.167 2.5 -19.5v-496c0 -10 -1 -17.333 -3 -22s-6.66699 -6.66699 -14 -6z" />
    <glyph glyph-name="O" unicode="O" horiz-adv-x="551" 
d="M280 -5c-19.333 0 -41.165 1.49805 -65.498 4.49805s-47 9.83301 -68 20.5s-38.667 26.5 -53 47.5s-21.5 49.167 -21.5 84.5v220c0 67.333 16.167 115.5 48.5 144.5s84.833 43.5 157.5 43.5c28.667 0 55.667 -3 81 -9s47.166 -16 65.499 -30s32.833 -32.833 43.5 -56.5
s16 -53.5 16 -89.5v-200c0 -44 -7.5 -78.167 -22.5 -102.5s-33 -42.166 -54 -53.499s-43.333 -18.166 -67 -20.499s-43.834 -3.5 -60.501 -3.5zM397.001 368.998c0 41.333 -9.66504 71.333 -28.998 90s-48 28 -86 28c-46.667 0 -79 -10.167 -97 -30.5s-27 -50.5 -27 -90.5
v-195c0 -19.333 3.66699 -35.5 11 -48.5s16.833 -23.5 28.5 -31.5s24.667 -13.667 39 -17s28.833 -5 43.5 -5c16 0 31.167 1.5 45.5 4.5s26.666 8.66699 36.999 17s18.666 20 24.999 35s9.5 34.833 9.5 59.5v184z" />
    <glyph glyph-name="P" unicode="P" horiz-adv-x="477" 
d="M243 196l-90.001 0.000976562c-5.33301 0 -8.66602 -0.833008 -9.99902 -2.5s-2 -5.83398 -2 -12.501v-157c0 -10 -1.33301 -16.5 -4 -19.5s-7.66699 -4.5 -15 -4.5h-54c-8.66699 0 -13.5 2.16699 -14.5 6.5s-1.5 10.833 -1.5 19.5v502c0 7.33301 1.16699 12.333 3.5 15
s7.5 4 15.5 4h161c72.667 0 125.5 -14.333 158.5 -43s49.5 -72 49.5 -130s-15.667 -102.167 -47 -132.5s-81.333 -45.5 -150 -45.5zM227.999 479.001h-73c-6 0 -9.83301 -1.33301 -11.5 -4s-2.5 -5.66699 -2.5 -9v-185c0 -6.66699 1 -10.667 3 -12s6.33301 -2 13 -2h95
c28 0 51.5 8.5 70.5 25.5s28.5 45.5 28.5 85.5c0 18 -3.33301 33.333 -10 46s-15.5 23.167 -26.5 31.5s-24 14.333 -39 18s-30.833 5.5 -47.5 5.5z" />
    <glyph glyph-name="Q" unicode="Q" horiz-adv-x="551" 
d="M489 -99c-4.66699 -10 -12.333 -13 -23 -9c-6.66699 2 -15.5 6 -26.5 12s-23 13.833 -36 23.5s-26.333 20.667 -40 33s-26.167 25.833 -37.5 40.5c-9.33301 -0.666992 -18 -1.16699 -26 -1.5s-15.333 -0.5 -22 -0.5c-19.333 0 -41.166 1.5 -65.499 4.5
s-47 9.83301 -68 20.5s-38.667 26.5 -53 47.5s-21.5 49.167 -21.5 84.5v220c0 67.333 16 115.5 48 144.5s84.333 43.5 157 43.5c29.333 0 56.666 -3 81.999 -9s47.166 -16 65.499 -30s32.833 -32.833 43.5 -56.5s16 -53.5 16 -89.5v-200
c0 -42.667 -6.16699 -75.667 -18.5 -99s-28.833 -40.333 -49.5 -51c6 -7.33301 16.333 -17 31 -29s30.667 -21.667 48 -29c12.667 -3.33301 16.334 -12 11.001 -26zM394.001 373c0 41.333 -9.66797 71.334 -29.001 90.001s-48 28 -86 28c-46.667 0 -79 -10.167 -97 -30.5
s-27 -50.5 -27 -90.5v-195c0 -19.333 3.66699 -35.5 11 -48.5s16.833 -23.5 28.5 -31.5s24.834 -13.667 39.501 -17s29.334 -5 44.001 -5c16 0 31 1.5 45 4.5s26.167 8.66699 36.5 17s18.666 20.166 24.999 35.499s9.5 35 9.5 59v184z" />
    <glyph glyph-name="R" unicode="R" horiz-adv-x="510" 
d="M353 249c-5.33301 -1.33301 -8.33203 -2.3291 -8.99902 -2.99609s0 -3.33398 2 -8.00098l109 -211c5.33301 -10.667 7.5 -17.834 6.5 -21.501s-5.5 -5.5 -13.5 -5.5h-63c-7.33301 0 -12 1.66699 -14 5s-4.66699 8.66602 -8 15.999l-101 200c-2.66699 4.66699 -7 7 -13 7
h-82c-4 0 -6.33301 -0.666992 -7 -2s-1 -4.66602 -1 -9.99902v-192c0 -9.33301 -1.33301 -15.666 -4 -18.999s-7.66699 -5 -15 -5h-54c-8.66699 0 -13.5 2.16699 -14.5 6.5s-1.5 11.166 -1.5 20.499v501c0 7.33301 1.16699 12.5 3.5 15.5s7.5 4.5 15.5 4.5h161
c70.667 0 123 -14 157 -42s51 -67.333 51 -118c0 -19.333 -3.33301 -37 -10 -53s-15.334 -29.833 -26.001 -41.5s-22.167 -21.334 -34.5 -29.001s-23.833 -12.834 -34.5 -15.501zM246.001 480.004h-73c-6 -0.666992 -9.83301 -2.33398 -11.5 -5.00098s-2.5 -5.66699 -2.5 -9
v-152c0 -7.33301 1 -11.666 3 -12.999s6.33301 -2 13 -2h96c28 0 51.5 7.33301 70.5 22s28.5 37 28.5 67c0 17.333 -3.33301 31.833 -10 43.5s-15.667 21.167 -27 28.5s-24.5 12.5 -39.5 15.5s-30.833 4.5 -47.5 4.5z" />
    <glyph glyph-name="S" unicode="S" horiz-adv-x="460" 
d="M212 -5c-46 0 -82.8359 3.33301 -110.503 10s-46.5 13.667 -56.5 21c-2 1.33301 -3 6 -3 14s0.666992 16.5 2 25.5s3.33301 16.833 6 23.5s5.66699 9.66699 9 9c10.667 -3.33301 26.834 -8.66602 48.501 -15.999s52.5 -11 92.5 -11c18 0 34.833 1.33301 50.5 4
s29.334 7 41.001 13s20.834 13.833 27.501 23.5s10 21.834 10 36.501c0 23.333 -8 42.666 -24 57.999s-45 30.666 -87 45.999c-20.667 8 -40.167 16.667 -58.5 26s-34.333 20.5 -48 33.5s-24.5 28.333 -32.5 46s-12 38.5 -12 62.5c0 19.333 3.66699 37.666 11 54.999
s19 32.333 35 45s36.333 22.667 61 30s54 11 88 11c24 0 44 -0.666992 60 -2s29 -2.83301 39 -4.5s18 -3.33398 24 -5.00098s11 -3.16699 15 -4.5s6 -6 6 -14s-1.16699 -16.333 -3.5 -25s-5.5 -16.5 -9.5 -23.5s-8 -9.83301 -12 -8.5c-11.333 3.33301 -27.5 7 -48.5 11
s-41.833 6 -62.5 6c-42.667 0 -72.167 -6.5 -88.5 -19.5s-24.5 -30.167 -24.5 -51.5c0 -22.667 8.66699 -40.667 26 -54s45 -26.666 83 -39.999c53.333 -20.667 92.833 -44.667 118.5 -72s38.5 -61.666 38.5 -102.999c0 -30.667 -6 -56 -18 -76s-27.833 -36 -47.5 -48
s-42.167 -20.333 -67.5 -25s-51.333 -7 -78 -7z" />
    <glyph glyph-name="T" unicode="T" horiz-adv-x="449" 
d="M417 478l-131.001 0.000976562c-8 0 -13.167 -0.833008 -15.5 -2.5s-3.5 -5.5 -3.5 -11.5v-439c0 -10 -1 -16.667 -3 -20s-7.33301 -5 -16 -5h-51c-8.66699 0 -13.5 1.33301 -14.5 4s-1.5 9.66699 -1.5 21v439c0 6 -1.16699 9.83301 -3.5 11.5s-7.16602 2.5 -14.499 2.5
h-130c-7.33301 0 -12 1 -14 3s-3 4.66699 -3 8v46c0 5.33301 1.66699 8.66602 5 9.99902s9 2 17 2h373c7.33301 0 12.833 -0.333008 16.5 -1s5.5 -3.66699 5.5 -9v-48c0 -3.33301 -0.833008 -6 -2.5 -8s-6.16699 -3 -13.5 -3z" />
    <glyph glyph-name="U" unicode="U" horiz-adv-x="491" 
d="M243 -7c-22 0 -44.5 2.66602 -67.5 7.99902s-43.667 14.333 -62 27s-33.333 29.667 -45 51s-17.5 48.333 -17.5 81v371c0 12.667 4.33301 19 13 19h52c7.33301 0 12.5 -1.66699 15.5 -5s4.5 -9.66602 4.5 -18.999v-338c0 -38.667 9.83301 -68.334 29.5 -89.001
s45.5 -31 77.5 -31c22 0 40 2.83301 54 8.5s25 13.834 33 24.501s13.667 23.5 17 38.5s5 31.833 5 50.5v341c0 12.667 4.33301 19 13 19h54c6.66699 0 11.5 -1.66699 14.5 -5s4.5 -9.66602 4.5 -18.999v-353c0 -39.333 -6.16699 -70.833 -18.5 -94.5
s-28 -41.834 -47 -54.501s-40 -21 -63 -25s-45.167 -6 -66.5 -6z" />
    <glyph glyph-name="V" unicode="V" horiz-adv-x="497" 
d="M304 17c-2 -6 -4.5 -10.333 -7.5 -13s-8.16699 -4 -15.5 -4h-65c-8.66699 0 -14.5 1.5 -17.5 4.5s-5.16699 7.5 -6.5 13.5l-163 505c-3.33301 12 -3 19.167 1 21.5s9 3.5 15 3.5h54c7.33301 0 11.833 -1.33301 13.5 -4s3.83398 -8 6.50098 -16l133 -421l132 421
c2.66699 8 4.83398 13.333 6.50098 16s5.16699 4 10.5 4h50c7.33301 0 12.666 -1 15.999 -3s3.66602 -6.33301 0.999023 -13z" />
    <glyph glyph-name="W" unicode="W" horiz-adv-x="731" 
d="M541 16c-2 -6 -4.33203 -10.168 -6.99902 -12.501s-8 -3.5 -16 -3.5h-61c-8.66699 0 -14.5 1.33301 -17.5 4s-5.5 7.33398 -7.5 14.001l-68 210l-75 -211c-2 -6.66699 -4.33301 -11.167 -7 -13.5s-8 -3.5 -16 -3.5h-57c-8 0 -13.5 1.5 -16.5 4.5s-5.5 7.5 -7.5 13.5
l-162 505c-4 12 -4 19.167 0 21.5s9.33301 3.5 16 3.5h53c7.33301 0 11.833 -1.33301 13.5 -4s4.16699 -8 7.5 -16l132 -421l81 233l-58 183c-4 12 -4.16699 19.167 -0.5 21.5s8.83398 3.5 15.501 3.5h54c7.33301 0 11.666 -1.33301 12.999 -4s3.66602 -8 6.99902 -16
l132 -422l133 422c2.66699 8 4.83398 13.333 6.50098 16s5.16699 4 10.5 4h49c7.33301 0 12.666 -1 15.999 -3s4 -6.33301 2 -13z" />
    <glyph glyph-name="X" unicode="X" horiz-adv-x="520" 
d="M481 0l-63.0039 -0.000976562c-7.33301 0 -13.5 2 -18.5 6s-10.167 10 -15.5 18l-124 186l-6 -8l-15.5 -21l-21.5 -30l-24 -34l-67 -93c-7.33301 -11.333 -12.666 -18.166 -15.999 -20.499s-7.66602 -3.5 -12.999 -3.5h-56c-10 0 -15.5 1.66699 -16.5 5
s2.16699 9.66602 9.5 18.999l88 124l32.5 45.5c10.333 15 19.833 28.167 28.5 39.5l28 39l-172 253c-10 14.667 -7.33301 22 8 22h59c8 0 14.5 -1.5 19.5 -4.5s10.833 -9.83301 17.5 -20.5l122 -180l121 180c7.33301 10.667 13 17.5 17 20.5s10.667 4.5 20 4.5h49
c8.66699 0 13.334 -1.83301 14.001 -5.5s-1.66602 -9.16699 -6.99902 -16.5l-166 -245l176 -256c6 -9.33301 8.16699 -15.666 6.5 -18.999s-6.5 -5 -14.5 -5z" />
    <glyph glyph-name="Y" unicode="Y" horiz-adv-x="490" 
d="M288 225v-208c0 -11.333 -6 -17 -18 -17h-55c-10 0 -15 5 -15 15v211l-175 307c-4.66699 6.66699 -5.66699 10.834 -3 12.501s7.33398 2.5 14.001 2.5h61c5.33301 0 9.33301 -1 12 -3s6 -6.33301 10 -13l130 -230l64 116l64 115
c3.33301 5.33301 6.16602 9.16602 8.49902 11.499s7.5 3.5 15.5 3.5h48c8.66699 0 14 -1.16699 16 -3.5s0.333008 -7.83301 -5 -16.5l-86 -152l-31.5 -56l-28 -48c-8.33301 -14 -14.833 -25.333 -19.5 -34z" />
    <glyph glyph-name="Z" unicode="Z" horiz-adv-x="482" 
d="M416 0h-370.002c-9.33301 0 -14 3 -14 9v23c0 4.66699 1.5 9.66699 4.5 15s6.16699 10.666 9.5 15.999l262 414h-237c-11.333 0 -19.5 1.16699 -24.5 3.5s-6.83301 7.16602 -5.5 14.499l2 39c0.666992 4.66699 1.83398 8.16699 3.50098 10.5s7.16699 3.5 16.5 3.5h343
c4.66699 0 8.83398 -0.666992 12.501 -2s5.5 -3.66602 5.5 -6.99902v-23c0 -3.33301 -2.16699 -9 -6.5 -17s-7.5 -13.667 -9.5 -17l-259 -411h260c11.333 0 19 -0.833008 23 -2.5s6 -5.16699 6 -10.5v-43c0 -5.33301 -1.33301 -9.16602 -4 -11.499s-8.66699 -3.5 -18 -3.5z
" />
    <glyph glyph-name="bracketleft" unicode="[" horiz-adv-x="251" 
d="M228 -57c0 -5.33301 -1.33301 -8.83398 -4 -10.501s-7.33398 -2.5 -14.001 -2.5h-139c-8 0 -13.5 1.33301 -16.5 4s-4.5 7.66699 -4.5 15v653c0 7.33301 1 12 3 14s7.66699 3 17 3h139c8.66699 0 14 -1 16 -3s3 -5.66699 3 -11v-39c0 -10 -6.33301 -15 -19 -15h-55
c-6.66699 0 -11 -1.16699 -13 -3.5s-3 -6.16602 -3 -11.499v-523c0 -9.33301 5.33301 -14 16 -14h59c6.66699 0 10.834 -1.5 12.501 -4.5s2.5 -6.83301 2.5 -11.5v-40v0z" />
    <glyph glyph-name="backslash" unicode="\" horiz-adv-x="308" 
d="M8 528c-3.33301 8.66699 -4.99902 14.5 -4.99902 17.5s3.66699 4.5 11 4.5h51c10 0 16.667 -1.5 20 -4.5s6.66602 -8.5 9.99902 -16.5l204 -505c4.66699 -9.33301 6 -15.666 4 -18.999s-7 -5 -15 -5h-50c-6.66699 0 -11.5 1.16699 -14.5 3.5s-6.5 8.16602 -10.5 17.499z
" />
    <glyph glyph-name="bracketright" unicode="]" horiz-adv-x="251" 
d="M41 -69c-6.66699 0 -11.334 0.833984 -14.001 2.50098s-4 5.16699 -4 10.5v40c0 4.66699 0.833008 8.5 2.5 11.5s5.83398 4.5 12.501 4.5h59c10.667 0 16 4.66699 16 14v523c0 5.33301 -1 9.16602 -3 11.499s-6.33301 3.5 -13 3.5h-55c-12.667 0 -19 5 -19 15v39
c0 5.33301 1 9 3 11s7.33301 3 16 3h139c9.33301 0 15 -1 17 -3s3 -6.66699 3 -14v-653c0 -7.33301 -1.5 -12.333 -4.5 -15s-8.5 -4 -16.5 -4h-139v0z" />
    <glyph glyph-name="asciicircum" unicode="^" horiz-adv-x="300" 
d="M276 460c3.33301 -8 4.83496 -13.667 4.50195 -17s-3.83301 -5 -10.5 -5h-31c-7.33301 0 -12 2 -14 6s-4.66699 9.66699 -8 17l-67 157l-68 -157c-2.66699 -7.33301 -5.16699 -13 -7.5 -17s-6.83301 -6 -13.5 -6h-31c-6.66699 0 -10.167 1.66699 -10.5 5
s1.16699 9 4.5 17l88 200c3.33301 6.66699 6.16602 12 8.49902 16s5.83301 6 10.5 6h33c6.66699 0 11.167 -1.5 13.5 -4.5s5.16602 -8.16699 8.49902 -15.5l90 -202v0z" />
    <glyph glyph-name="underscore" unicode="_" horiz-adv-x="399" 
d="M399 -50c0 -8.66699 -1.83105 -14.167 -5.49805 -16.5s-11.834 -3.5 -24.501 -3.5h-348c-8 0 -13.5 1.16699 -16.5 3.5s-4.5 6.5 -4.5 12.5v16c0 9.33301 1.66699 14.833 5 16.5s9.66602 2.5 18.999 2.5h344c10.667 0 18.5 -0.833008 23.5 -2.5s7.5 -6.16699 7.5 -13.5
v-15v0z" />
    <glyph glyph-name="grave" unicode="`" horiz-adv-x="300" 
d="M225 535c10.667 -14 9.33398 -21 -3.99902 -21h-31c-5.33301 0 -10 1.5 -14 4.5s-7.66699 6.5 -11 10.5l-100 103c-7.33301 7.33301 -10.833 12.833 -10.5 16.5s6.16602 5.5 17.499 5.5h56c6.66699 0 11.5 -1.33301 14.5 -4s6.5 -6.66699 10.5 -12l72 -103v0z" />
    <glyph glyph-name="a" unicode="a" horiz-adv-x="431" 
d="M356 0l-43.002 -0.000976562c-6 0 -10.667 1.16699 -14 3.5s-5 8.5 -5 18.5v32c-8 -16.667 -24 -31.167 -48 -43.5s-51.667 -18.5 -83 -18.5c-20 0 -38.333 3.83301 -55 11.5s-31 20 -43 37s-21.333 38.833 -28 65.5s-10 59 -10 97c0 68 10.833 121.5 32.5 160.5
s55.834 58.5 102.501 58.5c34.667 0 62.334 -5.66699 83.001 -17s37 -26.666 49 -45.999v33c0 12.667 4.66699 19 14 19h44c11.333 0 18 -1.83301 20 -5.5s3 -9.5 3 -17.5v-358c0 -10 -0.833008 -17.5 -2.5 -22.5s-7.16699 -7.5 -16.5 -7.5zM286.998 266.999
c0 8 -1.66699 17.667 -5 29s-8.5 22 -15.5 32s-16 18.5 -27 25.5s-24.5 10.5 -40.5 10.5c-28 0 -49.167 -9.83301 -63.5 -29.5s-21.5 -52.167 -21.5 -97.5v-64c0 -38 7.16699 -68 21.5 -90s35.833 -33 64.5 -33c14 0 26.333 3 37 9s19.667 13.167 27 21.5s13 16.833 17 25.5
s6 15.667 6 21v140z" />
    <glyph glyph-name="b" unicode="b" horiz-adv-x="459" 
d="M278 -9c-61.333 0 -105.999 17.333 -133.999 52v-22c0 -10 -1.66699 -16 -5 -18s-8 -3 -14 -3h-43c-9.33301 0 -15 2.5 -17 7.5s-3 12.5 -3 22.5v515c0 8 1.16699 13.833 3.5 17.5s9.16602 5.5 20.499 5.5h43c6 0 10 -2.16699 12 -6.5s3 -10.5 3 -18.5v-181
c25.333 40 69.333 60 132 60c46 0 80 -19.5 102 -58.5s33 -92.5 33 -160.5c0 -38 -3.33301 -70.5 -10 -97.5s-15.834 -49 -27.501 -66s-25.667 -29.333 -42 -37s-34.166 -11.5 -53.499 -11.5zM323.001 237c0 38 -6.99902 68.666 -20.999 91.999s-35 35 -63 35
c-16 0 -29.667 -3 -41 -9s-20.5 -13.667 -27.5 -23s-12.167 -19.5 -15.5 -30.5s-5 -21.5 -5 -31.5v-151c0 -5.33301 2 -11.833 6 -19.5s9.66699 -15.167 17 -22.5s16.333 -13.666 27 -18.999s22.667 -8 36 -8c29.333 0 51.166 11 65.499 33s21.5 52 21.5 90v64z" />
    <glyph glyph-name="c" unicode="c" horiz-adv-x="403" 
d="M226 -8c-31.333 0 -58.833 3.33301 -82.5 10s-43.5 18.167 -59.5 34.5s-28 38.166 -36 65.499s-12 61.333 -12 102c0 40 4.33301 73.833 13 101.5s21.334 50.334 38.001 68.001s37 30.334 61 38.001s51.333 11.5 82 11.5c34 0 63.167 -4.5 87.5 -13.5
s44.166 -23.5 59.499 -43.5c2.66699 -4 1.16699 -9.33301 -4.5 -16s-12.667 -12.667 -21 -18s-16.5 -9.33301 -24.5 -12s-13 -2.33398 -15 0.999023c-8 12.667 -18.5 23 -31.5 31s-30.167 12 -51.5 12c-30 0 -54.667 -9.66699 -74 -29s-29 -50 -29 -92v-75
c0 -41.333 10 -71.166 30 -89.499s44.333 -27.5 73 -27.5c18 0 34 4.66699 48 14s25.333 20.666 34 33.999c2 4 6.83301 5.5 14.5 4.5s15.667 -3.16699 24 -6.5s15.5 -7.5 21.5 -12.5s8.33301 -9.16699 7 -12.5c-14 -25.333 -33.5 -45 -58.5 -59s-56.167 -21 -93.5 -21z" />
    <glyph glyph-name="d" unicode="d" horiz-adv-x="444" 
d="M376 0l-43.002 -0.000976562c-6 0 -10.667 1 -14 3s-5 8.33301 -5 19v21c-15.333 -17.333 -33.666 -30.333 -54.999 -39s-47.666 -13 -78.999 -13c-20 0 -38.167 3.83301 -54.5 11.5s-30.333 20 -42 37s-20.667 39 -27 66s-9.5 59.5 -9.5 97.5
c0 68 10.833 121.5 32.5 160.5s55.834 58.5 102.501 58.5c31.333 0 57.333 -4.66699 78 -14s38.667 -24.666 54 -45.999v181c0 16.667 4.66699 25 14 25h44c11.333 0 18.166 -1.83301 20.499 -5.5s3.5 -9.5 3.5 -17.5v-515c0 -10 -1 -17.5 -3 -22.5s-7.66699 -7.5 -17 -7.5z
M306.998 269.999c0 10 -1.66797 20.501 -5.00098 31.501s-8.5 21.167 -15.5 30.5s-16 17 -27 23s-24.5 9 -40.5 9c-28 0 -49.167 -11.667 -63.5 -35s-21.5 -54 -21.5 -92v-64c0 -38 7.33301 -68 22 -90s36.334 -33 65.001 -33c14 0 26.333 2.66699 37 8
s19.667 11.666 27 18.999s12.833 14.833 16.5 22.5s5.5 14.167 5.5 19.5v151z" />
    <glyph glyph-name="e" unicode="e" horiz-adv-x="450" 
d="M367 183h-235c0 -44.667 10.833 -76.5 32.5 -95.5s51.5 -28.5 89.5 -28.5c33.333 0 59.666 2.16699 78.999 6.5s32.666 7.5 39.999 9.5c14.667 6 22 3.66699 22 -7v-38c0 -6.66699 -1.66699 -11.334 -5 -14.001s-10.333 -5.66699 -21 -9
c-3.33301 -0.666992 -9.16602 -1.66699 -17.499 -3l-29 -4.5c-11 -1.66699 -22.833 -3 -35.5 -4s-25 -1.5 -37 -1.5c-69.333 0 -120.333 16.167 -153 48.5s-49 86.5 -49 162.5c0 73.333 14.5 128.333 43.5 165s74.167 55 135.5 55c56.667 0 99.667 -14 129 -42
s44 -68 44 -120v-47c0 -11.333 -1.66699 -19.666 -5 -24.999s-12.666 -8 -27.999 -8zM225 370c-16 0 -29.6699 -3 -41.0029 -9s-20.666 -14.167 -27.999 -24.5s-12.666 -22.333 -15.999 -36s-5 -28.167 -5 -43.5c0 -5.33301 0.333008 -9.33301 1 -12s3.66699 -4 9 -4h163
c4 0 6.33301 1.16699 7 3.5s1 6.16602 1 11.499c-0.666992 36.667 -7.66699 64.834 -21 84.501s-36.666 29.5 -69.999 29.5z" />
    <glyph glyph-name="f" unicode="f" horiz-adv-x="276" 
d="M223 341h-53.002v-315c0 -17.333 -6 -26 -18 -26h-42c-6 0 -11.167 1.5 -15.5 4.5s-6.5 8.16699 -6.5 15.5v321h-42c-7.33301 0 -12.166 1.16699 -14.499 3.5s-3.5 6.5 -3.5 12.5v26c0 11.333 4.33301 17 13 17h40c-3.33301 6 -6.83301 14.167 -10.5 24.5
s-5.16699 25.166 -4.5 44.499c0 12.667 1.83301 24.834 5.5 36.501s9.66699 22.167 18 31.5s19.333 16.833 33 22.5s30.167 8.5 49.5 8.5c17.333 0 31.833 -1 43.5 -3s20.5 -4 26.5 -6c2 -1.33301 3 -5 3 -11s-0.666992 -12.667 -2 -20s-3 -13.833 -5 -19.5s-4 -8.5 -6 -8.5
c-8.66699 2 -14.834 3.5 -18.501 4.5s-10.167 1.5 -19.5 1.5c-11.333 0 -22.166 -3.83301 -32.499 -11.5s-15.5 -19.5 -15.5 -35.5c0 -13.333 2.33301 -24.833 7 -34.5s10 -17.834 16 -24.501h54c8.66699 0 13.834 -1.16699 15.501 -3.5s2.5 -6.16602 2.5 -11.499v-27
c0 -4.66699 -1 -8.66699 -3 -12s-7 -5 -15 -5z" />
    <glyph glyph-name="g" unicode="g" horiz-adv-x="427" 
d="M226 -155c-38 0 -66.165 1.5 -84.498 4.5s-32.166 5.16699 -41.499 6.5c-7.33301 2 -13 4 -17 6s-6 6.66699 -6 14v39c0 5.33301 1.83301 8.5 5.5 9.5s12.167 -0.166992 25.5 -3.5c14.667 -3.33301 31.167 -6.83301 49.5 -10.5s38.166 -5.5 59.499 -5.5
c29.333 0 51 9.5 65 28.5s21.667 50.5 23 94.5c0 2.66699 -0.166992 7.33398 -0.5 14.001s-0.5 11.334 -0.5 14.001c-14.667 -19.333 -32.334 -33.5 -53.001 -42.5s-46.334 -13.5 -77.001 -13.5c-20.667 0 -39.334 3.83301 -56.001 11.5s-31 20.167 -43 37.5
s-21.167 39.666 -27.5 66.999s-9.5 60.666 -9.5 99.999c0 32.667 2.66699 62.167 8 88.5s13.333 48.833 24 67.5s24.334 33.167 41.001 43.5s36 15.5 58 15.5c26 0 51 -4 75 -12s44 -22.333 60 -43c0 19.333 1.33301 31.5 4 36.5s8 7.5 16 7.5h41
c10.667 0 16.667 -2.5 18 -7.5s2 -11.833 2 -20.5v-325c0 -40.667 -3 -75 -9 -103s-15.333 -50.833 -28 -68.5s-29.167 -30.5 -49.5 -38.5s-44.5 -12 -72.5 -12zM298.002 277c0 10 -1.66895 20.5039 -5.00195 31.5039s-8.5 21.167 -15.5 30.5s-16 17.166 -27 23.499
s-24.5 9.5 -40.5 9.5c-28 0 -49.167 -11.833 -63.5 -35.5s-21.5 -54.834 -21.5 -93.501v-64c0 -37.333 7 -66.666 21 -87.999s35.667 -32 65 -32c14 0 26.333 2.66699 37 8s19.834 11.666 27.501 18.999s13.334 15.166 17.001 23.499s5.5 15.166 5.5 20.499v147z" />
    <glyph glyph-name="h" unicode="h" horiz-adv-x="430" 
d="M364 0l-50 0.00195312c-11.333 0 -17 9.33301 -17 28v243c0 20 -5.66699 37.667 -17 53s-31 23 -59 23c-14.667 0 -27.5 -2.83301 -38.5 -8.5s-20.333 -12.834 -28 -21.501s-13.334 -18.167 -17.001 -28.5s-5.5 -20.166 -5.5 -29.499v-232c0 -10 -1 -17 -3 -21
s-6 -6 -12 -6h-48c-8 0 -13.167 2 -15.5 6s-3.5 11 -3.5 21v509c0 7.33301 1.16699 13.166 3.5 17.499s7.5 6.5 15.5 6.5h48c5.33301 0 9.33301 -1.5 12 -4.5s4 -9.5 4 -19.5v-173c15.333 18 32 32.167 50 42.5s43.667 15.5 77 15.5c34.667 0 63.334 -9.83301 86.001 -29.5
s34 -53.834 34 -102.501v-254c0 -12.667 -0.833008 -21.667 -2.5 -27s-6.16699 -8 -13.5 -8z" />
    <glyph glyph-name="i" unicode="i" horiz-adv-x="182" 
d="M113 485h-45c-8 0 -13.333 1.33301 -16 4s-4 9.66699 -4 21v27c0 9.33301 1.33301 15.5 4 18.5s8.66699 4.5 18 4.5h43c8.66699 0 13.667 -2.33301 15 -7s2 -11 2 -19v-26c0 -9.33301 -1.16699 -15.5 -3.5 -18.5s-6.83301 -4.5 -13.5 -4.5v0zM113 0h-48
c-7.33301 0 -12 2 -14 6s-3 11 -3 21v361c0 8 1.16699 13.833 3.5 17.5s7.5 5.5 15.5 5.5h43c10 0 15.833 -1.66699 17.5 -5s2.5 -9.33301 2.5 -18v-361c0 -10 -0.833008 -17 -2.5 -21s-6.5 -6 -14.5 -6z" />
    <glyph glyph-name="j" unicode="j" horiz-adv-x="179" 
d="M44 -159c-16 0 -30.502 1.33203 -43.502 3.99902s-22.833 5 -29.5 7c-2 0.666992 -3 4.16699 -3 10.5s0.666992 13.333 2 21s3 14.334 5 20.001s4.33301 8.5 7 8.5c5.33301 -1.33301 11.333 -2.5 18 -3.5s13.667 -1.5 21 -1.5c10.667 0 17.5 4.66699 20.5 14
s4.5 19 4.5 29v437c0 8.66699 1.33301 15.167 4 19.5s8.66699 6.5 18 6.5h43c13.333 0 20 -8.33301 20 -25v-450c0 -13.333 -1.33301 -26 -4 -38s-7.16699 -22.333 -13.5 -31s-15.166 -15.5 -26.499 -20.5s-25.666 -7.5 -42.999 -7.5zM110.998 486.999l-43 0.000976562
c-8 0 -13.333 1.33301 -16 4s-4 9.66699 -4 21v26c0 9.33301 1.33301 15.666 4 18.999s8.66699 5 18 5h40c10 0 15.333 -1.66699 16 -5s1 -9.33301 1 -18v-29c0 -9.33301 -0.833008 -15.5 -2.5 -18.5s-6.16699 -4.5 -13.5 -4.5z" />
    <glyph glyph-name="k" unicode="k" horiz-adv-x="371" 
d="M346 0l-62.998 -0.000976562c-5.33301 0 -10 1.83301 -14 5.5s-9 8.83398 -15 15.501l-135 156v-148c0 -10 -0.833008 -17.333 -2.5 -22s-6.16699 -7 -13.5 -7h-42c-9.33301 0 -15.5 2.16699 -18.5 6.5s-4.5 11.5 -4.5 21.5v518c0 7.33301 1.33301 13 4 17s8 6 16 6h42
c9.33301 0 14.833 -1.83301 16.5 -5.5s2.5 -9.5 2.5 -17.5v-297l131 145c3.33301 3.33301 6.66602 7.16602 9.99902 11.499s7.66602 6.5 12.999 6.5h64c9.33301 0 14 -1.66699 14 -5s-3 -8.66602 -9 -15.999l-159 -177l172 -197c5.33301 -6.66699 7 -11.167 5 -13.5
s-6.66699 -3.5 -14 -3.5z" />
    <glyph glyph-name="l" unicode="l" horiz-adv-x="166" 
d="M108 0h-44.999c-8.66699 0 -14.334 1.5 -17.001 4.5s-4 9.83301 -4 20.5v523c0 6.66699 1.33301 11.667 4 15s8 5 16 5h43c9.33301 0 14.833 -1.66699 16.5 -5s2.5 -9.33301 2.5 -18v-518c0 -10 -0.833008 -17 -2.5 -21s-6.16699 -6 -13.5 -6z" />
    <glyph glyph-name="m" unicode="m" horiz-adv-x="651" 
d="M581 0h-45.999c-8.66699 0 -14.167 2.16699 -16.5 6.5s-3.5 11.166 -3.5 20.499v244c0 10 -0.833008 19.5 -2.5 28.5s-5 17 -10 24s-11.833 12.667 -20.5 17s-20 6.5 -34 6.5c-13.333 0 -24.5 -2.16699 -33.5 -6.5s-16.833 -10.166 -23.5 -17.499
s-11.834 -15.5 -15.501 -24.5s-6.5 -18.167 -8.5 -27.5v-236c0 -12.667 -1.16699 -21.667 -3.5 -27s-7.16602 -8 -14.499 -8h-48c-11.333 0 -17 9 -17 27v244c0 10 -1 19.5 -3 28.5s-5.5 17 -10.5 24s-11.833 12.667 -20.5 17s-20 6.5 -34 6.5
c-15.333 0 -28.333 -2.83301 -39 -8.5s-19.167 -12.834 -25.5 -21.501s-10.833 -18.167 -13.5 -28.5s-4 -20.166 -4 -29.499v-230c0 -10 -0.833008 -17.333 -2.5 -22s-6.16699 -7 -13.5 -7h-43c-9.33301 0 -15.5 2.16699 -18.5 6.5s-4.5 11.5 -4.5 21.5v360
c0 7.33301 1.33301 13 4 17s8 6 16 6h44c6.66699 0 11.5 -2.66699 14.5 -8s4.5 -17 4.5 -35c14 18 29.667 31.167 47 39.5s40.333 12.5 69 12.5c25.333 0 46 -5 62 -15s29.667 -27.667 41 -53c15.333 21.333 33 38 53 50s45 18 75 18c16.667 0 32.167 -2.16699 46.5 -6.5
s26.666 -11.666 36.999 -21.999s18.333 -23.833 24 -40.5s8.5 -37.334 8.5 -62.001v-254c0 -12.667 -1 -21.667 -3 -27s-6.66699 -8 -14 -8z" />
    <glyph glyph-name="n" unicode="n" horiz-adv-x="421" 
d="M360 0l-45.0049 -0.00292969c-13.333 0 -20 9 -20 27v244c0 20 -5.66699 37.5 -17 52.5s-31 22.5 -59 22.5c-15.333 0 -28.666 -2.83301 -39.999 -8.5s-20.666 -12.667 -27.999 -21s-12.666 -17.666 -15.999 -27.999s-5 -20.166 -5 -29.499v-230
c0 -10 -0.833008 -17.333 -2.5 -22s-6.5 -7 -14.5 -7h-43c-8.66699 0 -14.5 2.16699 -17.5 6.5s-4.5 11.5 -4.5 21.5v360c0 7.33301 1.16699 13 3.5 17s7.5 6 15.5 6h44c7.33301 0 12.333 -3.66699 15 -11s4 -19.666 4 -36.999c14 18 31.167 32 51.5 42s45.833 15 76.5 15
c34.667 0 63.334 -9.66699 86.001 -29s34 -53.333 34 -102v-254c0 -12.667 -1.16699 -21.667 -3.5 -27s-7.16602 -8 -14.499 -8z" />
    <glyph glyph-name="o" unicode="o" horiz-adv-x="452" 
d="M230 -5c-31.333 0 -58.833 3.33398 -82.5 10.001s-43.334 18.167 -59.001 34.5s-27.5 38.166 -35.5 65.499s-12 61.333 -12 102c0 40 4.33301 73.833 13 101.5s21.334 50.167 38.001 67.5s37 29.833 61 37.5s51 11.5 81 11.5c60 0 105 -16.667 135 -50
s45 -89.333 45 -168c0 -68.667 -15.5 -121.167 -46.5 -157.5s-76.833 -54.5 -137.5 -54.5zM330 249.001c0 34 -7.33203 62 -21.999 84s-40.334 33 -77.001 33c-30 0 -54.5 -9.5 -73.5 -28.5s-28.5 -49.5 -28.5 -91.5v-75c0 -42 10 -72 30 -90s44.333 -27 73 -27
c30.667 0 54.667 11.5 72 34.5s26 53.5 26 91.5v69z" />
    <glyph glyph-name="p" unicode="p" horiz-adv-x="450" 
d="M272 0c-30.667 0 -56.333 4.16504 -77 12.498s-38.334 21.166 -53.001 38.499v-177c0 -9.33301 -1.16699 -15.833 -3.5 -19.5s-6.16602 -5.5 -11.499 -5.5h-45c-10 0 -16.167 1.83301 -18.5 5.5s-3.5 10.167 -3.5 19.5v518c0 8.66699 0.833008 15.5 2.5 20.5
s7.83398 7.5 18.501 7.5h41c13.333 0 20 -7.33301 20 -22v-28c15.333 20.667 34.5 35.834 57.5 45.501s48.833 14.5 77.5 14.5c44.667 0 77.667 -19.333 99 -58s32 -90.667 32 -156c0 -39.333 -3.16699 -72.666 -9.5 -99.999s-15.5 -49.666 -27.5 -66.999
s-26.333 -29.833 -43 -37.5s-35.334 -11.5 -56.001 -11.5zM321.001 242.998c0 38.667 -7.33301 69.832 -22 93.499s-35.667 35.5 -63 35.5c-16 0 -29.5 -3.16699 -40.5 -9.5s-20 -14.166 -27 -23.499s-12.167 -19.5 -15.5 -30.5s-5 -21.5 -5 -31.5v-149
c0 -5.33301 2 -11.833 6 -19.5s9.66699 -15.167 17 -22.5s16.333 -13.666 27 -18.999s23 -8 37 -8c29.333 0 51 10.667 65 32s21 50.666 21 87.999v64z" />
    <glyph glyph-name="q" unicode="q" horiz-adv-x="440" 
d="M371 -152h-46.002c-5.33301 0 -9 1 -11 3s-3 6.66699 -3 14v186c-15.333 -18.667 -34 -31.834 -56 -39.501s-47 -11.5 -75 -11.5c-20.667 0 -39.334 3.83301 -56.001 11.5s-31 20.167 -43 37.5s-21.167 39.5 -27.5 66.5s-9.5 60.167 -9.5 99.5
c0 32.667 2.66699 62.167 8 88.5s13.333 48.833 24 67.5s24.334 33.167 41.001 43.5s36 15.5 58 15.5c28.667 0 54 -4.66699 76 -14s42 -24.666 60 -45.999v28c0 7.33301 1 12.666 3 15.999s6.66699 5 14 5h43c10.667 0 16.834 -1.83301 18.501 -5.5s2.5 -9.5 2.5 -17.5
v-527c0 -7.33301 -1.16699 -12.666 -3.5 -15.999s-8.16602 -5 -17.499 -5zM303.998 276c0 10 -1.66895 20.501 -5.00195 31.501s-8.5 21.333 -15.5 31s-16 17.667 -27 24s-24.5 9.5 -40.5 9.5c-27.333 0 -48.333 -12 -63 -36s-22 -55 -22 -93v-64c0 -38 7 -67.5 21 -88.5
s35.667 -31.5 65 -31.5c14 0 26.333 2.5 37 7.5s19.834 11 27.501 18s13.334 14.167 17.001 21.5s5.5 13.666 5.5 18.999v151z" />
    <glyph glyph-name="r" unicode="r" horiz-adv-x="279" 
d="M261 360c-2 -7.33301 -6 -10.999 -12 -10.999c-11.333 0 -22.833 -1.33301 -34.5 -4s-22.167 -6.66699 -31.5 -12c-18.667 -10.667 -33.5 -22.5 -44.5 -35.5s-16.5 -25.833 -16.5 -38.5v-230c0 -10 -0.833008 -17.333 -2.5 -22s-6.16699 -7 -13.5 -7h-43
c-9.33301 0 -15.333 2.33301 -18 7s-4 11.667 -4 21v360c0 7.33301 1.16699 13 3.5 17s7.5 6 15.5 6h44c5.33301 0 9.83301 -1.33301 13.5 -4s5.5 -7.66699 5.5 -15v-39c16 21.333 35 37.333 57 48s45.333 16 70 16c3.33301 0 6.5 -0.333008 9.5 -1
s4.16699 -3.33398 3.5 -8.00098z" />
    <glyph glyph-name="s" unicode="s" horiz-adv-x="334" 
d="M161 -7c-40 0 -71.166 2.99902 -93.499 8.99902s-37.5 11 -45.5 15c-2 0.666992 -3.33301 4.33398 -4 11.001s-0.5 13.667 0.5 21s2.83301 13.833 5.5 19.5s6 7.83398 10 6.50098l36 -11.5c16 -5 39.667 -7.5 71 -7.5c26 0 46.167 4.16699 60.5 12.5
s21.5 22.166 21.5 41.499c0 15.333 -6.83301 29.5 -20.5 42.5s-34.167 26.167 -61.5 39.5c-15.333 7.33301 -29.5 15 -42.5 23s-24.333 16.667 -34 26s-17.334 20 -23.001 32s-8.5 25.667 -8.5 41c0 18.667 4 35 12 49s18.667 25.5 32 34.5s29.166 15.667 47.499 20
s37.5 6.5 57.5 6.5c30 0 54.333 -1.66699 73 -5s30.667 -6 36 -8c2 -1.33301 2.83301 -5 2.5 -11s-1.5 -12.5 -3.5 -19.5s-4.66699 -13.333 -8 -19s-6.66602 -8.16699 -9.99902 -7.5c-7.33301 2 -19.333 4.5 -36 7.5s-32.667 4.5 -48 4.5c-48 0 -72 -16.333 -72 -49
c0 -12 7.33301 -23.167 22 -33.5s32.667 -20.833 54 -31.5c18.667 -9.33301 35.334 -18.833 50.001 -28.5s26.834 -20.167 36.501 -31.5s17 -24 22 -38s7.5 -30 7.5 -48c0 -23.333 -4.33301 -42.333 -13 -57s-19.834 -26.167 -33.501 -34.5s-29.334 -14 -47.001 -17
s-35.5 -4.5 -53.5 -4.5z" />
    <glyph glyph-name="t" unicode="t" horiz-adv-x="270" 
d="M230 346h-74.001v-247c0 -27.333 11.333 -41 34 -41c8.66699 0 15.667 0.333008 21 1s12 2 20 4c2 0 4 -2.83301 6 -8.5s3.33301 -12 4 -19s1 -13.667 1 -20s-1 -9.83301 -3 -10.5c-6.66699 -2 -17.167 -4 -31.5 -6s-29.166 -3 -44.499 -3c-19.333 0 -35 2.83301 -47 8.5
s-21.5 13.167 -28.5 22.5s-11.667 20 -14 32s-3.5 24.333 -3.5 37v251h-40c-5.33301 0 -8.83301 1.33301 -10.5 4s-2.5 6.66699 -2.5 12v29c0 6.66699 1 11 3 13s7 3 15 3h38v76c0 7.33301 2.16699 12.166 6.5 14.499s9.83301 3.83301 16.5 4.5l36 8
c8.66699 1.33301 14.334 0.333008 17.001 -3s4 -8.66602 4 -15.999v-84h78c7.33301 0 12.166 -1.5 14.499 -4.5s3.5 -7.16699 3.5 -12.5v-29c0 -5.33301 -1 -9.33301 -3 -12s-7.33301 -4 -16 -4z" />
    <glyph glyph-name="u" unicode="u" horiz-adv-x="441" 
d="M365 0l-43.999 0.00390625c-7.33301 0 -12.333 3.5 -15 10.5s-4 19.167 -4 36.5c-18 -19.333 -37 -33.333 -57 -42s-44 -13 -72 -13c-16 0 -31.333 2.33301 -46 7s-27.5 12.167 -38.5 22.5s-19.667 23.666 -26 39.999s-9.5 36.5 -9.5 60.5v262
c0 9.33301 1.33301 16.166 4 20.499s7.66699 6.5 15 6.5h45c14 0 21 -9.33301 21 -28v-243c0 -20.667 5.5 -38.334 16.5 -53.001s30.167 -22 57.5 -22c15.333 0 28.666 2.66699 39.999 8s20.666 12.333 27.999 21s12.833 18.167 16.5 28.5s5.5 20.166 5.5 29.499v230
c0 10 0.833008 17.333 2.5 22s6.5 7 14.5 7h43c8.66699 0 14.334 -2.33301 17.001 -7s4 -11.667 4 -21v-360c0 -7.33301 -1 -13 -3 -17s-7 -6 -15 -6z" />
    <glyph glyph-name="v" unicode="v" horiz-adv-x="409" 
d="M247 23c-3.33301 -10 -6.99902 -16.332 -10.999 -18.999s-9.66699 -4 -17 -4h-43c-8 0 -14.167 2.16699 -18.5 6.5s-7.5 9.16602 -9.5 14.499l-131 373c-4.66699 11.333 0.666016 17 15.999 17h47c6 0 10.667 -1.66699 14 -5s5.66602 -7.66602 6.99902 -12.999l106 -297
l112 297c1.33301 3.33301 3.83301 7.16602 7.5 11.499s7.83398 6.5 12.501 6.5h39c8 0 12.667 -1.33301 14 -4s0.333008 -8 -3 -16z" />
    <glyph glyph-name="w" unicode="w" horiz-adv-x="550" 
d="M417 23c-4 -10 -8.00098 -16.333 -12.001 -19s-9.66699 -4 -17 -4h-35c-8 0 -14.167 2.16699 -18.5 6.5s-7.5 9.5 -9.5 15.5l-48 172l-61 -171c-4 -10 -8 -16.333 -12 -19s-9.66699 -4 -17 -4h-33c-8 0 -14.167 2.16699 -18.5 6.5s-7.5 9.5 -9.5 15.5l-110 373
c-2.66699 6.66699 -2.33398 11.167 0.999023 13.5s8.33301 3.5 15 3.5h46c6 0 10.5 -1.83301 13.5 -5.5s5.5 -8.16699 7.5 -13.5l82 -299l62 197l-31 104c-3.33301 11.333 2.33398 17 17.001 17h45c6 0 10.667 -1.83301 14 -5.5s6 -8.16699 8 -13.5l81 -299l85 299
c2 4 4.83301 8.16699 8.5 12.5s7.83398 6.5 12.501 6.5h37c8.66699 0 13.667 -1.5 15 -4.5s0.333008 -8.16699 -3 -15.5z" />
    <glyph glyph-name="x" unicode="x" horiz-adv-x="360" 
d="M335 0h-50.001c-9.33301 -0 -15.833 1.83301 -19.5 5.5s-8.83398 10.5 -15.501 20.5l-70 116l-81 -116c-6.66699 -11.333 -11.834 -18.5 -15.501 -21.5s-9.16699 -4.5 -16.5 -4.5h-45c-8 0 -12.167 2 -12.5 6s2.83398 11 9.50098 21l119 176l-116 186
c-5.33301 8 -7.83301 13.833 -7.5 17.5s5.83301 5.5 16.5 5.5h54c6.66699 0 11.834 -2 15.501 -6s8.16699 -10.333 13.5 -19l69 -114l71 114c5.33301 8.66699 10 15 14 19s9.33301 6 16 6h43c11.333 0 17 -1.83301 17 -5.5s-2.33301 -9.5 -7 -17.5l-113 -176l117 -186
c6 -10 8.33301 -17 7 -21s-5.66602 -6 -12.999 -6z" />
    <glyph glyph-name="y" unicode="y" horiz-adv-x="401" 
d="M180 -135c-3.33301 -7.33301 -7.00098 -12.333 -11.001 -15s-9.33301 -4 -16 -4h-27c-12.667 0 -16.667 5.66699 -12 17l51 136l-149 394c-5.33301 11.333 0 17 16 17h57c6 0 9.33301 -1.66699 10 -5s1.66699 -7.66602 3 -12.999l104 -282l105 282
c2 3.33301 4.83301 7.16602 8.5 11.499s7.83398 6.5 12.501 6.5h41c8.66699 0 13.667 -1.5 15 -4.5s0.333008 -8.16699 -3 -15.5z" />
    <glyph glyph-name="z" unicode="z" horiz-adv-x="380" 
d="M339 0l-283 -0.000976562c-9.33301 0 -16.333 1.16699 -21 3.5s-7.5 5.33301 -8.5 9s-0.666992 7.66699 1 12s3.83398 8.5 6.50098 12.5l198 316h-178c-8 0 -13.333 0.666992 -16 2s-4 6 -4 14v27c0 6.66699 1.5 10.834 4.5 12.501s7.16699 2.5 12.5 2.5h268
c8 0 15.333 -1.83301 22 -5.5s6.66699 -10.5 0 -20.5l-205 -327h201c7.33301 0 12.666 -0.666992 15.999 -2s5 -6.33301 5 -15v-25c0 -7.33301 -1.33301 -11.833 -4 -13.5s-7.66699 -2.5 -15 -2.5z" />
    <glyph glyph-name="braceleft" unicode="{" horiz-adv-x="300" 
d="M261 -58c0 -7.33301 -5.33496 -11.001 -16.002 -11.001h-44c-29.333 0 -53 8.83301 -71 26.5s-25.333 46.167 -22 85.5l11 128c1.33301 20.667 -5.5 38.5 -20.5 53.5s-34.167 24.167 -57.5 27.5c-7.33301 1.33301 -11 5.33301 -11 12v47
c0 5.33301 3.66699 8.66602 11 9.99902c22 2.66699 41 10.834 57 24.501s23 31.167 21 52.5l-11 111c-3.33301 33.333 3.16699 60.166 19.5 80.499s43.5 30.5 81.5 30.5h38c9.33301 0 14 -4.33301 14 -13v-43c0 -7.33301 -4.66699 -11 -14 -11h-17
c-12 0 -22.5 -3.83301 -31.5 -11.5s-12.833 -19.834 -11.5 -36.501l12 -123c0.666992 -12 -1.5 -23.333 -6.5 -34s-11.667 -20.167 -20 -28.5s-17.666 -15.166 -27.999 -20.499s-20.833 -8.66602 -31.5 -9.99902c10.667 -2 21.334 -6.16699 32.001 -12.5
s20.167 -14.166 28.5 -23.499s14.833 -20 19.5 -32s6.66699 -24.333 6 -37l-11 -128c-1.33301 -20 1.5 -34.333 8.5 -43s16.833 -13 29.5 -13h24c4.66699 -0 7.66699 -1.16699 9 -3.5s2 -4.83301 2 -7.5v-47v0z" />
    <glyph glyph-name="bar" unicode="|" horiz-adv-x="288" 
d="M183 -178c0 -9.33301 -0.832031 -15.334 -2.49902 -18.001s-5.83398 -4 -12.501 -4h-41c-9.33301 0 -15.5 1.5 -18.5 4.5s-4.5 9.83301 -4.5 20.5v742c0 8.66699 1.16699 14.667 3.5 18s8.5 5 18.5 5h43c7.33301 0 11.5 -1.66699 12.5 -5s1.5 -9.66602 1.5 -18.999v-744
v0z" />
    <glyph glyph-name="braceright" unicode="}" horiz-adv-x="301" 
d="M55 -69c-10.667 0 -16.002 3.66797 -16.002 11.001v47c0 2.66699 0.666992 5.16699 2 7.5s4.33301 3.5 9 3.5h24c12.667 0 22.5 4.33301 29.5 13s9.83301 23 8.5 43l-11 128c-0.666992 12.667 1.33301 25 6 37s11.167 22.667 19.5 32s17.833 17.166 28.5 23.499
s21.334 10.5 32.001 12.5c-10.667 1.33301 -21.167 4.66602 -31.5 9.99902s-19.666 12.166 -27.999 20.499s-15 17.833 -20 28.5s-7.16699 22 -6.5 34l12 123c1.33301 16.667 -2.5 28.834 -11.5 36.501s-19.5 11.5 -31.5 11.5h-17c-9.33301 0 -14 3.66699 -14 11v43
c0 8.66699 4.66699 13 14 13h38c38 0 65.167 -10.167 81.5 -30.5s22.833 -47.166 19.5 -80.499l-11 -111c-2 -21.333 5 -38.833 21 -52.5s35 -21.834 57 -24.501c7.33301 -1.33301 11 -4.66602 11 -9.99902v-47c0 -6.66699 -3.66699 -10.667 -11 -12
c-23.333 -3.33301 -42.5 -12.5 -57.5 -27.5s-21.833 -32.833 -20.5 -53.5l11 -128c2.66699 -39.333 -4.83301 -67.833 -22.5 -85.5s-41.167 -26.5 -70.5 -26.5h-44v0z" />
    <glyph glyph-name="asciitilde" unicode="~" horiz-adv-x="349" 
d="M324 267c-12 -23.333 -25.6631 -43.5 -40.9961 -60.5s-34.333 -25.5 -57 -25.5c-9.33301 0 -18.833 2.5 -28.5 7.5s-19.167 10.333 -28.5 16l-27 16c-8.66699 5 -16.667 7.5 -24 7.5c-9.33301 0 -18.333 -3.16699 -27 -9.5s-15.334 -13.5 -20.001 -21.5
c-2 -4 -3.83301 -6 -5.5 -6s-3.83398 0.666992 -6.50098 2l-32 16c-4.66699 0.666992 -6 4 -4 10c3.33301 8 7.83301 16.667 13.5 26s12.5 18 20.5 26s16.833 14.667 26.5 20s20.167 8 31.5 8c8.66699 0 18 -2.33301 28 -7s20 -10 30 -16s19.667 -11.333 29 -16
s17.666 -7 24.999 -7c11.333 0 20.666 3.66699 27.999 11s13.333 15.333 18 24c3.33301 5.33301 7.33301 7 12 5l35 -13c6 -2.66699 7.33301 -7 4 -13z" />
    <glyph glyph-name="nonbreakingspace" unicode="&#xa0;" horiz-adv-x="249" 
 />
    <glyph glyph-name="exclamdown" unicode="&#xa1;" horiz-adv-x="271" 
d="M96 489l72.998 0.000976562c12.667 0 20.167 -2.33301 22.5 -7s3.5 -10.667 3.5 -18v-49c0 -6 -1.16699 -11.167 -3.5 -15.5s-7.83301 -6.5 -16.5 -6.5h-76c-11.333 0 -18.666 1.16699 -21.999 3.5s-5 8.16602 -5 17.499v48c0 8 1.33301 14.5 4 19.5
s9.33398 7.5 20.001 7.5zM94.998 272.001c0 10.667 1.16895 18 3.50195 22s6.5 6 12.5 6h37c11.333 0 18.166 -1.5 20.499 -4.5s3.83301 -11.167 4.5 -24.5l12 -393c0 -9.33301 -1 -17 -3 -23s-8.66699 -9 -20 -9h-56c-10.667 0 -17.334 2.5 -20.001 7.5
s-3.66699 12.5 -3 22.5z" />
    <glyph glyph-name="cent" unicode="&#xa2;" horiz-adv-x="417" 
d="M234 -8c-30.667 2 -58.001 9.16504 -82.001 21.498s-44.167 28.666 -60.5 48.999s-28.833 44.333 -37.5 72s-13 57.834 -13 90.501c0 32 4.33301 61.833 13 89.5s21.167 51.667 37.5 72s36.5 36.833 60.5 49.5s51.333 20 82 22v100h41v-100
c22 -1.33301 43.333 -3.66602 64 -6.99902s38.667 -8 54 -14v-70c-16.667 2.66699 -35.834 5 -57.501 7s-41.834 3.33301 -60.501 4v-306c18.667 0.666992 38.834 1.83398 60.501 3.50098s40.834 4.16699 57.501 7.5v-66c-13.333 -6 -30.666 -11.333 -51.999 -16
s-43.333 -7.66699 -66 -9v-100h-41v100zM131.999 224.998c0 -41.333 8 -75.334 24 -102.001s42 -43 78 -49v301c-36 -6 -62 -22.167 -78 -48.5s-24 -60.166 -24 -101.499z" />
    <glyph glyph-name="sterling" unicode="&#xa3;" horiz-adv-x="548" 
d="M476 14c0 -5.33301 -3.50195 -9.66797 -10.502 -13.001s-15.5 -6 -25.5 -8s-21 -3.33301 -33 -4s-23 -1 -33 -1c-15.333 0 -32.333 0.666992 -51 2s-37 3 -55 5s-34.667 3.66699 -50 5s-27 2 -35 2c-21.333 0 -38.833 -0.666992 -52.5 -2s-27.167 -3.33301 -40.5 -6
c-9.33301 -2.66699 -15.5 -1.16699 -18.5 4.5s-2.5 14.167 1.5 25.5c15.333 44 27.666 86.667 36.999 128s14.666 86 15.999 134h-54c-9.33301 0 -15.833 1.33301 -19.5 4s-5.5 7.66699 -5.5 15v37c0 11.333 2 17.833 6 19.5s11.333 2.5 22 2.5h48
c-2 20.667 -5 41.5 -9 62.5s-6 42.167 -6 63.5c0 28.667 4.33301 54.834 13 78.501s21.334 44 38.001 61s37.5 30.333 62.5 40s54.167 14.5 87.5 14.5c44.667 0 79.834 -5.16699 105.501 -15.5s45.5 -20.833 59.5 -31.5c4 -3.33301 5.66699 -9.83301 5 -19.5
s-2.5 -19.5 -5.5 -29.5s-6.66699 -18.5 -11 -25.5s-8.5 -9.16699 -12.5 -6.5c-16 12 -34.333 21.667 -55 29s-43.667 11 -69 11c-36 0 -63.667 -10.167 -83 -30.5s-29 -50.5 -29 -90.5c0 -17.333 1.83301 -36 5.5 -56s6.5 -38.333 8.5 -55h90
c12 0 20.833 -0.833008 26.5 -2.5s8.5 -6.83398 8.5 -15.501v-37c0 -10 -2 -16.333 -6 -19s-13.333 -4 -28 -4h-89c-1.33301 -42 -5.16602 -77.667 -11.499 -107s-13.5 -55.666 -21.5 -78.999c-1.33301 -3.33301 -1.16602 -6 0.500977 -8s5.83398 -3.33301 12.501 -4
c20.667 -0.666992 41.667 -2.16699 63 -4.5s45.666 -3.5 72.999 -3.5c23.333 0 46 1.66699 68 5s36.333 6.66602 43 9.99902c9.33301 2.66699 14.833 2.33398 16.5 -0.999023s2.5 -8.33301 2.5 -15v-65v0z" />
    <glyph glyph-name="currency" unicode="&#xa4;" horiz-adv-x="660" 
d="M536 19l-75 74c-18 -13.333 -38 -24 -60 -32s-45.667 -12 -71 -12s-49.166 4 -71.499 12s-42.5 18.667 -60.5 32l-74 -74l-46 46l74 74c-13.333 18 -24 38.167 -32 60.5s-12 46.166 -12 71.499s4 49.166 12 71.499s18.667 42.5 32 60.5l-74 73l46 46l74 -73
c18 13.333 38.167 23.833 60.5 31.5s46.166 11.5 71.499 11.5s49 -3.83301 71 -11.5s42 -18.167 60 -31.5l75 73l46 -46l-74 -73c13.333 -18 24 -38.167 32 -60.5s12 -46.166 12 -71.499s-4 -49.166 -12 -71.499s-18.667 -42.5 -32 -60.5l74 -74zM485 271
c0 21.333 -4 41.5 -12 60.5s-19 35.5 -33 49.5s-30.5 25 -49.5 33s-39.167 12 -60.5 12s-41.5 -4 -60.5 -12s-35.5 -19 -49.5 -33s-25.167 -30.5 -33.5 -49.5s-12.5 -39.167 -12.5 -60.5s4.16699 -41.5 12.5 -60.5s19.5 -35.5 33.5 -49.5s30.5 -25.167 49.5 -33.5
s39.167 -12.5 60.5 -12.5s41.5 4.16699 60.5 12.5s35.5 19.5 49.5 33.5s25 30.5 33 49.5s12 39.167 12 60.5z" />
    <glyph glyph-name="yen" unicode="&#xa5;" horiz-adv-x="584" 
d="M344 257l0.000976562 -63.002h69c11.333 0 19.666 -0.666992 24.999 -2s8 -6 8 -14v-34c0 -9.33301 -2 -15.166 -6 -17.499s-12.667 -3.5 -26 -3.5h-70v-104c0 -7.33301 -1.33301 -12.333 -4 -15s-7.66699 -4 -15 -4h-67c-7.33301 0 -11.833 1.16699 -13.5 3.5
s-2.5 6.83301 -2.5 13.5v106h-75c-9.33301 0 -15.666 1.16699 -18.999 3.5s-5 7.16602 -5 14.499v32c0 10.667 1.83301 16.834 5.5 18.501s10.167 2.5 19.5 2.5h74v64l-180 350c-4.66699 7.33301 -5.5 12 -2.5 14s7.83301 3 14.5 3h75c6 0 10.5 -1.16699 13.5 -3.5
s6.5 -7.16602 10.5 -14.499l130 -265c6 13.333 12.667 27.333 20 42l20.5 42.5l24.5 48.5l65 133c3.33301 6 6.16602 10.333 8.49902 13s8.16602 4 17.499 4h49c9.33301 0 14.833 -1.33301 16.5 -4s-0.166016 -8.66699 -5.49902 -18z" />
    <glyph glyph-name="brokenbar" unicode="&#xa6;" horiz-adv-x="260" 
d="M92 176h76v-406h-76v406zM92 682h76v-340h-76v340z" />
    <glyph glyph-name="section" unicode="&#xa7;" horiz-adv-x="557" 
d="M467 213c0 -18.667 -2.66895 -35.332 -8.00195 -49.999s-12.333 -27.334 -21 -38.001s-18.5 -19.667 -29.5 -27s-22.5 -12.666 -34.5 -15.999c23.333 -17.333 43.166 -37.333 59.499 -60s24.5 -48 24.5 -76c0 -26.667 -5.33301 -49.5 -16 -68.5s-24.667 -34.5 -42 -46.5
s-37.166 -20.667 -59.499 -26s-44.833 -8 -67.5 -8c-42.667 0 -76.834 4 -102.501 12s-43.5 14.667 -53.5 20c-2.66699 1.33301 -4.33398 6.33301 -5.00098 15s-0.5 17.834 0.5 27.501s3 18.167 6 25.5s7.16699 10 12.5 8l45 -15c20 -6.66699 47 -10 81 -10
c34.667 0 60.334 6.5 77.001 19.5s25 29.833 25 50.5s-9 39.5 -27 56.5s-44 33.833 -78 50.5c-19.333 9.33301 -37.833 19.166 -55.5 29.499s-33.167 21.833 -46.5 34.5s-24 27 -32 43s-12 34 -12 54c0 18 3.33301 34.5 10 49.5s15.667 28 27 39s24.333 19.667 39 26
s30.334 10.166 47.001 11.499c-14 8 -27.667 17 -41 27s-25.5 21 -36.5 33s-19.833 24.833 -26.5 38.5s-10 27.834 -10 42.501c0 24 5.33301 45 16 63s24.834 33 42.501 45s38 20.833 61 26.5s47.167 8.5 72.5 8.5c36.667 0 66.667 -2 90 -6s38.333 -7.66699 45 -11
c2.66699 -1.33301 3.66699 -6.16602 3 -14.499s-2.33398 -17.5 -5.00098 -27.5s-6 -18.833 -10 -26.5s-8 -10.834 -12 -9.50098c-16 4.66699 -34.167 9.16699 -54.5 13.5s-40.166 6.5 -59.499 6.5c-29.333 0 -51.666 -5.5 -66.999 -16.5s-23 -27.167 -23 -48.5
c0 -8 2.66699 -15.667 8 -23s12.5 -14.833 21.5 -22.5s19.5 -15.167 31.5 -22.5l37 -22c20 -11.333 39.333 -23 58 -35s35 -25.333 49 -40s25.167 -30.834 33.5 -48.501s12.5 -38.167 12.5 -61.5zM377.998 207.002c0 10 -1.99902 19.8359 -5.99902 29.5029
s-10 18.334 -18 26.001s-17.833 14 -29.5 19s-25.5 7.83301 -41.5 8.5c-28 2 -49.333 -4 -64 -18s-22 -31 -22 -51c0 -8.66699 2.5 -17.834 7.5 -27.501s12 -18.834 21 -27.501s19.833 -15.834 32.5 -21.501s26.667 -8.83398 42 -9.50098
c23.333 -1.33301 42.166 3.66699 56.499 15s21.5 30.333 21.5 57z" />
    <glyph glyph-name="dieresis" unicode="&#xa8;" horiz-adv-x="333" 
d="M299 560c0 -6 -1 -11.167 -3 -15.5s-6.66699 -6.5 -14 -6.5h-47c-11.333 0 -18.333 2.16699 -21 6.5s-4 9.83301 -4 16.5v47c0 13.333 5.66699 20 17 20h50c10 0 16.167 -1.33301 18.5 -4s3.5 -7.66699 3.5 -15v-49zM127 558c0 -6 -1.16992 -10.833 -3.50293 -14.5
s-7.16602 -5.5 -14.499 -5.5h-50c-9.33301 0 -15.166 1 -17.499 3s-3.5 6.33301 -3.5 13v51c0 6.66699 0.833008 12.167 2.5 16.5s6.5 6.5 14.5 6.5h51c8.66699 0 14.334 -2.16699 17.001 -6.5s4 -9.83301 4 -16.5v-47z" />
    <glyph glyph-name="copyright" unicode="&#xa9;" horiz-adv-x="736" 
d="M372 1c-46 0 -88.833 8.16699 -128.5 24.5s-74.334 38.666 -104.001 66.999s-53 61.5 -70 99.5s-25.5 79 -25.5 123s8.5 85 25.5 123s40.333 71 70 99s64.334 50.167 104.001 66.5s82.5 24.5 128.5 24.5s88.833 -8.16699 128.5 -24.5s74.334 -38.5 104.001 -66.5
s53 -61 70 -99s25.5 -79 25.5 -123s-8.5 -85 -25.5 -123s-40.333 -71.167 -70 -99.5s-64.334 -50.666 -104.001 -66.999s-82.5 -24.5 -128.5 -24.5zM372 584c-38 0 -74 -6.83301 -108 -20.5s-63.5 -32.5 -88.5 -56.5s-44.833 -52.5 -59.5 -85.5s-22 -68.5 -22 -106.5
s7.33301 -73.5 22 -106.5s34.5 -61.5 59.5 -85.5s54.5 -43 88.5 -57s70 -21 108 -21c38.667 0 74.834 7 108.501 21s63 33 88 57s44.833 52.5 59.5 85.5s22 68.5 22 106.5s-7.33301 73.5 -22 106.5s-34.5 61.5 -59.5 85.5s-54.333 42.833 -88 56.5
s-69.834 20.5 -108.501 20.5zM456 419c-5.33301 2.66699 -12.4971 5.66895 -21.4971 9.00195s-22.167 5 -39.5 5c-26.667 0 -46.667 -5.33301 -60 -16s-20 -28.334 -20 -53.001v-113c0 -39.333 23.333 -59 70 -59c21.333 0 37.666 2.16699 48.999 6.5l25 9.5
c1.33301 0 2.83301 -2.16699 4.5 -6.5s3.16699 -9.16602 4.5 -14.499s2.16602 -10.333 2.49902 -15s-0.166992 -7.33398 -1.5 -8.00098c-6.66699 -4 -17.834 -7.83301 -33.501 -11.5s-34.167 -5.5 -55.5 -5.5c-41.333 0 -72.833 8.83301 -94.5 26.5s-32.5 41.5 -32.5 71.5
v123c0 15.333 2 29.833 6 43.5s11.167 25.5 21.5 35.5s24.333 18 42 24s40.5 9 68.5 9c26.667 0 46 -2.5 58 -7.5s19.667 -8.83301 23 -11.5c0.666992 -0.666992 0.5 -3.33398 -0.5 -8.00098s-2.5 -9.5 -4.5 -14.5s-4.16699 -9.5 -6.5 -13.5s-3.83301 -6 -4.5 -6z" />
    <glyph glyph-name="ordfeminine" unicode="&#xaa;" horiz-adv-x="400" 
d="M126 478c0 -10.667 4.83301 -20.501 14.5 -29.501s22.834 -13.5 39.501 -13.5c12.667 0 24.5 1.33301 35.5 4s23.5 8.33398 37.5 17.001v70h-55c-26.667 0 -45.334 -4.5 -56.001 -13.5s-16 -20.5 -16 -34.5zM63 476.999c0 28 8.99707 51.002 26.9971 69.002
s47.667 27 89 27h74v20c0 38.667 -18.667 58 -56 58c-17.333 0 -36.166 -0.5 -56.499 -1.5s-37.166 -2.5 -50.499 -4.5v44c12 5.33301 28.5 9.66602 49.5 12.999s41.5 5 61.5 5c32 0 59 -8.16699 81 -24.5s33 -42.5 33 -78.5v-163c0 -10.667 4 -16 12 -16h34v-30
c-5.33301 -4 -12.333 -7.33301 -21 -10s-19 -4 -31 -4c-11.333 0 -22.166 2.83301 -32.499 8.5s-16.833 13.167 -19.5 22.5c-13.333 -10.667 -27.166 -18.834 -41.499 -24.501s-30.166 -8.5 -47.499 -8.5c-14 0 -27.333 2.33301 -40 7s-23.834 11.167 -33.501 19.5
s-17.334 18.5 -23.001 30.5s-8.5 25.667 -8.5 41z" />
    <glyph glyph-name="guillemotleft" unicode="&#xab;" horiz-adv-x="490" 
d="M468 0h-88l-147 225l147 225h88l-148 -225zM265 0h-88l-147 225l147 225h88l-148 -225z" />
    <glyph glyph-name="logicalnot" unicode="&#xac;" horiz-adv-x="584" 
d="M446 126v213h-391v82h473v-295h-82z" />
    <glyph glyph-name="registered" unicode="&#xae;" horiz-adv-x="736" 
d="M367 0c-46 0 -88.833 8.16699 -128.5 24.5s-74.334 38.5 -104.001 66.5s-53 61 -70 99s-25.5 79 -25.5 123s8.5 85 25.5 123s40.333 71.167 70 99.5s64.334 50.666 104.001 66.999s82.5 24.5 128.5 24.5s88.833 -8.16699 128.5 -24.5s74.334 -38.666 104.001 -66.999
s53 -61.5 70 -99.5s25.5 -79 25.5 -123s-8.5 -85 -25.5 -123s-40.333 -71 -70 -99s-64.334 -50.167 -104.001 -66.5s-82.5 -24.5 -128.5 -24.5zM367 583c-38 0 -74 -6.83301 -108 -20.5s-63.5 -32.667 -88.5 -57s-44.833 -53 -59.5 -86s-22 -68.5 -22 -106.5
s7.33301 -73.333 22 -106s34.5 -61.167 59.5 -85.5s54.5 -43.333 88.5 -57s70 -20.5 108 -20.5c38.667 0 74.834 6.83301 108.501 20.5s63 32.667 88 57s44.833 52.833 59.5 85.5s22 68 22 106s-7.33301 73.5 -22 106.5s-34.5 61.667 -59.5 86s-54.333 43.333 -88 57
s-69.834 20.5 -108.501 20.5zM501 152l-48.001 0.000976562c-3.33301 0 -5.83301 1.33301 -7.5 4l-5.5 9l-75 113c-1.33301 2.66699 -4 4 -8 4h-31c-3.33301 0 -5.16602 -0.5 -5.49902 -1.5s-0.5 -3.16699 -0.5 -6.5v-107c0 -9.33301 -3.66699 -14 -11 -14h-43
c-4.66699 0 -7.16699 1.5 -7.5 4.5s-0.5 7.16699 -0.5 12.5v293c0 5.33301 0.5 8.66602 1.5 9.99902s4.16699 2 9.5 2h105c41.333 0 71.833 -8.83301 91.5 -26.5s29.5 -41.167 29.5 -70.5c0 -13.333 -2.5 -25 -7.5 -35s-10.833 -18.333 -17.5 -25s-13.5 -12 -20.5 -16
s-12.833 -6.66699 -17.5 -8l-5 -2.5c-0.666992 -0.333008 -0.333984 -1.5 0.999023 -3.5l77 -120c6.66699 -10.667 5.33398 -16 -3.99902 -16zM370.999 429.001h-43c-3.33301 0.666992 -5.5 0 -6.5 -2s-1.5 -4 -1.5 -6v-83c0 -5.33301 3 -8 9 -8h53
c14 0 25.667 3.83301 35 11.5s14 20.5 14 38.5c0 32.667 -20 49 -60 49z" />
    <glyph glyph-name="macron" unicode="&#xaf;" horiz-adv-x="333" 
d="M332 542h-331v73h331v-73z" />
    <glyph glyph-name="degree" unicode="&#xb0;" horiz-adv-x="396" 
d="M197 675c-23.333 0 -42.833 -7.83301 -58.5 -23.5s-23.5 -35.167 -23.5 -58.5s7.83301 -43 23.5 -59s35.167 -24 58.5 -24s43 8 59 24s24 35.667 24 59s-8 42.833 -24 58.5s-35.667 23.5 -59 23.5zM197 728c18.667 0 36.167 -3.5 52.5 -10.5s30.666 -16.667 42.999 -29
s22 -26.666 29 -42.999s10.5 -33.833 10.5 -52.5s-3.5 -36.167 -10.5 -52.5s-16.667 -30.666 -29 -42.999s-26.666 -22 -42.999 -29s-33.833 -10.5 -52.5 -10.5s-36.167 3.5 -52.5 10.5s-30.666 16.667 -42.999 29s-22 26.666 -29 42.999s-10.5 33.833 -10.5 52.5
s3.5 36.167 10.5 52.5s16.667 30.666 29 42.999s26.666 22 42.999 29s33.833 10.5 52.5 10.5z" />
    <glyph glyph-name="plusminus" unicode="&#xb1;" horiz-adv-x="584" 
d="M528 82v-82h-472v82h472zM333 589v-195h195v-82h-195v-195h-82v195h-195v82h195v195h82z" />
    <glyph glyph-name="twosuperior" unicode="&#xb2;" horiz-adv-x="388" 
d="M308 332h-227.998v38l59.5 62c19 20 35.667 39.167 50 57.5s25.666 36 33.999 53s12.5 33.167 12.5 48.5c0 21.333 -4 36.333 -12 45s-25 13 -51 13c-14 0 -28.833 -0.5 -44.5 -1.5s-30.167 -3.16699 -43.5 -6.5v44c13.333 4 27.833 7 43.5 9s31.5 3 47.5 3
c38.667 0 67 -8.83301 85 -26.5s27 -42.5 27 -74.5c0 -30 -11.333 -63.167 -34 -99.5s-55.334 -74.5 -98.001 -114.5h152v-50z" />
    <glyph glyph-name="threesuperior" unicode="&#xb3;" horiz-adv-x="370" 
d="M233 518c16.667 -5.33301 30.3311 -15.167 40.998 -29.5s16 -32.166 16 -53.499c0 -33.333 -9.16699 -60.5 -27.5 -81.5s-45.166 -31.5 -80.499 -31.5c-12.667 0 -29 0.666992 -49 2s-37.667 4 -53 8v43c13.333 -0.666992 26 -1.33398 38 -2.00098
c10.667 -0.666992 21.334 -1.16699 32.001 -1.5s19.667 -0.5 27 -0.5c19.333 0 34.333 5.66699 45 17s16 26.666 16 45.999c0 39.333 -21 59 -63 59h-43v44h34c42 0 63 19.333 63 58c0 14.667 -3.83301 26.834 -11.5 36.501s-22.167 14.5 -43.5 14.5
c-9.33301 0 -22.333 -0.5 -39 -1.5s-32 -2.5 -46 -4.5v41c15.333 4 32 6.66699 50 8s33.667 2 47 2c30.667 0 54.167 -8.16699 70.5 -24.5s24.5 -38.5 24.5 -66.5c0 -38.667 -16 -65.667 -48 -81v-1z" />
    <glyph glyph-name="acute" unicode="&#xb4;" horiz-adv-x="333" 
d="M177 654h100l-101 -147h-66z" />
    <glyph glyph-name="mu" unicode="&#xb5;" horiz-adv-x="512" 
d="M58 450h90.9941v-268c0 -34.667 8.83301 -61.667 26.5 -81s40.834 -29 69.501 -29c17.333 0 33.833 1.5 49.5 4.5s33.834 10.167 54.501 21.5v352h90v-371c0 -15.333 5.66699 -23 17 -23h46v-41c-16 -14 -40.667 -21 -74 -21c-15.333 0 -30.666 4 -45.999 12
s-24.666 18.333 -27.999 31c-18.667 -14.667 -36.667 -25.5 -54 -32.5s-36.666 -10.5 -57.999 -10.5c-20.667 0 -40.667 4.33301 -60 13s-32.666 21 -39.999 37v-244h-84v650z" />
    <glyph glyph-name="paragraph" unicode="&#xb6;" horiz-adv-x="401" 
d="M363 -47c0 -9.33301 -0.5 -16.333 -1.5 -21s-5.5 -7 -13.5 -7h-35c-7.33301 0 -11 2.66699 -11 8v656c0 2 -0.166992 4.16699 -0.5 6.5s-2.5 3.5 -6.5 3.5h-25c-6 0 -9 -3.33301 -9 -10v-656c0 -5.33301 -3.66699 -8 -11 -8h-30c-7.33301 0 -12.333 1 -15 3
s-4 6.33301 -4 13v305c0 8.66699 -1.83301 14.5 -5.5 17.5s-8.16699 4.5 -13.5 4.5c-18 0 -36.833 3.5 -56.5 10.5s-37.5 17.833 -53.5 32.5s-29.333 33.667 -40 57s-16 51.333 -16 84c0 33.333 6 62.666 18 87.999s29 46.333 51 63s48.167 29.167 78.5 37.5
s63.5 12.5 99.5 12.5h71c11.333 0 19 -1.66699 23 -5s6 -8.66602 6 -15.999v-679v0z" />
    <glyph glyph-name="periodcentered" unicode="&#xb7;" horiz-adv-x="260" 
d="M130 405c16.667 0 30.834 -5.83301 42.501 -17.5s17.5 -25.834 17.5 -42.501s-5.83301 -30.834 -17.5 -42.501s-25.834 -17.5 -42.501 -17.5s-30.834 5.83301 -42.501 17.5s-17.5 25.834 -17.5 42.501s5.83301 30.834 17.5 42.501s25.834 17.5 42.501 17.5z" />
    <glyph glyph-name="cedilla" unicode="&#xb8;" horiz-adv-x="333" 
d="M252 -132c0 -22.667 -8.83008 -39.667 -26.4971 -51s-39.834 -17 -66.501 -17c-17.333 0 -30.833 2 -40.5 6s-19.167 11.333 -28.5 22c-2 2.66699 -2.16699 5.83398 -0.5 9.50098s4 7.16699 7 10.5s6.16699 5.83301 9.5 7.5s5.66602 1.5 6.99902 -0.5
c3.33301 -4.66699 8.83301 -8.66699 16.5 -12s16.5 -5 26.5 -5c13.333 0 24.166 2.16699 32.499 6.5s12.5 12.166 12.5 23.499c0 12 -3.5 20 -10.5 24s-17.167 6 -30.5 6h-6.5c-2.33301 0 -4.5 -0.333008 -6.5 -1c-3.33301 -0.666992 -5.5 -1 -6.5 -1s-1.5 1.66699 -1.5 5
v75h46v-46c19.333 0 35.333 -5 48 -15s19 -25.667 19 -47z" />
    <glyph glyph-name="onesuperior" unicode="&#xb9;" horiz-adv-x="372" 
d="M80 332v43h80v273l-72 -21v42l77 23h47v-317h80v-43h-212z" />
    <glyph glyph-name="ordmasculine" unicode="&#xba;" horiz-adv-x="400" 
d="M198 706c24.667 0 46.335 -4.00098 65.002 -12.001s34.167 -19 46.5 -33s21.666 -30.833 27.999 -50.5s9.5 -41.167 9.5 -64.5c0 -50 -12.167 -90.333 -36.5 -121s-61.833 -46 -112.5 -46c-24 0 -45.167 4.16699 -63.5 12.5s-33.5 20 -45.5 35s-21 32.667 -27 53
s-9 42.5 -9 66.5c0 22.667 3.16699 43.834 9.5 63.501s15.666 36.667 27.999 51s27.5 25.5 45.5 33.5s38.667 12 62 12zM198.001 650.999c-30 0 -51.001 -10.001 -63.001 -30.001s-18 -45 -18 -75c0 -33.333 5.83301 -60.166 17.5 -80.499s32.834 -30.5 63.501 -30.5
c32.667 0 55.167 9.83301 67.5 29.5s18.5 46.5 18.5 80.5c0 30.667 -6.5 56 -19.5 76s-35.167 30 -66.5 30z" />
    <glyph glyph-name="guillemotright" unicode="&#xbb;" horiz-adv-x="490" 
d="M225 450h88l147 -225l-147 -225h-88l148 225zM22 450h88l147 -225l-147 -225h-88l148 225z" />
    <glyph glyph-name="onequarter" unicode="&#xbc;" horiz-adv-x="798" 
d="M80 332v43h80v273l-72 -21v42l77 23h47v-317h80v-43h-212zM210 -27h-67l455 718h67zM686 128h32v-46h-32v-82h-52v82h-159v23l162 260h49v-237zM545 128h89v140h-1z" />
    <glyph glyph-name="onehalf" unicode="&#xbd;" horiz-adv-x="830" 
d="M80 332v43h80v273l-72 -21v42l77 23h47v-317h80v-43h-212zM750 0h-227.998v38l59.5 62c19 20 35.667 39.167 50 57.5s25.666 36 33.999 53s12.5 33.167 12.5 48.5c0 21.333 -4 36.333 -12 45s-25 13 -51 13c-14 0 -28.833 -0.5 -44.5 -1.5s-30.167 -3.16699 -43.5 -6.5
v44c13.333 4 27.833 7 43.5 9s31.5 3 47.5 3c38.667 0 67 -8.83301 85 -26.5s27 -42.5 27 -74.5c0 -30 -11.333 -63.167 -34 -99.5s-55.334 -74.5 -98.001 -114.5h152v-50zM210.002 -27h-67l455 718h67z" />
    <glyph glyph-name="threequarters" unicode="&#xbe;" horiz-adv-x="798" 
d="M215 -27h-67l455 718h67zM233 518c16.667 -5.33301 30.3311 -15.167 40.998 -29.5s16 -32.166 16 -53.499c0 -33.333 -9.16699 -60.5 -27.5 -81.5s-45.166 -31.5 -80.499 -31.5c-12.667 0 -29 0.666992 -49 2s-37.667 4 -53 8v43
c13.333 -0.666992 26 -1.33398 38 -2.00098c10.667 -0.666992 21.334 -1.16699 32.001 -1.5s19.667 -0.5 27 -0.5c19.333 0 34.333 5.66699 45 17s16 26.666 16 45.999c0 39.333 -21 59 -63 59h-43v44h34c42 0 63 19.333 63 58c0 14.667 -3.83301 26.834 -11.5 36.501
s-22.167 14.5 -43.5 14.5c-9.33301 0 -22.333 -0.5 -39 -1.5s-32 -2.5 -46 -4.5v41c15.333 4 32 6.66699 50 8s33.667 2 47 2c30.667 0 54.167 -8.16699 70.5 -24.5s24.5 -38.5 24.5 -66.5c0 -38.667 -16 -65.667 -48 -81v-1zM685.997 127.999h32v-46h-32v-82h-52v82h-159
v23l162 260h49v-237zM544.997 127.999h89v140h-1z" />
    <glyph glyph-name="questiondown" unicode="&#xbf;" horiz-adv-x="424" 
d="M69 10c0 28 6.16309 52.499 18.4961 73.499s25.833 40.167 40.5 57.5l40.5 49c12.333 15.333 18.5 31 18.5 47v42c0 13.333 6 20 18 20h52c6.66699 0 11.334 -1.33301 14.001 -4s3.66699 -7.66699 3 -15c0.666992 -8 1 -15.667 1 -23
c0 -6.66699 -0.333008 -13.5 -1 -20.5s-1.66699 -13.5 -3 -19.5c-4.66699 -17.333 -13.167 -33.166 -25.5 -47.499l-38 -43.5c-13 -14.667 -24.667 -29.667 -35 -45s-15.5 -32.333 -15.5 -51c0 -53.333 25.333 -80 76 -80c16.667 0 33.834 4.16699 51.501 12.5
s31.167 16.166 40.5 23.499c2.66699 2 6.16699 0.5 10.5 -4.5s8 -11.5 11 -19.5s4.83301 -16 5.5 -24s-1 -13.333 -5 -16c-4 -3.33301 -10 -7.16602 -18 -11.499s-17.333 -8.83301 -28 -13.5s-22.667 -8.5 -36 -11.5s-27.666 -4.5 -42.999 -4.5
c-47.333 0 -84.666 11.5 -111.999 34.5s-41 54.5 -41 94.5zM176.996 445.999c0 7.33301 0.666016 13.999 1.99902 19.999s7 9 17 9h61c10.667 0 17.834 -2.5 21.501 -7.5s5.5 -11.167 5.5 -18.5v-40c0 -5.33301 -1.5 -10.166 -4.5 -14.499s-7.16699 -6.5 -12.5 -6.5h-68
c-9.33301 0 -15.333 1.5 -18 4.5s-4 7.16699 -4 12.5v41z" />
    <glyph glyph-name="Agrave" unicode="&#xc0;" horiz-adv-x="595" 
d="M563 31c4.66699 -15.333 4.83203 -24.333 0.499023 -27s-10.833 -4 -19.5 -4h-74c-9.33301 0 -14.666 1.66699 -15.999 5s-3.66602 9.66602 -6.99902 18.999l-40 131h-231l-39 -131c-3.33301 -9.33301 -6.33301 -15.666 -9 -18.999s-7.66699 -5 -15 -5h-67
c-5.33301 0 -8.83301 1.66699 -10.5 5s-0.5 12 3.5 26l190 622c3.33301 10 7.16602 17.333 11.499 22s11.833 7 22.5 7h76c11.333 0 19 -2.33301 23 -7s8 -12 12 -22zM290.998 549l-90 -312h181zM349.998 748c11.333 -16 10.002 -24 -3.99805 -24h-37
c-6 0 -11.333 1.5 -16 4.5s-9.33398 6.83301 -14.001 11.5l-114 121c-8.66699 9.33301 -12.834 16 -12.501 20s6.83301 6 19.5 6h65c8 0 13.5 -1.5 16.5 -4.5s6.83301 -8.16699 11.5 -15.5z" />
    <glyph glyph-name="Aacute" unicode="&#xc1;" horiz-adv-x="595" 
d="M558 31c4.66699 -15.333 4.83105 -24.333 0.498047 -27s-10.833 -4 -19.5 -4h-74c-9.33301 0 -14.666 1.66699 -15.999 5s-3.66602 9.66602 -6.99902 18.999l-40 131h-232l-39 -131c-3.33301 -9.33301 -6.16602 -15.666 -8.49902 -18.999s-7.16602 -5 -14.499 -5h-67
c-5.33301 0 -8.83301 1.66699 -10.5 5s-0.5 12 3.5 26l190 621c3.33301 10.667 7.16602 18.334 11.499 23.001s12.166 7 23.499 7h75c11.333 0 19 -2.33301 23 -7s8 -12.334 12 -23.001zM286.997 549l-91 -311h181zM325.997 741
c-4.66699 -5.33301 -9.33203 -9.5 -13.999 -12.5s-10 -4.5 -16 -4.5h-36c-13.333 0 -15 8.33301 -5 25l85 118c4.66699 7.33301 8.5 12.5 11.5 15.5s8.5 4.5 16.5 4.5h65c13.333 0 20.166 -2 20.499 -6s-3.5 -10.667 -11.5 -20z" />
    <glyph glyph-name="Acircumflex" unicode="&#xc2;" horiz-adv-x="595" 
d="M562 31c4.66699 -15.333 4.66797 -24.333 0.000976562 -27s-11.334 -4 -20.001 -4h-73c-9.33301 0 -14.666 1.66699 -15.999 5s-3.66602 9.66602 -6.99902 18.999l-40 131h-232l-39 -131c-2.66699 -9.33301 -5.33398 -15.666 -8.00098 -18.999s-7.66699 -5 -15 -5h-67
c-5.33301 0 -8.83301 1.66699 -10.5 5s-0.5 12 3.5 26l190 621c3.33301 11.333 7.16602 19.166 11.499 23.499s11.833 6.5 22.5 6.5h76c11.333 0 19 -2.16699 23 -6.5s8 -12.166 12 -23.499zM291.001 549l-91 -311h181zM430.001 748c12 -16 10.002 -24 -5.99805 -24h-34
c-6 0 -10.5 0.5 -13.5 1.5s-6.83301 4.16699 -11.5 9.5l-66 88l-66 -88c-4.66699 -5.33301 -8.66699 -8.5 -12 -9.5s-7.33301 -1.5 -12 -1.5h-36c-14.667 0 -16 8 -4 24l85 119c3.33301 5.33301 6.66602 10 9.99902 14s8.66602 6 15.999 6h37c8 0 13.667 -2 17 -6
s7 -8.66699 11 -14z" />
    <glyph glyph-name="Atilde" unicode="&#xc3;" horiz-adv-x="595" 
d="M565 31c2 -7.33301 2.99902 -13.167 2.99902 -17.5s-1 -7.5 -3 -9.5s-4.66699 -3.16699 -8 -3.5s-7 -0.5 -11 -0.5h-74c-9.33301 0 -14.666 1.66699 -15.999 5s-3.66602 9.66602 -6.99902 18.999l-40 131h-232l-39 -131c-3.33301 -9.33301 -6.33301 -15.666 -9 -18.999
s-7.66699 -5 -15 -5h-67c-5.33301 0 -8.83301 1.66699 -10.5 5s-0.5 12 3.5 26l190 623c3.33301 10.667 7.16602 18.167 11.499 22.5s11.833 6.5 22.5 6.5h77c11.333 0 19 -2.16699 23 -6.5s8 -11.833 12 -22.5zM292.999 549.999l-91 -312h182zM474.999 837.999
c-14 -27.333 -29.8311 -49.666 -47.498 -66.999s-39.167 -26 -64.5 -26c-10.667 0 -21.334 2.66699 -32.001 8s-21.167 11.166 -31.5 17.499s-20.333 12.166 -30 17.499s-18.834 8 -27.501 8c-10 0 -20 -3.5 -30 -10.5s-17.667 -15.167 -23 -24.5
c-2.66699 -4 -5 -6.33301 -7 -7s-4.33301 -0.333984 -7 0.999023l-35 18c-5.33301 2.66699 -6.33301 6.66699 -3 12c4 8.66699 9.16699 18.334 15.5 29.001s13.833 20.334 22.5 29.001s18.334 16 29.001 22s22 9 34 9c10.667 0 21.667 -2.83301 33 -8.5
s22.666 -11.667 33.999 -18l32.5 -18c10.333 -5.66699 19.5 -8.5 27.5 -8.5c13.333 0 24.5 4 33.5 12s16.167 16.667 21.5 26c2.66699 6.66699 7 8.66699 13 6l38 -13c4.66699 -1.33301 6 -6 4 -14z" />
    <glyph glyph-name="Adieresis" unicode="&#xc4;" horiz-adv-x="595" 
d="M564 30c2 -7.33301 3.00098 -13.167 3.00098 -17.5s-1 -7.5 -3 -9.5s-4.66699 -3.16699 -8 -3.5s-7 -0.5 -11 -0.5h-74c-9.33301 0 -14.833 1.66699 -16.5 5s-4.16699 9.66602 -7.5 18.999l-40 132h-232l-40 -132c-3.33301 -9.33301 -6.33301 -15.666 -9 -18.999
s-7.66699 -5 -15 -5h-67c-5.33301 0 -8.83301 1.66699 -10.5 5s-0.5 12 3.5 26l191 625c3.33301 10.667 7.16602 18.167 11.499 22.5s11.833 6.5 22.5 6.5h77c11.333 0 19 -2.16699 23 -6.5s8 -11.833 12 -22.5zM291.001 550.999l-91 -313h182zM448.001 780.999
c0 -7.33301 -1.16797 -13.5 -3.50098 -18.5s-7.83301 -7.5 -16.5 -7.5h-54c-13.333 0 -21.666 2.66699 -24.999 8s-5 11.666 -5 18.999v55c0 15.333 6.66699 23 20 23h58c11.333 0 18.5 -1.66699 21.5 -5s4.5 -8.66602 4.5 -15.999v-58zM248 778.999
c0 -7.33301 -1.49902 -13.167 -4.49902 -17.5s-8.83301 -6.5 -17.5 -6.5h-59c-10.667 0 -17.5 1.33301 -20.5 4s-4.5 7.66699 -4.5 15v60c0 7.33301 1.16699 13.5 3.5 18.5s8.16602 7.5 17.499 7.5h60c10 0 16.667 -2.5 20 -7.5s5 -11.167 5 -18.5v-55z" />
    <glyph glyph-name="Aring" unicode="&#xc5;" horiz-adv-x="595" 
d="M558 33c4.66699 -15.333 4.66602 -24.333 -0.000976562 -27s-11.334 -4 -20.001 -4h-73c-9.33301 0 -14.666 1.66699 -15.999 5s-3.66602 9.66602 -6.99902 18.999l-40 130h-232l-39 -130c-3.33301 -9.33301 -6.16602 -15.666 -8.49902 -18.999s-7.16602 -5 -14.499 -5
h-67c-5.33301 0 -8.83301 1.66699 -10.5 5s-0.5 12 3.5 26l189 620c3.33301 11.333 7.16602 19.166 11.499 23.499s11.833 6.5 22.5 6.5h78c10.667 0 18.167 -2.16699 22.5 -6.5s8.16602 -12.166 11.499 -23.499zM286.999 550l-92 -310h182zM408.999 829
c0 -14.667 -3 -28.5 -9 -41.5s-14 -24.5 -24 -34.5s-21.833 -17.833 -35.5 -23.5s-28.167 -8.5 -43.5 -8.5s-29.666 2.83301 -42.999 8.5s-25 13.5 -35 23.5s-18 21.5 -24 34.5s-9 26.833 -9 41.5s3 28.667 9 42s14 24.833 24 34.5s21.667 17.334 35 23.001
s27.666 8.5 42.999 8.5s29.833 -2.83301 43.5 -8.5s25.5 -13.334 35.5 -23.001s18 -21.167 24 -34.5s9 -27.333 9 -42zM354.999 829c0 15.333 -5.33398 29.333 -16.001 42s-24.667 19 -42 19c-16 0 -29.5 -6.33301 -40.5 -19s-16.5 -26.667 -16.5 -42
s5.33301 -29.166 16 -41.499s24.334 -18.5 41.001 -18.5s30.5 6.16699 41.5 18.5s16.5 26.166 16.5 41.499z" />
    <glyph glyph-name="AE" unicode="&#xc6;" horiz-adv-x="836" 
d="M792 17c0 -6.66699 -1.99805 -11.1699 -5.99805 -13.5029s-8.66699 -3.5 -14 -3.5h-354c-6 0 -11.167 2 -15.5 6s-6.5 11 -6.5 21v110c0 12 -5.66699 18 -17 18h-175l-62 -131c-3.33301 -9.33301 -7.16602 -15.666 -11.499 -18.999s-9.83301 -5 -16.5 -5h-62
c-14 0 -17.667 8.66699 -11 26l297 629c5.33301 10.667 9.66602 18.334 12.999 23.001s10.333 7 21 7h381c11.333 0 18.333 -0.833008 21 -2.5s4 -5.83398 4 -12.501v-55c0 -7.33301 -3.83301 -11.666 -11.5 -12.999s-18.167 -2 -31.5 -2h-208
c-10.667 0 -17.334 -1.5 -20.001 -4.5s-4 -6.5 -4 -10.5v-162c0 -9.33301 1.5 -15.333 4.5 -18s8.16699 -4 15.5 -4h185c13.333 0 21.666 -1.16699 24.999 -3.5s4.33301 -6.5 3 -12.5l-7 -53c-1.33301 -9.33301 -6.5 -14.5 -15.5 -15.5s-18.167 -1.5 -27.5 -1.5h-155
c-10 0 -17 -1.66699 -21 -5s-6 -9 -6 -17v-184c0 -10.667 2.5 -16.667 7.5 -18s11.5 -2 19.5 -2h227c12.667 0 21.5 -1.16699 26.5 -3.5s7.5 -7.16602 7.5 -14.499v-54zM396.002 583.997l-158 -345.999h141c7.33301 0 12 1.66699 14 5s3 7.66602 3 12.999v328z" />
    <glyph glyph-name="Ccedilla" unicode="&#xc7;" horiz-adv-x="588" 
d="M518 650c2 -2 1.99805 -7.16895 -0.00195312 -15.502s-4.83301 -17.166 -8.5 -26.499s-7.66699 -17.5 -12 -24.5s-7.5 -10.167 -9.5 -9.5c-11.333 5.33301 -26.166 11.333 -44.499 18s-44.5 10 -78.5 10c-62.667 0 -107.167 -13 -133.5 -39s-39.5 -65.333 -39.5 -118
v-240c0 -25.333 4.5 -46.5 13.5 -63.5s20.667 -30.5 35 -40.5s30.5 -17.167 48.5 -21.5s36.333 -6.5 55 -6.5c20.667 0 39 1.33301 55 4s30 5.83398 42 9.50098s22.167 7.33398 30.5 11.001s15.5 6.5 21.5 8.5c2.66699 0.666992 5.66699 -2.83301 9 -10.5
s6.16602 -16.667 8.49902 -27s3.83301 -20 4.5 -29s0 -14.5 -2 -16.5c-11.333 -7.33301 -31.333 -14.5 -60 -21.5s-62 -11.167 -100 -12.5v-26c22.667 0 41.334 -6.16699 56.001 -18.5s22 -30.5 22 -54.5c0 -26 -10.333 -45.5 -31 -58.5s-46.334 -19.5 -77.001 -19.5
c-20 0 -35.667 2.33301 -47 7s-22.333 13 -33 25c-2.66699 2.66699 -3 6.33398 -1 11.001s4.83301 8.83398 8.5 12.501s7.5 6.5 11.5 8.5s6.66699 2 8 0c4 -5.33301 10.333 -10 19 -14s18.667 -6 30 -6c15.333 0 28 2.66699 38 8s15 14 15 26c0 14 -4.16699 23.5 -12.5 28.5
s-19.833 7.5 -34.5 7.5c-3.33301 0 -6.16602 -0.166992 -8.49902 -0.5s-4.83301 -0.833008 -7.5 -1.5c-3.33301 -0.666992 -5.83301 -0.833984 -7.5 -0.500977s-2.5 2.16602 -2.5 5.49902v60c-70.667 5.33301 -125 26 -163 62s-57 83.667 -57 143v260
c0 32.667 4 63.167 12 91.5s22.333 53.166 43 74.499s48.834 38.166 84.501 50.499s81.5 18.5 137.5 18.5c26.667 0 49.334 -1.5 68.001 -4.5s34.5 -6.66699 47.5 -11s23.167 -8.66602 30.5 -12.999s12.666 -7.83301 15.999 -10.5z" />
    <glyph glyph-name="Egrave" unicode="&#xc8;" horiz-adv-x="520" 
d="M463 17c0 -6.66699 -2.00293 -11.1689 -6.00293 -13.502s-8.33301 -3.5 -13 -3.5h-355c-6 0 -11 2 -15 6s-6 11 -6 21v624c0 9.33301 0.833008 16.833 2.5 22.5s6.83398 8.5 15.501 8.5h337c11.333 0 18.333 -0.666992 21 -2s4 -5.33301 4 -12v-56
c0 -7.33301 -3.66699 -11.666 -11 -12.999s-17.666 -2 -30.999 -2h-208c-10 0 -16.5 -1.66699 -19.5 -5s-4.5 -6.66602 -4.5 -9.99902v-161c0 -8.66699 1.5 -14.334 4.5 -17.001s8.16699 -4 15.5 -4h185c13.333 0 21.666 -1.33301 24.999 -4s4.33301 -7 3 -13l-6 -52
c-1.33301 -10 -6.66602 -15.5 -15.999 -16.5s-18.666 -1.5 -27.999 -1.5h-155c-10 0 -16.833 -1.5 -20.5 -4.5s-5.5 -8.5 -5.5 -16.5v-183c0 -11.333 2.5 -17.666 7.5 -18.999s11.5 -2 19.5 -2h226c12 0 20.667 -1 26 -3s8 -6.66699 8 -14v-54zM336.997 747.998
c12 -16 10.334 -24 -4.99902 -24h-36c-6.66699 0 -12.5 1.66699 -17.5 5s-9.5 7.33301 -13.5 12l-115 120c-8.66699 9.33301 -12.834 16 -12.501 20s6.83301 6 19.5 6h65c8 0 13.667 -1.66699 17 -5s7.33301 -8.33301 12 -15z" />
    <glyph glyph-name="Eacute" unicode="&#xc9;" horiz-adv-x="520" 
d="M469 17c0 -6.66699 -2.00098 -11.1689 -6.00098 -13.502s-8.66699 -3.5 -14 -3.5h-354c-6 0 -11 2 -15 6s-6 11 -6 21v624c0 9.33301 0.833008 16.833 2.5 22.5s6.83398 8.5 15.501 8.5h337c11.333 0 18.333 -0.833008 21 -2.5s4 -5.83398 4 -12.501v-55
c0 -7.33301 -3.83301 -11.666 -11.5 -12.999s-18.167 -2 -31.5 -2h-207c-10 0 -16.5 -1.5 -19.5 -4.5s-4.5 -6.5 -4.5 -10.5v-161c0 -9.33301 1.66699 -15.166 5 -17.499s8.66602 -3.5 15.999 -3.5h184c13.333 0 21.666 -1.33301 24.999 -4s4.33301 -7 3 -13l-6 -52
c-1.33301 -10 -6.66602 -15.5 -15.999 -16.5s-18.666 -1.5 -27.999 -1.5h-155c-17.333 0 -26 -7 -26 -21v-183c0 -10.667 2.5 -16.667 7.5 -18s11.5 -2 19.5 -2h226c12 0 20.667 -1.16699 26 -3.5s8 -7.16602 8 -14.499v-54zM289.999 740.998
c-4 -5.33301 -8.49902 -9.5 -13.499 -12.5s-10.5 -4.5 -16.5 -4.5h-36c-14.667 0 -16.667 8 -6 24l86 119c4.66699 6.66699 8.5 11.667 11.5 15s8.5 5 16.5 5h65c13.333 0 20.166 -2 20.499 -6s-3.5 -10.667 -11.5 -20z" />
    <glyph glyph-name="Ecircumflex" unicode="&#xca;" horiz-adv-x="520" 
d="M472 17c0 -6.66699 -2.00098 -11.1689 -6.00098 -13.502s-8.66699 -3.5 -14 -3.5h-354c-6 0 -11 2 -15 6s-6 11 -6 21v624c0 9.33301 0.833008 16.833 2.5 22.5s6.83398 8.5 15.501 8.5h337c11.333 0 18.333 -0.833008 21 -2.5s4 -5.83398 4 -12.501v-55
c0 -7.33301 -3.83301 -11.666 -11.5 -12.999s-18.167 -2 -31.5 -2h-207c-10 0 -16.5 -1.5 -19.5 -4.5s-4.5 -6.5 -4.5 -10.5v-161c0 -9.33301 1.66699 -15.166 5 -17.499s8.66602 -3.5 15.999 -3.5h184c13.333 0 21.666 -1.33301 24.999 -4s4.33301 -7 3 -13l-6 -52
c-1.33301 -10 -6.66602 -15.5 -15.999 -16.5s-18.666 -1.5 -27.999 -1.5h-155c-17.333 0 -26 -7 -26 -21v-183c0 -10.667 2.5 -16.667 7.5 -18s11.5 -2 19.5 -2h226c12 0 20.667 -1.16699 26 -3.5s8 -7.16602 8 -14.499v-54zM400.999 747.998c12 -16 10.333 -24 -5 -24h-35
c-5.33301 0 -9.66602 0.5 -12.999 1.5s-7 4.16699 -11 9.5l-66 88l-66 -88c-5.33301 -5.33301 -9.5 -8.5 -12.5 -9.5s-7.16699 -1.5 -12.5 -1.5h-35c-15.333 0 -17 8 -5 24l85 119l10.5 14c3 4 8.16699 6 15.5 6h38c7.33301 0 12.666 -2 15.999 -6s7 -8.66699 11 -14z" />
    <glyph glyph-name="Edieresis" unicode="&#xcb;" horiz-adv-x="520" 
d="M470 17c0 -6.66699 -1.99805 -11.167 -5.99805 -13.5s-8.66699 -3.5 -14 -3.5h-355c-6 0 -11 2 -15 6s-6 11 -6 21v626c0 9.33301 0.833008 16.833 2.5 22.5s6.83398 8.5 15.501 8.5h338c11.333 0 18.333 -0.833008 21 -2.5s4 -5.83398 4 -12.501v-55
c0 -7.33301 -3.83301 -11.666 -11.5 -12.999s-18.167 -2 -31.5 -2h-208c-10 0 -16.5 -1.5 -19.5 -4.5s-4.5 -6.5 -4.5 -10.5v-162c0 -9.33301 1.66699 -15.166 5 -17.499s8.66602 -3.5 15.999 -3.5h185c13.333 0 21.666 -1.33301 24.999 -4s4.33301 -7 3 -13l-6 -52
c-1.33301 -10 -6.83301 -15.5 -16.5 -16.5s-18.834 -1.5 -27.501 -1.5h-156c-17.333 0 -26 -7 -26 -21v-184c0 -10.667 2.5 -16.834 7.5 -18.501s11.5 -2.5 19.5 -2.5h226c12.667 0 21.667 -1 27 -3s8 -6.66699 8 -14v-54zM417.002 780
c0 -7.33301 -1.16797 -13.334 -3.50098 -18.001s-8.16602 -7 -17.499 -7h-54c-13.333 0 -21.5 2.5 -24.5 7.5s-4.5 11.167 -4.5 18.5v55c0 15.333 6.66699 23 20 23h58c11.333 0 18.5 -1.66699 21.5 -5s4.5 -8.66602 4.5 -15.999v-58zM216.001 777.999
c0 -7.33301 -1.49902 -12.999 -4.49902 -16.999s-8.83301 -6 -17.5 -6h-58c-10.667 0 -17.5 1.16699 -20.5 3.5s-4.5 7.16602 -4.5 14.499v60c0 7.33301 1.16699 13.5 3.5 18.5s8.16602 7.5 17.499 7.5h59c10 0 16.667 -2.5 20 -7.5s5 -11.167 5 -18.5v-55z" />
    <glyph glyph-name="Igrave" unicode="&#xcc;" horiz-adv-x="250" 
d="M186 21c0 -7.33301 -1.16699 -12.667 -3.5 -16s-7.5 -5 -15.5 -5h-72c-8.66699 -0 -14.5 1.83301 -17.5 5.5s-4.5 10.5 -4.5 20.5v636c0 8.66699 1.66699 14.167 5 16.5s10.333 3.5 21 3.5h69c8 0 13 -1.83301 15 -5.5s3 -10.5 3 -20.5v-635zM177 747.999
c11.333 -16 9.66797 -24 -4.99902 -24h-36c-6 0 -11.5 1.5 -16.5 4.5s-9.5 7.16699 -13.5 12.5l-115 120c-8.66699 9.33301 -12.834 16 -12.501 20s6.83301 6 19.5 6h65c8 0 13.667 -1.66699 17 -5s7.33301 -8.33301 12 -15z" />
    <glyph glyph-name="Iacute" unicode="&#xcd;" horiz-adv-x="250" 
d="M185 21c0 -7.33301 -1.16699 -12.667 -3.5 -16s-7.83301 -5 -16.5 -5h-72c-8 -0 -13.5 1.83301 -16.5 5.5s-4.5 10.5 -4.5 20.5v636c0 8.66699 1.66699 14.167 5 16.5s10 3.5 20 3.5h69c8.66699 0 14 -1.83301 16 -5.5s3 -10.5 3 -20.5v-635zM156 740.999
c-4.66699 -5.33301 -9.33105 -9.5 -13.998 -12.5s-10 -4.5 -16 -4.5h-36c-14.667 0 -16.667 8 -6 24l86 119c4.66699 6.66699 8.5 11.667 11.5 15s8.5 5 16.5 5h65c13.333 0 20.166 -2 20.499 -6s-3.83398 -10.667 -12.501 -20z" />
    <glyph glyph-name="Icircumflex" unicode="&#xce;" horiz-adv-x="250" 
d="M182 21c0 -7.33301 -1.16699 -12.667 -3.5 -16s-7.83301 -5 -16.5 -5h-72c-8 -0 -13.5 1.83301 -16.5 5.5s-4.5 10.5 -4.5 20.5v636c0 8.66699 1.66699 14.167 5 16.5s10 3.5 20 3.5h69c8.66699 0 14 -1.83301 16 -5.5s3 -10.5 3 -20.5v-635zM257 747.999
c12 -16 10.001 -24 -5.99902 -24h-34c-5.33301 0 -9.66602 0.5 -12.999 1.5s-7 4.16699 -11 9.5l-66 88l-67 -88c-4.66699 -5.33301 -8.5 -8.5 -11.5 -9.5s-7.16699 -1.5 -12.5 -1.5h-35c-15.333 0 -17 8 -5 24l85 119c3.33301 5.33301 6.66602 10 9.99902 14
s8.66602 6 15.999 6h37c8 0 13.667 -2 17 -6s7 -8.66699 11 -14z" />
    <glyph glyph-name="Idieresis" unicode="&#xcf;" horiz-adv-x="250" 
d="M182 18c0 -8 -1.16699 -13.666 -3.5 -16.999s-7.83301 -5 -16.5 -5h-73c-8.66699 0 -14.5 1.83301 -17.5 5.5s-4.5 10.5 -4.5 20.5v640c0 9.33301 1.66699 15.166 5 17.499s10.333 3.5 21 3.5h70c8.66699 0 14 -1.83301 16 -5.5s3 -10.5 3 -20.5v-639zM276 780.001
c0 -7.33301 -1.16895 -13.501 -3.50195 -18.501s-8.16602 -7.5 -17.499 -7.5h-54c-13.333 0 -21.666 2.5 -24.999 7.5s-5 11.167 -5 18.5v56c0 15.333 7 23 21 23h58c11.333 0 18.5 -1.66699 21.5 -5s4.5 -8.66602 4.5 -15.999v-58zM73.998 778
c0 -7.33301 -1.49902 -13.167 -4.49902 -17.5s-8.83301 -6.5 -17.5 -6.5h-58c-10.667 0 -17.5 1.33301 -20.5 4s-4.5 7.66699 -4.5 15v60c0 7.33301 1.16699 13.5 3.5 18.5s8.16602 7.5 17.499 7.5h59c10 0 16.667 -2.5 20 -7.5s5 -11.167 5 -18.5v-55z" />
    <glyph glyph-name="Eth" unicode="&#xd0;" horiz-adv-x="602" 
d="M530 213c0 -47.333 -8 -85.1641 -24 -113.497s-36 -49.833 -60 -64.5s-49.667 -24.167 -77 -28.5s-52.333 -6.5 -75 -6.5h-216c-6.66699 0 -12.334 2.33301 -17.001 7s-7 13 -7 25v273h-29c-17.333 0 -26 6.33301 -26 19v47c0 11.333 2 17.666 6 18.999s11.667 2 23 2h26
v260c0 9.33301 1 16.833 3 22.5s7.66699 8.5 17 8.5h189c34.667 0 68.167 -3 100.5 -9s60.833 -17.333 85.5 -34s44.334 -39.334 59.001 -68.001s22 -65.334 22 -110.001v-249zM417 455.002c0 50.667 -13.6689 86.5 -41.002 107.5s-64.666 31.5 -111.999 31.5h-78
c-9.33301 0 -15.166 -1.5 -17.499 -4.5s-3.5 -7.83301 -3.5 -14.5v-183h74c12 0 20.667 -0.666992 26 -2s8 -6.66602 8 -15.999v-46c0 -9.33301 -2 -15.5 -6 -18.5s-13.333 -4.5 -28 -4.5h-74v-194c0 -6.66699 1.5 -11.834 4.5 -15.501s9.5 -5.5 19.5 -5.5h76
c18 0 36 1.5 54 4.5s34.333 9.16699 49 18.5s26.5 23 35.5 41s13.5 42 13.5 72v229z" />
    <glyph glyph-name="Ntilde" unicode="&#xd1;" horiz-adv-x="661" 
d="M593 32c0 -12.667 -1.16992 -21.6689 -3.50293 -27.002s-8.16602 -7.66602 -17.499 -6.99902l-67 1c-8.66699 0 -15.167 1.5 -19.5 4.5s-9.16602 9.16699 -14.499 18.5l-271 455c-7.33301 12.667 -12.666 19.5 -15.999 20.5s-5 -5.83301 -5 -20.5v-445
c0 -12.667 -1 -21.167 -3 -25.5s-7.66699 -6.5 -17 -6.5h-61h-8.5c-3 0 -5.66699 0.833008 -8 2.5s-4.33301 4.5 -6 8.5s-2.5 9.66699 -2.5 17v625c0 0.666992 0.166992 2.66699 0.5 6s1 6.83301 2 10.5s2.66699 6.83398 5 9.50098s5.5 4 9.5 4h65
c15.333 0 24.5 -1.5 27.5 -4.5s7.16699 -8.16699 12.5 -15.5l273 -463c6.66699 -11.333 11.5 -16.333 14.5 -15s4.5 11 4.5 29v439c0 7.33301 1 14.333 3 21s6 9.66699 12 9h72c8 0 13.167 -2.5 15.5 -7.5s3.5 -12.833 3.5 -23.5v-620zM507.997 837.998
c-13.333 -28 -28.9961 -50.668 -46.9961 -68.001s-39.333 -26 -64 -26c-10.667 0 -21.334 2.66699 -32.001 8s-21.334 11.333 -32.001 18s-20.834 12.667 -30.501 18s-18.834 8 -27.501 8c-10 0 -20 -3.66699 -30 -11s-17.667 -15.666 -23 -24.999
c-3.33301 -6.66699 -8 -8.33398 -14 -5.00098l-34 17c-6 2.66699 -7.33301 6.66699 -4 12c4 8.66699 9.16699 18.334 15.5 29.001s13.833 20.334 22.5 29.001s18.5 16 29.5 22s22.5 9 34.5 9c10.667 0 21.667 -2.83301 33 -8.5s22.5 -11.667 33.5 -18l32 -18
c10.333 -5.66699 19.833 -8.5 28.5 -8.5c13.333 0 24.5 4 33.5 12s16.167 16.667 21.5 26c2 6.66699 6.33301 8.66699 13 6l37 -12c6 -2.66699 7.33301 -7.33398 4 -14.001z" />
    <glyph glyph-name="Ograve" unicode="&#xd2;" horiz-adv-x="683" 
d="M590 214c0 -36 -4.16504 -66.498 -12.498 -91.498s-19.5 -45.667 -33.5 -62s-29.833 -29 -47.5 -38s-35.5 -15.667 -53.5 -20s-35.667 -7 -53 -8s-32.666 -1.5 -45.999 -1.5c-22.667 0 -48.5 1.83301 -77.5 5.5s-56.333 12.167 -82 25.5s-47.334 32.666 -65.001 57.999
s-26.5 59.666 -26.5 102.999v270c0 82 20.333 140.833 61 176.5s103 53.5 187 53.5c34 0 66.167 -3.5 96.5 -10.5s56.666 -19.333 78.999 -37s40.166 -41 53.499 -70s20 -65.5 20 -109.5v-244zM479.002 452.002c0 50 -11.166 86.333 -33.499 109s-55.5 34 -99.5 34
c-54 0 -91.667 -12.5 -113 -37.5s-32 -61.5 -32 -109.5v-239c0 -23.333 4.33301 -43 13 -59s19.667 -28.833 33 -38.5s28.5 -16.667 45.5 -21s34.167 -6.5 51.5 -6.5c18.667 0 36.167 1.83301 52.5 5.5s30.666 10.5 42.999 20.5s22 24.333 29 43s10.5 43 10.5 73v226z
M415.003 740.002c11.333 -16 10.001 -24 -3.99902 -24h-36c-6 0 -11.333 1.5 -16 4.5s-9 7.16699 -13 12.5l-114 118c-8 8.66699 -11.833 15 -11.5 19s6.5 6 18.5 6h65c7.33301 0 12.666 -1.5 15.999 -4.5s7.33301 -7.83301 12 -14.5z" />
    <glyph glyph-name="Oacute" unicode="&#xd3;" horiz-adv-x="683" 
d="M594 211c0 -36 -4.33398 -66.665 -13.001 -91.998s-20 -46.333 -34 -63s-30 -29.667 -48 -39s-36.167 -16.166 -54.5 -20.499s-36.333 -7 -54 -8s-33.167 -1.5 -46.5 -1.5c-23.333 0 -49.666 2 -78.999 6s-57 12.667 -83 26s-48 32.833 -66 58.5s-27 60.5 -27 104.5v275
c0 83.333 20.667 143.166 62 179.499s104.666 54.5 189.999 54.5c34.667 0 67.334 -3.66699 98.001 -11s57.5 -19.833 80.5 -37.5s41.167 -41.334 54.5 -71.001s20 -66.834 20 -111.501v-249zM481.999 453.002c0 51.333 -11.502 88.502 -34.502 111.502
s-56.833 34.5 -101.5 34.5c-27.333 0 -50.5 -3.16699 -69.5 -9.5s-34.167 -15.833 -45.5 -28.5s-19.5 -28.334 -24.5 -47.001s-7.5 -40.334 -7.5 -65.001v-242c0 -24 4.33301 -44.167 13 -60.5s19.834 -29.5 33.501 -39.5s29.167 -17.167 46.5 -21.5
s34.666 -6.5 51.999 -6.5c18.667 0 36.334 1.83301 53.001 5.5s31.334 10.667 44.001 21s22.667 25 30 44s11 43.833 11 74.5v229zM355.997 739.004c-4 -4.66699 -8.49805 -8.66699 -13.498 -12s-10.5 -5 -16.5 -5h-36c-15.333 0 -17.333 8 -6 24l86 119
c4.66699 6.66699 8.5 11.667 11.5 15s8.5 5 16.5 5h65c13.333 0 20.166 -2 20.499 -6s-3.83398 -10.667 -12.501 -20z" />
    <glyph glyph-name="Ocircumflex" unicode="&#xd4;" horiz-adv-x="683" 
d="M596 215c0 -54.667 -9.33398 -97.168 -28.001 -127.501s-41.167 -52.666 -67.5 -66.999s-53.833 -23 -82.5 -26s-53 -4.5 -73 -4.5c-23.333 0 -49.666 2 -78.999 6s-57 12.667 -83 26s-48 33 -66 59s-27 61 -27 105v274c0 83.333 20.667 143 62 179s105 54 191 54
c34 0 66.333 -3.66699 97 -11s57.5 -19.666 80.5 -36.999s41.333 -40.833 55 -70.5s20.5 -66.834 20.5 -111.501v-248zM481.999 455.999c0 50.667 -11.1699 87.667 -33.5029 111s-56.166 35 -101.499 35c-27.333 0 -50.5 -3.16699 -69.5 -9.5s-34.167 -15.833 -45.5 -28.5
s-19.5 -28.334 -24.5 -47.001s-7.5 -40 -7.5 -64v-243c0 -24 4.33301 -44.167 13 -60.5s19.834 -29.5 33.501 -39.5s29.167 -17.167 46.5 -21.5s34.666 -6.5 51.999 -6.5c18.667 0 36.334 1.83301 53.001 5.5s31.334 10.834 44.001 21.501s22.5 25.5 29.5 44.5
s10.5 43.833 10.5 74.5v228zM477.996 748.999c12 -16 10.001 -24 -5.99902 -24h-34c-5.33301 0 -9.66602 0.5 -12.999 1.5s-7 4.16699 -11 9.5l-66 88l-66 -88c-4.66699 -5.33301 -8.66699 -8.5 -12 -9.5s-7.33301 -1.5 -12 -1.5h-36c-15.333 0 -17 8 -5 24l86 119
c3.33301 5.33301 6.66602 10 9.99902 14s8.66602 6 15.999 6h36c8 0 13.667 -2 17 -6s7 -8.66699 11 -14z" />
    <glyph glyph-name="Otilde" unicode="&#xd5;" horiz-adv-x="683" 
d="M594 212c0 -36 -4.33496 -66.668 -13.002 -92.001s-20 -46.333 -34 -63s-30 -29.667 -48 -39s-36.167 -16.166 -54.5 -20.499s-36.333 -7 -54 -8s-33.167 -1.5 -46.5 -1.5c-23.333 0 -49.666 2 -78.999 6s-57 12.667 -83 26s-48 32.833 -66 58.5s-27 60.5 -27 104.5v275
c0 83.333 20.5 143 61.5 179s104.5 54 190.5 54c34.667 0 67.334 -3.66699 98.001 -11s57.5 -19.833 80.5 -37.5s41.167 -41.167 54.5 -70.5s20 -66.333 20 -111v-249zM481.998 453.999c0 51.333 -11.502 88.502 -34.502 111.502s-56.833 34.5 -101.5 34.5
c-27.333 0 -50.5 -3.16699 -69.5 -9.5s-34.167 -15.833 -45.5 -28.5s-19.5 -28.334 -24.5 -47.001s-7.5 -40.334 -7.5 -65.001v-242c0 -24 4.33301 -44.167 13 -60.5s19.834 -29.5 33.501 -39.5s29.167 -17.167 46.5 -21.5s34.666 -6.5 51.999 -6.5
c18.667 0 36.334 1.83301 53.001 5.5s31.334 10.667 44.001 21s22.667 25 30 44s11 43.833 11 74.5v229zM512.996 836.001c-13.333 -27.333 -28.8291 -49.6641 -46.4961 -66.9971s-38.834 -26 -63.501 -26c-10.667 0 -21.334 2.66699 -32.001 8s-21.167 11.166 -31.5 17.499
s-20.333 12.166 -30 17.499s-18.834 8 -27.501 8c-10.667 0 -20.834 -3.66699 -30.501 -11s-17.167 -15.666 -22.5 -24.999c-4 -6.66699 -8.66699 -8.33398 -14 -5.00098l-35 17c-4.66699 2.66699 -6 7 -4 13c4 8.66699 9.16699 18.167 15.5 28.5s13.833 19.833 22.5 28.5
s18.5 16 29.5 22s22.5 9 34.5 9c10.667 0 21.667 -2.83301 33 -8.5s22.5 -11.667 33.5 -18l32 -18c10.333 -5.66699 19.5 -8.5 27.5 -8.5c13.333 0 24.5 4 33.5 12s16.167 16.667 21.5 26c2.66699 6.66699 7 8.66699 13 6l38 -12
c5.33301 -2.66699 6.33301 -7.33398 3 -14.001z" />
    <glyph glyph-name="Odieresis" unicode="&#xd6;" horiz-adv-x="683" 
d="M593 213c0 -36 -4.33496 -66.668 -13.002 -92.001s-20 -46.333 -34 -63s-30 -29.667 -48 -39s-36.167 -16.166 -54.5 -20.499s-36.333 -7 -54 -8s-33.167 -1.5 -46.5 -1.5c-23.333 0 -49.666 2 -78.999 6s-57 12.667 -83 26s-48 32.833 -66 58.5s-27 60.5 -27 104.5v275
c0 83.333 20.5 143 61.5 179s104.5 54 190.5 54c34.667 0 67.334 -3.66699 98.001 -11s57.5 -19.833 80.5 -37.5s41.167 -41.167 54.5 -70.5s20 -66.333 20 -111v-249zM479.998 454.999c0 50.667 -11.332 87.6689 -33.999 111.002s-56.334 35 -101.001 35
c-27.333 0 -50.5 -3.16699 -69.5 -9.5s-34.167 -15.833 -45.5 -28.5s-19.5 -28.334 -24.5 -47.001s-7.5 -40.334 -7.5 -65.001v-242c0 -24 4.33301 -44.167 13 -60.5s19.834 -29.5 33.501 -39.5s29.167 -17.167 46.5 -21.5s34.666 -6.5 51.999 -6.5
c18.667 0 36.334 1.83301 53.001 5.5s31.167 10.667 43.5 21s22.166 25 29.499 44s11 43.833 11 74.5v229zM492.999 777.001c0 -7.33301 -1.00098 -13.334 -3.00098 -18.001s-7.66699 -7 -17 -7h-54c-13.333 0 -21.666 2.5 -24.999 7.5s-5 11.167 -5 18.5v55
c0 15.333 7 23 21 23h57c12 0 19.333 -1.66699 22 -5s4 -8.66602 4 -15.999v-58zM292.998 775c0 -7.33301 -1.33105 -12.999 -3.99805 -16.999s-8.33398 -6 -17.001 -6h-58c-10.667 0 -17.5 1.16699 -20.5 3.5s-4.5 7.16602 -4.5 14.499v60c0 7.33301 1.16699 13.5 3.5 18.5
s8.16602 7.5 17.499 7.5h59c10 0 16.5 -2.5 19.5 -7.5s4.5 -11.167 4.5 -18.5v-55z" />
    <glyph glyph-name="multiply" unicode="&#xd7;" horiz-adv-x="499" 
d="M370 117c-6 -6 -11.3311 -7.83203 -15.998 -5.49902s-10.667 7.16602 -18 14.499l-90 90l-92 -93c-7.33301 -7.33301 -13 -11.833 -17 -13.5s-8.66699 0.166016 -14 5.49902l-28 27c-6.66699 6.66699 -9 12.334 -7 17.001s6.66699 10.667 14 18l91 92l-95 95
c-5.33301 5.33301 -8.33301 9.66602 -9 12.999s1.33301 7.66602 6 12.999l26 26c7.33301 6.66699 12.666 9.33398 15.999 8.00098s8.33301 -5.33301 15 -12l92 -92l94 93c5.33301 5.33301 10.166 8.5 14.499 9.5s9.16602 -1.16699 14.499 -6.5l27 -26
c6.66699 -7.33301 9.33398 -12.666 8.00098 -15.999s-5.33301 -8.33301 -12 -15l-93 -92l92 -92c7.33301 -7.33301 12 -12.833 14 -16.5s0.333008 -8.16699 -5 -13.5l-28 -28v0z" />
    <glyph glyph-name="Oslash" unicode="&#xd8;" horiz-adv-x="683" 
d="M577 557c8.66699 0 12.666 -2.16797 11.999 -6.50098s-5.66699 -12.166 -15 -23.499l-46 -59c30.667 -46 46 -112.333 46 -199c0 -90.667 -21 -159.667 -63 -207s-100.333 -71 -175 -71c-30 0 -57.5 2.66699 -82.5 8s-47.167 14 -66.5 26
c-7.33301 -10 -13.333 -16.333 -18 -19s-10.667 -4 -18 -4h-44c-10.667 0 -16.667 2 -18 6s3.33398 12.667 14.001 26l32 41c-14.667 21.333 -25.667 47.833 -33 79.5s-11 69.5 -11 113.5c0 52 6 96.167 18 132.5s28.833 65.833 50.5 88.5s47.834 39.167 78.501 49.5
s65 15.5 103 15.5c55.333 0 100.666 -11.333 135.999 -34l7 9c8 11.333 14.667 18.833 20 22.5s14.333 5.5 27 5.5h46zM420.999 446.999c-20 20 -48 30 -84 30c-36.667 0 -67 -12.667 -91 -38s-36 -65.333 -36 -120v-98c0 -15.333 1 -30 3 -44zM459.999 323.999
c0 9.33301 -0.333008 18.001 -1 26.001s-1.66699 16 -3 24l-104 -135l-38.5 -50l-33.5 -43l-33 -42c11.333 -12.667 24.833 -21.834 40.5 -27.501s32.5 -8.5 50.5 -8.5c38 0 67.833 15 89.5 45s32.5 70 32.5 120v91z" />
    <glyph glyph-name="Ugrave" unicode="&#xd9;" horiz-adv-x="648" 
d="M565 213c0 -48.667 -7.83398 -87.667 -23.501 -117s-35.334 -51.833 -59.001 -67.5s-49.5 -26 -77.5 -31s-54.667 -7.5 -80 -7.5c-26 0 -53 3.16699 -81 9.5s-53.5 17.5 -76.5 33.5s-41.833 37.333 -56.5 64s-22 60 -22 100v462c0 15.333 5.33301 23.333 16 24h71
c8 0 13.833 -2.16699 17.5 -6.5s5.5 -12.5 5.5 -24.5v-420c0 -48 11.5 -84.833 34.5 -110.5s53.5 -38.5 91.5 -38.5c26 0 47.333 3.5 64 10.5s29.834 17 39.501 30s16.334 28.833 20.001 47.5s5.5 39.667 5.5 63v425c0 8.66699 1 14.667 3 18s6 5.33301 12 6h72
c8 0 14 -2.16699 18 -6.5s6 -12.5 6 -24.5v-439zM408.999 748c11.333 -15.333 9.66699 -23 -5 -23h-36c-6 0 -11.5 1.5 -16.5 4.5s-9.5 6.83301 -13.5 11.5l-115 120c-8 9.33301 -11.833 16 -11.5 20s6.83301 6 19.5 6h64c8 0 13.667 -1.66699 17 -5
s7.33301 -8.33301 12 -15z" />
    <glyph glyph-name="Uacute" unicode="&#xda;" horiz-adv-x="648" 
d="M566 213c0 -48.667 -7.83301 -87.667 -23.5 -117s-35.334 -51.833 -59.001 -67.5s-49.667 -26 -78 -31s-54.833 -7.5 -79.5 -7.5c-26.667 0 -54 3.16699 -82 9.5s-53.5 17.5 -76.5 33.5s-41.833 37.333 -56.5 64s-22 60 -22 100v462c0 9.33301 1.16699 15.5 3.5 18.5
s6.5 4.83301 12.5 5.5h71c8 0 14 -2 18 -6s6 -12 6 -24v-420c0 -48 11.5 -85 34.5 -111s53.5 -39 91.5 -39c26 0 47.167 3.5 63.5 10.5s29.333 17 39 30s16.334 29 20.001 48s5.5 40.167 5.5 63.5v424c0 9.33301 1.16699 15.5 3.5 18.5s6.5 4.83301 12.5 5.5h73
c8 0 13.833 -2 17.5 -6s5.5 -12 5.5 -24v-440zM336 742c-4 -4.66699 -8.49805 -8.66699 -13.498 -12s-10.5 -5 -16.5 -5h-36c-14.667 0 -16.667 8.33301 -6 25l86 118c4.66699 6.66699 8.5 11.667 11.5 15s8.5 5 16.5 5h65c13.333 0 20.166 -2 20.499 -6
s-3.83398 -10.667 -12.501 -20z" />
    <glyph glyph-name="Ucircumflex" unicode="&#xdb;" horiz-adv-x="648" 
d="M564 212c0 -48.667 -7.83398 -87.501 -23.501 -116.501s-35.167 -51.333 -58.5 -67s-49.166 -26 -77.499 -31s-54.833 -7.5 -79.5 -7.5c-26 0 -52.833 3.16699 -80.5 9.5s-53 17.333 -76 33s-41.833 36.834 -56.5 63.501s-22 60 -22 100v460
c0 15.333 5.33301 23.333 16 24h70c8 0 13.833 -2.16699 17.5 -6.5s5.5 -12.5 5.5 -24.5v-417c0 -48 11.667 -84.833 35 -110.5s53.666 -38.5 90.999 -38.5c26 0 47.167 3.5 63.5 10.5s29.333 17 39 30s16.334 28.833 20.001 47.5s5.5 39.667 5.5 63v422
c0 15.333 5.33301 23.333 16 24h72c8 0 13.833 -2.16699 17.5 -6.5s5.5 -12.5 5.5 -24.5v-437zM455.999 745.999c5.33301 -7.33301 7.83496 -13.333 7.50195 -18s-4.83301 -7 -13.5 -7h-34c-5.33301 0 -9.66602 0.5 -12.999 1.5s-7 4.5 -11 10.5l-66 87l-66 -87
c-4.66699 -6 -8.5 -9.5 -11.5 -10.5s-7.16699 -1.5 -12.5 -1.5h-35c-8 0 -12.167 2.33301 -12.5 7s2.16699 10.667 7.5 18l85 118c3.33301 5.33301 6.66602 10 9.99902 14s8.66602 6 15.999 6h37c7.33301 0 12.666 -2 15.999 -6s7 -8.66699 11 -14z" />
    <glyph glyph-name="Udieresis" unicode="&#xdc;" horiz-adv-x="648" 
d="M566 211c0 -49.333 -7.83496 -88.668 -23.502 -118.001s-35.334 -51.833 -59.001 -67.5s-49.667 -26 -78 -31s-55.166 -7.5 -80.499 -7.5c-26.667 0 -54 3.16699 -82 9.5s-53.5 17.5 -76.5 33.5s-41.833 37.333 -56.5 64s-22 60.334 -22 101.001v464
c0 9.33301 1 15.5 3 18.5s6 4.83301 12 5.5h71c8 0 14 -2 18 -6s6 -12.333 6 -25v-421c0 -48 11.667 -85.167 35 -111.5s54 -39.5 92 -39.5c26 0 47.333 3.5 64 10.5s29.834 17.167 39.501 30.5s16.334 29.5 20.001 48.5s5.5 40.167 5.5 63.5v426
c0 9.33301 1.16699 15.5 3.5 18.5s6.5 4.83301 12.5 5.5h73c8 0 13.833 -2 17.5 -6s5.5 -12.333 5.5 -25v-441zM480.998 778.998c0 -7.33301 -1.16895 -13.501 -3.50195 -18.501s-8.16602 -7.5 -17.499 -7.5h-54c-13.333 0 -21.666 2.5 -24.999 7.5s-5 11.167 -5 18.5v56
c0 15.333 7 23 21 23h58c11.333 0 18.5 -1.66699 21.5 -5s4.5 -8.66602 4.5 -15.999v-58zM279.996 776.997c0 -7.33301 -1.49805 -13.167 -4.49805 -17.5s-8.5 -6.5 -16.5 -6.5h-58c-11.333 0 -18.5 1.33301 -21.5 4s-4.5 7.66699 -4.5 15v60
c0 7.33301 1.16699 13.5 3.5 18.5s8.16602 7.5 17.499 7.5h60c9.33301 0 15.666 -2.5 18.999 -7.5s5 -11.167 5 -18.5v-55z" />
    <glyph glyph-name="Yacute" unicode="&#xdd;" horiz-adv-x="584" 
d="M554 658l-101.998 -189l-37.5 -70l-32.5 -60.5l-22.5 -42.5l-8.5 -16v-260c0 -13.333 -7.33301 -20 -22 -20h-73c-7.33301 -0 -12.166 1.33301 -14.499 4s-3.5 7.66699 -3.5 15v262l-208 383c-5.33301 8.66699 -6.33301 14 -3 16s8.66602 3 15.999 3h81
c6.66699 0 11.5 -1.33301 14.5 -4s6.83301 -8 11.5 -16l154 -286l76 144l77 143c4 6.66699 7.16699 11.5 9.5 14.5s8.16602 4.5 17.499 4.5h58c9.33301 0 15.166 -1.5 17.499 -4.5s0.5 -9.83301 -5.5 -20.5zM345.002 741c-4 -4.66699 -8.49805 -8.66699 -13.498 -12
s-10.5 -5 -16.5 -5h-36c-15.333 0 -17 8.33301 -5 25l85 119c4.66699 6.66699 8.5 11.667 11.5 15s8.5 5 16.5 5h66c13.333 0 20.166 -2 20.499 -6s-3.83398 -10.667 -12.501 -20z" />
    <glyph glyph-name="Thorn" unicode="&#xde;" horiz-adv-x="583" 
d="M168 0l-98 0.000976562v644h99v-104h111c77.333 0 136.166 -17.333 176.499 -52s60.5 -90.334 60.5 -167.001c0 -71.333 -19.833 -125.5 -59.5 -162.5s-94.834 -55.5 -165.501 -55.5h-26.5c-10.333 0 -21.166 0.166992 -32.499 0.5l-34 1
c-11.333 0.333008 -21.666 0.833008 -30.999 1.5v-106zM168 188.001c18 -1.33301 38.666 -2.16699 61.999 -2.5s42 -0.5 56 -0.5c48 0 83 11 105 33s33 56.667 33 104c0 50 -11.167 85.5 -33.5 106.5s-59.166 31.5 -110.499 31.5h-112v-272z" />
    <glyph glyph-name="germandbls" unicode="&#xdf;" horiz-adv-x="602" 
d="M586 130c0 -26 -5.33496 -47.9971 -16.002 -65.9971s-24.5 -32.5 -41.5 -43.5s-36.167 -19 -57.5 -24s-42.333 -7.5 -63 -7.5c-46 0 -80.833 3.66699 -104.5 11s-40.167 13.666 -49.5 18.999c-2.66699 0.666992 -4.33398 5.16699 -5.00098 13.5s-0.5 17 0.5 26
s3 16.833 6 23.5s6.83301 9 11.5 7c4.66699 -1.33301 9.83398 -3.33301 15.501 -6s13 -5.33398 22 -8.00098s20 -4.83398 33 -6.50098s28.5 -2.5 46.5 -2.5c30 0 53.333 5.83301 70 17.5s25 28.167 25 49.5c0 17.333 -8.16699 34.166 -24.5 50.499s-39.5 32.5 -69.5 48.5
c-18 9.33301 -35 18.666 -51 27.999s-30.167 19.833 -42.5 31.5s-22.166 24.667 -29.499 39s-11 30.833 -11 49.5c0 15.333 3.66699 29.5 11 42.5s15.5 25.833 24.5 38.5s17.333 25.334 25 38.001s11.5 26.667 11.5 42c0 24.667 -7.33301 43 -22 55s-32.667 18 -54 18
c-24 0 -42 -8.16699 -54 -24.5s-18 -36.166 -18 -59.499v-500c0 -20.667 -7.33301 -31 -22 -31h-59c-7.33301 0 -13.5 1.83301 -18.5 5.5s-7.5 9.83398 -7.5 18.501v391h-49c-8 0 -13.333 1.33301 -16 4s-4 7.66699 -4 15v32c0 13.333 5 20 15 20h50v61
c0 16.667 3.16699 33.5 9.5 50.5s16.666 32.5 30.999 46.5s33 25.333 56 34s51.167 13 84.5 13c52.667 0 95.334 -11.667 128.001 -35s49 -58 49 -104c0 -18 -3.33301 -33.667 -10 -47s-14 -25.666 -22 -36.999s-15.333 -23 -22 -35s-10 -25.667 -10 -41
c0 -17.333 8.33301 -33 25 -47s36.667 -27.333 60 -40c20 -10.667 38.833 -21.834 56.5 -33.501s32.834 -24.5 45.501 -38.5s22.667 -29.333 30 -46s11 -35.334 11 -56.001z" />
    <glyph glyph-name="agrave" unicode="&#xe0;" horiz-adv-x="476" 
d="M424 33c0 -11.333 -0.998047 -19.666 -2.99805 -24.999s-7.66699 -8 -17 -8h-53c-6 0 -10.833 1.33301 -14.5 4s-5.5 9.33398 -5.5 20.001v36c-4 -9.33301 -10.333 -18 -19 -26s-18.834 -15.333 -30.501 -22s-24.667 -11.834 -39 -15.501s-29.5 -5.5 -45.5 -5.5
c-20.667 0 -40 4.16699 -58 12.5s-33.833 21.833 -47.5 40.5s-24.5 42.667 -32.5 72s-12 64.666 -12 105.999c0 74 12.667 132.167 38 174.5s62 63.5 110 63.5c36 0 64.667 -6 86 -18s38 -28.667 50 -50v36c0 14 5 21 15 21h54c11.333 0 18.166 -1.83301 20.499 -5.5
s3.5 -10.167 3.5 -19.5v-391zM325.002 291c0 9.33301 -1.66797 19.999 -5.00098 31.999s-8.66602 23.5 -15.999 34.5s-16.833 20.333 -28.5 28s-25.5 11.5 -41.5 11.5c-28.667 0 -50.5 -10.667 -65.5 -32s-22.5 -56.666 -22.5 -105.999v-71
c0 -41.333 7.33301 -73.833 22 -97.5s37 -35.5 67 -35.5c14 0 26.5 3.16699 37.5 9.5s20.5 14 28.5 23s14 18.167 18 27.5s6 17 6 23v153zM316.001 518.999c10 -14 8.66797 -21 -3.99902 -21h-33c-9.33301 0 -18 5 -26 15l-103 108c-7.33301 7.33301 -10.833 13 -10.5 17
s6.16602 6 17.499 6h58c7.33301 0 12.5 -1.5 15.5 -4.5s6.16699 -7.5 9.5 -13.5z" />
    <glyph glyph-name="aacute" unicode="&#xe1;" horiz-adv-x="476" 
d="M422 33c0 -11.333 -0.998047 -19.6699 -2.99805 -25.0029s-7.66699 -8 -17 -8h-53c-6 0 -10.833 1.33301 -14.5 4s-5.5 9.33398 -5.5 20.001v35c-4 -8.66699 -10.333 -17.167 -19 -25.5s-18.834 -15.666 -30.501 -21.999s-24.667 -11.333 -39 -15s-29.5 -5.5 -45.5 -5.5
c-20 0 -39.167 4.16699 -57.5 12.5s-34.166 21.833 -47.499 40.5s-24 42.5 -32 71.5s-12 64.167 -12 105.5c0 74 12.667 132.167 38 174.5s62 63.5 110 63.5c35.333 0 63.666 -6.16699 84.999 -18.5s38 -29.166 50 -50.499v37c0 14 5 21 15 21h54
c11.333 0 18.166 -2 20.499 -6s3.5 -10.333 3.5 -19v-390zM323.002 289.996c0 9.33301 -1.66797 19.999 -5.00098 31.999s-8.66602 23.5 -15.999 34.5s-16.833 20.333 -28.5 28s-25.5 11.5 -41.5 11.5c-28.667 0 -50.5 -10.667 -65.5 -32s-22.5 -56.666 -22.5 -105.999v-70
c0 -41.333 7.5 -74 22.5 -98s37.5 -36 67.5 -36c14 0 26.5 3.16699 37.5 9.5s20.333 14 28 23s13.5 18.333 17.5 28s6 17.5 6 23.5v152zM261.001 510.995c-4 -4 -8.16699 -7.5 -12.5 -10.5s-9.16602 -4.5 -14.499 -4.5h-31c-13.333 0 -15 7.33301 -5 22l76 106
c4 6 7.33301 10.5 10 13.5s7.66699 4.5 15 4.5h58c11.333 0 17.166 -2 17.499 -6s-3.16699 -9.66699 -10.5 -17z" />
    <glyph glyph-name="acircumflex" unicode="&#xe2;" horiz-adv-x="476" 
d="M423 33c0 -11.333 -1.16602 -19.6699 -3.49902 -25.0029s-8.16602 -8 -17.499 -8h-52c-6.66699 0 -11.667 1.33301 -15 4s-5 9.33398 -5 20.001v35c-4 -8.66699 -10.333 -17.167 -19 -25.5s-18.834 -15.666 -30.501 -21.999s-24.667 -11.333 -39 -15
s-29.5 -5.5 -45.5 -5.5c-20.667 0 -40 4.16699 -58 12.5s-33.833 21.833 -47.5 40.5s-24.5 42.5 -32.5 71.5s-12 64.167 -12 105.5c0 74 12.667 132.333 38 175s62 64 110 64c36 0 64.667 -6.16699 86 -18.5s38 -29.166 50 -50.499v37c0 6 1.16699 11 3.5 15
s6.16602 6 11.499 6h53c12 0 19.167 -2 21.5 -6s3.5 -10.667 3.5 -20v-390zM323.001 290.996c0 8.66699 -1.66699 19.167 -5 31.5s-8.66602 24 -15.999 35s-16.833 20.333 -28.5 28s-25.834 11.5 -42.501 11.5c-28 0 -49.333 -10.667 -64 -32s-22 -57 -22 -107v-70
c0 -40.667 7.33301 -73.167 22 -97.5s36.667 -36.5 66 -36.5c14 0 26.667 3.33301 38 10s20.833 14.5 28.5 23.5s13.5 18.333 17.5 28s6 17.5 6 23.5v152zM368.001 518.996c10.667 -14.667 9 -22 -5 -22h-31c-5.33301 0 -9.33301 0.333008 -12 1s-5.66699 3.66699 -9 9
l-60 78l-58 -78c-4 -5.33301 -7.5 -8.33301 -10.5 -9s-6.83301 -1 -11.5 -1h-31c-14 0 -15.667 7.33301 -5 22l75 106c3.33301 5.33301 6.5 9.66602 9.5 12.999s7.83301 5 14.5 5h33c7.33301 0 12.5 -1.66699 15.5 -5s6.16699 -7.66602 9.5 -12.999z" />
    <glyph glyph-name="atilde" unicode="&#xe3;" horiz-adv-x="476" 
d="M425 33c0 -11.333 -0.998047 -19.668 -2.99805 -25.001s-7.66699 -8 -17 -8h-54c-6 0 -10.833 1.33301 -14.5 4s-5.5 9.33398 -5.5 20.001v36c-8.66699 -18 -25.167 -34 -49.5 -48s-52.5 -21 -84.5 -21c-20.667 0 -40 4.16699 -58 12.5s-33.833 21.833 -47.5 40.5
s-24.5 42.5 -32.5 71.5s-12 64.167 -12 105.5c0 74.667 12.667 133.5 38 176.5s62 64.5 110 64.5c36 0 64.667 -6.33301 86 -19s38 -29.667 50 -51v37c0 6 1.16699 11 3.5 15s6.16602 6 11.499 6h55c11.333 0 18.166 -2 20.499 -6s3.5 -10.333 3.5 -19v-392z
M324.002 290.998c0 9.33301 -1.66699 20.167 -5 32.5s-8.66602 24 -15.999 35s-16.833 20.333 -28.5 28s-25.834 11.5 -42.501 11.5c-28 0 -49.333 -10.833 -64 -32.5s-22 -57.5 -22 -107.5v-70c0 -40.667 7.33301 -73 22 -97s36.667 -36 66 -36c14 0 26.667 3.33301 38 10
s20.833 14.5 28.5 23.5s13.5 18.167 17.5 27.5s6 17 6 23v152zM398.002 598.999c-12 -24 -26.1641 -43.833 -42.4971 -59.5s-35.5 -23.5 -57.5 -23.5c-10 0 -19.833 2.33301 -29.5 7s-19 10 -28 16s-17.833 11.333 -26.5 16s-16.667 7 -24 7
c-9.33301 0 -18.5 -3.33301 -27.5 -10s-15.833 -14 -20.5 -22c-2 -4 -3.83301 -6.16699 -5.5 -6.5s-3.83398 0.166992 -6.50098 1.5l-31 16c-4.66699 2 -6 5.66699 -4 11c3.33301 8 8 16.5 14 25.5s13 17.5 21 25.5s16.667 14.667 26 20s19.666 8 30.999 8
c8.66699 0 18 -2.5 28 -7.5s20 -10.5 30 -16.5s19.667 -11.5 29 -16.5s17.666 -7.5 24.999 -7.5c12 0 22 3.66699 30 11s14.667 15.333 20 24c2 6 5.66699 7.66699 11 5l35 -11c5.33301 -2.66699 6.33301 -7 3 -13z" />
    <glyph glyph-name="adieresis" unicode="&#xe4;" horiz-adv-x="476" 
d="M424 33c0 -11.333 -1.16602 -19.668 -3.49902 -25.001s-8.16602 -8 -17.499 -8h-52c-6.66699 0 -11.834 1.33301 -15.501 4s-5.5 9.66699 -5.5 21v35c-8 -18 -24.333 -34 -49 -48s-53.334 -21 -86.001 -21c-20.667 0 -40 4.33301 -58 13s-33.833 22.334 -47.5 41.001
s-24.5 42.667 -32.5 72s-12 64.666 -12 105.999c0 74 12.667 132.333 38 175s62.333 64 111 64c36 0 64.667 -6.16699 86 -18.5s38 -29.166 50 -50.499v37c0 14 5 21 15 21h54c12 0 19.167 -2 21.5 -6s3.5 -10.333 3.5 -19v-393zM324.001 291.998
c0 9.33301 -1.66699 20.167 -5 32.5s-8.66602 24 -15.999 35s-16.833 20.333 -28.5 28s-25.834 11.5 -42.501 11.5c-28.667 0 -50.5 -10.667 -65.5 -32s-22.5 -57 -22.5 -107v-71c0 -40.667 7.5 -73.167 22.5 -97.5s37.5 -36.5 67.5 -36.5c14 0 26.5 3.33301 37.5 10
s20.5 14.5 28.5 23.5s14 18.333 18 28s6 17.5 6 23.5v152zM382.001 546.999c0 -6 -1.16797 -11.167 -3.50098 -15.5s-7.5 -6.5 -15.5 -6.5h-49c-11.333 0 -18.5 2.16699 -21.5 6.5s-4.5 9.83301 -4.5 16.5v50c0 14 6 21 18 21h52c10.667 0 17.334 -1.33301 20.001 -4
s4 -7.66699 4 -15v-53zM202 545.999c0 -6.66699 -1.33301 -11.833 -4 -15.5s-7.66699 -5.5 -15 -5.5h-52c-10 0 -16.333 1 -19 3s-4 6.66699 -4 14v53c0 7.33301 1 13.166 3 17.499s7 6.5 15 6.5h54c9.33301 0 15.333 -2.16699 18 -6.5s4 -10.166 4 -17.499v-49z" />
    <glyph glyph-name="aring" unicode="&#xe5;" horiz-adv-x="476" 
d="M425 33c0 -11.333 -0.999023 -19.668 -2.99902 -25.001s-7.66699 -8 -17 -8h-54c-6 0 -10.833 1.33301 -14.5 4s-5.5 9.33398 -5.5 20.001v36c-8.66699 -18 -25.167 -34 -49.5 -48s-52.5 -21 -84.5 -21c-20.667 0 -40 4.16699 -58 12.5s-33.833 21.833 -47.5 40.5
s-24.5 42.667 -32.5 72s-12 64.666 -12 105.999c0 74.667 12.667 133.334 38 176.001s62 64 110 64c36 0 64.667 -6.33301 86 -19s38 -29.667 50 -51v37c0 14 5 21 15 21h55c11.333 0 18.166 -2 20.499 -6s3.5 -10.333 3.5 -19v-392zM324.001 290.998
c0 9.33301 -1.66797 20.168 -5.00098 32.501s-8.66602 24 -15.999 35s-16.833 20.333 -28.5 28s-25.5 11.5 -41.5 11.5c-28 0 -49.5 -10.833 -64.5 -32.5s-22.5 -57.5 -22.5 -107.5v-70c0 -40.667 7.33301 -73 22 -97s37 -36 67 -36c14 0 26.5 3.33301 37.5 10
s20.333 14.5 28 23.5s13.5 18.167 17.5 27.5s6 16.666 6 21.999v153zM351 591c0 -13.333 -2.66699 -25.833 -8 -37.5s-12.5 -21.834 -21.5 -30.501s-19.667 -15.5 -32 -20.5s-25.166 -7.5 -38.499 -7.5s-26 2.5 -38 7.5s-22.5 11.833 -31.5 20.5
s-16.167 18.834 -21.5 30.501s-8 24.167 -8 37.5s2.66699 26 8 38s12.5 22.333 21.5 31s19.5 15.5 31.5 20.5s24.667 7.5 38 7.5s26.166 -2.5 38.499 -7.5s23 -11.833 32 -20.5s16.167 -19 21.5 -31s8 -24.667 8 -38zM303 591c0 13.333 -4.83301 25.666 -14.5 36.999
s-22.167 17 -37.5 17c-14 0 -25.833 -5.66699 -35.5 -17s-14.5 -23.666 -14.5 -36.999s4.66699 -25.666 14 -36.999s21.333 -17 36 -17s27 5.66699 37 17s15 23.666 15 36.999z" />
    <glyph glyph-name="ae" unicode="&#xe6;" horiz-adv-x="710" 
d="M680 235c0 -12.667 -1.83398 -21.833 -5.50098 -27.5s-13.167 -8.5 -28.5 -8.5h-248c0 -48 11.167 -83 33.5 -105s53.5 -33 93.5 -33c34 0 61 2.5 81 7.5s34 8.83301 42 11.5c15.333 6 23 3.33301 23 -8v-42c0 -7.33301 -1.83301 -12.5 -5.5 -15.5
s-11.167 -6.16699 -22.5 -9.5c-2.66699 -1.33301 -8.33398 -2.66602 -17.001 -3.99902l-30 -4.5c-11.333 -1.66699 -23.666 -3 -36.999 -4s-26.333 -1.5 -39 -1.5c-52 0 -94 8.66699 -126 26c-1.33301 -5.33301 -3.16602 -9.5 -5.49902 -12.5s-6.83301 -4.5 -13.5 -4.5h-44
c-6.66699 0 -11.667 1.33301 -15 4s-5 9.66699 -5 21v35c-8.66699 -18 -25.334 -34 -50.001 -48s-53.334 -21 -86.001 -21c-20 0 -39.167 4.16699 -57.5 12.5s-34.166 21.833 -47.499 40.5s-24 42.667 -32 72s-12 64.666 -12 105.999c0 74 12.5 132.333 37.5 175
s61.5 64 109.5 64c36 0 65 -6.33301 87 -19s39 -29.667 51 -51v37c0 14 5 21 15 21h45c8 0 13.5 -0.833008 16.5 -2.5s5.16699 -4.5 6.5 -8.5c28.667 15.333 63 23 103 23c58.667 0 103.834 -14.667 135.501 -44s47.5 -73.333 47.5 -132v-50zM589.999 274.001
c-1.33301 40.667 -8.83105 72.001 -22.498 94.001s-37.834 33 -72.501 33c-16.667 0 -31 -3.33301 -43 -10s-21.833 -15.834 -29.5 -27.501s-13.334 -25.167 -17.001 -40.5s-5.5 -31.333 -5.5 -48c0 -6 0.5 -10.333 1.5 -13s4.16699 -4 9.5 -4h170c4 0 6.5 1.16699 7.5 3.5
s1.5 6.5 1.5 12.5zM304.001 292.002c0 9.33301 -1.66602 19.999 -4.99902 31.999s-8.66602 23.5 -15.999 34.5s-16.833 20.167 -28.5 27.5s-25.834 11 -42.501 11c-28.667 0 -50.334 -10.667 -65.001 -32s-22 -56.666 -22 -105.999v-70c0 -40.667 7.33301 -73.167 22 -97.5
s37 -36.5 67 -36.5c14 0 26.667 3.16699 38 9.5s20.833 14 28.5 23s13.5 18.167 17.5 27.5s6 17 6 23v154z" />
    <glyph glyph-name="ccedilla" unicode="&#xe7;" horiz-adv-x="417" 
d="M383 82c-13.333 -24.667 -31.501 -44.3359 -54.501 -59.0029s-51.5 -23 -85.5 -25v-24c20 0 36.333 -5.16699 49 -15.5s19 -26.166 19 -47.499c0 -22.667 -9 -39.667 -27 -51s-40.333 -17 -67 -17c-16.667 0 -30 2 -40 6s-19.667 11.333 -29 22
c-2 2.66699 -2.16699 5.83398 -0.5 9.50098s4 7.16699 7 10.5s6.33301 5.83301 10 7.5s6.16699 1.83398 7.5 0.500977c3.33301 -5.33301 8.66602 -9.66602 15.999 -12.999s15.666 -5 24.999 -5c13.333 0 24.5 2.16699 33.5 6.5s13.5 12.166 13.5 23.499
c0 12 -3.66699 20 -11 24s-17.333 6 -30 6h-14c-3.33301 -0.666992 -5.5 -1 -6.5 -1s-1.5 1.33301 -1.5 4v55c-26 2 -49.167 7.5 -69.5 16.5s-37.5 22.167 -51.5 39.5s-24.667 39.5 -32 66.5s-11 59.833 -11 98.5c0 42 4.83301 77.667 14.5 107s23.334 53 41.001 71
s38.834 31.167 63.501 39.5s52.334 12.5 83.001 12.5c34 0 63 -4.66699 87 -14s44 -24.666 60 -45.999c2.66699 -4 1.16699 -9.33301 -4.5 -16s-12.667 -12.834 -21 -18.501s-16.5 -10 -24.5 -13s-13 -2.83301 -15 0.5c-8 13.333 -18.5 24.166 -31.5 32.499
s-30.167 12.5 -51.5 12.5c-30 0 -54.667 -10.167 -74 -30.5s-29 -52.5 -29 -96.5v-79c0 -43.333 10 -74.5 30 -93.5s44.333 -28.5 73 -28.5c18 0 33.833 4.83301 47.5 14.5s25.167 21.834 34.5 36.501c2 4 6.83301 5.33301 14.5 4s15.667 -3.83301 24 -7.5s15.5 -8 21.5 -13
s8.33301 -9.16699 7 -12.5z" />
    <glyph glyph-name="egrave" unicode="&#xe8;" horiz-adv-x="459" 
d="M413 234c0 -12 -1.8291 -20.834 -5.49609 -26.501s-13.167 -8.5 -28.5 -8.5h-245c0 -48 11 -82.5 33 -103.5s52.333 -31.5 91 -31.5c34 0 61.167 2.33301 81.5 7s34.166 8.33398 41.499 11.001c15.333 6 23 3.66699 23 -7v-41c0 -7.33301 -1.83301 -12.5 -5.5 -15.5
s-10.834 -6.16699 -21.501 -9.5c-2.66699 -1.33301 -8.33398 -2.83301 -17.001 -4.5s-18.834 -3.16699 -30.501 -4.5s-24.167 -2.5 -37.5 -3.5s-26 -1.5 -38 -1.5c-70.667 0 -124 17.333 -160 52s-54 92.667 -54 174c0 80.667 16.167 140.667 48.5 180s79.833 59 142.5 59
c58 0 102.833 -15 134.5 -45s47.5 -73.333 47.5 -130v-51zM322.004 275.999c-0.666992 40.667 -7.83203 71.5 -21.499 92.5s-37.5 31.5 -71.5 31.5c-16.667 0 -30.834 -3.16699 -42.501 -9.5s-21.167 -15.166 -28.5 -26.499s-12.833 -24.5 -16.5 -39.5
s-5.5 -30.833 -5.5 -47.5c0 -5.33301 0.333008 -9.33301 1 -12s4 -4 10 -4h166c4 0 6.5 1.16699 7.5 3.5s1.5 6.16602 1.5 11.499zM296.006 517.999c10 -14 8.33105 -21 -5.00195 -21h-32c-5.33301 0 -10.166 1.5 -14.499 4.5s-8.16602 6.16699 -11.499 9.5l-102 107
c-7.33301 7.33301 -11 13 -11 17s5.66699 6 17 6h58c6.66699 0 11.5 -1.5 14.5 -4.5s6.5 -7.16699 10.5 -12.5z" />
    <glyph glyph-name="eacute" unicode="&#xe9;" horiz-adv-x="459" 
d="M415 235c0 -12.667 -1.83301 -21.834 -5.5 -27.501s-13.167 -8.5 -28.5 -8.5h-245c0 -48 11 -82.5 33 -103.5s52.667 -31.5 92 -31.5c34 0 60.833 2.5 80.5 7.5s33.167 8.83301 40.5 11.5c8 3.33301 14 4 18 2s6 -5.33301 6 -10v-41
c0 -7.33301 -1.83301 -12.5 -5.5 -15.5s-11.167 -6.16699 -22.5 -9.5c-2.66699 -1.33301 -8.16699 -2.66602 -16.5 -3.99902s-18.333 -2.83301 -30 -4.5s-24 -3 -37 -4s-25.833 -1.5 -38.5 -1.5c-70.667 0 -124 17.333 -160 52s-54 93 -54 175
c0 79.333 16.167 138.833 48.5 178.5s79.833 59.5 142.5 59.5c58 0 102.833 -15.167 134.5 -45.5s47.5 -73.5 47.5 -129.5v-50zM325 277c-1.33301 40 -8.66797 70.501 -22.001 91.501s-37.333 31.5 -72 31.5c-16.667 0 -30.667 -3.33301 -42 -10
s-20.666 -15.5 -27.999 -26.5s-12.833 -23.833 -16.5 -38.5s-5.5 -30.334 -5.5 -47.001c0 -6 0.333008 -10.167 1 -12.5s4 -3.5 10 -3.5h166c4 0 6.5 1 7.5 3s1.5 6 1.5 12zM241.998 512.001c-8 -10 -16.666 -15 -25.999 -15h-32c-12.667 0 -14.334 7 -5.00098 21l76 105
c4 6 7.33301 10.5 10 13.5s7.66699 4.5 15 4.5h57c12 0 18.167 -2 18.5 -6s-3.16699 -9.66699 -10.5 -17z" />
    <glyph glyph-name="ecircumflex" unicode="&#xea;" horiz-adv-x="459" 
d="M416 235c0 -12 -1.83105 -21.002 -5.49805 -27.002s-13.167 -9 -28.5 -9h-246c0 -48 11.167 -82.5 33.5 -103.5s52.833 -31.5 91.5 -31.5c34 0 61.167 2.33301 81.5 7s34.166 8.33398 41.499 11.001c15.333 6 23 3.66699 23 -7v-41c0 -7.33301 -1.83301 -12.5 -5.5 -15.5
s-11.167 -6.16699 -22.5 -9.5c-2.66699 -1.33301 -8.33398 -2.66602 -17.001 -3.99902l-30 -4.5c-11.333 -1.66699 -23.666 -3 -36.999 -4s-26 -1.5 -38 -1.5c-71.333 0 -125 17.333 -161 52s-54 93 -54 175c0 80 16.167 139.833 48.5 179.5s80.166 59.5 143.499 59.5
c57.333 0 102 -15.333 134 -46s48 -73.667 48 -129v-51zM325.002 276.998c-1.33301 40 -8.66504 70.668 -21.998 92.001s-37 32 -71 32c-16.667 0 -30.834 -3.33301 -42.501 -10s-21.334 -15.5 -29.001 -26.5s-13.167 -24 -16.5 -39s-5 -30.833 -5 -47.5
c0 -6 0.333008 -10.167 1 -12.5s3.66699 -3.5 9 -3.5h167c4 0 6.5 1.16699 7.5 3.5s1.5 6.16602 1.5 11.499zM353.003 518.999c5.33301 -6.66699 7.66602 -12 6.99902 -16s-4.66699 -6 -12 -6h-30c-4.66699 0 -8.5 0.333008 -11.5 1s-6.16699 3.66699 -9.5 9l-59 79l-59 -79
c-4 -5.33301 -7.5 -8.33301 -10.5 -9s-6.5 -1 -10.5 -1h-32c-7.33301 0 -11.166 2 -11.499 6s2.16699 9.33301 7.5 16l76 106c3.33301 4.66699 6.33301 8.66699 9 12s7 5 13 5h34c7.33301 0 12.333 -1.66699 15 -5l10 -12z" />
    <glyph glyph-name="edieresis" unicode="&#xeb;" horiz-adv-x="459" 
d="M416 234c0 -12.667 -1.83203 -21.835 -5.49902 -27.502s-13.167 -8.5 -28.5 -8.5h-247c0 -48 11.167 -82.667 33.5 -104s53.166 -32 92.499 -32c34 0 61.167 2.5 81.5 7.5s34.166 8.83301 41.499 11.5c7.33301 3.33301 13 4 17 2s6 -5.33301 6 -10v-41
c0 -7.33301 -1.83301 -12.5 -5.5 -15.5s-10.834 -6.16699 -21.501 -9.5c-3.33301 -1.33301 -9.16602 -2.66602 -17.499 -3.99902s-18.333 -2.83301 -30 -4.5s-24.167 -3 -37.5 -4s-26 -1.5 -38 -1.5c-71.333 0 -125.166 17.333 -161.499 52s-54.5 93.334 -54.5 176.001
c0 80.667 16.167 140.667 48.5 180s80.166 59 143.499 59c58.667 0 103.834 -15 135.501 -45s47.5 -73 47.5 -129v-52zM326.001 276.999c-1.33301 40 -8.83008 70.668 -22.4971 92.001s-37.5 32 -71.5 32c-16.667 0 -30.834 -3.33301 -42.501 -10
s-21.334 -15.667 -29.001 -27s-13.334 -24.333 -17.001 -39s-5.5 -30.334 -5.5 -47.001c0 -6 0.333008 -10.333 1 -13s4 -4 10 -4h168c4 0 6.5 1.33301 7.5 4s1.5 6.66699 1.5 12zM372.004 546c0 -6.66699 -1.16895 -12.166 -3.50195 -16.499s-7.16602 -6.5 -14.499 -6.5
h-48c-11.333 0 -18.666 2.16699 -21.999 6.5s-5 10.166 -5 17.499v48c0 14 6.33301 21 19 21h52c9.33301 0 15.333 -1.33301 18 -4s4 -7.66699 4 -15v-51zM194.002 544.001c0 -6.66699 -1.33301 -11.833 -4 -15.5s-7.66699 -5.5 -15 -5.5h-52c-9.33301 0 -15.333 1 -18 3
s-4 6.66699 -4 14v52c0 7.33301 1 13.166 3 17.499s7 6.5 15 6.5h53c9.33301 0 15.333 -2.16699 18 -6.5s4 -10.166 4 -17.499v-48z" />
    <glyph glyph-name="igrave" unicode="&#xec;" horiz-adv-x="218" 
d="M156 29c0 -10.667 -0.833984 -18.167 -2.50098 -22.5s-6.5 -6.5 -14.5 -6.5h-58c-7.33301 0 -12.166 2.16699 -14.499 6.5s-3.5 11.833 -3.5 22.5v396c0 8.66699 1.16699 15 3.5 19s7.83301 6 16.5 6h53c10 0 15.833 -1.83301 17.5 -5.5s2.5 -10.167 2.5 -19.5v-396z
M139.999 521c10 -14 8.66699 -21 -4 -21h-33c-9.33301 0 -18 5 -26 15l-104 108c-7.33301 7.33301 -11 13 -11 17s5.66699 6 17 6h59c7.33301 0 12.5 -1.5 15.5 -4.5s6.5 -7.5 10.5 -13.5z" />
    <glyph glyph-name="iacute" unicode="&#xed;" horiz-adv-x="218" 
d="M153 28c0 -10.667 -0.833984 -18.167 -2.50098 -22.5s-6.5 -6.5 -14.5 -6.5h-58c-7.33301 0 -12.166 2.16699 -14.499 6.5s-3.5 11.833 -3.5 22.5v397c0 8.66699 1.16699 15 3.5 19s7.83301 6 16.5 6h53c10 0 15.833 -1.83301 17.5 -5.5s2.5 -10.167 2.5 -19.5v-397z
M139.999 516c-3.33301 -4.66699 -7.16797 -8.5 -11.501 -11.5s-9.16602 -4.5 -14.499 -4.5h-33c-13.333 0 -15 7.33301 -5 22l77 107c4.66699 6 8.33398 10.5 11.001 13.5s7.66699 4.5 15 4.5h59c11.333 0 17.166 -2 17.499 -6s-3.16699 -9.66699 -10.5 -17z" />
    <glyph glyph-name="icircumflex" unicode="&#xee;" horiz-adv-x="218" 
d="M155 29c0 -10.667 -0.833984 -18.167 -2.50098 -22.5s-6.5 -6.5 -14.5 -6.5h-59c-7.33301 0 -12.166 2.16699 -14.499 6.5s-3.5 11.833 -3.5 22.5v397c0 8.66699 1.33301 15 4 19s8 6 16 6h54c10 0 15.833 -1.83301 17.5 -5.5s2.5 -10.167 2.5 -19.5v-397zM226.999 523
c10.667 -14.667 8.99902 -22 -5.00098 -22h-31c-5.33301 0 -9.33301 0.333008 -12 1s-6 3.66699 -10 9l-60 78l-59 -78c-4.66699 -5.33301 -8.5 -8.33301 -11.5 -9s-6.5 -1 -10.5 -1h-32c-13.333 0 -14.666 7.33301 -3.99902 22l76 106
c3.33301 5.33301 6.5 9.83301 9.5 13.5s7.5 5.5 13.5 5.5h35c7.33301 0 12.333 -1.83301 15 -5.5l10 -13.5z" />
    <glyph glyph-name="idieresis" unicode="&#xef;" horiz-adv-x="218" 
d="M156 29c0 -11.333 -0.833008 -19 -2.5 -23s-6.16699 -6 -13.5 -6h-60c-7.33301 0 -12 2 -14 6s-3 11.667 -3 23v396c0 8.66699 1.16699 15 3.5 19s7.83301 6 16.5 6h53c10 0 15.833 -1.83301 17.5 -5.5s2.5 -10.167 2.5 -19.5v-396zM245 547
c0 -6.66699 -1 -12.166 -3 -16.499s-7 -6.5 -15 -6.5h-48c-12 0 -19.5 2.16699 -22.5 6.5s-4.5 10.166 -4.5 17.499v49c0 14 6 21 18 21h52c10.667 0 17.167 -1.33301 19.5 -4s3.5 -7.66699 3.5 -15v-52zM65 545.001c0 -6 -1.33398 -11 -4.00098 -15s-7.66699 -6 -15 -6h-52
c-9.33301 0 -15.333 1.16699 -18 3.5s-4 6.83301 -4 13.5v53c0 7.33301 1 13.166 3 17.499s7 6.5 15 6.5h54c8.66699 0 14.334 -2.16699 17.001 -6.5s4 -10.166 4 -17.499v-49z" />
    <glyph glyph-name="eth" unicode="&#xf0;" horiz-adv-x="496" 
d="M460 235c0 -79.333 -18.3301 -139.837 -54.9971 -181.504s-87.667 -62.5 -153 -62.5c-34 0 -64.333 3.83301 -91 11.5s-49.167 20.834 -67.5 39.501s-32.333 43.667 -42 75s-14.5 70.333 -14.5 117c0 81.333 20 142 60 182s93 60 159 60c16 0 32.667 -3 50 -9
s31.666 -14.667 42.999 -26c-8.66699 19.333 -18.334 37.333 -29.001 54s-22.334 32 -35.001 46l-28 -28c-6 -6 -10.167 -9.16699 -12.5 -9.5s-5.83301 1.83398 -10.5 6.50098l-28 28c-4.66699 4.66699 -5.83398 8 -3.50098 10s7.16602 6.66699 14.499 14l23 25
c-5.33301 4.66699 -10.833 9.16699 -16.5 13.5l-16.5 12.5c-3.33301 2.66699 -6.66602 6.33398 -9.99902 11.001s-1.66602 10.334 5.00098 17.001l37 43c4 4.66699 8.16699 5 12.5 1s8.5 -7.66699 12.5 -11c6 -4.66699 11.833 -9.5 17.5 -14.5l16.5 -14.5l20 20
c8.66699 8 14.334 12.667 17.001 14s5.66699 0.333008 9 -3l29 -30c4 -4 5.16699 -7.66699 3.5 -11s-6.5 -9 -14.5 -17l-19 -19c20.667 -24 38.5 -48.667 53.5 -74s27.167 -52.833 36.5 -82.5s16.166 -61.5 20.499 -95.5s6.5 -71.333 6.5 -112zM360.003 282.996
c0 38.667 -8 69.167 -24 91.5s-43.667 33.5 -83 33.5c-32 0 -58.667 -11.167 -80 -33.5s-32 -54.5 -32 -96.5v-85c0 -24 3 -44.5 9 -61.5s14 -31 24 -42s21.833 -19 35.5 -24s28.167 -7.5 43.5 -7.5c34 0 60.333 13.167 79 39.5s28 61.5 28 105.5v80z" />
    <glyph glyph-name="ntilde" unicode="&#xf1;" horiz-adv-x="500" 
d="M429 37c0 -13.333 -1.33301 -23 -4 -29s-7.66699 -9 -15 -9h-54c-14.667 0 -22 10 -22 30v267c0 22 -5.83301 41.333 -17.5 58s-32.167 25 -61.5 25c-16 0 -30 -3 -42 -9s-21.667 -13.833 -29 -23.5s-12.833 -20.167 -16.5 -31.5s-5.5 -22 -5.5 -32v-252
c0 -11.333 -0.833008 -19.5 -2.5 -24.5s-6.5 -7.5 -14.5 -7.5h-53c-9.33301 0 -15.5 2.33301 -18.5 7s-4.5 12.667 -4.5 24v394c0 8.66699 1.16699 15.167 3.5 19.5s7.83301 6.5 16.5 6.5h54c7.33301 0 12.5 -4 15.5 -12s4.5 -21.667 4.5 -41
c14 19.333 31.667 34.666 53 45.999s48.333 17 81 17c18 0 35 -2.5 51 -7.5s30 -13.167 42 -24.5s21.5 -26.166 28.5 -44.499s10.5 -40.833 10.5 -67.5v-279zM404 601c-12 -24 -25.9941 -43.833 -41.9941 -59.5s-35 -23.5 -57 -23.5c-10 0 -19.833 2.33301 -29.5 7
s-19.167 10 -28.5 16s-18.333 11.333 -27 16s-17 7 -25 7c-9.33301 0 -18.333 -3.33301 -27 -10s-15.334 -14 -20.001 -22c-2.66699 -4 -4.83398 -6.16699 -6.50098 -6.5s-3.83398 0.166992 -6.50098 1.5l-31 16c-5.33301 2 -6.33301 5.66699 -3 11
c3.33301 8 7.83301 16.5 13.5 25.5s12.5 17.5 20.5 25.5s16.667 14.667 26 20s19.666 8 30.999 8c9.33301 0 19.166 -2.5 29.499 -7.5s20.5 -10.5 30.5 -16.5s19.667 -11.5 29 -16.5s18 -7.5 26 -7.5c11.333 0 21.166 3.66699 29.499 11s14.833 15.333 19.5 24
c2.66699 6 6.66699 7.66699 12 5l33 -11c5.33301 -2.66699 6.33301 -7 3 -13z" />
    <glyph glyph-name="ograve" unicode="&#xf2;" horiz-adv-x="484" 
d="M442 220c0 -75.333 -17.5 -132.67 -52.5 -172.003s-84.167 -59 -147.5 -59c-32 0 -60.667 3.66699 -86 11s-46.833 19.833 -64.5 37.5s-31 41.334 -40 71.001s-13.5 66.834 -13.5 111.501c0 44 5 81.167 15 111.5s24 55 42 74s39.833 32.667 65.5 41
s54.167 12.5 85.5 12.5s59.166 -4.33301 83.499 -13s44.833 -22.5 61.5 -41.5s29.334 -43.667 38.001 -74s13 -67.166 13 -110.499zM346 265.996c0 38 -7.66797 69.168 -23.001 93.501s-42 36.5 -80 36.5c-30 0 -55.167 -10.667 -75.5 -32s-30.5 -55.333 -30.5 -102v-81
c0 -23.333 2.83301 -43 8.5 -59s13.334 -29.333 23.001 -40s21 -18.334 34 -23.001s26.833 -7 41.5 -7c32 0 57 12.667 75 38s27 59 27 101v75zM310.999 517.997c10.667 -14.667 9.33203 -22 -4.00098 -22h-33c-5.33301 0 -10.166 1.5 -14.499 4.5
s-8.16602 6.5 -11.499 10.5l-102 109c-8 8 -11.833 13.833 -11.5 17.5s6.16602 5.5 17.499 5.5h59c7.33301 0 12.333 -1.5 15 -4.5s6 -7.16699 10 -12.5z" />
    <glyph glyph-name="oacute" unicode="&#xf3;" horiz-adv-x="484" 
d="M441 222c0 -76 -17.333 -133.833 -52 -173.5s-83.334 -59.5 -146.001 -59.5c-32.667 0 -61.667 3.66699 -87 11s-46.833 20 -64.5 38s-31 41.833 -40 71.5s-13.5 66.834 -13.5 111.501c0 43.333 5 80.166 15 110.499s24.167 55 42.5 74s40.333 32.667 66 41
s54.167 12.5 85.5 12.5c30.667 0 58 -4.33301 82 -13s44.333 -22.5 61 -41.5s29.334 -43.5 38.001 -73.5s13 -66.333 13 -109zM347 268c0 36 -7.66699 66.168 -23 90.501s-42 36.5 -80 36.5c-30.667 0 -56 -10.5 -76 -31.5s-30 -54.5 -30 -100.5v-82
c0 -45.333 10.333 -78 31 -98s46 -30 76 -30c32 0 57 12.667 75 38s27 58.666 27 99.999v77zM254 512.001c-8.66699 -10 -17.666 -15 -26.999 -15h-33c-12.667 0 -14.334 7 -5.00098 21l77 107l10.5 13.5c2.33301 3 7.16602 4.5 14.499 4.5h59c11.333 0 17.333 -2 18 -6
s-2.66602 -9.66699 -9.99902 -17z" />
    <glyph glyph-name="ocircumflex" unicode="&#xf4;" horiz-adv-x="484" 
d="M442 221c0 -75.333 -17.5 -132.835 -52.5 -172.502s-83.833 -59.5 -146.5 -59.5c-32.667 0 -61.667 3.66699 -87 11s-46.833 19.833 -64.5 37.5s-31 41.334 -40 71.001s-13.5 66.834 -13.5 111.501c0 44 5 81.167 15 111.5s24.167 55 42.5 74s40.333 32.833 66 41.5
s54.167 13 85.5 13c62 0 110 -18.333 144 -55s51 -98 51 -184zM346 266.998c0 38 -7.66797 68.999 -23.001 92.999s-42 36 -80 36c-30.667 0 -56 -10.667 -76 -32s-30 -55 -30 -101v-82c0 -22.667 2.83301 -42.167 8.5 -58.5s13.334 -29.666 23.001 -39.999
s21 -17.833 34 -22.5s26.833 -7 41.5 -7c32 0 57 12.5 75 37.5s27 58.5 27 100.5v76zM362.999 519.997c11.333 -14.667 9.66602 -21.999 -5.00098 -21.999h-31c-5.33301 0 -9.33301 0.333008 -12 1s-6 3.66699 -10 9l-59 78l-59 -78
c-4.66699 -5.33301 -8.5 -8.33301 -11.5 -9s-6.5 -1 -10.5 -1h-32c-13.333 0 -14.666 7.33301 -3.99902 22l76 106c3.33301 5.33301 6.5 9.66602 9.5 12.999s7.5 5 13.5 5h34c7.33301 0 12.333 -1.66699 15 -5l10 -13z" />
    <glyph glyph-name="otilde" unicode="&#xf5;" horiz-adv-x="484" 
d="M446 222c0 -76 -17.501 -133.834 -52.501 -173.501s-83.833 -59.5 -146.5 -59.5c-32.667 0 -61.667 3.66699 -87 11s-46.833 20 -64.5 38s-31 41.833 -40 71.5s-13.5 66.834 -13.5 111.501c0 44 5 81.167 15 111.5s24.167 55 42.5 74s40.333 32.667 66 41
s54.5 12.5 86.5 12.5c30.667 0 58 -4.33301 82 -13s44.333 -22.5 61 -41.5s29.334 -43.667 38.001 -74s13 -66.833 13 -109.5zM350.999 267.999c0 36.667 -7.66699 67.167 -23 91.5s-42 36.5 -80 36.5c-31.333 0 -57 -10.5 -77 -31.5s-30 -54.5 -30 -100.5v-82
c0 -46 10.5 -79 31.5 -99s46.5 -30 76.5 -30c32 0 57 12.667 75 38s27 59 27 101v76zM398.999 598.999c-12 -24 -26.001 -43.833 -42.001 -59.5s-35 -23.5 -57 -23.5c-9.33301 0 -18.833 2.33301 -28.5 7s-19.167 10 -28.5 16s-18.333 11.333 -27 16s-17 7 -25 7
c-9.33301 0 -18.5 -3.33301 -27.5 -10s-15.833 -14 -20.5 -22c-3.33301 -5.33301 -7.66602 -7 -12.999 -5l-30 16c-4.66699 2 -6 5.66699 -4 11c3.33301 8 8 16.5 14 25.5s12.833 17.5 20.5 25.5s16.334 14.667 26.001 20s19.834 8 30.501 8c10 0 20.167 -2.5 30.5 -7.5
s20.5 -10.5 30.5 -16.5s19.667 -11.5 29 -16.5s17.666 -7.5 24.999 -7.5c11.333 0 21.166 3.66699 29.499 11s14.833 15.333 19.5 24c2.66699 6 6.66699 7.66699 12 5l33 -11c5.33301 -2.66699 6.33301 -7 3 -13z" />
    <glyph glyph-name="odieresis" unicode="&#xf6;" horiz-adv-x="484" 
d="M442 222c0 -74.667 -17.5 -131.832 -52.5 -171.499s-83.833 -59.5 -146.5 -59.5c-32 0 -60.667 3.66699 -86 11s-46.833 20 -64.5 38s-31 41.833 -40 71.5s-13.5 66.5 -13.5 110.5c0 43.333 5 80.166 15 110.499s24 55 42 74s39.833 32.667 65.5 41
s54.167 12.5 85.5 12.5c62 0 110 -18.167 144 -54.5s51 -97.5 51 -183.5zM346 268.002c0 37.333 -7.50293 68 -22.5029 92s-41.5 36 -79.5 36c-30 0 -55.167 -10.5 -75.5 -31.5s-30.5 -54.5 -30.5 -100.5v-82c0 -22.667 2.83301 -42 8.5 -58s13.334 -29.167 23.001 -39.5
s20.834 -17.833 33.501 -22.5s26.334 -7 41.001 -7c32 0 57 12.667 75 38s27 58.333 27 99v76zM381.997 545.002c0 -6.66699 -1.16797 -12.166 -3.50098 -16.499s-7.5 -6.5 -15.5 -6.5h-48c-12 0 -19.5 2.16699 -22.5 6.5s-4.5 10.166 -4.5 17.499v49c0 14 6 21 18 21h52
c10.667 0 17.334 -1.33301 20.001 -4s4 -7.66699 4 -15v-52zM201.996 543.003c0 -6 -1.16895 -11 -3.50195 -15s-7.16602 -6 -14.499 -6h-52c-9.33301 0 -15.5 1.16699 -18.5 3.5s-4.5 6.83301 -4.5 13.5v54c0 6.66699 1 12.167 3 16.5s7.33301 6.5 16 6.5h53
c8.66699 0 14.334 -2.16699 17.001 -6.5s4 -9.83301 4 -16.5v-50z" />
    <glyph glyph-name="divide" unicode="&#xf7;" horiz-adv-x="584" 
d="M294 234c11.333 0 21.333 -4.33301 30 -13s13 -19 13 -31c0 -11.333 -4.33301 -21.333 -13 -30s-18.667 -13 -30 -13c-12 0 -22.333 4.33301 -31 13s-13 18.667 -13 30c0 12 4.33301 22.333 13 31s19 13 31 13zM435 286c0 -8.66699 -1.83301 -14.167 -5.5 -16.5
s-11.834 -3.5 -24.501 -3.5h-232c-14.667 0 -22 5.66699 -22 17v39c0 9.33301 1.83301 14.666 5.5 15.999s10.167 2 19.5 2h229c10.667 0 18.334 -0.666992 23.001 -2s7 -5.66602 7 -12.999v-39zM294 455c11.333 0 21.333 -4.33301 30 -13s13 -19 13 -31
c0 -11.333 -4.33301 -21.333 -13 -30s-18.667 -13 -30 -13c-12 0 -22.333 4.33301 -31 13s-13 18.667 -13 30c0 12 4.33301 22.333 13 31s19 13 31 13z" />
    <glyph glyph-name="oslash" unicode="&#xf8;" horiz-adv-x="484" 
d="M119 26c-29.333 20.667 -51.165 48.498 -65.498 83.498s-21.5 75.167 -21.5 120.5c0 32 4.5 62 13.5 90s22.167 52.333 39.5 73s39 36.834 65 48.501s55.667 17.5 89 17.5c46 0 85.667 -10.333 119 -31l27 46h60l-47 -79c36 -41.333 54 -96.333 54 -165
c0 -35.333 -4.33301 -67.666 -13 -96.999s-21.834 -54.5 -39.501 -75.5s-39.834 -37.333 -66.501 -49s-58 -17.5 -94 -17.5c-14 0 -27 1 -39 3s-23.667 4.66699 -35 8l-26 -43h-60zM238.001 378.998c-21.333 0 -39.168 -3.66992 -53.501 -11.0029
s-26.166 -17.666 -35.499 -30.999s-16 -29.166 -20 -47.499s-6 -38.166 -6 -59.499c0 -29.333 3 -55.333 9 -78s16 -40.667 30 -54l152 257c-20 16 -45.333 24 -76 24zM360.999 228.995c0 30 -4.66797 57 -14.001 81l-140 -236c10 -2 20.333 -3 31 -3
c46.667 0 78.834 14.167 96.501 42.5s26.5 66.833 26.5 115.5z" />
    <glyph glyph-name="ugrave" unicode="&#xf9;" horiz-adv-x="500" 
d="M427 26c0 -8 -1.00098 -14.334 -3.00098 -19.001s-7.33301 -7 -16 -7h-54c-7.33301 0 -12.5 3.83301 -15.5 11.5s-4.5 21.167 -4.5 40.5c-18.667 -21.333 -38.167 -36.666 -58.5 -45.999s-45.166 -14 -74.499 -14c-16.667 0 -33 2.5 -49 7.5s-30.167 13.167 -42.5 24.5
s-22.333 26 -30 44s-11.5 40 -11.5 66v288c0 10.667 1.33301 18.167 4 22.5s7.66699 6.5 15 6.5h55c14.667 0 22 -10 22 -30v-267c0 -22.667 5.66699 -42 17 -58s31.666 -24 60.999 -24c15.333 0 28.833 3 40.5 9s21.334 13.667 29.001 23s13.5 19.5 17.5 30.5
s6 21.833 6 32.5v252c0 11.333 0.833008 19.5 2.5 24.5s6.5 7.5 14.5 7.5h53c9.33301 0 15.333 -2.33301 18 -7s4 -12.667 4 -24v-394zM308.999 521.999c10.667 -14.667 9.33203 -22 -4.00098 -22h-33c-5.33301 0 -10.166 1.5 -14.499 4.5s-8.16602 6.5 -11.499 10.5
l-104 108c-7.33301 8 -10.833 14 -10.5 18s6.16602 6 17.499 6h58c7.33301 0 12.5 -1.5 15.5 -4.5s6.83301 -7.5 11.5 -13.5z" />
    <glyph glyph-name="uacute" unicode="&#xfa;" horiz-adv-x="502" 
d="M427 26c0 -8 -1.16602 -14.334 -3.49902 -19.001s-7.5 -7 -15.5 -7h-53c-7.33301 0 -12.5 3.83301 -15.5 11.5s-4.5 21.167 -4.5 40.5c-18.667 -21.333 -38.334 -36.666 -59.001 -45.999s-45.667 -14 -75 -14c-16.667 0 -33 2.5 -49 7.5s-30.167 13.333 -42.5 25
s-22.333 26.5 -30 44.5s-11.5 40 -11.5 66v286c0 10.667 1.33301 18.334 4 23.001s7.66699 7 15 7h55c14.667 0 22 -10 22 -30v-266c0 -23.333 5.66699 -43 17 -59s31.666 -24 60.999 -24c16 0 29.833 3 41.5 9s21.334 13.667 29.001 23s13.5 19.666 17.5 30.999s6 22 6 32
v252c0 11.333 0.666992 19.5 2 24.5s6 7.5 14 7.5h52c9.33301 0 15.5 -2.5 18.5 -7.5s4.5 -12.833 4.5 -23.5v-394zM265.001 514.999c-3.33301 -4 -7.33203 -7.5 -11.999 -10.5s-9.66699 -4.5 -15 -4.5h-32c-14 0 -15.667 7.33301 -5 22l77 107c4 6 7.33301 10.5 10 13.5
s7.66699 4.5 15 4.5h59c11.333 0 17.166 -2 17.499 -6s-3.16699 -9.66699 -10.5 -17z" />
    <glyph glyph-name="ucircumflex" unicode="&#xfb;" horiz-adv-x="501" 
d="M429 26c0 -8.66699 -1.00293 -15.168 -3.00293 -19.501s-7.33301 -6.5 -16 -6.5h-53c-7.33301 0 -12.5 3.83301 -15.5 11.5s-4.5 21.167 -4.5 40.5c-19.333 -21.333 -39.166 -36.666 -59.499 -45.999s-45.166 -14 -74.499 -14c-16.667 0 -33 2.5 -49 7.5
s-30.167 13.167 -42.5 24.5s-22.333 26 -30 44s-11.5 40 -11.5 66v288c0 10 1.33301 17.333 4 22s7.66699 7 15 7h55c14 0 21 -10 21 -30v-267c0 -22 5.83301 -41.333 17.5 -58s31.834 -25 60.501 -25c16 0 29.833 3 41.5 9s21.5 13.833 29.5 23.5s14 20.167 18 31.5
s6 22 6 32v252c0 11.333 0.666992 19.5 2 24.5s6 7.5 14 7.5h53c9.33301 0 15.333 -2.33301 18 -7s4 -12.667 4 -24v-394zM367.997 521.999c5.33301 -6.66699 7.66602 -12 6.99902 -16s-4.66699 -6 -12 -6h-30c-5.33301 0 -9.5 0.333008 -12.5 1s-6.5 3.66699 -10.5 9
l-59 79l-59 -79c-4 -5.33301 -7.5 -8.33301 -10.5 -9s-7.16699 -1 -12.5 -1h-31c-7.33301 0 -11.166 2 -11.499 6s2.16699 9.33301 7.5 16l76 108c3.33301 4.66699 6.5 8.66699 9.5 12s7.5 5 13.5 5h34c7.33301 0 12.333 -1.66699 15 -5l10 -12z" />
    <glyph glyph-name="udieresis" unicode="&#xfc;" horiz-adv-x="526" 
d="M442 26c0 -8 -1.16406 -14.334 -3.49707 -19.001s-7.5 -7 -15.5 -7h-54c-7.33301 0 -12.5 3.83301 -15.5 11.5s-4.5 21.167 -4.5 40.5c-18.667 -21.333 -38.334 -36.666 -59.001 -45.999s-46 -14 -76 -14c-16.667 0 -32.834 2.5 -48.501 7.5s-29.667 13.167 -42 24.5
s-22.333 26 -30 44s-11.5 40 -11.5 66v288c0 10.667 1.33301 18.334 4 23.001s7.66699 7 15 7h55c14 0 21 -10.333 21 -31v-267c0 -22.667 5.66699 -42 17 -58s31.666 -24 60.999 -24c16 0 30 3 42 9s21.833 13.667 29.5 23s13.5 19.666 17.5 30.999s6 22 6 32v253
c0 11.333 0.833008 19.5 2.5 24.5s6.5 7.5 14.5 7.5h52c9.33301 0 15.5 -2.5 18.5 -7.5s4.5 -12.833 4.5 -23.5v-395zM400.003 549.999c0 -6.66699 -1.00098 -12.333 -3.00098 -17s-7 -7 -15 -7h-49c-11.333 0 -18.666 2.33301 -21.999 7s-5 10.667 -5 18v49
c0 14 6.33301 21 19 21h52c10.667 0 17.167 -1.33301 19.5 -4s3.5 -7.66699 3.5 -15v-52zM219.002 548c0 -6.66699 -1.33301 -11.999 -4 -15.999s-7.66699 -6 -15 -6h-52c-9.33301 0 -15.5 1.16699 -18.5 3.5s-4.5 7.16602 -4.5 14.499v53c0 7.33301 1 13.166 3 17.499
s7.33301 6.5 16 6.5h53c9.33301 0 15.333 -2.16699 18 -6.5s4 -10.166 4 -17.499v-49z" />
    <glyph glyph-name="yacute" unicode="&#xfd;" horiz-adv-x="448" 
d="M210 -147c-3.33301 -8.66699 -7 -14.5 -11 -17.5s-9.66699 -4.5 -17 -4.5h-44c-14.667 0 -19 6.66699 -13 20l53 149l-156 435c-3.33301 7.33301 -3.16602 12.333 0.500977 15s9.5 4 17.5 4h58c6.66699 0 11.667 -2 15 -6s5.66602 -8.66699 6.99902 -14l109 -311l111 311
c2 4.66699 4.83301 9.16699 8.5 13.5s7.83398 6.5 12.501 6.5h51c9.33301 0 14.666 -1.33301 15.999 -4s0.333008 -8.66699 -3 -18zM258 519c-3.33301 -4 -7.33203 -7.5 -11.999 -10.5s-9.66699 -4.5 -15 -4.5h-32c-14.667 0 -16.334 7 -5.00098 21l76 107
c4.66699 6.66699 8.33398 11.5 11.001 14.5s7.66699 4.5 15 4.5h59c11.333 0 17.166 -2 17.499 -6s-3.16699 -10.333 -10.5 -19z" />
    <glyph glyph-name="thorn" unicode="&#xfe;" horiz-adv-x="551" 
d="M149 -181h-89h89zM545 230c0 -74 -20.333 -130.167 -61 -168.5s-102.667 -57.5 -186 -57.5h-108c-7.33301 0 -11.833 -1.16699 -13.5 -3.5s-2.5 -7.5 -2.5 -15.5v-95c0 -8 -1.33301 -13.667 -4 -17s-8.33398 -5 -17.001 -5h-72c-8.66699 0 -14.5 1.83301 -17.5 5.5
s-4.5 10.834 -4.5 21.501v647c0 9.33301 1.66699 15.166 5 17.499s10.333 3.5 21 3.5h69c8.66699 0 14 -1.83301 16 -5.5s3 -10.834 3 -21.501v-67c0 -5.33301 0.833008 -9.66602 2.5 -12.999s7.83398 -5 18.501 -5h91c173.333 0 260 -73.667 260 -221zM428 234
c0 22.667 -4.00195 42.165 -12.002 58.498s-18.667 29.833 -32 40.5s-29 18.334 -47 23.001s-37 7 -57 7h-88c-7.33301 -0.666992 -12.166 -2.66699 -14.499 -6s-3.5 -6.66602 -3.5 -9.99902v-235c0 -8 1.33301 -13 4 -15s8 -3 16 -3h114c34.667 0 63.334 11 86.001 33
s34 57.667 34 107z" />
    <glyph glyph-name="ydieresis" unicode="&#xff;" horiz-adv-x="448" 
d="M210 -148c-3.33301 -8 -7.00098 -13.501 -11.001 -16.501s-9.66699 -4.5 -17 -4.5h-45c-12.667 0 -16.667 6.33301 -12 19l54 149l-156 432c-3.33301 7.33301 -3.16602 12.333 0.500977 15s9.16699 4 16.5 4h59c6 0 10.667 -2 14 -6s6 -9 8 -15l108 -307l110 307
c2 4.66699 4.83301 9.33398 8.5 14.001s7.83398 7 12.501 7h51c9.33301 0 14.666 -1.5 15.999 -4.5s0.333008 -8.83301 -3 -17.5zM364.999 547.999c0 -6.66699 -1.16797 -12.166 -3.50098 -16.499s-7.5 -6.5 -15.5 -6.5h-48c-11.333 0 -18.666 2.16699 -21.999 6.5
s-5 10.166 -5 17.499v49c0 14 6.33301 21 19 21h52c10 0 16.333 -1.33301 19 -4s4 -7.66699 4 -15v-52zM184.998 546c0 -6.66699 -1.33301 -11.833 -4 -15.5s-8 -5.5 -16 -5.5h-52c-9.33301 0 -15.5 1.16699 -18.5 3.5s-4.5 6.83301 -4.5 13.5v53
c0 6.66699 1 12.334 3 17.001s7.33301 7 16 7h54c9.33301 0 15.333 -2.33301 18 -7s4 -10.334 4 -17.001v-49z" />
    <glyph glyph-name="dotlessi" unicode="&#x131;" horiz-adv-x="219" 
d="M154 0h-89v449h89v-449z" />
    <glyph glyph-name="Lslash" unicode="&#x141;" horiz-adv-x="490" 
d="M458 18c0 -8.66699 -1.66504 -13.8311 -4.99805 -15.498s-9 -2.5 -17 -2.5h-340c-9.33301 0 -15 2.16699 -17 6.5s-3 13.166 -3 26.499v223l-15 -8c-8 -4.66699 -14.333 -6.83398 -19 -6.50098s-9 3.83301 -13 10.5l-23 39c-5.33301 9.33301 -6.5 15.833 -3.5 19.5
s9.16699 8.5 18.5 14.5l27 16c3.33301 2 6.66602 3.83301 9.99902 5.5l9 4.5c2.66699 2 5.66699 3.66699 9 5v302c0 8.66699 1.33301 14.834 4 18.501s8.33398 5.5 17.001 5.5h67c10 0 16.667 -2.16699 20 -6.5s5 -12.5 5 -24.5v-230l46 26c10.667 6 18.667 10 24 12
s10 -1 14 -9l24 -39c4 -8.66699 4.83301 -15.334 2.5 -20.001s-9.83301 -10.667 -22.5 -18l-88 -52v-219c0 -7.33301 1.66699 -12 5 -14s8.66602 -3 15.999 -3h230c9.33301 0 14.666 -1.33301 15.999 -4s2 -7.66699 2 -15v-48v0z" />
    <glyph glyph-name="lslash" unicode="&#x142;" horiz-adv-x="291" 
d="M271 378c4 -8 4.99609 -14.167 2.99609 -18.5s-9 -10.166 -21 -17.499l-33 -19l-12.5 -7l-10.5 -6c-3.33301 -2.66699 -6.66602 -4.66699 -9.99902 -6v-273c0 -11.333 -0.833008 -19.333 -2.5 -24s-6.5 -7 -14.5 -7h-59c-9.33301 0 -15.166 1.66699 -17.499 5
s-3.5 11.333 -3.5 24v221l-29 -16c-7.33301 -4.66699 -13.166 -6.83398 -17.499 -6.50098s-8.16602 3.5 -11.499 9.5l-22 37c-5.33301 9.33301 -6.66602 15.666 -3.99902 18.999s8.66699 8 18 14l66 37v285c0 8 1.16699 14 3.5 18s8.16602 6 17.499 6h55
c10.667 0 16.834 -2 18.501 -6s2.5 -10.667 2.5 -20v-230l26 15c10 6 17.667 9.83301 23 11.5s9.66602 -1.16602 12.999 -8.49902l22 -37v0z" />
    <glyph glyph-name="OE" unicode="&#x152;" horiz-adv-x="749" 
d="M721 12c0 -5.33301 -1.66992 -9.00195 -5.00293 -11.002s-7 -3 -11 -3h-304c-7.33301 0 -11.833 3 -13.5 9s-2.5 13 -2.5 21c-7.33301 -8 -16 -14.5 -26 -19.5s-20.667 -9.16699 -32 -12.5s-22.333 -5.66602 -33 -6.99902s-20 -2 -28 -2c-20 0 -42.5 1.66699 -67.5 5
s-48.833 10.833 -71.5 22.5s-41.667 28.5 -57 50.5s-23 52 -23 90v236c0 72 17.833 123.5 53.5 154.5s90.167 46.5 163.5 46.5c22.667 0 44.834 -2.83301 66.501 -8.5s39.167 -13.5 52.5 -23.5c0 15.333 4.66699 23 14 23h290c9.33301 0 15.333 -0.666992 18 -2
s4 -4.66602 4 -9.99902v-48c0 -6 -3.33301 -9.5 -10 -10.5s-15.667 -1.5 -27 -1.5h-178c-8.66699 0 -14.334 -1.33301 -17.001 -4s-4 -5.66699 -4 -9v-139c0 -7.33301 1.33301 -12.166 4 -14.499s7.33398 -3.5 14.001 -3.5h158c11.333 0 18.5 -1 21.5 -3
s3.83301 -5.66699 2.5 -11l-5 -45c-1.33301 -8.66699 -6.16602 -13.334 -14.499 -14.001s-16.166 -1 -23.499 -1h-133c-14.667 0 -22 -6.33301 -22 -19v-157c0 -9.33301 2.16699 -14.5 6.5 -15.5s9.83301 -1.5 16.5 -1.5h194c10.667 0 18.167 -1 22.5 -3s6.5 -6 6.5 -12v-47
zM381.997 422.998c-4.66699 32 -16.667 55.168 -36 69.501s-45.333 21.5 -78 21.5c-47.333 0 -80.333 -11 -99 -33s-28 -54 -28 -96v-209c0 -20 3.66699 -37 11 -51s17 -25.333 29 -34s25.5 -14.834 40.5 -18.501s29.833 -5.5 44.5 -5.5c14 0 27.5 1.16699 40.5 3.5
s24.667 6.66602 35 12.999s19 15.333 26 27s11.833 26.834 14.5 45.501v267z" />
    <glyph glyph-name="oe" unicode="&#x153;" horiz-adv-x="701" 
d="M658 225c0 -12 -1.83203 -20.834 -5.49902 -26.501s-12.834 -8.5 -27.501 -8.5h-238c0 -46.667 10.667 -80.334 32 -101.001s51 -31 89 -31c33.333 0 59.5 2.33301 78.5 7s32.167 8.33398 39.5 11.001s13 3.16699 17 1.5s6 -4.5 6 -8.5v-40
c0 -7.33301 -1.83301 -12.333 -5.5 -15s-10.834 -5.66699 -21.501 -9c-2.66699 -1.33301 -8.16699 -2.66602 -16.5 -3.99902l-29 -4.5c-11 -1.66699 -22.833 -3 -35.5 -4s-25 -1.5 -37 -1.5c-49.333 0 -89.666 8.33301 -120.999 25c-0.666992 -10.667 -6.66699 -16 -18 -16
h-43c-6 0 -10.667 1.16699 -14 3.5s-5 8.83301 -5 19.5v34c-8 -17.333 -23.833 -32.666 -47.5 -45.999s-50.834 -20 -81.501 -20c-20 0 -38.667 4 -56 12s-32.5 21 -45.5 39s-23.333 41 -31 69s-11.5 62 -11.5 102c0 70.667 12.167 126.334 36.5 167.001s59.5 61 105.5 61
c34.667 0 62.334 -5.83301 83.001 -17.5s36.667 -27.834 48 -48.501v35c0 13.333 5 20 15 20h43c8 0 13.5 -0.833008 16.5 -2.5s4.83301 -4.5 5.5 -8.5c26.667 14.667 59.667 22 99 22c56 0 99.333 -13.833 130 -41.5s46 -69.834 46 -126.501v-48zM570.001 261.999
c-0.666992 40 -7.50195 70.335 -20.502 91.002s-36.167 31 -69.5 31c-16 0 -29.667 -3.16699 -41 -9.5s-20.666 -15 -27.999 -26s-12.666 -23.833 -15.999 -38.5s-5 -30.334 -5 -47.001c0 -5.33301 0.333008 -9.33301 1 -12s3.66699 -4 9 -4h162c4 0 6.33301 1.16699 7 3.5
s1 6.16602 1 11.499zM296.999 279.001c0 8.66699 -1.66699 18.832 -5 30.499s-8.5 22.834 -15.5 33.501s-16 19.667 -27 27s-24.5 11 -40.5 11c-28 0 -49 -10.333 -63 -31s-21 -54.667 -21 -102v-67c0 -40 7.16699 -71.5 21.5 -94.5s35.5 -34.5 63.5 -34.5
c14 0 26.333 3.16699 37 9.5s19.667 13.833 27 22.5s13 17.5 17 26.5s6 16.5 6 22.5v146z" />
    <glyph glyph-name="Scaron" unicode="&#x160;" horiz-adv-x="478" 
d="M437 160c0 -32.667 -6.50684 -59.8379 -19.5068 -81.5049s-30 -38.834 -51 -51.501s-44.833 -21.667 -71.5 -27s-53.334 -8 -80.001 -8c-47.333 0 -85 3.66699 -113 11s-47 14.666 -57 21.999c-2 2 -3 7.16699 -3 15.5s0.666992 17.333 2 27s3.33301 18.167 6 25.5
s5.66699 10.666 9 9.99902c5.33301 -2 12 -4.66699 20 -8s17.833 -6.66602 29.5 -9.99902s25.167 -6.16602 40.5 -8.49902s33 -3.5 53 -3.5c18.667 0 36 1.33301 52 4s30 7.33398 42 14.001s21.333 15.334 28 26.001s10 23.667 10 39c0 12.667 -1.83301 24 -5.5 34
s-10 19.333 -19 28s-20.667 17 -35 25s-32.166 16.333 -53.499 25s-41.666 18 -60.999 28s-36.333 21.833 -51 35.5s-26.5 29.834 -35.5 48.501s-13.5 41 -13.5 67c0 20.667 4.16699 40.167 12.5 58.5s21 34.333 38 48s38.333 24.5 64 32.5s55.834 12 90.501 12
c24.667 0 45 -0.666992 61 -2s29.167 -3 39.5 -5s18.5 -4 24.5 -6l15 -5c4 -1.33301 6.16699 -6.16602 6.5 -14.499s-0.666992 -17.166 -3 -26.499s-5.66602 -17.666 -9.99902 -24.999s-8.5 -10.333 -12.5 -9c-11.333 3.33301 -27.666 7.16602 -48.999 11.499
s-42.666 6.5 -63.999 6.5c-43.333 0 -73.166 -7 -89.499 -21s-24.5 -32.333 -24.5 -55c0 -24 8.83301 -43.167 26.5 -57.5s45.834 -28.833 84.501 -43.5c54 -21.333 95.333 -46.666 124 -75.999s43 -66 43 -110zM288.993 641.996
c-3.33301 -4.66699 -6.33105 -8.66895 -8.99805 -12.002s-7 -5 -13 -5h-32c-7.33301 0 -12.333 1.66699 -15 5s-5.66699 7.33301 -9 12l-73 102c-10 14 -8.33301 21 5 21h30c4.66699 0 8.16699 -0.166992 10.5 -0.5s5.5 -3.16602 9.5 -8.49902l57 -76l57 76
c3.33301 4.66699 6.66602 7.33398 9.99902 8.00098s7 1 11 1h30c13.333 0 14.666 -7 3.99902 -21z" />
    <glyph glyph-name="scaron" unicode="&#x161;" horiz-adv-x="395" 
d="M346 114c0 -24.667 -4.66895 -44.6689 -14.002 -60.002s-21.333 -27.333 -36 -36s-31.167 -14.667 -49.5 -18s-36.5 -5 -54.5 -5c-39.333 0 -70.166 3.16699 -92.499 9.5s-37.5 11.5 -45.5 15.5c-2 0.666992 -3.33301 4.66699 -4 12s-0.5 14.833 0.5 22.5
s2.83301 14.334 5.5 20.001s6 7.83398 10 6.50098l35.5 -12c15.667 -5.33301 39.167 -8 70.5 -8c26 0 46.167 4.16699 60.5 12.5s21.5 22.833 21.5 43.5c0 16.667 -6.83301 31.834 -20.5 45.501s-33.834 27.5 -60.501 41.5l-44 24c-14 8 -26.167 17 -36.5 27
s-18.666 21.333 -24.999 34s-9.5 27 -9.5 43c0 19.333 4.33301 36.166 13 50.499s20.167 26.166 34.5 35.499s31 16.333 50 21s38.5 7 58.5 7c30 0 54.167 -1.66699 72.5 -5s30.166 -6.33301 35.499 -9c2 -1.33301 2.66699 -5.16602 2 -11.499s-2 -13.166 -4 -20.499
s-4.66699 -13.833 -8 -19.5s-6.66602 -8.16699 -9.99902 -7.5c-6.66699 2 -18.334 4.66699 -35.001 8s-32.667 5 -48 5c-23.333 0 -41.166 -4.33301 -53.499 -13s-18.5 -21.667 -18.5 -39c0 -12.667 7.5 -24.334 22.5 -35.001s32.833 -21.667 53.5 -33
c18.667 -10 35.667 -20 51 -30s28.333 -21 39 -33s18.834 -25.167 24.501 -39.5s8.5 -30.833 8.5 -49.5zM234.998 497.998c-3.33301 -4.66699 -6.33008 -8.66895 -8.99707 -12.002s-7 -5 -13 -5h-32c-7.33301 0 -12.333 1.66699 -15 5s-5.66699 7.33301 -9 12l-73 102
c-10.667 14 -9 21 5 21h29c5.33301 0 9.16602 -0.166992 11.499 -0.5s5.5 -3.16602 9.5 -8.49902l57 -76l57 76c3.33301 4.66699 6.66602 7.33398 9.99902 8.00098s7 1 11 1h30c13.333 0 14.666 -7 3.99902 -21z" />
    <glyph glyph-name="Ydieresis" unicode="&#x178;" horiz-adv-x="470" 
d="M458 565l-87 -162l-32.5 -59.5l-28 -52c-8.33301 -15 -14.833 -27.167 -19.5 -36.5l-7 -14v-224c0 -11.333 -6.33301 -17 -19 -17h-63c-6 0 -10 1.16699 -12 3.5s-3 6.5 -3 12.5v225l-179 328c-4 7.33301 -4.66699 11.833 -2 13.5s7.33398 2.5 14.001 2.5h69
c5.33301 0 9.5 -1 12.5 -3s6.5 -6.33301 10.5 -13l132 -246c6 12.667 12.667 25.667 20 39l20.5 39l24.5 45l65 123c3.33301 6 6.16602 10.167 8.49902 12.5s7.5 3.5 15.5 3.5h50c8 0 13 -1.16699 15 -3.5s0.333008 -7.83301 -5 -16.5zM375 667
c0 -6 -1.16797 -11.166 -3.50098 -15.499s-7.16602 -6.5 -14.499 -6.5h-46c-11.333 0 -18.5 2.16699 -21.5 6.5s-4.5 9.83301 -4.5 16.5v47c0 13.333 6 20 18 20h49c10 0 16.333 -1.33301 19 -4s4 -7.33398 4 -14.001v-50zM202.999 665.001
c0 -6 -1.33398 -10.833 -4.00098 -14.5s-7.66699 -5.5 -15 -5.5h-49c-9.33301 0 -15.333 1.16699 -18 3.5s-4 6.5 -4 12.5v52c0 6 1 11.167 3 15.5s7 6.5 15 6.5h51c8.66699 0 14.334 -2.16699 17.001 -6.5s4 -9.5 4 -15.5v-48z" />
    <glyph glyph-name="Zcaron" unicode="&#x17d;" horiz-adv-x="440" 
d="M427 15c0 -5.33301 -1.33496 -9.16699 -4.00195 -11.5s-8.66699 -3.5 -18 -3.5h-377c-8.66699 -0 -13 3.33301 -13 10v24c0 4.66699 1.5 9.83398 4.5 15.501l9.5 17.5l266 444h-241c-11.333 0 -19.5 1.33301 -24.5 4s-6.83301 7.66699 -5.5 15l2 41
c0.666992 5.33301 1.83398 9.16602 3.50098 11.499s7.16699 3.5 16.5 3.5h357c4.66699 0 8.83398 -0.833008 12.501 -2.5s5.5 -4.16699 5.5 -7.5v-24c0 -4 -2.33301 -10.167 -7 -18.5s-8 -14.5 -10 -18.5l-263 -440h257c11.333 0 19 -0.666992 23 -2s6 -5 6 -11v-47z
M271.998 638.999c-3.33301 -4.66699 -6.33105 -8.66699 -8.99805 -12s-7 -5 -13 -5h-32c-7.33301 0 -12.333 1.66699 -15 5s-5.66699 7.33301 -9 12l-73 102c-10 14 -8.33301 21 5 21h30c4.66699 0 8.16699 -0.333008 10.5 -1s5.5 -3.66699 9.5 -9l57 -75l57 75
c3.33301 5.33301 6.66602 8.33301 9.99902 9s7 1 11 1h30c13.333 0 14.666 -7 3.99902 -21z" />
    <glyph glyph-name="zcaron" unicode="&#x17e;" horiz-adv-x="349" 
d="M339 17c0 -7.33301 -1.33301 -12.001 -4 -14.001s-8 -3 -16 -3h-280c-9.33301 0 -16.5 1 -21.5 3s-8 4.66699 -9 8s-0.666992 7.33301 1 12s4.16699 9.66699 7.5 15l196 331h-177c-8 0 -13.167 0.666992 -15.5 2s-3.5 6.33301 -3.5 15v28c0 7.33301 1.5 11.833 4.5 13.5
s7.16699 2.5 12.5 2.5h273c14.667 0 23.834 -1.83301 27.501 -5.5s2.16699 -11.167 -4.5 -22.5l-204 -341h192c7.33301 0 12.666 -0.666992 15.999 -2s5 -6.66602 5 -15.999v-26zM225 493.999c-3.33301 -4.66699 -6.33301 -8.66895 -9 -12.002s-7 -5 -13 -5h-32
c-7.33301 0 -12.333 1.66699 -15 5s-5.66699 7.33301 -9 12l-73 103c-11.333 13.333 -9.66602 20 5.00098 20h29c5.33301 0 9.16602 -0.166992 11.499 -0.5s5.5 -3.16602 9.5 -8.49902l57 -75l57 75c3.33301 4.66699 6.5 7.33398 9.5 8.00098s6.5 1 10.5 1h31
c12.667 0 14 -6.66699 4 -20z" />
    <glyph glyph-name="florin" unicode="&#x192;" horiz-adv-x="300" 
d="M276 372c0 -5.33301 -1.33594 -9.6709 -4.00293 -13.0039s-8 -5 -16 -5h-51v-351c0 -32 -8.5 -57.5 -25.5 -76.5s-44.833 -28.5 -83.5 -28.5c-16.667 0 -31.167 1 -43.5 3s-21.833 4.66699 -28.5 8c-2 0.666992 -3 4.33398 -3 11.001s0.5 13.667 1.5 21s2.5 14 4.5 20
s4.33301 8.66699 7 8c9.33301 -2 16 -3.5 20 -4.5s10.333 -1.5 19 -1.5c11.333 0 20.666 4.33301 27.999 13s11 21 11 37v341h-41c-7.33301 0 -12.166 1.16699 -14.499 3.5s-3.5 6.83301 -3.5 13.5v27c0 11.333 4.33301 17 13 17h40
c-3.33301 6.66699 -6.66602 15.334 -9.99902 26.001s-5 26.334 -5 47.001c0 12.667 1.83301 25.334 5.5 38.001s9.83398 23.834 18.501 33.501s19.5 17.5 32.5 23.5s29.167 9 48.5 9c17.333 0 32.166 -1.16699 44.499 -3.5s21.833 -4.83301 28.5 -7.5
c2 -0.666992 2.83301 -4.16699 2.5 -10.5s-1.16602 -13.333 -2.49902 -21s-2.83301 -14.334 -4.5 -20.001s-3.5 -8.5 -5.5 -8.5c-8.66699 2 -15.167 3.33301 -19.5 4s-10.833 1 -19.5 1c-11.333 0 -20.666 -4 -27.999 -12s-11 -20.333 -11 -37c0 -14 2.16699 -26 6.5 -36
s9.83301 -18.333 16.5 -25h52c8.66699 0 14.167 -1.33301 16.5 -4s3.5 -6.66699 3.5 -12v-28v0z" />
    <glyph glyph-name="circumflex" unicode="&#x2c6;" horiz-adv-x="333" 
d="M287 529c10.667 -15.333 8.66895 -23.001 -5.99805 -23.001h-32c-5.33301 0 -9.5 0.333008 -12.5 1s-6.16699 3.66699 -9.5 9l-62 82l-62 -82c-4 -5.33301 -7.66699 -8.33301 -11 -9s-7 -1 -11 -1h-33c-14 0 -15.667 7.66699 -5 23l79 111
c3.33301 4.66699 6.66602 8.83398 9.99902 12.501s8.33301 5.5 15 5.5h34c7.33301 0 12.666 -1.83301 15.999 -5.5l11 -12.5l79 -111v0z" />
    <glyph glyph-name="caron" unicode="&#x2c7;" horiz-adv-x="333" 
d="M46 634c-10.667 15.333 -8.66895 23.001 5.99805 23.001h32c5.33301 0 9.5 -0.333008 12.5 -1s6.16699 -3.66699 9.5 -9l62 -82l62 82c4 5.33301 7.66699 8.33301 11 9s7 1 11 1h33c14 0 15.667 -7.66699 5 -23l-79 -111
c-3.33301 -4.66699 -6.66602 -8.83398 -9.99902 -12.501s-8.33301 -5.5 -15 -5.5h-34c-7.33301 0 -12.666 1.83301 -15.999 5.5l-11 12.5l-79 111v0z" />
    <glyph glyph-name="breve" unicode="&#x2d8;" horiz-adv-x="333" 
d="M284 624c-10 -32.667 -24.002 -59.1689 -42.002 -79.502s-42 -30.5 -72 -30.5c-16 0 -30.167 3 -42.5 9s-23.166 14 -32.499 24s-17.166 21.833 -23.499 35.5s-11.5 28.167 -15.5 43.5c-1.33301 4 -1.83301 8 -1.5 12s4.16602 6 11.499 6h28c8 0 13.333 -3.33301 16 -10
c5.33301 -19.333 12.5 -35.666 21.5 -48.999s21.833 -20 38.5 -20c17.333 0 30.333 6.83301 39 20.5s15.667 29.834 21 48.501c3.33301 6.66699 9 10 17 10h29c7.33301 0 10.833 -2.33301 10.5 -7s-1.16602 -9 -2.49902 -13z" />
    <glyph glyph-name="dotaccent" unicode="&#x2d9;" horiz-adv-x="333" 
d="M167 628c13.333 0 24.333 -4.33301 33 -13s13 -19.667 13 -33s-4.33301 -24.5 -13 -33.5s-19.667 -13.5 -33 -13.5s-24.5 4.5 -33.5 13.5s-13.5 20.167 -13.5 33.5s4.5 24.333 13.5 33s20.167 13 33.5 13z" />
    <glyph glyph-name="ring" unicode="&#x2da;" horiz-adv-x="333" 
d="M167 691c12.667 0 24.667 -2.5 36 -7.5s21.166 -11.667 29.499 -20s15 -18.166 20 -29.499s7.5 -23.333 7.5 -36s-2.5 -24.667 -7.5 -36s-11.667 -21.166 -20 -29.499s-18.166 -15 -29.499 -20s-23.333 -7.5 -36 -7.5s-24.667 2.5 -36 7.5s-21.166 11.667 -29.499 20
s-15 18.166 -20 29.499s-7.5 23.333 -7.5 36s2.5 24.667 7.5 36s11.667 21.166 20 29.499s18.166 15 29.499 20s23.333 7.5 36 7.5zM167 647c-13.333 0 -25 -4.83301 -35 -14.5s-15 -21.167 -15 -34.5s5 -25 15 -35s21.667 -15 35 -15s24.833 5 34.5 15s14.5 21.667 14.5 35
s-4.83301 24.833 -14.5 34.5s-21.167 14.5 -34.5 14.5z" />
    <glyph glyph-name="ogonek" unicode="&#x2db;" horiz-adv-x="333" 
d="M268 -169c-10 -11.333 -22.3311 -20.001 -36.998 -26.001s-29 -9 -43 -9c-13.333 0 -26.5 1.33301 -39.5 4s-24.833 7.33398 -35.5 14.001s-19.334 15.667 -26.001 27s-10 25.666 -10 42.999c0 12 3 23.833 9 35.5s14.167 23.334 24.5 35.001s22.166 22.667 35.499 33
s27 19.833 41 28.5h58c-10 -7.33301 -21 -16.166 -33 -26.499s-23.167 -21.5 -33.5 -33.5s-18.833 -24.167 -25.5 -36.5s-10 -23.833 -10 -34.5c0 -13.333 4.33301 -23 13 -29s20.667 -9 36 -9c9.33301 0 18.666 1.66699 27.999 5s16.333 7.66602 21 12.999c2 2 5 2 9 0
s7.83301 -5 11.5 -9s6.33398 -8.33301 8.00098 -13s1.16699 -8.66699 -1.5 -12z" />
    <glyph glyph-name="tilde" unicode="&#x2dc;" horiz-adv-x="333" 
d="M316 601c-12 -23.333 -25.6631 -43.5 -40.9961 -60.5s-34.333 -25.5 -57 -25.5c-9.33301 0 -18.833 2.5 -28.5 7.5s-19.167 10.333 -28.5 16l-27 16c-8.66699 5 -16.667 7.5 -24 7.5c-9.33301 0 -18.333 -3.16699 -27 -9.5s-15.334 -13.5 -20.001 -21.5
c-2 -4 -3.83301 -6 -5.5 -6s-3.83398 0.666992 -6.50098 2l-32 16c-4.66699 0.666992 -6 4 -4 10c3.33301 8 7.83301 16.667 13.5 26s12.5 18 20.5 26s16.833 14.667 26.5 20s20.167 8 31.5 8c8.66699 0 18 -2.33301 28 -7s20 -10 30 -16s19.667 -11.333 29 -16
s17.666 -7 24.999 -7c11.333 0 20.666 3.66699 27.999 11s13.333 15.333 18 24c3.33301 5.33301 7.33301 7 12 5l35 -13c6 -2.66699 7.33301 -7 4 -13z" />
    <glyph glyph-name="hungarumlaut" unicode="&#x2dd;" horiz-adv-x="333" 
d="M169 654l-112 -147h-55l67 147h100zM329 654l-112 -147h-55l67 147h100z" />
    <glyph glyph-name="Omega" unicode="&#x3a9;" horiz-adv-x="650" 
d="M325 604c-28 0 -52.1631 -3.66699 -72.4961 -11s-36.833 -20.833 -49.5 -40.5s-22 -47 -28 -82s-9 -79.833 -9 -134.5c0 -45.333 1.16699 -82 3.5 -110s7.16602 -51.5 14.499 -70.5s17.833 -35.167 31.5 -48.5s32.167 -27.666 55.5 -42.999v-64h-195v67h83
c-14.667 12 -27.334 27.167 -38.001 45.5s-19.334 39.166 -26.001 62.499s-11.5 48.833 -14.5 76.5s-4.5 56.5 -4.5 86.5c0 59.333 4.5 111 13.5 155s23.333 80.5 43 109.5s45.334 50.667 77.001 65s70.167 21.5 115.5 21.5s83.833 -7.16699 115.5 -21.5
s57.334 -36 77.001 -65s34 -65.5 43 -109.5s13.5 -95.667 13.5 -155c0 -30 -1.5 -58.833 -4.5 -86.5s-7.83301 -53.167 -14.5 -76.5s-15.334 -44.166 -26.001 -62.499s-23.334 -33.5 -38.001 -45.5h83v-67h-195v64c23.333 15.333 41.833 29.666 55.5 42.999
s24.167 29.5 31.5 48.5s12.166 42.5 14.499 70.5s3.5 64.667 3.5 110c0 54.667 -3 99.5 -9 134.5s-15.333 62.333 -28 82s-29.167 33.167 -49.5 40.5s-44.5 11 -72.5 11z" />
    <glyph glyph-name="pi" unicode="&#x3c0;" horiz-adv-x="591" 
d="M409 0v416h-225v-416h-83v492h389v-492h-81z" />
    <glyph glyph-name="uni0E00" unicode="&#xe00;" horiz-adv-x="195" 
 />
    <glyph glyph-name="uni0E01" unicode="&#xe01;" horiz-adv-x="526" 
d="M249 511c42.667 0 78.667 -5.33398 108 -16.001s53 -24.334 71 -41.001s30.833 -35.167 38.5 -55.5s11.5 -40.166 11.5 -59.499v-326c0 -8.66699 -4.33301 -13 -13 -13h-53c-3.33301 0 -6.33301 0.833008 -9 2.5s-4 5.16699 -4 10.5v311
c0 23.333 -4.66699 42.166 -14 56.499s-21 25.333 -35 33s-28.833 12.834 -44.5 15.501s-29.5 4 -41.5 4c-32 0 -58.833 -3.16699 -80.5 -9.5s-35.5 -11.166 -41.5 -14.499c-3.33301 -2 -5.5 -4.5 -6.5 -7.5s-1.5 -5.83301 -1.5 -8.5v-380c0 -8.66699 -4 -13 -12 -13h-53
c-8.66699 -0 -13 4.33301 -13 13v434c0 8.66699 4 14.667 12 18c26 13.333 54.5 24 85.5 32s62.833 12.667 95.5 14z" />
    <glyph glyph-name="uni0E02" unicode="&#xe02;" horiz-adv-x="456" 
d="M388 503c8.66699 0 13.0029 -4.32812 13.0029 -12.9951v-430c0 -8.66699 -3.66699 -15 -11 -19c-17.333 -8.66699 -34.666 -16.334 -51.999 -23.001c-15.333 -5.33301 -32.333 -10.333 -51 -15s-37 -7 -55 -7c-42 0 -76.167 5.33301 -102.5 16s-46.833 24.167 -61.5 40.5
s-24.5 34.666 -29.5 54.999s-7.5 40.166 -7.5 59.499v103c0 19.333 6 35.166 18 47.499s24.333 23.5 37 33.5c9.33301 8 17.666 15.667 24.999 23s11 15.666 11 24.999v22c0 8.66699 -4.33301 13 -13 13h-65c-8.66699 0 -12.334 4.33301 -11.001 13l6 43
c1.33301 8.66699 6.33301 13 15 13h134c8.66699 0 13 -4.33301 13 -13v-93c0 -20.667 -5.83301 -37.5 -17.5 -50.5s-23.834 -25.167 -36.501 -36.5c-10 -8 -18.833 -16 -26.5 -24s-11.5 -17.667 -11.5 -29v-77c0 -23.333 3.33301 -42 10 -56s15.167 -24.833 25.5 -32.5
s21.833 -12.834 34.5 -15.501s25 -4 37 -4c32.667 0 56.667 3 72 9s25.666 10.667 30.999 14c1.33301 1.33301 2.33301 2.83301 3 4.5s1 5.83398 1 12.501v190v188c0 8.66699 4.33301 13 13 13h52v0z" />
    <glyph glyph-name="uni0E03" unicode="&#xe03;" horiz-adv-x="458" 
d="M390 503c8.66699 0 13.0029 -4.33105 13.0029 -12.998v-430c0 -8.66699 -3.66699 -15 -11 -19c-17.333 -8.66699 -34.666 -16.334 -51.999 -23.001c-15.333 -5.33301 -32.333 -10.333 -51 -15s-37 -7 -55 -7c-42 0 -76.167 5.33301 -102.5 16
s-46.666 24.167 -60.999 40.5s-24 34.666 -29 54.999s-7.5 40.166 -7.5 59.499v99c0 14 3.16699 25.5 9.5 34.5s14 17.167 23 24.5s18.667 14.333 29 21s19.833 14.334 28.5 23.001c9.33301 10 15.833 18.5 19.5 25.5s5.16699 13.167 4.5 18.5v8
c0 8.66699 -3.33301 13 -10 13c-3.33301 0 -6.83301 -0.833008 -10.5 -2.5s-6.83398 -3.5 -9.50098 -5.5l-22 -20c-2.66699 -2 -5.83398 -3 -9.50098 -3s-6.83398 1 -9.50098 3c0 -0.666992 -1 0 -3 2c-3.33301 2 -10.333 8 -21 18c-5.33301 5.33301 -15.666 8 -30.999 8
c-8.66699 0 -12.334 4.33301 -11.001 13l6 43c0.666992 3.33301 3.33398 6.33301 8.00098 9s8.66699 4 12 4c8.66699 0 16 -3 22 -9l20 -22c5.33301 -6 11 -6 17 0l21 22c7.33301 6 14.666 9 21.999 9h57c8.66699 0 13 -4.33301 13 -13v-104c0 -10.667 -1.66699 -20 -5 -28
s-7.83301 -15.167 -13.5 -21.5s-11.834 -12 -18.501 -17l-20 -14.5c-11.333 -7.33301 -21 -14.833 -29 -22.5s-12 -17.167 -12 -28.5v-74c0 -23.333 3.33301 -42 10 -56s15.167 -24.833 25.5 -32.5s22 -12.834 35 -15.501s25.5 -4 37.5 -4c32 0 55.667 3 71 9
s25.666 10.667 30.999 14c1.33301 1.33301 2.33301 2.83301 3 4.5s1 5.83398 1 12.501v378c0 8.66699 4.33301 13 13 13h52v0z" />
    <glyph glyph-name="uni0E04" unicode="&#xe04;" horiz-adv-x="550" 
d="M277 511c29.333 0 57.5049 -4.1709 84.5049 -12.5039s50.667 -20 71 -35s36.666 -33 48.999 -54s18.5 -44.5 18.5 -70.5v-326c0 -8.66699 -4.33301 -13 -13 -13h-53c-8.66699 0 -13 4.33301 -13 13v311c0 18 -3.83301 34.333 -11.5 49s-18 27.334 -31 38.001
s-28.167 18.834 -45.5 24.501s-36 8.5 -56 8.5c-27.333 0 -54 -4 -80 -12s-45.667 -19.667 -59 -35c-2 -2 -4 -4.83301 -6 -8.5s-3 -9.5 -3 -17.5v-88c0 -7.33301 0.5 -10.666 1.5 -9.99902s1.83301 1.33398 2.5 2.00098c8 7.33301 17.167 12 27.5 14s18.833 3 25.5 3h73
c8.66699 0 13.667 -4 15 -12l7 -39c1.33301 -8 -2.33398 -12 -11.001 -12h-89c-11.333 0 -20.5 -2 -27.5 -6s-12.333 -8.83301 -16 -14.5s-6 -11.834 -7 -18.501s-1.5 -12.667 -1.5 -18v-159c0 -8.66699 -4.33301 -13 -13 -13h-53c-8.66699 0 -13 4.33301 -13 13v371
c0 7.33301 0.666992 13 2 17s2.66602 7.33301 3.99902 10c9.33301 16.667 21.833 31.334 37.5 44.001s33.167 23.167 52.5 31.5s40.166 14.5 62.499 18.5s45.166 6 68.499 6z" />
    <glyph glyph-name="uni0E05" unicode="&#xe05;" horiz-adv-x="566" 
d="M468 460c25.333 -26.667 38.0049 -61.333 38.0049 -104v-343c0 -8.66699 -4.33301 -13 -13 -13h-51c-8.66699 -0 -13 4.33301 -13 13v343c-0.666992 7.33301 -2.16699 14.833 -4.5 22.5s-6.16602 14.834 -11.499 21.501s-12.833 12.334 -22.5 17.001
s-21.834 8 -36.501 10c-4.66699 0.666992 -8.5 0.5 -11.5 -0.5s-6.83301 -3.16699 -11.5 -6.5l-41 -36c-6.66699 -5.33301 -13.334 -5.33301 -20.001 0c-0.666992 0.666992 -2.83398 2.66699 -6.50098 6l-12 11l-12.5 11.5c-4 3.66699 -6.66699 6.16699 -8 7.5
c-4.66699 3.33301 -8.66699 5.5 -12 6.5s-7 1.16699 -11 0.5c-14.667 -2 -26.667 -5.33301 -36 -10s-16.833 -10.334 -22.5 -17.001s-9.5 -13.834 -11.5 -21.501s-3 -15.167 -3 -22.5v-73c0 -7.33301 0.5 -10.666 1.5 -9.99902s2.16699 1.33398 3.5 2.00098
c7.33301 7.33301 16.166 12 26.499 14s19.166 3 26.499 3h72c8.66699 0 13.667 -4.33301 15 -13l7 -38c1.33301 -8 -2.33398 -12 -11.001 -12h-89c-11.333 0 -20.5 -2 -27.5 -6s-12.333 -8.83301 -16 -14.5s-6 -11.834 -7 -18.501s-1.5 -12.667 -1.5 -18v-159
c0 -8.66699 -4.33301 -13 -13 -13h-53c-8.66699 0 -13 4.33301 -13 13v343c0 42 13 76.667 39 104c13.333 14.667 31 25.834 53 33.501s46 12.167 72 13.5c9.33301 0 14.833 -0.833008 16.5 -2.5l6.5 -6.5l29 -33c6 -6 12 -6 18 0l30 33
c5.33301 5.33301 9.83301 8.16602 13.5 8.49902s6.5 0.5 8.5 0.5c26.667 -1.33301 51 -5.83301 73 -13.5s39.667 -18.834 53 -33.501z" />
    <glyph glyph-name="uni0E06" unicode="&#xe06;" horiz-adv-x="532" 
d="M465 503c8 0 11.9961 -4.33008 11.9961 -12.9971v-326c0 -18.667 -1.66699 -35 -5 -49s-7 -25.667 -11 -35s-7.66699 -16.5 -11 -21.5l-5 -7.5c-8.66699 -12.667 -22.667 -24.667 -42 -36s-45 -17.666 -77 -18.999c-24 0 -46 3.5 -66 10.5s-37.667 15.667 -53 26
s-28.666 21.333 -39.999 33s-20 21.834 -26 30.501c-1.33301 1.33301 -2.5 2.66602 -3.5 3.99902s-1.5 -0.333984 -1.5 -5.00098v-82c0 -8.66699 -4.33301 -13 -13 -13h-52c-8.66699 0 -13 4.33301 -13 13v258c0 13.333 3.16699 24.333 9.5 33s14 16.5 23 23.5
s18.667 13.5 29 19.5s19.833 13.333 28.5 22c9.33301 9.33301 15.833 17.333 19.5 24s5.5 12.667 5.5 18v11c0 4.66699 -1.16699 7.83398 -3.5 9.50098s-5.16602 2.33398 -8.49902 2.00098s-6.66602 -1.33301 -9.99902 -3s-6 -3.5 -8 -5.5l-22 -19c-6 -6 -12.667 -6 -20 0
l-3 3c-1.33301 1.33301 -3.66602 3.16602 -6.99902 5.49902s-7.66602 6.16602 -12.999 11.499c-2.66699 2 -6.66699 3.83301 -12 5.5s-12 2.5 -20 2.5c-8.66699 0 -12.334 4.33301 -11.001 13l6 43c0.666992 3.33301 3.5 6.33301 8.5 9s9.16699 4 12.5 4
c8.66699 0 15.667 -3.33301 21 -10l20 -22c6 -6 12 -6 18 0l21 22c2.66699 3.33301 6 5.83301 10 7.5s7.66699 2.5 11 2.5h58c8.66699 0 13 -4.33301 13 -13v-87v-13c0 -19.333 -5.83301 -34.333 -17.5 -45s-24.167 -20.334 -37.5 -29.001
c-11.333 -7.33301 -21.333 -14.833 -30 -22.5s-13 -18.167 -13 -31.5v-9c0 -2.66699 0.333008 -5.33398 1 -8.00098c1.33301 -23.333 6.5 -45.333 15.5 -66s21.333 -38.834 37 -54.501s34.667 -28 57 -37s47.5 -13.5 75.5 -13.5c20 0 34.667 3.16699 44 9.5
s15 10.833 17 13.5c10.667 14.667 16 37 16 67v326c0 8.66699 4.33301 13 13 13h53v0z" />
    <glyph glyph-name="uni0E07" unicode="&#xe07;" horiz-adv-x="460" 
d="M387 445c12 -15.333 23.333 -38.668 34 -70.001s16 -70 16 -116c0 -33.333 -3 -65 -9 -95s-16.5 -56.667 -31.5 -80s-35.167 -42.5 -60.5 -57.5s-57.666 -23.833 -96.999 -26.5h-69c-8.66699 0 -14 4 -16 12l-135 453c-2.66699 8 0.333008 13.333 9 16l50 14
c8 2.66699 13.333 -0.333008 16 -9l59 -200l22 -74.5l20 -65.5l14.5 -47.5c3.66699 -12.333 5.83398 -19.166 6.50098 -20.499c0.666992 -5.33301 3.66699 -8.66602 9 -9.99902c2.66699 -0.666992 5 -1 7 -1c14.667 0 29.667 2.16699 45 6.5s29.166 13.333 41.499 27
s22.333 33.167 30 58.5s11.5 59 11.5 101c0 26 -2 48.333 -6 67s-8.33301 34 -13 46s-9 20.833 -13 26.5l-6 8.5c-6 6.66699 -14.833 13.167 -26.5 19.5s-28.5 10.166 -50.5 11.499c-3.33301 0.666992 -5.33301 2.33398 -6 5.00098l-2 8l-8 42
c-0.666992 3.33301 -0.5 6.33301 0.5 9s4.16699 4 9.5 4c65.333 -0.666992 114.666 -21.334 147.999 -62.001z" />
    <glyph glyph-name="uni0E08" unicode="&#xe08;" horiz-adv-x="441" 
d="M379 446c33.333 -41.333 50.001 -103.667 50.001 -187c0 -84 -16.333 -147.667 -49 -191c-34 -45.333 -83.667 -68 -149 -68h-1h-32c-3.33301 0 -6.66602 1.16699 -9.99902 3.5s-5.66602 5.16602 -6.99902 8.49902v1l-32 101l-33 103
c-1.33301 3.33301 -3.66602 6.16602 -6.99902 8.49902s-6.66602 3.5 -9.99902 3.5h-24c-8.66699 0 -12.334 4 -11.001 12l6 38c1.33301 8.66699 6.33301 13 15 13h65c3.33301 0 6.66602 -1.16699 9.99902 -3.5s5.66602 -5.5 6.99902 -9.5c4 -10 9.16699 -24.333 15.5 -43
l20 -58l20 -57.5c6.33301 -18.333 11.166 -32.833 14.499 -43.5c0.666992 -2 1.66699 -4.16699 3 -6.5s3.66602 -3.16602 6.99902 -2.49902c10 1.33301 20.167 4 30.5 8s19.833 10.333 28.5 19s16.334 20 23.001 34s12 31.667 16 53c4 20.667 6 46.334 6 77.001
c0 13.333 -0.5 25.833 -1.5 37.5s-2.16699 22.167 -3.5 31.5c-4 24.667 -11.167 44.5 -21.5 59.5s-22.5 26.667 -36.5 35s-28.667 13.833 -44 16.5s-30 4 -44 4c-16.667 0 -33.167 -1.16699 -49.5 -3.5s-31.833 -5 -46.5 -8s-27.834 -6.5 -39.501 -10.5
s-20.834 -7.33301 -27.501 -10c-3.33301 -1.33301 -6.33301 -1 -9 1s-4.66699 4 -6 6l-20 30c-3.33301 5.33301 -2 10.666 4 15.999c7.33301 6 19.666 11.667 36.999 17s35.666 10 54.999 14s38.333 7.16699 57 9.5s33.334 3.5 44.001 3.5
c14.667 0 30.334 -0.833008 47.001 -2.5s33 -4.66699 49 -9s31.333 -10.666 46 -18.999s27.334 -18.833 38.001 -31.5z" />
    <glyph glyph-name="uni0E09" unicode="&#xe09;" horiz-adv-x="512" 
d="M444 254v-240.993c0 -8.66699 -4 -13 -12 -13h-56c-8.66699 0 -13 4.33301 -13 13v71c0 7.33301 -1.66699 8.66602 -5 3.99902c-6 -8.66699 -13.667 -18.334 -23 -29.001s-20.666 -21 -33.999 -31s-29 -18.5 -47 -25.5s-38.667 -10.833 -62 -11.5
c-32.667 1.33301 -57.667 7.66602 -75 18.999s-30.666 23 -39.999 35c-21.333 28.667 -32 67.334 -32 116.001v55c0 3.33301 -0.666992 6.33301 -2 9s-5 4 -11 4h-16c-8.66699 0 -12.334 4 -11.001 12l6 38c1.33301 8.66699 6.33301 13 15 13h84
c8.66699 0 13 -4.33301 13 -13v-118c0 -24.667 2.66699 -42.334 8 -53.001s8.33301 -16.334 9 -17.001c2 -2.66699 6.83301 -7 14.5 -13s21.5 -9 41.5 -9c26.667 0 50.5 5.5 71.5 16.5s38.667 25.333 53 43s25.333 37.5 33 59.5s11.834 43.667 12.501 65v13
c0 6 -0.333008 10.667 -1 14c0 5.33301 -0.333008 10.666 -1 15.999c-0.666992 4.66699 -1.16699 9.5 -1.5 14.5s-0.833008 9.5 -1.5 13.5c-4 25.333 -11.333 45.666 -22 60.999s-23.334 27.166 -38.001 35.499s-29.834 13.833 -45.501 16.5s-30.5 4 -44.5 4
c-16.667 0 -33 -1.16699 -49 -3.5s-31 -5 -45 -8s-26.5 -6.5 -37.5 -10.5s-19.833 -7.33301 -26.5 -10c-6.66699 -1.33301 -11.667 1 -15 7l-21 30c-3.33301 6.66699 -2.33301 12 3 16c6.66699 3.33301 16.5 7.5 29.5 12.5s28.167 10 45.5 15s36.5 9.33301 57.5 13
s43.167 5.5 66.5 5.5c16 0 32.667 -1.33301 50 -4s33.833 -6.66699 49.5 -12s30.167 -12 43.5 -20s24.333 -17.333 33 -28c30.667 -39.333 47 -98 49 -176v-1v-13z" />
    <glyph glyph-name="uni0E0A" unicode="&#xe0a;" horiz-adv-x="465" 
d="M411 515c8 2 12.001 -1.32812 12.001 -9.99512v-47c0 -21.333 -4.16699 -39.666 -12.5 -54.999s-20.833 -29.333 -37.5 -42c-4 -3.33301 -5.83301 -5.66602 -5.5 -6.99902s0.833008 -2.33301 1.5 -3c26.667 -25.333 40 -57 40 -95v-195c0 -5.33301 -1 -9.33301 -3 -12
s-4.66699 -5.33398 -8 -8.00098c-17.333 -8 -34.666 -15.333 -51.999 -22c-15.333 -5.33301 -32.333 -10.333 -51 -15s-37 -7 -55 -7c-42 0 -76.167 5.33301 -102.5 16s-46.666 24.167 -60.999 40.5s-24 34.666 -29 54.999s-7.5 40.166 -7.5 59.499v102
c0 19.333 5.83301 35.333 17.5 48s24.167 24 37.5 34c9.33301 8 17.5 15.667 24.5 23s10.5 15.666 10.5 24.999v22c0 8.66699 -4.33301 13 -13 13h-64c-8.66699 0 -12.334 4.33301 -11.001 13l6 43c1.33301 8.66699 6.33301 13 15 13h134c8 0 12 -4.33301 12 -13v-93
c0 -21.333 -5.83301 -38.333 -17.5 -51s-23.834 -24.667 -36.501 -36c-9.33301 -8 -17.833 -16.167 -25.5 -24.5s-11.5 -17.833 -11.5 -28.5v-77c0 -23.333 3.33301 -42 10 -56s15.167 -24.833 25.5 -32.5s21.833 -12.834 34.5 -15.501s25 -4 37 -4
c32 0 55.667 2.83301 71 8.5s25.666 10.5 30.999 14.5c1.33301 1.33301 2.33301 3 3 5s1 6 1 12v159c0 18.667 -5 31.834 -15 39.501s-20.667 14.167 -32 19.5c-3.33301 1.33301 -6 3.66602 -8 6.99902s-2.66699 6.66602 -2 9.99902c0 1.33301 0.333008 3 1 5
c0.666992 1.33301 1 2.83301 1 4.5s0.333008 3.16699 1 4.5c1.33301 6 4 10.167 8 12.5s7.33301 4.16602 10 5.49902c12 6 23.333 13.833 34 23.5s16 22.5 16 38.5v49c0 8.66699 4.33301 13.667 13 15l53 9v0z" />
    <glyph glyph-name="uni0E0B" unicode="&#xe0b;" horiz-adv-x="467" 
d="M375 360c-4 -3.33301 -5.83105 -5.65918 -5.49805 -6.99219s0.833008 -2.33301 1.5 -3c26.667 -25.333 40 -57 40 -95v-195c0 -5.33301 -1 -9.33301 -3 -12s-4.66699 -5.33398 -8 -8.00098c-17.333 -8 -34.666 -15.333 -51.999 -22
c-15.333 -5.33301 -32.333 -10.333 -51 -15s-37 -7 -55 -7c-42 0 -76.167 5.33301 -102.5 16s-46.666 24.167 -60.999 40.5s-24 34.666 -29 54.999s-7.5 40.166 -7.5 59.499v99c0 14 3.16699 25.5 9.5 34.5s14 17.167 23 24.5s18.667 14.333 29 21
s19.833 14.334 28.5 23.001c10 9.33301 16.667 17.666 20 24.999s5 13.666 5 18.999s-0.5 10.166 -1.5 14.499s-4.16699 6.5 -9.5 6.5c-2.66699 0 -5.83398 -0.833008 -9.50098 -2.5s-7.16699 -3.5 -10.5 -5.5l-22 -20c-2.66699 -2 -5.83398 -3.16699 -9.50098 -3.5
s-6.83398 0.833984 -9.50098 3.50098l-3 3c-1.33301 1.33301 -3.66602 3.16602 -6.99902 5.49902s-7.66602 6.16602 -12.999 11.499c-3.33301 2 -7.5 3.83301 -12.5 5.5s-11.5 2.5 -19.5 2.5c-8.66699 0 -12.334 4.33301 -11.001 13l6 43
c0.666992 3.33301 3.33398 6.33301 8.00098 9s8.66699 4 12 4s7.16602 -0.833008 11.499 -2.5s7.83301 -4.16699 10.5 -7.5l20 -22c5.33301 -6 11 -6 17 0l21 23c6 6 13.333 9 22 9h57c8.66699 0 13 -4.33301 13 -13v-104c0 -10.667 -1.66699 -20 -5 -28
s-7.83301 -15.167 -13.5 -21.5s-11.834 -12 -18.501 -17l-20 -14.5c-10.667 -7.33301 -20 -15 -28 -23s-12 -17.667 -12 -29v-73c0 -23.333 3.33301 -42 10 -56s15.167 -24.833 25.5 -32.5s21.833 -12.834 34.5 -15.501s25 -4 37 -4c32 0 55.667 2.83301 71 8.5
s25.666 10.5 30.999 14.5c1.33301 1.33301 2.5 2.83301 3.5 4.5s1.5 5.83398 1.5 12.501v159c0 9.33301 -1.33301 17 -4 23s-6.16699 11 -10.5 15s-9.5 7.66699 -15.5 11l-18 10c-3.33301 1.33301 -6 3.66602 -8 6.99902s-2.66699 6.66602 -2 9.99902
c0 1.33301 0.333008 3 1 5c0.666992 1.33301 1 2.83301 1 4.5s0.333008 3.16699 1 4.5c1.33301 6 4 10.167 8 12.5s7.66699 4.16602 11 5.49902c10 4.66699 20.667 12 32 22s17 23.333 17 40v49c0 8.66699 4.33301 13.667 13 15l53 9c8 2 12 -1.33301 12 -10v-47
c0 -21.333 -4.16699 -39.666 -12.5 -54.999s-20.833 -29.333 -37.5 -42z" />
    <glyph glyph-name="uni0E0C" unicode="&#xe0c;" horiz-adv-x="808" 
d="M756 503c8 0 12.0039 -4.33496 12.0039 -13.002v-307c0 -38 -2.5 -66.333 -7.5 -85s-12.167 -35 -21.5 -49c-8 -12 -21.167 -24.333 -39.5 -37s-41.833 -19.334 -70.5 -20.001c-21.333 0 -40.833 3.5 -58.5 10.5s-33.334 15.5 -47.001 25.5s-25.334 20.5 -35.001 31.5
s-17.167 20.833 -22.5 29.5c-2.66699 2.66699 -4 1 -4 -5v-71c0 -8.66699 -4.33301 -13 -13 -13h-53c-8.66699 0 -13 4.33301 -13 13v310c0 23.333 -4.66699 42.166 -14 56.499s-21 25.333 -35 33s-28.833 12.834 -44.5 15.501s-29.5 4 -41.5 4
c-32.667 0 -59.667 -3.16699 -81 -9.5s-35 -11.166 -41 -14.499c-3.33301 -1.33301 -5.5 -3.66602 -6.5 -6.99902s-1.5 -6.33301 -1.5 -9v-301c0 -8.66699 4.33301 -13 13 -13h35c8 0 11.333 -4.33301 10 -13l-7 -52c-1.33301 -8.66699 -6.33301 -13 -15 -13h-101
c-8.66699 0 -13 4.33301 -13 13v433c0 3.33301 1.16699 6.83301 3.5 10.5s5.16602 6.16699 8.49902 7.5c25.333 13.333 53.666 24.333 84.999 33s63.333 13 96 13c42.667 0 78.667 -5.33301 108 -16s53 -24.334 71 -41.001s30.833 -35.167 38.5 -55.5
s11.5 -40.166 11.5 -59.499v-87c0 -24 3.83301 -47 11.5 -69s18.667 -41.167 33 -57.5s31.5 -29.5 51.5 -39.5s42.333 -15 67 -15c9.33301 0 18.5 1.5 27.5 4.5s16.833 8.83301 23.5 17.5c10 14.667 15 37.334 15 68.001v330c0 8.66699 4.33301 13 13 13h52v0z" />
    <glyph glyph-name="uni0E0D" unicode="&#xe0d;" horiz-adv-x="811" 
d="M775 165c0 -19.333 -2.50488 -39.167 -7.50488 -59.5s-14.833 -38.833 -29.5 -55.5s-35 -30.334 -61 -41.001s-60.333 -16 -103 -16c-18.667 0 -38.167 2.33301 -58.5 7s-39.166 9.66699 -56.499 15c-20.667 6.66699 -40.667 14.334 -60 23.001
c-7.33301 4 -11 10.333 -11 19v266c0 23.333 -4.66699 42.166 -14 56.499s-21 25.333 -35 33s-28.833 12.834 -44.5 15.501s-29.5 4 -41.5 4c-32 0 -58.833 -3.16699 -80.5 -9.5s-35.5 -11.166 -41.5 -14.499c-3.33301 -2 -5.5 -4.5 -6.5 -7.5s-1.5 -5.83301 -1.5 -8.5v-301
c0 -8.66699 4.33301 -13 13 -13h35c8.66699 0 12.334 -4.33301 11.001 -13l-8 -52c-1.33301 -8.66699 -6.33301 -13 -15 -13h-101c-8.66699 0 -13 4.33301 -13 13v433c0 8.66699 4 14.667 12 18c26 13.333 54.5 24 85.5 32s62.833 12.667 95.5 14
c42.667 0 78.667 -5.33301 108 -16s53 -24.334 71 -41.001s30.833 -35.167 38.5 -55.5s11.5 -40.166 11.5 -59.499v-226c0 -6.66699 0.333008 -10.834 1 -12.501s1.66699 -3.16699 3 -4.5c5.33301 -4 18.333 -9 39 -15s47.334 -9 80.001 -9c12 0 24.333 1.33301 37 4
s24.334 7.83398 35.001 15.501s19.334 18.667 26.001 33s10 33.166 10 56.499v309c0 8.66699 4.33301 13 13 13h52c8 0 12 -4.33301 12 -13v-324zM770.995 -31.001c5.33301 -5.33301 6.33594 -10.3291 3.00293 -14.9961c-8 -11.333 -17.333 -22.5 -28 -33.5
s-23.167 -21.167 -37.5 -30.5s-31.166 -16.833 -50.499 -22.5s-41.666 -8.5 -66.999 -8.5c-24.667 0 -47.834 2.16699 -69.501 6.5s-37.167 8.16602 -46.5 11.499c-2.66699 1.33301 -4.33398 2.5 -5.00098 3.5s-1.33398 2.16699 -2.00098 3.5s-1 2.66602 -1 3.99902v55
c0 2 0.333008 5 1 9s4.66699 5 12 3l46 -12.5c15.333 -4.33301 36.666 -6.5 63.999 -6.5c8 0 17.833 0.333008 29.5 1s24.167 2.66699 37.5 6s26.833 8.66602 40.5 15.999s26.167 17.666 37.5 30.999c2.66699 2.66699 5.66699 4 9 4c1.33301 0 2.66602 -0.666992 3.99902 -2
l9 -9z" />
    <glyph glyph-name="uni0E0E" unicode="&#xe0e;" horiz-adv-x="529" 
d="M259 510c42.667 0 78.6641 -5.33105 107.997 -15.998s53 -24.334 71 -41.001s30.833 -35.167 38.5 -55.5s11.5 -40.166 11.5 -59.499v-431c0 -17.333 -3.66699 -32.666 -11 -45.999s-15.666 -24.666 -24.999 -33.999c-10.667 -10.667 -22.334 -20 -35.001 -28
c-3.33301 -2 -6.83301 -2.83301 -10.5 -2.5s-6.83398 1.16602 -9.50098 2.49902c-14.667 6.66699 -29.5 13 -44.5 19s-35.833 11 -62.5 15l-29.5 2.5c-11.667 1 -24.334 0.666992 -38.001 -1s-27.667 -5.33398 -42 -11.001s-28.166 -14.167 -41.499 -25.5
c-3.33301 -2.66699 -6.33301 -3.33398 -9 -2.00098l-4 2c-2.66699 3.33301 -5.33398 6.33301 -8.00098 9l-6.5 8.5c-2.33301 3 -4.16602 5.5 -5.49902 7.5c-4.66699 6 -5 11.333 -1 16c9.33301 10 20 19.833 32 29.5s25.833 18 41.5 25s33.334 12.167 53.001 15.5
s42.167 3.33301 67.5 0c18.667 -2.66699 36.334 -6.33398 53.001 -11.001s30.667 -9.33398 42 -14.001c4.66699 -2 8.33398 0 11.001 6s4 15.667 4 29v404c0 23.333 -4.66699 42.166 -14 56.499s-21 25.333 -35 33s-28.833 12.834 -44.5 15.501s-29.5 4 -41.5 4
c-32 0 -58.833 -3.16699 -80.5 -9.5s-35.5 -11.166 -41.5 -14.499c-3.33301 -2 -5.5 -4.5 -6.5 -7.5s-1.5 -5.83301 -1.5 -8.5v-380c0 -8 -4.33301 -12 -13 -12h-100c-8.66699 0 -13.667 4 -15 12l-8 53c-1.33301 8 2.33398 12 11.001 12h34c8.66699 0 13 4.33301 13 13v356
c0 8.66699 4 14.667 12 18c26 13.333 54.5 24 85.5 32s62.833 12.667 95.5 14z" />
    <glyph glyph-name="uni0E0F" unicode="&#xe0f;" horiz-adv-x="529" 
d="M258 510c42.667 0 78.667 -5.33301 108 -16s53 -24.334 71 -41.001s30.833 -35.167 38.5 -55.5s11.5 -40.166 11.5 -59.499v-431c0 -17.333 -3.66699 -32.666 -11 -45.999s-15.666 -24.666 -24.999 -33.999c-10.667 -10.667 -22.334 -20 -35.001 -28
c-3.33301 -1.33301 -7.16602 -1.83301 -11.499 -1.5s-8.16602 1.16602 -11.499 2.49902c-1.33301 0 -5 1.66699 -11 5c-5.33301 2.66699 -13.333 7 -24 13l-44 26c-1.33301 1.33301 -3 2.33301 -5 3s-4.66699 0 -8 -2c-27.333 -18.667 -53.333 -31.667 -78 -39
s-53.334 -11 -86.001 -11h-15c-8.66699 0 -12.334 4.33301 -11.001 13l6 35c1.33301 3.33301 4.66602 4.83301 9.99902 4.5s10.666 -0.166016 15.999 0.500977c16.667 1.33301 33.334 4.66602 50.001 9.99902s32.667 13 48 23c17.333 12.667 32.333 27 45 43
c3.33301 5.33301 6.66602 8 9.99902 8s6.33301 -0.666992 9 -2l38 -21l28 -15.5c8.66699 -5 14.334 -8.16699 17.001 -9.5c5.33301 -2.66699 10 -1.83398 14 2.49902s6 15.166 6 32.499v404c0 23.333 -4.66699 42.166 -14 56.499s-21 25.333 -35 33
s-28.833 12.834 -44.5 15.501s-29.5 4 -41.5 4c-32 0 -58.833 -3.16699 -80.5 -9.5s-35.5 -11.166 -41.5 -14.499c-3.33301 -2 -5.5 -4.5 -6.5 -7.5s-1.5 -5.83301 -1.5 -8.5v-380c0 -8 -4.33301 -12 -13 -12h-100c-8.66699 0 -13.667 4 -15 12l-8 53
c-1.33301 8 2.33398 12 11.001 12h34c8.66699 0 13 4.33301 13 13v356c0 8.66699 4 14.667 12 18c26 13.333 54.5 24 85.5 32s62.833 12.667 95.5 14z" />
    <glyph glyph-name="uni0E10" unicode="&#xe10;" horiz-adv-x="456" 
d="M412 -54c8.66699 0 13 -4.33105 13 -12.998v-18c-0.666992 -17.333 -4.5 -32.666 -11.5 -45.999s-15.167 -24.666 -24.5 -33.999c-10.667 -10.667 -22.334 -20 -35.001 -28c-3.33301 -1.33301 -7.16602 -1.83301 -11.499 -1.5s-8.16602 1.16602 -11.499 2.49902h-1
l-79 44c-1.33301 1.33301 -2.83301 2.33301 -4.5 3s-4.16699 0 -7.5 -2c-27.333 -18.667 -53.5 -31.667 -78.5 -39s-53.833 -11 -86.5 -11h-14h-1c-8.66699 0 -12.334 4.33301 -11.001 13l7 35c0 2.66699 4.33301 4 13 4h3c3.33301 0 6.33301 0.333008 9 1
c17.333 1.33301 34.333 4.66602 51 9.99902s32.667 13.333 48 24c17.333 11.333 32 25.333 44 42c3.33301 5.33301 6.83301 8 10.5 8s6.5 -0.666992 8.5 -2l39 -21l28.5 -15.5c9 -5 14.833 -8.16699 17.5 -9.5c4.66699 -2.66699 9 -1.83398 13 2.49902s6 15.166 6 32.499v6
c0 5.33301 1.33301 8.83301 4 10.5s5.66699 2.5 9 2.5h53zM329 296.002c36 -9.33301 61.0078 -24.6719 75.0078 -46.0049s21 -45.666 21 -72.999v-57c-0.666992 -12.667 -2.33398 -25.667 -5.00098 -39s-9.33398 -25.666 -20.001 -36.999s-26.667 -21 -48 -29
s-51 -13 -89 -15h-10.5h-16h-15h-8.5c-11.333 0 -20 3.66699 -26 11c-2.66699 2.66699 -5 6.33398 -7 11.001l-36 112c-2.66699 8.66699 -8.33398 13 -17.001 13h-25c-8 0 -11.333 4 -10 12c1.33301 10 2.5 17.833 3.5 23.5s1.66699 9.83398 2 12.501
s0.666016 4.33398 0.999023 5.00098l0.5 1c3.33301 6 8 9 14 9h65c3.33301 0 6.66602 -1.16699 9.99902 -3.5s5.66602 -5.16602 6.99902 -8.49902l10.5 -29.5l9 -24.5c3 -8 6 -16.833 9 -26.5l11.5 -35.5c0.666992 -1.33301 2 -3.33301 4 -6s5.66699 -3.33398 11 -2.00098
c36 -0.666992 62.667 3.83301 80 13.5s26 21.167 26 34.5v57c0 12.667 -2.83301 22.5 -8.5 29.5s-14.167 12.167 -25.5 15.5c-1.33301 0.666992 -10.833 2.83398 -28.5 6.50098l-59 12l-61.5 12c-19.333 3.66699 -31.666 6.16699 -36.999 7.5c-12 2 -24.667 5.5 -38 10.5
s-25.5 12.167 -36.5 21.5s-20.167 21.166 -27.5 35.499s-11 32.166 -11 53.499c0 26 6.16699 47.5 18.5 64.5s28.166 30.5 47.499 40.5s40.833 17 64.5 21s46.5 6 68.5 6c16 -0.666992 33.333 -2.5 52 -5.5s35.667 -6.16699 51 -9.5c18 -4 36.333 -9 55 -15
c8.66699 -3.33301 11.667 -8.66602 9 -15.999l-9 -44c-0.666992 -3.33301 -2.33398 -5.83301 -5.00098 -7.5s-5.66699 -1.83398 -9 -0.500977c-14.667 5.33301 -30.334 10 -47.001 14c-14.667 3.33301 -31.167 6.5 -49.5 9.5s-37.5 4.5 -57.5 4.5
c-25.333 0 -45.333 -2.33301 -60 -7s-25.667 -10.167 -33 -16.5s-12 -13 -14 -20s-3 -12.5 -3 -16.5c0 -20 6.33301 -33.667 19 -41s28 -12.666 46 -15.999l30 -6l53.5 -10.5l52 -10c15.667 -3 24.5 -4.83301 26.5 -5.5z" />
    </font>
</defs>
</svg>
