<?xml version="1.0" standalone="no"?>
<!DOCTYPE svg PUBLIC "-//W3C//DTD SVG 1.1//EN" "http://www.w3.org/Graphics/SVG/1.1/DTD/svg11.dtd" >
<svg>
<metadata>
Created by FontForge 20090914 at Wed Feb 27 08:51:43 2013
 By www-data
Copyright (c) 2012 by Superstorefont. All rights reserved.
</metadata>
<defs>
<font id="kruengprung" horiz-adv-x="0" >
  <font-face 
    font-family="kruengprung"
    font-weight="400"
    font-stretch="normal"
    units-per-em="1000"
    panose-1="2 0 0 0 0 0 0 0 0 0"
    ascent="800"
    descent="-200"
    x-height="500.999"
    cap-height="502.998"
    bbox="-252.999 -344 560 800.001"
    underline-thickness="35"
    underline-position="-74"
    unicode-range="U+0020-U+F882"
  />
<missing-glyph horiz-adv-x="569" 
d="M30 0v628h509v-628h-509zM76 35c0 6 -2.66699 9.66699 -8 11h8v-11zM493 590c0 -5.33301 2.66699 -8 8 -8h-8v8zM501 46c-5.33301 -1.33301 -8 -4.33301 -8 -9v9h8zM68 582c4 0 6.66699 2.66699 8 8v-8h-8zM76 46h417v536h-417v-536z" />
    <glyph glyph-name="copyright2" unicode="&#x3b;&#x3b;For&#x20;Education&#x20;Used&#x20;Only&#x3b;&#x3b;" horiz-adv-x="321" 
d="M203 171c6 0 9.00195 -1.66406 9.00195 -4.99707c0 -5.33301 -4.33301 -11 -13 -17s-16.334 -9 -23.001 -9c-10.667 0 -21.167 1.16699 -31.5 3.5s-19.166 6.16602 -26.499 11.499c-12 9.33301 -20.833 23.5 -26.5 42.5s-8.83398 38.167 -9.50098 57.5
c0 8.66699 1.16699 20 3.5 34s5.5 28.333 9.5 43s8.83301 28.167 14.5 40.5s12.167 21.166 19.5 26.499s16 9.16602 26 11.499s20.667 3.5 32 3.5h6c6 -5.33301 9 -9.33301 9 -12c0 -3.33301 -2.16699 -5.66602 -6.5 -6.99902s-9.33301 -2.16602 -15 -2.49902
s-11.167 -0.833008 -16.5 -1.5s-9.33301 -1.33398 -12 -2.00098c-10 -4 -18.333 -11.333 -25 -22s-12.167 -22.334 -16.5 -35.001s-7.5 -25.667 -9.5 -39s-3 -24.333 -3 -33c0 -30 6.33301 -54.833 19 -74.5s33 -29.5 61 -29.5c6.66699 0.666992 11.667 2.5 15 5.5
s6.66602 6.16699 9.99902 9.5zM176.002 518.003l13.002 0.00292969c4.66699 0 9.33398 -0.666992 14.001 -2c15.333 -3.33301 28.666 -8.33301 39.999 -15c6 -4 13.667 -11.5 23 -22.5s15.666 -20.167 18.999 -27.5c2 -6 3.16699 -13 3.5 -21s0.5 -15.667 0.5 -23v-16
c0.666992 -7.33301 1 -15.666 1 -24.999v-28v-24c0 -15.333 0.166992 -27.666 0.5 -36.999s0.5 -18.333 0.5 -27v-13c0 -4 -0.333008 -8 -1 -12c-1.33301 -30.667 -5 -60.667 -11 -90c-1.33301 -6.66699 -3.33301 -13.5 -6 -20.5s-4.66699 -14.5 -6 -22.5
c-5.33301 -19.333 -11.833 -36 -19.5 -50s-17.834 -26.667 -30.501 -38c-2.66699 -2 -5.66699 -3.33301 -9 -4s-6.33301 -1.66699 -9 -3c-4 -2 -8.33301 -3.33301 -13 -4s-9.66699 -1 -15 -1c-22 0 -40.667 5.16699 -56 15.5s-28.166 23.666 -38.499 39.999
s-18.666 34.666 -24.999 54.999s-11 40.666 -14 60.999s-5 39.5 -6 57.5s-1.5 32.667 -1.5 44c0 38 3 76.667 9 116c3.33301 19.333 7.66602 38.666 12.999 57.999s13.333 34.666 24 45.999c12.667 14 28.167 23 46.5 27s36.166 6 53.499 6zM95.0039 478.006
c-11.333 -7.33301 -20.0039 -19.1689 -26.0039 -35.502s-10.667 -32.833 -14 -49.5c-3.33301 -18 -5.83301 -36.333 -7.5 -55s-2.83398 -36.667 -3.50098 -54c0 -4.66699 -0.166992 -9.16699 -0.5 -13.5s-0.5 -8.5 -0.5 -12.5c0 -20 1.33301 -44.333 4 -73
s8.33398 -56 17.001 -82s21.334 -48.333 38.001 -67s39.334 -28 68.001 -28c10 0 19 2 27 6c6.66699 3.33301 13.834 8.83301 21.501 16.5s13.5 15.167 17.5 22.5c3.33301 4.66699 6.5 11 9.5 19s5.5 15.667 7.5 23c5.33301 20.667 10.5 42.334 15.5 65.001
s7.5 46.334 7.5 71.001c0 17.333 0.333008 35 1 53s1 36 1 54v24c0 8 -0.333008 16 -1 24v18c0 5.33301 -0.166992 10.5 -0.5 15.5s-1.16602 9.83301 -2.49902 14.5c-2 8 -7.16699 16.5 -15.5 25.5s-15.833 15.833 -22.5 20.5c-9.33301 6 -19.166 10.833 -29.499 14.5
s-21.5 5.5 -33.5 5.5c-14 0 -27.833 -1.83301 -41.5 -5.5s-25.834 -9.16699 -36.501 -16.5z" />
    <glyph glyph-name="registered2" unicode="&#x3b;&#x3b;Registered&#x3b;&#x3b;" horiz-adv-x="321" 
d="M143 268c6.66699 -6.66699 14.3291 -12.4932 22.9961 -17.4932s16 -11.5 22 -19.5c8.66699 -11.333 15.667 -25.333 21 -42c4.66699 -12 9.16699 -24.333 13.5 -37s10.5 -23.334 18.5 -32.001c-1.33301 -0.666992 -2.16602 -1.33398 -2.49902 -2.00098
s-1.16602 -1.66699 -2.49902 -3c-7.33301 0 -13 2.16699 -17 6.5s-7.33301 9.5 -10 15.5s-4.66699 12.167 -6 18.5s-2.66602 11.833 -3.99902 16.5c-4 8.66699 -7.66699 17.167 -11 25.5s-8.33301 16.166 -15 23.499c-8.66699 9.33301 -19 17.666 -31 24.999
s-22.667 15.666 -32 24.999c0.666992 -16.667 1.33398 -31.667 2.00098 -45s1 -26.666 1 -39.999c0 -8.66699 0.166992 -16.334 0.5 -23.001s0.5 -13.667 0.5 -21c0 -4.66699 0.333008 -9.33398 1 -14.001s1 -9.33398 1 -14.001c-2.66699 -1.33301 -4.33398 -2 -5.00098 -2
c-1.33301 0 -4 0.666992 -8 2c-3.33301 16.667 -5.5 33.834 -6.5 51.501s-1.5 35.834 -1.5 54.501v57v29c0 10 -0.333008 20 -1 30v10c0 11.333 1 23.166 3 35.499s6.33301 22.166 13 29.499c5.33301 4 12.333 8 21 12s18.667 6 30 6c5.33301 0 9.33301 -0.333008 12 -1
c18.667 -2.66699 32.334 -11.167 41.001 -25.5s13 -30.166 13 -47.499c0 -12 -2 -24 -6 -36c-3.33301 -11.333 -10.833 -21.833 -22.5 -31.5s-23.167 -15.834 -34.5 -18.501c-2 -0.666992 -4.66699 -1 -8 -1h-13zM202.995 314.007
c3.33301 5.33301 5.8291 11.4971 7.49609 18.4971s2.5 13.833 2.5 20.5c0 6 -0.666992 12.333 -2 19c-3.33301 11.333 -10.166 21 -20.499 29s-21.5 12 -33.5 12c-2.66699 0 -5 -0.166992 -7 -0.5s-4.33301 -0.833008 -7 -1.5
c-5.33301 -1.33301 -10.666 -4.16602 -15.999 -8.49902s-9.66602 -9.16602 -12.999 -14.499c-4.66699 -8.66699 -7 -19.667 -7 -33c0 -9.33301 0.5 -18.666 1.5 -27.999s1.5 -18.333 1.5 -27v-6c10 -6 21.333 -9 34 -9s24.334 2.83301 35.001 8.5s18.667 12.5 24 20.5z
M175.991 518.004l13.002 0.00292969c4.66699 0 9.33398 -0.666992 14.001 -2c15.333 -3.33301 28.666 -8.33301 39.999 -15c6 -4 13.667 -11.5 23 -22.5s15.666 -20.167 18.999 -27.5c2 -6 3.16699 -13 3.5 -21s0.5 -15.667 0.5 -23v-16
c0.666992 -7.33301 1 -15.666 1 -24.999v-28v-24c0 -15.333 0.166992 -27.666 0.5 -36.999s0.5 -18.333 0.5 -27v-13c0 -4 -0.333008 -8 -1 -12c-1.33301 -30.667 -5 -60.667 -11 -90c-1.33301 -6.66699 -3.33301 -13.5 -6 -20.5s-4.66699 -14.5 -6 -22.5
c-5.33301 -19.333 -11.833 -36 -19.5 -50s-17.834 -26.667 -30.501 -38c-2.66699 -2 -5.66699 -3.33301 -9 -4s-6.33301 -1.66699 -9 -3c-4 -2 -8.33301 -3.33301 -13 -4s-9.66699 -1 -15 -1c-22 0 -40.667 5.16699 -56 15.5s-28.166 23.666 -38.499 39.999
s-18.666 34.666 -24.999 54.999s-11 40.666 -14 60.999s-5 39.5 -6 57.5s-1.5 32.667 -1.5 44c0 38 3 76.667 9 116c3.33301 19.333 7.66602 38.666 12.999 57.999s13.333 34.666 24 45.999c12.667 14 28.167 23 46.5 27s36.166 6 53.499 6zM94.9932 478.007
c-11.333 -7.33301 -20.0039 -19.1689 -26.0039 -35.502s-10.667 -32.833 -14 -49.5c-3.33301 -18 -5.83301 -36.333 -7.5 -55s-2.83398 -36.667 -3.50098 -54c0 -4.66699 -0.166992 -9.16699 -0.5 -13.5s-0.5 -8.5 -0.5 -12.5c0 -20 1.33301 -44.333 4 -73
s8.33398 -56 17.001 -82s21.334 -48.333 38.001 -67s39.334 -28 68.001 -28c10 0 19 2 27 6c6.66699 3.33301 13.834 8.83301 21.501 16.5s13.5 15.167 17.5 22.5c3.33301 4.66699 6.5 11 9.5 19s5.5 15.667 7.5 23c5.33301 20.667 10.5 42.334 15.5 65.001
s7.5 46.334 7.5 71.001c0 17.333 0.333008 35 1 53s1 36 1 54v24c0 8 -0.333008 16 -1 24v18c0 5.33301 -0.166992 10.5 -0.5 15.5s-1.16602 9.83301 -2.49902 14.5c-2 8 -7.16699 16.5 -15.5 25.5s-15.833 15.833 -22.5 20.5c-9.33301 6 -19.166 10.833 -29.499 14.5
s-21.5 5.5 -33.5 5.5c-14 0 -27.833 -1.83301 -41.5 -5.5s-25.834 -9.16699 -36.501 -16.5z" />
    <glyph glyph-name="multiply2" unicode="&#x3b;&#x3b;Multiply&#x3b;&#x3b;" horiz-adv-x="283" 
d="M125 281c-11.333 13.333 -22.8301 28.832 -34.4971 46.499s-21.167 34.834 -28.5 51.501c1.33301 2 4.33301 3 9 3h9c6 -15.333 13.833 -30.833 23.5 -46.5s19.834 -28.834 30.501 -39.501c12 14 22.667 29.167 32 45.5s20.666 30.833 33.999 43.5
c1.33301 0 3 -0.166992 5 -0.5s4.33301 -0.5 7 -0.5v-12c-12 -13.333 -23 -27.666 -33 -42.999l-31 -46l51.5 -79.5l51.5 -81.5c1.33301 -4 2 -6.66699 2 -8l-2 -5c-0.666992 -1.33301 -2 -2 -4 -2c-2.66699 0 -5.33398 0.833008 -8.00098 2.5
s-4.33398 2.83398 -5.00098 3.50098l-47.5 79c-15.667 26.667 -32.167 51.667 -49.5 75c-5.33301 -6 -11.166 -13.833 -17.499 -23.5s-12.666 -20 -18.999 -31l-18.5 -33l-16 -29.5c-0.666992 -1.33301 -1.33398 -2.5 -2.00098 -3.5s-1.33398 -2.16699 -2.00098 -3.5
l-10.5 -18.5c-4.33301 -7.66699 -8.83301 -11.5 -13.5 -11.5c-2.66699 0 -5.33398 3 -8.00098 9c6 12 13 25 21 39l24.5 42.5c8.33301 14.333 16.833 28.166 25.5 41.499z" />
    <glyph glyph-name="divide2" unicode="&#x3b;&#x3b;Divide&#x3b;&#x3b;" horiz-adv-x="284" 
d="M32 302c9.33301 -1.33301 18.332 -2.33203 26.999 -2.99902s17.334 -1 26.001 -1c20 0 39.5 0.833008 58.5 2.5s39.167 2.5 60.5 2.5h25c4.66699 0 9.16699 -0.333008 13.5 -1s8.16602 -2.33398 11.499 -5.00098c0 -6 -0.666992 -10.667 -2 -14
c-1.33301 -0.666992 -3.66602 -1 -6.99902 -1s-6.33301 0.333008 -9 1s-5.66699 1 -9 1c-4 0.666992 -8.16699 1 -12.5 1h-12.5c-19.333 0 -39 -1 -59 -3s-40 -3 -60 -3c-8.66699 0 -17 0.333008 -25 1s-16 1.66699 -24 3c-0.666992 3.33301 -1.5 5.5 -2.5 6.5
s-1.5 3.16699 -1.5 6.5c0 1.33301 0.666992 3.33301 2 6zM147.999 212.001c0 -6 -3.33105 -9 -9.99805 -9c-2.66699 0 -4.33398 0.333008 -5.00098 1c-6 2 -9 7 -9 15c0 2.66699 0.833008 6.16699 2.5 10.5s5.16699 6.5 10.5 6.5s8.66602 -1 9.99902 -3s2 -4.66699 2 -8
c0 -2 -0.166992 -4 -0.5 -6s-0.5 -4.33301 -0.5 -7zM148.001 353.001c0 -6 -3.33105 -9 -9.99805 -9c-2.66699 0 -4.33398 0.333008 -5.00098 1c-6 2 -9 7 -9 15c0 2.66699 0.833008 6.16699 2.5 10.5s5.16699 6.5 10.5 6.5s8.66602 -1 9.99902 -3s2 -4.66699 2 -8
c0 -2 -0.166992 -4 -0.5 -6s-0.5 -4.33301 -0.5 -7z" />
    <glyph glyph-name="quotedblleft" unicode="&#x2018;&#x2018;" horiz-adv-x="185" 
d="M86 532c2.66699 -2.66699 4 -5.66895 4 -9.00195c0 -17.333 -3.33301 -35.5 -10 -54.5s-13.667 -36.167 -21 -51.5c-1.33301 -1.33301 -2.66602 -3.83301 -3.99902 -7.5s-2.83301 -7.16699 -4.5 -10.5s-3.66699 -6.33301 -6 -9s-4.83301 -4 -7.5 -4
c-0.666992 0 -2 1.16699 -4 3.5s-3 4.83301 -3 7.5c0 0.666992 1.33301 3.16699 4 7.5s4.66699 8.16602 6 11.499c4.66699 10.667 9 19.834 13 27.501s7.66699 16.167 11 25.5c3.33301 10.667 5.66602 20.334 6.99902 29.001s4 18.334 8 29.001c0 3.33301 2.33301 5 7 5z
M151 531.998c2.66699 -2.66699 4 -5.66895 4 -9.00195c0 -17.333 -3.33301 -35.5 -10 -54.5s-13.667 -36.167 -21 -51.5c-1.33301 -1.33301 -2.66602 -3.83301 -3.99902 -7.5s-2.83301 -7.16699 -4.5 -10.5s-3.66699 -6.33301 -6 -9s-4.83301 -4 -7.5 -4
c-0.666992 0 -2 1.16699 -4 3.5s-3 4.83301 -3 7.5c0 0.666992 1.33301 3.16699 4 7.5s4.66699 8.16602 6 11.499c4.66699 10.667 9 19.834 13 27.501s7.66699 16.167 11 25.5c3.33301 10.667 5.66602 20.334 6.99902 29.001s4 18.334 8 29.001c0 3.33301 2.33301 5 7 5z
" />
    <glyph glyph-name="quotedblright" unicode="&#x2019;&#x2019;" horiz-adv-x="185" 
d="M99 386c-2.66699 2.66699 -4.00098 5.66797 -4.00098 9.00098c0 17.333 3.33301 35.5 10 54.5s13.667 36.167 21 51.5l3.5 7l5 10.5c1.66699 3.66699 3.66699 6.83398 6 9.50098s4.83301 4 7.5 4c0.666992 0 2 -1.16699 4 -3.5s3 -4.83301 3 -7.5
c0 -0.666992 -1.33301 -3.16699 -4 -7.5s-4.66699 -8.16602 -6 -11.499c-4.66699 -10.667 -9 -19.834 -13 -27.501s-7.66699 -16.167 -11 -25.5c-3.33301 -10.667 -5.66602 -20.334 -6.99902 -29.001s-4 -18.334 -8 -29.001c0 -3.33301 -2.33301 -5 -7 -5zM33.999 386.001
c-2.66699 2.66699 -4.00098 5.66797 -4.00098 9.00098c0 17.333 3.33301 35.5 10 54.5s13.667 36.167 21 51.5l3.5 7l5 10.5c1.66699 3.66699 3.66699 6.83398 6 9.50098s4.83301 4 7.5 4c0.666992 0 2 -1.16699 4 -3.5s3 -4.83301 3 -7.5
c0 -0.666992 -1.33301 -3.16699 -4 -7.5s-4.66699 -8.16602 -6 -11.499c-4.66699 -10.667 -9 -19.834 -13 -27.501s-7.66699 -16.167 -11 -25.5c-3.33301 -10.667 -5.66602 -20.334 -6.99902 -29.001s-4 -18.334 -8 -29.001c0 -3.33301 -2.33301 -5 -7 -5z" />
    <glyph glyph-name="trademark2" unicode="&#x3b;&#x3b;Trademark&#x3b;&#x3b;" horiz-adv-x="320" 
d="M30 495c12.667 3.33301 24.832 5.49805 36.499 6.49805s24.167 1.5 37.5 1.5c10 0 20 -1 30 -3c2.66699 -1.33301 5 -2.16602 7 -2.49902s3 -3.16602 3 -8.49902c0 -2.66699 -1.83301 -4.16699 -5.5 -4.5s-5.83398 -0.5 -6.50098 -0.5c-10 2 -19.333 3 -28 3h-7
c-1.33301 -12 -2.16602 -26 -2.49902 -42s-0.5 -31 -0.5 -45v-42.5c0 -14.333 -0.333008 -28.166 -1 -41.499c0 -3.33301 -0.166992 -6.5 -0.5 -9.5s-1.83301 -5.83301 -4.5 -8.5c-4.66699 1.33301 -7.66699 4.16602 -9 8.49902s-2 9.5 -2 15.5
c0 5.33301 0.333008 10.833 1 16.5s1.33398 10.5 2.00098 14.5c1.33301 8 2 16.167 2 24.5v26.5v81c-7.33301 0 -14.333 -0.666992 -21 -2s-12.667 -2 -18 -2c-2 0 -3.66699 0.333008 -5 1l-6 3c-1.33301 0.666992 -2 2.66699 -2 6v4zM170.998 504.998
c4 0 9.16797 -3.00195 15.501 -9.00195s10.833 -11 13.5 -15c4.66699 -7.33301 8.16699 -15.833 10.5 -25.5s5.83301 -18.5 10.5 -26.5c4.66699 14.667 10.167 28.334 16.5 41.001s14.166 24 23.499 34c8 -0.666992 12.833 -5 14.5 -13s2.5 -15.667 2.5 -23v-8
c0 -7.33301 0.166992 -14 0.5 -20s0.5 -12.667 0.5 -20c0 -11.333 0.833008 -22.666 2.5 -33.999s2.83398 -22.666 3.50098 -33.999c0 -8.66699 0.833008 -17.334 2.5 -26.001s2.5 -16.667 2.5 -24v-4c-0.666992 -0.666992 -1.66699 -1 -3 -1c-2.66699 0 -5 1.16699 -7 3.5
s-3.33301 5.16602 -4 8.49902c-1.33301 7.33301 -2.33301 14.833 -3 22.5s-1 14.167 -1 19.5c0 11.333 -0.833008 23.833 -2.5 37.5s-2.83398 33.167 -3.50098 58.5c0 4.66699 -0.166992 9.83398 -0.5 15.501s-1.16602 10.5 -2.49902 14.5
c-6.66699 -6.66699 -11.834 -13.834 -15.501 -21.501s-6.66699 -15.167 -9 -22.5l-6.5 -20c-2 -6 -4.33301 -10.333 -7 -13c-6 5.33301 -10.333 11.666 -13 18.999l-8 22.5c-2.66699 7.66699 -5.66699 14.834 -9 21.501s-8.66602 12.334 -15.999 17.001
c-4.66699 -15.333 -6.66699 -32.333 -6 -51s0.333984 -37 -0.999023 -55l-2 -25c-0.666992 -8 -1.33398 -17 -2.00098 -27c0 -2 0.166992 -4.16699 0.5 -6.5s0.5 -4.5 0.5 -6.5c0 -4 -1.33301 -7 -4 -9c-7.33301 4.66699 -11 12 -11 22c0 34 0.666992 67.5 2 100.5
s4.66602 60.5 9.99902 82.5h5z" />
    <glyph glyph-name="rulakkhangyao" unicode="&#xe24;&#xe32;" horiz-adv-x="370" 
d="M323 -145c-6.66699 2.66699 -10.6621 6.34277 -11.9951 11.0098s-2 11.667 -2 21v323c1.33301 3.33301 2 6.66602 2 9.99902s0.333008 6.66602 1 9.99902c2.66699 28 4.16699 54.667 4.5 80s1.16602 51.666 2.49902 78.999c0 8 0.166992 15.5 0.5 22.5
s0.5 14.167 0.5 21.5c0 13.333 -5 25 -15 35s-21.667 15 -35 15c-18.667 0 -32.834 -5.33301 -42.501 -16s-16.834 -25.667 -21.501 -45c-0.666992 -2.66699 -1.5 -5.33398 -2.5 -8.00098s-1.5 -5.66699 -1.5 -9l-3 -4c0.666992 -10.667 1.16699 -22 1.5 -34
s0.5 -24.667 0.5 -38c0 -30 -0.166992 -61.5 -0.5 -94.5s-0.5 -64.5 -0.5 -94.5v-43.5c0 -17.667 0.166992 -36.5 0.5 -56.5l1 -61c0.333008 -20.667 0.666016 -39.5 0.999023 -56.5s1 -31.5 2 -43.5s1.83301 -19.333 2.5 -22h-6c-4 0 -8 1 -12 3
c-2 104.667 -3 196.334 -3 275.001s-1 144.334 -3 197.001s-5.83301 92.167 -11.5 118.5s-14.834 39.5 -27.501 39.5c-14 0 -26.667 -3.33301 -38 -10s-20.333 -15 -27 -25c-6.66699 -11.333 -12.667 -24.333 -18 -39s-9.66602 -29 -12.999 -43c6 0 11 -0.833008 15 -2.5
s8.33301 -3.16699 13 -4.5c1.33301 -4 2.16602 -8.33301 2.49902 -13s0.5 -9.66699 0.5 -15c0 -18 -1 -34.333 -3 -49l-3.5 -64c-1 -18.667 -1.66699 -36.667 -2 -54s-0.833008 -35 -1.5 -53s-1.66699 -38.667 -3 -62c0 -18.667 5.33301 -33 16 -43
c2.66699 1.33301 6.33398 3.83301 11.001 7.5s9 5.5 13 5.5s6.66699 -3 8 -9c0 -3.33301 -3 -7.83301 -9 -13.5s-11.667 -8.5 -17 -8.5c-3.33301 0 -6.83301 1.66699 -10.5 5s-7.16699 7.16602 -10.5 11.499s-6.33301 8.66602 -9 12.999s-4.33398 8.16602 -5.00098 11.499
c-0.666992 1.33301 -1 3.16602 -1 5.49902v6.5v34c0 28.667 0.166992 53.667 0.5 75s0.833008 41.833 1.5 61.5s1.66699 40.167 3 61.5s3 46.666 5 75.999c-4 0 -8.16699 -0.333008 -12.5 -1s-7.16602 -1 -8.49902 -1c-2.66699 2 -4.66699 4 -6 6s-3 4.33301 -5 7
c1.33301 12.667 4.66602 25 9.99902 37l12 36.5c4 12.333 9.5 23.166 16.5 32.499s15.833 17 26.5 23s24.334 9 41.001 9c14.667 0 27.5 -4 38.5 -12s17.167 -19 18.5 -33c0 -2.66699 0.666992 -7.33398 2 -14.001c4.66699 13.333 11.667 24.666 21 33.999
c6 7.33301 13.333 12.833 22 16.5s17 5.5 25 5.5c12 0 23.667 -2.83301 35 -8.5s19.666 -12.167 24.999 -19.5c5.33301 -6 9.5 -14.333 12.5 -25s4.5 -22 4.5 -34v-8c-2.66699 -41.333 -5 -84.166 -7 -128.499s-3 -88.5 -3 -132.5v-277
c0 -2.66699 -0.333008 -5.33398 -1 -8.00098s-2.66699 -4.66699 -6 -6z" />
    <glyph glyph-name="lulakkhangyao" unicode="&#xe26;&#xe32;" horiz-adv-x="395" 
d="M348 -145c-6.66699 2.66699 -10.666 6.33789 -11.999 11.0049s-2 11.667 -2 21v323c1.33301 3.33301 2 6.66602 2 9.99902s0.333008 6.66602 1 9.99902c2.66699 28 4.16699 54.667 4.5 80s1.16602 51.666 2.49902 78.999c0 8 0.166992 15.5 0.5 22.5s0.5 14.167 0.5 21.5
c0 13.333 -5 25 -15 35s-21.667 15 -35 15c-18.667 0 -32.834 -5.33301 -42.501 -16s-16.834 -25.667 -21.501 -45c-0.666992 -2.66699 -1.5 -5.33398 -2.5 -8.00098s-1.5 -5.66699 -1.5 -9l-4 -5c0.666992 -10.667 1.16699 -21.834 1.5 -33.501s0.5 -24.167 0.5 -37.5
c0 -30 -0.166992 -61.5 -0.5 -94.5s-0.5 -64.5 -0.5 -94.5v-43.5c0 -17.667 0.166992 -36.5 0.5 -56.5l1 -61c0.333008 -20.667 0.666016 -39.5 0.999023 -56.5s0.833008 -31.5 1.5 -43.5s1.66699 -19.333 3 -22h-6c-4 0 -8 1 -12 3c-2 104.667 -3 196.334 -3 275.001
s-1 144.334 -3 197.001s-5.83301 92.167 -11.5 118.5s-14.834 39.5 -27.501 39.5c-14 0 -26.667 -3.33301 -38 -10s-20.333 -15 -27 -25c-6.66699 -11.333 -12.667 -24.333 -18 -39s-9.66602 -29 -12.999 -43c6 0 11 -0.833008 15 -2.5s8.33301 -3.16699 13 -4.5
c1.33301 -4 2.16602 -8.33301 2.49902 -13s0.5 -9.66699 0.5 -15c0 -18 -1 -34.333 -3 -49c-1.33301 -24 -2.33301 -43.167 -3 -57.5s-1 -27.333 -1 -39s-0.166992 -24.334 -0.5 -38.001s-1.16602 -32.167 -2.49902 -55.5v-7c0 -5.33301 0.166992 -10.333 0.5 -15
s0.5 -9.66699 0.5 -15v-21c0 -10 -0.666992 -16.667 -2 -20c-2 -6 -6.66699 -11.333 -14 -16s-14.666 -7.33398 -21.999 -8.00098c-5.33301 0 -11 2.83301 -17 8.5s-9 10.167 -9 13.5c0.666992 6 3.33398 9 8.00098 9c4 0 8.33301 -1.83301 13 -5.5
s8.33398 -6.16699 11.001 -7.5c5.33301 5.33301 9.33301 10.166 12 14.499s4 11.166 4 20.499c0 28.667 0.166992 55.334 0.5 80.001l1 72.5c0.333008 23.667 1 47.834 2 72.501s2.5 51.667 4.5 81c-4 0 -8.16699 -0.333008 -12.5 -1s-7.16602 -1 -8.49902 -1
c-2.66699 2 -4.66699 4 -6 6s-3 4.33301 -5 7c1.33301 12.667 4.66602 25 9.99902 37l12 36.5c4 12.333 9.5 23.166 16.5 32.499s15.833 17 26.5 23s24.334 9 41.001 9c14.667 0 27.5 -4 38.5 -12s17.167 -19 18.5 -33c0 -2.66699 0.166992 -5.16699 0.5 -7.5
s0.833008 -5.16602 1.5 -8.49902c4.66699 14 12 26 22 36c6 7.33301 13.333 12.833 22 16.5s17 5.5 25 5.5c12 0 23.667 -2.83301 35 -8.5s19.666 -12.167 24.999 -19.5c5.33301 -6 9.5 -14.333 12.5 -25s4.5 -22 4.5 -34v-8c-2.66699 -41.333 -5 -84.166 -7 -128.499
s-3 -88.5 -3 -132.5v-277c0 -2.66699 -0.333008 -5.33398 -1 -8.00098s-2.66699 -4.66699 -6 -6z" />
    <glyph glyph-name=".notdef" horiz-adv-x="569" 
d="M30 0v628h509v-628h-509zM76 35c0 6 -2.66699 9.66699 -8 11h8v-11zM493 590c0 -5.33301 2.66699 -8 8 -8h-8v8zM501 46c-5.33301 -1.33301 -8 -4.33301 -8 -9v9h8zM68 582c4 0 6.66699 2.66699 8 8v-8h-8zM76 46h417v536h-417v-536z" />
    <glyph glyph-name="space" unicode=" " horiz-adv-x="185" 
 />
    <glyph glyph-name="exclam" unicode="!" horiz-adv-x="97" 
d="M34 500c5.33301 -0.666992 8.83398 -2.66309 10.501 -5.99609s2.5 -7.66602 2.5 -12.999c0 -4.66699 -0.166992 -9.33398 -0.5 -14.001s-0.5 -9 -0.5 -13c1.33301 -28 2.66602 -57.833 3.99902 -89.5s2.33301 -63.167 3 -94.5v-4c0.666992 -18.667 1 -37.5 1 -56.5
s0.666992 -38.167 2 -57.5c1.33301 -15.333 2 -30.5 2 -45.5s0.666992 -30.167 2 -45.5c1.33301 -6.66699 2 -12.334 2 -17.001s-1 -8.33398 -3 -11.001c-8.66699 2.66699 -13.667 8.16699 -15 16.5s-2 18.166 -2 29.499v60c-0.666992 9.33301 -1.5 18.166 -2.5 26.499
s-1.83301 17.166 -2.5 26.499c-0.666992 10 -1 20.167 -1 30.5v31.5c0 36.667 -0.166992 68.334 -0.5 95.001s-1.16602 52.667 -2.49902 78c-0.666992 9.33301 -1.33398 19.333 -2.00098 30s-1 19.667 -1 27c0 10.667 1.33301 16 4 16zM66.001 -13.9961
c0 -6 -3.33105 -9 -9.99805 -9c-2.66699 0 -4.33398 0.333008 -5.00098 1c-6 2 -9 7 -9 15c0 2.66699 0.833008 6.16699 2.5 10.5s5.16699 6.5 10.5 6.5s8.66602 -1 9.99902 -3s2 -4.66699 2 -8c0 -2 -0.166992 -4 -0.5 -6s-0.5 -4.33301 -0.5 -7z" />
    <glyph glyph-name="quotedbl" unicode="&#x22;" horiz-adv-x="129" 
d="M36 498c5.33301 0 8.49902 -5.49707 9.49902 -16.4971s1.5 -23.833 1.5 -38.5v-7c0 -7.33301 -0.166992 -14.5 -0.5 -21.5s-0.5 -14.167 -0.5 -21.5c0 -4.66699 0.5 -9 1.5 -13s1.5 -7.66699 1.5 -11c0 -2.66699 -0.5 -5.33398 -1.5 -8.00098s-2.5 -4 -4.5 -4
c-6 0 -9.66699 3.66699 -11 11s-2 14.666 -2 21.999v48c0 15.333 0.333008 29.166 1 41.499s2.33398 18.5 5.00098 18.5zM87.999 500.003c7.33301 0 11.002 -4.00098 11.002 -12.001c0 -4.66699 -0.333008 -8.33398 -1 -11.001c-0.666992 -4 -1 -7.83301 -1 -11.5v-11.5v-23
c0 -7.33301 -0.333008 -14.166 -1 -20.499s-1 -12.833 -1 -19.5v-6.5c0 -2.33301 0.333008 -4.5 1 -6.5c0 -3.33301 0.333008 -6.16602 1 -8.49902s1 -4.83301 1 -7.5c0 -4 -1.33301 -7.33301 -4 -10c-5.33301 2.66699 -8.83301 6 -10.5 10s-2.83398 9.33301 -3.50098 16
c0 3.33301 -0.166992 6.83301 -0.5 10.5s-0.5 7.16699 -0.5 10.5c0 16 0.666992 32.5 2 49.5s2.66602 32.167 3.99902 45.5c0 2 1 4 3 6z" />
    <glyph glyph-name="numbersign" unicode="#" horiz-adv-x="297" 
d="M99 221c0 12.667 0.336914 28.8379 1.00391 48.5049s1 37.167 1 52.5v9c-1.33301 0.666992 -5 1.5 -11 2.5s-12.333 2.33301 -19 4s-12.834 3.66699 -18.501 6s-8.5 5.16602 -8.5 8.49902c0 2.66699 1.33301 4.16699 4 4.5s5.66699 0.5 9 0.5c6 0 13 -0.833008 21 -2.5
s15 -3.5 21 -5.5v11c0 18.667 1.33301 35.167 4 49.5s4 30.166 4 47.499v11v7c0 3.33301 0.333008 6.83301 1 10.5s1.66699 7 3 10s3 4.5 5 4.5c1.33301 0 3 -3.33301 5 -10c0 -22 -1 -41.5 -3 -58.5s-3 -35.5 -3 -55.5v-32c11.333 -5.33301 22.666 -10 33.999 -14
s22.666 -7.66699 33.999 -11c0.666992 24.667 2.66699 50.5 6 77.5s5.66602 53.5 6.99902 79.5v16c0 5.33301 1.66699 8 5 8c1.33301 0 3 -0.5 5 -1.5s3.33301 -4.16699 4 -9.5c0 -24 -1.83301 -48.333 -5.5 -73s-5.5 -48 -5.5 -70v-33c9.33301 -5.33301 20 -9.5 32 -12.5
s23.333 -6.5 34 -10.5v-5c0 -5.33301 -2.33301 -9 -7 -11c-11.333 2 -21.666 5.66699 -30.999 11s-19 9.33301 -29 12c-0.666992 -15.333 -2.16699 -32.833 -4.5 -52.5s-3.5 -38.167 -3.5 -55.5c11.333 -3.33301 23.333 -7.5 36 -12.5s25.667 -7.5 39 -7.5
c1.33301 -2.66699 2 -5.66699 2 -9c0 -2 -0.666992 -3 -2 -3c-13.333 0 -25.833 2.16699 -37.5 6.5s-24.167 7.83301 -37.5 10.5c0 -26.667 -1.33301 -53.334 -4 -80.001s-4 -54 -4 -82c0 -8 -5 -12 -15 -12c-2.66699 0.666992 -4 3.33398 -4 8.00098v21
c0 11.333 0.5 23.833 1.5 37.5l3 41c1 13.667 2 26.667 3 39s1.5 23.166 1.5 32.499c-9.33301 2.66699 -18.833 6 -28.5 10s-18.834 7 -27.501 9c0 -25.333 -2 -53.666 -6 -84.999s-6.66699 -60.666 -8 -87.999c0 -2.66699 -1.16699 -7.5 -3.5 -14.5
s-5.16602 -10.5 -8.49902 -10.5c-2.66699 0 -4.5 1.16699 -5.5 3.5s-1.5 5.16602 -1.5 8.49902s0.166992 6.66602 0.5 9.99902s0.5 6.66602 0.5 9.99902c0.666992 16.667 1.83398 32 3.50098 46s3.16699 27.5 4.5 40.5l4 40c1.33301 13.667 2.66602 28.834 3.99902 45.501
c-3.33301 2 -8.5 4.33301 -15.5 7l-21 8l-19 7.5c-5.66699 2.33301 -9.16699 4.16602 -10.5 5.49902l-4 4c0 1.33301 0.666992 2.66602 2 3.99902s2.66602 2 3.99902 2c3.33301 0 6.83301 -0.666992 10.5 -2l10.5 -4l21 -8c6.66699 -2.66699 13.667 -5 21 -7z
M183.004 303.004c-8 4 -14.832 6.83398 -20.499 8.50098l-15.5 4.5l-14 4c-4.66699 1.33301 -10.334 3.33301 -17.001 6c0 -2.66699 -0.166992 -5 -0.5 -7s-0.5 -4.33301 -0.5 -7v-97c9.33301 -4 18.833 -7.66699 28.5 -11l28.5 -10c2 14.667 4 32.167 6 52.5
s3.66699 39.166 5 56.499z" />
    <glyph glyph-name="dollar" unicode="$" horiz-adv-x="256" 
d="M226 91c0 -25.333 -6.66699 -46.8359 -20 -64.5029s-33 -27.5 -59 -29.5c0.666992 -9.33301 1 -18.5 1 -27.5v-26.5v-8c-4 -4 -8 -6 -12 -6l-5 68c-14 1.33301 -28 4.5 -42 9.5s-25 11.167 -33 18.5l-16 14c-6.66699 6 -10 11.333 -10 16c0 2.66699 1.66699 5 5 7
c6.66699 -1.33301 13.334 -4.33301 20.001 -9l20.5 -15c7 -5.33301 14.833 -10.166 23.5 -14.499s19 -6.5 31 -6.5c-1.33301 34 -2.5 69.167 -3.5 105.5s-2.16699 71.833 -3.5 106.5c-18 12.667 -35.333 28 -52 46c-13.333 15.333 -22.833 31.333 -28.5 48s-8.5 35 -8.5 55
c0 22.667 4 43 12 61c8.66699 14.667 19 28.334 31 41.001s27.667 20.667 47 24l2 32c0.666992 10.667 1.66699 21 3 31c4 0 8 -2 12 -6v-11c0 -4 -0.333008 -9.83301 -1 -17.5s-1 -14.167 -1 -19.5s0.666992 -8 2 -8c4 0 9.33301 -0.166992 16 -0.5s13.167 -1 19.5 -2
s11.666 -3 15.999 -6s6.5 -6.83301 6.5 -11.5c0 -1.33301 -0.666992 -4 -2 -8c-7.33301 2 -15.166 3.66699 -23.499 5s-16.5 2 -24.5 2h-12v-40c0 -21.333 -0.166992 -42.666 -0.5 -63.999s-0.5 -42.666 -0.5 -63.999c0 -11.333 0.166992 -23.333 0.5 -36
s0.833008 -26.334 1.5 -41.001l20 -15c10 -7.33301 19.667 -15.5 29 -24.5s16.666 -19.167 21.999 -30.5c7.33301 -13.333 12 -26.333 14 -39s3 -25.667 3 -39zM49 366.997c0 -13.333 1.99902 -25.333 5.99902 -36s9.16699 -20.667 15.5 -30s14 -18 23 -26l28.5 -25l-3 82
c1.33301 33.333 2.33301 59.5 3 78.5s1 37.167 1 54.5v16c-11.333 -2 -20.666 -6.33301 -27.999 -13c-13.333 -10.667 -24.333 -25 -33 -43s-13 -37.333 -13 -58zM187.999 34.9971c6 5.33301 11.166 12.999 15.499 22.999s6.5 21 6.5 33c0 30.667 -6.5 55.334 -19.5 74.001
s-30.167 36 -51.5 52l4 -98l4 -100c16.667 2 30.334 7.33301 41.001 16z" />
    <glyph glyph-name="percent" unicode="%" horiz-adv-x="264" 
d="M225 517c6 -2 8.99707 -6 8.99707 -12c0 -4.66699 -1.16699 -9.66699 -3.5 -15s-4.16602 -9.66602 -5.49902 -12.999c-7.33301 -17.333 -13.833 -35 -19.5 -53l-17.5 -56c-7.33301 -21.333 -15 -41.666 -23 -60.999l-23 -58c-1.33301 -2.66699 -4.5 -11 -9.5 -25
l-18 -49.5l-22.5 -60.5l-22.5 -59c-7 -18 -13.167 -32.833 -18.5 -44.5s-8.66602 -17.5 -9.99902 -17.5s-3.5 2.16699 -6.5 6.5s-4.5 7.5 -4.5 9.5c4 5.33301 8.5 14.166 13.5 26.499s9.83301 25.333 14.5 39l14 39.5c4.66699 12.667 8.66699 22.334 12 29.001
c4 16 9.33301 31.333 16 46s13 30 19 46c5.33301 15.333 11.333 30.666 18 45.999s13 30.666 19 45.999c12 32 22.833 64 32.5 96s21.834 63.333 36.501 94zM88.9971 385c3.33301 0 5.66895 -1.16504 7.00195 -3.49805s2.66602 -4.83301 3.99902 -7.5v-4
c0 -4 -0.833008 -8.66699 -2.5 -14s-6.16699 -8 -13.5 -8h-4c-6 5.33301 -9 11.666 -9 18.999c0 5.33301 1.66699 9.66602 5 12.999s7.66602 5 12.999 5zM194 206.002c3.33301 0 5.66895 -1.16504 7.00195 -3.49805s2.66602 -4.83301 3.99902 -7.5v-4
c0 -4 -0.833008 -8.66699 -2.5 -14s-6.16699 -8 -13.5 -8h-4c-6 5.33301 -9 11.666 -9 18.999c0 5.33301 1.66699 9.66602 5 12.999s7.66602 5 12.999 5z" />
    <glyph glyph-name="ampersand" unicode="&#x26;" horiz-adv-x="271" 
d="M111 246c13.333 -26 26.3291 -53.8311 38.9961 -83.498s24.334 -58.5 35.001 -86.5c5.33301 4 10 9.5 14 16.5s7.66699 14.333 11 22s6.83301 15.167 10.5 22.5s7.83398 13.666 12.501 18.999l6 -1.5c1.33301 -0.333008 2 -1.83301 2 -4.5
c0 -5.33301 -1.16699 -10 -3.5 -14s-4.5 -8 -6.5 -12l-16.5 -34c-5.66699 -12 -12.167 -21 -19.5 -27c3.33301 -8 8.16602 -17.333 14.499 -28s9.5 -20.334 9.5 -29.001c0 -4 -2.66699 -6 -8 -6c-2 -0 -4.5 2.83301 -7.5 8.5s-5.16699 10.167 -6.5 13.5
c-3.33301 5.33301 -6 10.666 -8 15.999s-4 9 -6 11c-27.333 -32.667 -52.666 -49 -75.999 -49c-17.333 0 -31.333 8.16699 -42 24.5s-16 38.833 -16 67.5c0 12 2 24.667 6 38c4 19.333 9.33301 38.5 16 57.5s14 37.5 22 55.5c-15.333 24.667 -29.166 52.334 -41.499 83.001
s-19.5 65 -21.5 103c0 11.333 2.83301 23.333 8.5 36s13 24.5 22 35.5s19.333 20 31 27s23.167 10.5 34.5 10.5c7.33301 0 14.666 -2.66699 21.999 -8c3.33301 -2 7.83301 -6.5 13.5 -13.5s9.16699 -12.167 10.5 -15.5c2 -4 3.5 -9 4.5 -15s1.83301 -11.333 2.5 -16
c0 -20 -2.66699 -40.5 -8 -61.5s-11.666 -40.167 -18.999 -57.5l-20.5 -55.5c-6.33301 -17.667 -13.166 -34.167 -20.499 -49.5zM140.996 363.002l16.501 46.999c5.66699 16 8.5 32.667 8.5 50c0 6.66699 -0.333008 11.667 -1 15c-1.33301 10.667 -5.5 20.5 -12.5 29.5
s-16.833 13.5 -29.5 13.5c-8 0 -16.667 -3.33301 -26 -10s-18 -14.834 -26 -24.501s-14.667 -19.667 -20 -30s-8 -19.166 -8 -26.499c0 -17.333 2.33301 -33.833 7 -49.5s10 -31.167 16 -46.5c5.33301 -12.667 10.666 -24.667 15.999 -36s11.333 -21.666 18 -30.999l21.5 49
c7 16 13.5 32.667 19.5 50zM80.9971 160.001l-10.499 -35.499c-3.66699 -12.333 -5.5 -24.833 -5.5 -37.5c0 -6 0.833008 -13.333 2.5 -22s4.16699 -16.834 7.5 -24.501s7.66602 -14.167 12.999 -19.5s12 -8 20 -8c4.66699 0.666992 10.5 3 17.5 7s14 8.66699 21 14
s13.167 11 18.5 17s8.33301 11 9 15c0 3.33301 -1.83301 9.33301 -5.5 18s-6.16699 15 -7.5 19c-9.33301 22 -18.833 43 -28.5 63l-28.5 59l-12 -31c-4 -10.667 -7.66699 -22 -11 -34z" />
    <glyph glyph-name="quotesingle" unicode="'" horiz-adv-x="79" 
d="M36 498c5.33301 0 8.49902 -5.49707 9.49902 -16.4971s1.5 -23.833 1.5 -38.5v-7c0 -7.33301 -0.166992 -14.5 -0.5 -21.5s-0.5 -14.167 -0.5 -21.5c0 -4.66699 0.5 -9 1.5 -13s1.5 -7.66699 1.5 -11c0 -2.66699 -0.5 -5.33398 -1.5 -8.00098s-2.5 -4 -4.5 -4
c-6 0 -9.66699 3.66699 -11 11s-2 14.666 -2 21.999v48c0 15.333 0.333008 29.166 1 41.499s2.33398 18.5 5.00098 18.5z" />
    <glyph glyph-name="parenleft" unicode="(" horiz-adv-x="163" 
d="M112 553c4 -4 5.99805 -8.00293 5.99805 -12.0029c0 -0.666992 -0.166992 -1.16699 -0.5 -1.5s-0.5 -1.16602 -0.5 -2.49902c-1.33301 -3.33301 -4.16602 -6 -8.49902 -8s-8.16602 -4 -11.499 -6c-7.33301 -6 -13.333 -13.167 -18 -21.5s-9 -18.166 -13 -29.499
c-9.33301 -24.667 -15 -52.167 -17 -82.5s-3 -62.5 -3 -96.5c0 -11.333 0.166992 -24.5 0.5 -39.5s0.833008 -30.167 1.5 -45.5s1.5 -30.166 2.5 -44.499s2.16699 -26.5 3.5 -36.5c1.33301 -7.33301 2.83301 -14.666 4.5 -21.999s3.16699 -14.666 4.5 -21.999
c1.33301 -6 4.5 -15.167 9.5 -27.5s10.833 -24.833 17.5 -37.5s13.334 -24.5 20.001 -35.5s12.334 -17.833 17.001 -20.5c1.33301 -2 2.66602 -3.33301 3.99902 -4s2 -1.66699 2 -3c0 -2 -0.666992 -3.66699 -2 -5c-2 -2 -4.66699 -3 -8 -3
c-19.333 14.667 -34.833 34.667 -46.5 60s-20.834 52.166 -27.501 80.499s-11.167 56.666 -13.5 84.999s-3.83301 53.5 -4.5 75.5c0 10 -0.166992 20 -0.5 30s-0.5 20.333 -0.5 31c0 38 2.83301 75.833 8.5 113.5s16.5 70.5 32.5 98.5c4 6.66699 10.667 13.667 20 21
s16.333 11 21 11z" />
    <glyph glyph-name="parenright" unicode=")" horiz-adv-x="163" 
d="M51 553c4.66699 0 11.665 -3.66406 20.998 -10.9971s16 -14.333 20 -21c16 -28 26.833 -60.833 32.5 -98.5s8.5 -75.5 8.5 -113.5c0 -10.667 -0.166992 -21 -0.5 -31s-0.5 -20 -0.5 -30c-0.666992 -22 -2.16699 -47.167 -4.5 -75.5s-6.83301 -56.666 -13.5 -84.999
s-15.834 -55.166 -27.501 -80.499s-27.167 -45.333 -46.5 -60c-3.33301 0 -6 1 -8 3c-1.33301 1.33301 -2 3 -2 5c0 1.33301 0.666992 2.33301 2 3s2.66602 2 3.99902 4c4.66699 2.66699 10.334 9.5 17.001 20.5s13.334 22.833 20.001 35.5s12.5 25.167 17.5 37.5
s8.16699 21.5 9.5 27.5c1.33301 7.33301 2.83301 14.666 4.5 21.999s3.16699 14.666 4.5 21.999c1.33301 10 2.5 22.167 3.5 36.5s1.83301 29.166 2.5 44.499s1.16699 30.5 1.5 45.5s0.5 28.167 0.5 39.5c0 34 -1 66.167 -3 96.5s-7.66699 57.833 -17 82.5
c-4 11.333 -8.33301 21.166 -13 29.499s-10.667 15.5 -18 21.5c-3.33301 2 -7.16602 4 -11.499 6s-7.16602 4.66699 -8.49902 8c0 1.33301 -0.166992 2.16602 -0.5 2.49902s-0.5 0.833008 -0.5 1.5c0 4 2 8 6 12z" />
    <glyph glyph-name="asterisk" unicode="*" horiz-adv-x="219" 
d="M87 453c-5.33301 6.66699 -11.001 12.165 -17.001 16.498s-11.667 9.5 -17 15.5c-4 3.33301 -7 6.33301 -9 9s-3 6.66699 -3 12c0 2 0.333008 3.66699 1 5c1.33301 0.666992 3 1 5 1c2.66699 0 5.66699 -1 9 -3c10 -14 22.333 -25.333 37 -34v6
c0 6.66699 -0.5 13.667 -1.5 21s-1.5 14.333 -1.5 21s0.666992 11.667 2 15c5.33301 0 8.66602 -1.16699 9.99902 -3.5s2 -5.16602 2 -8.49902v-13c0.666992 -7.33301 1.5 -14.833 2.5 -22.5s1.83301 -14.5 2.5 -20.5c8 4.66699 17.333 9.5 28 14.5
s20.334 10.167 29.001 15.5c6 0 9.66699 -1.83301 11 -5.5s2 -8.16699 2 -13.5c-8.66699 -6 -19.167 -10.5 -31.5 -13.5s-22.833 -7.5 -31.5 -13.5l72 -68c0 -1.33301 0.166992 -2.5 0.5 -3.5s0.5 -2.16699 0.5 -3.5c0 -7.33301 -2.66699 -11.333 -8 -12l-33.5 35
c-11 12 -23.167 22.667 -36.5 32v-6c0 -11.333 0.833008 -23.666 2.5 -36.999l4.5 -35v-6c0 -3.33301 -0.333008 -6.33301 -1 -9s-2.33398 -4 -5.00098 -4c-4 0 -7 4.33301 -9 13s-3.16699 18.5 -3.5 29.5l-1 33c-0.333008 11 -1.16602 18.5 -2.49902 22.5
c-9.33301 -7.33301 -17.833 -16.166 -25.5 -26.499l-23.5 -30.5c-0.666992 -0.666992 -2 -1 -4 -1c-2.66699 0 -5.5 0.666992 -8.5 2s-4.5 3.66602 -4.5 6.99902c0 2 0.333008 3.33301 1 4c0.666992 1.33301 2.33398 3.33301 5.00098 6s4.66699 5 6 7l22.5 26
c7.66699 8.66699 15.167 16.667 22.5 24z" />
    <glyph glyph-name="plus" unicode="+" horiz-adv-x="258" 
d="M40 301c10.667 -0.666992 19.833 -1.33594 27.5 -2.00293s18.167 -1 31.5 -1h11c-1.33301 24 -2.33301 48.167 -3 72.5s-1.66699 47.166 -3 68.499c0 4 -0.666992 8 -2 12s-2 8.33301 -2 13c0 2.66699 0.333008 4.66699 1 6c7.33301 0 11.833 -3.16699 13.5 -9.5
s2.83398 -12.166 3.50098 -17.499v-22c0 -6.66699 0.333008 -13.667 1 -21l5 -103c4 0 8.16699 0.166992 12.5 0.5s8.83301 0.5 13.5 0.5h10c5.33301 0 11.666 -0.166992 18.999 -0.5s14.5 -0.833008 21.5 -1.5s13 -1.66699 18 -3s7.83301 -3 8.5 -5
c0 -1.33301 0.166992 -2 0.5 -2s0.5 -1 0.5 -3c0 -3.33301 -1 -5.66602 -3 -6.99902c-0.666992 -0.666992 -2 -1 -4 -1c-2.66699 0 -5.83398 0.5 -9.50098 1.5l-9.50098 2.5c-15.333 2 -31 3 -47 3c-5.33301 0 -10.5 -0.166992 -15.5 -0.5s-9.83301 -0.833008 -14.5 -1.5
c0.666992 -19.333 2.16699 -40.666 4.5 -63.999s4.16602 -46.666 5.49902 -69.999c0.666992 -3.33301 1.33398 -7 2.00098 -11s1 -7.66699 1 -11c0 -7.33301 -2 -12.666 -6 -15.999c-4.66699 2.66699 -7.66699 6.33398 -9 11.001s-2 9.66699 -2 15v17
c0 7.33301 -0.5 14.833 -1.5 22.5s-2.16699 15.5 -3.5 23.5c-1.33301 13.333 -2.16602 27.333 -2.49902 42s-1.16602 28.667 -2.49902 42h-7c-4 0 -7.83301 -0.166992 -11.5 -0.5s-7.16699 -0.5 -10.5 -0.5h-13c-4 0 -8 0.333008 -12 1c-3.33301 0 -7 0.166992 -11 0.5
s-7 1.16602 -9 2.49902c-4.66699 2 -7 5.66699 -7 11c0 1.33301 0.5 2.66602 1.5 3.99902s3.83301 2 8.5 2z" />
    <glyph glyph-name="comma" unicode="," horiz-adv-x="120" 
d="M86 36c2.66699 -2.66699 4 -5.66895 4 -9.00195c0 -17.333 -3.33301 -35.5 -10 -54.5s-13.667 -36.167 -21 -51.5c-1.33301 -1.33301 -2.66602 -3.83301 -3.99902 -7.5s-2.83301 -7.16699 -4.5 -10.5s-3.66699 -6.33301 -6 -9s-4.83301 -4 -7.5 -4
c-0.666992 0 -2 1.16699 -4 3.5s-3 4.83301 -3 7.5c0 0.666992 1.33301 3.16699 4 7.5s4.66699 8.16602 6 11.499c4.66699 10.667 9 19.834 13 27.501s7.66699 16.167 11 25.5c3.33301 10.667 5.66602 20.334 6.99902 29.001s4 18.334 8 29.001c0 3.33301 2.33301 5 7 5z
" />
    <glyph glyph-name="hyphen" unicode="-" horiz-adv-x="284" 
d="M32 302c9.33301 -1.33301 18.332 -2.33203 26.999 -2.99902s17.334 -1 26.001 -1c20 0 39.5 0.833008 58.5 2.5s39.167 2.5 60.5 2.5h25c4.66699 0 9.16699 -0.333008 13.5 -1s8.16602 -2.33398 11.499 -5.00098c0 -6 -0.666992 -10.667 -2 -14
c-1.33301 -0.666992 -3.66602 -1 -6.99902 -1s-6.33301 0.333008 -9 1s-5.66699 1 -9 1c-4 0.666992 -8.16699 1 -12.5 1h-12.5c-19.333 0 -39 -1 -59 -3s-40 -3 -60 -3c-8.66699 0 -17 0.333008 -25 1s-16 1.66699 -24 3c-0.666992 3.33301 -1.5 5.5 -2.5 6.5
s-1.5 3.16699 -1.5 6.5c0 1.33301 0.666992 3.33301 2 6z" />
    <glyph glyph-name="period" unicode="." horiz-adv-x="85" 
d="M54 9c0 -6 -3.33105 -9 -9.99805 -9c-2.66699 -0 -4.33398 0.333008 -5.00098 1c-6 2 -9 7 -9 15c0 2.66699 0.833008 6.16699 2.5 10.5s5.16699 6.5 10.5 6.5s8.66602 -1 9.99902 -3s2 -4.66699 2 -8c0 -2 -0.166992 -4 -0.5 -6s-0.5 -4.33301 -0.5 -7z" />
    <glyph glyph-name="slash" unicode="/" horiz-adv-x="304" 
d="M263 561c7.33301 0 11 -3.66602 11 -10.999c0 -1.33301 -0.166992 -3 -0.5 -5s-0.5 -3.66699 -0.5 -5c-10.667 -52 -24.5 -102.5 -41.5 -151.5s-35.667 -97 -56 -144l-63 -140.5c-21.667 -46.667 -42.167 -93.334 -61.5 -140.001c-2 -4 -3.83301 -8 -5.5 -12
s-4.16699 -6 -7.5 -6c-4 0 -6.33301 1.5 -7 4.5s-1 5.16699 -1 6.5v5c0 5.33301 1 10.666 3 15.999s4 10.333 6 15c13.333 33.333 30.666 72.333 51.999 117l64.5 140c21.667 48.667 41.5 97.667 59.5 147s30.333 95.333 37 138
c0.666992 10.667 4.33398 19.334 11.001 26.001z" />
    <glyph glyph-name="zero" unicode="0" horiz-adv-x="229" 
d="M113 505c10.667 0 20.0039 -3.00098 28.0039 -9.00098s14.667 -13 20 -21c2.66699 -7.33301 4.66699 -14.166 6 -20.499s2.66602 -13.166 3.99902 -20.499l4 -22l4 -23l4 -22.5l4 -22.5c5.33301 -29.333 8.16602 -57.666 8.49902 -84.999s1.16602 -55.333 2.49902 -84
c0.666992 -8 1 -15.833 1 -23.5v-22.5v-45c-0.666992 -12 -3.33398 -23.167 -8.00098 -33.5s-10.667 -19.5 -18 -27.5s-15.833 -14.167 -25.5 -18.5s-19.5 -6.5 -29.5 -6.5h-5c-18 1.33301 -32.333 8.16602 -43 20.499s-19 27.666 -25 45.999s-10 39 -12 62s-3 45.5 -3 67.5
c0 23.333 0.5 45.333 1.5 66s1.5 37 1.5 49v22c0 18.667 0.666992 38.167 2 58.5s4.5 39 9.5 56s12.833 31.167 23.5 42.5s25.667 17 45 17zM53.0039 339.999c0 -3.33301 -0.168945 -6.66699 -0.501953 -10s-0.5 -6.66602 -0.5 -9.99902c0 -26.667 -0.666992 -51 -2 -73
s-2 -43.667 -2 -65c0 -19.333 1.16699 -39 3.5 -59s6 -38 11 -54s11.5 -29 19.5 -39s18 -15 30 -15c8 0 17.333 2.66699 28 8s18.334 10.666 23.001 15.999c7.33301 8.66699 12 20.5 14 35.5s3 30.5 3 46.5c0 11.333 -0.166992 21.833 -0.5 31.5s-0.5 18.167 -0.5 25.5
c-0.666992 12.667 -1 24.334 -1 35.001v31c0 10 -0.333008 20.167 -1 30.5s-1.66699 21.833 -3 34.5c-0.666992 7.33301 -2.16699 19.5 -4.5 36.5s-5 34.833 -8 53.5s-6.33301 35.667 -10 51s-7.16699 24.666 -10.5 27.999c-2.66699 2.66699 -7.16699 4.66699 -13.5 6
s-11.166 2 -14.499 2c-14 0 -25 -3.5 -33 -10.5s-14 -16 -18 -27s-6.5 -23 -7.5 -36s-1.5 -25.5 -1.5 -37.5v-35z" />
    <glyph glyph-name="one" unicode="1" horiz-adv-x="150" 
d="M120 3c-1.33301 -1.33301 -1.83008 -2.16602 -1.49707 -2.49902s-0.5 -0.5 -2.5 -0.5c-7.33301 1.33301 -11.833 4.66602 -13.5 9.99902s-2.5 11.666 -2.5 18.999v35c0 1.33301 -0.166992 7.16602 -0.5 17.499s-0.5 23 -0.5 38v48v47.5v37.5v18.5
c1.33301 26 2.33301 50.833 3 74.5s1 47.167 1 70.5c0 8 -0.166992 16 -0.5 24s-0.5 15.667 -0.5 23c0 1.33301 -0.166992 3.5 -0.5 6.5s-0.5 5.16699 -0.5 6.5c-10.667 -5.33301 -20.834 -13.5 -30.501 -24.5s-19.5 -20.5 -29.5 -28.5
c-5.33301 2.66699 -9 7.33398 -11 14.001c2 1.33301 6.5 5.66602 13.5 12.999l23 23c8.33301 8 16.333 15.333 24 22s12.834 10 15.501 10c4.66699 0 7.66699 -0.666992 9 -2c1.33301 -2.66699 2.33301 -8.5 3 -17.5s1 -19.167 1 -30.5c0 -16 -0.333008 -31.5 -1 -46.5
s-1 -23.5 -1 -25.5c0 -21.333 -0.166992 -42.666 -0.5 -63.999s-0.5 -42.666 -0.5 -63.999v-21.5c0 -13 0.166992 -28.5 0.5 -46.5s0.666016 -37.5 0.999023 -58.5s0.666016 -40.5 0.999023 -58.5s0.666016 -33.333 0.999023 -46s0.5 -19.667 0.5 -21z" />
    <glyph glyph-name="two" unicode="2" horiz-adv-x="197" 
d="M52 19c15.333 0 29.9961 2.83398 43.9961 8.50098s28 8.5 42 8.5h6c4 -0.666992 8.66699 -1.83398 14 -3.50098s8.33301 -4.5 9 -8.5c0 -4.66699 -3.33301 -7 -10 -7h-10c-18.667 -2.66699 -35.834 -6.33398 -51.501 -11.001s-31.167 -7 -46.5 -7
c-4.66699 0 -9 1.33301 -13 4s-6 5.66699 -6 9c0 6.66699 1.83301 15.834 5.5 27.501s8 23.667 13 36l15 36c5 11.667 8.5 20.834 10.5 27.501c16.667 54 31.334 108.667 44.001 164c3.33301 16.667 5.83301 32.834 7.5 48.501s3.16699 31.167 4.5 46.5
c0 6.66699 0.166992 14 0.5 22s0.5 16 0.5 24c0 4 -0.5 7.83301 -1.5 11.5s-2.16699 7.16699 -3.5 10.5c-2 5.33301 -7.16699 10 -15.5 14s-17.166 6 -26.499 6s-16.333 -4 -21 -12s-7.66699 -16 -9 -24c-0.666992 -4.66699 -2.66699 -7 -6 -7
c-1.33301 0 -2.33301 0.333008 -3 1c-4.66699 8 -7 15.333 -7 22c0 11.333 5 20.666 15 27.999s19.667 11 29 11c19.333 0 34.833 -5 46.5 -15s17.5 -23.333 17.5 -40c0.666992 -4.66699 1 -9.33398 1 -14.001v-14c0 -20.667 -1.5 -41.167 -4.5 -61.5l-8.5 -59.5
c-1.33301 -13.333 -3.83301 -26.5 -7.5 -39.5l-11.5 -39.5l-12 -39c-4 -12.667 -7.66699 -25.667 -11 -39s-6.66602 -24.833 -9.99902 -34.5l-10 -28c-3.33301 -9 -6.66602 -18.5 -9.99902 -28.5s-6.66602 -21.333 -9.99902 -34z" />
    <glyph glyph-name="three" unicode="3" horiz-adv-x="221" 
d="M30 16c2 3.33301 3.49707 5.16992 4.49707 5.50293s1.83301 0.5 2.5 0.5c2.66699 0 5 -0.666992 7 -2s5 -2 9 -2h6c18 0 34.667 5.5 50 16.5s28.666 23.667 39.999 38s20.333 28.833 27 43.5s10 26 10 34v8c0 33.333 -11.667 55.666 -35 66.999
c-11.333 5.33301 -24.166 7.66602 -38.499 6.99902s-27.166 1.66602 -38.499 6.99902c-6 3.33301 -9 7.66602 -9 12.999c0 2 2.5 5.33301 7.5 10s10.5 9.5 16.5 14.5l17.5 14c5.66699 4.33301 9.5 7.5 11.5 9.5c8.66699 10.667 17.334 23.667 26.001 39s13.667 32 15 50
c0.666992 6 1 11.5 1 16.5v14.5c0 11.333 -1.16699 21.833 -3.5 31.5s-7.5 17.5 -15.5 23.5c-4 2.66699 -9.5 5.33398 -16.5 8.00098s-14.167 4 -21.5 4c-2.66699 0 -6.66699 -0.666992 -12 -2c-5.33301 -2 -10.166 -4.83301 -14.499 -8.5s-8.16602 -7.16699 -11.499 -10.5
c-2 -2.66699 -3.5 -5.83398 -4.5 -9.50098s-3.83301 -5.5 -8.5 -5.5c-2.66699 0 -4.66699 0.333008 -6 1c-0.666992 2 -1 4.66699 -1 8c0 11.333 5.33301 21.333 16 30s21.667 13.667 33 15h5c14 0 27.667 -4 41 -12s22.333 -16.667 27 -26
c4 -7.33301 6.66699 -16.333 8 -27s2 -21.334 2 -32.001c0 -17.333 -1.66699 -33.333 -5 -48c-5.33301 -24 -15 -44.333 -29 -61s-29.333 -31.667 -46 -45c8 -1.33301 18.667 -3 32 -5s23.666 -5.66699 30.999 -11c11.333 -10.667 21.833 -22.5 31.5 -35.5
s14.5 -28.833 14.5 -47.5v-5c-0.666992 -11.333 -4.5 -24.666 -11.5 -39.999s-15.833 -30.166 -26.5 -44.499s-22.167 -27 -34.5 -38s-24.166 -18.5 -35.499 -22.5c-8.66699 -3.33301 -17.334 -5 -26.001 -5s-17 1 -25 3s-13.667 6.33301 -17 13z" />
    <glyph glyph-name="four" unicode="4" horiz-adv-x="264" 
d="M140 505c4 -0.666992 5.99512 -2.66309 5.99512 -5.99609v-8c0 -32 0.833008 -63.667 2.5 -95s2.5 -62.666 2.5 -93.999v-22.5c0 -9.66699 -0.333008 -17.167 -1 -22.5c29.333 2 57.666 5 84.999 9c0.666992 0 1.33398 0.166992 2.00098 0.5s1.33398 0.5 2.00098 0.5
c2.66699 -5.33301 4.33398 -9.33301 5.00098 -12c0 -2.66699 -4.83301 -4.83398 -14.5 -6.50098s-20.167 -3 -31.5 -4s-22.166 -1.83301 -32.499 -2.5s-15.833 -1.33398 -16.5 -2.00098c0 -15.333 -0.5 -29 -1.5 -41s-1.5 -25 -1.5 -39v-13.5
c0 -4.33301 0.333008 -8.5 1 -12.5c0.666992 -5.33301 1.33398 -13.166 2.00098 -23.499s1.16699 -21.333 1.5 -33s0.833008 -22.5 1.5 -32.5s1 -17.333 1 -22c0 -2.66699 0.166992 -5.33398 0.5 -8.00098s0.5 -5.33398 0.5 -8.00098c0 -3.33301 -0.5 -5.33301 -1.5 -6
s-2.83301 -1 -5.5 -1c-5.33301 0 -8.83301 0.833008 -10.5 2.5s-2.5 6.16699 -2.5 13.5v4c0 37.333 -0.333008 72.666 -1 105.999s-1 68 -1 104v10c-12 1.33301 -26.167 2.16602 -42.5 2.49902s-32.166 0.5 -47.499 0.5h-12c-3.33301 0 -7.33301 0.333008 -12 1
c-3.33301 1.33301 -5.5 3 -6.5 5s-1.5 4.33301 -1.5 7c17.333 42 37.5 84.5 60.5 127.5l65.5 118.5c0.666992 2 2 3 4 3zM30.9951 263.004c4 -0.666992 7.99805 -1.16699 11.998 -1.5s8 -0.5 12 -0.5c10.667 0 21 -0.5 31 -1.5s20.333 -1.5 31 -1.5
c2.66699 0 5.33398 -0.166992 8.00098 -0.5s5.33398 -0.5 8.00098 -0.5c1.33301 7.33301 2 16.833 2 28.5v28.5c0 25.333 -0.166992 49.666 -0.5 72.999s-0.5 50.333 -0.5 81c-8 -16.667 -16.667 -33.5 -26 -50.5l-28 -51l-27 -51.5
c-8.66699 -17.333 -16 -34.666 -22 -51.999z" />
    <glyph glyph-name="five" unicode="5" horiz-adv-x="222" 
d="M36 34c0.666992 2 1.99805 2.99414 3.99805 2.99414s5.16699 -1.16699 9.5 -3.5s9 -5 14 -8s10.333 -5.66699 16 -8s11.167 -3.5 16.5 -3.5c19.333 0 34.333 5.16699 45 15.5s18.667 23.333 24 39s8.5 32.334 9.5 50.001s1.5 33.834 1.5 48.501v12
c-2 20.667 -11 35.334 -27 44.001c-7.33301 4 -15.833 7.16699 -25.5 9.5s-19.5 4.33301 -29.5 6l-30 5c-10 1.66699 -19.333 3.83398 -28 6.50098c-4 8 -6 16 -6 24c0 6.66699 0.5 13.667 1.5 21s1.83301 15 2.5 23c1.33301 16 2.83301 32.5 4.5 49.5
s2.83398 33.833 3.50098 50.5c0 7.33301 -0.166992 14.333 -0.5 21s-0.5 13.334 -0.5 20.001v18c0 9.33301 2 15.666 6 18.999s8.66699 5 14 5c8.66699 0 18.334 0.666992 29.001 2s21.667 2 33 2h34c4.66699 0 9.33398 -0.5 14.001 -1.5s7 -3.16699 7 -6.5
s-1.16699 -5.5 -3.5 -6.5s-4.5 -1.5 -6.5 -1.5c-2.66699 0 -7.33398 0.166992 -14.001 0.5s-11 0.833008 -13 1.5h-9c-9.33301 0 -18.166 -0.5 -26.499 -1.5s-16.833 -1.5 -25.5 -1.5c-12 0 -19 -1.5 -21 -4.5s-3 -8.5 -3 -16.5c0 -16.667 -0.333008 -35.667 -1 -57
s-1.66699 -39.666 -3 -54.999s-2.33301 -30.166 -3 -44.499s-1.66699 -28.166 -3 -41.499c11.333 -3.33301 23.166 -5.83301 35.499 -7.5s24.166 -3.83398 35.499 -6.50098s21.833 -6 31.5 -10s17.834 -9.66699 24.501 -17s11.5 -16.5 14.5 -27.5s4.5 -22.167 4.5 -33.5
c0 -20 -1 -40 -3 -60s-6 -37.833 -12 -53.5s-14.833 -28.5 -26.5 -38.5s-26.834 -15 -45.501 -15c-5.33301 0 -11.833 0.5 -19.5 1.5s-15.167 2.83301 -22.5 5.5s-13.666 6.16699 -18.999 10.5s-8 9.83301 -8 16.5z" />
    <glyph glyph-name="six" unicode="6" horiz-adv-x="212" 
d="M30 189l18.998 157.502c6 49.667 13.333 101.5 22 155.5c2 2 4 3 6 3c3.33301 0 5 -4.33301 5 -13v-13.5c0 -5.66699 -0.333008 -10.167 -1 -13.5l-7.5 -42.5c-2.33301 -13 -4.16602 -28.167 -5.49902 -45.5c-1.33301 -8.66699 -2.16602 -17.334 -2.49902 -26.001
s-1.16602 -17.334 -2.49902 -26.001c-1.33301 -8 -3 -16 -5 -24s-3.33301 -16 -4 -24c-2 -16 -3.5 -32.833 -4.5 -50.5s-2.16699 -34.834 -3.5 -51.501c12 0.666992 23 1.83398 33 3.50098s20 2.5 30 2.5c14 0 26 -1.33301 36 -4c22 -5.33301 36.167 -15.333 42.5 -30
s9.5 -31.334 9.5 -50.001c0 -7.33301 -2.16699 -16.833 -6.5 -28.5s-10 -23 -17 -34s-15 -20.333 -24 -28s-18.5 -11.5 -28.5 -11.5c-4.66699 0 -8.33398 0.333008 -11.001 1c-19.333 3.33301 -34.333 11.5 -45 24.5s-18.5 28.167 -23.5 45.5s-8.16699 35.333 -9.5 54
s-2 35.334 -2 50.001v19zM119.998 11.002c8.66699 1.33301 16.832 5.33301 24.499 12s14 14.834 19 24.501s9 20 12 31s4.5 21.5 4.5 31.5c0 7.33301 -1 14 -3 20c-3.33301 13.333 -10.833 22.166 -22.5 26.499s-25.167 6.5 -40.5 6.5c-10.667 0 -21.167 -0.5 -31.5 -1.5
s-20.166 -2.16699 -29.499 -3.5c-1.33301 0 -2.5 -0.166992 -3.5 -0.5s-2.16699 -0.5 -3.5 -0.5v-8c0 -12.667 0.833008 -27 2.5 -43s5.16699 -31 10.5 -45s12.833 -25.833 22.5 -35.5s22.5 -14.5 38.5 -14.5z" />
    <glyph glyph-name="seven" unicode="7" horiz-adv-x="251" 
d="M38 503c23.333 0 48.1719 0.332031 74.5049 0.999023s52.5 1 78.5 1h9c3.33301 0 6.5 -0.166992 9.5 -0.5s6.16699 -1.5 9.5 -3.5c1.33301 -2.66699 2 -5 2 -7c0 -4 -1.33301 -8.16699 -4 -12.5s-5.33398 -9.16602 -8.00098 -14.499l-19 -35.5
c-6.66699 -12.333 -12.334 -24.833 -17.001 -37.5c-6 -17.333 -9.83301 -33 -11.5 -47s-4.16699 -30 -7.5 -48c1.33301 -1.33301 4.16602 -2 8.49902 -2s8.66602 -0.166992 12.999 -0.5s8.33301 -0.833008 12 -1.5s5.5 -2 5.5 -4c0 -0.666992 -0.166992 -2 -0.5 -4
s-0.5 -3.66699 -0.5 -5h-5.5c-3.66699 0 -7.83398 -0.166992 -12.501 -0.5s-9.16699 -0.5 -13.5 -0.5h-8.5c-8 -23.333 -14.5 -45.5 -19.5 -66.5l-15.5 -63.5c-5.33301 -22 -10.333 -45.5 -15 -70.5s-8.66699 -49.167 -12 -72.5c-1.33301 -1.33301 -2.5 -3 -3.5 -5
s-2.16699 -3 -3.5 -3c-3.33301 0.666992 -5.33301 1.66699 -6 3l-3 6c2 20 5.16699 41.333 9.5 64s9.33301 45.5 15 68.5l17.5 68c6 22.333 12 43.166 18 62.499l2 8c-2 0.666992 -5.33301 1 -10 1c-3.33301 0 -7.83301 -0.166992 -13.5 -0.5s-10.167 -0.5 -13.5 -0.5
c-4.66699 0 -8 0.333008 -10 1c-0.666992 3.33301 -1 7 -1 11c0 0.666992 0.166992 1.33398 0.5 2.00098s0.5 1.33398 0.5 2.00098c2.66699 0.666992 7.33398 1 14.001 1h19h9c2.66699 0 5.33398 0.333008 8.00098 1c5.33301 39.333 13.166 74 23.499 104
s24.166 58.333 41.499 85c-5.33301 0.666992 -10.333 1.16699 -15 1.5s-9.66699 0.5 -15 0.5c-23.333 0 -47.5 -0.333008 -72.5 -1s-48.167 -1.33398 -69.5 -2.00098c-1.33301 1.33301 -2 3 -2 5c0 1.33301 0.333008 3 1 5s1 4.33301 1 7h6z" />
    <glyph glyph-name="eight" unicode="8" horiz-adv-x="235" 
d="M79 501c7.33301 2.66699 16.0039 4 26.0039 4c13.333 0 26.666 -2.5 39.999 -7.5s25.166 -12 35.499 -21s18.666 -19.333 24.999 -31s9.5 -24.167 9.5 -37.5c0 -25.333 -5.83301 -50.666 -17.5 -75.999s-25.834 -46.666 -42.501 -63.999c6 -8 12 -17.5 18 -28.5
s11.333 -22.167 16 -33.5s8.5 -22.666 11.5 -33.999s4.5 -22 4.5 -32v-12.5c0 -4.33301 -0.333008 -8.83301 -1 -13.5c-1.33301 -14 -4 -28 -8 -42s-9.66699 -26.667 -17 -38s-16.166 -20.5 -26.499 -27.5s-22.5 -10.5 -36.5 -10.5c-4.66699 0 -8.33398 0.333008 -11.001 1
c-21.333 2.66699 -37.166 12 -47.499 28s-15.5 33.333 -15.5 52v7c0.666992 10.667 2.83398 21.667 6.50098 33l10.5 33c7.33301 23.333 16.166 43.833 26.499 61.5s22.166 33.834 35.499 48.501l9 9l-36 26.5c-12.667 9 -24.5 19.167 -35.5 30.5
s-20.167 24.666 -27.5 39.999s-11 33.666 -11 54.999c0 17.333 6 33.666 18 48.999s25.667 25.666 41 30.999zM199.004 415c-5.33301 21.333 -15.832 38.833 -31.499 52.5s-34.5 20.5 -56.5 20.5c-6 0 -10.667 -0.333008 -14 -1c-5.33301 -0.666992 -11 -2.66699 -17 -6
s-11.5 -7.16602 -16.5 -11.499s-9.5 -8.83301 -13.5 -13.5s-7 -9 -9 -13c-1.33301 -3.33301 -2.83301 -7.83301 -4.5 -13.5s-2.5 -11.5 -2.5 -17.5c0 -16 3.33301 -30 10 -42s15.167 -22.833 25.5 -32.5s21.833 -18.834 34.5 -27.501s24.667 -17.334 36 -26.001
c7.33301 4.66699 14.666 11.834 21.999 21.501s13.833 20.167 19.5 31.5s10.167 23 13.5 35s5 22.667 5 32c0 5.33301 -0.333008 9 -1 11zM58.0049 82c0 -1.33301 -0.166992 -2.66797 -0.5 -4.00098s-0.5 -2.66602 -0.5 -3.99902c0 -15.333 5 -29 15 -41
s21.333 -19.333 34 -22c2 -0.666992 4.66699 -1 8 -1c14 0 25.833 5.16699 35.5 15.5s17.667 22.666 24 36.999s10.833 29 13.5 44s4 27.5 4 37.5c0 20 -5.33301 39.5 -16 58.5s-21.667 36.167 -33 51.5c-28 -25.333 -47.5 -51.666 -58.5 -78.999s-19.5 -58.333 -25.5 -93z
" />
    <glyph glyph-name="nine" unicode="9" horiz-adv-x="211" 
d="M170 -2c-4 0.666992 -6.5 2.49512 -7.5 5.49512s-2.83301 5.83301 -5.5 8.5c2 24.667 3 47 3 67v67c0 24 0.5 48 1.5 72s1.5 48.333 1.5 73c0 5.33301 -0.166992 12 -0.5 20s-0.833008 14.667 -1.5 20c-11.333 -8 -22.666 -12.333 -33.999 -13
s-25.666 -1.66699 -42.999 -3c-14 0 -26.833 0.833008 -38.5 2.5s-19.834 7.83398 -24.501 18.501c-3.33301 7.33301 -5.16602 15.5 -5.49902 24.5s-0.5 17.167 -0.5 24.5v8c0 14 1 27.667 3 41s5.33301 25 10 35s14.167 17 28.5 21s28.5 7.66699 42.5 11
c3.33301 1.33301 7.66602 2.33301 12.999 3s10.666 1 15.999 1c8.66699 0 16.167 -0.833008 22.5 -2.5s11.5 -5.83398 15.5 -12.501c5.33301 -16 9 -31.667 11 -47s3 -30.666 3 -45.999v-29c0 -11.333 0.166992 -22.666 0.5 -33.999s0.5 -21.666 0.5 -30.999v-20
c0 -25.333 -0.833008 -50.666 -2.5 -75.999s-2.5 -49.666 -2.5 -72.999c0 -19.333 -0.166992 -36.833 -0.5 -52.5s-0.833008 -33.167 -1.5 -52.5v-13c0 -3.33301 -0.166992 -6.5 -0.5 -9.5s-1.5 -5.83301 -3.5 -8.5zM159 356.995
c1.33301 3.33301 2.16406 6.99707 2.49707 10.9971s0.5 7.66699 0.5 11v33c0 6.66699 -0.166992 14.334 -0.5 23.001s-1.16602 16.834 -2.49902 24.501s-3.66602 14.334 -6.99902 20.001s-8 8.83398 -14 9.50098h-9c-7.33301 0 -14 -0.833008 -20 -2.5
s-12 -3.16699 -18 -4.5c-15.333 -4.66699 -27.5 -8.83398 -36.5 -12.501s-15.167 -12.5 -18.5 -26.5c-2 -8 -3.33301 -16.333 -4 -25s-1 -17.667 -1 -27v-20c0 -6.66699 0.333008 -13.667 1 -21c3.33301 -7.33301 9.83301 -12.5 19.5 -15.5s18.834 -4.5 27.501 -4.5
c6.66699 0 14.167 0.333008 22.5 1s16.333 2 24 4s14.667 4.66699 21 8s10.5 8 12.5 14z" />
    <glyph glyph-name="colon" unicode=":" horiz-adv-x="97" 
d="M66 302c0 -4 -1.66699 -7.16699 -5 -9.5s-6.66602 -3.5 -9.99902 -3.5c-4 0 -6.66699 0.666992 -8 2c-8.66699 2.66699 -13 10 -13 22c0 3.33301 1.16699 8.33301 3.5 15s7.5 10 15.5 10c7.33301 0 12.166 -1.5 14.499 -4.5s3.5 -6.83301 3.5 -11.5
c0 -3.33301 -0.166992 -6.5 -0.5 -9.5s-0.5 -6.5 -0.5 -10.5zM66 81c0 -4 -1.66699 -7.16699 -5 -9.5s-6.66602 -3.5 -9.99902 -3.5c-4 0 -6.66699 0.666992 -8 2c-8.66699 2.66699 -13 10 -13 22c0 3.33301 1.16699 8.33301 3.5 15s7.5 10 15.5 10
c7.33301 0 12.166 -1.5 14.499 -4.5s3.5 -6.83301 3.5 -11.5c0 -3.33301 -0.166992 -6.5 -0.5 -9.5s-0.5 -6.5 -0.5 -10.5z" />
    <glyph glyph-name="semicolon" unicode=";" horiz-adv-x="112" 
d="M77 302c0 -4 -1.66699 -7.16699 -5 -9.5s-6.66602 -3.5 -9.99902 -3.5c-4 0 -6.66699 0.666992 -8 2c-8.66699 2.66699 -13 10 -13 22c0 3.33301 1.16699 8.33301 3.5 15s7.5 10 15.5 10c7.33301 0 12.166 -1.5 14.499 -4.5s3.5 -6.83301 3.5 -11.5
c0 -3.33301 -0.166992 -6.5 -0.5 -9.5s-0.5 -6.5 -0.5 -10.5zM42 -65c-3.33301 0 -6.16602 0.500977 -8.49902 1.50098s-3.5 2.83301 -3.5 5.5l1 2c0.666992 0.666992 1.33398 1.66699 2.00098 3l3 6c6 15.333 12.167 32.166 18.5 50.499s10.166 36.5 11.499 54.5v4
c0 8.66699 -2.33301 15.667 -7 21c-1.33301 2 -3.33301 4.33301 -6 7s-4 5.66699 -4 9c0 8.66699 2.33301 13.667 7 15c5.33301 0 10.5 -1.16699 15.5 -3.5s7.5 -5.16602 7.5 -8.49902c0 -2.66699 0.333008 -5.16699 1 -7.5s1 -4.83301 1 -7.5
s0.166992 -5.33398 0.5 -8.00098s0.5 -5.66699 0.5 -9c0 -22.667 -3.83301 -45 -11.5 -67s-14.834 -43.667 -21.501 -65z" />
    <glyph glyph-name="less" unicode="&#x3c;" horiz-adv-x="296" 
d="M226 505c0.666992 0 1.16699 0.168945 1.5 0.501953s0.833008 0.5 1.5 0.5c2 0 3.16699 -0.333008 3.5 -1s1.16602 -1 2.49902 -1c0.666992 -1.33301 1 -3.66602 1 -6.99902c0 -7.33301 -2 -14.5 -6 -21.5s-8 -13.5 -12 -19.5c-26.667 -46 -53.167 -88.667 -79.5 -128
s-54.5 -75.666 -84.5 -108.999c16 -12 32 -25.833 48 -41.5l47.5 -48l47 -49c15.667 -16.333 30.834 -30.833 45.501 -43.5c4.66699 -2.66699 9.83398 -6.5 15.501 -11.5s8.5 -10.167 8.5 -15.5c0 -1.33301 -1.33301 -3 -4 -5s-4.66699 -3.66699 -6 -5
c-6 1.33301 -10.833 3.83301 -14.5 7.5l-11.5 11.5c-17.333 20.667 -33.5 38.834 -48.5 54.501l-43.5 43.5l-43 39.5l-47 42.5c-7.33301 1.33301 -12.166 3.66602 -14.499 6.99902s-3.5 6.66602 -3.5 9.99902c0 2 0.333008 3.66699 1 5
c28 33.333 54.833 68.166 80.5 104.499s50.167 73.5 73.5 111.5c7.33301 11.333 14.166 22.666 20.499 33.999s13.166 22.666 20.499 33.999z" />
    <glyph glyph-name="equal" unicode="=" horiz-adv-x="284" 
d="M32 302c9.33301 -1.33301 18.332 -2.33203 26.999 -2.99902s17.334 -1 26.001 -1c20 0 39.5 0.833008 58.5 2.5s39.167 2.5 60.5 2.5h25c4.66699 0 9.16699 -0.333008 13.5 -1s8.16602 -2.33398 11.499 -5.00098c0 -6 -0.666992 -10.667 -2 -14
c-1.33301 -0.666992 -3.66602 -1 -6.99902 -1s-6.33301 0.333008 -9 1s-5.66699 1 -9 1c-4 0.666992 -8.16699 1 -12.5 1h-12.5c-19.333 0 -39 -1 -59 -3s-40 -3 -60 -3c-8.66699 0 -17 0.333008 -25 1s-16 1.66699 -24 3c-0.666992 3.33301 -1.5 5.5 -2.5 6.5
s-1.5 3.16699 -1.5 6.5c0 1.33301 0.666992 3.33301 2 6zM31.999 213.001c9.33301 -1.33301 18.332 -2.33203 26.999 -2.99902s17.334 -1 26.001 -1c20 0 39.5 0.833008 58.5 2.5s39.167 2.5 60.5 2.5h25c4.66699 0 9.16699 -0.333008 13.5 -1
s8.16602 -2.33398 11.499 -5.00098c0 -6 -0.666992 -10.667 -2 -14c-1.33301 -0.666992 -3.66602 -1 -6.99902 -1s-6.33301 0.333008 -9 1s-5.66699 1 -9 1c-4 0.666992 -8.16699 1 -12.5 1h-12.5c-19.333 0 -39 -1 -59 -3s-40 -3 -60 -3c-8.66699 0 -17 0.333008 -25 1
s-16 1.66699 -24 3c-0.666992 3.33301 -1.5 5.5 -2.5 6.5s-1.5 3.16699 -1.5 6.5c0 1.33301 0.666992 3.33301 2 6z" />
    <glyph glyph-name="greater" unicode="&#x3e;" horiz-adv-x="296" 
d="M70 505c7.33301 -11.333 14.166 -22.668 20.499 -34.001s13.166 -22.666 20.499 -33.999c23.333 -38 47.833 -75.167 73.5 -111.5s52.5 -71.166 80.5 -104.499c0.666992 -1.33301 1 -3 1 -5c0 -3.33301 -1.16699 -6.66602 -3.5 -9.99902
s-7.16602 -5.66602 -14.499 -6.99902l-47 -42.5l-43 -39.5l-43.5 -43.5c-15 -15.667 -31.167 -33.834 -48.5 -54.501l-11.5 -11.5c-3.66699 -3.66699 -8.5 -6.16699 -14.5 -7.5c-1.33301 1.33301 -3.33301 3 -6 5s-4 3.66699 -4 5c0 5.33301 2.83301 10.5 8.5 15.5
s10.834 8.83301 15.501 11.5c14.667 12.667 29.834 27.167 45.501 43.5l47 49l47.5 48c16 15.667 32 29.5 48 41.5c-30 33.333 -58.167 69.666 -84.5 108.999s-52.833 82 -79.5 128c-4 6 -8 12.5 -12 19.5s-6 14.167 -6 21.5c0 3.33301 0.333008 5.66602 1 6.99902
c1.33301 0 2.16602 0.333008 2.49902 1s1.5 1 3.5 1c0.666992 0 1.16699 -0.166992 1.5 -0.5s0.833008 -0.5 1.5 -0.5z" />
    <glyph glyph-name="question" unicode="?" horiz-adv-x="278" 
d="M111 -19c-3.33301 0 -6.66406 2.16406 -9.99707 6.49707s-5.33301 8.16602 -6 11.499c0 1.33301 -0.166992 2.33301 -0.5 3s-0.5 1.66699 -0.5 3c0 4.66699 0.5 9.83398 1.5 15.501s1.83301 11.167 2.5 16.5c2 27.333 6.16699 50.166 12.5 68.499
s14.166 35.333 23.499 51s19.666 31.5 30.999 47.5s23 35 35 57c3.33301 6.66699 6.83301 14.667 10.5 24s6.83398 18.333 9.50098 27c4 14 6.83301 27.333 8.5 40s2.83398 28.667 3.50098 48c0 3.33301 0.333008 7 1 11s1 7.66699 1 11c0 9.33301 -4.5 17.833 -13.5 25.5
s-19.667 14.167 -32 19.5s-24.833 9.5 -37.5 12.5s-22.334 4.5 -29.001 4.5c-15.333 0 -29.833 -3.16699 -43.5 -9.5s-23.167 -15.833 -28.5 -28.5c-2 -4.66699 -3.33301 -9.83398 -4 -15.501s-1 -11.5 -1 -17.5c0 -9.33301 0.666992 -19 2 -29s3 -18.667 5 -26
c1.33301 -5.33301 3.16602 -10.833 5.49902 -16.5s5.16602 -10.167 8.49902 -13.5s7.16602 -5.66602 11.499 -6.99902s8.66602 -3 12.999 -5s8 -4.5 11 -7.5s4.5 -7.5 4.5 -13.5c-3.33301 -2 -6 -3 -8 -3c-12 0 -22.333 4.83301 -31 14.5s-15.667 21 -21 34
s-9.33301 26.5 -12 40.5s-4 25.667 -4 35c0 28 8.33301 49.667 25 65s38 23 64 23c10.667 0 22.167 -1.16699 34.5 -3.5s24.5 -6 36.5 -11s22.667 -11 32 -18s16.333 -15.167 21 -24.5c2 -4 3.33301 -8.83301 4 -14.5s1 -11.167 1 -16.5s-0.166992 -10.333 -0.5 -15
s-0.5 -9.33398 -0.5 -14.001c0 -17.333 -1 -33.666 -3 -48.999s-5.66699 -30.666 -11 -45.999c-4 -14 -8.66699 -25.667 -14 -35s-11 -18.333 -17 -27s-12.333 -17.167 -19 -25.5s-13.334 -18.5 -20.001 -30.5l-22 -34c-7.33301 -11.333 -12.666 -23.666 -15.999 -36.999
c-5.33301 -19.333 -8.16602 -39.666 -8.49902 -60.999s-2.16602 -41.666 -5.49902 -60.999zM117.002 -66.0029c0 -6 -3.33105 -9 -9.99805 -9c-2.66699 0 -4.33398 0.333008 -5.00098 1c-6 2 -9 7 -9 15c0 2.66699 0.833008 6.16699 2.5 10.5s5.16699 6.5 10.5 6.5
s8.66602 -1 9.99902 -3s2 -4.66699 2 -8c0 -2 -0.166992 -4 -0.5 -6s-0.5 -4.33301 -0.5 -7z" />
    <glyph glyph-name="at" unicode="@" horiz-adv-x="299" 
d="M103 473c-14 -20.667 -24.998 -40.165 -32.998 -58.498s-14 -35.666 -18 -51.999s-6.5 -32.166 -7.5 -47.499s-1.5 -30.666 -1.5 -45.999c0 -23.333 1 -46.333 3 -69c2 -18 3.66699 -38.667 5 -62s4.83301 -45.5 10.5 -66.5s15.167 -38.667 28.5 -53s33 -21.5 59 -21.5
c1.33301 0 3 0.166992 5 0.5s4 0.5 6 0.5c14.667 1.33301 26.334 6.16602 35.001 14.499s15.667 18.833 21 31.5c3.33301 8.66699 6.16602 16.834 8.49902 24.501l7.5 25.5c5.33301 0 9.66602 -1.33301 12.999 -4c0 -9.33301 -1.5 -18.333 -4.5 -27s-6.16699 -17 -9.5 -25
c-6.66699 -16 -15.167 -29.833 -25.5 -41.5s-25.833 -18.167 -46.5 -19.5c-4.66699 0 -10.167 0.166992 -16.5 0.5s-11.5 1.16602 -15.5 2.49902c-11.333 2 -23.166 7.16699 -35.499 15.5s-21.5 17.833 -27.5 28.5c-12 20.667 -19.833 45.167 -23.5 73.5
s-6.5 56.5 -8.5 84.5c0 2 -0.166992 4 -0.5 6s-0.5 4 -0.5 6c-0.666992 9.33301 -1 18.666 -1 27.999v28c0 46.667 3.66699 89.167 11 127.5s23.333 72.833 48 103.5c4.66699 5.33301 9 9.66602 13 12.999s9 7 15 11c9.33301 6.66699 18.166 11.167 26.499 13.5
s17.5 3.5 27.5 3.5c10.667 0 21.5 -2 32.5 -6s21.167 -9.66699 30.5 -17s17.166 -16 23.499 -26s10.166 -21.333 11.499 -34c0 -18.667 0.166992 -35.667 0.5 -51s0.5 -30.333 0.5 -45v-22c0 -7.33301 -0.333008 -14.666 -1 -21.999c0 -24.667 -1 -48.334 -3 -71.001
s-7 -41.334 -15 -56.001c-3.33301 -5.33301 -7.33301 -11 -12 -17s-9.66699 -10 -15 -12c-2 -0.666992 -5 -1 -9 -1c-9.33301 0 -16.666 4.5 -21.999 13.5s-8.66602 18.833 -9.99902 29.5c-5.33301 -5.33301 -11.333 -10.666 -18 -15.999s-14.667 -8.66602 -24 -9.99902
c-1.33301 0 -2.83301 -0.166992 -4.5 -0.5s-3.16699 -0.5 -4.5 -0.5c-16.667 0 -28.834 5.83301 -36.501 17.5s-11.834 26.167 -12.501 43.5c0 15.333 2.5 28.166 7.5 38.499s10.5 20.166 16.5 29.499c7.33301 9.33301 14.333 16.666 21 21.999s16.334 8 29.001 8
c7.33301 0 14.666 -1 21.999 -3s13.666 -5 18.999 -9c2 3.33301 3 7.83301 3 13.5s1 10.167 3 13.5c2.66699 0 4.66699 -0.5 6 -1.5s3 -1.83301 5 -2.5v-16c0 -15.333 -0.833008 -30.666 -2.5 -45.999s-5.16699 -30.333 -10.5 -45c-1.33301 -3.33301 -2.5 -6.5 -3.5 -9.5
s-1.83301 -6.16699 -2.5 -9.5c0 -1.33301 -0.166992 -2.5 -0.5 -3.5s-0.5 -2.16699 -0.5 -3.5c0 -7.33301 2 -14.833 6 -22.5s8.66699 -11.834 14 -12.501c6.66699 0 12.334 3.33301 17.001 10s8.5 14.5 11.5 23.5s5.33301 18.5 7 28.5s2.5 18.667 2.5 26
c0.666992 7.33301 1.16699 16.333 1.5 27s0.5 18.667 0.5 24v7c0 22 -0.166992 42.833 -0.5 62.5s-0.5 39.167 -0.5 58.5c0 6.66699 -0.666992 13 -2 19s-4 11.667 -8 17c-8.66699 10.667 -20 19.667 -34 27s-27.667 11 -41 11s-25.666 -2.5 -36.999 -7.5
s-21 -11.833 -29 -20.5zM144.002 297.002c-1.33301 -0.666992 -3.66895 -2.1709 -7.00195 -4.50391s-5.66602 -4.16602 -6.99902 -5.49902c-8 -7.33301 -15.333 -17.666 -22 -30.999s-10 -26.666 -10 -39.999c0 -10 2.33301 -18.333 7 -25c6 -6 14 -9 24 -9
c11.333 0 22.333 3.16699 33 9.5s17 13.5 19 21.5c2.66699 10.667 4.5 22.334 5.5 35.001s3.16699 24.667 6.5 36c-4 3.33301 -9.66699 6.5 -17 9.5s-14.666 4.5 -21.999 4.5c-4.66699 0 -8 -0.333008 -10 -1z" />
    <glyph glyph-name="A" unicode="A" horiz-adv-x="224" 
d="M193 4c-4 -2.66699 -7.66797 -3.99805 -11.001 -3.99805s-5.33301 1.33301 -6 4c-1.33301 3.33301 -2 9.16602 -2 17.499s-0.333008 15.166 -1 20.499c-4 32 -6 64 -6 96c0 15.333 0.333008 30.5 1 45.5s1.33398 30.833 2.00098 47.5c-4.66699 0.666992 -9 1 -13 1h-12
c-16 0 -31.167 -0.666992 -45.5 -2s-30.833 -2.33301 -49.5 -3v-12c-0.666992 -9.33301 -1.16699 -18.333 -1.5 -27s-0.5 -17 -0.5 -25c0 -25.333 2 -49.333 6 -72s6 -45 6 -67v-11c0 -7.33301 -1.33301 -12 -4 -14c-3.33301 0 -6 1 -8 3s-4 3.66699 -6 5v10
c0 11.333 -0.666992 21.5 -2 30.5l-4 26c-1.33301 8.33301 -2.66602 17.333 -3.99902 27s-2 21.167 -2 34.5c0 10 0.333008 20.167 1 30.5l2 32.5v13c0 13.333 -0.333008 27.5 -1 42.5s-1 30.167 -1 45.5v21c0 15.333 0.333008 31.333 1 48s2.66699 32.834 6 48.501
s8.16602 29.834 14.499 42.501s15.5 23 27.5 31c5.33301 3.33301 11.666 6.66602 18.999 9.99902s15.333 5 24 5h5c11.333 -0.666992 21.333 -4.5 30 -11.5s15.667 -14.5 21 -22.5c4.66699 -8 7.66699 -17.5 9 -28.5s2 -22.5 2 -34.5
c0 -6.66699 -0.166992 -13.334 -0.5 -20.001s-0.5 -13.334 -0.5 -20.001v-8c0 -13.333 0.5 -26.333 1.5 -39s1.5 -25.667 1.5 -39v-16c-1.33301 -16 -2.16602 -33 -2.49902 -51s-0.833008 -35.333 -1.5 -52v-7c0 -15.333 0.833008 -30.166 2.5 -44.499
s2.5 -28.833 2.5 -43.5c0 -14 0.166992 -24.167 0.5 -30.5s0.5 -13.833 0.5 -22.5zM162.999 473.002c-7.33301 10.667 -18.667 16.0029 -34 16.0029c-22 0 -38.5 -6.5 -49.5 -19.5s-18.5 -28.833 -22.5 -47.5s-6.16699 -37.834 -6.5 -57.501s-0.833008 -36.5 -1.5 -50.5v-70
c8 0 15.833 0.666992 23.5 2s15.167 2 22.5 2h59c7.33301 0 13 1 17 3c-0.666992 5.33301 -1 11.333 -1 18v18c0 18 0.666992 36.167 2 54.5s2 36.166 2 53.499c0 14 -0.833008 27.667 -2.5 41s-4.5 25.666 -8.5 36.999z" />
    <glyph glyph-name="B" unicode="B" horiz-adv-x="223" 
d="M31 496c17.333 8.66699 37.667 13.001 61 13.001c13.333 0 26.166 -1.83301 38.499 -5.5s22.166 -9.83398 29.499 -18.501c4 -5.33301 7.5 -12.5 10.5 -21.5s5.33301 -18.667 7 -29s2.83398 -20.166 3.50098 -29.499s1 -17 1 -23v-5
c-0.666992 -7.33301 -1.66699 -15.5 -3 -24.5l-4 -26.5c-3.33301 -21.333 -10.666 -38.166 -21.999 -50.499s-23.666 -24.166 -36.999 -35.499l-7 -6c17.333 -2 32 -6.16699 44 -12.5s21.333 -15.833 28 -28.5c3.33301 -12 6.16602 -24.667 8.49902 -38
s3.5 -26.666 3.5 -39.999c0 -20.667 -3.33301 -39.834 -10 -57.501s-18 -31.167 -34 -40.5c-7.33301 -4 -16 -8.16699 -26 -12.5s-20.333 -6.5 -31 -6.5c-15.333 0 -26.833 3.16699 -34.5 9.5s-13.167 14.5 -16.5 24.5s-5.16602 21.167 -5.49902 33.5
s-0.833008 24.5 -1.5 36.5c-1.33301 25.333 -1.83301 51.666 -1.5 78.999s-0.5 52 -2.5 74c0.666992 11.333 1.16699 24.666 1.5 39.999s1.16602 29.666 2.49902 42.999c0.666992 4 1 8 1 12v12v66c0.666992 3.33301 1 6.5 1 9.5v9.5c0 18 -1.66699 34.333 -5 49z
M52.001 384.001c0 -35.333 -0.999023 -70 -2.99902 -104c0 -34 0.5 -68.833 1.5 -104.5s2.83301 -68.167 5.5 -97.5c0.666992 -6.66699 1.16699 -13.667 1.5 -21s1.16602 -14.166 2.49902 -20.499s3.66602 -11.666 6.99902 -15.999s8 -6.5 14 -6.5c8.66699 0 17 1 25 3
c10 3.33301 20 7.83301 30 13.5s17.667 13.167 23 22.5c9.33301 18.667 14 38 14 58v15c0 4.66699 -0.333008 9.33398 -1 14.001v4c-1.33301 9.33301 -2.33301 18.666 -3 27.999s-2.66699 17.666 -6 24.999c-2 4 -5.5 7.33301 -10.5 10s-10.5 4.83398 -16.5 6.50098
s-11.833 3 -17.5 4s-10.167 1.5 -13.5 1.5c-7.33301 0 -14.5 -0.333008 -21.5 -1s-14.167 -1.66699 -21.5 -3c-2 3.33301 -3.33301 4.83301 -4 4.5s-1.33398 1.83398 -2.00098 6.50098c11.333 3.33301 20.5 9 27.5 17s15.5 16 25.5 24l3 2
c7.33301 5.33301 13.833 10.666 19.5 15.999s11.167 11.333 16.5 18c6 7.33301 10 16.166 12 26.499s4 21.5 6 33.5s3 22.667 3 32c0 33.333 -4.83301 57.166 -14.5 71.499s-30.5 21.5 -62.5 21.5c-7.33301 0 -14.666 -0.333008 -21.999 -1s-13.666 -1.66699 -18.999 -3
c0.666992 -2 1.16699 -6.5 1.5 -13.5s0.5 -15.167 0.5 -24.5c0 -12 -0.166992 -24 -0.5 -36s-0.5 -20.667 -0.5 -26z" />
    <glyph glyph-name="C" unicode="C" horiz-adv-x="217" 
d="M45 107c-5.33301 20.667 -9.16602 39.332 -11.499 55.999s-3.5 35.667 -3.5 57v17c0 6 0.333008 12.667 1 20c1.33301 22.667 4.66602 48.5 9.99902 77.5s13.166 56.167 23.499 81.5s23.833 46.666 40.5 63.999s37 26 61 26h5c4 0 7.66699 -0.666992 11 -2
s5 -3.66602 5 -6.99902c0 -1.33301 -0.166992 -2.33301 -0.5 -3l-1.5 -3c-1.33301 -3.33301 -4.66602 -5 -9.99902 -5s-11.666 -0.666992 -18.999 -2c-23.333 -3.33301 -40.166 -11.5 -50.499 -24.5s-19.166 -29.167 -26.499 -48.5
c-2.66699 -7.33301 -5.33398 -15.166 -8.00098 -23.499l-8 -25.5c-4.66699 -17.333 -8.33398 -36.833 -11.001 -58.5s-4 -40.5 -4 -56.5c0 -14.667 0.5 -34.667 1.5 -60s4.16699 -50.333 9.5 -75s13.5 -46 24.5 -64s26.167 -27 45.5 -27c8.66699 0 16 1.66699 22 5
c3.33301 2 6.5 4.83301 9.5 8.5s5.83301 5.5 8.5 5.5c0.666992 0 2.66699 -1.83301 6 -5.5s5 -7.16699 5 -10.5c0 -6.66699 -4.83301 -12.334 -14.5 -17.001s-18.834 -7 -27.501 -7c-14.667 0 -27.167 3.33301 -37.5 10s-19.166 15.334 -26.499 26.001
s-13.333 22.167 -18 34.5s-8.33398 24.5 -11.001 36.5z" />
    <glyph glyph-name="D" unicode="D" horiz-adv-x="238" 
d="M34 505c2 0 4.16699 0.166016 6.5 0.499023s4.5 0.5 6.5 0.5c12 0 23.5 -1.5 34.5 -4.5s21.5 -6.16699 31.5 -9.5l7 -2c21.333 -6.66699 37.5 -16.834 48.5 -30.501s19.833 -31.834 26.5 -54.501c3.33301 -11.333 6.33301 -22.833 9 -34.5s4 -23.5 4 -35.5
c0 -50 -5 -96.833 -15 -140.5s-26 -82.5 -48 -116.5c-12 -18.667 -26.5 -35.167 -43.5 -49.5s-36.5 -23.833 -58.5 -28.5c-4 3.33301 -6.83301 8.33301 -8.5 15s-2.83398 12 -3.50098 16c-0.666992 3.33301 -1 6.83301 -1 10.5v10.5v15c0 4.66699 0.333008 9.33398 1 14.001
c0.666992 25.333 1.33398 47.833 2.00098 67.5s1 40.167 1 61.5v94c0 11.333 0.5 22.333 1.5 33s1.5 21.334 1.5 32.001v8c0 9.33301 -0.333008 18.833 -1 28.5s-1 19.167 -1 28.5c0 0.666992 -0.166992 3.33398 -0.5 8.00098s-0.5 9.83398 -0.5 15.501
s-0.166992 11.667 -0.5 18s-0.5 11.833 -0.5 16.5c0 7.33301 0.333008 11.666 1 12.999zM51 304.999c-0.666992 -18.667 -1.00293 -37.665 -1.00293 -56.998v-55v-72.5c0 -24.333 0.333008 -49.833 1 -76.5v-18c13.333 3.33301 25.333 8.66602 36 15.999
s19.667 15.666 27 24.999c4.66699 5.33301 9.16699 12.5 13.5 21.5s8.5 17.167 12.5 24.5c6.66699 9.33301 11.834 19.5 15.501 30.5s7.83398 22.833 12.501 35.5c7.33301 21.333 13.333 45 18 71s7 51.333 7 76c0 21.333 -2.16699 41.666 -6.5 60.999
s-11.833 36.666 -22.5 51.999c-9.33301 14 -23.666 24 -42.999 30s-39 11 -59 15l-11 2v-14c0 -9.33301 0.166992 -18.666 0.5 -27.999s0.5 -18.666 0.5 -27.999v-55.5c0 -18.333 -0.333008 -36.833 -1 -55.5z" />
    <glyph glyph-name="E" unicode="E" horiz-adv-x="208" 
d="M42 495c16.667 2.66699 32.999 5.49805 48.999 8.49805s32.333 4.5 49 4.5c12 0 22.333 -1.33301 31 -4l4.5 -6.5c1.66699 -2.33301 2.5 -4.5 2.5 -6.5c-1.33301 -4 -4.33301 -6 -9 -6c-3.33301 0 -6.5 0.5 -9.5 1.5s-6.16699 1.83301 -9.5 2.5h-10
c-14 0 -28 -1.66699 -42 -5s-28.333 -6 -43 -8c-1.33301 -11.333 -2 -23.833 -2 -37.5v-39.5v-77c0 -1.33301 -0.166992 -2.66602 -0.5 -3.99902s-0.5 -2.66602 -0.5 -3.99902s0.666992 -3.33301 2 -6c0.666992 -1.33301 2.66699 -2 6 -2s7.33301 0.666992 12 2
s8.66699 2.33301 12 3c7.33301 1.33301 14.833 2.33301 22.5 3s15.5 1 23.5 1c10 0 20 -1 30 -3c3.33301 -4.66699 6 -9.66699 8 -15c-2.66699 -3.33301 -7 -5 -13 -5c-3.33301 0 -6.83301 0.333008 -10.5 1s-7.16699 1 -10.5 1c-14 0 -28 -1.5 -42 -4.5
s-27.333 -5.16699 -40 -6.5c-0.666992 -7.33301 -1 -14.333 -1 -21v-21v-21.5c0 -7 -0.333008 -14.167 -1 -21.5c-0.666992 -15.333 -1.16699 -29.5 -1.5 -42.5s-0.5 -25.5 -0.5 -37.5c0 -15.333 0.333008 -30.666 1 -45.999s2 -31 4 -47c2 -0.666992 4.83301 -1 8.5 -1
h11.5h27c9.33301 0.666992 18.5 1 27.5 1s16.833 0.666992 23.5 2c2 0.666992 4.16699 1.66699 6.5 3s4.5 2 6.5 2c0.666992 0 2.33398 -0.666992 5.00098 -2c4 -2 6 -6.66699 6 -14c0 -2.66699 -0.333008 -4.66699 -1 -6c-10.667 -3.33301 -21.334 -5 -32.001 -5
s-21 -0.666992 -31 -2c-22 -2 -42.667 -3 -62 -3c-3.33301 1.33301 -5.66602 2.83301 -6.99902 4.5s-3 3.5 -5 5.5c-0.666992 17.333 -2 34.5 -4 51.5s-3 33.5 -3 49.5v7c0 17.333 0.666992 34.666 2 51.999s2.33301 35 3 53c1.33301 20 1.83301 40.167 1.5 60.5
s0.166992 40.833 1.5 61.5c0.666992 6 1 12 1 18v18v42v24c0 8.66699 0.333008 16.667 1 24v16c0 3.33301 0.666992 6 2 8z" />
    <glyph glyph-name="F" unicode="F" horiz-adv-x="187" 
d="M36 489c1.33301 1.33301 2.99805 2.00488 4.99805 2.00488s4.66699 0.333008 8 1c8 1.33301 17 3.83301 27 7.5s21.667 5.83398 35 6.50098c6.66699 0 13.167 -0.166992 19.5 -0.5s13.166 -0.5 20.499 -0.5h20c10.667 0 16 -3.66699 16 -11
c0 -1.33301 -0.166992 -2.33301 -0.5 -3s-0.5 -1.33398 -0.5 -2.00098c-6 -2.66699 -13.667 -4 -23 -4c-7.33301 0 -14.666 0.5 -21.999 1.5s-14.666 1.5 -21.999 1.5h-5c-4.66699 0 -9.83398 -0.666992 -15.501 -2l-17.5 -4c-3.33301 0 -8.16602 -1.33301 -14.499 -4
s-10.833 -5.33398 -13.5 -8.00098l-0.5 -9c-0.333008 -6 -0.666016 -12.5 -0.999023 -19.5s-0.666016 -13.5 -0.999023 -19.5s-0.5 -9.33301 -0.5 -10c0.666992 -6.66699 1 -12.5 1 -17.5v-15.5c0 -11.333 -0.166992 -22 -0.5 -32s-0.5 -20.333 -0.5 -31v-16h10
c13.333 0 25.666 1.5 36.999 4.5s23.666 4.5 36.999 4.5c4.66699 0 7.83398 -2.66699 9.50098 -8s2.5 -9 2.5 -11c-2 -3.33301 -5.33301 -5 -10 -5h-8c-12 -0.666992 -24.5 -2.5 -37.5 -5.5s-26.167 -4.5 -39.5 -4.5v-78c-0.666992 -9.33301 -1.16699 -18 -1.5 -26
s-0.5 -15.667 -0.5 -23v-37c0 -10 -0.5 -20.167 -1.5 -30.5s-1.5 -20.833 -1.5 -31.5c0 -2.66699 0.166992 -5.33398 0.5 -8.00098s0.5 -5.33398 0.5 -8.00098c0.666992 -4 1.33398 -8.5 2.00098 -13.5s1 -9.16699 1 -12.5c0 -4.66699 -1.33301 -7 -4 -7
c-4.66699 0.666992 -8.33398 1.66699 -11.001 3s-4 4.66602 -4 9.99902c0 8.66699 -0.166992 16.334 -0.5 23.001s-0.5 13.667 -0.5 21c0 59.333 1 116.666 3 171.999s3 110.666 3 165.999v94z" />
    <glyph glyph-name="G" unicode="G" horiz-adv-x="236" 
d="M70 468c4 5.33301 8.99609 10.5029 14.9961 15.5029s11.333 8.83301 16 11.5c8 4.66699 15.333 7.66699 22 9s13.667 2 21 2c4.66699 0 9.5 -0.166992 14.5 -0.5s10.167 -0.5 15.5 -0.5c8 0 12.667 -1 14 -3s2 -4.33301 2 -7c0 -5.33301 -0.833008 -8.5 -2.5 -9.5
s-4.83398 -1.5 -9.50098 -1.5c-9.33301 0 -16.5 0.333008 -21.5 1s-13.833 1 -26.5 1c-6.66699 0 -11.667 -0.666992 -15 -2c-11.333 -4.66699 -20.666 -11.334 -27.999 -20.001s-13.166 -18.334 -17.499 -29.001s-7.66602 -21.667 -9.99902 -33s-4.5 -22.333 -6.5 -33
c-2.66699 -15.333 -4 -32.333 -4 -51c0 -6 0.166992 -12 0.5 -18s0.5 -12 0.5 -18v-20c0 -11.333 -0.166992 -23 -0.5 -35s-0.5 -24.333 -0.5 -37c0 -20.667 0.5 -41.167 1.5 -61.5s4.33301 -38.666 10 -54.999s14.667 -29.666 27 -39.999s29.5 -15.5 51.5 -15.5
c6.66699 0 12.5 4 17.5 12s9.5 18.333 13.5 31s7.33301 26.667 10 42s4.83398 30.5 6.50098 45.5s2.83398 28.833 3.50098 41.5s1 22.334 1 29.001v14c-0.666992 3.33301 -1 7.16602 -1 11.499s-0.666992 8.16602 -2 11.499c-2.66699 6.66699 -7.33398 11 -14.001 13
s-13.667 3 -21 3c-11.333 0 -21.333 -1 -30 -3c-4.66699 4.66699 -7 11 -7 19c12.667 5.33301 25.334 8 38.001 8c12 0 21.667 -2.66699 29 -8c9.33301 -6 15.5 -16.333 18.5 -31s4.5 -29.667 4.5 -45v-14.5c0 -4.33301 -0.333008 -8.83301 -1 -13.5
c-1.33301 -11.333 -2.33301 -23.166 -3 -35.499s-2 -24.5 -4 -36.5c-2 -9.33301 -3.83301 -19.666 -5.5 -30.999s-4.5 -22 -8.5 -32c-2 -4.66699 -4 -9.83398 -6 -15.501s-4.5 -11 -7.5 -16s-6.5 -9.16699 -10.5 -12.5s-9 -5 -15 -5c-28 0 -49.667 6.16699 -65 18.5
s-26.5 28.166 -33.5 47.499s-11.167 40.5 -12.5 63.5s-2 45.5 -2 67.5v5c0 13.333 -0.166992 24.333 -0.5 33s-0.5 15.667 -0.5 21s-0.166992 9.66602 -0.5 12.999s-0.5 6.66602 -0.5 9.99902c0 16.667 0.5 34 1.5 52s3 35.5 6 52.5s7.16699 32.833 12.5 47.5s12 27 20 37z
" />
    <glyph glyph-name="H" unicode="H" horiz-adv-x="219" 
d="M34 286c1.33301 0 2.66309 -0.495117 3.99609 -1.49512s3 -1.5 5 -1.5c0.666992 3.33301 1 6.33301 1 9v7c0 4.66699 -0.166992 8.5 -0.5 11.5s-0.5 6.16699 -0.5 9.5c1.33301 18.667 2 34.334 2 47.001v45c0 9.33301 -0.166992 18.333 -0.5 27
s-0.833008 17.334 -1.5 26.001c0 3.33301 -0.166992 6.33301 -0.5 9s-0.5 5.33398 -0.5 8.00098c0 1.33301 -0.166992 3.33301 -0.5 6s-0.5 5 -0.5 7c0 5.33301 1.66699 8 5 8c2.66699 0 4.83398 -1.83301 6.50098 -5.5s2.83398 -8 3.50098 -13s1.16699 -10.333 1.5 -16
s0.5 -10.5 0.5 -14.5c0.666992 -5.33301 1 -10.833 1 -16.5v-16.5c0 -18.667 -0.166992 -35.334 -0.5 -50.001s-0.5 -32 -0.5 -52v-18c0 -6 0.333008 -12 1 -18c9.33301 0 20.166 0.166992 32.499 0.5s24.166 0.5 35.499 0.5h17c5.33301 0 10.333 -0.333008 15 -1
c6 30.667 9.33301 62.167 10 94.5s1.66699 66.166 3 101.499v8c0 6 1 10.333 3 13c4 0 6.66699 -1.66699 8 -5l4 -10c1.33301 -2.66699 2 -5.66699 2 -9v-10c0 -7.33301 -0.5 -15 -1.5 -23s-1.83301 -15.667 -2.5 -23c-2 -25.333 -3.33301 -48.333 -4 -69
s-2.66699 -43.334 -6 -68.001c0.666992 -1.33301 1.83398 -2.83301 3.50098 -4.5s2.5 -3.83398 2.5 -6.50098c-0.666992 -4.66699 -1.83398 -7 -3.50098 -7s-3.16699 -1 -4.5 -3c-0.666992 -8.66699 -1.16699 -17.334 -1.5 -26.001s-0.5 -17.667 -0.5 -27
c0 -16.667 0.166992 -32 0.5 -46l1 -40.5l1 -39.5c0.333008 -13.333 0.5 -27.666 0.5 -42.999c0 -4 0.333008 -8 1 -12s1 -8 1 -12c0 -7.33301 -0.166992 -11.833 -0.5 -13.5s-1.16602 -2.5 -2.49902 -2.5c-8.66699 0 -13 4.33301 -13 13
c-0.666992 7.33301 -1 14.666 -1 21.999v22c0 21.333 -0.333008 39.666 -1 54.999s-1 33.666 -1 54.999c0 6.66699 -0.166992 13 -0.5 19s-0.5 12.333 -0.5 19c0 4.66699 0.166992 10.5 0.5 17.5s0.5 19.5 0.5 37.5c-6 2 -12.167 3.83301 -18.5 5.5s-12.833 2.5 -19.5 2.5
h-22c-7.33301 0 -14.166 -0.333008 -20.499 -1s-12.166 -2.33398 -17.499 -5.00098c-3.33301 -30.667 -5.33301 -65 -6 -103s-1.66699 -73 -3 -105v-9v-10.5c0 -3.66699 0.333008 -7.16699 1 -10.5c0 -2.66699 0.166992 -5 0.5 -7s0.5 -4.33301 0.5 -7
c0 -6 -2 -9.66699 -6 -11c-5.33301 0.666992 -8.66602 2 -9.99902 4s-2 7.66699 -2 17v23c0 12 0.333008 24.167 1 36.5s1 24.833 1 37.5c0 24.667 1 49.834 3 75.501s3.66699 49.167 5 70.5c0 2 -1.5 2.83301 -4.5 2.5s-4.83301 0.5 -5.5 2.5
c-2 2.66699 -3.16699 4.5 -3.5 5.5s-0.5 3.16699 -0.5 6.5c0 1.33301 0.333008 2.66602 1 3.99902s1.66699 2 3 2z" />
    <glyph glyph-name="I" unicode="I" horiz-adv-x="187" 
d="M93 19c0 -0.666992 0.999023 -1.00488 2.99902 -1.00488c2.66699 0 6.66699 0.5 12 1.5s11 2 17 3s11.833 2.16699 17.5 3.5s10.167 2 13.5 2c0.666992 -1.33301 1 -3.66602 1 -6.99902c0 -2.66699 -0.166992 -4.33398 -0.5 -5.00098s-0.833008 -2 -1.5 -4
c-12.667 -3.33301 -26.834 -6 -42.501 -8s-32.167 -3.33301 -49.5 -4h-15c-4 0 -7.33301 0.5 -10 1.5s-4 4.16699 -4 9.5c0 2.66699 0.333008 5 1 7c1.33301 1.33301 3 2 5 2c1.33301 0 4.66602 -0.666992 9.99902 -2c2 -0.666992 4.16699 -1 6.5 -1h6.5h10l8 1
c-2.66699 27.333 -4.66699 50.5 -6 69.5l-4 55c-1.33301 17.667 -2.5 36.334 -3.5 56.001s-2.16699 43.834 -3.5 72.501c1.33301 33.333 2.33301 59.5 3 78.5s1 37.167 1 54.5v22c0 6 0.166992 11.5 0.5 16.5s0.5 10.333 0.5 16v20.5
c-7.33301 -1.33301 -13.666 -3 -18.999 -5s-11.666 -3.33301 -18.999 -4c-0.666992 1.33301 -1 3.66602 -1 6.99902c0 2.66699 0.166992 4.33398 0.5 5.00098s0.833008 2 1.5 4c12.667 3.33301 26.834 6.83301 42.501 10.5s32.167 5.83398 49.5 6.50098h15
c4 0 7.33301 -0.5 10 -1.5s4 -4.16699 4 -9.5c0 -2.66699 -0.333008 -5 -1 -7c-1.33301 -1.33301 -3 -2 -5 -2c-1.33301 0 -4.66602 0.666992 -9.99902 2c-2 0.666992 -4.16699 1 -6.5 1h-6.5c-6.66699 0 -14 -0.666992 -22 -2s-14.667 -2.33301 -20 -3v-98
c0 -21.333 -0.166992 -42.666 -0.5 -63.999s-0.5 -42.666 -0.5 -63.999c0 -23.333 0.666992 -42.333 2 -57l4 -44c1.33301 -14.667 2.66602 -31.167 3.99902 -49.5s2 -42.5 2 -72.5v-13z" />
    <glyph glyph-name="J" unicode="J" horiz-adv-x="183" 
d="M18 113c3.33301 0 5.16602 -1.00195 5.49902 -3.00195s0.5 -4.33301 0.5 -7c0 -5.33301 0.333008 -9 1 -11c1.33301 -6 3.33301 -13.167 6 -21.5s5.83398 -16.166 9.50098 -23.499s7.33398 -13.833 11.001 -19.5s7.5 -9.5 11.5 -11.5c2 -0.666992 5.33301 -1 10 -1
c16 0 29.833 8.83301 41.5 26.5s17.5 41.834 17.5 72.501v15v28c0 8 -0.166992 15.333 -0.5 22s-0.5 13.167 -0.5 19.5v22.5v158c0 15.333 -0.5 30.166 -1.5 44.499s-1.5 28.166 -1.5 41.499v15c1.33301 9.33301 2.66602 16 3.99902 20h9c3.33301 0 5 -2 5 -6
c0 -2 -0.333008 -5.66699 -1 -11s-1 -9 -1 -11c0 -3.33301 -0.166992 -6.5 -0.5 -9.5s-0.5 -6.16699 -0.5 -9.5c0 -12.667 0.666992 -24.334 2 -35.001s2 -21.667 2 -33v-147c0 -17.333 1 -35.666 3 -54.999s3 -38.666 3 -57.999c0 -24.667 -3.33301 -47.667 -10 -69
s-21 -37.666 -43 -48.999c-10.667 -5.33301 -21 -8 -31 -8c-11.333 0 -19.833 2.83301 -25.5 8.5s-10 12.667 -13 21s-5.5 16.833 -7.5 25.5s-4.66699 16 -8 22c-3.33301 6.66699 -5 13.667 -5 21c0 4 0.333008 7.66699 1 11s3 5 7 5z" />
    <glyph glyph-name="K" unicode="K" horiz-adv-x="244" 
d="M196 8c-5.33301 8 -10.834 16.998 -16.501 26.998s-11.5 18.667 -17.5 26c-13.333 29.333 -26.5 60 -39.5 92s-27.5 61.667 -43.5 89c-5.33301 -2 -9.66602 -4 -12.999 -6s-7.66602 -4 -12.999 -6c0 -17.333 -0.5 -37 -1.5 -59s-1.5 -42.333 -1.5 -61v-30.5
c0 -9 0.166992 -17.5 0.5 -25.5l1 -25c0.333008 -8.66699 0.833008 -18 1.5 -28c-10 0 -16.333 0.666992 -19 2s-4 6 -4 14c0 5.33301 0.833008 13.833 2.5 25.5s2.5 20.5 2.5 26.5v48c0 28 -0.166992 49 -0.5 63s-0.5 24.667 -0.5 32v24.5c0 8.33301 0.333008 16.5 1 24.5
l2 39c0.666992 12.667 1 25.667 1 39c0 24 -0.166992 43.833 -0.5 59.5s-0.5 28.5 -0.5 38.5s-0.166992 18 -0.5 24s-0.5 11.667 -0.5 17c0 4 -0.5 8 -1.5 12s-1.5 8 -1.5 12c0.666992 0.666992 2 1 4 1h4c6 0 10 -8.5 12 -25.5s3 -37.5 3 -61.5
c0 -28 -0.666992 -56.5 -2 -85.5s-2 -51.167 -2 -66.5c0 -9.33301 0.333008 -14.666 1 -15.999l25 14c14 16 25.5 33.667 34.5 53s17.167 39.333 24.5 60l21.5 63c7 21.333 15.5 42 25.5 62c8 -1.33301 12 -6.66602 12 -15.999c0 -2 -0.666992 -5 -2 -9l-15.5 -38.5
c-5 -12.333 -9.83301 -26.833 -14.5 -43.5l-9.5 -28l-9.5 -27l-22 -46c-7.33301 -14.667 -16.333 -27.667 -27 -39c10 -19.333 19.5 -41 28.5 -65s18.167 -46 27.5 -66l29 -57.5c10 -19 21 -36.833 33 -53.5c0 -2.66699 -0.833008 -5.16699 -2.5 -7.5
s-3.83398 -3.5 -6.50098 -3.5c-3.33301 0 -6.33301 2.66699 -9 8z" />
    <glyph glyph-name="L" unicode="L" horiz-adv-x="186" 
d="M36 500c2.66699 0 4.66406 -0.503906 5.99707 -1.50391s3.33301 -1.5 6 -1.5c0.666992 -1.33301 1 -3.66602 1 -6.99902c-0.666992 -20 -1.16699 -37.333 -1.5 -52s-0.5 -27.334 -0.5 -38.001c0 -20.667 0.333008 -34.167 1 -40.5s1 -10.833 1 -13.5
c0 -4 0.166992 -8 0.5 -12s0.5 -8 0.5 -12c0 -13.333 -0.5 -26.666 -1.5 -39.999s-1.5 -26.666 -1.5 -39.999c0 -17.333 0.333008 -34.666 1 -51.999l2 -52c1.33301 -18.667 2.16602 -37.5 2.49902 -56.5s0.833008 -38.167 1.5 -57.5c0 -3.33301 2.5 -5.33301 7.5 -6
s9.16699 -1 12.5 -1c11.333 0 23.833 0.333008 37.5 1s26.5 1 38.5 1c4.66699 0 8.33398 -0.333008 11.001 -1c2.66699 -1.33301 5.16699 -2.16602 7.5 -2.49902s3.5 -1.83301 3.5 -4.5c0 -2 -3 -5 -9 -9h-4h-41.5c-15 0 -29.167 -0.666992 -42.5 -2
c-3.33301 -0.666992 -6.5 -1.16699 -9.5 -1.5s-6.16699 -0.5 -9.5 -0.5s-5.66602 0.333008 -6.99902 1s-3.66602 2.83398 -6.99902 6.50098s-5.33301 7.16699 -6 10.5c0 1.33301 -0.166992 2.33301 -0.5 3s-0.5 1.66699 -0.5 3c0 24 -0.166992 48.833 -0.5 74.5
s-0.5 50.167 -0.5 73.5v19c0 7.33301 -0.5 15 -1.5 23s-1.5 16.333 -1.5 25v186c0 7.33301 -0.166992 13.666 -0.5 18.999s-0.5 10.333 -0.5 15c0 6 0.333008 12.167 1 18.5s2.33398 14.5 5.00098 24.5z" />
    <glyph glyph-name="M" unicode="M" horiz-adv-x="283" 
d="M66 502c12 0 21.835 -2.16992 29.502 -6.50293s13.834 -10 18.501 -17s8.33398 -15.167 11.001 -24.5l8 -29l3 -11l14 37.5c4.66699 13 10.667 24.5 18 34.5c2 2.66699 4.83301 5.83398 8.5 9.50098s7.16699 6.16699 10.5 7.5h4c7.33301 0 14.5 -2.5 21.5 -7.5
s11.833 -9.16699 14.5 -12.5c5.33301 -7.33301 8.83301 -17.166 10.5 -29.499s2.5 -25.5 2.5 -39.5c0 -60.667 0.5 -109.167 1.5 -145.5s2 -64.5 3 -84.5s2 -33.833 3 -41.5s1.5 -13.5 1.5 -17.5c0 -13.333 0.333008 -26.166 1 -38.499s1 -24.5 1 -36.5
c0 -8 0.333008 -13.5 1 -16.5s1 -8.16699 1 -15.5c0 -4 -0.166992 -7.33301 -0.5 -10s-1.5 -5.33398 -3.5 -8.00098h-5c-1.33301 0 -3.16602 0.5 -5.49902 1.5s-3.5 3.83301 -3.5 8.5c0 11.333 -0.166992 20.5 -0.5 27.5s-0.5 17.167 -0.5 30.5
c-0.666992 27.333 -1.66699 51.833 -3 73.5s-2 45.167 -2 70.5v32c0 10 -0.333008 20 -1 30s-1.33398 20.667 -2.00098 32s-1 22.666 -1 33.999v8c0 7.33301 -0.166992 14.5 -0.5 21.5s-0.5 14.167 -0.5 21.5v11c0.666992 6 1.16699 11.833 1.5 17.5s0.5 11.167 0.5 16.5
c0 10 -1.33301 18 -4 24c-2 4 -5.33301 8.16699 -10 12.5s-9.66699 6.5 -15 6.5c-0.666992 0 -3 -1.16699 -7 -3.5s-7.33301 -4.83301 -10 -7.5c-6 -7.33301 -12.333 -17.666 -19 -30.999s-10.667 -25.333 -12 -36c-0.666992 -2 -1 -4.66699 -1 -8
c0 -2.66699 0.166992 -5.16699 0.5 -7.5s0.5 -4.83301 0.5 -7.5c0 -7.33301 -2.33301 -12 -7 -14c-4.66699 4.66699 -8 10.167 -10 16.5s-4.33301 13.166 -7 20.499c-3.33301 6.66699 -5.5 13.834 -6.5 21.501s-3.16699 14.834 -6.5 21.501
c-2.66699 4.66699 -5.16699 10.334 -7.5 17.001s-5.5 11.667 -9.5 15c-2.66699 2 -6 4.33301 -10 7s-7.33301 4 -10 4c-5.33301 -0.666992 -10 -4.83398 -14 -12.501s-6.66699 -14.167 -8 -19.5c-2 -6 -3.33301 -12.833 -4 -20.5s-1 -15.167 -1 -22.5
s0.166992 -14.333 0.5 -21s0.5 -13.334 0.5 -20.001c0 -28 -0.5 -55 -1.5 -81s-1.83301 -54.667 -2.5 -86c0 -22.667 1 -44.5 3 -65.5s3.33301 -47.167 4 -78.5v-21.5c0 -5 0.666992 -11.833 2 -20.5c1.33301 -4 2 -7.66699 2 -11c0 -1.33301 -1 -2.5 -3 -3.5
s-3.66699 -2.16699 -5 -3.5c-2.66699 0 -4.83398 1.5 -6.50098 4.5s-2.83398 6.5 -3.50098 10.5s-1.16699 8 -1.5 12s-0.5 7 -0.5 9c0 25.333 -0.333008 47.5 -1 66.5s-1.33398 36.333 -2.00098 52s-1.33398 30 -2.00098 43s-1 26.5 -1 40.5c0 23.333 0.5 47.833 1.5 73.5
s2.16699 49.834 3.5 72.501v8c0 6 -0.166992 12 -0.5 18s-0.5 12 -0.5 18c0 7.33301 0.333008 14.333 1 21s2 13 4 19c2.66699 8 6 15.667 10 23s9.66699 11 17 11z" />
    <glyph glyph-name="N" unicode="N" horiz-adv-x="250" 
d="M70 505c9.33301 -12 16.3291 -24.8301 20.9961 -38.4971s8.5 -28 11.5 -43s5.66699 -30.667 8 -47s5.83301 -32.5 10.5 -48.5c4.66699 -15.333 9.16699 -32.166 13.5 -50.499s8.83301 -35.833 13.5 -52.5l14 -51.5c4.66699 -17 8.66699 -34.167 12 -51.5
c3.33301 -18 7 -35 11 -51s9.33301 -31.667 16 -47c1.33301 4.66699 2 9.5 2 14.5v15.5c0 15.333 -0.833008 30.666 -2.5 45.999s-2.5 31.333 -2.5 48c0 21.333 -0.333008 39.5 -1 54.5s-1 29.5 -1 43.5v12c0 15.333 1 30.833 3 46.5s3 31.167 3 46.5
c0 14 0.666992 28.167 2 42.5s2 28.833 2 43.5c0 7.33301 -0.333008 14.666 -1 21.999s-1 14.666 -1 21.999c0 4.66699 0.166992 8.5 0.5 11.5s1.16602 6.5 2.49902 10.5c1.33301 0 2.5 0.166992 3.5 0.5s2.16699 0.5 3.5 0.5c2.66699 0 4.33398 -1 5.00098 -3
s1 -6.33301 1 -13c0 -2.66699 -0.166992 -5.66699 -0.5 -9s-0.5 -8.33301 -0.5 -15v-30c0 -33.333 -1.5 -67.333 -4.5 -102s-4.5 -68 -4.5 -100v-23l2 -26c0.666992 -8.66699 1 -17.334 1 -26.001v-26v-13.5c0 -4.33301 0.333008 -8.5 1 -12.5
c1.33301 -9.33301 2.33301 -17.666 3 -24.999s1.33398 -15.666 2.00098 -24.999v-20c0 -6 -0.5 -11.833 -1.5 -17.5s-3.16699 -11.167 -6.5 -16.5c-1.33301 0 -2.83301 -0.166992 -4.5 -0.5s-3.16699 -0.5 -4.5 -0.5c-4 0 -8.16699 4.33301 -12.5 13
s-8.16602 18.667 -11.499 30s-6.16602 22.333 -8.49902 33s-3.83301 17.667 -4.5 21c-6 31.333 -12.667 60 -20 86l-23 82c-5.33301 17.333 -10.166 36.166 -14.499 56.499s-8.16602 40.166 -11.499 59.499c-2 10 -4.5 21 -7.5 33s-6.16699 23.167 -9.5 33.5
s-6.5 18.833 -9.5 25.5s-5.16699 10 -6.5 10h-4c-4 -13.333 -6.16699 -27 -6.5 -41s-0.833008 -27.667 -1.5 -41c-1.33301 -16.667 -2.33301 -33.167 -3 -49.5s-1 -32.166 -1 -47.499c0 -7.33301 0.166992 -15 0.5 -23s0.5 -15.667 0.5 -23
c0 -5.33301 -0.166992 -10.333 -0.5 -15s-0.833008 -9.66699 -1.5 -15c-0.666992 -6.66699 -1 -13.167 -1 -19.5v-18.5c0 -39.333 1 -76.333 3 -111v-11c0 -4.66699 -0.166992 -9 -0.5 -13s-0.5 -8 -0.5 -12c0 -3.33301 0.166992 -6.5 0.5 -9.5s0.833008 -6.16699 1.5 -9.5
c0.666992 -2.66699 1.5 -5.33398 2.5 -8.00098s1.5 -5.33398 1.5 -8.00098c0 -3.33301 -1.33301 -6 -4 -8c-4.66699 0 -8.5 1.5 -11.5 4.5s-4.5 10.833 -4.5 23.5c0 28 -0.333008 53.833 -1 77.5s-1.33398 49.834 -2.00098 78.501v56v46.5
c0 16.333 0.666992 32.166 2 47.499l4 74.5c1.33301 24.333 3 47.5 5 69.5c0 10 3 16.833 9 20.5s12.667 5.83398 20 6.50098z" />
    <glyph glyph-name="O" unicode="O" horiz-adv-x="243" 
d="M138 500c1.33301 0.666992 1.83008 1.50391 1.49707 2.50391s0.833984 1.5 3.50098 1.5c10 0 19 -6 27 -18s15 -25.833 21 -41.5s10.833 -31.167 14.5 -46.5s6.5 -26 8.5 -32c2 -25.333 3.16699 -46 3.5 -62s0.5 -28.667 0.5 -38v-39c0 -10 0.333008 -19.833 1 -29.5
s1 -19.167 1 -28.5v-13c-1.33301 -12 -3.83301 -27.167 -7.5 -45.5s-8.66699 -36.166 -15 -53.499s-14.666 -32.333 -24.999 -45s-22.833 -19 -37.5 -19c-8 0 -16 1.66699 -24 5s-15.333 7.66602 -22 12.999s-12.667 11.166 -18 17.499s-9.33301 12.166 -12 17.499
c-5.33301 9.33301 -9.16602 19.666 -11.499 30.999s-4.16602 23 -5.49902 35c-1.33301 6 -2.5 12 -3.5 18s-1.83301 12 -2.5 18c-1.33301 8.66699 -2.5 17.167 -3.5 25.5s-1.5 16.833 -1.5 25.5c0 25.333 -1.16699 48.5 -3.5 69.5s-3.5 41.833 -3.5 62.5c0 12 1 24.333 3 37
s5.66699 26.667 11 42c4.66699 12.667 9.83398 24.667 15.501 36s12.5 21.666 20.5 30.999c5.33301 6 11.666 11.833 18.999 17.5s16.666 8.5 27.999 8.5c5.33301 0 11 -1 17 -3zM120.997 483.004h-6.49707c-2.33301 0 -4.5 -0.333008 -6.5 -1
c-16 -11.333 -29.333 -27 -40 -47s-19.334 -42 -26.001 -66c-2 -6.66699 -3.33301 -12.667 -4 -18s-1 -10.666 -1 -15.999c0 -10.667 0.666992 -22.667 2 -36s2.83301 -26.833 4.5 -40.5s3.16699 -27.334 4.5 -41.001s2 -26.167 2 -37.5c0 -15.333 0.833008 -28.5 2.5 -39.5
s3.16699 -21.5 4.5 -31.5c1.33301 -13.333 3.66602 -25.166 6.99902 -35.499s8.66602 -19.5 15.999 -27.5c6 -7.33301 13.5 -14.5 22.5 -21.5s18.5 -10.5 28.5 -10.5c8 0 15.333 2.33301 22 7c5.33301 3.33301 10.5 8.83301 15.5 16.5s9.33301 16.334 13 26.001
s6.83398 19.667 9.50098 30s4.66699 19.833 6 28.5c1.33301 7.33301 2.83301 14.166 4.5 20.499s2.5 11.833 2.5 16.5c0.666992 3.33301 1 6.66602 1 9.99902v10c0 28.667 -1.16699 56.667 -3.5 84s-3.5 54.333 -3.5 81c0 12 -1.33301 26 -4 42s-7 31.167 -13 45.5
s-13.833 26.5 -23.5 36.5s-21.834 15 -36.501 15z" />
    <glyph glyph-name="P" unicode="P" horiz-adv-x="213" 
d="M52 173c0 -20 -1.00098 -41 -3.00098 -63s-3 -43 -3 -63c0 -4 0.166992 -7.83301 0.5 -11.5s0.5 -7.16699 0.5 -10.5c0.666992 -4 1.5 -7 2.5 -9s1.5 -4.66699 1.5 -8c0 -4 -1.16699 -6.33301 -3.5 -7s-4.5 -1 -6.5 -1c-4 2.66699 -6.33301 4.66699 -7 6
s-1 4.66602 -1 9.99902v4c0 4 0.166992 8.33301 0.5 13s0.5 9 0.5 13v39v12c0 4 0.333008 8 1 12c2 24 3 47.667 3 71c0 32 -0.833008 61.833 -2.5 89.5s-2.5 56.5 -2.5 86.5v4c0 4 -0.166992 10.167 -0.5 18.5l-1 25.5
c-0.333008 8.66699 -0.666016 16.834 -0.999023 24.501s-0.5 12.834 -0.5 15.501c0 3.33301 0.166992 6.16602 0.5 8.49902s0.5 4.5 0.5 6.5c0 16 6.33301 27.667 19 35s27.334 11 44.001 11c9.33301 0 18.333 -1 27 -3s16.667 -5 24 -9c16 -10 26.833 -25.5 32.5 -46.5
s8.5 -42.167 8.5 -63.5v-7c-0.666992 -32.667 -6.83398 -59.834 -18.501 -81.501s-26.167 -42.167 -43.5 -61.5c-10 -10.667 -20 -20.667 -30 -30s-24 -14.666 -42 -15.999v-14zM108.999 245c12.667 12.667 25.002 27.666 37.002 44.999s19.667 35.666 23 54.999
c1.33301 6.66699 2.33301 13.334 3 20.001s1 13.334 1 20.001c0 15.333 -1.5 29.5 -4.5 42.5s-7.5 23.167 -13.5 30.5c-2.66699 3.33301 -7.33398 7.33301 -14.001 12s-12 7.66699 -16 9c-6 1.33301 -12 2.33301 -18 3s-12 1 -18 1c-7.33301 0 -14.666 -1 -21.999 -3
s-13.333 -5 -18 -9c-0.666992 -17.333 -1.33398 -36 -2.00098 -56s-1 -39.667 -1 -59v-14c1.33301 -24.667 2.16602 -47.5 2.49902 -68.5s1.83301 -42.833 4.5 -65.5c12.667 2 23.167 6.5 31.5 13.5s16.5 14.833 24.5 23.5z" />
    <glyph glyph-name="Q" unicode="Q" horiz-adv-x="290" 
d="M36 131c-2 25.333 -3.16406 45.9961 -3.49707 61.9961s-0.5 28.667 -0.5 38v39c0 10 -0.333008 19.833 -1 29.5s-1 19.167 -1 28.5v13c1.33301 12 3.66602 27.167 6.99902 45.5s8.33301 36.166 15 53.499s15 32.333 25 45s22.667 19 38 19c8 0 16 -1.66699 24 -5
s15.333 -7.66602 22 -12.999s12.5 -11.166 17.5 -17.499s9.16699 -12.166 12.5 -17.499c5.33301 -9.33301 9.16602 -19.666 11.499 -30.999s4.16602 -23 5.49902 -35c1.33301 -6 2.5 -12 3.5 -18s1.83301 -12 2.5 -18c1.33301 -8.66699 2.5 -17.167 3.5 -25.5
s1.5 -16.833 1.5 -25.5c0 -25.333 1.16699 -48.5 3.5 -69.5s3.5 -41.833 3.5 -62.5c0 -12 -1 -24.333 -3 -37s-5.66699 -26.667 -11 -42l-7 -19l16 -15.5c5.33301 -5 10.333 -10.167 15 -15.5c4 -4.66699 7.66699 -9.16699 11 -13.5s7.66602 -8.16602 12.999 -11.499
c-0.666992 -4 -1.33398 -7.5 -2.00098 -10.5s-2.66699 -5.16699 -6 -6.5c-3.33301 0 -6.83301 1.83301 -10.5 5.5s-7.16699 7.5 -10.5 11.5c-6 8 -12.5 15.167 -19.5 21.5s-12.167 11.5 -15.5 15.5c-6 -9.33301 -12.667 -19 -20 -29
c-5.33301 -6 -11.666 -11.833 -18.999 -17.5s-16.666 -8.5 -27.999 -8.5c-17.333 0 -32 4.5 -44 13.5s-21.667 20.333 -29 34s-12.5 28.5 -15.5 44.5s-4.5 31 -4.5 45zM129.003 13.9961h6.49805c2.33301 0 4.5 0.333008 6.5 1c7.33301 5.33301 14.333 11.833 21 19.5
s12.667 16.167 18 25.5c-7.33301 4.66699 -14.833 9.16699 -22.5 13.5s-11.5 9.16602 -11.5 14.499c0 0.666992 0.666992 2.33398 2 5.00098l4 6c7.33301 0 14.166 -2.33301 20.499 -7l17.5 -13c3.33301 7.33301 6.33301 15 9 23s5.33398 16.667 8.00098 26
c2 6.66699 3.33301 12.667 4 18s1 10.666 1 15.999c0 10.667 -0.666992 22.667 -2 36s-2.83301 26.833 -4.5 40.5s-3.16699 27.334 -4.5 41.001s-2 26.167 -2 37.5c0 15.333 -0.833008 28.5 -2.5 39.5s-3.16699 21.5 -4.5 31.5
c-1.33301 13.333 -3.66602 25.166 -6.99902 35.499s-8.66602 19.5 -15.999 27.5c-6 7.33301 -13.5 14.5 -22.5 21.5s-18.5 10.5 -28.5 10.5c-8 0 -15.333 -2.33301 -22 -7c-5.33301 -3.33301 -10.5 -8.83301 -15.5 -16.5s-9.33301 -16.334 -13 -26.001
s-6.83398 -19.667 -9.50098 -30s-4.66699 -19.833 -6 -28.5c-1.33301 -7.33301 -2.83301 -14.166 -4.5 -20.499s-2.5 -11.833 -2.5 -16.5c-0.666992 -3.33301 -1 -6.66602 -1 -9.99902v-10c0 -28.667 1.16699 -56.667 3.5 -84s3.5 -54.333 3.5 -81c0 -12 1.33301 -26 4 -42
s7 -31.167 13 -45.5s13.833 -26.5 23.5 -36.5s21.834 -15 36.501 -15z" />
    <glyph glyph-name="R" unicode="R" horiz-adv-x="285" 
d="M43 470c0 2 -0.667969 3 -2.00098 3h-8c-1.33301 0 -2.33301 0.333008 -3 1v5c0 4 0.333008 7.16699 1 9.5s1.66699 4.83301 3 7.5c6 0.666992 10.833 1.5 14.5 2.5s8.16699 1.5 13.5 1.5c3.33301 0 6.83301 0.333008 10.5 1s7.16699 1 10.5 1h4
c10.667 0 21.334 -1.5 32.001 -4.5s21 -6.5 31 -10.5l6 -2c15.333 -4.66699 28.5 -10.5 39.5 -17.5s19.5 -17.5 25.5 -31.5c3.33301 -10 5 -19.333 5 -28c0 -29.333 -3.83301 -52.166 -11.5 -68.499s-17.667 -28.666 -30 -36.999s-26.833 -14.5 -43.5 -18.5l-52 -13
c2.66699 -5.33301 6.16699 -9.66602 10.5 -12.999s8.83301 -7 13.5 -11l6 -6c6 -5.33301 12.333 -11.333 19 -18s14 -15.167 22 -25.5s16.5 -23 25.5 -38s18.833 -33.5 29.5 -55.5c7.33301 -15.333 13.666 -30 18.999 -44s11 -28 17 -42
c0.666992 -1.33301 1.5 -3.33301 2.5 -6s1.5 -5 1.5 -7c0 -3.33301 -2 -5.33301 -6 -6c-4 0.666992 -6.83301 2 -8.5 4s-3.5 5.33301 -5.5 10c0 1.33301 -0.5 2.33301 -1.5 3s-1.5 1.66699 -1.5 3c-0.666992 0.666992 -2 3.66699 -4 9s-4.33301 11 -7 17
s-5.16699 12 -7.5 18s-3.83301 10 -4.5 12c-3.33301 9.33301 -7.83301 18.333 -13.5 27s-10.167 17.667 -13.5 27c-13.333 30 -31.333 55.5 -54 76.5s-46 41.167 -70 60.5c-0.666992 -3.33301 -1 -6.33301 -1 -9v-9c0 -9.33301 0.333008 -19 1 -29s1 -19.667 1 -29v-52
c0 -12.667 -0.166992 -25.167 -0.5 -37.5s-0.5 -24.166 -0.5 -35.499v-21.5c0 -7 0.666992 -14.167 2 -21.5c0 -2 0.166992 -4 0.5 -6s0.5 -4 0.5 -6c0 -7.33301 -3.66699 -12 -11 -14c-3.33301 3.33301 -5.16602 7.5 -5.49902 12.5s-0.833008 10.167 -1.5 15.5
s-1 11.166 -1 17.499v18.5v25c0 8 0.333008 15.333 1 22v19c0 15.333 -0.166992 30.5 -0.5 45.5s-0.5 29.5 -0.5 43.5v19c0 32 -0.666992 60.667 -2 86s-2 49.666 -2 72.999c0 13.333 0.333008 26.166 1 38.499s2 25.166 4 38.499zM71.999 291c29.333 0 53.5 4 72.5 12
s35.833 21.333 50.5 40c5.33301 7.33301 9.16602 17 11.499 29s3.5 21.667 3.5 29c0 16.667 -7 31.667 -21 45c-7.33301 6 -16.166 11.167 -26.499 15.5s-20.833 8.16602 -31.5 11.499c-8.66699 3.33301 -17.167 5.33301 -25.5 6s-16.5 1 -24.5 1c-6.66699 0 -14 -1 -22 -3
c-2 -8.66699 -3.33301 -17.834 -4 -27.501s-1 -19.5 -1 -29.5c0 -19.333 0.666992 -38.666 2 -57.999s2 -38.666 2 -57.999v-11c0 -1.33301 1 -2 3 -2h11z" />
    <glyph glyph-name="S" unicode="S" horiz-adv-x="237" 
d="M119 17c24.667 0 44.667 5.99805 60 17.998c6 5.33301 11.167 13 15.5 23s6.5 21 6.5 33c0 32 -7.16699 57.5 -21.5 76.5s-32.833 36.833 -55.5 53.5c-11.333 8 -22 16.333 -32 25s-20 18.334 -30 29.001c-13.333 15.333 -22.833 31.333 -28.5 48s-8.5 35 -8.5 55
c0 22.667 4 43 12 61c9.33301 16.667 21.5 31.834 36.5 45.501s34.5 20.5 58.5 20.5c4 0 9.33301 -0.166992 16 -0.5s13.167 -1 19.5 -2s11.666 -3 15.999 -6s6.5 -6.83301 6.5 -11.5c0 -1.33301 -0.666992 -4 -2 -8c-7.33301 2 -15.166 3.66699 -23.499 5s-16.5 2 -24.5 2
c-10 0 -19.667 -1.16699 -29 -3.5s-17.666 -6.5 -24.999 -12.5c-13.333 -10.667 -24.333 -25 -33 -43s-13 -37.333 -13 -58c0 -27.333 7.33301 -49.666 22 -66.999s32.334 -34.333 53.001 -51l34 -25c10 -7.33301 19.667 -15.5 29 -24.5s16.666 -19.167 21.999 -30.5
c7.33301 -13.333 12 -26.333 14 -39s3 -25.667 3 -39c0 -26.667 -7.33301 -49 -22 -67s-36.334 -27 -65.001 -27c-15.333 0 -30.833 2.83301 -46.5 8.5s-27.834 12.167 -36.501 19.5l-16 14c-6.66699 6 -10 11.333 -10 16c0 2.66699 1.66699 5 5 7
c4 -0.666992 9 -3.33398 15 -8.00098l20.5 -15.5c7.66699 -5.66699 16.334 -10.667 26.001 -15s20.167 -6.5 31.5 -6.5z" />
    <glyph glyph-name="T" unicode="T" horiz-adv-x="266" 
d="M12 502c2 2 3.66504 3 4.99805 3c2 0 4.16699 -0.666992 6.5 -2s4.16602 -2 5.49902 -2c8.66699 0 18 0.166992 28 0.5s19.667 0.5 29 0.5h14.5c4.33301 0 8.83301 -0.333008 13.5 -1h15c1.33301 0 2.33301 -0.166992 3 -0.5s1.33398 -0.5 2.00098 -0.5h84l13.5 2
c4.33301 0.666992 8.5 1 12.5 1c5.33301 0 9.33301 -1 12 -3v-11c0 -3.33301 -0.333008 -5.66602 -1 -6.99902c-7.33301 -1.33301 -14.833 -2.33301 -22.5 -3s-15.5 -1 -23.5 -1c-12 0 -23.833 0.333008 -35.5 1s-22.5 1 -32.5 1h-11c-1.33301 -6 -2 -12 -2 -18v-18
c0 -8.66699 0.166992 -17 0.5 -25s0.833008 -16 1.5 -24c2 -8 3.16699 -24.5 3.5 -49.5s0.5 -53.5 0.5 -85.5v-95v-63c0 -18.667 0.666992 -33.667 2 -45l2 -19.5c0.666992 -6.33301 1 -12.5 1 -18.5c0 -3.33301 -0.166992 -6.5 -0.5 -9.5s-0.833008 -6.16699 -1.5 -9.5
c-8.66699 1.33301 -13.834 4.83301 -15.501 10.5s-2.83398 12.834 -3.50098 21.501c0 12.667 -0.166992 25.834 -0.5 39.501s-0.5 26.167 -0.5 37.5c0 22 0.166992 43.833 0.5 65.5s0.5 43.167 0.5 64.5c0 23.333 -0.333008 46.833 -1 70.5s-2 47.5 -4 71.5
c-0.666992 7.33301 -1 14.333 -1 21v21v40c0 3.33301 0.166992 6.16602 0.5 8.49902s0.5 5.16602 0.5 8.49902c-3.33301 0.666992 -7 1.16699 -11 1.5s-8 0.5 -12 0.5c-7.33301 0 -14.666 -0.166992 -21.999 -0.5s-14.666 -0.5 -21.999 -0.5
c-5.33301 0 -10.666 0.166992 -15.999 0.5s-10.666 1.16602 -15.999 2.49902c-0.666992 2 -1.5 4.16699 -2.5 6.5s-1.5 4.5 -1.5 6.5s0.666992 3.66699 2 5z" />
    <glyph glyph-name="U" unicode="U" horiz-adv-x="254" 
d="M34 501c2.66699 1.33301 4.67188 2.00293 6.00488 2.00293c4 0 6 -4.66699 6 -14v-7c0 -27.333 0.833008 -53.333 2.5 -78s3.16699 -53 4.5 -85c0.666992 -13.333 1 -26.666 1 -39.999v-40c0 -26 0.5 -51.333 1.5 -76s4.16699 -47.667 9.5 -69
c2 -8 5.16699 -16.333 9.5 -25s9.5 -16.334 15.5 -23.001c5.33301 -7.33301 11.666 -14.166 18.999 -20.499s15.666 -9.5 24.999 -9.5c4.66699 0 8.5 1 11.5 3s6.16699 4.33301 9.5 7c4.66699 4 9.16699 10.333 13.5 19s8.16602 18 11.499 28s6.16602 20 8.49902 30
s4.16602 18.333 5.49902 25c2 2.66699 3.66699 9.5 5 20.5s2.5 24.167 3.5 39.5s1.83301 31.5 2.5 48.5s1.16699 32.667 1.5 47s0.666016 26.166 0.999023 35.499s0.833008 14 1.5 14c0 3.33301 -0.166992 11.666 -0.5 24.999s-0.666016 28.166 -0.999023 44.499l-1 48.5
c-0.333008 16 -0.5 28.667 -0.5 38c0 6 0.333008 9.66699 1 11c0.666992 0.666992 1.66699 1 3 1s2.83301 -0.5 4.5 -1.5s3.16699 -2.16699 4.5 -3.5c0.666992 -16 1.33398 -31.167 2.00098 -45.5s1.16699 -28.833 1.5 -43.5l1 -45.5
c0.333008 -15.667 0.5 -32.834 0.5 -51.501c0 -34 -1.5 -68 -4.5 -102s-7.16699 -68 -12.5 -102l-12 -41c-4.66699 -15.333 -9.83398 -29 -15.501 -41s-16.167 -19.667 -31.5 -23c-2.66699 -0.666992 -6.66699 -1 -12 -1c-13.333 0 -24.5 3.66699 -33.5 11
s-16.833 15.333 -23.5 24c-10 13.333 -18 28.833 -24 46.5s-10.5 37 -13.5 58s-4.83301 43 -5.5 66s-1 46.167 -1 69.5v13c0 15.333 -0.333008 29.833 -1 43.5l-2 40.5c-0.666992 16.667 -1.16699 31.167 -1.5 43.5s-0.5 24.5 -0.5 36.5c0 7.33301 0.5 15 1.5 23
s1.83301 16.667 2.5 26z" />
    <glyph glyph-name="V" unicode="V" horiz-adv-x="252" 
d="M30 504c2.66699 2.66699 5.33594 4.00195 8.00293 4.00195c4 0 6.66699 -2.83301 8 -8.5s2.66602 -11.834 3.99902 -18.501c0 -5.33301 0.333008 -10.5 1 -15.5s1.66699 -9.83301 3 -14.5c1.33301 -11.333 3.16602 -21.333 5.49902 -30s4.16602 -17.667 5.49902 -27
l9 -56c2.66699 -9.33301 4.5 -18.833 5.5 -28.5s2.5 -19.167 4.5 -28.5c8 -40 17 -81.5 27 -124.5s20.333 -80.833 31 -113.5c5.33301 50 10 100 14 150s11 99 21 147c5.33301 28 9.83301 55.333 13.5 82s10.167 52.667 19.5 78c2.66699 0 4.83398 -0.333008 6.50098 -1
s3.5 -1.33398 5.5 -2.00098c-0.666992 -10 -2.66699 -19.667 -6 -29s-6 -19 -8 -29c-2.66699 -10 -4.33398 -19.833 -5.00098 -29.5s-2 -19.5 -4 -29.5c-3.33301 -20 -7 -40.167 -11 -60.5s-7.66699 -40.5 -11 -60.5c-3.33301 -18 -5.5 -36.667 -6.5 -56
s-2.16699 -39 -3.5 -59s-2.83301 -39.833 -4.5 -59.5s-4.5 -38.834 -8.5 -57.501v-13c0 -8.66699 -2.33301 -13.667 -7 -15c-4 0 -7 1.83301 -9 5.5s-3.66699 8.33398 -5 14.001s-2.5 11.5 -3.5 17.5s-2.16699 11.667 -3.5 17l-8.5 28.5
c-3 9.66699 -6.16699 19.167 -9.5 28.5c-10 38.667 -19 78.667 -27 120c-4 20.667 -8.33301 41.167 -13 61.5s-8.66699 41.166 -12 62.499c-2 11.333 -3.5 22.333 -4.5 33s-2.83301 21.334 -5.5 32.001l-6 29c-1.33301 10 -2.5 19.667 -3.5 29s-3.16699 18.333 -6.5 27z" />
    <glyph glyph-name="W" unicode="W" horiz-adv-x="300" 
d="M37 500c6 0 9.66113 -1.66895 10.9941 -5.00195s3 -8 5 -14c3.33301 -18.667 6.83301 -37 10.5 -55s7.16699 -36.667 10.5 -56c2.66699 -18.667 4.33398 -37.5 5.00098 -56.5s2 -38.167 4 -57.5c3.33301 -40 4.83301 -78.333 4.5 -115s3.5 -73 11.5 -109
c8.66699 8 14.167 17.5 16.5 28.5s5.16602 23.167 8.49902 36.5s7 26.166 11 38.499s7.66699 24.166 11 35.499c0.666992 0 1.5 0.166992 2.5 0.5s2.16699 0.5 3.5 0.5s2.33301 -0.166992 3 -0.5s1.66699 -0.5 3 -0.5c7.33301 -13.333 12.333 -27.166 15 -41.499
s7.33398 -30.166 14.001 -47.499c2 -4.66699 4.5 -9.5 7.5 -14.5l9.5 -15.5c3.33301 -4.66699 6.83301 -11.167 10.5 -19.5s7.83398 -12.5 12.501 -12.5c2.66699 0 4.66699 3 6 9s2.33301 13 3 21s1 15.667 1 23s0.333008 12.333 1 15c1.33301 5.33301 2 10.333 2 15v14v27
c0 3.33301 0.166992 6.5 0.5 9.5s0.5 6.16699 0.5 9.5c3.33301 58.667 5.66602 115.834 6.99902 171.501s4.33301 111.167 9 166.5c5.33301 0 9.66602 -1 12.999 -3c0 -16.667 -0.666992 -34.167 -2 -52.5s-2.33301 -35.5 -3 -51.5v-39.5c0 -13 -0.333008 -26.5 -1 -40.5
c0 -10 -0.5 -20.5 -1.5 -31.5s-1.5 -21.833 -1.5 -32.5c0 -5.33301 0.166992 -10.666 0.5 -15.999s0.5 -10.666 0.5 -15.999c-1.33301 -24 -2.5 -46.167 -3.5 -66.5s-2.5 -40.166 -4.5 -59.499c0 -3.33301 -0.166992 -9.66602 -0.5 -18.999s-1 -19 -2 -29
s-2.33301 -19.167 -4 -27.5s-3.83398 -13.166 -6.50098 -14.499c-3.33301 -2 -8.66602 -3 -15.999 -3c-1.33301 0 -2.66602 0.166992 -3.99902 0.5s-2.33301 0.5 -3 0.5c-4.66699 1.33301 -8.66699 5.16602 -12 11.499s-6.66602 11.833 -9.99902 16.5
c-9.33301 14.667 -17.666 31.667 -24.999 51s-13 38 -17 56c-3.33301 -8.66699 -6.16602 -16.834 -8.49902 -24.501s-4.83301 -16.5 -7.5 -26.5c-3.33301 -14.667 -7 -27.667 -11 -39s-9.33301 -22.666 -16 -33.999c-1.33301 -2 -3.16602 -4.5 -5.49902 -7.5
s-4.83301 -4.5 -7.5 -4.5c-1.33301 0 -3.33301 3.66699 -6 11s-5.16699 15.5 -7.5 24.5l-6.5 25.5c-2 8 -3 13 -3 15c-3.33301 21.333 -5.33301 43 -6 65s-1 45.333 -1 70c0 32 -1 64.5 -3 97.5s-6.33301 64.5 -13 94.5c-2 7.33301 -3.83301 14.833 -5.5 22.5
s-3.16699 15.167 -4.5 22.5c-1.33301 8 -3.66602 16.167 -6.99902 24.5s-5 16.166 -5 23.499c0 1.33301 0.333008 2.16602 1 2.49902s2.66699 1.16602 6 2.49902z" />
    <glyph glyph-name="X" unicode="X" horiz-adv-x="257" 
d="M30 12c4.66699 13.333 10.0039 27.165 16.0039 41.498l18 44.5l32 79.5c11.333 27 21.666 53.833 30.999 80.5c-5.33301 23.333 -12 45.333 -20 66l-24 63c-2.66699 6.66699 -5.33398 13 -8.00098 19s-5 12.333 -7 19l-10 28.5
c-3.33301 9.66699 -7.33301 18.834 -12 27.501c-1.33301 6.66699 -2 10.667 -2 12c0 2 1 4.66699 3 8c7.33301 0 12.333 -3.16699 15 -9.5s4.66699 -11.833 6 -16.5c11.333 -32 23.5 -63.333 36.5 -94s23.167 -62.334 30.5 -95.001c11.333 28.667 22.833 60.334 34.5 95.001
s23.834 67 36.501 97c1.33301 4.66699 3 9.66699 5 15s5 8 9 8c1.33301 0 3.66602 -1 6.99902 -3c0 -11.333 -2.5 -21 -7.5 -29s-8.83301 -16.667 -11.5 -26c-9.33301 -22.667 -19.166 -48.834 -29.499 -78.501s-19.5 -57.167 -27.5 -82.5l-4.5 -11
c-1.66699 -4 -2.5 -7 -2.5 -9c0 -3.33301 1.66699 -8.16602 5 -14.499s6 -12.166 8 -17.499l27.5 -78.5c9 -25.667 17.167 -53.167 24.5 -82.5l4.5 -18.5c1.66699 -7 3.5 -13.167 5.5 -18.5c1.33301 -3.33301 2.5 -6.5 3.5 -9.5s1.5 -6.16699 1.5 -9.5
c0 -6 -2.33301 -10.333 -7 -13c-4 3.33301 -6.83301 7.5 -8.5 12.5s-3.16699 9.83301 -4.5 14.5c-10.667 34.667 -20.834 70.667 -30.501 108s-22.167 71 -37.5 101c-14.667 -34 -28.334 -68.667 -41.001 -104s-26.667 -70 -42 -104c-3.33301 -6 -5.33301 -10.833 -6 -14.5
s-3.33398 -8.16699 -8.00098 -13.5c-6 1.33301 -9 5.33301 -9 12z" />
    <glyph glyph-name="Y" unicode="Y" horiz-adv-x="276" 
d="M171 310c8 10.667 14.333 24.998 19 42.998s10.667 34.667 18 50c4 9.33301 8.5 18.833 13.5 28.5s9.83301 19.834 14.5 30.501c0.666992 2.66699 1.83398 6.33398 3.50098 11.001s3.5 9.33398 5.5 14.001s4.16699 8.83398 6.5 12.501s4.5 5.5 6.5 5.5
c1.33301 0 2.33301 -0.333008 3 -1s2.33398 -1.66699 5.00098 -3c-3.33301 -22 -10.666 -43.333 -21.999 -64s-20.333 -40.334 -27 -59.001c0 -0.666992 -0.666992 -2.33398 -2 -5.00098l-18 -50c-6.66699 -18 -14.334 -31.333 -23.001 -40
c1.33301 -5.33301 2.16602 -12.5 2.49902 -21.5s0.5 -16.833 0.5 -23.5c0 -18.667 -0.333008 -38 -1 -58s-1.66699 -39.667 -3 -59c-0.666992 -6.66699 -1.16699 -13.167 -1.5 -19.5s-0.5 -12.833 -0.5 -19.5c0 -8.66699 0.166992 -17 0.5 -25s0.5 -15.333 0.5 -22
c0 -4 0.333008 -7.66699 1 -11s1 -6.66602 1 -9.99902c0 -7.33301 -3 -12.333 -9 -15c-3.33301 4 -5.5 9.83301 -6.5 17.5s-1.5 15.834 -1.5 24.501v22c0 3.33301 -0.166992 6.83301 -0.5 10.5s-0.5 7.16699 -0.5 10.5c0 14.667 0.5 28.667 1.5 42
s2.16699 26.666 3.5 39.999c1.33301 11.333 2 22.833 2 34.5v34.5c0 9.33301 -0.333008 18.833 -1 28.5s-1 18.167 -1 25.5c-1.33301 3.33301 -5.83301 10.666 -13.5 21.999s-17.167 24.5 -28.5 39.5l-36 47.5l-35.5 46.5l-27 36c-7 9.66699 -10.167 14.834 -9.5 15.501
c0.666992 1.33301 1.83398 2.16602 3.50098 2.49902s3.16699 0.833008 4.5 1.5c7.33301 -4.66699 14.166 -11.5 20.499 -20.5s10.5 -14.5 12.5 -16.5c21.333 -22.667 41.666 -47.5 60.999 -74.5z" />
    <glyph glyph-name="Z" unicode="Z" horiz-adv-x="227" 
d="M30 4c1.33301 20.667 5.50488 38.5 12.5049 53.5s13.833 30.833 20.5 47.5c9.33301 25.333 18.166 51 26.499 77s17.166 52 26.499 78c13.333 36 23.833 72 31.5 108s18.167 72 31.5 108h-4c-5.33301 0 -10.833 0.666992 -16.5 2s-11.5 2.33301 -17.5 3h-15
c-10.667 0 -21.334 -0.333008 -32.001 -1s-21 -1 -31 -1c-5.33301 0 -10.333 0.166992 -15 0.5s-9.33398 0.833008 -14.001 1.5c-2 2.66699 -3 6.66699 -3 12c0 2.66699 0.5 4.33398 1.5 5.00098s2.16699 1.66699 3.5 3c3.33301 -0.666992 6.66602 -1 9.99902 -1h12
c8.66699 0 18 0.166992 28 0.5s20.333 0.5 31 0.5h15c4.66699 0 9.66699 -0.333008 15 -1c2 0 5.66699 -0.166992 11 -0.5s10.666 -0.833008 15.999 -1.5s10 -1.16699 14 -1.5s6.33301 -0.833008 7 -1.5c1.33301 -1.33301 2 -4 2 -8c0 -5.33301 -1.33301 -10.5 -4 -15.5
s-4.66699 -9.5 -6 -13.5c-11.333 -48.667 -23.666 -97 -36.999 -145s-27.666 -95 -42.999 -141c-9.33301 -26.667 -20 -52.5 -32 -77.5s-22 -50.5 -30 -76.5c11.333 0 22.333 -0.166992 33 -0.5s21 -0.5 31 -0.5h11h17c6 0 11.5 0.166992 16.5 0.5s8.5 0.833008 10.5 1.5
c5.33301 1.33301 10.333 2 15 2c5.33301 0 10.666 -1 15.999 -3l1 -9c-0.666992 -4 -2.83398 -6.33301 -6.50098 -7s-7.16699 -1 -10.5 -1c-2.66699 0 -5.5 0.166992 -8.5 0.5s-6.16699 0.5 -9.5 0.5h-23c-13.333 0 -26.666 -0.333008 -39.999 -1
c-10.667 0 -21 0.166992 -31 0.5s-22.333 1.16602 -37 2.49902z" />
    <glyph glyph-name="bracketleft" unicode="[" horiz-adv-x="168" 
d="M51 553c6 0 12.166 0.164062 18.499 0.49707s12.833 0.5 19.5 0.5h9c7.33301 -0.666992 14.5 -1.5 21.5 -2.5s12.833 -2.5 17.5 -4.5c0 -0.666992 0.166992 -1.16699 0.5 -1.5s0.5 -0.833008 0.5 -1.5c0 -2.66699 -0.666992 -4.33398 -2 -5.00098
c-2 -0.666992 -5.33301 -1 -10 -1c-11.333 0 -20.666 0.333008 -27.999 1s-15 1 -23 1h-8c-2.66699 0 -5.66699 -0.333008 -9 -1c-2 -6.66699 -3.33301 -14.667 -4 -24s-1 -17.666 -1 -24.999s0.166992 -14.666 0.5 -21.999s0.5 -14.666 0.5 -21.999v-11
c0 -58.667 -2 -115.334 -6 -170.001c-0.666992 -5.33301 -1 -11.166 -1 -17.499v-20.5v-51v-26c0 -8.66699 -0.333008 -17 -1 -25v-8c0 -8 0.666992 -17.5 2 -28.5s2.83301 -22.333 4.5 -34s3.16699 -23.167 4.5 -34.5s2 -21.666 2 -30.999v-14
c0 -6.66699 -0.333008 -11 -1 -13h70c4.66699 0 7 -2 7 -6c0 -2 -2 -3.66699 -6 -5s-8.83301 -2.16602 -14.5 -2.49902l-17 -1c-5.66699 -0.333008 -10.5 -0.5 -14.5 -0.5c-15.333 0 -27.333 1.66699 -36 5c-3.33301 7.33301 -5 14.833 -5 22.5s-0.333008 16.167 -1 25.5
l-7.5 89c-2.33301 28.667 -3.5 57.667 -3.5 87c2.66699 45.333 4.83398 88.5 6.50098 129.5s2.5 82.167 2.5 123.5v46c0 14 0.666992 27.667 2 41s4.66602 25.666 9.99902 36.999z" />
    <glyph glyph-name="backslash" unicode="\" horiz-adv-x="304" 
d="M41 561c6 -6.66699 9.66797 -15.335 11.001 -26.002c6.66699 -42.667 19 -88.667 37 -138s37.833 -98.333 59.5 -147l64.5 -140c21.333 -44.667 38.666 -83.667 51.999 -117c2 -4.66699 4 -9.66699 6 -15s3 -10.666 3 -15.999v-5c0 -1.33301 -0.333008 -3.5 -1 -6.5
s-3 -4.5 -7 -4.5c-3.33301 0 -5.83301 2 -7.5 6s-3.5 8 -5.5 12c-19.333 46.667 -39.833 93.334 -61.5 140.001l-63 140.5c-20.333 47 -39 95 -56 144s-30.833 99.5 -41.5 151.5c0 1.33301 -0.166992 3 -0.5 5s-0.5 3.66699 -0.5 5c0 7.33301 3.66699 11 11 11z" />
    <glyph glyph-name="bracketright" unicode="]" horiz-adv-x="168" 
d="M117 553c5.33301 -11.333 8.66504 -23.6631 9.99805 -36.9961s2 -27 2 -41v-46c0 -41.333 0.833008 -82.5 2.5 -123.5s3.83398 -84.167 6.50098 -129.5c0 -29.333 -1.16699 -58.333 -3.5 -87l-7.5 -89c-0.666992 -9.33301 -1 -17.833 -1 -25.5s-1.66699 -15.167 -5 -22.5
c-8.66699 -3.33301 -20.667 -5 -36 -5c-4 0 -8.83301 0.166992 -14.5 0.5l-17 1c-5.66699 0.333008 -10.5 1.16602 -14.5 2.49902s-6 3 -6 5c0 4 2.33301 6 7 6h70c-0.666992 2 -1 6.33301 -1 13v14c0 9.33301 0.666992 19.666 2 30.999s2.83301 22.833 4.5 34.5
s3.16699 23 4.5 34s2 20.5 2 28.5v8c-0.666992 8 -1 16.333 -1 25v26v51v20.5c0 6.33301 -0.333008 12.166 -1 17.499c-4 54.667 -6 111.334 -6 170.001v11c0 7.33301 0.166992 14.666 0.5 21.999s0.5 14.666 0.5 21.999s-0.333008 15.666 -1 24.999s-2 17.333 -4 24
c-3.33301 0.666992 -6.33301 1 -9 1h-8c-8 0 -15.667 -0.333008 -23 -1s-16.666 -1 -27.999 -1c-4.66699 0 -8 0.333008 -10 1c-1.33301 0.666992 -2 2.33398 -2 5.00098c0 0.666992 0.166992 1.16699 0.5 1.5s0.5 0.833008 0.5 1.5c4.66699 2 10.5 3.5 17.5 4.5
s14.167 1.83301 21.5 2.5h9c6.66699 0 13.167 -0.166992 19.5 -0.5s12.5 -0.5 18.5 -0.5z" />
    <glyph glyph-name="asciicircum" unicode="^" horiz-adv-x="300" 
d="M153 505c3.33301 0 6.66699 -1.16797 10 -3.50098s5.66602 -7.16602 6.99902 -14.499l23 -23.5c4.66699 -5 8 -8.66699 10 -11s3.16699 -3.83301 3.5 -4.5s1.66602 -2.5 3.99902 -5.5s6.5 -7.5 12.5 -13.5l28 -27l11.5 -11.5c3.66699 -3.66699 6.16699 -8.5 7.5 -14.5
c-1.33301 -1.33301 -2.5 -3 -3.5 -5s-2.16699 -3 -3.5 -3c-5.33301 0 -10.5 2.83301 -15.5 8.5s-8.83301 10.834 -11.5 15.501c-13.333 14.667 -23 25 -29 31l-15.5 15c-4.33301 4 -9.33301 9.16699 -15 15.5s-14.5 17.5 -26.5 33.5c-12 -16 -20.667 -27.167 -26 -33.5
s-10.333 -11.666 -15 -15.999l-16 -15.5c-6 -6 -15.333 -16.333 -28 -31c-2.66699 -4.66699 -6.5 -9.83398 -11.5 -15.501s-10.167 -8.5 -15.5 -8.5c-1.33301 0 -2.66602 1.16699 -3.99902 3.5s-2.66602 4.16602 -3.99902 5.49902c1.33301 6 3.83301 10.833 7.5 14.5
l11.5 11.5c16.667 16 28 27.333 34 34s11 12.5 15 17.5s9 10.833 15 17.5s17.333 18 34 34h6z" />
    <glyph glyph-name="underscore" unicode="_" horiz-adv-x="311" 
d="M32 -33c9.33301 -1.33301 18.3311 -2.33203 26.998 -2.99902s17.334 -1 26.001 -1c10 0 21.333 0.333008 34 1s25.5 1.16699 38.5 1.5s25.833 0.833008 38.5 1.5s24.334 1 35.001 1h25c4.66699 0 9.16699 -0.333008 13.5 -1s8.16602 -2.33398 11.499 -5.00098
c0 -6 -0.666992 -10.667 -2 -14c-1.33301 -0.666992 -3.66602 -1 -6.99902 -1s-6.33301 0.333008 -9 1s-5.66699 1 -9 1c-4 0.666992 -8.16699 1 -12.5 1h-12.5c-9.33301 0 -20.333 -0.333008 -33 -1l-39 -2l-39.5 -2c-13 -0.666992 -24.5 -1 -34.5 -1
c-8.66699 0 -17 0.333008 -25 1s-16 1.66699 -24 3c-0.666992 3.33301 -1.5 5.5 -2.5 6.5s-1.5 3.16699 -1.5 6.5c0 1.33301 0.666992 3.33301 2 6z" />
    <glyph glyph-name="grave" unicode="`" horiz-adv-x="103" 
d="M30 504c0 0.666992 0.666992 1.33301 2 2s2.66602 1.66699 3.99902 3c4 -0.666992 7.5 -5 10.5 -13s6 -17.5 9 -28.5s5.83301 -22 8.5 -33s5.33398 -19.833 8.00098 -26.5c0.666992 -2 1 -4 1 -6c0 -0.666992 -0.333008 -1.66699 -1 -3s-1.66699 -2 -3 -2
c-3.33301 0 -5 1.66699 -5 5c-7.33301 14.667 -12.833 29.5 -16.5 44.5s-9.5 34.167 -17.5 57.5z" />
    <glyph glyph-name="a" unicode="a" horiz-adv-x="224" 
d="M193 4c-4 -2.66699 -7.66797 -3.99805 -11.001 -3.99805s-5.33301 1.33301 -6 4c-1.33301 3.33301 -2 9.16602 -2 17.499s-0.333008 15.166 -1 20.499c-4 32 -6 64 -6 96c0 15.333 0.333008 30.5 1 45.5s1.33398 30.833 2.00098 47.5c-4.66699 0.666992 -9 1 -13 1h-12
c-16 0 -31.167 -0.666992 -45.5 -2s-30.833 -2.33301 -49.5 -3v-12c-0.666992 -9.33301 -1.16699 -18.333 -1.5 -27s-0.5 -17 -0.5 -25c0 -25.333 2 -49.333 6 -72s6 -45 6 -67v-11c0 -7.33301 -1.33301 -12 -4 -14c-3.33301 0 -6 1 -8 3s-4 3.66699 -6 5v10
c0 11.333 -0.666992 21.5 -2 30.5l-4 26c-1.33301 8.33301 -2.66602 17.333 -3.99902 27s-2 21.167 -2 34.5c0 10 0.333008 20.167 1 30.5l2 32.5v13c0 13.333 -0.333008 27.5 -1 42.5s-1 30.167 -1 45.5v21c0 15.333 0.333008 31.333 1 48s2.66699 32.834 6 48.501
s8.16602 29.834 14.499 42.501s15.5 23 27.5 31c5.33301 3.33301 11.666 6.66602 18.999 9.99902s15.333 5 24 5h5c11.333 -0.666992 21.333 -4.5 30 -11.5s15.667 -14.5 21 -22.5c4.66699 -8 7.66699 -17.5 9 -28.5s2 -22.5 2 -34.5
c0 -6.66699 -0.166992 -13.334 -0.5 -20.001s-0.5 -13.334 -0.5 -20.001v-8c0 -13.333 0.5 -26.333 1.5 -39s1.5 -25.667 1.5 -39v-16c-1.33301 -16 -2.16602 -33 -2.49902 -51s-0.833008 -35.333 -1.5 -52v-7c0 -15.333 0.833008 -30.166 2.5 -44.499
s2.5 -28.833 2.5 -43.5c0 -14 0.166992 -24.167 0.5 -30.5s0.5 -13.833 0.5 -22.5zM162.999 473.002c-7.33301 10.667 -18.667 16.0029 -34 16.0029c-22 0 -38.5 -6.5 -49.5 -19.5s-18.5 -28.833 -22.5 -47.5s-6.16699 -37.834 -6.5 -57.501s-0.833008 -36.5 -1.5 -50.5v-70
c8 0 15.833 0.666992 23.5 2s15.167 2 22.5 2h59c7.33301 0 13 1 17 3c-0.666992 5.33301 -1 11.333 -1 18v18c0 18 0.666992 36.167 2 54.5s2 36.166 2 53.499c0 14 -0.833008 27.667 -2.5 41s-4.5 25.666 -8.5 36.999z" />
    <glyph glyph-name="b" unicode="b" horiz-adv-x="223" 
d="M31 496c17.333 8.66699 37.667 13.001 61 13.001c13.333 0 26.166 -1.83301 38.499 -5.5s22.166 -9.83398 29.499 -18.501c4 -5.33301 7.5 -12.5 10.5 -21.5s5.33301 -18.667 7 -29s2.83398 -20.166 3.50098 -29.499s1 -17 1 -23v-5
c-0.666992 -7.33301 -1.66699 -15.5 -3 -24.5l-4 -26.5c-3.33301 -21.333 -10.666 -38.166 -21.999 -50.499s-23.666 -24.166 -36.999 -35.499l-7 -6c17.333 -2 32 -6.16699 44 -12.5s21.333 -15.833 28 -28.5c3.33301 -12 6.16602 -24.667 8.49902 -38
s3.5 -26.666 3.5 -39.999c0 -20.667 -3.33301 -39.834 -10 -57.501s-18 -31.167 -34 -40.5c-7.33301 -4 -16 -8.16699 -26 -12.5s-20.333 -6.5 -31 -6.5c-15.333 0 -26.833 3.16699 -34.5 9.5s-13.167 14.5 -16.5 24.5s-5.16602 21.167 -5.49902 33.5
s-0.833008 24.5 -1.5 36.5c-1.33301 25.333 -1.83301 51.666 -1.5 78.999s-0.5 52 -2.5 74c0.666992 11.333 1.16699 24.666 1.5 39.999s1.16602 29.666 2.49902 42.999c0.666992 4 1 8 1 12v12v66c0.666992 3.33301 1 6.5 1 9.5v9.5c0 18 -1.66699 34.333 -5 49z
M52.001 384.001c0 -35.333 -0.999023 -70 -2.99902 -104c0 -34 0.5 -68.833 1.5 -104.5s2.83301 -68.167 5.5 -97.5c0.666992 -6.66699 1.16699 -13.667 1.5 -21s1.16602 -14.166 2.49902 -20.499s3.66602 -11.666 6.99902 -15.999s8 -6.5 14 -6.5c8.66699 0 17 1 25 3
c10 3.33301 20 7.83301 30 13.5s17.667 13.167 23 22.5c9.33301 18.667 14 38 14 58v15c0 4.66699 -0.333008 9.33398 -1 14.001v4c-1.33301 9.33301 -2.33301 18.666 -3 27.999s-2.66699 17.666 -6 24.999c-2 4 -5.5 7.33301 -10.5 10s-10.5 4.83398 -16.5 6.50098
s-11.833 3 -17.5 4s-10.167 1.5 -13.5 1.5c-7.33301 0 -14.5 -0.333008 -21.5 -1s-14.167 -1.66699 -21.5 -3c-2 3.33301 -3.33301 4.83301 -4 4.5s-1.33398 1.83398 -2.00098 6.50098c11.333 3.33301 20.5 9 27.5 17s15.5 16 25.5 24l3 2
c7.33301 5.33301 13.833 10.666 19.5 15.999s11.167 11.333 16.5 18c6 7.33301 10 16.166 12 26.499s4 21.5 6 33.5s3 22.667 3 32c0 33.333 -4.83301 57.166 -14.5 71.499s-30.5 21.5 -62.5 21.5c-7.33301 0 -14.666 -0.333008 -21.999 -1s-13.666 -1.66699 -18.999 -3
c0.666992 -2 1.16699 -6.5 1.5 -13.5s0.5 -15.167 0.5 -24.5c0 -12 -0.166992 -24 -0.5 -36s-0.5 -20.667 -0.5 -26z" />
    <glyph glyph-name="c" unicode="c" horiz-adv-x="217" 
d="M45 107c-5.33301 20.667 -9.16602 39.332 -11.499 55.999s-3.5 35.667 -3.5 57v17c0 6 0.333008 12.667 1 20c1.33301 22.667 4.66602 48.5 9.99902 77.5s13.166 56.167 23.499 81.5s23.833 46.666 40.5 63.999s37 26 61 26h5c4 0 7.66699 -0.666992 11 -2
s5 -3.66602 5 -6.99902c0 -1.33301 -0.166992 -2.33301 -0.5 -3l-1.5 -3c-1.33301 -3.33301 -4.66602 -5 -9.99902 -5s-11.666 -0.666992 -18.999 -2c-23.333 -3.33301 -40.166 -11.5 -50.499 -24.5s-19.166 -29.167 -26.499 -48.5
c-2.66699 -7.33301 -5.33398 -15.166 -8.00098 -23.499l-8 -25.5c-4.66699 -17.333 -8.33398 -36.833 -11.001 -58.5s-4 -40.5 -4 -56.5c0 -14.667 0.5 -34.667 1.5 -60s4.16699 -50.333 9.5 -75s13.5 -46 24.5 -64s26.167 -27 45.5 -27c8.66699 0 16 1.66699 22 5
c3.33301 2 6.5 4.83301 9.5 8.5s5.83301 5.5 8.5 5.5c0.666992 0 2.66699 -1.83301 6 -5.5s5 -7.16699 5 -10.5c0 -6.66699 -4.83301 -12.334 -14.5 -17.001s-18.834 -7 -27.501 -7c-14.667 0 -27.167 3.33301 -37.5 10s-19.166 15.334 -26.499 26.001
s-13.333 22.167 -18 34.5s-8.33398 24.5 -11.001 36.5z" />
    <glyph glyph-name="d" unicode="d" horiz-adv-x="238" 
d="M34 505c2 0 4.16699 0.166016 6.5 0.499023s4.5 0.5 6.5 0.5c12 0 23.5 -1.5 34.5 -4.5s21.5 -6.16699 31.5 -9.5l7 -2c21.333 -6.66699 37.5 -16.834 48.5 -30.501s19.833 -31.834 26.5 -54.501c3.33301 -11.333 6.33301 -22.833 9 -34.5s4 -23.5 4 -35.5
c0 -50 -5 -96.833 -15 -140.5s-26 -82.5 -48 -116.5c-12 -18.667 -26.5 -35.167 -43.5 -49.5s-36.5 -23.833 -58.5 -28.5c-4 3.33301 -6.83301 8.33301 -8.5 15s-2.83398 12 -3.50098 16c-0.666992 3.33301 -1 6.83301 -1 10.5v10.5v15c0 4.66699 0.333008 9.33398 1 14.001
c0.666992 25.333 1.33398 47.833 2.00098 67.5s1 40.167 1 61.5v94c0 11.333 0.5 22.333 1.5 33s1.5 21.334 1.5 32.001v8c0 9.33301 -0.333008 18.833 -1 28.5s-1 19.167 -1 28.5c0 0.666992 -0.166992 3.33398 -0.5 8.00098s-0.5 9.83398 -0.5 15.501
s-0.166992 11.667 -0.5 18s-0.5 11.833 -0.5 16.5c0 7.33301 0.333008 11.666 1 12.999zM51 304.999c-0.666992 -18.667 -1.00293 -37.665 -1.00293 -56.998v-55v-72.5c0 -24.333 0.333008 -49.833 1 -76.5v-18c13.333 3.33301 25.333 8.66602 36 15.999
s19.667 15.666 27 24.999c4.66699 5.33301 9.16699 12.5 13.5 21.5s8.5 17.167 12.5 24.5c6.66699 9.33301 11.834 19.5 15.501 30.5s7.83398 22.833 12.501 35.5c7.33301 21.333 13.333 45 18 71s7 51.333 7 76c0 21.333 -2.16699 41.666 -6.5 60.999
s-11.833 36.666 -22.5 51.999c-9.33301 14 -23.666 24 -42.999 30s-39 11 -59 15l-11 2v-14c0 -9.33301 0.166992 -18.666 0.5 -27.999s0.5 -18.666 0.5 -27.999v-55.5c0 -18.333 -0.333008 -36.833 -1 -55.5z" />
    <glyph glyph-name="e" unicode="e" horiz-adv-x="208" 
d="M42 495c16.667 2.66699 32.999 5.49805 48.999 8.49805s32.333 4.5 49 4.5c12 0 22.333 -1.33301 31 -4l4.5 -6.5c1.66699 -2.33301 2.5 -4.5 2.5 -6.5c-1.33301 -4 -4.33301 -6 -9 -6c-3.33301 0 -6.5 0.5 -9.5 1.5s-6.16699 1.83301 -9.5 2.5h-10
c-14 0 -28 -1.66699 -42 -5s-28.333 -6 -43 -8c-1.33301 -11.333 -2 -23.833 -2 -37.5v-39.5v-77c0 -1.33301 -0.166992 -2.66602 -0.5 -3.99902s-0.5 -2.66602 -0.5 -3.99902s0.666992 -3.33301 2 -6c0.666992 -1.33301 2.66699 -2 6 -2s7.33301 0.666992 12 2
s8.66699 2.33301 12 3c7.33301 1.33301 14.833 2.33301 22.5 3s15.5 1 23.5 1c10 0 20 -1 30 -3c3.33301 -4.66699 6 -9.66699 8 -15c-2.66699 -3.33301 -7 -5 -13 -5c-3.33301 0 -6.83301 0.333008 -10.5 1s-7.16699 1 -10.5 1c-14 0 -28 -1.5 -42 -4.5
s-27.333 -5.16699 -40 -6.5c-0.666992 -7.33301 -1 -14.333 -1 -21v-21v-21.5c0 -7 -0.333008 -14.167 -1 -21.5c-0.666992 -15.333 -1.16699 -29.5 -1.5 -42.5s-0.5 -25.5 -0.5 -37.5c0 -15.333 0.333008 -30.666 1 -45.999s2 -31 4 -47c2 -0.666992 4.83301 -1 8.5 -1
h11.5h27c9.33301 0.666992 18.5 1 27.5 1s16.833 0.666992 23.5 2c2 0.666992 4.16699 1.66699 6.5 3s4.5 2 6.5 2c0.666992 0 2.33398 -0.666992 5.00098 -2c4 -2 6 -6.66699 6 -14c0 -2.66699 -0.333008 -4.66699 -1 -6c-10.667 -3.33301 -21.334 -5 -32.001 -5
s-21 -0.666992 -31 -2c-22 -2 -42.667 -3 -62 -3c-3.33301 1.33301 -5.66602 2.83301 -6.99902 4.5s-3 3.5 -5 5.5c-0.666992 17.333 -2 34.5 -4 51.5s-3 33.5 -3 49.5v7c0 17.333 0.666992 34.666 2 51.999s2.33301 35 3 53c1.33301 20 1.83301 40.167 1.5 60.5
s0.166992 40.833 1.5 61.5c0.666992 6 1 12 1 18v18v42v24c0 8.66699 0.333008 16.667 1 24v16c0 3.33301 0.666992 6 2 8z" />
    <glyph glyph-name="f" unicode="f" horiz-adv-x="187" 
d="M36 489c1.33301 1.33301 2.99805 2.00488 4.99805 2.00488s4.66699 0.333008 8 1c8 1.33301 17 3.83301 27 7.5s21.667 5.83398 35 6.50098c6.66699 0 13.167 -0.166992 19.5 -0.5s13.166 -0.5 20.499 -0.5h20c10.667 0 16 -3.66699 16 -11
c0 -1.33301 -0.166992 -2.33301 -0.5 -3s-0.5 -1.33398 -0.5 -2.00098c-6 -2.66699 -13.667 -4 -23 -4c-7.33301 0 -14.666 0.5 -21.999 1.5s-14.666 1.5 -21.999 1.5h-5c-4.66699 0 -9.83398 -0.666992 -15.501 -2l-17.5 -4c-3.33301 0 -8.16602 -1.33301 -14.499 -4
s-10.833 -5.33398 -13.5 -8.00098l-0.5 -9c-0.333008 -6 -0.666016 -12.5 -0.999023 -19.5s-0.666016 -13.5 -0.999023 -19.5s-0.5 -9.33301 -0.5 -10c0.666992 -6.66699 1 -12.5 1 -17.5v-15.5c0 -11.333 -0.166992 -22 -0.5 -32s-0.5 -20.333 -0.5 -31v-16h10
c13.333 0 25.666 1.5 36.999 4.5s23.666 4.5 36.999 4.5c4.66699 0 7.83398 -2.66699 9.50098 -8s2.5 -9 2.5 -11c-2 -3.33301 -5.33301 -5 -10 -5h-8c-12 -0.666992 -24.5 -2.5 -37.5 -5.5s-26.167 -4.5 -39.5 -4.5v-78c-0.666992 -9.33301 -1.16699 -18 -1.5 -26
s-0.5 -15.667 -0.5 -23v-37c0 -10 -0.5 -20.167 -1.5 -30.5s-1.5 -20.833 -1.5 -31.5c0 -2.66699 0.166992 -5.33398 0.5 -8.00098s0.5 -5.33398 0.5 -8.00098c0.666992 -4 1.33398 -8.5 2.00098 -13.5s1 -9.16699 1 -12.5c0 -4.66699 -1.33301 -7 -4 -7
c-4.66699 0.666992 -8.33398 1.66699 -11.001 3s-4 4.66602 -4 9.99902c0 8.66699 -0.166992 16.334 -0.5 23.001s-0.5 13.667 -0.5 21c0 59.333 1 116.666 3 171.999s3 110.666 3 165.999v94z" />
    <glyph glyph-name="g" unicode="g" horiz-adv-x="236" 
d="M70 468c4 5.33301 8.99609 10.5029 14.9961 15.5029s11.333 8.83301 16 11.5c8 4.66699 15.333 7.66699 22 9s13.667 2 21 2c4.66699 0 9.5 -0.166992 14.5 -0.5s10.167 -0.5 15.5 -0.5c8 0 12.667 -1 14 -3s2 -4.33301 2 -7c0 -5.33301 -0.833008 -8.5 -2.5 -9.5
s-4.83398 -1.5 -9.50098 -1.5c-9.33301 0 -16.5 0.333008 -21.5 1s-13.833 1 -26.5 1c-6.66699 0 -11.667 -0.666992 -15 -2c-11.333 -4.66699 -20.666 -11.334 -27.999 -20.001s-13.166 -18.334 -17.499 -29.001s-7.66602 -21.667 -9.99902 -33s-4.5 -22.333 -6.5 -33
c-2.66699 -15.333 -4 -32.333 -4 -51c0 -6 0.166992 -12 0.5 -18s0.5 -12 0.5 -18v-20c0 -11.333 -0.166992 -23 -0.5 -35s-0.5 -24.333 -0.5 -37c0 -20.667 0.5 -41.167 1.5 -61.5s4.33301 -38.666 10 -54.999s14.667 -29.666 27 -39.999s29.5 -15.5 51.5 -15.5
c6.66699 0 12.5 4 17.5 12s9.5 18.333 13.5 31s7.33301 26.667 10 42s4.83398 30.5 6.50098 45.5s2.83398 28.833 3.50098 41.5s1 22.334 1 29.001v14c-0.666992 3.33301 -1 7.16602 -1 11.499s-0.666992 8.16602 -2 11.499c-2.66699 6.66699 -7.33398 11 -14.001 13
s-13.667 3 -21 3c-11.333 0 -21.333 -1 -30 -3c-4.66699 4.66699 -7 11 -7 19c12.667 5.33301 25.334 8 38.001 8c12 0 21.667 -2.66699 29 -8c9.33301 -6 15.5 -16.333 18.5 -31s4.5 -29.667 4.5 -45v-14.5c0 -4.33301 -0.333008 -8.83301 -1 -13.5
c-1.33301 -11.333 -2.33301 -23.166 -3 -35.499s-2 -24.5 -4 -36.5c-2 -9.33301 -3.83301 -19.666 -5.5 -30.999s-4.5 -22 -8.5 -32c-2 -4.66699 -4 -9.83398 -6 -15.501s-4.5 -11 -7.5 -16s-6.5 -9.16699 -10.5 -12.5s-9 -5 -15 -5c-28 0 -49.667 6.16699 -65 18.5
s-26.5 28.166 -33.5 47.499s-11.167 40.5 -12.5 63.5s-2 45.5 -2 67.5v5c0 13.333 -0.166992 24.333 -0.5 33s-0.5 15.667 -0.5 21s-0.166992 9.66602 -0.5 12.999s-0.5 6.66602 -0.5 9.99902c0 16.667 0.5 34 1.5 52s3 35.5 6 52.5s7.16699 32.833 12.5 47.5s12 27 20 37z
" />
    <glyph glyph-name="h" unicode="h" horiz-adv-x="219" 
d="M34 286c1.33301 0 2.66309 -0.495117 3.99609 -1.49512s3 -1.5 5 -1.5c0.666992 3.33301 1 6.33301 1 9v7c0 4.66699 -0.166992 8.5 -0.5 11.5s-0.5 6.16699 -0.5 9.5c1.33301 18.667 2 34.334 2 47.001v45c0 9.33301 -0.166992 18.333 -0.5 27
s-0.833008 17.334 -1.5 26.001c0 3.33301 -0.166992 6.33301 -0.5 9s-0.5 5.33398 -0.5 8.00098c0 1.33301 -0.166992 3.33301 -0.5 6s-0.5 5 -0.5 7c0 5.33301 1.66699 8 5 8c2.66699 0 4.83398 -1.83301 6.50098 -5.5s2.83398 -8 3.50098 -13s1.16699 -10.333 1.5 -16
s0.5 -10.5 0.5 -14.5c0.666992 -5.33301 1 -10.833 1 -16.5v-16.5c0 -18.667 -0.166992 -35.334 -0.5 -50.001s-0.5 -32 -0.5 -52v-18c0 -6 0.333008 -12 1 -18c9.33301 0 20.166 0.166992 32.499 0.5s24.166 0.5 35.499 0.5h17c5.33301 0 10.333 -0.333008 15 -1
c6 30.667 9.33301 62.167 10 94.5s1.66699 66.166 3 101.499v8c0 6 1 10.333 3 13c4 0 6.66699 -1.66699 8 -5l4 -10c1.33301 -2.66699 2 -5.66699 2 -9v-10c0 -7.33301 -0.5 -15 -1.5 -23s-1.83301 -15.667 -2.5 -23c-2 -25.333 -3.33301 -48.333 -4 -69
s-2.66699 -43.334 -6 -68.001c0.666992 -1.33301 1.83398 -2.83301 3.50098 -4.5s2.5 -3.83398 2.5 -6.50098c-0.666992 -4.66699 -1.83398 -7 -3.50098 -7s-3.16699 -1 -4.5 -3c-0.666992 -8.66699 -1.16699 -17.334 -1.5 -26.001s-0.5 -17.667 -0.5 -27
c0 -16.667 0.166992 -32 0.5 -46l1 -40.5l1 -39.5c0.333008 -13.333 0.5 -27.666 0.5 -42.999c0 -4 0.333008 -8 1 -12s1 -8 1 -12c0 -7.33301 -0.166992 -11.833 -0.5 -13.5s-1.16602 -2.5 -2.49902 -2.5c-8.66699 0 -13 4.33301 -13 13
c-0.666992 7.33301 -1 14.666 -1 21.999v22c0 21.333 -0.333008 39.666 -1 54.999s-1 33.666 -1 54.999c0 6.66699 -0.166992 13 -0.5 19s-0.5 12.333 -0.5 19c0 4.66699 0.166992 10.5 0.5 17.5s0.5 19.5 0.5 37.5c-6 2 -12.167 3.83301 -18.5 5.5s-12.833 2.5 -19.5 2.5
h-22c-7.33301 0 -14.166 -0.333008 -20.499 -1s-12.166 -2.33398 -17.499 -5.00098c-3.33301 -30.667 -5.33301 -65 -6 -103s-1.66699 -73 -3 -105v-9v-10.5c0 -3.66699 0.333008 -7.16699 1 -10.5c0 -2.66699 0.166992 -5 0.5 -7s0.5 -4.33301 0.5 -7
c0 -6 -2 -9.66699 -6 -11c-5.33301 0.666992 -8.66602 2 -9.99902 4s-2 7.66699 -2 17v23c0 12 0.333008 24.167 1 36.5s1 24.833 1 37.5c0 24.667 1 49.834 3 75.501s3.66699 49.167 5 70.5c0 2 -1.5 2.83301 -4.5 2.5s-4.83301 0.5 -5.5 2.5
c-2 2.66699 -3.16699 4.5 -3.5 5.5s-0.5 3.16699 -0.5 6.5c0 1.33301 0.333008 2.66602 1 3.99902s1.66699 2 3 2z" />
    <glyph glyph-name="i" unicode="i" horiz-adv-x="187" 
d="M93 19c0 -0.666992 0.999023 -1.00488 2.99902 -1.00488c2.66699 0 6.66699 0.5 12 1.5s11 2 17 3s11.833 2.16699 17.5 3.5s10.167 2 13.5 2c0.666992 -1.33301 1 -3.66602 1 -6.99902c0 -2.66699 -0.166992 -4.33398 -0.5 -5.00098s-0.833008 -2 -1.5 -4
c-12.667 -3.33301 -26.834 -6 -42.501 -8s-32.167 -3.33301 -49.5 -4h-15c-4 0 -7.33301 0.5 -10 1.5s-4 4.16699 -4 9.5c0 2.66699 0.333008 5 1 7c1.33301 1.33301 3 2 5 2c1.33301 0 4.66602 -0.666992 9.99902 -2c2 -0.666992 4.16699 -1 6.5 -1h6.5h10l8 1
c-2.66699 27.333 -4.66699 50.5 -6 69.5l-4 55c-1.33301 17.667 -2.5 36.334 -3.5 56.001s-2.16699 43.834 -3.5 72.501c1.33301 33.333 2.33301 59.5 3 78.5s1 37.167 1 54.5v22c0 6 0.166992 11.5 0.5 16.5s0.5 10.333 0.5 16v20.5
c-7.33301 -1.33301 -13.666 -3 -18.999 -5s-11.666 -3.33301 -18.999 -4c-0.666992 1.33301 -1 3.66602 -1 6.99902c0 2.66699 0.166992 4.33398 0.5 5.00098s0.833008 2 1.5 4c12.667 3.33301 26.834 6.83301 42.501 10.5s32.167 5.83398 49.5 6.50098h15
c4 0 7.33301 -0.5 10 -1.5s4 -4.16699 4 -9.5c0 -2.66699 -0.333008 -5 -1 -7c-1.33301 -1.33301 -3 -2 -5 -2c-1.33301 0 -4.66602 0.666992 -9.99902 2c-2 0.666992 -4.16699 1 -6.5 1h-6.5c-6.66699 0 -14 -0.666992 -22 -2s-14.667 -2.33301 -20 -3v-98
c0 -21.333 -0.166992 -42.666 -0.5 -63.999s-0.5 -42.666 -0.5 -63.999c0 -23.333 0.666992 -42.333 2 -57l4 -44c1.33301 -14.667 2.66602 -31.167 3.99902 -49.5s2 -42.5 2 -72.5v-13z" />
    <glyph glyph-name="j" unicode="j" horiz-adv-x="183" 
d="M18 113c3.33301 0 5.16602 -1.00195 5.49902 -3.00195s0.5 -4.33301 0.5 -7c0 -5.33301 0.333008 -9 1 -11c1.33301 -6 3.33301 -13.167 6 -21.5s5.83398 -16.166 9.50098 -23.499s7.33398 -13.833 11.001 -19.5s7.5 -9.5 11.5 -11.5c2 -0.666992 5.33301 -1 10 -1
c16 0 29.833 8.83301 41.5 26.5s17.5 41.834 17.5 72.501v15v28c0 8 -0.166992 15.333 -0.5 22s-0.5 13.167 -0.5 19.5v22.5v158c0 15.333 -0.5 30.166 -1.5 44.499s-1.5 28.166 -1.5 41.499v15c1.33301 9.33301 2.66602 16 3.99902 20h9c3.33301 0 5 -2 5 -6
c0 -2 -0.333008 -5.66699 -1 -11s-1 -9 -1 -11c0 -3.33301 -0.166992 -6.5 -0.5 -9.5s-0.5 -6.16699 -0.5 -9.5c0 -12.667 0.666992 -24.334 2 -35.001s2 -21.667 2 -33v-147c0 -17.333 1 -35.666 3 -54.999s3 -38.666 3 -57.999c0 -24.667 -3.33301 -47.667 -10 -69
s-21 -37.666 -43 -48.999c-10.667 -5.33301 -21 -8 -31 -8c-11.333 0 -19.833 2.83301 -25.5 8.5s-10 12.667 -13 21s-5.5 16.833 -7.5 25.5s-4.66699 16 -8 22c-3.33301 6.66699 -5 13.667 -5 21c0 4 0.333008 7.66699 1 11s3 5 7 5z" />
    <glyph glyph-name="k" unicode="k" horiz-adv-x="244" 
d="M196 8c-5.33301 8 -10.834 16.998 -16.501 26.998s-11.5 18.667 -17.5 26c-13.333 29.333 -26.5 60 -39.5 92s-27.5 61.667 -43.5 89c-5.33301 -2 -9.66602 -4 -12.999 -6s-7.66602 -4 -12.999 -6c0 -17.333 -0.5 -37 -1.5 -59s-1.5 -42.333 -1.5 -61v-30.5
c0 -9 0.166992 -17.5 0.5 -25.5l1 -25c0.333008 -8.66699 0.833008 -18 1.5 -28c-10 0 -16.333 0.666992 -19 2s-4 6 -4 14c0 5.33301 0.833008 13.833 2.5 25.5s2.5 20.5 2.5 26.5v48c0 28 -0.166992 49 -0.5 63s-0.5 24.667 -0.5 32v24.5c0 8.33301 0.333008 16.5 1 24.5
l2 39c0.666992 12.667 1 25.667 1 39c0 24 -0.166992 43.833 -0.5 59.5s-0.5 28.5 -0.5 38.5s-0.166992 18 -0.5 24s-0.5 11.667 -0.5 17c0 4 -0.5 8 -1.5 12s-1.5 8 -1.5 12c0.666992 0.666992 2 1 4 1h4c6 0 10 -8.5 12 -25.5s3 -37.5 3 -61.5
c0 -28 -0.666992 -56.5 -2 -85.5s-2 -51.167 -2 -66.5c0 -9.33301 0.333008 -14.666 1 -15.999l25 14c14 16 25.5 33.667 34.5 53s17.167 39.333 24.5 60l21.5 63c7 21.333 15.5 42 25.5 62c8 -1.33301 12 -6.66602 12 -15.999c0 -2 -0.666992 -5 -2 -9l-15.5 -38.5
c-5 -12.333 -9.83301 -26.833 -14.5 -43.5l-9.5 -28l-9.5 -27l-22 -46c-7.33301 -14.667 -16.333 -27.667 -27 -39c10 -19.333 19.5 -41 28.5 -65s18.167 -46 27.5 -66l29 -57.5c10 -19 21 -36.833 33 -53.5c0 -2.66699 -0.833008 -5.16699 -2.5 -7.5
s-3.83398 -3.5 -6.50098 -3.5c-3.33301 0 -6.33301 2.66699 -9 8z" />
    <glyph glyph-name="l" unicode="l" horiz-adv-x="186" 
d="M36 500c2.66699 0 4.66406 -0.503906 5.99707 -1.50391s3.33301 -1.5 6 -1.5c0.666992 -1.33301 1 -3.66602 1 -6.99902c-0.666992 -20 -1.16699 -37.333 -1.5 -52s-0.5 -27.334 -0.5 -38.001c0 -20.667 0.333008 -34.167 1 -40.5s1 -10.833 1 -13.5
c0 -4 0.166992 -8 0.5 -12s0.5 -8 0.5 -12c0 -13.333 -0.5 -26.666 -1.5 -39.999s-1.5 -26.666 -1.5 -39.999c0 -17.333 0.333008 -34.666 1 -51.999l2 -52c1.33301 -18.667 2.16602 -37.5 2.49902 -56.5s0.833008 -38.167 1.5 -57.5c0 -3.33301 2.5 -5.33301 7.5 -6
s9.16699 -1 12.5 -1c11.333 0 23.833 0.333008 37.5 1s26.5 1 38.5 1c4.66699 0 8.33398 -0.333008 11.001 -1c2.66699 -1.33301 5.16699 -2.16602 7.5 -2.49902s3.5 -1.83301 3.5 -4.5c0 -2 -3 -5 -9 -9h-4h-41.5c-15 0 -29.167 -0.666992 -42.5 -2
c-3.33301 -0.666992 -6.5 -1.16699 -9.5 -1.5s-6.16699 -0.5 -9.5 -0.5s-5.66602 0.333008 -6.99902 1s-3.66602 2.83398 -6.99902 6.50098s-5.33301 7.16699 -6 10.5c0 1.33301 -0.166992 2.33301 -0.5 3s-0.5 1.66699 -0.5 3c0 24 -0.166992 48.833 -0.5 74.5
s-0.5 50.167 -0.5 73.5v19c0 7.33301 -0.5 15 -1.5 23s-1.5 16.333 -1.5 25v186c0 7.33301 -0.166992 13.666 -0.5 18.999s-0.5 10.333 -0.5 15c0 6 0.333008 12.167 1 18.5s2.33398 14.5 5.00098 24.5z" />
    <glyph glyph-name="m" unicode="m" horiz-adv-x="283" 
d="M66 502c12 0 21.835 -2.16992 29.502 -6.50293s13.834 -10 18.501 -17s8.33398 -15.167 11.001 -24.5l8 -29l3 -11l14 37.5c4.66699 13 10.667 24.5 18 34.5c2 2.66699 4.83301 5.83398 8.5 9.50098s7.16699 6.16699 10.5 7.5h4c7.33301 0 14.5 -2.5 21.5 -7.5
s11.833 -9.16699 14.5 -12.5c5.33301 -7.33301 8.83301 -17.166 10.5 -29.499s2.5 -25.5 2.5 -39.5c0 -60.667 0.5 -109.167 1.5 -145.5s2 -64.5 3 -84.5s2 -33.833 3 -41.5s1.5 -13.5 1.5 -17.5c0 -13.333 0.333008 -26.166 1 -38.499s1 -24.5 1 -36.5
c0 -8 0.333008 -13.5 1 -16.5s1 -8.16699 1 -15.5c0 -4 -0.166992 -7.33301 -0.5 -10s-1.5 -5.33398 -3.5 -8.00098h-5c-1.33301 0 -3.16602 0.5 -5.49902 1.5s-3.5 3.83301 -3.5 8.5c0 11.333 -0.166992 20.5 -0.5 27.5s-0.5 17.167 -0.5 30.5
c-0.666992 27.333 -1.66699 51.833 -3 73.5s-2 45.167 -2 70.5v32c0 10 -0.333008 20 -1 30s-1.33398 20.667 -2.00098 32s-1 22.666 -1 33.999v8c0 7.33301 -0.166992 14.5 -0.5 21.5s-0.5 14.167 -0.5 21.5v11c0.666992 6 1.16699 11.833 1.5 17.5s0.5 11.167 0.5 16.5
c0 10 -1.33301 18 -4 24c-2 4 -5.33301 8.16699 -10 12.5s-9.66699 6.5 -15 6.5c-0.666992 0 -3 -1.16699 -7 -3.5s-7.33301 -4.83301 -10 -7.5c-6 -7.33301 -12.333 -17.666 -19 -30.999s-10.667 -25.333 -12 -36c-0.666992 -2 -1 -4.66699 -1 -8
c0 -2.66699 0.166992 -5.16699 0.5 -7.5s0.5 -4.83301 0.5 -7.5c0 -7.33301 -2.33301 -12 -7 -14c-4.66699 4.66699 -8 10.167 -10 16.5s-4.33301 13.166 -7 20.499c-3.33301 6.66699 -5.5 13.834 -6.5 21.501s-3.16699 14.834 -6.5 21.501
c-2.66699 4.66699 -5.16699 10.334 -7.5 17.001s-5.5 11.667 -9.5 15c-2.66699 2 -6 4.33301 -10 7s-7.33301 4 -10 4c-5.33301 -0.666992 -10 -4.83398 -14 -12.501s-6.66699 -14.167 -8 -19.5c-2 -6 -3.33301 -12.833 -4 -20.5s-1 -15.167 -1 -22.5
s0.166992 -14.333 0.5 -21s0.5 -13.334 0.5 -20.001c0 -28 -0.5 -55 -1.5 -81s-1.83301 -54.667 -2.5 -86c0 -22.667 1 -44.5 3 -65.5s3.33301 -47.167 4 -78.5v-21.5c0 -5 0.666992 -11.833 2 -20.5c1.33301 -4 2 -7.66699 2 -11c0 -1.33301 -1 -2.5 -3 -3.5
s-3.66699 -2.16699 -5 -3.5c-2.66699 0 -4.83398 1.5 -6.50098 4.5s-2.83398 6.5 -3.50098 10.5s-1.16699 8 -1.5 12s-0.5 7 -0.5 9c0 25.333 -0.333008 47.5 -1 66.5s-1.33398 36.333 -2.00098 52s-1.33398 30 -2.00098 43s-1 26.5 -1 40.5c0 23.333 0.5 47.833 1.5 73.5
s2.16699 49.834 3.5 72.501v8c0 6 -0.166992 12 -0.5 18s-0.5 12 -0.5 18c0 7.33301 0.333008 14.333 1 21s2 13 4 19c2.66699 8 6 15.667 10 23s9.66699 11 17 11z" />
    <glyph glyph-name="n" unicode="n" horiz-adv-x="250" 
d="M70 505c9.33301 -12 16.3291 -24.8301 20.9961 -38.4971s8.5 -28 11.5 -43s5.66699 -30.667 8 -47s5.83301 -32.5 10.5 -48.5c4.66699 -15.333 9.16699 -32.166 13.5 -50.499s8.83301 -35.833 13.5 -52.5l14 -51.5c4.66699 -17 8.66699 -34.167 12 -51.5
c3.33301 -18 7 -35 11 -51s9.33301 -31.667 16 -47c1.33301 4.66699 2 9.5 2 14.5v15.5c0 15.333 -0.833008 30.666 -2.5 45.999s-2.5 31.333 -2.5 48c0 21.333 -0.333008 39.5 -1 54.5s-1 29.5 -1 43.5v12c0 15.333 1 30.833 3 46.5s3 31.167 3 46.5
c0 14 0.666992 28.167 2 42.5s2 28.833 2 43.5c0 7.33301 -0.333008 14.666 -1 21.999s-1 14.666 -1 21.999c0 4.66699 0.166992 8.5 0.5 11.5s1.16602 6.5 2.49902 10.5c1.33301 0 2.5 0.166992 3.5 0.5s2.16699 0.5 3.5 0.5c2.66699 0 4.33398 -1 5.00098 -3
s1 -6.33301 1 -13c0 -2.66699 -0.166992 -5.66699 -0.5 -9s-0.5 -8.33301 -0.5 -15v-30c0 -33.333 -1.5 -67.333 -4.5 -102s-4.5 -68 -4.5 -100v-23l2 -26c0.666992 -8.66699 1 -17.334 1 -26.001v-26v-13.5c0 -4.33301 0.333008 -8.5 1 -12.5
c1.33301 -9.33301 2.33301 -17.666 3 -24.999s1.33398 -15.666 2.00098 -24.999v-20c0 -6 -0.5 -11.833 -1.5 -17.5s-3.16699 -11.167 -6.5 -16.5c-1.33301 0 -2.83301 -0.166992 -4.5 -0.5s-3.16699 -0.5 -4.5 -0.5c-4 0 -8.16699 4.33301 -12.5 13
s-8.16602 18.667 -11.499 30s-6.16602 22.333 -8.49902 33s-3.83301 17.667 -4.5 21c-6 31.333 -12.667 60 -20 86l-23 82c-5.33301 17.333 -10.166 36.166 -14.499 56.499s-8.16602 40.166 -11.499 59.499c-2 10 -4.5 21 -7.5 33s-6.16699 23.167 -9.5 33.5
s-6.5 18.833 -9.5 25.5s-5.16699 10 -6.5 10h-4c-4 -13.333 -6.16699 -27 -6.5 -41s-0.833008 -27.667 -1.5 -41c-1.33301 -16.667 -2.33301 -33.167 -3 -49.5s-1 -32.166 -1 -47.499c0 -7.33301 0.166992 -15 0.5 -23s0.5 -15.667 0.5 -23
c0 -5.33301 -0.166992 -10.333 -0.5 -15s-0.833008 -9.66699 -1.5 -15c-0.666992 -6.66699 -1 -13.167 -1 -19.5v-18.5c0 -39.333 1 -76.333 3 -111v-11c0 -4.66699 -0.166992 -9 -0.5 -13s-0.5 -8 -0.5 -12c0 -3.33301 0.166992 -6.5 0.5 -9.5s0.833008 -6.16699 1.5 -9.5
c0.666992 -2.66699 1.5 -5.33398 2.5 -8.00098s1.5 -5.33398 1.5 -8.00098c0 -3.33301 -1.33301 -6 -4 -8c-4.66699 0 -8.5 1.5 -11.5 4.5s-4.5 10.833 -4.5 23.5c0 28 -0.333008 53.833 -1 77.5s-1.33398 49.834 -2.00098 78.501v56v46.5
c0 16.333 0.666992 32.166 2 47.499l4 74.5c1.33301 24.333 3 47.5 5 69.5c0 10 3 16.833 9 20.5s12.667 5.83398 20 6.50098z" />
    <glyph glyph-name="o" unicode="o" horiz-adv-x="243" 
d="M138 500c1.33301 0.666992 1.83008 1.50391 1.49707 2.50391s0.833984 1.5 3.50098 1.5c10 0 19 -6 27 -18s15 -25.833 21 -41.5s10.833 -31.167 14.5 -46.5s6.5 -26 8.5 -32c2 -25.333 3.16699 -46 3.5 -62s0.5 -28.667 0.5 -38v-39c0 -10 0.333008 -19.833 1 -29.5
s1 -19.167 1 -28.5v-13c-1.33301 -12 -3.83301 -27.167 -7.5 -45.5s-8.66699 -36.166 -15 -53.499s-14.666 -32.333 -24.999 -45s-22.833 -19 -37.5 -19c-8 0 -16 1.66699 -24 5s-15.333 7.66602 -22 12.999s-12.667 11.166 -18 17.499s-9.33301 12.166 -12 17.499
c-5.33301 9.33301 -9.16602 19.666 -11.499 30.999s-4.16602 23 -5.49902 35c-1.33301 6 -2.5 12 -3.5 18s-1.83301 12 -2.5 18c-1.33301 8.66699 -2.5 17.167 -3.5 25.5s-1.5 16.833 -1.5 25.5c0 25.333 -1.16699 48.5 -3.5 69.5s-3.5 41.833 -3.5 62.5c0 12 1 24.333 3 37
s5.66699 26.667 11 42c4.66699 12.667 9.83398 24.667 15.501 36s12.5 21.666 20.5 30.999c5.33301 6 11.666 11.833 18.999 17.5s16.666 8.5 27.999 8.5c5.33301 0 11 -1 17 -3zM120.997 483.004h-6.49707c-2.33301 0 -4.5 -0.333008 -6.5 -1
c-16 -11.333 -29.333 -27 -40 -47s-19.334 -42 -26.001 -66c-2 -6.66699 -3.33301 -12.667 -4 -18s-1 -10.666 -1 -15.999c0 -10.667 0.666992 -22.667 2 -36s2.83301 -26.833 4.5 -40.5s3.16699 -27.334 4.5 -41.001s2 -26.167 2 -37.5c0 -15.333 0.833008 -28.5 2.5 -39.5
s3.16699 -21.5 4.5 -31.5c1.33301 -13.333 3.66602 -25.166 6.99902 -35.499s8.66602 -19.5 15.999 -27.5c6 -7.33301 13.5 -14.5 22.5 -21.5s18.5 -10.5 28.5 -10.5c8 0 15.333 2.33301 22 7c5.33301 3.33301 10.5 8.83301 15.5 16.5s9.33301 16.334 13 26.001
s6.83398 19.667 9.50098 30s4.66699 19.833 6 28.5c1.33301 7.33301 2.83301 14.166 4.5 20.499s2.5 11.833 2.5 16.5c0.666992 3.33301 1 6.66602 1 9.99902v10c0 28.667 -1.16699 56.667 -3.5 84s-3.5 54.333 -3.5 81c0 12 -1.33301 26 -4 42s-7 31.167 -13 45.5
s-13.833 26.5 -23.5 36.5s-21.834 15 -36.501 15z" />
    <glyph glyph-name="p" unicode="p" horiz-adv-x="213" 
d="M52 173c0 -20 -1.00098 -41 -3.00098 -63s-3 -43 -3 -63c0 -4 0.166992 -7.83301 0.5 -11.5s0.5 -7.16699 0.5 -10.5c0.666992 -4 1.5 -7 2.5 -9s1.5 -4.66699 1.5 -8c0 -4 -1.16699 -6.33301 -3.5 -7s-4.5 -1 -6.5 -1c-4 2.66699 -6.33301 4.66699 -7 6
s-1 4.66602 -1 9.99902v4c0 4 0.166992 8.33301 0.5 13s0.5 9 0.5 13v39v12c0 4 0.333008 8 1 12c2 24 3 47.667 3 71c0 32 -0.833008 61.833 -2.5 89.5s-2.5 56.5 -2.5 86.5v4c0 4 -0.166992 10.167 -0.5 18.5l-1 25.5
c-0.333008 8.66699 -0.666016 16.834 -0.999023 24.501s-0.5 12.834 -0.5 15.501c0 3.33301 0.166992 6.16602 0.5 8.49902s0.5 4.5 0.5 6.5c0 16 6.33301 27.667 19 35s27.334 11 44.001 11c9.33301 0 18.333 -1 27 -3s16.667 -5 24 -9c16 -10 26.833 -25.5 32.5 -46.5
s8.5 -42.167 8.5 -63.5v-7c-0.666992 -32.667 -6.83398 -59.834 -18.501 -81.501s-26.167 -42.167 -43.5 -61.5c-10 -10.667 -20 -20.667 -30 -30s-24 -14.666 -42 -15.999v-14zM108.999 245c12.667 12.667 25.002 27.666 37.002 44.999s19.667 35.666 23 54.999
c1.33301 6.66699 2.33301 13.334 3 20.001s1 13.334 1 20.001c0 15.333 -1.5 29.5 -4.5 42.5s-7.5 23.167 -13.5 30.5c-2.66699 3.33301 -7.33398 7.33301 -14.001 12s-12 7.66699 -16 9c-6 1.33301 -12 2.33301 -18 3s-12 1 -18 1c-7.33301 0 -14.666 -1 -21.999 -3
s-13.333 -5 -18 -9c-0.666992 -17.333 -1.33398 -36 -2.00098 -56s-1 -39.667 -1 -59v-14c1.33301 -24.667 2.16602 -47.5 2.49902 -68.5s1.83301 -42.833 4.5 -65.5c12.667 2 23.167 6.5 31.5 13.5s16.5 14.833 24.5 23.5z" />
    <glyph glyph-name="q" unicode="q" horiz-adv-x="290" 
d="M36 131c-2 25.333 -3.16406 45.9961 -3.49707 61.9961s-0.5 28.667 -0.5 38v39c0 10 -0.333008 19.833 -1 29.5s-1 19.167 -1 28.5v13c1.33301 12 3.66602 27.167 6.99902 45.5s8.33301 36.166 15 53.499s15 32.333 25 45s22.667 19 38 19c8 0 16 -1.66699 24 -5
s15.333 -7.66602 22 -12.999s12.5 -11.166 17.5 -17.499s9.16699 -12.166 12.5 -17.499c5.33301 -9.33301 9.16602 -19.666 11.499 -30.999s4.16602 -23 5.49902 -35c1.33301 -6 2.5 -12 3.5 -18s1.83301 -12 2.5 -18c1.33301 -8.66699 2.5 -17.167 3.5 -25.5
s1.5 -16.833 1.5 -25.5c0 -25.333 1.16699 -48.5 3.5 -69.5s3.5 -41.833 3.5 -62.5c0 -12 -1 -24.333 -3 -37s-5.66699 -26.667 -11 -42l-7 -19l16 -15.5c5.33301 -5 10.333 -10.167 15 -15.5c4 -4.66699 7.66699 -9.16699 11 -13.5s7.66602 -8.16602 12.999 -11.499
c-0.666992 -4 -1.33398 -7.5 -2.00098 -10.5s-2.66699 -5.16699 -6 -6.5c-3.33301 0 -6.83301 1.83301 -10.5 5.5s-7.16699 7.5 -10.5 11.5c-6 8 -12.5 15.167 -19.5 21.5s-12.167 11.5 -15.5 15.5c-6 -9.33301 -12.667 -19 -20 -29
c-5.33301 -6 -11.666 -11.833 -18.999 -17.5s-16.666 -8.5 -27.999 -8.5c-17.333 0 -32 4.5 -44 13.5s-21.667 20.333 -29 34s-12.5 28.5 -15.5 44.5s-4.5 31 -4.5 45zM129.003 13.9961h6.49805c2.33301 0 4.5 0.333008 6.5 1c7.33301 5.33301 14.333 11.833 21 19.5
s12.667 16.167 18 25.5c-7.33301 4.66699 -14.833 9.16699 -22.5 13.5s-11.5 9.16602 -11.5 14.499c0 0.666992 0.666992 2.33398 2 5.00098l4 6c7.33301 0 14.166 -2.33301 20.499 -7l17.5 -13c3.33301 7.33301 6.33301 15 9 23s5.33398 16.667 8.00098 26
c2 6.66699 3.33301 12.667 4 18s1 10.666 1 15.999c0 10.667 -0.666992 22.667 -2 36s-2.83301 26.833 -4.5 40.5s-3.16699 27.334 -4.5 41.001s-2 26.167 -2 37.5c0 15.333 -0.833008 28.5 -2.5 39.5s-3.16699 21.5 -4.5 31.5
c-1.33301 13.333 -3.66602 25.166 -6.99902 35.499s-8.66602 19.5 -15.999 27.5c-6 7.33301 -13.5 14.5 -22.5 21.5s-18.5 10.5 -28.5 10.5c-8 0 -15.333 -2.33301 -22 -7c-5.33301 -3.33301 -10.5 -8.83301 -15.5 -16.5s-9.33301 -16.334 -13 -26.001
s-6.83398 -19.667 -9.50098 -30s-4.66699 -19.833 -6 -28.5c-1.33301 -7.33301 -2.83301 -14.166 -4.5 -20.499s-2.5 -11.833 -2.5 -16.5c-0.666992 -3.33301 -1 -6.66602 -1 -9.99902v-10c0 -28.667 1.16699 -56.667 3.5 -84s3.5 -54.333 3.5 -81c0 -12 1.33301 -26 4 -42
s7 -31.167 13 -45.5s13.833 -26.5 23.5 -36.5s21.834 -15 36.501 -15z" />
    <glyph glyph-name="r" unicode="r" horiz-adv-x="285" 
d="M43 470c0 2 -0.667969 3 -2.00098 3h-8c-1.33301 0 -2.33301 0.333008 -3 1v5c0 4 0.333008 7.16699 1 9.5s1.66699 4.83301 3 7.5c6 0.666992 10.833 1.5 14.5 2.5s8.16699 1.5 13.5 1.5c3.33301 0 6.83301 0.333008 10.5 1s7.16699 1 10.5 1h4
c10.667 0 21.334 -1.5 32.001 -4.5s21 -6.5 31 -10.5l6 -2c15.333 -4.66699 28.5 -10.5 39.5 -17.5s19.5 -17.5 25.5 -31.5c3.33301 -10 5 -19.333 5 -28c0 -29.333 -3.83301 -52.166 -11.5 -68.499s-17.667 -28.666 -30 -36.999s-26.833 -14.5 -43.5 -18.5l-52 -13
c2.66699 -5.33301 6.16699 -9.66602 10.5 -12.999s8.83301 -7 13.5 -11l6 -6c6 -5.33301 12.333 -11.333 19 -18s14 -15.167 22 -25.5s16.5 -23 25.5 -38s18.833 -33.5 29.5 -55.5c7.33301 -15.333 13.666 -30 18.999 -44s11 -28 17 -42
c0.666992 -1.33301 1.5 -3.33301 2.5 -6s1.5 -5 1.5 -7c0 -3.33301 -2 -5.33301 -6 -6c-4 0.666992 -6.83301 2 -8.5 4s-3.5 5.33301 -5.5 10c0 1.33301 -0.5 2.33301 -1.5 3s-1.5 1.66699 -1.5 3c-0.666992 0.666992 -2 3.66699 -4 9s-4.33301 11 -7 17
s-5.16699 12 -7.5 18s-3.83301 10 -4.5 12c-3.33301 9.33301 -7.83301 18.333 -13.5 27s-10.167 17.667 -13.5 27c-13.333 30 -31.333 55.5 -54 76.5s-46 41.167 -70 60.5c-0.666992 -3.33301 -1 -6.33301 -1 -9v-9c0 -9.33301 0.333008 -19 1 -29s1 -19.667 1 -29v-52
c0 -12.667 -0.166992 -25.167 -0.5 -37.5s-0.5 -24.166 -0.5 -35.499v-21.5c0 -7 0.666992 -14.167 2 -21.5c0 -2 0.166992 -4 0.5 -6s0.5 -4 0.5 -6c0 -7.33301 -3.66699 -12 -11 -14c-3.33301 3.33301 -5.16602 7.5 -5.49902 12.5s-0.833008 10.167 -1.5 15.5
s-1 11.166 -1 17.499v18.5v25c0 8 0.333008 15.333 1 22v19c0 15.333 -0.166992 30.5 -0.5 45.5s-0.5 29.5 -0.5 43.5v19c0 32 -0.666992 60.667 -2 86s-2 49.666 -2 72.999c0 13.333 0.333008 26.166 1 38.499s2 25.166 4 38.499zM71.999 291c29.333 0 53.5 4 72.5 12
s35.833 21.333 50.5 40c5.33301 7.33301 9.16602 17 11.499 29s3.5 21.667 3.5 29c0 16.667 -7 31.667 -21 45c-7.33301 6 -16.166 11.167 -26.499 15.5s-20.833 8.16602 -31.5 11.499c-8.66699 3.33301 -17.167 5.33301 -25.5 6s-16.5 1 -24.5 1c-6.66699 0 -14 -1 -22 -3
c-2 -8.66699 -3.33301 -17.834 -4 -27.501s-1 -19.5 -1 -29.5c0 -19.333 0.666992 -38.666 2 -57.999s2 -38.666 2 -57.999v-11c0 -1.33301 1 -2 3 -2h11z" />
    <glyph glyph-name="s" unicode="s" horiz-adv-x="237" 
d="M119 17c24.667 0 44.667 5.99805 60 17.998c6 5.33301 11.167 13 15.5 23s6.5 21 6.5 33c0 32 -7.16699 57.5 -21.5 76.5s-32.833 36.833 -55.5 53.5c-11.333 8 -22 16.333 -32 25s-20 18.334 -30 29.001c-13.333 15.333 -22.833 31.333 -28.5 48s-8.5 35 -8.5 55
c0 22.667 4 43 12 61c9.33301 16.667 21.5 31.834 36.5 45.501s34.5 20.5 58.5 20.5c4 0 9.33301 -0.166992 16 -0.5s13.167 -1 19.5 -2s11.666 -3 15.999 -6s6.5 -6.83301 6.5 -11.5c0 -1.33301 -0.666992 -4 -2 -8c-7.33301 2 -15.166 3.66699 -23.499 5s-16.5 2 -24.5 2
c-10 0 -19.667 -1.16699 -29 -3.5s-17.666 -6.5 -24.999 -12.5c-13.333 -10.667 -24.333 -25 -33 -43s-13 -37.333 -13 -58c0 -27.333 7.33301 -49.666 22 -66.999s32.334 -34.333 53.001 -51l34 -25c10 -7.33301 19.667 -15.5 29 -24.5s16.666 -19.167 21.999 -30.5
c7.33301 -13.333 12 -26.333 14 -39s3 -25.667 3 -39c0 -26.667 -7.33301 -49 -22 -67s-36.334 -27 -65.001 -27c-15.333 0 -30.833 2.83301 -46.5 8.5s-27.834 12.167 -36.501 19.5l-16 14c-6.66699 6 -10 11.333 -10 16c0 2.66699 1.66699 5 5 7
c4 -0.666992 9 -3.33398 15 -8.00098l20.5 -15.5c7.66699 -5.66699 16.334 -10.667 26.001 -15s20.167 -6.5 31.5 -6.5z" />
    <glyph glyph-name="t" unicode="t" horiz-adv-x="266" 
d="M12 502c2 2 3.66504 3 4.99805 3c2 0 4.16699 -0.666992 6.5 -2s4.16602 -2 5.49902 -2c8.66699 0 18 0.166992 28 0.5s19.667 0.5 29 0.5h14.5c4.33301 0 8.83301 -0.333008 13.5 -1h15c1.33301 0 2.33301 -0.166992 3 -0.5s1.33398 -0.5 2.00098 -0.5h84l13.5 2
c4.33301 0.666992 8.5 1 12.5 1c5.33301 0 9.33301 -1 12 -3v-11c0 -3.33301 -0.333008 -5.66602 -1 -6.99902c-7.33301 -1.33301 -14.833 -2.33301 -22.5 -3s-15.5 -1 -23.5 -1c-12 0 -23.833 0.333008 -35.5 1s-22.5 1 -32.5 1h-11c-1.33301 -6 -2 -12 -2 -18v-18
c0 -8.66699 0.166992 -17 0.5 -25s0.833008 -16 1.5 -24c2 -8 3.16699 -24.5 3.5 -49.5s0.5 -53.5 0.5 -85.5v-95v-63c0 -18.667 0.666992 -33.667 2 -45l2 -19.5c0.666992 -6.33301 1 -12.5 1 -18.5c0 -3.33301 -0.166992 -6.5 -0.5 -9.5s-0.833008 -6.16699 -1.5 -9.5
c-8.66699 1.33301 -13.834 4.83301 -15.501 10.5s-2.83398 12.834 -3.50098 21.501c0 12.667 -0.166992 25.834 -0.5 39.501s-0.5 26.167 -0.5 37.5c0 22 0.166992 43.833 0.5 65.5s0.5 43.167 0.5 64.5c0 23.333 -0.333008 46.833 -1 70.5s-2 47.5 -4 71.5
c-0.666992 7.33301 -1 14.333 -1 21v21v40c0 3.33301 0.166992 6.16602 0.5 8.49902s0.5 5.16602 0.5 8.49902c-3.33301 0.666992 -7 1.16699 -11 1.5s-8 0.5 -12 0.5c-7.33301 0 -14.666 -0.166992 -21.999 -0.5s-14.666 -0.5 -21.999 -0.5
c-5.33301 0 -10.666 0.166992 -15.999 0.5s-10.666 1.16602 -15.999 2.49902c-0.666992 2 -1.5 4.16699 -2.5 6.5s-1.5 4.5 -1.5 6.5s0.666992 3.66699 2 5z" />
    <glyph glyph-name="u" unicode="u" horiz-adv-x="254" 
d="M34 501c2.66699 1.33301 4.67188 2.00293 6.00488 2.00293c4 0 6 -4.66699 6 -14v-7c0 -27.333 0.833008 -53.333 2.5 -78s3.16699 -53 4.5 -85c0.666992 -13.333 1 -26.666 1 -39.999v-40c0 -26 0.5 -51.333 1.5 -76s4.16699 -47.667 9.5 -69
c2 -8 5.16699 -16.333 9.5 -25s9.5 -16.334 15.5 -23.001c5.33301 -7.33301 11.666 -14.166 18.999 -20.499s15.666 -9.5 24.999 -9.5c4.66699 0 8.5 1 11.5 3s6.16699 4.33301 9.5 7c4.66699 4 9.16699 10.333 13.5 19s8.16602 18 11.499 28s6.16602 20 8.49902 30
s4.16602 18.333 5.49902 25c2 2.66699 3.66699 9.5 5 20.5s2.5 24.167 3.5 39.5s1.83301 31.5 2.5 48.5s1.16699 32.667 1.5 47s0.666016 26.166 0.999023 35.499s0.833008 14 1.5 14c0 3.33301 -0.166992 11.666 -0.5 24.999s-0.666016 28.166 -0.999023 44.499l-1 48.5
c-0.333008 16 -0.5 28.667 -0.5 38c0 6 0.333008 9.66699 1 11c0.666992 0.666992 1.66699 1 3 1s2.83301 -0.5 4.5 -1.5s3.16699 -2.16699 4.5 -3.5c0.666992 -16 1.33398 -31.167 2.00098 -45.5s1.16699 -28.833 1.5 -43.5l1 -45.5
c0.333008 -15.667 0.5 -32.834 0.5 -51.501c0 -34 -1.5 -68 -4.5 -102s-7.16699 -68 -12.5 -102l-12 -41c-4.66699 -15.333 -9.83398 -29 -15.501 -41s-16.167 -19.667 -31.5 -23c-2.66699 -0.666992 -6.66699 -1 -12 -1c-13.333 0 -24.5 3.66699 -33.5 11
s-16.833 15.333 -23.5 24c-10 13.333 -18 28.833 -24 46.5s-10.5 37 -13.5 58s-4.83301 43 -5.5 66s-1 46.167 -1 69.5v13c0 15.333 -0.333008 29.833 -1 43.5l-2 40.5c-0.666992 16.667 -1.16699 31.167 -1.5 43.5s-0.5 24.5 -0.5 36.5c0 7.33301 0.5 15 1.5 23
s1.83301 16.667 2.5 26z" />
    <glyph glyph-name="v" unicode="v" horiz-adv-x="252" 
d="M30 504c2.66699 2.66699 5.33594 4.00195 8.00293 4.00195c4 0 6.66699 -2.83301 8 -8.5s2.66602 -11.834 3.99902 -18.501c0 -5.33301 0.333008 -10.5 1 -15.5s1.66699 -9.83301 3 -14.5c1.33301 -11.333 3.16602 -21.333 5.49902 -30s4.16602 -17.667 5.49902 -27
l9 -56c2.66699 -9.33301 4.5 -18.833 5.5 -28.5s2.5 -19.167 4.5 -28.5c8 -40 17 -81.5 27 -124.5s20.333 -80.833 31 -113.5c5.33301 50 10 100 14 150s11 99 21 147c5.33301 28 9.83301 55.333 13.5 82s10.167 52.667 19.5 78c2.66699 0 4.83398 -0.333008 6.50098 -1
s3.5 -1.33398 5.5 -2.00098c-0.666992 -10 -2.66699 -19.667 -6 -29s-6 -19 -8 -29c-2.66699 -10 -4.33398 -19.833 -5.00098 -29.5s-2 -19.5 -4 -29.5c-3.33301 -20 -7 -40.167 -11 -60.5s-7.66699 -40.5 -11 -60.5c-3.33301 -18 -5.5 -36.667 -6.5 -56
s-2.16699 -39 -3.5 -59s-2.83301 -39.833 -4.5 -59.5s-4.5 -38.834 -8.5 -57.501v-13c0 -8.66699 -2.33301 -13.667 -7 -15c-4 0 -7 1.83301 -9 5.5s-3.66699 8.33398 -5 14.001s-2.5 11.5 -3.5 17.5s-2.16699 11.667 -3.5 17l-8.5 28.5
c-3 9.66699 -6.16699 19.167 -9.5 28.5c-10 38.667 -19 78.667 -27 120c-4 20.667 -8.33301 41.167 -13 61.5s-8.66699 41.166 -12 62.499c-2 11.333 -3.5 22.333 -4.5 33s-2.83301 21.334 -5.5 32.001l-6 29c-1.33301 10 -2.5 19.667 -3.5 29s-3.16699 18.333 -6.5 27z" />
    <glyph glyph-name="w" unicode="w" horiz-adv-x="300" 
d="M37 500c6 0 9.66113 -1.66895 10.9941 -5.00195s3 -8 5 -14c3.33301 -18.667 6.83301 -37 10.5 -55s7.16699 -36.667 10.5 -56c2.66699 -18.667 4.33398 -37.5 5.00098 -56.5s2 -38.167 4 -57.5c3.33301 -40 4.83301 -78.333 4.5 -115s3.5 -73 11.5 -109
c8.66699 8 14.167 17.5 16.5 28.5s5.16602 23.167 8.49902 36.5s7 26.166 11 38.499s7.66699 24.166 11 35.499c0.666992 0 1.5 0.166992 2.5 0.5s2.16699 0.5 3.5 0.5s2.33301 -0.166992 3 -0.5s1.66699 -0.5 3 -0.5c7.33301 -13.333 12.333 -27.166 15 -41.499
s7.33398 -30.166 14.001 -47.499c2 -4.66699 4.5 -9.5 7.5 -14.5l9.5 -15.5c3.33301 -4.66699 6.83301 -11.167 10.5 -19.5s7.83398 -12.5 12.501 -12.5c2.66699 0 4.66699 3 6 9s2.33301 13 3 21s1 15.667 1 23s0.333008 12.333 1 15c1.33301 5.33301 2 10.333 2 15v14v27
c0 3.33301 0.166992 6.5 0.5 9.5s0.5 6.16699 0.5 9.5c3.33301 58.667 5.66602 115.834 6.99902 171.501s4.33301 111.167 9 166.5c5.33301 0 9.66602 -1 12.999 -3c0 -16.667 -0.666992 -34.167 -2 -52.5s-2.33301 -35.5 -3 -51.5v-39.5c0 -13 -0.333008 -26.5 -1 -40.5
c0 -10 -0.5 -20.5 -1.5 -31.5s-1.5 -21.833 -1.5 -32.5c0 -5.33301 0.166992 -10.666 0.5 -15.999s0.5 -10.666 0.5 -15.999c-1.33301 -24 -2.5 -46.167 -3.5 -66.5s-2.5 -40.166 -4.5 -59.499c0 -3.33301 -0.166992 -9.66602 -0.5 -18.999s-1 -19 -2 -29
s-2.33301 -19.167 -4 -27.5s-3.83398 -13.166 -6.50098 -14.499c-3.33301 -2 -8.66602 -3 -15.999 -3c-1.33301 0 -2.66602 0.166992 -3.99902 0.5s-2.33301 0.5 -3 0.5c-4.66699 1.33301 -8.66699 5.16602 -12 11.499s-6.66602 11.833 -9.99902 16.5
c-9.33301 14.667 -17.666 31.667 -24.999 51s-13 38 -17 56c-3.33301 -8.66699 -6.16602 -16.834 -8.49902 -24.501s-4.83301 -16.5 -7.5 -26.5c-3.33301 -14.667 -7 -27.667 -11 -39s-9.33301 -22.666 -16 -33.999c-1.33301 -2 -3.16602 -4.5 -5.49902 -7.5
s-4.83301 -4.5 -7.5 -4.5c-1.33301 0 -3.33301 3.66699 -6 11s-5.16699 15.5 -7.5 24.5l-6.5 25.5c-2 8 -3 13 -3 15c-3.33301 21.333 -5.33301 43 -6 65s-1 45.333 -1 70c0 32 -1 64.5 -3 97.5s-6.33301 64.5 -13 94.5c-2 7.33301 -3.83301 14.833 -5.5 22.5
s-3.16699 15.167 -4.5 22.5c-1.33301 8 -3.66602 16.167 -6.99902 24.5s-5 16.166 -5 23.499c0 1.33301 0.333008 2.16602 1 2.49902s2.66699 1.16602 6 2.49902z" />
    <glyph glyph-name="x" unicode="x" horiz-adv-x="257" 
d="M30 12c4.66699 13.333 10.0039 27.165 16.0039 41.498l18 44.5l32 79.5c11.333 27 21.666 53.833 30.999 80.5c-5.33301 23.333 -12 45.333 -20 66l-24 63c-2.66699 6.66699 -5.33398 13 -8.00098 19s-5 12.333 -7 19l-10 28.5
c-3.33301 9.66699 -7.33301 18.834 -12 27.501c-1.33301 6.66699 -2 10.667 -2 12c0 2 1 4.66699 3 8c7.33301 0 12.333 -3.16699 15 -9.5s4.66699 -11.833 6 -16.5c11.333 -32 23.5 -63.333 36.5 -94s23.167 -62.334 30.5 -95.001c11.333 28.667 22.833 60.334 34.5 95.001
s23.834 67 36.501 97c1.33301 4.66699 3 9.66699 5 15s5 8 9 8c1.33301 0 3.66602 -1 6.99902 -3c0 -11.333 -2.5 -21 -7.5 -29s-8.83301 -16.667 -11.5 -26c-9.33301 -22.667 -19.166 -48.834 -29.499 -78.501s-19.5 -57.167 -27.5 -82.5l-4.5 -11
c-1.66699 -4 -2.5 -7 -2.5 -9c0 -3.33301 1.66699 -8.16602 5 -14.499s6 -12.166 8 -17.499l27.5 -78.5c9 -25.667 17.167 -53.167 24.5 -82.5l4.5 -18.5c1.66699 -7 3.5 -13.167 5.5 -18.5c1.33301 -3.33301 2.5 -6.5 3.5 -9.5s1.5 -6.16699 1.5 -9.5
c0 -6 -2.33301 -10.333 -7 -13c-4 3.33301 -6.83301 7.5 -8.5 12.5s-3.16699 9.83301 -4.5 14.5c-10.667 34.667 -20.834 70.667 -30.501 108s-22.167 71 -37.5 101c-14.667 -34 -28.334 -68.667 -41.001 -104s-26.667 -70 -42 -104c-3.33301 -6 -5.33301 -10.833 -6 -14.5
s-3.33398 -8.16699 -8.00098 -13.5c-6 1.33301 -9 5.33301 -9 12z" />
    <glyph glyph-name="y" unicode="y" horiz-adv-x="276" 
d="M171 310c8 10.667 14.333 24.998 19 42.998s10.667 34.667 18 50c4 9.33301 8.5 18.833 13.5 28.5s9.83301 19.834 14.5 30.501c0.666992 2.66699 1.83398 6.33398 3.50098 11.001s3.5 9.33398 5.5 14.001s4.16699 8.83398 6.5 12.501s4.5 5.5 6.5 5.5
c1.33301 0 2.33301 -0.333008 3 -1s2.33398 -1.66699 5.00098 -3c-3.33301 -22 -10.666 -43.333 -21.999 -64s-20.333 -40.334 -27 -59.001c0 -0.666992 -0.666992 -2.33398 -2 -5.00098l-18 -50c-6.66699 -18 -14.334 -31.333 -23.001 -40
c1.33301 -5.33301 2.16602 -12.5 2.49902 -21.5s0.5 -16.833 0.5 -23.5c0 -18.667 -0.333008 -38 -1 -58s-1.66699 -39.667 -3 -59c-0.666992 -6.66699 -1.16699 -13.167 -1.5 -19.5s-0.5 -12.833 -0.5 -19.5c0 -8.66699 0.166992 -17 0.5 -25s0.5 -15.333 0.5 -22
c0 -4 0.333008 -7.66699 1 -11s1 -6.66602 1 -9.99902c0 -7.33301 -3 -12.333 -9 -15c-3.33301 4 -5.5 9.83301 -6.5 17.5s-1.5 15.834 -1.5 24.501v22c0 3.33301 -0.166992 6.83301 -0.5 10.5s-0.5 7.16699 -0.5 10.5c0 14.667 0.5 28.667 1.5 42
s2.16699 26.666 3.5 39.999c1.33301 11.333 2 22.833 2 34.5v34.5c0 9.33301 -0.333008 18.833 -1 28.5s-1 18.167 -1 25.5c-1.33301 3.33301 -5.83301 10.666 -13.5 21.999s-17.167 24.5 -28.5 39.5l-36 47.5l-35.5 46.5l-27 36c-7 9.66699 -10.167 14.834 -9.5 15.501
c0.666992 1.33301 1.83398 2.16602 3.50098 2.49902s3.16699 0.833008 4.5 1.5c7.33301 -4.66699 14.166 -11.5 20.499 -20.5s10.5 -14.5 12.5 -16.5c21.333 -22.667 41.666 -47.5 60.999 -74.5z" />
    <glyph glyph-name="z" unicode="z" horiz-adv-x="227" 
d="M30 4c1.33301 20.667 5.50488 38.5 12.5049 53.5s13.833 30.833 20.5 47.5c9.33301 25.333 18.166 51 26.499 77s17.166 52 26.499 78c13.333 36 23.833 72 31.5 108s18.167 72 31.5 108h-4c-5.33301 0 -10.833 0.666992 -16.5 2s-11.5 2.33301 -17.5 3h-15
c-10.667 0 -21.334 -0.333008 -32.001 -1s-21 -1 -31 -1c-5.33301 0 -10.333 0.166992 -15 0.5s-9.33398 0.833008 -14.001 1.5c-2 2.66699 -3 6.66699 -3 12c0 2.66699 0.5 4.33398 1.5 5.00098s2.16699 1.66699 3.5 3c3.33301 -0.666992 6.66602 -1 9.99902 -1h12
c8.66699 0 18 0.166992 28 0.5s20.333 0.5 31 0.5h15c4.66699 0 9.66699 -0.333008 15 -1c2 0 5.66699 -0.166992 11 -0.5s10.666 -0.833008 15.999 -1.5s10 -1.16699 14 -1.5s6.33301 -0.833008 7 -1.5c1.33301 -1.33301 2 -4 2 -8c0 -5.33301 -1.33301 -10.5 -4 -15.5
s-4.66699 -9.5 -6 -13.5c-11.333 -48.667 -23.666 -97 -36.999 -145s-27.666 -95 -42.999 -141c-9.33301 -26.667 -20 -52.5 -32 -77.5s-22 -50.5 -30 -76.5c11.333 0 22.333 -0.166992 33 -0.5s21 -0.5 31 -0.5h11h17c6 0 11.5 0.166992 16.5 0.5s8.5 0.833008 10.5 1.5
c5.33301 1.33301 10.333 2 15 2c5.33301 0 10.666 -1 15.999 -3l1 -9c-0.666992 -4 -2.83398 -6.33301 -6.50098 -7s-7.16699 -1 -10.5 -1c-2.66699 0 -5.5 0.166992 -8.5 0.5s-6.16699 0.5 -9.5 0.5h-23c-13.333 0 -26.666 -0.333008 -39.999 -1
c-10.667 0 -21 0.166992 -31 0.5s-22.333 1.16602 -37 2.49902z" />
    <glyph glyph-name="braceleft" unicode="{" horiz-adv-x="263" 
d="M47 249c7.33301 5.33301 16.4971 9.33301 27.4971 12s19.167 7.66699 24.5 15v13c0 22 -1.33301 43 -4 63s-4 39.667 -4 59c0 6.66699 1.16699 15.667 3.5 27s5.5 22.833 9.5 34.5s8.33301 22.167 13 31.5s9.33398 16 14.001 20c6 5.33301 12 9.5 18 12.5
s13 6.16699 21 9.5c1.33301 1.33301 3.83301 2.83301 7.5 4.5s6.83398 2.5 9.50098 2.5c3.33301 0 5.66602 -0.666992 6.99902 -2l3 -10c-4 -5.33301 -8.83301 -9.66602 -14.5 -12.999s-11.5 -6.33301 -17.5 -9s-11.667 -5.66699 -17 -9s-10 -8 -14 -14
c-9.33301 -13.333 -15.166 -29.333 -17.499 -48s-5.5 -35.334 -9.5 -50.001v-11c0 -9.33301 0.833008 -18.333 2.5 -27s3.16699 -17.667 4.5 -27c0 -1.33301 0.166992 -2.5 0.5 -3.5s0.5 -2.16699 0.5 -3.5c1.33301 -6.66699 2.5 -13.5 3.5 -20.5s1.5 -13.5 1.5 -19.5
c0 -8.66699 -1.33301 -15.334 -4 -20.001c-4 -7.33301 -11.167 -13.5 -21.5 -18.5s-19.166 -7.5 -26.499 -7.5c1.33301 0 3.83301 -1.33301 7.5 -4l12 -9l12.5 -10c4 -3.33301 6.66699 -5.66602 8 -6.99902c3.33301 -8.66699 5.33301 -17.667 6 -27s1 -18.666 1 -27.999
c0 -12 -0.333008 -24.333 -1 -37s-1 -25.667 -1 -39v-13c1.33301 -17.333 6.5 -33.166 15.5 -47.499s19.167 -25.833 30.5 -34.5l18 -11c6.66699 -4 14 -6 22 -6c2.66699 0 6.66699 0.666992 12 2c2.66699 1.33301 4.83398 3 6.50098 5s4.16699 3 7.5 3
c5.33301 -0.666992 8 -4.66699 8 -12c0 -6 -1.33301 -10.333 -4 -13c-7.33301 -4 -14.333 -6 -21 -6c-16 0 -31 3.5 -45 10.5s-26 16.667 -36 29s-17.833 26.666 -23.5 42.999s-8.5 33.5 -8.5 51.5v26.5c0 9 0.333008 18.167 1 27.5c0.666992 6.66699 1.5 13.667 2.5 21
s1.5 14.666 1.5 21.999c0 6.66699 -1 13 -3 19c-2 4 -6.16699 7.66699 -12.5 11l-15.5 8c-12.667 6 -24.334 10 -35.001 12c-2 2 -3.16699 3.5 -3.5 4.5s-0.5 2.16699 -0.5 3.5c0 6.66699 1.83301 10.667 5.5 12s7.5 2 11.5 2z" />
    <glyph glyph-name="bar" unicode="|" horiz-adv-x="89" 
d="M47 296c0 -23.333 0.666992 -48.167 2 -74.5l4 -82.5l4 -88c1.33301 -30 2 -60 2 -90v-8c-4 -4 -8 -6 -12 -6c-2.66699 27.333 -4.66699 56.333 -6 87l-4 93.5c-1.33301 31.667 -2.5 63.167 -3.5 94.5s-2.16699 61.333 -3.5 90c1.33301 33.333 2.33301 59.5 3 78.5
s1 37.167 1 54.5s0.666992 34.666 2 51.999l4 50c4 0 8 -2 12 -6v-8c0 -8.66699 -0.333008 -17.334 -1 -26.001s-1.66699 -17.667 -3 -27v-56c0 -21.333 -0.166992 -42.666 -0.5 -63.999s-0.5 -42.666 -0.5 -63.999z" />
    <glyph glyph-name="braceright" unicode="}" horiz-adv-x="263" 
d="M216 249c4 0 7.83105 -0.666992 11.498 -2s5.5 -5.33301 5.5 -12c0 -1.33301 -0.166992 -2.5 -0.5 -3.5s-1.5 -2.5 -3.5 -4.5c-11.333 -2 -23 -6 -35 -12l-15.5 -8c-6.33301 -3.33301 -10.5 -7 -12.5 -11c-2 -6 -3 -12.333 -3 -19c0 -7.33301 0.5 -14.666 1.5 -21.999
s1.83301 -14.333 2.5 -21c0.666992 -9.33301 1 -18.5 1 -27.5v-26.5c0 -18 -2.83301 -35.167 -8.5 -51.5s-13.5 -30.666 -23.5 -42.999s-22 -22 -36 -29s-29 -10.5 -45 -10.5c-7.33301 0 -14.333 2 -21 6c-2.66699 2.66699 -4 7 -4 13c0 7.33301 2.66699 11.333 8 12
c3.33301 0 5.83301 -1 7.5 -3s3.83398 -3.66699 6.50098 -5c5.33301 -1.33301 9.33301 -2 12 -2c8 0 15.333 2 22 6l18 11c11.333 8.66699 21.5 20.167 30.5 34.5s14.167 30.166 15.5 47.499v13c0 13.333 -0.333008 26.333 -1 39s-1 25 -1 37
c0 9.33301 0.333008 18.666 1 27.999s2.66699 18.333 6 27c1.33301 1.33301 4 3.66602 8 6.99902l12.5 10l12 9c3.66699 2.66699 6.16699 4 7.5 4c-7.33301 0 -16.166 2.5 -26.499 7.5s-17.5 11.167 -21.5 18.5c-2.66699 4.66699 -4 11.334 -4 20.001c0 6 0.5 12.5 1.5 19.5
s2.16699 13.833 3.5 20.5c0 1.33301 0.166992 2.5 0.5 3.5s0.5 2.16699 0.5 3.5c1.33301 9.33301 2.83301 18.333 4.5 27s2.5 17.667 2.5 27v11c-4 14.667 -7.33301 31.334 -10 50.001s-8.33398 34.667 -17.001 48c-4 6 -8.66699 10.667 -14 14s-11 6.33301 -17 9
s-11.833 5.66699 -17.5 9s-10.5 7.66602 -14.5 12.999l3 10c1.33301 1.33301 3.66602 2 6.99902 2c2.66699 0 5.83398 -0.833008 9.50098 -2.5s6.16699 -3.16699 7.5 -4.5c8 -3.33301 15 -6.5 21 -9.5s12 -7.16699 18 -12.5c4.66699 -4 9.33398 -10.667 14.001 -20
s9 -19.833 13 -31.5s7.16699 -23.167 9.5 -34.5s3.5 -20.333 3.5 -27c0 -19.333 -1.33301 -39 -4 -59s-4 -41 -4 -63v-13c5.33301 -7.33301 13.5 -12.333 24.5 -15s20.167 -6.66699 27.5 -12z" />
    <glyph glyph-name="asciitilde" unicode="~" horiz-adv-x="299" 
d="M72 275c-6 -1.33301 -11.498 -3.66699 -16.498 -7s-10.167 -5 -15.5 -5c-2 0 -4.33301 0.666992 -7 2c-1.33301 3.33301 -1.83301 5.83301 -1.5 7.5s-0.166992 3.83398 -1.5 6.50098c6 6 12.333 10.333 19 13s14 4.66699 22 6c7.33301 0 15 -1 23 -3
s14.667 -4.66699 20 -8c9.33301 -5.33301 18.833 -12.333 28.5 -21s21.167 -15 34.5 -19c8.66699 -2 18 -3 28 -3c4 0 8 0.166992 12 0.5s7.66699 0.833008 11 1.5c6 1.33301 11.5 3.5 16.5 6.5s9.83301 4.5 14.5 4.5c2 0 4.33301 -0.666992 7 -2
c1.33301 -3.33301 1.83301 -5.83301 1.5 -7.5s0.166992 -3.83398 1.5 -6.50098c-10.667 -10.667 -24.334 -17 -41.001 -19c-3.33301 -0.666992 -6.5 -1 -9.5 -1h-9.5c-21.333 0 -41.666 5.33301 -60.999 16c-12.667 7.33301 -24.334 15.5 -35.001 24.5
s-24.334 13.5 -41.001 13.5z" />
    <glyph glyph-name="uni00A0" unicode="&#xa0;" horiz-adv-x="11140" 
 />
    <glyph glyph-name="onequarter" unicode="&#xbc;" horiz-adv-x="260" 
d="M103 456c1.33301 -4 1.99707 -7.99805 1.99707 -11.998v-12c0 -8.66699 -0.333008 -17.334 -1 -26.001l-2 -27c-0.666992 -4.66699 -1 -9.33398 -1 -14.001v-15v-23v-15.5c0 -5 -0.666992 -9.83301 -2 -14.5c-1.33301 -5.33301 -3.33301 -9.33301 -6 -12
c-5.33301 1.33301 -8.66602 4 -9.99902 8s-2 8.66699 -2 14c0 4.66699 0.333008 9.5 1 14.5s1 9.83301 1 14.5l4 96c-9.33301 -6.66699 -17.166 -14.667 -23.499 -24s-14.166 -17.666 -23.499 -24.999c-3.33301 0.666992 -5.5 2.5 -6.5 5.5s-2.16699 5.83301 -3.5 8.5
c0.666992 3.33301 2.16699 5.66602 4.5 6.99902s4.83301 3.33301 7.5 6c4.66699 5.33301 10 11.833 16 19.5s12 14.5 18 20.5c0.666992 0.666992 2.83398 2.66699 6.50098 6s7.16699 5 10.5 5s6.66602 -1.66699 9.99902 -5zM211.997 483.002
c7.33301 -3.33301 12.3311 -7.66992 14.998 -13.0029l-41 -105c-14 -35.333 -27 -71.666 -39 -108.999c-6 -19.333 -11.333 -38.5 -16 -57.5s-9.66699 -38.167 -15 -57.5s-11.166 -38.166 -17.499 -56.499s-11.166 -37.166 -14.499 -56.499
c-5.33301 -8.66699 -8.5 -19 -9.5 -31s-4.5 -22 -10.5 -30c-9.33301 2.66699 -14 8 -14 16c0 4.66699 1 9.66699 3 15s3.66699 10.666 5 15.999c4.66699 16 9.16699 32.5 13.5 49.5s8.83301 32.833 13.5 47.5c7.33301 22 13.5 44.167 18.5 66.5s10.833 43.833 17.5 64.5
l21.5 63c7 20.667 14.5 40.667 22.5 60l23 60.5c7.33301 19.667 15.333 38.834 24 57.501zM202.995 214.998c3.33301 -0.666992 5.83008 -2.16699 7.49707 -4.5s3.16699 -4.83301 4.5 -7.5c0 -2 -0.666992 -3.5 -2 -4.5s-2 -2.16699 -2 -3.5
c0.666992 -3.33301 2 -6.16602 4 -8.49902s3 -5.5 3 -9.5c0 -8.66699 -0.666992 -16.834 -2 -24.501s-2 -15.167 -2 -22.5v-12c4 -3.33301 7.33301 -4.83301 10 -4.5s4.66699 -1.16699 6 -4.5c0 -5.33301 -2 -8.5 -6 -9.5s-7.66699 -1.5 -11 -1.5
c-3.33301 -12.667 -5.16602 -24.167 -5.49902 -34.5s-0.5 -22.5 -0.5 -36.5c0 -3.33301 -0.666992 -5.16602 -2 -5.49902s-2.66602 -0.833008 -3.99902 -1.5c-7.33301 5.33301 -11 14.666 -11 27.999c0 8 0.833008 16.5 2.5 25.5s2.5 17.167 2.5 24.5
c-5.33301 1.33301 -12.5 2 -21.5 2s-16.833 0.666992 -23.5 2c-3.33301 4.66699 -5.66602 11 -6.99902 19c10.667 15.333 20.667 31 30 47s19.333 31.667 30 47zM196.992 121.998l2 25.5c0.666992 8.33301 1 15.833 1 22.5v6c-5.33301 -9.33301 -10.833 -18 -16.5 -26
s-10.5 -17 -14.5 -27c4 0 7.66699 -0.166992 11 -0.5s7 -0.5 11 -0.5h6z" />
    <glyph glyph-name="onehalf" unicode="&#xbd;" horiz-adv-x="255" 
d="M183 150c-2 4.66699 -5.99805 7.00195 -11.998 7.00195c-1.33301 0 -2.5 -0.166992 -3.5 -0.5s-2.16699 -0.5 -3.5 -0.5c-5.33301 4 -8 10.667 -8 20c1.33301 1.33301 3.33301 2.16602 6 2.49902s5.33398 0.5 8.00098 0.5h6c6.66699 -4.66699 12.334 -10 17.001 -16
s7 -11.667 7 -17c0 -2 -0.333008 -3.66699 -1 -5c-1.33301 -4.66699 -3.33301 -10.667 -6 -18s-5.83398 -14.833 -9.50098 -22.5l-10.5 -22c-3.33301 -7 -6.33301 -12.167 -9 -15.5c4 -2 9.66699 -3 17 -3c3.33301 0 6.5 0.166992 9.5 0.5s5.5 0.5 7.5 0.5
c3.33301 -1.33301 5.66602 -3.33301 6.99902 -6s3 -5.33398 5 -8.00098c-4 -6.66699 -11.333 -10 -22 -10h-8c-5.33301 0 -10.5 0.5 -15.5 1.5s-9.16699 2.83301 -12.5 5.5c-2 2 -3.66699 4.83301 -5 8.5s-2 6.5 -2 8.5s1 5.5 3 10.5l6.5 16.5
c2.33301 6 4.66602 11.667 6.99902 17s4.16602 9 5.49902 11c3.33301 6 6.33301 11.667 9 17s5 11 7 17zM103.002 456.002c1.33301 -4 1.99707 -7.99805 1.99707 -11.998v-12c0 -8.66699 -0.333008 -17.334 -1 -26.001l-2 -27c-0.666992 -4.66699 -1 -9.33398 -1 -14.001
v-15v-23v-15.5c0 -5 -0.666992 -9.83301 -2 -14.5c-1.33301 -5.33301 -3.33301 -9.33301 -6 -12c-5.33301 1.33301 -8.66602 4 -9.99902 8s-2 8.66699 -2 14c0 4.66699 0.333008 9.5 1 14.5s1 9.83301 1 14.5l4 96c-9.33301 -6.66699 -17.166 -14.667 -23.499 -24
s-14.166 -17.666 -23.499 -24.999c-3.33301 0.666992 -5.5 2.5 -6.5 5.5s-2.16699 5.83301 -3.5 8.5c0.666992 3.33301 2.16699 5.66602 4.5 6.99902s4.83301 3.33301 7.5 6c4.66699 5.33301 10 11.833 16 19.5s12 14.5 18 20.5
c0.666992 0.666992 2.83398 2.66699 6.50098 6s7.16699 5 10.5 5s6.66602 -1.66699 9.99902 -5zM209.999 483.004c7.33301 -3.33301 12.3311 -7.66992 14.998 -13.0029l-41 -105c-14 -35.333 -27 -71.666 -39 -108.999c-6 -19.333 -11.333 -38.5 -16 -57.5
s-9.66699 -38.167 -15 -57.5s-11.166 -38.166 -17.499 -56.499s-11.166 -37.166 -14.499 -56.499c-5.33301 -8.66699 -8.5 -19 -9.5 -31s-4.5 -22 -10.5 -30c-9.33301 2.66699 -14 8 -14 16c0 4.66699 1 9.66699 3 15s3.66699 10.666 5 15.999
c4.66699 16 9.16699 32.5 13.5 49.5s8.83301 32.833 13.5 47.5c7.33301 22 13.5 44.167 18.5 66.5s10.833 43.833 17.5 64.5l21.5 63c7 20.667 14.5 40.667 22.5 60l23 60.5c7.33301 19.667 15.333 38.834 24 57.501z" />
    <glyph glyph-name="threequarters" unicode="&#xbe;" horiz-adv-x="269" 
d="M224 483c7.33301 -3.33301 12.3311 -7.66992 14.998 -13.0029l-41 -105c-14 -35.333 -27 -71.666 -39 -108.999c-6 -19.333 -11.333 -38.5 -16 -57.5s-9.66699 -38.167 -15 -57.5s-11.166 -38.166 -17.499 -56.499s-11.166 -37.166 -14.499 -56.499
c-5.33301 -8.66699 -8.5 -19 -9.5 -31s-4.5 -22 -10.5 -30c-9.33301 2.66699 -14 8 -14 16c0 4.66699 1 9.66699 3 15s3.66699 10.666 5 15.999c4.66699 16 9.16699 32.5 13.5 49.5s8.83301 32.833 13.5 47.5c7.33301 22 13.5 44.167 18.5 66.5s10.833 43.833 17.5 64.5
l21.5 63c7 20.667 14.5 40.667 22.5 60l23 60.5c7.33301 19.667 15.333 38.834 24 57.501zM41.998 438.996c5.33301 4 10.9971 7.33691 16.9971 10.0039c3.33301 1.33301 6.83301 3 10.5 5s8.16699 3 13.5 3s9.33301 -0.833008 12 -2.5s5.33398 -3.16699 8.00098 -4.5
c3.33301 -4 6.16602 -8.33301 8.49902 -13s3.5 -9.33398 3.5 -14.001c0 -8 -2.5 -15.167 -7.5 -21.5s-10.167 -11.5 -15.5 -15.5c7.33301 -2 13 -7.33301 17 -16s6 -17.667 6 -27c0 -10 -3 -19.667 -9 -29c-6 -8.66699 -14 -14.5 -24 -17.5s-19 -5.16699 -27 -6.5
c-2 2 -3.5 3.83301 -4.5 5.5s-1.83301 4.16699 -2.5 7.5c12.667 3.33301 24.834 8.16602 36.501 14.499s17.5 17.166 17.5 32.499c0 5.33301 -1.66699 11 -5 17s-6.66602 9 -9.99902 9c-5.33301 0 -10.166 -0.5 -14.499 -1.5s-8.16602 -1.5 -11.499 -1.5
c-0.666992 0 -1.33398 1 -2.00098 3s-1 3.33301 -1 4s2.33301 2.33398 7 5.00098s9.66699 5.83398 15 9.50098s10.333 7.66699 15 12s7 9.16602 7 14.499c0 4 -0.666992 7.33301 -2 10c-1.33301 3.33301 -3.5 6.5 -6.5 9.5s-6.16699 4.5 -9.5 4.5
c-2 0 -4.83301 -0.666992 -8.5 -2s-7.5 -2.83301 -11.5 -4.5s-7.5 -3.33398 -10.5 -5.00098s-4.83301 -3.16699 -5.5 -4.5c-3.33301 1.33301 -5.33301 4.66602 -6 9.99902zM220.995 215c3.33301 -0.666992 5.83008 -2.16699 7.49707 -4.5s3.16699 -4.83301 4.5 -7.5
c0 -2 -0.666992 -3.5 -2 -4.5s-2 -2.16699 -2 -3.5c0.666992 -3.33301 2 -6.16602 4 -8.49902s3 -5.5 3 -9.5c0 -8.66699 -0.666992 -16.834 -2 -24.501s-2 -15.167 -2 -22.5v-12c4 -3.33301 7.33301 -4.83301 10 -4.5s4.66699 -1.16699 6 -4.5c0 -5.33301 -2 -8.5 -6 -9.5
s-7.66699 -1.5 -11 -1.5c-3.33301 -12.667 -5.16602 -24.167 -5.49902 -34.5s-0.5 -22.5 -0.5 -36.5c0 -3.33301 -0.666992 -5.16602 -2 -5.49902s-2.66602 -0.833008 -3.99902 -1.5c-7.33301 5.33301 -11 14.666 -11 27.999c0 8 0.833008 16.5 2.5 25.5
s2.5 17.167 2.5 24.5c-5.33301 1.33301 -12.5 2 -21.5 2s-16.833 0.666992 -23.5 2c-3.33301 4.66699 -5.66602 11 -6.99902 19c10.667 15.333 20.667 31 30 47s19.333 31.667 30 47zM214.992 122l2 25.5c0.666992 8.33301 1 15.833 1 22.5v6
c-5.33301 -9.33301 -10.833 -18 -16.5 -26s-10.5 -17 -14.5 -27c4 0 7.66699 -0.166992 11 -0.5s7 -0.5 11 -0.5h6z" />
    <glyph glyph-name="questiondown" unicode="&#xbf;" horiz-adv-x="278" 
d="M167 448c3.33301 0 6.66602 -2.16602 9.99902 -6.49902s5.33301 -8.16602 6 -11.499c0 -1.33301 0.166992 -2.33301 0.5 -3s0.5 -1.66699 0.5 -3c0 -4.66699 -0.5 -9.83398 -1.5 -15.501s-1.83301 -11.167 -2.5 -16.5c-2 -27.333 -6.16699 -50.166 -12.5 -68.499
s-14.166 -35.333 -23.499 -51s-19.666 -31.5 -30.999 -47.5s-23 -35 -35 -57c-3.33301 -6.66699 -6.83301 -14.667 -10.5 -24s-6.83398 -18.333 -9.50098 -27c-4 -14 -6.83301 -27.333 -8.5 -40s-2.83398 -28.667 -3.50098 -48c0 -3.33301 -0.333008 -7 -1 -11
s-1 -7.66699 -1 -11c0 -9.33301 4.5 -17.833 13.5 -25.5s19.667 -14.167 32 -19.5s24.666 -9.5 36.999 -12.5s22.166 -4.5 29.499 -4.5c15.333 0 29.833 3.16699 43.5 9.5s23.167 15.833 28.5 28.5c2 4.66699 3.33301 9.83398 4 15.501s1 11.5 1 17.5
c0 9.33301 -0.666992 19 -2 29s-3 18.667 -5 26c-1.33301 5.33301 -3.16602 10.833 -5.49902 16.5s-5.16602 10.167 -8.49902 13.5c-3.33301 2.66699 -7.16602 4.83398 -11.499 6.50098s-8.66602 3.5 -12.999 5.5s-8 4.5 -11 7.5s-4.5 7.5 -4.5 13.5
c2.66699 2 5.33398 3 8.00098 3c12 0 22.333 -4.83301 31 -14.5s15.667 -21 21 -34s9.33301 -26.667 12 -41s4 -25.833 4 -34.5c0 -28 -8.33301 -49.667 -25 -65s-38 -23 -64 -23c-10.667 0 -22.167 1.16699 -34.5 3.5s-24.5 6 -36.5 11s-22.667 11 -32 18
s-16.333 15.167 -21 24.5c-2 4 -3.33301 8.83301 -4 14.5s-1 11.167 -1 16.5s0.166992 10.333 0.5 15s0.5 9.33398 0.5 14.001c0 17.333 1 33.666 3 48.999s5.66699 30.666 11 45.999c4 14 8.66699 25.667 14 35s11 18.333 17 27s12.333 17.167 19 25.5
s13.334 18.5 20.001 30.5l22 34c7.33301 11.333 12.666 23.666 15.999 36.999c5.33301 19.333 8.16602 39.666 8.49902 60.999s2.16602 41.666 5.49902 60.999zM161 495.001c0 6 3.33105 9 9.99805 9c2.66699 0 4.33398 -0.333008 5.00098 -1c6 -2 9 -7 9 -15
c0 -2.66699 -0.833008 -6.16699 -2.5 -10.5s-5.16699 -6.5 -10.5 -6.5s-8.66602 1 -9.99902 3s-2 4.66699 -2 8c0 2 0.166992 4 0.5 6s0.5 4.33301 0.5 7z" />
    <glyph glyph-name="nptp3.001march2007p" unicode="&#xdb;" 
 />
    <glyph glyph-name="nptp3.001march2007p" unicode="&#xe3b;" 
 />
    <glyph glyph-name="nptp3.001march2007u" unicode="&#xdc;" 
 />
    <glyph glyph-name="nptp3.001march2007u" unicode="&#xe3c;" 
 />
    <glyph glyph-name="nptp3.001march2007c" unicode="&#xdd;" 
 />
    <glyph glyph-name="nptp3.001march2007c" unicode="&#xe3d;" 
 />
    <glyph glyph-name="Naipol" unicode="&#xff;" horiz-adv-x="948" 
 />
    <glyph glyph-name="kokaithai" unicode="&#xe01;" horiz-adv-x="240" 
d="M30 367c1.33301 12.667 4.66113 24.999 9.99414 36.999l12 36.5c4 12.333 9.5 23.166 16.5 32.499s15.833 17 26.5 23s24.334 9 41.001 9c14.667 0 28 -4 40 -12s18.667 -19 20 -33c2 -14.667 3.83301 -33.167 5.5 -55.5s2.5 -47.5 2.5 -75.5
c0 -30 -0.166992 -61.5 -0.5 -94.5s-0.5 -64.5 -0.5 -94.5c0 -34.667 0.333008 -64.667 1 -90s2.66699 -42.333 6 -51h-6c-6 0 -11 1 -15 3c-1.33301 69.333 -2.16602 129.666 -2.49902 180.999s-0.666016 95 -0.999023 131s-1.16602 65.333 -2.49902 88
s-3.5 40.334 -6.5 53.001s-7.16699 21.334 -12.5 26.001s-12.333 7 -21 7c-14 0 -26.5 -3 -37.5 -9s-19.833 -14 -26.5 -24c-6.66699 -11.333 -12.667 -24.333 -18 -39s-9.66602 -29 -12.999 -43c6 0 11 -0.833008 15 -2.5s8.33301 -3.16699 13 -4.5
c1.33301 -4 2.16602 -8.33301 2.49902 -13s0.5 -9.66699 0.5 -15c0 -18 -1 -34.333 -3 -49c-3.33301 -48.667 -5.5 -98.667 -6.5 -150s-2.83301 -100.333 -5.5 -147l-8 4c-2.66699 1.33301 -4.66699 3.33301 -6 6c0.666992 58 1.83398 116.833 3.50098 176.5
s4.5 118.834 8.5 177.501c-4 0 -8.16699 -0.333008 -12.5 -1s-7.16602 -1 -8.49902 -1c-2.66699 2 -4.66699 4 -6 6s-3 4.33301 -5 7z" />
    <glyph glyph-name="khokhaithai" unicode="&#xe02;" horiz-adv-x="229" 
d="M172 502c2 2 4.66406 3.00098 7.99707 3.00098c2 0 4 -1 6 -3c-0.666992 -6.66699 -1 -15.167 -1 -25.5v-50.5c0 -8.66699 0.666992 -21 2 -37s3 -34.167 5 -54.5s3.66699 -42.333 5 -66s2 -47.5 2 -71.5c0 -26 -0.666992 -51.167 -2 -75.5s-4.5 -45.833 -9.5 -64.5
s-12.5 -33.667 -22.5 -45s-24 -17 -42 -17c-22 0 -41.167 7.16699 -57.5 21.5s-24.5 37.5 -24.5 69.5c0 50 0.5 91.333 1.5 124s4.16699 60 9.5 82c2 12.667 4.66699 25 8 37s6 24.333 8 37l4 16.5l6 26c2 9 4 17.333 6 25s3 12.5 3 14.5
c0.666992 4 1.33398 8.66699 2.00098 14s1 10 1 14s-0.333008 6.33301 -1 7c-2.66699 5.33301 -7.66699 8 -15 8c-4.66699 0 -9.16699 -0.833008 -13.5 -2.5s-7.16602 -4.83398 -8.49902 -9.50098c-2.66699 -8 -4 -17 -4 -27s-2.33301 -15 -7 -15
c-5.33301 0 -8.5 1.5 -9.5 4.5s-1.5 7.16699 -1.5 12.5c0 11.333 2 22.666 6 33.999s13 17 27 17c8 0 16.167 -1.16699 24.5 -3.5s13.833 -9.16602 16.5 -20.499c0.666992 -2 1 -5.66699 1 -11c0 -7.33301 -0.833008 -15.166 -2.5 -23.499s-3.5 -15.833 -5.5 -22.5
c-2.66699 -9.33301 -4.83398 -18 -6.50098 -26s-3.16699 -16.333 -4.5 -25c-3.33301 -19.333 -7.16602 -37.333 -11.499 -54s-8.16602 -34.667 -11.499 -54c-2.66699 -15.333 -4.5 -30.333 -5.5 -45s-1.5 -29.667 -1.5 -45v-19c0 -16 0.5 -32.667 1.5 -50
s3.66699 -33.166 8 -47.499s10.833 -26.333 19.5 -36s20.667 -14.5 36 -14.5c13.333 0 24 4.66699 32 14s14 22 18 38s6.5 34.667 7.5 56s1.5 44 1.5 68c0 24.667 -0.5 50.167 -1.5 76.5s-2.33301 52.166 -4 77.499s-3 49.166 -4 71.499s-1.5 41.833 -1.5 58.5v19
c0 7.33301 1 12.333 3 15z" />
    <glyph glyph-name="khokhuatthai" unicode="&#xe03;" horiz-adv-x="251" 
d="M131 464c0 -4 -1 -10.167 -3 -18.5s-4.33301 -17.166 -7 -26.499l-8 -27c-2.66699 -8.66699 -4.33398 -15 -5.00098 -19c-3.33301 -19.333 -7.16602 -37.333 -11.499 -54s-8.16602 -34.667 -11.499 -54c-2.66699 -15.333 -4.5 -30.333 -5.5 -45s-1.5 -29.667 -1.5 -45
v-19c0 -16 0.5 -32.667 1.5 -50s3.66699 -33.166 8 -47.499s10.833 -26.333 19.5 -36s20.667 -14.5 36 -14.5c13.333 0 24 4.66699 32 14s14 22 18 38s6.5 34.667 7.5 56s1.5 44 1.5 68c0 24.667 -0.5 50.167 -1.5 76.5s-2.33301 52.166 -4 77.499s-3 49.166 -4 71.499
s-1.5 41.833 -1.5 58.5v19c0 7.33301 1 12.333 3 15c2 2 4.66699 3 8 3c2 0 4 -1 6 -3c-0.666992 -6.66699 -1 -15.167 -1 -25.5v-50.5c0 -8.66699 0.666992 -21 2 -37s3 -34.167 5 -54.5s3.66699 -42.333 5 -66s2 -47.5 2 -71.5c0 -26 -0.666992 -51.167 -2 -75.5
s-4.5 -45.833 -9.5 -64.5s-12.5 -33.667 -22.5 -45s-24 -17 -42 -17c-22 0 -41.167 7.16699 -57.5 21.5s-24.5 37.5 -24.5 69.5c0 50 0.5 91.333 1.5 124s4.16699 60 9.5 82c2 12.667 4.66699 25 8 37s6 24.333 8 37c0.666992 2.66699 2.16699 9.33398 4.5 20.001l7.5 34
l7.5 33c2.33301 10 3.5 16 3.5 18c0 7.33301 -1.5 11.833 -4.5 13.5s-7.83301 2.5 -14.5 2.5c-5.33301 0 -9 -1.16699 -11 -3.5s-3.33301 -5 -4 -8s-1.33398 -5.66699 -2.00098 -8s-2 -3.5 -4 -3.5c-2.66699 0 -4.66699 1.16699 -6 3.5s-2.66602 5 -3.99902 8
s-3 5.83301 -5 8.5s-4.66699 4 -8 4s-6.66602 -1.66699 -9.99902 -5c-2 -3.33301 -3 -6.33301 -3 -9c0 -3.33301 0.5 -6.83301 1.5 -10.5s1.5 -7.16699 1.5 -10.5c0 -1.33301 -0.333008 -3 -1 -5s-2 -3 -4 -3c-6 0 -10 3.5 -12 10.5s-3 14.167 -3 21.5
c0 5.33301 1 11.166 3 17.499s5.66699 9.5 11 9.5c7.33301 0 13.166 -0.5 17.499 -1.5s9.16602 -4.5 14.499 -10.5c4.66699 3.33301 8.5 6.33301 11.5 9s7.16699 4 12.5 4c16 0 26.833 -3.66699 32.5 -11s8.5 -17.333 8.5 -30z" />
    <glyph glyph-name="khokhwaithai" unicode="&#xe04;" horiz-adv-x="244" 
d="M117 296c3.33301 0 6.49805 -1.00586 9.49805 -3.00586s4.5 -4.66699 4.5 -8s-1.83301 -5.66602 -5.5 -6.99902s-6.83398 -2.66602 -9.50098 -3.99902c-3.33301 -1.33301 -8.83301 -4.83301 -16.5 -10.5s-15.167 -12 -22.5 -19s-13.833 -13.833 -19.5 -20.5
s-8.5 -11.667 -8.5 -15v-114c0 -13.333 0.333008 -25.166 1 -35.499s1.33398 -19.166 2.00098 -26.499c0 -3.33301 0.166992 -6.16602 0.5 -8.49902s0.5 -4.83301 0.5 -7.5c0 -8.66699 -1.33301 -16 -4 -22c-4.66699 1.33301 -8.16699 3.33301 -10.5 6
s-5.16602 5.66699 -8.49902 9c1.33301 4.66699 2 9.33398 2 14.001v15c0 28 -0.333008 57.167 -1 87.5s-1 60.833 -1 91.5c0 39.333 0.833008 76.5 2.5 111.5s5.33398 65.5 11.001 91.5s14.167 46.5 25.5 61.5s26.666 22.5 45.999 22.5c21.333 0 37.833 -3.66699 49.5 -11
s20.167 -16.666 25.5 -27.999s8.66602 -23.833 9.99902 -37.5s2.33301 -26.834 3 -39.501l8 -246c0.666992 -18 1.16699 -33.167 1.5 -45.5s0.666016 -22.666 0.999023 -30.999s0.5 -15.333 0.5 -21v-16.5v-26c-0.666992 -3.33301 -1.83398 -5.5 -3.50098 -6.5
s-3.16699 -1.5 -4.5 -1.5c-7.33301 0.666992 -11.666 2.33398 -12.999 5.00098s-2 7.66699 -2 15v31c0 13.333 0.333008 31.666 1 54.999s1 49.666 1 78.999c0 21.333 -0.333008 41.166 -1 59.499s-1.66699 31.833 -3 40.5c-1.33301 24 -2 43.167 -2 57.5v35.5v29
c0 8 -0.166992 15.667 -0.5 23s-1.16602 14 -2.49902 20c-3.33301 12.667 -11.666 22.667 -24.999 30s-25.666 11 -36.999 11c-8 0 -15 -1.33301 -21 -4c-10 -3.33301 -17.5 -9 -22.5 -17s-9.16699 -18 -12.5 -30c-7.33301 -30 -12.166 -63.167 -14.499 -99.5l-6.5 -101.5
c2.66699 2.66699 6.5 7.33398 11.5 14.001s10.833 13.5 17.5 20.5s13.667 13.333 21 19s14.666 8.5 21.999 8.5z" />
    <glyph glyph-name="khokhonthai" unicode="&#xe05;" horiz-adv-x="249" 
d="M113 302c2.66699 0 5.33691 -0.833008 8.00391 -2.5s4 -3.83398 4 -6.50098s-2.5 -5.33398 -7.5 -8.00098s-9.16699 -5 -12.5 -7c-3.33301 -3.33301 -6.66602 -6.16602 -9.99902 -8.49902s-6 -4.5 -8 -6.5c-8.66699 -8 -17.667 -17.667 -27 -29s-14 -22.666 -14 -33.999
v-143c0 -7.33301 0.333008 -15.166 1 -23.499s1 -15.833 1 -22.5c0 -10 -1.66699 -15.333 -5 -16c-5.33301 0 -8.5 4 -9.5 12s-1.5 17 -1.5 27v37c0 22.667 0.166992 41 0.5 55s0.5 27 0.5 39c0 13.333 -1 27 -3 41l7 204c0 6.66699 0.5 15.334 1.5 26.001
s2.83301 21.167 5.5 31.5s6 19.333 10 27s9.66699 11.5 17 11.5c10 0 19.667 -4 29 -12l23 -20c5.33301 0.666992 10.166 2.83398 14.499 6.50098s8.66602 7.66699 12.999 12s8.66602 8.33301 12.999 12s9.16602 5.5 14.499 5.5c12 0 21.833 -5.5 29.5 -16.5
s11.5 -21.5 11.5 -31.5c-1.33301 -6 -2.5 -19.167 -3.5 -39.5s-2 -43.833 -3 -70.5s-2 -54.834 -3 -84.501s-2 -56.834 -3 -81.501l-2.5 -61.5l-1 -24.5c0 -5.33301 0.333008 -12.333 1 -21s1.5 -17.5 2.5 -26.5l3 -26c1 -8.33301 1.5 -14.833 1.5 -19.5
c0 -8 -1.33301 -12 -4 -12c-5.33301 0 -9.33301 2 -12 6s-4.66699 9 -6 15s-2.16602 12.833 -2.49902 20.5s-0.833008 15.167 -1.5 22.5v12c0 14.667 0.333008 32.667 1 54s1.5 42.5 2.5 63.5s2 40.167 3 57.5s1.83301 29.333 2.5 36
c0.666992 56.667 2.16699 100.167 4.5 130.5s3.5 48.166 3.5 53.499c0 6 -2 11.333 -6 16s-8.66699 7.66699 -14 9c-12.667 -4 -23.5 -10.5 -32.5 -19.5s-18.167 -15.833 -27.5 -20.5c-3.33301 2.66699 -6.33301 6.16699 -9 10.5s-5.83398 8.5 -9.50098 12.5
s-7.5 7.33301 -11.5 10s-8.33301 4 -13 4c-6.66699 0 -11.834 -2.16699 -15.501 -6.5s-6.5 -9.83301 -8.5 -16.5s-3.16699 -14 -3.5 -22s-0.5 -15.667 -0.5 -23v-18c0 -34 -0.833008 -61 -2.5 -81s-2.5 -38 -2.5 -54v-11.5c0 -3.66699 0.333008 -7.5 1 -11.5
c2 3.33301 6.16699 8.16602 12.5 14.499l20 19.5c7 6.66699 13.667 12.334 20 17.001s10.833 7 13.5 7z" />
    <glyph glyph-name="khorakhangthai" unicode="&#xe06;" horiz-adv-x="266" 
d="M65 265l0.000976562 -22.4932c0 -13 0.166992 -26.833 0.5 -41.5s0.5 -27.667 0.5 -39v-17c0 -5.33301 1.33301 -10.333 4 -15s4.66699 -9 6 -13c3.33301 -6.66699 8.66602 -16 15.999 -28s15.5 -23.833 24.5 -35.5s18.167 -21.834 27.5 -30.501s18 -13 26 -13
c8.66699 0 15.5 2.66699 20.5 8s8.83301 11.666 11.5 18.999s4.16699 15.166 4.5 23.499s0.5 15.166 0.5 20.499v5c0 36 -0.5 64.667 -1.5 86s-1.5 39 -1.5 53c0 25.333 1 49.666 3 72.999s4.33301 48 7 74c1.33301 17.333 3 35.166 5 53.499s3 36.5 3 54.5
c0 3.33301 -0.166992 6.83301 -0.5 10.5s-0.5 6.16699 -0.5 7.5c2 2 4 3 6 3c1.33301 0 3.33301 -0.666992 6 -2c2 -12 3 -24.333 3 -37c0 -42 -2.66699 -83 -8 -123s-8 -80 -8 -120c0 -42 0.5 -73.667 1.5 -95s1.5 -38.666 1.5 -51.999
c0 -12.667 -1.33301 -24.834 -4 -36.501s-8.33398 -21.5 -17.001 -29.5c-3.33301 -2.66699 -7.66602 -5.33398 -12.999 -8.00098s-11.666 -4 -18.999 -4c-12 0 -23 5 -33 15c-6.66699 6 -13.5 13.167 -20.5 21.5s-13.833 17.166 -20.5 26.499s-12.667 18.666 -18 27.999
s-9.33301 18 -12 26c-0.666992 -4 -1.16699 -11.333 -1.5 -22s-0.5 -18 -0.5 -22c0 -10 0.333008 -18.333 1 -25s1 -13.667 1 -21v-10c0 -1.33301 -0.166992 -4.33301 -0.5 -9s-1.5 -7 -3.5 -7c-3.33301 0 -6.5 0.5 -9.5 1.5s-4.83301 2.83301 -5.5 5.5v12
c0.666992 7.33301 1 13.833 1 19.5v15.5v17c0 5.33301 -0.333008 11.666 -1 18.999c0 8 0.333008 16.333 1 25l2 26c0.666992 15.333 1 30.5 1 45.5v46.5c0 16 0.666992 30.333 2 43s3 24.334 5 35.001s4.16699 20.834 6.5 30.501s4.16602 19.5 5.49902 29.5
c0.666992 2.66699 2.16699 9.33398 4.5 20.001l7.5 34l7.5 33c2.33301 10 3.5 16 3.5 18c0 7.33301 -1.5 11.833 -4.5 13.5s-7.83301 2.5 -14.5 2.5c-5.33301 0 -9 -1.16699 -11 -3.5s-3.33301 -5 -4 -8s-1.33398 -5.66699 -2.00098 -8s-2 -3.5 -4 -3.5
c-2.66699 0 -4.66699 1.16699 -6 3.5s-2.66602 5 -3.99902 8s-3 5.83301 -5 8.5s-4.66699 4 -8 4s-6.66602 -1.66699 -9.99902 -5c-2 -3.33301 -3 -6.33301 -3 -9c0 -3.33301 0.5 -6.83301 1.5 -10.5s1.5 -7.16699 1.5 -10.5c0 -1.33301 -0.333008 -3 -1 -5s-2 -3 -4 -3
c-6 0 -10 3.5 -12 10.5s-3 14.167 -3 21.5c0 5.33301 1 11.166 3 17.499s5.66699 9.5 11 9.5c7.33301 0 13.166 -0.5 17.499 -1.5s9.16602 -4.5 14.499 -10.5c4.66699 3.33301 8.5 6.33301 11.5 9s7.16699 4 12.5 4c16 0 26.833 -3.66699 32.5 -11s8.5 -17.333 8.5 -30
c0 -4 -1 -10.167 -3 -18.5s-4.33301 -17.166 -7 -26.499l-8 -27c-2.66699 -8.66699 -4.33398 -15 -5.00098 -19c-3.33301 -19.333 -7.16602 -37.333 -11.499 -54s-8.16602 -34.667 -11.499 -54z" />
    <glyph glyph-name="ngonguthai" unicode="&#xe07;" horiz-adv-x="207" 
d="M24 199c16.667 -9.33301 30.335 -21.166 41.002 -35.499s20.334 -29.5 29.001 -45.5l25.5 -48c8.33301 -16 18.833 -30 31.5 -42c0.666992 4.66699 1 9.5 1 14.5v15.5c0 14.667 -0.333008 29.667 -1 45s-1 30 -1 44v74v37.5c0 12.333 0.333008 24.833 1 37.5
c0.666992 21.333 2 42 4 62s3 40 3 60v21c0 6.66699 -0.666992 13.667 -2 21s-4.33301 13.333 -9 18s-11 7 -19 7c-8.66699 0 -16.334 -2.66699 -23.001 -8c-2.66699 1.33301 -4 4 -4 8s-0.666992 7.66699 -2 11c8.66699 6.66699 17.334 10 26.001 10
c19.333 0 32.833 -5.33301 40.5 -16s11.5 -27.334 11.5 -50.001v-15l-2 -29c-1.33301 -21.333 -2.5 -41 -3.5 -59s-1.5 -35.667 -1.5 -53v-140v-18c0 -6 -0.333008 -12 -1 -18c-0.666992 -20 -1 -39.333 -1 -58s-0.666992 -36.334 -2 -53.001c-2 -2 -4.33301 -3 -7 -3
c-1.33301 0 -3.33301 1.33301 -6 4c-11.333 10.667 -22 23.834 -32 39.501l-31 49.5c-10.667 17.333 -21.834 34.166 -33.501 50.499s-24.834 30.166 -39.501 41.499c-5.33301 4.66699 -8 8.66699 -8 12c0 2.66699 0.333008 4.33398 1 5.00098
c0 0.666992 0.333008 1.33398 1 2.00098c1.33301 1.33301 3.66602 2 6.99902 2c2.66699 0 4.66699 -0.333008 6 -1z" />
    <glyph glyph-name="chochanthai" unicode="&#xe08;" horiz-adv-x="246" 
d="M156 -5c-4.66699 0 -7.49805 1.67578 -8.49805 5.00879s-2.16699 6.66602 -3.5 9.99902c-3.33301 22 -5.66602 43.833 -6.99902 65.5s-5.33301 42.167 -12 61.5c-5.33301 16.667 -11.333 30.667 -18 42s-18.667 20.666 -36 27.999
c-3.33301 2.66699 -6.66602 4.66699 -9.99902 6s-5 3.66602 -5 6.99902c0 1.33301 1.16699 3.66602 3.5 6.99902s5.16602 5 8.49902 5c7.33301 -2.66699 14 -6 20 -10l20 -14c8.66699 -8 15.834 -18.833 21.501 -32.5s10 -28.5 13 -44.5s5.33301 -32.167 7 -48.5l4.5 -45.5
c11.333 33.333 20.333 71.666 27 114.999s11 86 13 128c0.666992 12.667 1.5 24 2.5 34s1.5 22.667 1.5 38c0 16.667 -1.33301 33 -4 49s-7.66699 30.333 -15 43s-17.333 23 -30 31s-29.334 12 -50.001 12c-19.333 0 -33.833 -6.5 -43.5 -19.5s-18.167 -27.167 -25.5 -42.5
c-6.66699 1.33301 -10 5 -10 11c0 7.33301 2.16699 14.833 6.5 22.5s9.66602 14.667 15.999 21s13.166 11.666 20.499 15.999s14 7.16602 20 8.49902c3.33301 0.666992 6.16602 1 8.49902 1h7.5c21.333 0 39.5 -4.33301 54.5 -13s27.167 -20 36.5 -34s16 -29.833 20 -47.5
s6 -35.5 6 -53.5c0 -22.667 -0.5 -42.834 -1.5 -60.501s-2.5 -36.834 -4.5 -57.501c-3.33301 -38 -8.33301 -75.167 -15 -111.5s-16.667 -72.5 -30 -108.5l-4 -11c0 -2.66699 -0.166992 -5.5 -0.5 -8.5s-1.83301 -4.5 -4.5 -4.5z" />
    <glyph glyph-name="chochingthai" unicode="&#xe09;" horiz-adv-x="234" 
d="M190 -4c-2.66699 0 -4.16992 2.00195 -4.50293 6.00195s-0.833008 7.66699 -1.5 11c-0.666992 2.66699 -1 5.33398 -1 8.00098v8c0 8 0.333008 15.833 1 23.5s1 15.5 1 23.5c0 10 -0.333008 17.667 -1 23s-1 13.666 -1 24.999c-6 -12.667 -11 -23.834 -15 -33.501
s-9.66699 -20.834 -17 -33.501c-5.33301 -12.667 -12 -25.334 -20 -38.001s-18.667 -19 -32 -19c-12 0 -21.333 3.16699 -28 9.5s-11.834 14 -15.501 23s-6 18.833 -7 29.5s-1.5 20.667 -1.5 30c0 8.66699 -0.166992 17.167 -0.5 25.5s-0.5 17.166 -0.5 26.499v41
c0 6 -0.333008 13 -1 21s-1 17.667 -1 29c0.666992 5.33301 2.66699 8.83301 6 10.5s6.66602 2.5 9.99902 2.5c5.33301 -0.666992 8 -3.33398 8 -8.00098c0 -1.33301 -0.166992 -2.83301 -0.5 -4.5s-0.5 -3.16699 -0.5 -4.5c-1.33301 -9.33301 -2.16602 -19 -2.49902 -29
s-0.833008 -20 -1.5 -30c-0.666992 -4 -1 -8 -1 -12v-12c0 -8 0.166992 -15.833 0.5 -23.5s0.5 -15.5 0.5 -23.5v-15.5c0 -5 0.666992 -10.167 2 -15.5c2.66699 -16.667 4.16699 -26.667 4.5 -30s0.833008 -5.66602 1.5 -6.99902c2.66699 -10 9.66699 -15 21 -15
c10.667 0 19.167 2.5 25.5 7.5s11.5 11.333 15.5 19s7.33301 16.334 10 26.001s6 19.167 10 28.5l17.5 33.5c6.33301 11.667 11.166 24.167 14.499 37.5c0.666992 2.66699 1 5.83398 1 9.50098v12.5v22c0 7.33301 0.333008 13.666 1 18.999
c0.666992 15.333 1.16699 29.166 1.5 41.499s0.5 23.5 0.5 33.5c0 20 -0.5 36.333 -1.5 49s-2.16699 24.334 -3.5 35.001c-1.33301 7.33301 -2.16602 14.5 -2.49902 21.5s-2.16602 13.167 -5.49902 18.5c-9.33301 15.333 -19.5 28.166 -30.5 38.499s-24.833 15.5 -41.5 15.5
c-13.333 0 -26.166 -3.66699 -38.499 -11s-22.833 -17.333 -31.5 -30c-2 -2.66699 -4 -6 -6 -10s-4 -6 -6 -6s-3.66699 0.833008 -5 2.5s-2 3.16699 -2 4.5c0 10 3.33301 19.333 10 28s14.834 16 24.501 22s19.834 10.667 30.501 14s20 5 28 5
c16.667 0 33.167 -6.16699 49.5 -18.5s27.833 -25.833 34.5 -40.5c2 -4.66699 3.16699 -10 3.5 -16s1.16602 -12 2.49902 -18l4 -47c1.33301 -16 2 -31.667 2 -47c0 -25.333 -0.666992 -48.166 -2 -68.499s-2 -41.166 -2 -62.499v-35c0 -12 -0.166992 -23.333 -0.5 -34
s-0.5 -20 -0.5 -28v-17c0 -6.66699 0.333008 -13.5 1 -20.5s1 -13.5 1 -19.5l1 -30c0 -1.33301 -1.16699 -2.83301 -3.5 -4.5s-5.16602 -2.5 -8.49902 -2.5z" />
    <glyph glyph-name="chochangthai" unicode="&#xe0a;" horiz-adv-x="240" 
d="M207 197c0 -26 -0.666992 -51.166 -2 -75.499s-4.5 -45.833 -9.5 -64.5s-12.5 -33.667 -22.5 -45s-24 -17 -42 -17c-22 0 -41.167 7.16699 -57.5 21.5s-24.5 37.5 -24.5 69.5c0 29.333 -0.333008 55.5 -1 78.5s-1 43.5 -1 61.5c0 13.333 0.333008 25.333 1 36
s2 20.667 4 30c2 12.667 4.66699 25 8 37s6 24.333 8 37l4 16.5l6 26c2 9 4 17.333 6 25s3 12.5 3 14.5c0.666992 4 1.33398 8.66699 2.00098 14s1 10 1 14s-0.333008 6.33301 -1 7c-2.66699 5.33301 -7.66699 8 -15 8c-4.66699 0 -9.16699 -0.833008 -13.5 -2.5
s-7.16602 -4.83398 -8.49902 -9.50098c-2.66699 -8 -4 -17 -4 -27s-2.33301 -15 -7 -15c-5.33301 0 -8.5 1.5 -9.5 4.5s-1.5 7.16699 -1.5 12.5c0 11.333 2 22.666 6 33.999s13 17 27 17c8 0 16.167 -1.16699 24.5 -3.5s13.833 -9.16602 16.5 -20.499
c0.666992 -2 1 -5.66699 1 -11c0 -7.33301 -0.833008 -15.166 -2.5 -23.499s-3.5 -15.833 -5.5 -22.5c-2.66699 -9.33301 -4.83398 -18 -6.50098 -26s-3.16699 -16.333 -4.5 -25c-3.33301 -19.333 -7.16602 -37.333 -11.499 -54s-8.16602 -34.667 -11.499 -54
c-0.666992 -4.66699 -1.16699 -9.16699 -1.5 -13.5s-0.5 -8.83301 -0.5 -13.5c0 -10.667 0.5 -21.167 1.5 -31.5s1.5 -20.833 1.5 -31.5v-19c0 -16 0.5 -32.667 1.5 -50s3.66699 -33.166 8 -47.499s10.833 -26.333 19.5 -36s20.667 -14.5 36 -14.5c14 0 25.167 8 33.5 24
s14.666 34.667 18.999 56s7 42.5 8 63.5s1.5 36.5 1.5 46.5v9c0 -0.666992 0 0.333008 0 3s-0.166992 6.16699 -0.5 10.5l-1 13.5c-0.333008 4.66699 -0.5 8.66699 -0.5 12c-0.666992 6 -1.16699 12.5 -1.5 19.5s-1.16602 13.667 -2.49902 20s-3.33301 12 -6 17
s-6.33398 8.5 -11.001 10.5c-2.66699 1.33301 -4.83398 2.16602 -6.50098 2.49902s-3.5 0.5 -5.5 0.5h-8c-4.66699 0 -8.66699 0.333008 -12 1c-1.33301 3.33301 -2 5.33301 -2 6s-0.666992 2.66699 -2 6c6 10 13.5 20.667 22.5 32s16.5 22.666 22.5 33.999
c4 8 7.5 18.5 10.5 31.5s4.5 26.167 4.5 39.5c0 2.66699 -0.166992 5.16699 -0.5 7.5s-0.5 4.5 -0.5 6.5c-0.666992 4.66699 -1.83398 9.33398 -3.50098 14.001s-2.5 9.66699 -2.5 15c0 1.33301 -0.333008 2.66602 -1 3.99902s-1 2.66602 -1 3.99902
c0 2.66699 1.66699 4 5 4s6.33301 -0.5 9 -1.5s4.66699 -2.83301 6 -5.5l1 -7c1.33301 -8.66699 2.5 -17.834 3.5 -27.501s1.83301 -19.167 2.5 -28.5v-6c0 -11.333 -2 -22.333 -6 -33s-8.83301 -21 -14.5 -31s-12 -19.167 -19 -27.5s-13.5 -15.166 -19.5 -20.499h6
c11.333 0 20 -3.66699 26 -11s10.5 -16.666 13.5 -27.999s5 -23.5 6 -36.5s2.5 -25.167 4.5 -36.5v-24z" />
    <glyph glyph-name="sosothai" unicode="&#xe0b;" horiz-adv-x="262" 
d="M74 292c2 12.667 4.66992 25.167 8.00293 37.5s6 24.833 8 37.5c0.666992 2.66699 2.16699 9.33398 4.5 20.001l7.5 34l7.5 33c2.33301 10 3.5 16 3.5 18c0 7.33301 -1.5 11.833 -4.5 13.5s-7.83301 2.5 -14.5 2.5c-5.33301 0 -9 -1.16699 -11 -3.5s-3.33301 -5 -4 -8
s-1.33398 -5.66699 -2.00098 -8s-2 -3.5 -4 -3.5c-2.66699 0 -4.66699 1.16699 -6 3.5s-2.66602 5 -3.99902 8s-3 5.83301 -5 8.5s-4.66699 4 -8 4s-6.66602 -1.66699 -9.99902 -5c-2 -3.33301 -3 -6.33301 -3 -9c0 -3.33301 0.5 -6.83301 1.5 -10.5s1.5 -7.16699 1.5 -10.5
c0 -1.33301 -0.333008 -3 -1 -5s-2 -3 -4 -3c-6 0 -10 3.5 -12 10.5s-3 14.167 -3 21.5c0 5.33301 1 11.166 3 17.499s5.66699 9.5 11 9.5c7.33301 0 13.166 -0.5 17.499 -1.5s9.16602 -4.5 14.499 -10.5c4.66699 3.33301 8.5 6.33301 11.5 9s7.16699 4 12.5 4
c16 0 26.833 -3.66699 32.5 -11s8.5 -17.333 8.5 -30c0 -4 -1 -10.167 -3 -18.5s-4.33301 -17.166 -7 -26.499l-8 -27c-2.66699 -8.66699 -4.33398 -15 -5.00098 -19c-3.33301 -19.333 -7.16602 -37.5 -11.499 -54.5s-8.16602 -35.167 -11.499 -54.5
c-0.666992 -4.66699 -1.16699 -9.16699 -1.5 -13.5s-0.5 -8.83301 -0.5 -13.5c0 -10.667 0.5 -21.167 1.5 -31.5s1.5 -20.833 1.5 -31.5v-19c0 -16 0.5 -32.667 1.5 -50s3.66699 -33.166 8 -47.499s10.833 -26.333 19.5 -36s20.667 -14.5 36 -14.5
c12.667 0 23.167 5.83301 31.5 17.5s14.666 26.5 18.999 44.5s7.33301 37.667 9 59s2.5 41.333 2.5 60c0 11.333 -0.166992 22 -0.5 32s-0.833008 18.333 -1.5 25c-0.666992 6 -1.16699 12.5 -1.5 19.5s-1.16602 13.667 -2.49902 20s-3.33301 12 -6 17
s-6.33398 8.5 -11.001 10.5c-2.66699 1.33301 -4.83398 2.16602 -6.50098 2.49902s-3.5 0.5 -5.5 0.5h-8c-4.66699 0 -8.66699 0.333008 -12 1c-1.33301 3.33301 -2 5.33301 -2 6s-0.666992 2.66699 -2 6c6 10 13.5 20.667 22.5 32s16.5 22.666 22.5 33.999
c4 8 7.5 18.5 10.5 31.5s4.5 26.167 4.5 39.5c0 2.66699 -0.166992 5.16699 -0.5 7.5s-0.5 4.5 -0.5 6.5c-0.666992 4.66699 -1.83398 9.33398 -3.50098 14.001s-2.5 9.66699 -2.5 15c0 1.33301 -0.333008 2.66602 -1 3.99902s-1 2.66602 -1 3.99902
c0 2.66699 1.66699 4 5 4s6.33301 -0.5 9 -1.5s4.66699 -2.83301 6 -5.5l1 -7c1.33301 -8.66699 2.5 -17.834 3.5 -27.501s1.83301 -19.167 2.5 -28.5v-6c0 -11.333 -2 -22.333 -6 -33s-8.83301 -21 -14.5 -31s-12 -19.167 -19 -27.5s-13.5 -15.166 -19.5 -20.499h6
c11.333 0 20 -3.66699 26 -11s10.5 -16.666 13.5 -27.999s5 -23.5 6 -36.5s2.5 -25.167 4.5 -36.5v-24c0 -26 -0.666992 -51.167 -2 -75.5s-4.5 -45.833 -9.5 -64.5s-12.5 -33.667 -22.5 -45s-24 -17 -42 -17c-22 0 -41.167 7.16699 -57.5 21.5s-24.5 37.5 -24.5 69.5
c0 29.333 -0.333008 55.5 -1 78.5s-1 43.5 -1 61.5c0 13.333 0.333008 25.333 1 36s2 20.667 4 30z" />
    <glyph glyph-name="chochoethai" unicode="&#xe0c;" horiz-adv-x="357" 
d="M77 360c-5.33301 3.33301 -12.168 5.33008 -20.501 5.99707s-16.166 1.66699 -23.499 3c-2 4.66699 -3 10 -3 16c0 12 3.66699 25.167 11 39.5s16.5 27.5 27.5 39.5s23.167 22 36.5 30s25.666 12 36.999 12c7.33301 0 14 -1.33301 20 -4
c10.667 -3.33301 20.334 -9.66602 29.001 -18.999s15 -19 19 -29c2 -7.33301 3.33301 -14.666 4 -21.999s1 -14.666 1 -21.999v-20c0 -9.33301 -0.166992 -18.5 -0.5 -27.5s-0.833008 -18.833 -1.5 -29.5c-1.33301 -26.667 -1.83301 -52 -1.5 -76
s-0.166992 -49.333 -1.5 -76c-0.666992 -7.33301 -1.16699 -14.833 -1.5 -22.5s-0.5 -15.167 -0.5 -22.5v-10c0.666992 -4.66699 1.66699 -9.66699 3 -15l4 -16c2.66699 -12 5.83398 -21.833 9.50098 -29.5s8.83398 -16.167 15.501 -25.5l10.5 -13
c3.66699 -4.66699 7.16699 -7.66699 10.5 -9c4 -1.33301 6.66699 -2 8 -2c9.33301 0 16.333 2.66699 21 8s8 12 10 20s3.33301 16.5 4 25.5s1.66699 17.167 3 24.5c0 14.667 0.166992 28.334 0.5 41.001s0.5 24.667 0.5 36c0 34.667 -0.333008 63.5 -1 86.5
s-1 42.167 -1 57.5v104v26.5c0 9 0.666992 18.5 2 28.5v14c0 8.66699 2.66699 14 8 16c4 0 6.5 -1.66699 7.5 -5s1.5 -6.33301 1.5 -9s-0.166992 -5 -0.5 -7s-0.5 -4 -0.5 -6c0 -55.333 0.166992 -99.333 0.5 -132s0.666016 -58.167 0.999023 -76.5
s0.666016 -31.833 0.999023 -40.5s0.5 -16.334 0.5 -23.001v-15c0 -5.33301 -0.333008 -10.666 -1 -15.999l-5 -88.5c-1.33301 -23 -3.5 -41.333 -6.5 -55s-7.5 -23.167 -13.5 -28.5s-14 -8 -24 -8c-10.667 0 -18.667 2.33301 -24 7c-8.66699 7.33301 -17.167 18 -25.5 32
s-14.5 26.333 -18.5 37c-0.666992 -2 -1 -5.33301 -1 -10c0 -8 0.666992 -16.333 2 -25s2 -16.667 2 -24v-5c0 -5.33301 -0.333008 -8.5 -1 -9.5s-2.33398 -1.5 -5.00098 -1.5c-6 1.33301 -9.66699 4.33301 -11 9s-2 9.66699 -2 15l-1 14
c1.33301 48 2.16602 98.5 2.49902 151.5s2.16602 107.5 5.49902 163.5c0.666992 8.66699 1.33398 17.834 2.00098 27.501s1 19.167 1 28.5v11c0 12 -1.66699 21.333 -5 28c-13.333 20.667 -25 33 -35 37s-18.667 6.33301 -26 7c-10.667 0 -21.334 -4.33301 -32.001 -13
s-20.167 -18.5 -28.5 -29.5s-15.166 -21.667 -20.499 -32s-8 -16.833 -8 -19.5c0 -0.666992 2 -1.5 6 -2.5s8.5 -2.33301 13.5 -4s9.66699 -3.33398 14 -5.00098s6.83301 -3.5 7.5 -5.5c1.33301 -4 2 -8.33301 2 -13c0 -5.33301 -0.333008 -11.333 -1 -18s-1 -12.667 -1 -18
v-56c0 -18.667 -0.666992 -34.667 -2 -48l-6 -111c0 -7.33301 -0.166992 -15 -0.5 -23s-0.5 -15.667 -0.5 -23c0 -4 0.166992 -8.66699 0.5 -14s0.833008 -10.5 1.5 -15.5s1.83398 -9.5 3.50098 -13.5s4.16699 -6.66699 7.5 -8c4 -1.33301 7 -2 9 -2
c4.66699 0 9.5 0.666992 14.5 2s9.5 2 13.5 2c4 -5.33301 6 -10.333 6 -15c0 -2 -0.333008 -3.33301 -1 -4c-4 -4.66699 -11.333 -7 -22 -7c-6 0 -12 0.666992 -18 2s-9.66699 3.33301 -11 6c-7.33301 9.33301 -12.166 20.166 -14.499 32.499s-3.5 25.833 -3.5 40.5
c0 11.333 0.5 23 1.5 35s1.83301 23.667 2.5 35c2.66699 38 4.5 74 5.5 108s1.5 70.667 1.5 110z" />
    <glyph glyph-name="yoyingthai" unicode="&#xe0d;" horiz-adv-x="322" 
d="M291 179c-1.33301 -13.333 -1.99316 -23.4922 -1.99316 -30.4922v-16.5v-33v-19c0 -7.33301 -0.666992 -15.666 -2 -24.999c-1.33301 -18 -7.83301 -33.167 -19.5 -45.5s-28.834 -18.5 -51.501 -18.5c-10.667 0 -21.5 1.5 -32.5 4.5s-22.167 9.16699 -33.5 18.5v6
c0 3.33301 0.833008 6 2.5 8s5.5 3 11.5 3c6.66699 -4 12.167 -7.5 16.5 -10.5s8.16602 -5.5 11.499 -7.5s6.66602 -3.5 9.99902 -4.5s8 -1.5 14 -1.5c19.333 0 33.5 6.5 42.5 19.5s13.5 29.5 13.5 49.5v4c0 2.66699 0.333008 5 1 7c0 2.66699 0.333008 6.33398 1 11.001
c-3.33301 -6 -7 -12 -11 -18s-9.66699 -9 -17 -9c-4 0 -7 0.333008 -9 1c-12.667 3.33301 -25.334 11.166 -38.001 23.499s-19.667 25.166 -21 38.499c-2 24.667 -3 46.334 -3 65.001l11 200c0.666992 9.33301 1.33398 17.666 2.00098 24.999s1 14.666 1 21.999v7
c-3.33301 12.667 -9.83301 21.834 -19.5 27.501s-20.5 8.5 -32.5 8.5s-24.333 -2.66699 -37 -8c-5.33301 -2 -11.833 -6.83301 -19.5 -14.5s-13.167 -14.167 -16.5 -19.5c-5.33301 -7.33301 -9.16602 -15.666 -11.499 -24.999s-4.83301 -18 -7.5 -26
c3.33301 0 7.33301 0.333008 12 1s9.66699 1 15 1c9.33301 0 15.666 -2.33301 18.999 -7c0.666992 -1.33301 1 -3 1 -5c0 -2.66699 -0.5 -5 -1.5 -7s-1.5 -4.66699 -1.5 -8s0.166992 -6 0.5 -8s0.5 -3.66699 0.5 -5c-0.666992 -5.33301 -1.66699 -10.333 -3 -15
s-2.66602 -9.66699 -3.99902 -15l-8 -47.5c-2.66699 -15.667 -5 -31.834 -7 -48.501c-0.666992 -3.33301 -1 -8 -1 -14v-25c-0.666992 -6.66699 -1.5 -13.334 -2.5 -20.001s-1.83301 -13.667 -2.5 -21c-1.33301 -16 -1.83301 -32 -1.5 -48s0.166016 -31.333 -0.500977 -46
c0 -18.667 5.33301 -33 16 -43c2.66699 1.33301 6.33398 3.83301 11.001 7.5s9 5.5 13 5.5s6.66699 -3 8 -9c0 -3.33301 -3 -7.83301 -9 -13.5s-11.667 -8.5 -17 -8.5c-3.33301 0 -6.83301 1.66699 -10.5 5s-7.16699 7.16602 -10.5 11.499s-6.33301 8.66602 -9 12.999
s-4.33398 8.16602 -5.00098 11.499c-2 6.66699 -3 14.667 -3 24c0 5.33301 0.166992 10.333 0.5 15s0.5 9.66699 0.5 15v7v29c0 10 0.333008 19.667 1 29l4 58c1.33301 19.333 3.66602 38.333 6.99902 57c3.33301 19.333 6.66602 37.666 9.99902 54.999
s5.66602 34.333 6.99902 51c-4 1.33301 -7.66699 2 -11 2s-7.33301 -0.166992 -12 -0.5s-8.66699 -0.5 -12 -0.5h-5c-2.66699 4.66699 -4 10 -4 16c0 7.33301 2 15.666 6 24.999c4 11.333 8.16699 21.333 12.5 30s10.5 17 18.5 25l14 14c4 4 10.333 7 19 9
c2 0 3.33301 0.333008 4 1c5.33301 2 11.333 3.83301 18 5.5s13.667 2.5 21 2.5h8c2.66699 0 5.33398 -0.666992 8.00098 -2c4.66699 -1.33301 9.83398 -4.33301 15.501 -9s10.167 -9.33398 13.5 -14.001c5.33301 -7.33301 8.83301 -15.833 10.5 -25.5
s2.5 -19.834 2.5 -30.501c0 -7.33301 -0.166992 -14.333 -0.5 -21s-0.5 -13.667 -0.5 -21l-6 -185c0 -5.33301 -0.166992 -10.833 -0.5 -16.5s-0.5 -11.167 -0.5 -16.5v-14c0 -6.66699 0.333008 -11.334 1 -14.001c1.33301 -13.333 6.83301 -25.166 16.5 -35.499
s20.167 -15.5 31.5 -15.5c9.33301 0 15.833 4.66699 19.5 14s6.16699 18.333 7.5 27c1.33301 7.33301 2.16602 14.5 2.49902 21.5s0.5 14.167 0.5 21.5v34v43c0 11.333 -0.166992 21 -0.5 29s-0.5 15.333 -0.5 22v21v104v26.5c0 9 0.666992 18.5 2 28.5v14
c0 8.66699 2.66699 14 8 16c4 0 6.5 -1.66699 7.5 -5s1.5 -6.33301 1.5 -9s-0.166992 -5 -0.5 -7s-0.5 -4 -0.5 -6c0 -55.333 0.166992 -99.333 0.5 -132s0.666016 -58.167 0.999023 -76.5s0.666016 -31.833 0.999023 -40.5s0.5 -16.334 0.5 -23.001v-15
c0 -5.33301 -0.333008 -10.666 -1 -15.999z" />
    <glyph glyph-name="dochadathai" unicode="&#xe0e;" horiz-adv-x="255" 
d="M224 -81c-1.33301 -18 -7.83789 -33.167 -19.5049 -45.5s-28.834 -18.5 -51.501 -18.5c-5.33301 0 -12.166 0.833008 -20.499 2.5s-17.166 4 -26.499 7s-18.333 6.5 -27 10.5s-16 8.33301 -22 13v6c0 3.33301 0.833008 6 2.5 8s5.5 3 11.5 3l43 -22.5
c14.667 -7.66699 27.667 -11.5 39 -11.5c19.333 0 33.666 6.83301 42.999 20.5s14 30.5 14 50.5c0 58.667 0.166992 111.334 0.5 158.001s0.5 89 0.5 127c0 48.667 -0.5 89.834 -1.5 123.501s-3 60.834 -6 81.501s-7.33301 35.5 -13 44.5s-13.167 13.5 -22.5 13.5
c-14 0 -26.667 -3.33301 -38 -10s-20.333 -15 -27 -25c-6.66699 -11.333 -12.667 -24.333 -18 -39s-9.66602 -29 -12.999 -43c6 0 11 -0.833008 15 -2.5s8.33301 -3.16699 13 -4.5c1.33301 -4 2.16602 -8.33301 2.49902 -13s0.5 -9.66699 0.5 -15c0 -18 -1 -34.333 -3 -49
c-1.33301 -24 -2.33301 -43.167 -3 -57.5s-1 -27.333 -1 -39s-0.166992 -24.334 -0.5 -38.001s-1.16602 -32.167 -2.49902 -55.5v-7c0 -5.33301 0.166992 -10.333 0.5 -15s0.5 -9.66699 0.5 -15v-21c0 -10 -0.666992 -16.667 -2 -20c-2 -6 -6.66699 -11.333 -14 -16
s-14.666 -7.33398 -21.999 -8.00098c-5.33301 0 -11 2.83301 -17 8.5s-9 10.167 -9 13.5c0.666992 6 3.33398 9 8.00098 9c4 0 8.33301 -1.83301 13 -5.5s8.33398 -6.16699 11.001 -7.5c5.33301 5.33301 9.33301 10.166 12 14.499s4 11.166 4 20.499
c0 28.667 0.166992 55.334 0.5 80.001l1 72.5c0.333008 23.667 1 47.834 2 72.501s2.5 51.667 4.5 81c-4 0 -8.16699 -0.333008 -12.5 -1s-7.16602 -1 -8.49902 -1c-2.66699 2 -4.66699 4 -6 6s-3 4.33301 -5 7c1.33301 12.667 4.66602 25 9.99902 37l12 36.5
c4 12.333 9.5 23.166 16.5 32.499s15.833 17 26.5 23s24.334 9 41.001 9c14.667 0 27.5 -4 38.5 -12s17.167 -19 18.5 -33c2 -14.667 3.83301 -33.167 5.5 -55.5s2.5 -47.5 2.5 -75.5c0 -30 -0.166992 -61.5 -0.5 -94.5s-0.5 -64.5 -0.5 -94.5v-221z" />
    <glyph glyph-name="topatakthai" unicode="&#xe0f;" horiz-adv-x="256" 
d="M220 -90c0 -8.66699 0.993164 -16.667 2.99316 -24s3 -14.666 3 -21.999c0 -1.33301 -0.166992 -2.66602 -0.5 -3.99902s-0.5 -2.66602 -0.5 -3.99902c-7.33301 0.666992 -13.833 3 -19.5 7s-11 8.66699 -16 14l-15 16c-5 5.33301 -9.83301 10 -14.5 14
c-2.66699 -2 -5.16699 -5.5 -7.5 -10.5l-7 -15.5c-2.33301 -5.33301 -4.83301 -10.333 -7.5 -15s-5.66699 -8 -9 -10c-5.33301 0 -12.166 0.833008 -20.499 2.5s-17.166 4 -26.499 7s-18.333 6.5 -27 10.5s-16 8.33301 -22 13v6c0 3.33301 0.833008 6 2.5 8s5.5 3 11.5 3
l43 -22.5c14.667 -7.66699 27.667 -11.5 39 -11.5c2 2.66699 4.16699 7.16699 6.5 13.5s4.5 12.5 6.5 18.5s4.16699 11.333 6.5 16s4.83301 7 7.5 7c4.66699 0 8.83398 -1.83301 12.501 -5.5s7.5 -7.83398 11.5 -12.501l12.5 -14
c4.33301 -4.66699 9.16602 -8.33398 14.499 -11.001c-1.33301 6.66699 -2 13.334 -2 20.001v21c0 17.333 0.666992 35.333 2 54s2 37 2 55c-1.33301 69.333 -2 128.833 -2 178.5v125.5c0 34 -0.5 61 -1.5 81s-2.83301 35.333 -5.5 46s-6.5 17.5 -11.5 20.5
s-11.833 4.5 -20.5 4.5c-14 0 -26.667 -3.33301 -38 -10s-20.333 -15 -27 -25c-6.66699 -11.333 -12.667 -24.333 -18 -39s-9.66602 -29 -12.999 -43c6 0 11 -0.833008 15 -2.5s8.33301 -3.16699 13 -4.5c1.33301 -4 2.16602 -8.33301 2.49902 -13s0.5 -9.66699 0.5 -15
c0 -18 -1 -34.333 -3 -49c-1.33301 -24 -2.33301 -43.167 -3 -57.5s-1 -27.333 -1 -39s-0.166992 -24.334 -0.5 -38.001s-1.16602 -32.167 -2.49902 -55.5v-7c0 -5.33301 0.166992 -10.333 0.5 -15s0.5 -9.66699 0.5 -15v-21c0 -10 -0.666992 -16.667 -2 -20
c-2 -6 -6.66699 -11.333 -14 -16s-14.666 -7.33398 -21.999 -8.00098c-5.33301 0 -11 2.83301 -17 8.5s-9 10.167 -9 13.5c0.666992 6 3.33398 9 8.00098 9c4 0 8.33301 -1.83301 13 -5.5s8.33398 -6.16699 11.001 -7.5c5.33301 5.33301 9.33301 10.166 12 14.499
s4 11.166 4 20.499c0 28.667 0.166992 55.334 0.5 80.001l1 72.5c0.333008 23.667 1 47.834 2 72.501s2.5 51.667 4.5 81c-4 0 -8.16699 -0.333008 -12.5 -1s-7.16602 -1 -8.49902 -1c-2.66699 2 -4.66699 4 -6 6s-3 4.33301 -5 7c1.33301 12.667 4.66602 25 9.99902 37
l12 36.5c4 12.333 9.5 23.166 16.5 32.499s15.833 17 26.5 23s24.334 9 41.001 9c14.667 0 27.5 -4 38.5 -12s17.167 -19 18.5 -33c2 -14.667 3.83301 -33.167 5.5 -55.5s2.5 -47.5 2.5 -75.5c0 -30 -0.166992 -61.5 -0.5 -94.5s-0.5 -64.5 -0.5 -94.5
c0 -14.667 -0.166992 -32 -0.5 -52s-0.833008 -40.167 -1.5 -60.5s-1.16699 -39.666 -1.5 -57.999s-0.5 -32.833 -0.5 -43.5v-16z" />
    <glyph glyph-name="thothanthai" unicode="&#xe10;" horiz-adv-x="232" 
d="M242 531c-4.66699 -4 -10.1689 -9.15918 -16.502 -15.4922s-13.333 -12.5 -21 -18.5s-16 -11.167 -25 -15.5s-18.5 -6.5 -28.5 -6.5c14.667 -14 25.167 -31.667 31.5 -53s9.5 -43.333 9.5 -66s-0.166992 -42.834 -0.5 -60.501s-1.5 -36.834 -3.5 -57.501
c-1.33301 -19.333 -2.16602 -38.166 -2.49902 -56.499s-0.833008 -36.666 -1.5 -54.999s-2.33398 -36.5 -5.00098 -54.5s-7.33398 -36 -14.001 -54l-4 -11c0 -2.66699 -0.166992 -5.5 -0.5 -8.5s-1.83301 -4.5 -4.5 -4.5c-4.66699 0 -7.5 1.66699 -8.5 5
s-2.16699 6.66602 -3.5 9.99902c-1.33301 10.667 -3.5 23 -6.5 37s-6.33301 28.167 -10 42.5l-11 41.5c-3.66699 13.333 -7.16699 24.666 -10.5 33.999c-5.33301 16.667 -12.5 30.5 -21.5 41.5s-22.167 20.167 -39.5 27.5c-3.33301 2.66699 -6.66602 4.66699 -9.99902 6
s-5 3.66602 -5 6.99902c0 1.33301 1.16699 3.66602 3.5 6.99902s5.16602 5 8.49902 5c7.33301 -2.66699 14 -6 20 -10l20 -14l13 -10c8 -8.66699 14.833 -20.834 20.5 -36.501s10.834 -32.667 15.501 -51s8.83398 -36.5 12.501 -54.5s7.16699 -33.333 10.5 -46
c6.66699 20 10.834 42 12.501 66s2.5 49 2.5 75v52v25.5c0 8.33301 0.333008 16.5 1 24.5c0.666992 12.667 1.5 24 2.5 34s1.5 22.667 1.5 38c0 16.667 -1.83301 33 -5.5 49s-8.66699 30.333 -15 43s-14.166 23 -23.499 31s-19.666 12 -30.999 12
c-19.333 0 -33.833 -6.5 -43.5 -19.5s-18.167 -27.167 -25.5 -42.5c-6.66699 1.33301 -10 5 -10 11c0 7.33301 2.16699 14.833 6.5 22.5s9.66602 14.667 15.999 21s13.166 11.666 20.499 15.999s14 7.16602 20 8.49902c3.33301 0.666992 6.16602 1 8.49902 1h7.5
c6 0 10.333 -0.333008 13 -1s4.83398 -1.66699 6.50098 -3s3.5 -3 5.5 -5s5 -4 9 -6h5c10 0 19 2.33301 27 7s15.5 10 22.5 16s13.667 12.167 20 18.5s12.833 11.166 19.5 14.499c6 0 10 -0.5 12 -1.5s3 -3.16699 3 -6.5v-6zM185.998 -107.992
c0 2.66699 -0.333984 6.6709 -1.00098 12.0039s-1 9 -1 11c-0.666992 4.66699 -1.16699 9.16699 -1.5 13.5s-0.5 9.16602 -0.5 14.499c0 1.33301 -0.333008 2.66602 -1 3.99902s-1 2.66602 -1 3.99902c0 2.66699 1.66699 4 5 4s6.33301 -0.5 9 -1.5s4.66699 -2.83301 6 -5.5
l1 -7c0.666992 -4.66699 1.16699 -9.16699 1.5 -13.5s0.5 -8.83301 0.5 -13.5v-34c0 -1.33301 -0.166992 -2.66602 -0.5 -3.99902s-0.5 -2.66602 -0.5 -3.99902c-14.667 1.33301 -26.667 5.5 -36 12.5s-19.333 13.5 -30 19.5
c-5.33301 -4.66699 -12.666 -9.83398 -21.999 -15.501s-17.333 -10.167 -24 -13.5c-10.667 0 -21.667 3.66699 -33 11s-22.666 15.666 -33.999 24.999v6c0 3.33301 0.833008 6 2.5 8s5.5 3 11.5 3c8 -9.33301 17 -17.833 27 -25.5s18.667 -11.5 26 -11.5
c7.33301 4 14.833 9.66699 22.5 17s14.167 12.666 19.5 15.999c4 0 11.167 -4 21.5 -12s21.166 -14.667 32.499 -20z" />
    <glyph glyph-name="thonangmonthothai" unicode="&#xe11;" horiz-adv-x="264" 
d="M16 481c4 2 8.32715 3.00488 12.9941 3.00488c6.66699 0 12.667 -1.66699 18 -5s9.66602 -7 12.999 -11c4.66699 3.33301 8.83398 7.33301 12.501 12s8.83398 7.33398 15.501 8.00098c17.333 0 26 -9.66699 26 -29c0 -0.666992 -0.666992 -2.83398 -2 -6.50098
s-2.66602 -7.66699 -3.99902 -12s-2.66602 -8.33301 -3.99902 -12s-2 -5.83398 -2 -6.50098c4.66699 6.66699 9.66699 14.834 15 24.501s11.333 18.834 18 27.501s13.834 16 21.501 22s16.167 9 25.5 9c18.667 0 31.167 -7.83301 37.5 -23.5s9.5 -32.834 9.5 -51.501v-6
l-2 -59c-0.666992 -19.333 -1.66699 -39.333 -3 -60c0 -2 0.166992 -9.33301 0.5 -22s0.666016 -26.667 0.999023 -42s0.666016 -29.666 0.999023 -42.999s0.5 -21.666 0.5 -24.999c0.666992 -7.33301 1 -15 1 -23v-24c0 -21.333 1 -41.833 3 -61.5s3 -39.167 3 -58.5
c0 -7.33301 -2.66699 -11 -8 -11c-2 0 -3.66699 1.66699 -5 5s-2.33301 7.16602 -3 11.499s-1.16699 8.66602 -1.5 12.999s-0.5 7.83301 -0.5 10.5c0 36 -0.833008 65 -2.5 87s-2.5 39.333 -2.5 52c0 9.33301 -0.166992 18 -0.5 26l-1 24
c-0.333008 8 -0.666016 16.5 -0.999023 25.5s-0.5 19.167 -0.5 30.5l4 74c0.666992 13.333 1.66699 26.833 3 40.5s2 27.167 2 40.5c0 12.667 -2.5 23.667 -7.5 33s-14.167 14 -27.5 14c-11.333 0 -20.5 -4.16699 -27.5 -12.5l-19.5 -23.5
c-18 -24.667 -32.167 -52.334 -42.5 -83.001s-17.166 -62 -20.499 -94c-3.33301 -34 -5.5 -68.667 -6.5 -104s-1.5 -71 -1.5 -107c0 -8.66699 0.333008 -16.667 1 -24s1 -15 1 -23c0 -2.66699 -0.166992 -5.33398 -0.5 -8.00098s-0.5 -5.33398 -0.5 -8.00098
c-1.33301 -0.666992 -2.66602 -1 -3.99902 -1c-3.33301 0 -5.5 1.16699 -6.5 3.5s-2.16699 6.16602 -3.5 11.499c-1.33301 7.33301 -2 14.666 -2 21.999v22c0 13.333 -0.666992 26.333 -2 39s-2 25.334 -2 38.001c0 19.333 0.666992 36.5 2 51.5s2 30.167 2 45.5
c0 8 1.66699 22.5 5 43.5s7.5 43.5 12.5 67.5s10.333 47.167 16 69.5s11.5 39.166 17.5 50.499c-1.33301 2 -3.16602 3.33301 -5.49902 4s-4.5 1.33398 -6.5 2.00098c-3.33301 0 -6.33301 -1.33301 -9 -4s-5 -5.5 -7 -8.5s-4 -5.66699 -6 -8s-4.33301 -3.5 -7 -3.5
c-3.33301 0 -7.33301 3.33301 -12 10s-10 10 -16 10c-3.33301 0 -5.5 -1.5 -6.5 -4.5s-1.5 -6.16699 -1.5 -9.5v-11c0 -3.33301 -0.166992 -6.66602 -0.5 -9.99902s-1.5 -5 -3.5 -5c-4 0 -6.5 3.5 -7.5 10.5s-1.5 14.167 -1.5 21.5s0.5 13.666 1.5 18.999
s2.5 8.66602 4.5 9.99902z" />
    <glyph glyph-name="thophuthaothai" unicode="&#xe12;" horiz-adv-x="356" 
d="M193 335c0 14.667 0.163086 27.1699 0.496094 37.5029s0.5 19.833 0.5 28.5c0 6 -0.166992 11.667 -0.5 17s-0.833008 10.666 -1.5 15.999c0 11.333 -1.83301 21.833 -5.5 31.5s-10.834 14.5 -21.501 14.5c-6 0 -11.5 -2.66699 -16.5 -8s-9.5 -10.666 -13.5 -15.999
c-2 -3.33301 -3.16699 -7.5 -3.5 -12.5s-2.16602 -7.5 -5.49902 -7.5c-3.33301 0.666992 -7.16602 3.66699 -11.499 9s-7.16602 9.66602 -8.49902 12.999c-4 8 -7.66699 13.667 -11 17s-9 5.66602 -17 6.99902c-11.333 -0.666992 -18.5 -6.66699 -21.5 -18
s-4.83301 -22.666 -5.5 -33.999c-0.666992 -3.33301 -1 -6.33301 -1 -9v-9c-1.33301 -41.333 -1.83301 -77.333 -1.5 -108s-0.5 -57 -2.5 -79c4 -1.33301 7 -2 9 -2c11.333 0 22.333 4.83301 33 14.5s18.334 19.834 23.001 30.501c2 4 3.66699 8.66699 5 14
s3.66602 8.66602 6.99902 9.99902c2 0 4.5 -2.16699 7.5 -6.5s4.5 -8.16602 4.5 -11.499c0 -11.333 -4.66699 -22.5 -14 -33.5s-18.666 -19.167 -27.999 -24.5l-19 -10c-5.33301 -2.66699 -13.666 -4.66699 -24.999 -6v-23c1.33301 -28 2.33301 -55 3 -81s2.66699 -52 6 -78
c0.666992 -2 1.5 -4.66699 2.5 -8s1.5 -6.33301 1.5 -9c0 -3.33301 -1.33301 -5.33301 -4 -6c-6.66699 0 -11 1.66699 -13 5c-6 19.333 -8.5 39.333 -7.5 60s0.166992 41 -2.5 61c-1.33301 10 -2.16602 18.5 -2.49902 25.5s-0.5 13.667 -0.5 20
s-0.166992 13.166 -0.5 20.499s-0.833008 16.333 -1.5 27v9c0 9.33301 0.333008 18.666 1 27.999l2 28c0.666992 9.33301 1 18.333 1 27v24v95c0.666992 6 1.33398 13.167 2.00098 21.5s2 16.666 4 24.999s5 15.5 9 21.5s9.66699 9.66699 17 11h6c12 0 21.667 -4 29 -12
s12.666 -16.667 15.999 -26c6 4.66699 11 11.667 15 21s10 15 18 17c2 0.666992 5.33301 1 10 1c9.33301 0 16.833 -2.5 22.5 -7.5s9.83398 -10.833 12.501 -17.5c2 -5.33301 4 -11.333 6 -18s3.66699 -13.334 5 -20.001c0.666992 -2 1 -5.66699 1 -11v-300
c0.666992 -4.66699 1.66699 -9.66699 3 -15l4 -16c2.66699 -12 5.83398 -21.833 9.50098 -29.5s8.83398 -16.167 15.501 -25.5l10.5 -13c3.66699 -4.66699 7.16699 -7.66699 10.5 -9c4 -1.33301 6.66699 -2 8 -2c9.33301 0 16.333 2.66699 21 8s8 12 10 20
s3.33301 16.5 4 25.5s1.66699 17.167 3 24.5c0 14.667 0.166992 28.334 0.5 41.001s0.5 24.667 0.5 36c0 34.667 -0.333008 63.5 -1 86.5s-1 42.167 -1 57.5v104v26.5c0 9 0.666992 18.5 2 28.5v14c0 8.66699 2.66699 14 8 16c4 0 6.5 -1.66699 7.5 -5s1.5 -6.33301 1.5 -9
s-0.166992 -5 -0.5 -7s-0.5 -4 -0.5 -6c0 -55.333 0.166992 -99.333 0.5 -132s0.666016 -58.167 0.999023 -76.5s0.666016 -31.833 0.999023 -40.5s0.5 -16.334 0.5 -23.001v-15c0 -5.33301 -0.333008 -10.666 -1 -15.999l-5 -88.5c-1.33301 -23 -3.5 -41.333 -6.5 -55
s-7.5 -23.167 -13.5 -28.5s-14 -8 -24 -8c-10.667 0 -18.667 2.33301 -24 7c-8.66699 7.33301 -17.167 18 -25.5 32s-14.5 26.333 -18.5 37c-0.666992 -2 -1 -5.33301 -1 -10c0 -8 0.666992 -16.333 2 -25s2 -16.667 2 -24v-5c0 -5.33301 -0.333008 -8.5 -1 -9.5
s-2.33398 -1.5 -5.00098 -1.5c-6 1.33301 -9.66699 4.33301 -11 9s-2 9.66699 -2 15l-1 14c0.666992 9.33301 1 17.333 1 24v18c0 12.667 -0.333008 21.667 -1 27s-1 13 -1 23c0 6.66699 0.166992 15 0.5 25s1.16602 23.667 2.49902 41v139z" />
    </font>
</defs>
</svg>
